999
Dxf file generated by netDxf https://netdxf.codeplex.com, Copyright(C) 2015 Daniel Carvajal, Licensed under LGPL
0
SECTION
2
HEADER
9
$ACADVER
1
AC1015
9
$DWGCODEPAGE
3
ANSI_1252
9
$HANDSEED
5
23E
9
$ANGBASE
50
0.0
9
$ANGDIR
70
0
9
$ATTMODE
70
1
9
$AUNITS
70
0
9
$AUPREC
70
0
9
$CECOLOR
62
256
9
$CELTSCALE
40
1.0
9
$CELTYPE
6
ByLayer
9
$CELWEIGHT
370
-1
9
$CLAYER
8
0
9
$CMLJUST
70
0
9
$CMLSCALE
40
20.0
9
$CMLSTYLE
2
Standard
9
$DIMSTYLE
2
Standard
9
$TEXTSIZE
40
2.5
9
$TEXTSTYLE
7
Standard
9
$LUNITS
70
2
9
$LUPREC
70
4
9
$EXTNAMES
290
1
9
$INSBASE
10
0.0
20
0.0
30
0.0
9
$INSUNITS
70
0
9
$LTSCALE
40
1.0
9
$LWDISPLAY
290
0
9
$PDMODE
70
0
9
$PDSIZE
40
0.0
9
$PLINEGEN
70
0
9
$PSLTSCALE
70
1
9
$TDCREATE
40
2461225.43294863
9
$TDUCREATE
40
2461225.55794863
9
$TDUPDATE
40
2461225.43294863
9
$TDUUPDATE
40
2461225.55794863
9
$TDINDWG
40
0.0
9
$DIMADEC
70
0
9
$DIMAUNIT
70
0
9
$DIMASZ
40
0.18
9
$DIMAZIN
70
0
9
$DIMBLK
1

9
$DIMBLK1
1

9
$DIMBLK2
1

9
$DIMLDRBLK
1

9
$DIMCEN
40
0.09
9
$DIMCLRD
70
0
9
$DIMCLRE
70
0
9
$DIMCLRT
70
0
9
$DIMDEC
70
2
9
$DIMDLE
40
0.0
9
$DIMDLI
40
0.38
9
$DIMDSEP
70
46
9
$DIMEXE
40
0.18
9
$DIMEXO
40
0.0625
9
$DIMGAP
40
0.09
9
$DIMJUST
70
0
9
$DIMLFAC
40
1.0
9
$DIMLUNIT
70
2
9
$DIMLWD
70
-2
9
$DIMLWE
70
-2
9
$DIMPOST
1
<>
9
$DIMRND
40
0.0
9
$DIMSAH
70
0
9
$DIMSCALE
40
1.0
9
$DIMSE1
70
0
9
$DIMSE2
70
0
9
$DIMTAD
70
1
9
$DIMTIH
70
0
9
$DIMTOH
70
0
9
$DIMTXT
40
0.18
9
$DIMZIN
70
0
9
$DIMFRAC
70
0
9
$DIMLTYPE
6
ByBlock
9
$DIMLTEX1
6
ByBlock
9
$DIMLTEX2
6
ByBlock
0
ENDSEC
0
SECTION
2
CLASSES
0
CLASS
1
RASTERVARIABLES
2
AcDbRasterVariables
3
ISM
90
0
280
0
281
0
0
ENDSEC
0
SECTION
2
TABLES
0
TABLE
2
APPID
5
4
330
0
100
AcDbSymbolTable
70
4
0
APPID
5
17
330
4
100
AcDbSymbolTableRecord
100
AcDbRegAppTableRecord
2
ACAD
70
0
0
APPID
5
233
330
4
100
AcDbSymbolTableRecord
100
AcDbRegAppTableRecord
2
AcCmTransparency
70
0
0
APPID
5
234
330
4
100
AcDbSymbolTableRecord
100
AcDbRegAppTableRecord
2
GradientColor1ACI
70
0
0
APPID
5
235
330
4
100
AcDbSymbolTableRecord
100
AcDbRegAppTableRecord
2
GradientColor2ACI
70
0
0
ENDTAB
0
TABLE
2
VPORT
5
1
330
0
100
AcDbSymbolTable
70
1
0
VPORT
5
2
330
1
100
AcDbSymbolTableRecord
100
AcDbViewportTableRecord
2
*Active
70
0
10
0.0
20
0.0
11
1.0
21
1.0
12
0.0
22
0.0
13
0.0
23
0.0
14
0.5
24
0.5
15
10.0
25
10.0
16
0.0
26
0.0
36
1.0
17
0.0
27
0.0
37
0.0
40
10.0
41
1.0
75
0
76
1
0
ENDTAB
0
TABLE
2
LTYPE
5
6
330
0
100
AcDbSymbolTable
70
3
0
LTYPE
5
13
330
6
100
AcDbSymbolTableRecord
100
AcDbLinetypeTableRecord
70
0
2
Continuous
3
Solid line
72
65
73
0
40
0.0
0
LTYPE
5
14
330
6
100
AcDbSymbolTableRecord
100
AcDbLinetypeTableRecord
70
0
2
ByLayer
3

72
65
73
0
40
0.0
0
LTYPE
5
15
330
6
100
AcDbSymbolTableRecord
100
AcDbLinetypeTableRecord
70
0
2
ByBlock
3

72
65
73
0
40
0.0
0
ENDTAB
0
TABLE
2
LAYER
5
5
330
0
100
AcDbSymbolTable
70
7
0
LAYER
5
12
330
5
100
AcDbSymbolTableRecord
100
AcDbLayerTableRecord
2
0
70
0
62
7
6
Continuous
290
1
370
-3
390
0
0
LAYER
5
21
330
5
100
AcDbSymbolTableRecord
100
AcDbLayerTableRecord
2
Hole
70
0
62
7
6
Continuous
290
1
370
-3
390
0
0
LAYER
5
23
330
5
100
AcDbSymbolTableRecord
100
AcDbLayerTableRecord
2
Theoretical Hole
70
0
62
7
6
Continuous
290
1
370
-3
390
0
0
LAYER
5
25
330
5
100
AcDbSymbolTableRecord
100
AcDbLayerTableRecord
2
Number
70
0
62
7
6
Continuous
290
1
370
-3
390
0
0
LAYER
5
27
330
5
100
AcDbSymbolTableRecord
100
AcDbLayerTableRecord
2
label
70
0
62
7
6
Continuous
290
1
370
-3
390
0
0
LAYER
5
29
330
5
100
AcDbSymbolTableRecord
100
AcDbLayerTableRecord
2
Length
70
0
62
7
6
Continuous
290
1
370
-3
390
0
0
LAYER
5
C4
330
5
100
AcDbSymbolTableRecord
100
AcDbLayerTableRecord
2
Real Hole
70
0
62
7
6
Continuous
290
1
370
-3
390
0
0
ENDTAB
0
TABLE
2
STYLE
5
7
330
0
100
AcDbSymbolTable
70
1
0
STYLE
5
16
330
7
100
AcDbSymbolTableRecord
100
AcDbTextStyleTableRecord
2
Standard
3
simplex.shx
70
0
71
0
40
0.0
41
1.0
42
0.0
50
0.0
0
ENDTAB
0
TABLE
2
DIMSTYLE
5
8
330
0
100
AcDbSymbolTable
70
1
100
AcDbDimStyleTable
0
DIMSTYLE
105
18
330
8
100
AcDbSymbolTableRecord
100
AcDbDimStyleTableRecord
2
Standard
70
0
3
<>
40
1.0
41
0.18
42
0.0625
43
0.38
44
0.18
45
0.0
46
0.0
73
0
74
0
75
0
76
0
77
1
78
0
79
0
140
0.18
141
0.09
144
1.0
147
0.09
173
0
176
0
177
0
178
0
179
0
271
2
275
0
276
0
277
2
278
46
280
0
340
16
345
15
346
15
347
15
371
-2
372
-2
0
ENDTAB
0
TABLE
2
VIEW
5
3
330
0
100
AcDbSymbolTable
70
0
0
ENDTAB
0
TABLE
2
UCS
5
A
330
0
100
AcDbSymbolTable
70
0
0
ENDTAB
0
TABLE
2
BLOCK_RECORD
5
B
330
0
100
AcDbSymbolTable
70
2
0
BLOCK_RECORD
5
1A
330
B
100
AcDbSymbolTableRecord
100
AcDbBlockTableRecord
2
*Model_Space
340
1E
0
BLOCK_RECORD
5
22D
330
B
100
AcDbSymbolTableRecord
100
AcDbBlockTableRecord
2
*Paper_Space
340
232
0
ENDTAB
0
ENDSEC
0
SECTION
2
BLOCKS
0
BLOCK
5
1C
330
1A
100
AcDbEntity
8
0
100
AcDbBlockBegin
2
*Model_Space
70
0
10
0.0
20
0.0
30
0.0
3
*Model_Space
0
ENDBLK
5
1B
330
1A
100
AcDbEntity
8
0
100
AcDbBlockEnd
0
BLOCK
5
22F
330
22D
100
AcDbEntity
8
0
100
AcDbBlockBegin
2
*Paper_Space
70
0
10
0.0
20
0.0
30
0.0
3
*Paper_Space
0
ENDBLK
5
22E
330
22D
100
AcDbEntity
8
0
100
AcDbBlockEnd
0
ENDSEC
0
SECTION
2
ENTITIES
0
POINT
5
20
330
1A
100
AcDbEntity
67
0
8
Hole
62
40
420
16760832
6
ByLayer
370
-1
48
1.0
60
0
100
AcDbPoint
10
748628.11999939
20
8930161.25
30
190.680000009537
39
0.0
210
0.0
220
0.0
230
1.0
50
360.0
0
LINE
5
22
330
1A
100
AcDbEntity
67
0
8
Theoretical Hole
62
40
420
16760832
6
ByLayer
370
-1
48
1.0
60
0
100
AcDbLine
10
748628.11999939
20
8930161.25
30
190.680000009537
11
748628.034012299
21
8930163.84210652
31
180.00040763855
39
0.0
210
0.0
220
0.0
230
1.0
0
TEXT
5
24
330
1A
100
AcDbEntity
67
0
8
Number
62
40
420
16760832
6
ByLayer
370
-1
48
1.0
60
0
100
AcDbText
1
1
10
748628.11999939
20
8930161.55599999
30
190.680000009537
40
0.3
41
1.0
50
0.0
51
0.0
7
Standard
11
748628.11999939
21
8930161.55599999
31
190.680000009537
210
0.0
220
0.0
230
1.0
72
0
100
AcDbText
73
0
0
TEXT
5
26
330
1A
100
AcDbEntity
67
0
8
label
62
1
420
16711680
6
ByLayer
370
-1
48
1.0
60
0
100
AcDbText
1

10
748628.11999939
20
8930161.95599999
30
190.680000009537
40
0.3
41
1.0
50
0.0
51
0.0
7
Standard
11
748628.11999939
21
8930161.95599999
31
190.680000009537
210
0.0
220
0.0
230
1.0
72
0
100
AcDbText
73
0
0
TEXT
5
28
330
1A
100
AcDbEntity
67
0
8
Length
62
40
420
16760832
6
ByLayer
370
-1
48
1.0
60
0
100
AcDbText
1
10.99
10
748628.11999939
20
8930160.546
30
190.680000009537
40
0.3
41
1.0
50
0.0
51
0.0
7
Standard
11
748628.11999939
21
8930160.546
31
190.680000009537
210
0.0
220
0.0
230
1.0
72
0
100
AcDbText
73
0
0
POINT
5
2A
330
1A
100
AcDbEntity
67
0
8
Hole
62
40
420
16760832
6
ByLayer
370
-1
48
1.0
60
0
100
AcDbPoint
10
748626.919998627
20
8930161.21
30
190.69
39
0.0
210
0.0
220
0.0
230
1.0
50
360.0
0
LINE
5
2B
330
1A
100
AcDbEntity
67
0
8
Theoretical Hole
62
40
420
16760832
6
ByLayer
370
-1
48
1.0
60
0
100
AcDbLine
10
748626.919998627
20
8930161.21
30
190.69
11
748626.869938354
21
8930163.8171069
31
179.993245544434
39
0.0
210
0.0
220
0.0
230
1.0
0
TEXT
5
2C
330
1A
100
AcDbEntity
67
0
8
Number
62
40
420
16760832
6
ByLayer
370
-1
48
1.0
60
0
100
AcDbText
1
2
10
748626.919998627
20
8930161.51599999
30
190.69
40
0.3
41
1.0
50
0.0
51
0.0
7
Standard
11
748626.919998627
21
8930161.51599999
31
190.69
210
0.0
220
0.0
230
1.0
72
0
100
AcDbText
73
0
0
TEXT
5
2D
330
1A
100
AcDbEntity
67
0
8
label
62
1
420
16711680
6
ByLayer
370
-1
48
1.0
60
0
100
AcDbText
1

10
748626.919998627
20
8930161.91599999
30
190.69
40
0.3
41
1.0
50
0.0
51
0.0
7
Standard
11
748626.919998627
21
8930161.91599999
31
190.69
210
0.0
220
0.0
230
1.0
72
0
100
AcDbText
73
0
0
TEXT
5
2E
330
1A
100
AcDbEntity
67
0
8
Length
62
40
420
16760832
6
ByLayer
370
-1
48
1.0
60
0
100
AcDbText
1
11.01
10
748626.919998627
20
8930160.506
30
190.69
40
0.3
41
1.0
50
0.0
51
0.0
7
Standard
11
748626.919998627
21
8930160.506
31
190.69
210
0.0
220
0.0
230
1.0
72
0
100
AcDbText
73
0
0
POINT
5
2F
330
1A
100
AcDbEntity
67
0
8
Hole
62
40
420
16760832
6
ByLayer
370
-1
48
1.0
60
0
100
AcDbPoint
10
748625.720001678
20
8930161.19
30
190.680000009537
39
0.0
210
0.0
220
0.0
230
1.0
50
360.0
0
LINE
5
30
330
1A
100
AcDbEntity
67
0
8
Theoretical Hole
62
40
420
16760832
6
ByLayer
370
-1
48
1.0
60
0
100
AcDbLine
10
748625.720001678
20
8930161.19
30
190.680000009537
11
748625.777279358
21
8930163.79408497
31
180.003129425049
39
0.0
210
0.0
220
0.0
230
1.0
0
TEXT
5
31
330
1A
100
AcDbEntity
67
0
8
Number
62
40
420
16760832
6
ByLayer
370
-1
48
1.0
60
0
100
AcDbText
1
3
10
748625.720001678
20
8930161.49599999
30
190.680000009537
40
0.3
41
1.0
50
0.0
51
0.0
7
Standard
11
748625.720001678
21
8930161.49599999
31
190.680000009537
210
0.0
220
0.0
230
1.0
72
0
100
AcDbText
73
0
0
TEXT
5
32
330
1A
100
AcDbEntity
67
0
8
label
62
1
420
16711680
6
ByLayer
370
-1
48
1.0
60
0
100
AcDbText
1

10
748625.720001678
20
8930161.89599999
30
190.680000009537
40
0.3
41
1.0
50
0.0
51
0.0
7
Standard
11
748625.720001678
21
8930161.89599999
31
190.680000009537
210
0.0
220
0.0
230
1.0
72
0
100
AcDbText
73
0
0
TEXT
5
33
330
1A
100
AcDbEntity
67
0
8
Length
62
40
420
16760832
6
ByLayer
370
-1
48
1.0
60
0
100
AcDbText
1
10.99
10
748625.720001678
20
8930160.486
30
190.680000009537
40
0.3
41
1.0
50
0.0
51
0.0
7
Standard
11
748625.720001678
21
8930160.486
31
190.680000009537
210
0.0
220
0.0
230
1.0
72
0
100
AcDbText
73
0
0
POINT
5
34
330
1A
100
AcDbEntity
67
0
8
Hole
62
40
420
16760832
6
ByLayer
370
-1
48
1.0
60
0
100
AcDbPoint
10
748624.520000916
20
8930161.22
30
190.649999978542
39
0.0
210
0.0
220
0.0
230
1.0
50
360.0
0
LINE
5
35
330
1A
100
AcDbEntity
67
0
8
Theoretical Hole
62
40
420
16760832
6
ByLayer
370
-1
48
1.0
60
0
100
AcDbLine
10
748624.520000916
20
8930161.22
30
190.649999978542
11
748624.577293854
21
8930163.82492489
31
179.99392074585
39
0.0
210
0.0
220
0.0
230
1.0
0
TEXT
5
36
330
1A
100
AcDbEntity
67
0
8
Number
62
40
420
16760832
6
ByLayer
370
-1
48
1.0
60
0
100
AcDbText
1
4
10
748624.520000916
20
8930161.52599999
30
190.649999978542
40
0.3
41
1.0
50
0.0
51
0.0
7
Standard
11
748624.520000916
21
8930161.52599999
31
190.649999978542
210
0.0
220
0.0
230
1.0
72
0
100
AcDbText
73
0
0
TEXT
5
37
330
1A
100
AcDbEntity
67
0
8
label
62
1
420
16711680
6
ByLayer
370
-1
48
1.0
60
0
100
AcDbText
1

10
748624.520000916
20
8930161.92599999
30
190.649999978542
40
0.3
41
1.0
50
0.0
51
0.0
7
Standard
11
748624.520000916
21
8930161.92599999
31
190.649999978542
210
0.0
220
0.0
230
1.0
72
0
100
AcDbText
73
0
0
TEXT
5
38
330
1A
100
AcDbEntity
67
0
8
Length
62
40
420
16760832
6
ByLayer
370
-1
48
1.0
60
0
100
AcDbText
1
10.97
10
748624.520000916
20
8930160.516
30
190.649999978542
40
0.3
41
1.0
50
0.0
51
0.0
7
Standard
11
748624.520000916
21
8930160.516
31
190.649999978542
210
0.0
220
0.0
230
1.0
72
0
100
AcDbText
73
0
0
POINT
5
39
330
1A
100
AcDbEntity
67
0
8
Hole
62
40
420
16760832
6
ByLayer
370
-1
48
1.0
60
0
100
AcDbPoint
10
748623.320000153
20
8930161.24
30
190.620000007153
39
0.0
210
0.0
220
0.0
230
1.0
50
360.0
0
LINE
5
3A
330
1A
100
AcDbEntity
67
0
8
Theoretical Hole
62
40
420
16760832
6
ByLayer
370
-1
48
1.0
60
0
100
AcDbLine
10
748623.320000153
20
8930161.24
30
190.620000007153
11
748623.454777222
21
8930163.85535616
31
179.998073043823
39
0.0
210
0.0
220
0.0
230
1.0
0
TEXT
5
3B
330
1A
100
AcDbEntity
67
0
8
Number
62
40
420
16760832
6
ByLayer
370
-1
48
1.0
60
0
100
AcDbText
1
5
10
748623.320000153
20
8930161.54599999
30
190.620000007153
40
0.3
41
1.0
50
0.0
51
0.0
7
Standard
11
748623.320000153
21
8930161.54599999
31
190.620000007153
210
0.0
220
0.0
230
1.0
72
0
100
AcDbText
73
0
0
TEXT
5
3C
330
1A
100
AcDbEntity
67
0
8
label
62
1
420
16711680
6
ByLayer
370
-1
48
1.0
60
0
100
AcDbText
1

10
748623.320000153
20
8930161.94599999
30
190.620000007153
40
0.3
41
1.0
50
0.0
51
0.0
7
Standard
11
748623.320000153
21
8930161.94599999
31
190.620000007153
210
0.0
220
0.0
230
1.0
72
0
100
AcDbText
73
0
0
TEXT
5
3D
330
1A
100
AcDbEntity
67
0
8
Length
62
40
420
16760832
6
ByLayer
370
-1
48
1.0
60
0
100
AcDbText
1
10.94
10
748623.320000153
20
8930160.536
30
190.620000007153
40
0.3
41
1.0
50
0.0
51
0.0
7
Standard
11
748623.320000153
21
8930160.536
31
190.620000007153
210
0.0
220
0.0
230
1.0
72
0
100
AcDbText
73
0
0
POINT
5
3E
330
1A
100
AcDbEntity
67
0
8
Hole
62
40
420
16760832
6
ByLayer
370
-1
48
1.0
60
0
100
AcDbPoint
10
748622.11999939
20
8930161.3
30
190.600000026226
39
0.0
210
0.0
220
0.0
230
1.0
50
360.0
0
LINE
5
3F
330
1A
100
AcDbEntity
67
0
8
Theoretical Hole
62
40
420
16760832
6
ByLayer
370
-1
48
1.0
60
0
100
AcDbLine
10
748622.11999939
20
8930161.3
30
190.600000026226
11
748622.291321259
21
8930163.89304799
31
180.004017295837
39
0.0
210
0.0
220
0.0
230
1.0
0
TEXT
5
40
330
1A
100
AcDbEntity
67
0
8
Number
62
40
420
16760832
6
ByLayer
370
-1
48
1.0
60
0
100
AcDbText
1
6
10
748622.11999939
20
8930161.60599999
30
190.600000026226
40
0.3
41
1.0
50
0.0
51
0.0
7
Standard
11
748622.11999939
21
8930161.60599999
31
190.600000026226
210
0.0
220
0.0
230
1.0
72
0
100
AcDbText
73
0
0
TEXT
5
41
330
1A
100
AcDbEntity
67
0
8
label
62
1
420
16711680
6
ByLayer
370
-1
48
1.0
60
0
100
AcDbText
1

10
748622.11999939
20
8930162.00599999
30
190.600000026226
40
0.3
41
1.0
50
0.0
51
0.0
7
Standard
11
748622.11999939
21
8930162.00599999
31
190.600000026226
210
0.0
220
0.0
230
1.0
72
0
100
AcDbText
73
0
0
TEXT
5
42
330
1A
100
AcDbEntity
67
0
8
Length
62
40
420
16760832
6
ByLayer
370
-1
48
1.0
60
0
100
AcDbText
1
10.91
10
748622.11999939
20
8930160.596
30
190.600000026226
40
0.3
41
1.0
50
0.0
51
0.0
7
Standard
11
748622.11999939
21
8930160.596
31
190.600000026226
210
0.0
220
0.0
230
1.0
72
0
100
AcDbText
73
0
0
POINT
5
43
330
1A
100
AcDbEntity
67
0
8
Hole
62
40
420
16760832
6
ByLayer
370
-1
48
1.0
60
0
100
AcDbPoint
10
748620.930000763
20
8930161.38
30
190.600000026226
39
0.0
210
0.0
220
0.0
230
1.0
50
360.0
0
LINE
5
44
330
1A
100
AcDbEntity
67
0
8
Theoretical Hole
62
40
420
16760832
6
ByLayer
370
-1
48
1.0
60
0
100
AcDbLine
10
748620.930000763
20
8930161.38
30
190.600000026226
11
748621.131741028
21
8930163.98995441
31
179.998402061462
39
0.0
210
0.0
220
0.0
230
1.0
0
TEXT
5
45
330
1A
100
AcDbEntity
67
0
8
Number
62
40
420
16760832
6
ByLayer
370
-1
48
1.0
60
0
100
AcDbText
1
7
10
748620.930000763
20
8930161.68599999
30
190.600000026226
40
0.3
41
1.0
50
0.0
51
0.0
7
Standard
11
748620.930000763
21
8930161.68599999
31
190.600000026226
210
0.0
220
0.0
230
1.0
72
0
100
AcDbText
73
0
0
TEXT
5
46
330
1A
100
AcDbEntity
67
0
8
label
62
1
420
16711680
6
ByLayer
370
-1
48
1.0
60
0
100
AcDbText
1

10
748620.930000763
20
8930162.08599999
30
190.600000026226
40
0.3
41
1.0
50
0.0
51
0.0
7
Standard
11
748620.930000763
21
8930162.08599999
31
190.600000026226
210
0.0
220
0.0
230
1.0
72
0
100
AcDbText
73
0
0
TEXT
5
47
330
1A
100
AcDbEntity
67
0
8
Length
62
40
420
16760832
6
ByLayer
370
-1
48
1.0
60
0
100
AcDbText
1
10.92
10
748620.930000763
20
8930160.676
30
190.600000026226
40
0.3
41
1.0
50
0.0
51
0.0
7
Standard
11
748620.930000763
21
8930160.676
31
190.600000026226
210
0.0
220
0.0
230
1.0
72
0
100
AcDbText
73
0
0
POINT
5
48
330
1A
100
AcDbEntity
67
0
8
Hole
62
40
420
16760832
6
ByLayer
370
-1
48
1.0
60
0
100
AcDbPoint
10
748619.73
20
8930161.47999999
30
190.649999978542
39
0.0
210
0.0
220
0.0
230
1.0
50
360.0
0
LINE
5
49
330
1A
100
AcDbEntity
67
0
8
Theoretical Hole
62
40
420
16760832
6
ByLayer
370
-1
48
1.0
60
0
100
AcDbLine
10
748619.73
20
8930161.47999999
30
190.649999978542
11
748620.027866821
21
8930164.09841389
31
180.001238288879
39
0.0
210
0.0
220
0.0
230
1.0
0
TEXT
5
4A
330
1A
100
AcDbEntity
67
0
8
Number
62
40
420
16760832
6
ByLayer
370
-1
48
1.0
60
0
100
AcDbText
1
8
10
748619.73
20
8930161.78599999
30
190.649999978542
40
0.3
41
1.0
50
0.0
51
0.0
7
Standard
11
748619.73
21
8930161.78599999
31
190.649999978542
210
0.0
220
0.0
230
1.0
72
0
100
AcDbText
73
0
0
TEXT
5
4B
330
1A
100
AcDbEntity
67
0
8
label
62
1
420
16711680
6
ByLayer
370
-1
48
1.0
60
0
100
AcDbText
1

10
748619.73
20
8930162.18599999
30
190.649999978542
40
0.3
41
1.0
50
0.0
51
0.0
7
Standard
11
748619.73
21
8930162.18599999
31
190.649999978542
210
0.0
220
0.0
230
1.0
72
0
100
AcDbText
73
0
0
TEXT
5
4C
330
1A
100
AcDbEntity
67
0
8
Length
62
40
420
16760832
6
ByLayer
370
-1
48
1.0
60
0
100
AcDbText
1
10.97
10
748619.73
20
8930160.77599999
30
190.649999978542
40
0.3
41
1.0
50
0.0
51
0.0
7
Standard
11
748619.73
21
8930160.77599999
31
190.649999978542
210
0.0
220
0.0
230
1.0
72
0
100
AcDbText
73
0
0
POINT
5
4D
330
1A
100
AcDbEntity
67
0
8
Hole
62
40
420
16760832
6
ByLayer
370
-1
48
1.0
60
0
100
AcDbPoint
10
748618.540001373
20
8930161.60999999
30
190.699999990463
39
0.0
210
0.0
220
0.0
230
1.0
50
360.0
0
LINE
5
4E
330
1A
100
AcDbEntity
67
0
8
Theoretical Hole
62
40
420
16760832
6
ByLayer
370
-1
48
1.0
60
0
100
AcDbLine
10
748618.540001373
20
8930161.60999999
30
190.699999990463
11
748618.83521698
21
8930164.2050876
31
179.993983688354
39
0.0
210
0.0
220
0.0
230
1.0
0
TEXT
5
4F
330
1A
100
AcDbEntity
67
0
8
Number
62
40
420
16760832
6
ByLayer
370
-1
48
1.0
60
0
100
AcDbText
1
9
10
748618.540001373
20
8930161.91599998
30
190.699999990463
40
0.3
41
1.0
50
0.0
51
0.0
7
Standard
11
748618.540001373
21
8930161.91599998
31
190.699999990463
210
0.0
220
0.0
230
1.0
72
0
100
AcDbText
73
0
0
TEXT
5
50
330
1A
100
AcDbEntity
67
0
8
label
62
1
420
16711680
6
ByLayer
370
-1
48
1.0
60
0
100
AcDbText
1

10
748618.540001373
20
8930162.31599998
30
190.699999990463
40
0.3
41
1.0
50
0.0
51
0.0
7
Standard
11
748618.540001373
21
8930162.31599998
31
190.699999990463
210
0.0
220
0.0
230
1.0
72
0
100
AcDbText
73
0
0
TEXT
5
51
330
1A
100
AcDbEntity
67
0
8
Length
62
40
420
16760832
6
ByLayer
370
-1
48
1.0
60
0
100
AcDbText
1
11.02
10
748618.540001373
20
8930160.90599999
30
190.699999990463
40
0.3
41
1.0
50
0.0
51
0.0
7
Standard
11
748618.540001373
21
8930160.90599999
31
190.699999990463
210
0.0
220
0.0
230
1.0
72
0
100
AcDbText
73
0
0
POINT
5
52
330
1A
100
AcDbEntity
67
0
8
Hole
62
40
420
16760832
6
ByLayer
370
-1
48
1.0
60
0
100
AcDbPoint
10
748617.34000061
20
8930161.75
30
190.649999978542
39
0.0
210
0.0
220
0.0
230
1.0
50
360.0
0
LINE
5
53
330
1A
100
AcDbEntity
67
0
8
Theoretical Hole
62
40
420
16760832
6
ByLayer
370
-1
48
1.0
60
0
100
AcDbLine
10
748617.34000061
20
8930161.75
30
190.649999978542
11
748617.765449982
21
8930164.37389344
31
179.996618690491
39
0.0
210
0.0
220
0.0
230
1.0
0
TEXT
5
54
330
1A
100
AcDbEntity
67
0
8
Number
62
40
420
16760832
6
ByLayer
370
-1
48
1.0
60
0
100
AcDbText
1
10
10
748617.34000061
20
8930162.056
30
190.649999978542
40
0.3
41
1.0
50
0.0
51
0.0
7
Standard
11
748617.34000061
21
8930162.056
31
190.649999978542
210
0.0
220
0.0
230
1.0
72
0
100
AcDbText
73
0
0
TEXT
5
55
330
1A
100
AcDbEntity
67
0
8
label
62
1
420
16711680
6
ByLayer
370
-1
48
1.0
60
0
100
AcDbText
1

10
748617.34000061
20
8930162.456
30
190.649999978542
40
0.3
41
1.0
50
0.0
51
0.0
7
Standard
11
748617.34000061
21
8930162.456
31
190.649999978542
210
0.0
220
0.0
230
1.0
72
0
100
AcDbText
73
0
0
TEXT
5
56
330
1A
100
AcDbEntity
67
0
8
Length
62
40
420
16760832
6
ByLayer
370
-1
48
1.0
60
0
100
AcDbText
1
10.98
10
748617.34000061
20
8930161.04600001
30
190.649999978542
40
0.3
41
1.0
50
0.0
51
0.0
7
Standard
11
748617.34000061
21
8930161.04600001
31
190.649999978542
210
0.0
220
0.0
230
1.0
72
0
100
AcDbText
73
0
0
POINT
5
57
330
1A
100
AcDbEntity
67
0
8
Hole
62
40
420
16760832
6
ByLayer
370
-1
48
1.0
60
0
100
AcDbPoint
10
748616.160000305
20
8930161.94
30
190.610000016689
39
0.0
210
0.0
220
0.0
230
1.0
50
360.0
0
LINE
5
58
330
1A
100
AcDbEntity
67
0
8
Theoretical Hole
62
40
420
16760832
6
ByLayer
370
-1
48
1.0
60
0
100
AcDbLine
10
748616.160000305
20
8930161.94
30
190.610000016689
11
748616.591404419
21
8930164.55440468
31
180.006053390503
39
0.0
210
0.0
220
0.0
230
1.0
0
TEXT
5
59
330
1A
100
AcDbEntity
67
0
8
Number
62
40
420
16760832
6
ByLayer
370
-1
48
1.0
60
0
100
AcDbText
1
11
10
748616.160000305
20
8930162.24599999
30
190.610000016689
40
0.3
41
1.0
50
0.0
51
0.0
7
Standard
11
748616.160000305
21
8930162.24599999
31
190.610000016689
210
0.0
220
0.0
230
1.0
72
0
100
AcDbText
73
0
0
TEXT
5
5A
330
1A
100
AcDbEntity
67
0
8
label
62
1
420
16711680
6
ByLayer
370
-1
48
1.0
60
0
100
AcDbText
1

10
748616.160000305
20
8930162.64599999
30
190.610000016689
40
0.3
41
1.0
50
0.0
51
0.0
7
Standard
11
748616.160000305
21
8930162.64599999
31
190.610000016689
210
0.0
220
0.0
230
1.0
72
0
100
AcDbText
73
0
0
TEXT
5
5B
330
1A
100
AcDbEntity
67
0
8
Length
62
40
420
16760832
6
ByLayer
370
-1
48
1.0
60
0
100
AcDbText
1
10.93
10
748616.160000305
20
8930161.236
30
190.610000016689
40
0.3
41
1.0
50
0.0
51
0.0
7
Standard
11
748616.160000305
21
8930161.236
31
190.610000016689
210
0.0
220
0.0
230
1.0
72
0
100
AcDbText
73
0
0
POINT
5
5C
330
1A
100
AcDbEntity
67
0
8
Hole
62
40
420
16760832
6
ByLayer
370
-1
48
1.0
60
0
100
AcDbPoint
10
748614.98
20
8930162.13999999
30
190.639999988079
39
0.0
210
0.0
220
0.0
230
1.0
50
360.0
0
LINE
5
5D
330
1A
100
AcDbEntity
67
0
8
Theoretical Hole
62
40
420
16760832
6
ByLayer
370
-1
48
1.0
60
0
100
AcDbLine
10
748614.98
20
8930162.13999999
30
190.639999988079
11
748615.52309082
21
8930164.75100178
31
179.999105873108
39
0.0
210
0.0
220
0.0
230
1.0
0
TEXT
5
5E
330
1A
100
AcDbEntity
67
0
8
Number
62
40
420
16760832
6
ByLayer
370
-1
48
1.0
60
0
100
AcDbText
1
12
10
748614.98
20
8930162.44599998
30
190.639999988079
40
0.3
41
1.0
50
0.0
51
0.0
7
Standard
11
748614.98
21
8930162.44599998
31
190.639999988079
210
0.0
220
0.0
230
1.0
72
0
100
AcDbText
73
0
0
TEXT
5
5F
330
1A
100
AcDbEntity
67
0
8
label
62
1
420
16711680
6
ByLayer
370
-1
48
1.0
60
0
100
AcDbText
1

10
748614.98
20
8930162.84599998
30
190.639999988079
40
0.3
41
1.0
50
0.0
51
0.0
7
Standard
11
748614.98
21
8930162.84599998
31
190.639999988079
210
0.0
220
0.0
230
1.0
72
0
100
AcDbText
73
0
0
TEXT
5
60
330
1A
100
AcDbEntity
67
0
8
Length
62
40
420
16760832
6
ByLayer
370
-1
48
1.0
60
0
100
AcDbText
1
10.97
10
748614.98
20
8930161.43599999
30
190.639999988079
40
0.3
41
1.0
50
0.0
51
0.0
7
Standard
11
748614.98
21
8930161.43599999
31
190.639999988079
210
0.0
220
0.0
230
1.0
72
0
100
AcDbText
73
0
0
POINT
5
61
330
1A
100
AcDbEntity
67
0
8
Hole
62
40
420
16760832
6
ByLayer
370
-1
48
1.0
60
0
100
AcDbPoint
10
748613.799999695
20
8930162.38000006
30
190.69
39
0.0
210
0.0
220
0.0
230
1.0
50
360.0
0
LINE
5
62
330
1A
100
AcDbEntity
67
0
8
Theoretical Hole
62
40
420
16760832
6
ByLayer
370
-1
48
1.0
60
0
100
AcDbLine
10
748613.799999695
20
8930162.38000006
30
190.69
11
748614.377457123
21
8930164.99988693
31
180.001541557312
39
0.0
210
0.0
220
0.0
230
1.0
0
TEXT
5
63
330
1A
100
AcDbEntity
67
0
8
Number
62
40
420
16760832
6
ByLayer
370
-1
48
1.0
60
0
100
AcDbText
1
13
10
748613.799999695
20
8930162.68600005
30
190.69
40
0.3
41
1.0
50
0.0
51
0.0
7
Standard
11
748613.799999695
21
8930162.68600005
31
190.69
210
0.0
220
0.0
230
1.0
72
0
100
AcDbText
73
0
0
TEXT
5
64
330
1A
100
AcDbEntity
67
0
8
label
62
1
420
16711680
6
ByLayer
370
-1
48
1.0
60
0
100
AcDbText
1

10
748613.799999695
20
8930163.08600005
30
190.69
40
0.3
41
1.0
50
0.0
51
0.0
7
Standard
11
748613.799999695
21
8930163.08600005
31
190.69
210
0.0
220
0.0
230
1.0
72
0
100
AcDbText
73
0
0
TEXT
5
65
330
1A
100
AcDbEntity
67
0
8
Length
62
40
420
16760832
6
ByLayer
370
-1
48
1.0
60
0
100
AcDbText
1
11.02
10
748613.799999695
20
8930161.67600006
30
190.69
40
0.3
41
1.0
50
0.0
51
0.0
7
Standard
11
748613.799999695
21
8930161.67600006
31
190.69
210
0.0
220
0.0
230
1.0
72
0
100
AcDbText
73
0
0
POINT
5
66
330
1A
100
AcDbEntity
67
0
8
Hole
62
40
420
16760832
6
ByLayer
370
-1
48
1.0
60
0
100
AcDbPoint
10
748612.629999619
20
8930162.64000005
30
190.709999980927
39
0.0
210
0.0
220
0.0
230
1.0
50
360.0
0
LINE
5
67
330
1A
100
AcDbEntity
67
0
8
Theoretical Hole
62
40
420
16760832
6
ByLayer
370
-1
48
1.0
60
0
100
AcDbLine
10
748612.629999619
20
8930162.64000005
30
190.709999980927
11
748613.314732056
21
8930165.23895258
31
180.00214427948
39
0.0
210
0.0
220
0.0
230
1.0
0
TEXT
5
68
330
1A
100
AcDbEntity
67
0
8
Number
62
40
420
16760832
6
ByLayer
370
-1
48
1.0
60
0
100
AcDbText
1
14
10
748612.629999619
20
8930162.94600004
30
190.709999980927
40
0.3
41
1.0
50
0.0
51
0.0
7
Standard
11
748612.629999619
21
8930162.94600004
31
190.709999980927
210
0.0
220
0.0
230
1.0
72
0
100
AcDbText
73
0
0
TEXT
5
69
330
1A
100
AcDbEntity
67
0
8
label
62
1
420
16711680
6
ByLayer
370
-1
48
1.0
60
0
100
AcDbText
1

10
748612.629999619
20
8930163.34600004
30
190.709999980927
40
0.3
41
1.0
50
0.0
51
0.0
7
Standard
11
748612.629999619
21
8930163.34600004
31
190.709999980927
210
0.0
220
0.0
230
1.0
72
0
100
AcDbText
73
0
0
TEXT
5
6A
330
1A
100
AcDbEntity
67
0
8
Length
62
40
420
16760832
6
ByLayer
370
-1
48
1.0
60
0
100
AcDbText
1
11.04
10
748612.629999619
20
8930161.93600005
30
190.709999980927
40
0.3
41
1.0
50
0.0
51
0.0
7
Standard
11
748612.629999619
21
8930161.93600005
31
190.709999980927
210
0.0
220
0.0
230
1.0
72
0
100
AcDbText
73
0
0
POINT
5
6B
330
1A
100
AcDbEntity
67
0
8
Hole
62
40
420
16760832
6
ByLayer
370
-1
48
1.0
60
0
100
AcDbPoint
10
748611.469999771
20
8930162.94
30
190.709999980927
39
0.0
210
0.0
220
0.0
230
1.0
50
360.0
0
LINE
5
6C
330
1A
100
AcDbEntity
67
0
8
Theoretical Hole
62
40
420
16760832
6
ByLayer
370
-1
48
1.0
60
0
100
AcDbLine
10
748611.469999771
20
8930162.94
30
190.709999980927
11
748612.199760895
21
8930165.54668325
31
179.996681632996
39
0.0
210
0.0
220
0.0
230
1.0
0
TEXT
5
6D
330
1A
100
AcDbEntity
67
0
8
Number
62
40
420
16760832
6
ByLayer
370
-1
48
1.0
60
0
100
AcDbText
1
15
10
748611.469999771
20
8930163.24599999
30
190.709999980927
40
0.3
41
1.0
50
0.0
51
0.0
7
Standard
11
748611.469999771
21
8930163.24599999
31
190.709999980927
210
0.0
220
0.0
230
1.0
72
0
100
AcDbText
73
0
0
TEXT
5
6E
330
1A
100
AcDbEntity
67
0
8
label
62
1
420
16711680
6
ByLayer
370
-1
48
1.0
60
0
100
AcDbText
1

10
748611.469999771
20
8930163.64599999
30
190.709999980927
40
0.3
41
1.0
50
0.0
51
0.0
7
Standard
11
748611.469999771
21
8930163.64599999
31
190.709999980927
210
0.0
220
0.0
230
1.0
72
0
100
AcDbText
73
0
0
TEXT
5
6F
330
1A
100
AcDbEntity
67
0
8
Length
62
40
420
16760832
6
ByLayer
370
-1
48
1.0
60
0
100
AcDbText
1
11.05
10
748611.469999771
20
8930162.236
30
190.709999980927
40
0.3
41
1.0
50
0.0
51
0.0
7
Standard
11
748611.469999771
21
8930162.236
31
190.709999980927
210
0.0
220
0.0
230
1.0
72
0
100
AcDbText
73
0
0
POINT
5
70
330
1A
100
AcDbEntity
67
0
8
Hole
62
40
420
16760832
6
ByLayer
370
-1
48
1.0
60
0
100
AcDbPoint
10
748610.309999924
20
8930163.26999992
30
190.699999990463
39
0.0
210
0.0
220
0.0
230
1.0
50
360.0
0
LINE
5
71
330
1A
100
AcDbEntity
67
0
8
Theoretical Hole
62
40
420
16760832
6
ByLayer
370
-1
48
1.0
60
0
100
AcDbLine
10
748610.309999924
20
8930163.26999992
30
190.699999990463
11
748611.162016373
21
8930165.85837835
31
180.001590194702
39
0.0
210
0.0
220
0.0
230
1.0
0
TEXT
5
72
330
1A
100
AcDbEntity
67
0
8
Number
62
40
420
16760832
6
ByLayer
370
-1
48
1.0
60
0
100
AcDbText
1
16
10
748610.309999924
20
8930163.57599992
30
190.699999990463
40
0.3
41
1.0
50
0.0
51
0.0
7
Standard
11
748610.309999924
21
8930163.57599992
31
190.699999990463
210
0.0
220
0.0
230
1.0
72
0
100
AcDbText
73
0
0
TEXT
5
73
330
1A
100
AcDbEntity
67
0
8
label
62
1
420
16711680
6
ByLayer
370
-1
48
1.0
60
0
100
AcDbText
1

10
748610.309999924
20
8930163.97599992
30
190.699999990463
40
0.3
41
1.0
50
0.0
51
0.0
7
Standard
11
748610.309999924
21
8930163.97599992
31
190.699999990463
210
0.0
220
0.0
230
1.0
72
0
100
AcDbText
73
0
0
TEXT
5
74
330
1A
100
AcDbEntity
67
0
8
Length
62
40
420
16760832
6
ByLayer
370
-1
48
1.0
60
0
100
AcDbText
1
11.04
10
748610.309999924
20
8930162.56599993
30
190.699999990463
40
0.3
41
1.0
50
0.0
51
0.0
7
Standard
11
748610.309999924
21
8930162.56599993
31
190.699999990463
210
0.0
220
0.0
230
1.0
72
0
100
AcDbText
73
0
0
POINT
5
75
330
1A
100
AcDbEntity
67
0
8
Hole
62
40
420
16760832
6
ByLayer
370
-1
48
1.0
60
0
100
AcDbPoint
10
748609.170000534
20
8930163.64000005
30
190.680000009537
39
0.0
210
0.0
220
0.0
230
1.0
50
360.0
0
LINE
5
76
330
1A
100
AcDbEntity
67
0
8
Theoretical Hole
62
40
420
16760832
6
ByLayer
370
-1
48
1.0
60
0
100
AcDbLine
10
748609.170000534
20
8930163.64000005
30
190.680000009537
11
748610.054220657
21
8930166.21233601
31
180.000970306396
39
0.0
210
0.0
220
0.0
230
1.0
0
TEXT
5
77
330
1A
100
AcDbEntity
67
0
8
Number
62
40
420
16760832
6
ByLayer
370
-1
48
1.0
60
0
100
AcDbText
1
17
10
748609.170000534
20
8930163.94600004
30
190.680000009537
40
0.3
41
1.0
50
0.0
51
0.0
7
Standard
11
748609.170000534
21
8930163.94600004
31
190.680000009537
210
0.0
220
0.0
230
1.0
72
0
100
AcDbText
73
0
0
TEXT
5
78
330
1A
100
AcDbEntity
67
0
8
label
62
1
420
16711680
6
ByLayer
370
-1
48
1.0
60
0
100
AcDbText
1

10
748609.170000534
20
8930164.34600004
30
190.680000009537
40
0.3
41
1.0
50
0.0
51
0.0
7
Standard
11
748609.170000534
21
8930164.34600004
31
190.680000009537
210
0.0
220
0.0
230
1.0
72
0
100
AcDbText
73
0
0
TEXT
5
79
330
1A
100
AcDbEntity
67
0
8
Length
62
40
420
16760832
6
ByLayer
370
-1
48
1.0
60
0
100
AcDbText
1
11.02
10
748609.170000534
20
8930162.93600005
30
190.680000009537
40
0.3
41
1.0
50
0.0
51
0.0
7
Standard
11
748609.170000534
21
8930162.93600005
31
190.680000009537
210
0.0
220
0.0
230
1.0
72
0
100
AcDbText
73
0
0
POINT
5
7A
330
1A
100
AcDbEntity
67
0
8
Hole
62
40
420
16760832
6
ByLayer
370
-1
48
1.0
60
0
100
AcDbPoint
10
748608.039999466
20
8930164.02999991
30
190.670000019073
39
0.0
210
0.0
220
0.0
230
1.0
50
360.0
0
LINE
5
7B
330
1A
100
AcDbEntity
67
0
8
Theoretical Hole
62
40
420
16760832
6
ByLayer
370
-1
48
1.0
60
0
100
AcDbLine
10
748608.039999466
20
8930164.02999991
30
190.670000019073
11
748609.074331741
21
8930166.5772509
31
180.008774223328
39
0.0
210
0.0
220
0.0
230
1.0
0
TEXT
5
7C
330
1A
100
AcDbEntity
67
0
8
Number
62
40
420
16760832
6
ByLayer
370
-1
48
1.0
60
0
100
AcDbText
1
18
10
748608.039999466
20
8930164.33599991
30
190.670000019073
40
0.3
41
1.0
50
0.0
51
0.0
7
Standard
11
748608.039999466
21
8930164.33599991
31
190.670000019073
210
0.0
220
0.0
230
1.0
72
0
100
AcDbText
73
0
0
TEXT
5
7D
330
1A
100
AcDbEntity
67
0
8
label
62
1
420
16711680
6
ByLayer
370
-1
48
1.0
60
0
100
AcDbText
1

10
748608.039999466
20
8930164.73599991
30
190.670000019073
40
0.3
41
1.0
50
0.0
51
0.0
7
Standard
11
748608.039999466
21
8930164.73599991
31
190.670000019073
210
0.0
220
0.0
230
1.0
72
0
100
AcDbText
73
0
0
TEXT
5
7E
330
1A
100
AcDbEntity
67
0
8
Length
62
40
420
16760832
6
ByLayer
370
-1
48
1.0
60
0
100
AcDbText
1
11.01
10
748608.039999466
20
8930163.32599992
30
190.670000019073
40
0.3
41
1.0
50
0.0
51
0.0
7
Standard
11
748608.039999466
21
8930163.32599992
31
190.670000019073
210
0.0
220
0.0
230
1.0
72
0
100
AcDbText
73
0
0
POINT
5
7F
330
1A
100
AcDbEntity
67
0
8
Hole
62
40
420
16760832
6
ByLayer
370
-1
48
1.0
60
0
100
AcDbPoint
10
748606.930000763
20
8930164.47999996
30
190.649999978542
39
0.0
210
0.0
220
0.0
230
1.0
50
360.0
0
LINE
5
80
330
1A
100
AcDbEntity
67
0
8
Theoretical Hole
62
40
420
16760832
6
ByLayer
370
-1
48
1.0
60
0
100
AcDbLine
10
748606.930000763
20
8930164.47999996
30
190.649999978542
11
748607.987711411
21
8930166.99005932
31
180.002891960144
39
0.0
210
0.0
220
0.0
230
1.0
0
TEXT
5
81
330
1A
100
AcDbEntity
67
0
8
Number
62
40
420
16760832
6
ByLayer
370
-1
48
1.0
60
0
100
AcDbText
1
19
10
748606.930000763
20
8930164.78599996
30
190.649999978542
40
0.3
41
1.0
50
0.0
51
0.0
7
Standard
11
748606.930000763
21
8930164.78599996
31
190.649999978542
210
0.0
220
0.0
230
1.0
72
0
100
AcDbText
73
0
0
TEXT
5
82
330
1A
100
AcDbEntity
67
0
8
label
62
1
420
16711680
6
ByLayer
370
-1
48
1.0
60
0
100
AcDbText
1

10
748606.930000763
20
8930165.18599996
30
190.649999978542
40
0.3
41
1.0
50
0.0
51
0.0
7
Standard
11
748606.930000763
21
8930165.18599996
31
190.649999978542
210
0.0
220
0.0
230
1.0
72
0
100
AcDbText
73
0
0
TEXT
5
83
330
1A
100
AcDbEntity
67
0
8
Length
62
40
420
16760832
6
ByLayer
370
-1
48
1.0
60
0
100
AcDbText
1
10.99
10
748606.930000763
20
8930163.77599997
30
190.649999978542
40
0.3
41
1.0
50
0.0
51
0.0
7
Standard
11
748606.930000763
21
8930163.77599997
31
190.649999978542
210
0.0
220
0.0
230
1.0
72
0
100
AcDbText
73
0
0
POINT
5
84
330
1A
100
AcDbEntity
67
0
8
Hole
62
40
420
16760832
6
ByLayer
370
-1
48
1.0
60
0
100
AcDbPoint
10
748605.820000153
20
8930164.94999999
30
190.629999997616
39
0.0
210
0.0
220
0.0
230
1.0
50
360.0
0
LINE
5
85
330
1A
100
AcDbEntity
67
0
8
Theoretical Hole
62
40
420
16760832
6
ByLayer
370
-1
48
1.0
60
0
100
AcDbLine
10
748605.820000153
20
8930164.94999999
30
190.629999997616
11
748607.022205811
21
8930167.43135303
31
179.99149936676
39
0.0
210
0.0
220
0.0
230
1.0
0
TEXT
5
86
330
1A
100
AcDbEntity
67
0
8
Number
62
40
420
16760832
6
ByLayer
370
-1
48
1.0
60
0
100
AcDbText
1
20
10
748605.820000153
20
8930165.25599998
30
190.629999997616
40
0.3
41
1.0
50
0.0
51
0.0
7
Standard
11
748605.820000153
21
8930165.25599998
31
190.629999997616
210
0.0
220
0.0
230
1.0
72
0
100
AcDbText
73
0
0
TEXT
5
87
330
1A
100
AcDbEntity
67
0
8
label
62
1
420
16711680
6
ByLayer
370
-1
48
1.0
60
0
100
AcDbText
1

10
748605.820000153
20
8930165.65599998
30
190.629999997616
40
0.3
41
1.0
50
0.0
51
0.0
7
Standard
11
748605.820000153
21
8930165.65599998
31
190.629999997616
210
0.0
220
0.0
230
1.0
72
0
100
AcDbText
73
0
0
TEXT
5
88
330
1A
100
AcDbEntity
67
0
8
Length
62
40
420
16760832
6
ByLayer
370
-1
48
1.0
60
0
100
AcDbText
1
10.99
10
748605.820000153
20
8930164.24599999
30
190.629999997616
40
0.3
41
1.0
50
0.0
51
0.0
7
Standard
11
748605.820000153
21
8930164.24599999
31
190.629999997616
210
0.0
220
0.0
230
1.0
72
0
100
AcDbText
73
0
0
POINT
5
89
330
1A
100
AcDbEntity
67
0
8
Hole
62
40
420
16760832
6
ByLayer
370
-1
48
1.0
60
0
100
AcDbPoint
10
748604.740000229
20
8930165.47000021
30
190.629999997616
39
0.0
210
0.0
220
0.0
230
1.0
50
360.0
0
LINE
5
8A
330
1A
100
AcDbEntity
67
0
8
Theoretical Hole
62
40
420
16760832
6
ByLayer
370
-1
48
1.0
60
0
100
AcDbLine
10
748604.740000229
20
8930165.47000021
30
190.629999997616
11
748605.990831833
21
8930167.89448065
31
180.00464099884
39
0.0
210
0.0
220
0.0
230
1.0
0
TEXT
5
8B
330
1A
100
AcDbEntity
67
0
8
Number
62
40
420
16760832
6
ByLayer
370
-1
48
1.0
60
0
100
AcDbText
1
21
10
748604.740000229
20
8930165.7760002
30
190.629999997616
40
0.3
41
1.0
50
0.0
51
0.0
7
Standard
11
748604.740000229
21
8930165.7760002
31
190.629999997616
210
0.0
220
0.0
230
1.0
72
0
100
AcDbText
73
0
0
TEXT
5
8C
330
1A
100
AcDbEntity
67
0
8
label
62
1
420
16711680
6
ByLayer
370
-1
48
1.0
60
0
100
AcDbText
1

10
748604.740000229
20
8930166.1760002
30
190.629999997616
40
0.3
41
1.0
50
0.0
51
0.0
7
Standard
11
748604.740000229
21
8930166.1760002
31
190.629999997616
210
0.0
220
0.0
230
1.0
72
0
100
AcDbText
73
0
0
TEXT
5
8D
330
1A
100
AcDbEntity
67
0
8
Length
62
40
420
16760832
6
ByLayer
370
-1
48
1.0
60
0
100
AcDbText
1
10.97
10
748604.740000229
20
8930164.76600021
30
190.629999997616
40
0.3
41
1.0
50
0.0
51
0.0
7
Standard
11
748604.740000229
21
8930164.76600021
31
190.629999997616
210
0.0
220
0.0
230
1.0
72
0
100
AcDbText
73
0
0
POINT
5
8E
330
1A
100
AcDbEntity
67
0
8
Hole
62
40
420
16760832
6
ByLayer
370
-1
48
1.0
60
0
100
AcDbPoint
10
748603.670000534
20
8930166.01999992
30
190.600000026226
39
0.0
210
0.0
220
0.0
230
1.0
50
360.0
0
LINE
5
8F
330
1A
100
AcDbEntity
67
0
8
Theoretical Hole
62
40
420
16760832
6
ByLayer
370
-1
48
1.0
60
0
100
AcDbLine
10
748603.670000534
20
8930166.01999992
30
190.600000026226
11
748605.011721115
21
8930168.41091818
31
179.998783531189
39
0.0
210
0.0
220
0.0
230
1.0
0
TEXT
5
90
330
1A
100
AcDbEntity
67
0
8
Number
62
40
420
16760832
6
ByLayer
370
-1
48
1.0
60
0
100
AcDbText
1
22
10
748603.670000534
20
8930166.32599992
30
190.600000026226
40
0.3
41
1.0
50
0.0
51
0.0
7
Standard
11
748603.670000534
21
8930166.32599992
31
190.600000026226
210
0.0
220
0.0
230
1.0
72
0
100
AcDbText
73
0
0
TEXT
5
91
330
1A
100
AcDbEntity
67
0
8
label
62
1
420
16711680
6
ByLayer
370
-1
48
1.0
60
0
100
AcDbText
1

10
748603.670000534
20
8930166.72599992
30
190.600000026226
40
0.3
41
1.0
50
0.0
51
0.0
7
Standard
11
748603.670000534
21
8930166.72599992
31
190.600000026226
210
0.0
220
0.0
230
1.0
72
0
100
AcDbText
73
0
0
TEXT
5
92
330
1A
100
AcDbEntity
67
0
8
Length
62
40
420
16760832
6
ByLayer
370
-1
48
1.0
60
0
100
AcDbText
1
10.95
10
748603.670000534
20
8930165.31599993
30
190.600000026226
40
0.3
41
1.0
50
0.0
51
0.0
7
Standard
11
748603.670000534
21
8930165.31599993
31
190.600000026226
210
0.0
220
0.0
230
1.0
72
0
100
AcDbText
73
0
0
POINT
5
93
330
1A
100
AcDbEntity
67
0
8
Hole
62
40
420
16760832
6
ByLayer
370
-1
48
1.0
60
0
100
AcDbPoint
10
748602.629999619
20
8930166.61000008
30
190.569999995232
39
0.0
210
0.0
220
0.0
230
1.0
50
360.0
0
LINE
5
94
330
1A
100
AcDbEntity
67
0
8
Theoretical Hole
62
40
420
16760832
6
ByLayer
370
-1
48
1.0
60
0
100
AcDbLine
10
748602.629999619
20
8930166.61000008
30
190.569999995232
11
748604.070286255
21
8930168.92752165
31
179.996399345398
39
0.0
210
0.0
220
0.0
230
1.0
0
TEXT
5
95
330
1A
100
AcDbEntity
67
0
8
Number
62
40
420
16760832
6
ByLayer
370
-1
48
1.0
60
0
100
AcDbText
1
23
10
748602.629999619
20
8930166.91600007
30
190.569999995232
40
0.3
41
1.0
50
0.0
51
0.0
7
Standard
11
748602.629999619
21
8930166.91600007
31
190.569999995232
210
0.0
220
0.0
230
1.0
72
0
100
AcDbText
73
0
0
TEXT
5
96
330
1A
100
AcDbEntity
67
0
8
label
62
1
420
16711680
6
ByLayer
370
-1
48
1.0
60
0
100
AcDbText
1

10
748602.629999619
20
8930167.31600007
30
190.569999995232
40
0.3
41
1.0
50
0.0
51
0.0
7
Standard
11
748602.629999619
21
8930167.31600007
31
190.569999995232
210
0.0
220
0.0
230
1.0
72
0
100
AcDbText
73
0
0
TEXT
5
97
330
1A
100
AcDbEntity
67
0
8
Length
62
40
420
16760832
6
ByLayer
370
-1
48
1.0
60
0
100
AcDbText
1
10.92
10
748602.629999619
20
8930165.90600008
30
190.569999995232
40
0.3
41
1.0
50
0.0
51
0.0
7
Standard
11
748602.629999619
21
8930165.90600008
31
190.569999995232
210
0.0
220
0.0
230
1.0
72
0
100
AcDbText
73
0
0
POINT
5
98
330
1A
100
AcDbEntity
67
0
8
Hole
62
40
420
16760832
6
ByLayer
370
-1
48
1.0
60
0
100
AcDbPoint
10
748601.609999161
20
8930167.24000019
30
190.540000023842
39
0.0
210
0.0
220
0.0
230
1.0
50
360.0
0
LINE
5
99
330
1A
100
AcDbEntity
67
0
8
Theoretical Hole
62
40
420
16760832
6
ByLayer
370
-1
48
1.0
60
0
100
AcDbLine
10
748601.609999161
20
8930167.24000019
30
190.540000023842
11
748603.094221573
21
8930169.51332134
31
180.00418132782
39
0.0
210
0.0
220
0.0
230
1.0
0
TEXT
5
9A
330
1A
100
AcDbEntity
67
0
8
Number
62
40
420
16760832
6
ByLayer
370
-1
48
1.0
60
0
100
AcDbText
1
24
10
748601.609999161
20
8930167.54600018
30
190.540000023842
40
0.3
41
1.0
50
0.0
51
0.0
7
Standard
11
748601.609999161
21
8930167.54600018
31
190.540000023842
210
0.0
220
0.0
230
1.0
72
0
100
AcDbText
73
0
0
TEXT
5
9B
330
1A
100
AcDbEntity
67
0
8
label
62
1
420
16711680
6
ByLayer
370
-1
48
1.0
60
0
100
AcDbText
1

10
748601.609999161
20
8930167.94600018
30
190.540000023842
40
0.3
41
1.0
50
0.0
51
0.0
7
Standard
11
748601.609999161
21
8930167.94600018
31
190.540000023842
210
0.0
220
0.0
230
1.0
72
0
100
AcDbText
73
0
0
TEXT
5
9C
330
1A
100
AcDbEntity
67
0
8
Length
62
40
420
16760832
6
ByLayer
370
-1
48
1.0
60
0
100
AcDbText
1
10.88
10
748601.609999161
20
8930166.53600019
30
190.540000023842
40
0.3
41
1.0
50
0.0
51
0.0
7
Standard
11
748601.609999161
21
8930166.53600019
31
190.540000023842
210
0.0
220
0.0
230
1.0
72
0
100
AcDbText
73
0
0
POINT
5
9D
330
1A
100
AcDbEntity
67
0
8
Hole
62
40
420
16760832
6
ByLayer
370
-1
48
1.0
60
0
100
AcDbPoint
10
748600.600000839
20
8930167.90000004
30
190.529999973774
39
0.0
210
0.0
220
0.0
230
1.0
50
360.0
0
LINE
5
9E
330
1A
100
AcDbEntity
67
0
8
Theoretical Hole
62
40
420
16760832
6
ByLayer
370
-1
48
1.0
60
0
100
AcDbLine
10
748600.600000839
20
8930167.90000004
30
190.529999973774
11
748602.187027435
21
8930170.08836883
31
180.001499595642
39
0.0
210
0.0
220
0.0
230
1.0
0
TEXT
5
9F
330
1A
100
AcDbEntity
67
0
8
Number
62
40
420
16760832
6
ByLayer
370
-1
48
1.0
60
0
100
AcDbText
1
25
10
748600.600000839
20
8930168.20600003
30
190.529999973774
40
0.3
41
1.0
50
0.0
51
0.0
7
Standard
11
748600.600000839
21
8930168.20600003
31
190.529999973774
210
0.0
220
0.0
230
1.0
72
0
100
AcDbText
73
0
0
TEXT
5
A0
330
1A
100
AcDbEntity
67
0
8
label
62
1
420
16711680
6
ByLayer
370
-1
48
1.0
60
0
100
AcDbText
1

10
748600.600000839
20
8930168.60600003
30
190.529999973774
40
0.3
41
1.0
50
0.0
51
0.0
7
Standard
11
748600.600000839
21
8930168.60600003
31
190.529999973774
210
0.0
220
0.0
230
1.0
72
0
100
AcDbText
73
0
0
TEXT
5
A1
330
1A
100
AcDbEntity
67
0
8
Length
62
40
420
16760832
6
ByLayer
370
-1
48
1.0
60
0
100
AcDbText
1
10.87
10
748600.600000839
20
8930167.19600004
30
190.529999973774
40
0.3
41
1.0
50
0.0
51
0.0
7
Standard
11
748600.600000839
21
8930167.19600004
31
190.529999973774
210
0.0
220
0.0
230
1.0
72
0
100
AcDbText
73
0
0
POINT
5
A2
330
1A
100
AcDbEntity
67
0
8
Hole
62
40
420
16760832
6
ByLayer
370
-1
48
1.0
60
0
100
AcDbPoint
10
748599.629999619
20
8930168.59999985
30
190.519999983311
39
0.0
210
0.0
220
0.0
230
1.0
50
360.0
0
LINE
5
A3
330
1A
100
AcDbEntity
67
0
8
Theoretical Hole
62
40
420
16760832
6
ByLayer
370
-1
48
1.0
60
0
100
AcDbLine
10
748599.629999619
20
8930168.59999985
30
190.519999983311
11
748601.270746689
21
8930170.72441143
31
179.996956291199
39
0.0
210
0.0
220
0.0
230
1.0
0
TEXT
5
A4
330
1A
100
AcDbEntity
67
0
8
Number
62
40
420
16760832
6
ByLayer
370
-1
48
1.0
60
0
100
AcDbText
1
26
10
748599.629999619
20
8930168.90599984
30
190.519999983311
40
0.3
41
1.0
50
0.0
51
0.0
7
Standard
11
748599.629999619
21
8930168.90599984
31
190.519999983311
210
0.0
220
0.0
230
1.0
72
0
100
AcDbText
73
0
0
TEXT
5
A5
330
1A
100
AcDbEntity
67
0
8
label
62
1
420
16711680
6
ByLayer
370
-1
48
1.0
60
0
100
AcDbText
1

10
748599.629999619
20
8930169.30599984
30
190.519999983311
40
0.3
41
1.0
50
0.0
51
0.0
7
Standard
11
748599.629999619
21
8930169.30599984
31
190.519999983311
210
0.0
220
0.0
230
1.0
72
0
100
AcDbText
73
0
0
TEXT
5
A6
330
1A
100
AcDbEntity
67
0
8
Length
62
40
420
16760832
6
ByLayer
370
-1
48
1.0
60
0
100
AcDbText
1
10.86
10
748599.629999619
20
8930167.89599985
30
190.519999983311
40
0.3
41
1.0
50
0.0
51
0.0
7
Standard
11
748599.629999619
21
8930167.89599985
31
190.519999983311
210
0.0
220
0.0
230
1.0
72
0
100
AcDbText
73
0
0
POINT
5
A7
330
1A
100
AcDbEntity
67
0
8
Hole
62
40
420
16760832
6
ByLayer
370
-1
48
1.0
60
0
100
AcDbPoint
10
748598.680000763
20
8930169.33999962
30
190.509999992847
39
0.0
210
0.0
220
0.0
230
1.0
50
360.0
0
LINE
5
A8
330
1A
100
AcDbEntity
67
0
8
Theoretical Hole
62
40
420
16760832
6
ByLayer
370
-1
48
1.0
60
0
100
AcDbLine
10
748598.680000763
20
8930169.33999962
30
190.509999992847
11
748600.352501373
21
8930171.40021557
31
179.999821128845
39
0.0
210
0.0
220
0.0
230
1.0
0
TEXT
5
A9
330
1A
100
AcDbEntity
67
0
8
Number
62
40
420
16760832
6
ByLayer
370
-1
48
1.0
60
0
100
AcDbText
1
27
10
748598.680000763
20
8930169.64599961
30
190.509999992847
40
0.3
41
1.0
50
0.0
51
0.0
7
Standard
11
748598.680000763
21
8930169.64599961
31
190.509999992847
210
0.0
220
0.0
230
1.0
72
0
100
AcDbText
73
0
0
TEXT
5
AA
330
1A
100
AcDbEntity
67
0
8
label
62
1
420
16711680
6
ByLayer
370
-1
48
1.0
60
0
100
AcDbText
1

10
748598.680000763
20
8930170.04599961
30
190.509999992847
40
0.3
41
1.0
50
0.0
51
0.0
7
Standard
11
748598.680000763
21
8930170.04599961
31
190.509999992847
210
0.0
220
0.0
230
1.0
72
0
100
AcDbText
73
0
0
TEXT
5
AB
330
1A
100
AcDbEntity
67
0
8
Length
62
40
420
16760832
6
ByLayer
370
-1
48
1.0
60
0
100
AcDbText
1
10.84
10
748598.680000763
20
8930168.63599962
30
190.509999992847
40
0.3
41
1.0
50
0.0
51
0.0
7
Standard
11
748598.680000763
21
8930168.63599962
31
190.509999992847
210
0.0
220
0.0
230
1.0
72
0
100
AcDbText
73
0
0
POINT
5
AC
330
1A
100
AcDbEntity
67
0
8
Hole
62
40
420
16760832
6
ByLayer
370
-1
48
1.0
60
0
100
AcDbPoint
10
748597.750000458
20
8930170.08999962
30
190.519999983311
39
0.0
210
0.0
220
0.0
230
1.0
50
360.0
0
LINE
5
AD
330
1A
100
AcDbEntity
67
0
8
Theoretical Hole
62
40
420
16760832
6
ByLayer
370
-1
48
1.0
60
0
100
AcDbLine
10
748597.750000458
20
8930170.08999962
30
190.519999983311
11
748599.520481567
21
8930172.06253952
31
179.998737754822
39
0.0
210
0.0
220
0.0
230
1.0
0
TEXT
5
AE
330
1A
100
AcDbEntity
67
0
8
Number
62
40
420
16760832
6
ByLayer
370
-1
48
1.0
60
0
100
AcDbText
1
28
10
748597.750000458
20
8930170.39599961
30
190.519999983311
40
0.3
41
1.0
50
0.0
51
0.0
7
Standard
11
748597.750000458
21
8930170.39599961
31
190.519999983311
210
0.0
220
0.0
230
1.0
72
0
100
AcDbText
73
0
0
TEXT
5
AF
330
1A
100
AcDbEntity
67
0
8
label
62
1
420
16711680
6
ByLayer
370
-1
48
1.0
60
0
100
AcDbText
1

10
748597.750000458
20
8930170.79599961
30
190.519999983311
40
0.3
41
1.0
50
0.0
51
0.0
7
Standard
11
748597.750000458
21
8930170.79599961
31
190.519999983311
210
0.0
220
0.0
230
1.0
72
0
100
AcDbText
73
0
0
TEXT
5
B0
330
1A
100
AcDbEntity
67
0
8
Length
62
40
420
16760832
6
ByLayer
370
-1
48
1.0
60
0
100
AcDbText
1
10.85
10
748597.750000458
20
8930169.38599962
30
190.519999983311
40
0.3
41
1.0
50
0.0
51
0.0
7
Standard
11
748597.750000458
21
8930169.38599962
31
190.519999983311
210
0.0
220
0.0
230
1.0
72
0
100
AcDbText
73
0
0
POINT
5
B1
330
1A
100
AcDbEntity
67
0
8
Hole
62
40
420
16760832
6
ByLayer
370
-1
48
1.0
60
0
100
AcDbPoint
10
748596.860000114
20
8930170.90000004
30
190.550000014305
39
0.0
210
0.0
220
0.0
230
1.0
50
360.0
0
LINE
5
B2
330
1A
100
AcDbEntity
67
0
8
Theoretical Hole
62
40
420
16760832
6
ByLayer
370
-1
48
1.0
60
0
100
AcDbLine
10
748596.860000114
20
8930170.90000004
30
190.550000014305
11
748598.64276741
21
8930172.80044693
31
179.996944847107
39
0.0
210
0.0
220
0.0
230
1.0
0
TEXT
5
B3
330
1A
100
AcDbEntity
67
0
8
Number
62
40
420
16760832
6
ByLayer
370
-1
48
1.0
60
0
100
AcDbText
1
29
10
748596.860000114
20
8930171.20600003
30
190.550000014305
40
0.3
41
1.0
50
0.0
51
0.0
7
Standard
11
748596.860000114
21
8930171.20600003
31
190.550000014305
210
0.0
220
0.0
230
1.0
72
0
100
AcDbText
73
0
0
TEXT
5
B4
330
1A
100
AcDbEntity
67
0
8
label
62
1
420
16711680
6
ByLayer
370
-1
48
1.0
60
0
100
AcDbText
1

10
748596.860000114
20
8930171.60600003
30
190.550000014305
40
0.3
41
1.0
50
0.0
51
0.0
7
Standard
11
748596.860000114
21
8930171.60600003
31
190.550000014305
210
0.0
220
0.0
230
1.0
72
0
100
AcDbText
73
0
0
TEXT
5
B5
330
1A
100
AcDbEntity
67
0
8
Length
62
40
420
16760832
6
ByLayer
370
-1
48
1.0
60
0
100
AcDbText
1
10.87
10
748596.860000114
20
8930170.19600004
30
190.550000014305
40
0.3
41
1.0
50
0.0
51
0.0
7
Standard
11
748596.860000114
21
8930170.19600004
31
190.550000014305
210
0.0
220
0.0
230
1.0
72
0
100
AcDbText
73
0
0
POLYLINE
5
C3
330
1A
100
AcDbEntity
67
0
8
Real Hole
62
1
420
16711680
6
ByLayer
370
-1
48
1.0
60
0
100
AcDb3dPolyline
10
0.0
20
0.0
30
0.0
70
8
75
0
210
0.0
220
0.0
230
1.0
0
VERTEX
5
B6
100
AcDbEntity
8
Real Hole
62
1
420
16711680
100
AcDbVertex
100
AcDb3dPolylineVertex
10
748596.860000114
20
8930170.90000004
30
190.550000014305
70
32
0
VERTEX
5
B7
100
AcDbEntity
8
Real Hole
62
1
420
16711680
100
AcDbVertex
100
AcDb3dPolylineVertex
10
748597.143586974
20
8930170.98019358
30
189.594412508011
70
32
0
VERTEX
5
B8
100
AcDbEntity
8
Real Hole
62
1
420
16711680
100
AcDbVertex
100
AcDb3dPolylineVertex
10
748597.400927644
20
8930171.10426462
30
188.636089982986
70
32
0
VERTEX
5
B9
100
AcDbEntity
8
Real Hole
62
1
420
16711680
100
AcDbVertex
100
AcDb3dPolylineVertex
10
748597.656111758
20
8930171.18418554
30
187.672506155968
70
32
0
VERTEX
5
BA
100
AcDbEntity
8
Real Hole
62
1
420
16711680
100
AcDbVertex
100
AcDb3dPolylineVertex
10
748597.945612888
20
8930171.24841944
30
186.717486205101
70
32
0
VERTEX
5
BB
100
AcDbEntity
8
Real Hole
62
1
420
16711680
100
AcDbVertex
100
AcDb3dPolylineVertex
10
748598.177180152
20
8930171.3542437
30
185.750440421104
70
32
0
VERTEX
5
BC
100
AcDbEntity
8
Real Hole
62
1
420
16711680
100
AcDbVertex
100
AcDb3dPolylineVertex
10
748598.435524325
20
8930171.50118256
30
184.795627417564
70
32
0
VERTEX
5
BD
100
AcDbEntity
8
Real Hole
62
1
420
16711680
100
AcDbVertex
100
AcDb3dPolylineVertex
10
748598.681849341
20
8930171.56072933
30
183.828271212578
70
32
0
VERTEX
5
BE
100
AcDbEntity
8
Real Hole
62
1
420
16711680
100
AcDbVertex
100
AcDb3dPolylineVertex
10
748598.970689993
20
8930171.6293279
30
182.873354735374
70
32
0
VERTEX
5
BF
100
AcDbEntity
8
Real Hole
62
1
420
16711680
100
AcDbVertex
100
AcDb3dPolylineVertex
10
748599.275804977
20
8930171.73254425
30
181.926649870872
70
32
0
VERTEX
5
C0
100
AcDbEntity
8
Real Hole
62
1
420
16711680
100
AcDbVertex
100
AcDb3dPolylineVertex
10
748599.568295221
20
8930171.87627703
30
180.981244864464
70
32
0
VERTEX
5
C1
100
AcDbEntity
8
Real Hole
62
1
420
16711680
100
AcDbVertex
100
AcDb3dPolylineVertex
10
748599.787417393
20
8930171.96383101
30
180.322214903831
70
32
0
SEQEND
5
C2
100
AcDbEntity
8
Real Hole
0
POINT
5
C5
330
1A
100
AcDbEntity
67
0
8
Hole
62
40
420
16760832
6
ByLayer
370
-1
48
1.0
60
0
100
AcDbPoint
10
748595.98
20
8930171.71999973
30
190.589999976158
39
0.0
210
0.0
220
0.0
230
1.0
50
360.0
0
LINE
5
C6
330
1A
100
AcDbEntity
67
0
8
Theoretical Hole
62
40
420
16760832
6
ByLayer
370
-1
48
1.0
60
0
100
AcDbLine
10
748595.98
20
8930171.71999973
30
190.589999976158
11
748597.798161964
21
8930173.56823868
31
180.002824249268
39
0.0
210
0.0
220
0.0
230
1.0
0
TEXT
5
C7
330
1A
100
AcDbEntity
67
0
8
Number
62
40
420
16760832
6
ByLayer
370
-1
48
1.0
60
0
100
AcDbText
1
30
10
748595.98
20
8930172.02599973
30
190.589999976158
40
0.3
41
1.0
50
0.0
51
0.0
7
Standard
11
748595.98
21
8930172.02599973
31
190.589999976158
210
0.0
220
0.0
230
1.0
72
0
100
AcDbText
73
0
0
TEXT
5
C8
330
1A
100
AcDbEntity
67
0
8
label
62
1
420
16711680
6
ByLayer
370
-1
48
1.0
60
0
100
AcDbText
1

10
748595.98
20
8930172.42599973
30
190.589999976158
40
0.3
41
1.0
50
0.0
51
0.0
7
Standard
11
748595.98
21
8930172.42599973
31
190.589999976158
210
0.0
220
0.0
230
1.0
72
0
100
AcDbText
73
0
0
TEXT
5
C9
330
1A
100
AcDbEntity
67
0
8
Length
62
40
420
16760832
6
ByLayer
370
-1
48
1.0
60
0
100
AcDbText
1
10.90
10
748595.98
20
8930171.01599974
30
190.589999976158
40
0.3
41
1.0
50
0.0
51
0.0
7
Standard
11
748595.98
21
8930171.01599974
31
190.589999976158
210
0.0
220
0.0
230
1.0
72
0
100
AcDbText
73
0
0
POLYLINE
5
D7
330
1A
100
AcDbEntity
67
0
8
Real Hole
62
1
420
16711680
6
ByLayer
370
-1
48
1.0
60
0
100
AcDb3dPolyline
10
0.0
20
0.0
30
0.0
70
8
75
0
210
0.0
220
0.0
230
1.0
0
VERTEX
5
CA
100
AcDbEntity
8
Real Hole
62
1
420
16711680
100
AcDbVertex
100
AcDb3dPolylineVertex
10
748595.98
20
8930171.71999973
30
190.589999976158
70
32
0
VERTEX
5
CB
100
AcDbEntity
8
Real Hole
62
1
420
16711680
100
AcDbVertex
100
AcDb3dPolylineVertex
10
748596.242039155
20
8930171.86304617
30
189.635603191853
70
32
0
VERTEX
5
CC
100
AcDbEntity
8
Real Hole
62
1
420
16711680
100
AcDbVertex
100
AcDb3dPolylineVertex
10
748596.522324722
20
8930171.96728343
30
188.681362929344
70
32
0
VERTEX
5
CD
100
AcDbEntity
8
Real Hole
62
1
420
16711680
100
AcDbVertex
100
AcDb3dPolylineVertex
10
748596.813251715
20
8930172.0426848
30
187.727593483925
70
32
0
VERTEX
5
CE
100
AcDbEntity
8
Real Hole
62
1
420
16711680
100
AcDbVertex
100
AcDb3dPolylineVertex
10
748597.13261209
20
8930172.13637489
30
186.784602942467
70
32
0
VERTEX
5
CF
100
AcDbEntity
8
Real Hole
62
1
420
16711680
100
AcDbVertex
100
AcDb3dPolylineVertex
10
748597.402582865
20
8930172.28119266
30
185.8326872015
70
32
0
VERTEX
5
D0
100
AcDbEntity
8
Real Hole
62
1
420
16711680
100
AcDbVertex
100
AcDb3dPolylineVertex
10
748597.708252411
20
8930172.38787741
30
184.886545481682
70
32
0
VERTEX
5
D1
100
AcDbEntity
8
Real Hole
62
1
420
16711680
100
AcDbVertex
100
AcDb3dPolylineVertex
10
748598.005663376
20
8930172.54125118
30
183.944195570946
70
32
0
VERTEX
5
D2
100
AcDbEntity
8
Real Hole
62
1
420
16711680
100
AcDbVertex
100
AcDb3dPolylineVertex
10
748598.331136684
20
8930172.6468783
30
183.004562678337
70
32
0
VERTEX
5
D3
100
AcDbEntity
8
Real Hole
62
1
420
16711680
100
AcDbVertex
100
AcDb3dPolylineVertex
10
748598.657797794
20
8930172.76422602
30
182.066734137535
70
32
0
VERTEX
5
D4
100
AcDbEntity
8
Real Hole
62
1
420
16711680
100
AcDbVertex
100
AcDb3dPolylineVertex
10
748598.960260611
20
8930172.92248422
30
181.126803221703
70
32
0
VERTEX
5
D5
100
AcDbEntity
8
Real Hole
62
1
420
16711680
100
AcDbVertex
100
AcDb3dPolylineVertex
10
748599.270657997
20
8930173.02742714
30
180.288566412926
70
32
0
SEQEND
5
D6
100
AcDbEntity
8
Real Hole
0
POINT
5
D8
330
1A
100
AcDbEntity
67
0
8
Hole
62
40
420
16760832
6
ByLayer
370
-1
48
1.0
60
0
100
AcDbPoint
10
748595.129999619
20
8930172.55999989
30
190.610000016689
39
0.0
210
0.0
220
0.0
230
1.0
50
360.0
0
LINE
5
D9
330
1A
100
AcDbEntity
67
0
8
Theoretical Hole
62
40
420
16760832
6
ByLayer
370
-1
48
1.0
60
0
100
AcDbLine
10
748595.129999619
20
8930172.55999989
30
190.610000016689
11
748596.997827988
21
8930174.31584877
31
180.005458297729
39
0.0
210
0.0
220
0.0
230
1.0
0
TEXT
5
DA
330
1A
100
AcDbEntity
67
0
8
Number
62
40
420
16760832
6
ByLayer
370
-1
48
1.0
60
0
100
AcDbText
1
31
10
748595.129999619
20
8930172.86599988
30
190.610000016689
40
0.3
41
1.0
50
0.0
51
0.0
7
Standard
11
748595.129999619
21
8930172.86599988
31
190.610000016689
210
0.0
220
0.0
230
1.0
72
0
100
AcDbText
73
0
0
TEXT
5
DB
330
1A
100
AcDbEntity
67
0
8
label
62
1
420
16711680
6
ByLayer
370
-1
48
1.0
60
0
100
AcDbText
1

10
748595.129999619
20
8930173.26599988
30
190.610000016689
40
0.3
41
1.0
50
0.0
51
0.0
7
Standard
11
748595.129999619
21
8930173.26599988
31
190.610000016689
210
0.0
220
0.0
230
1.0
72
0
100
AcDbText
73
0
0
TEXT
5
DC
330
1A
100
AcDbEntity
67
0
8
Length
62
40
420
16760832
6
ByLayer
370
-1
48
1.0
60
0
100
AcDbText
1
10.91
10
748595.129999619
20
8930171.85599989
30
190.610000016689
40
0.3
41
1.0
50
0.0
51
0.0
7
Standard
11
748595.129999619
21
8930171.85599989
31
190.610000016689
210
0.0
220
0.0
230
1.0
72
0
100
AcDbText
73
0
0
POLYLINE
5
EA
330
1A
100
AcDbEntity
67
0
8
Real Hole
62
1
420
16711680
6
ByLayer
370
-1
48
1.0
60
0
100
AcDb3dPolyline
10
0.0
20
0.0
30
0.0
70
8
75
0
210
0.0
220
0.0
230
1.0
0
VERTEX
5
DD
100
AcDbEntity
8
Real Hole
62
1
420
16711680
100
AcDbVertex
100
AcDb3dPolylineVertex
10
748595.129999619
20
8930172.55999989
30
190.610000016689
70
32
0
VERTEX
5
DE
100
AcDbEntity
8
Real Hole
62
1
420
16711680
100
AcDbVertex
100
AcDb3dPolylineVertex
10
748595.383922468
20
8930172.68035416
30
189.650292756557
70
32
0
VERTEX
5
DF
100
AcDbEntity
8
Real Hole
62
1
420
16711680
100
AcDbVertex
100
AcDb3dPolylineVertex
10
748595.661237757
20
8930172.78586255
30
188.695324542522
70
32
0
VERTEX
5
E0
100
AcDbEntity
8
Real Hole
62
1
420
16711680
100
AcDbVertex
100
AcDb3dPolylineVertex
10
748595.982872825
20
8930172.86337725
30
187.751639010906
70
32
0
VERTEX
5
E1
100
AcDbEntity
8
Real Hole
62
1
420
16711680
100
AcDbVertex
100
AcDb3dPolylineVertex
10
748596.30024169
20
8930172.98954535
30
186.8117674613
70
32
0
VERTEX
5
E2
100
AcDbEntity
8
Real Hole
62
1
420
16711680
100
AcDbVertex
100
AcDb3dPolylineVertex
10
748596.611421208
20
8930173.08183903
30
185.865908505917
70
32
0
VERTEX
5
E3
100
AcDbEntity
8
Real Hole
62
1
420
16711680
100
AcDbVertex
100
AcDb3dPolylineVertex
10
748596.906658869
20
8930173.18627227
30
184.916209580898
70
32
0
VERTEX
5
E4
100
AcDbEntity
8
Real Hole
62
1
420
16711680
100
AcDbVertex
100
AcDb3dPolylineVertex
10
748597.188085537
20
8930173.34124375
30
183.969223382473
70
32
0
VERTEX
5
E5
100
AcDbEntity
8
Real Hole
62
1
420
16711680
100
AcDbVertex
100
AcDb3dPolylineVertex
10
748597.453601341
20
8930173.49933469
30
183.018166425228
70
32
0
VERTEX
5
E6
100
AcDbEntity
8
Real Hole
62
1
420
16711680
100
AcDbVertex
100
AcDb3dPolylineVertex
10
748597.758420687
20
8930173.61463791
30
182.072761895657
70
32
0
VERTEX
5
E7
100
AcDbEntity
8
Real Hole
62
1
420
16711680
100
AcDbVertex
100
AcDb3dPolylineVertex
10
748598.083297472
20
8930173.71944505
30
181.132830979824
70
32
0
VERTEX
5
E8
100
AcDbEntity
8
Real Hole
62
1
420
16711680
100
AcDbVertex
100
AcDb3dPolylineVertex
10
748598.379713516
20
8930173.80567402
30
180.287430169582
70
32
0
SEQEND
5
E9
100
AcDbEntity
8
Real Hole
0
POINT
5
EB
330
1A
100
AcDbEntity
67
0
8
Hole
62
40
420
16760832
6
ByLayer
370
-1
48
1.0
60
0
100
AcDbPoint
10
748594.309999924
20
8930173.42999977
30
190.620000007153
39
0.0
210
0.0
220
0.0
230
1.0
50
360.0
0
LINE
5
EC
330
1A
100
AcDbEntity
67
0
8
Theoretical Hole
62
40
420
16760832
6
ByLayer
370
-1
48
1.0
60
0
100
AcDbLine
10
748594.309999924
20
8930173.42999977
30
190.620000007153
11
748596.196506004
21
8930175.14177937
31
180.001276435852
39
0.0
210
0.0
220
0.0
230
1.0
0
TEXT
5
ED
330
1A
100
AcDbEntity
67
0
8
Number
62
40
420
16760832
6
ByLayer
370
-1
48
1.0
60
0
100
AcDbText
1
32
10
748594.309999924
20
8930173.73599976
30
190.620000007153
40
0.3
41
1.0
50
0.0
51
0.0
7
Standard
11
748594.309999924
21
8930173.73599976
31
190.620000007153
210
0.0
220
0.0
230
1.0
72
0
100
AcDbText
73
0
0
TEXT
5
EE
330
1A
100
AcDbEntity
67
0
8
label
62
1
420
16711680
6
ByLayer
370
-1
48
1.0
60
0
100
AcDbText
1

10
748594.309999924
20
8930174.13599977
30
190.620000007153
40
0.3
41
1.0
50
0.0
51
0.0
7
Standard
11
748594.309999924
21
8930174.13599977
31
190.620000007153
210
0.0
220
0.0
230
1.0
72
0
100
AcDbText
73
0
0
TEXT
5
EF
330
1A
100
AcDbEntity
67
0
8
Length
62
40
420
16760832
6
ByLayer
370
-1
48
1.0
60
0
100
AcDbText
1
10.92
10
748594.309999924
20
8930172.72599977
30
190.620000007153
40
0.3
41
1.0
50
0.0
51
0.0
7
Standard
11
748594.309999924
21
8930172.72599977
31
190.620000007153
210
0.0
220
0.0
230
1.0
72
0
100
AcDbText
73
0
0
POLYLINE
5
FD
330
1A
100
AcDbEntity
67
0
8
Real Hole
62
1
420
16711680
6
ByLayer
370
-1
48
1.0
60
0
100
AcDb3dPolyline
10
0.0
20
0.0
30
0.0
70
8
75
0
210
0.0
220
0.0
230
1.0
0
VERTEX
5
F0
100
AcDbEntity
8
Real Hole
62
1
420
16711680
100
AcDbVertex
100
AcDb3dPolylineVertex
10
748594.309999924
20
8930173.42999977
30
190.620000007153
70
32
0
VERTEX
5
F1
100
AcDbEntity
8
Real Hole
62
1
420
16711680
100
AcDbVertex
100
AcDb3dPolylineVertex
10
748594.606318812
20
8930173.4987918
30
189.667391600609
70
32
0
VERTEX
5
F2
100
AcDbEntity
8
Real Hole
62
1
420
16711680
100
AcDbVertex
100
AcDb3dPolylineVertex
10
748594.895274739
20
8930173.63188006
30
188.719345214367
70
32
0
VERTEX
5
F3
100
AcDbEntity
8
Real Hole
62
1
420
16711680
100
AcDbVertex
100
AcDb3dPolylineVertex
10
748595.160593252
20
8930173.75746554
30
187.763398292065
70
32
0
VERTEX
5
F4
100
AcDbEntity
8
Real Hole
62
1
420
16711680
100
AcDbVertex
100
AcDb3dPolylineVertex
10
748595.448443036
20
8930173.8366445
30
186.809001567364
70
32
0
VERTEX
5
F5
100
AcDbEntity
8
Real Hole
62
1
420
16711680
100
AcDbVertex
100
AcDb3dPolylineVertex
10
748595.745331268
20
8930173.9433552
30
185.86007035017
70
32
0
VERTEX
5
F6
100
AcDbEntity
8
Real Hole
62
1
420
16711680
100
AcDbVertex
100
AcDb3dPolylineVertex
10
748596.017897944
20
8930174.04913157
30
184.903765799999
70
32
0
VERTEX
5
F7
100
AcDbEntity
8
Real Hole
62
1
420
16711680
100
AcDbVertex
100
AcDb3dPolylineVertex
10
748596.313700418
20
8930174.20907146
30
183.962001445293
70
32
0
VERTEX
5
F8
100
AcDbEntity
8
Real Hole
62
1
420
16711680
100
AcDbVertex
100
AcDb3dPolylineVertex
10
748596.602203827
20
8930174.35778791
30
183.01614248991
70
32
0
VERTEX
5
F9
100
AcDbEntity
8
Real Hole
62
1
420
16711680
100
AcDbVertex
100
AcDb3dPolylineVertex
10
748596.902958136
20
8930174.5264253
30
182.077468993664
70
32
0
VERTEX
5
FA
100
AcDbEntity
8
Real Hole
62
1
420
16711680
100
AcDbVertex
100
AcDb3dPolylineVertex
10
748597.198436718
20
8930174.70382637
30
181.138734939098
70
32
0
VERTEX
5
FB
100
AcDbEntity
8
Real Hole
62
1
420
16711680
100
AcDbVertex
100
AcDb3dPolylineVertex
10
748597.538203459
20
8930174.83773261
30
180.207806708813
70
32
0
SEQEND
5
FC
100
AcDbEntity
8
Real Hole
0
POINT
5
FE
330
1A
100
AcDbEntity
67
0
8
Hole
62
40
420
16760832
6
ByLayer
370
-1
48
1.0
60
0
100
AcDbPoint
10
748593.500000458
20
8930174.32000011
30
190.629999997616
39
0.0
210
0.0
220
0.0
230
1.0
50
360.0
0
LINE
5
FF
330
1A
100
AcDbEntity
67
0
8
Theoretical Hole
62
40
420
16760832
6
ByLayer
370
-1
48
1.0
60
0
100
AcDbLine
10
748593.500000458
20
8930174.32000011
30
190.629999997616
11
748595.405111771
21
8930175.98369259
31
179.99667591095
39
0.0
210
0.0
220
0.0
230
1.0
0
TEXT
5
100
330
1A
100
AcDbEntity
67
0
8
Number
62
40
420
16760832
6
ByLayer
370
-1
48
1.0
60
0
100
AcDbText
1
33
10
748593.500000458
20
8930174.62600011
30
190.629999997616
40
0.3
41
1.0
50
0.0
51
0.0
7
Standard
11
748593.500000458
21
8930174.62600011
31
190.629999997616
210
0.0
220
0.0
230
1.0
72
0
100
AcDbText
73
0
0
TEXT
5
101
330
1A
100
AcDbEntity
67
0
8
label
62
1
420
16711680
6
ByLayer
370
-1
48
1.0
60
0
100
AcDbText
1

10
748593.500000458
20
8930175.02600011
30
190.629999997616
40
0.3
41
1.0
50
0.0
51
0.0
7
Standard
11
748593.500000458
21
8930175.02600011
31
190.629999997616
210
0.0
220
0.0
230
1.0
72
0
100
AcDbText
73
0
0
TEXT
5
102
330
1A
100
AcDbEntity
67
0
8
Length
62
40
420
16760832
6
ByLayer
370
-1
48
1.0
60
0
100
AcDbText
1
10.93
10
748593.500000458
20
8930173.61600012
30
190.629999997616
40
0.3
41
1.0
50
0.0
51
0.0
7
Standard
11
748593.500000458
21
8930173.61600012
31
190.629999997616
210
0.0
220
0.0
230
1.0
72
0
100
AcDbText
73
0
0
POLYLINE
5
110
330
1A
100
AcDbEntity
67
0
8
Real Hole
62
1
420
16711680
6
ByLayer
370
-1
48
1.0
60
0
100
AcDb3dPolyline
10
0.0
20
0.0
30
0.0
70
8
75
0
210
0.0
220
0.0
230
1.0
0
VERTEX
5
103
100
AcDbEntity
8
Real Hole
62
1
420
16711680
100
AcDbVertex
100
AcDb3dPolylineVertex
10
748593.500000458
20
8930174.32000011
30
190.629999997616
70
32
0
VERTEX
5
104
100
AcDbEntity
8
Real Hole
62
1
420
16711680
100
AcDbVertex
100
AcDb3dPolylineVertex
10
748593.767642628
20
8930174.38080694
30
189.668402256966
70
32
0
VERTEX
5
105
100
AcDbEntity
8
Real Hole
62
1
420
16711680
100
AcDbVertex
100
AcDb3dPolylineVertex
10
748594.015370648
20
8930174.52377515
30
188.710179450512
70
32
0
VERTEX
5
106
100
AcDbEntity
8
Real Hole
62
1
420
16711680
100
AcDbVertex
100
AcDb3dPolylineVertex
10
748594.274433475
20
8930174.64850936
30
187.752407195568
70
32
0
VERTEX
5
107
100
AcDbEntity
8
Real Hole
62
1
420
16711680
100
AcDbVertex
100
AcDb3dPolylineVertex
10
748594.58919714
20
8930174.71840602
30
186.80581414938
70
32
0
VERTEX
5
108
100
AcDbEntity
8
Real Hole
62
1
420
16711680
100
AcDbVertex
100
AcDb3dPolylineVertex
10
748594.896301489
20
8930174.80144167
30
185.857767941952
70
32
0
VERTEX
5
109
100
AcDbEntity
8
Real Hole
62
1
420
16711680
100
AcDbVertex
100
AcDb3dPolylineVertex
10
748595.151405673
20
8930174.95164955
30
184.902592542171
70
32
0
VERTEX
5
10A
100
AcDbEntity
8
Real Hole
62
1
420
16711680
100
AcDbVertex
100
AcDb3dPolylineVertex
10
748595.414054255
20
8930175.11096597
30
183.950944783688
70
32
0
VERTEX
5
10B
100
AcDbEntity
8
Real Hole
62
1
420
16711680
100
AcDbVertex
100
AcDb3dPolylineVertex
10
748595.741512756
20
8930175.21139264
30
183.011431100368
70
32
0
VERTEX
5
10C
100
AcDbEntity
8
Real Hole
62
1
420
16711680
100
AcDbVertex
100
AcDb3dPolylineVertex
10
748596.062630634
20
8930175.32277793
30
182.070964696407
70
32
0
VERTEX
5
10D
100
AcDbEntity
8
Real Hole
62
1
420
16711680
100
AcDbVertex
100
AcDb3dPolylineVertex
10
748596.393378477
20
8930175.45113307
30
181.136015775204
70
32
0
VERTEX
5
10E
100
AcDbEntity
8
Real Hole
62
1
420
16711680
100
AcDbVertex
100
AcDb3dPolylineVertex
10
748596.455887537
20
8930175.47313363
30
180.947313191891
70
32
0
SEQEND
5
10F
100
AcDbEntity
8
Real Hole
0
POINT
5
111
330
1A
100
AcDbEntity
67
0
8
Hole
62
40
420
16760832
6
ByLayer
370
-1
48
1.0
60
0
100
AcDbPoint
10
748592.709999542
20
8930175.22999996
30
190.639999988079
39
0.0
210
0.0
220
0.0
230
1.0
50
360.0
0
LINE
5
112
330
1A
100
AcDbEntity
67
0
8
Theoretical Hole
62
40
420
16760832
6
ByLayer
370
-1
48
1.0
60
0
100
AcDbLine
10
748592.709999542
20
8930175.22999996
30
190.639999988079
11
748594.657368164
21
8930176.83528656
31
180.005351486206
39
0.0
210
0.0
220
0.0
230
1.0
0
TEXT
5
113
330
1A
100
AcDbEntity
67
0
8
Number
62
40
420
16760832
6
ByLayer
370
-1
48
1.0
60
0
100
AcDbText
1
34
10
748592.709999542
20
8930175.53599996
30
190.639999988079
40
0.3
41
1.0
50
0.0
51
0.0
7
Standard
11
748592.709999542
21
8930175.53599996
31
190.639999988079
210
0.0
220
0.0
230
1.0
72
0
100
AcDbText
73
0
0
TEXT
5
114
330
1A
100
AcDbEntity
67
0
8
label
62
1
420
16711680
6
ByLayer
370
-1
48
1.0
60
0
100
AcDbText
1

10
748592.709999542
20
8930175.93599996
30
190.639999988079
40
0.3
41
1.0
50
0.0
51
0.0
7
Standard
11
748592.709999542
21
8930175.93599996
31
190.639999988079
210
0.0
220
0.0
230
1.0
72
0
100
AcDbText
73
0
0
TEXT
5
115
330
1A
100
AcDbEntity
67
0
8
Length
62
40
420
16760832
6
ByLayer
370
-1
48
1.0
60
0
100
AcDbText
1
10.93
10
748592.709999542
20
8930174.52599997
30
190.639999988079
40
0.3
41
1.0
50
0.0
51
0.0
7
Standard
11
748592.709999542
21
8930174.52599997
31
190.639999988079
210
0.0
220
0.0
230
1.0
72
0
100
AcDbText
73
0
0
POLYLINE
5
123
330
1A
100
AcDbEntity
67
0
8
Real Hole
62
1
420
16711680
6
ByLayer
370
-1
48
1.0
60
0
100
AcDb3dPolyline
10
0.0
20
0.0
30
0.0
70
8
75
0
210
0.0
220
0.0
230
1.0
0
VERTEX
5
116
100
AcDbEntity
8
Real Hole
62
1
420
16711680
100
AcDbVertex
100
AcDb3dPolylineVertex
10
748592.709999542
20
8930175.22999996
30
190.639999988079
70
32
0
VERTEX
5
117
100
AcDbEntity
8
Real Hole
62
1
420
16711680
100
AcDbVertex
100
AcDb3dPolylineVertex
10
748593.003581773
20
8930175.27939221
30
189.685343029499
70
32
0
VERTEX
5
118
100
AcDbEntity
8
Real Hole
62
1
420
16711680
100
AcDbVertex
100
AcDb3dPolylineVertex
10
748593.283459644
20
8930175.40841767
30
188.734017255306
70
32
0
VERTEX
5
119
100
AcDbEntity
8
Real Hole
62
1
420
16711680
100
AcDbVertex
100
AcDb3dPolylineVertex
10
748593.531704526
20
8930175.50916895
30
187.770573499203
70
32
0
VERTEX
5
11A
100
AcDbEntity
8
Real Hole
62
1
420
16711680
100
AcDbVertex
100
AcDb3dPolylineVertex
10
748593.839836698
20
8930175.58491051
30
186.822250010967
70
32
0
VERTEX
5
11B
100
AcDbEntity
8
Real Hole
62
1
420
16711680
100
AcDbVertex
100
AcDb3dPolylineVertex
10
748594.14049552
20
8930175.65261176
30
185.870924117565
70
32
0
VERTEX
5
11C
100
AcDbEntity
8
Real Hole
62
1
420
16711680
100
AcDbVertex
100
AcDb3dPolylineVertex
10
748594.455269079
20
8930175.71934673
30
184.924106242657
70
32
0
VERTEX
5
11D
100
AcDbEntity
8
Real Hole
62
1
420
16711680
100
AcDbVertex
100
AcDb3dPolylineVertex
10
748594.783952456
20
8930175.78472591
30
183.981931807995
70
32
0
VERTEX
5
11E
100
AcDbEntity
8
Real Hole
62
1
420
16711680
100
AcDbVertex
100
AcDb3dPolylineVertex
10
748595.099330168
20
8930175.89560241
30
183.039465072155
70
32
0
VERTEX
5
11F
100
AcDbEntity
8
Real Hole
62
1
420
16711680
100
AcDbVertex
100
AcDb3dPolylineVertex
10
748595.397426586
20
8930176.00480819
30
182.091196658611
70
32
0
VERTEX
5
120
100
AcDbEntity
8
Real Hole
62
1
420
16711680
100
AcDbVertex
100
AcDb3dPolylineVertex
10
748595.736827831
20
8930176.10059321
30
181.155444743633
70
32
0
VERTEX
5
121
100
AcDbEntity
8
Real Hole
62
1
420
16711680
100
AcDbVertex
100
AcDb3dPolylineVertex
10
748596.006740789
20
8930176.18404204
30
180.4069906497
70
32
0
SEQEND
5
122
100
AcDbEntity
8
Real Hole
0
POINT
5
124
330
1A
100
AcDbEntity
67
0
8
Hole
62
40
420
16760832
6
ByLayer
370
-1
48
1.0
60
0
100
AcDbPoint
10
748591.950000267
20
8930176.15000004
30
190.729999961853
39
0.0
210
0.0
220
0.0
230
1.0
50
360.0
0
LINE
5
125
330
1A
100
AcDbEntity
67
0
8
Theoretical Hole
62
40
420
16760832
6
ByLayer
370
-1
48
1.0
60
0
100
AcDbLine
10
748591.950000267
20
8930176.15000004
30
190.729999961853
11
748593.9096875
21
8930177.72562927
31
180.0007213974
39
0.0
210
0.0
220
0.0
230
1.0
0
TEXT
5
126
330
1A
100
AcDbEntity
67
0
8
Number
62
40
420
16760832
6
ByLayer
370
-1
48
1.0
60
0
100
AcDbText
1
35
10
748591.950000267
20
8930176.45600003
30
190.729999961853
40
0.3
41
1.0
50
0.0
51
0.0
7
Standard
11
748591.950000267
21
8930176.45600003
31
190.729999961853
210
0.0
220
0.0
230
1.0
72
0
100
AcDbText
73
0
0
TEXT
5
127
330
1A
100
AcDbEntity
67
0
8
label
62
1
420
16711680
6
ByLayer
370
-1
48
1.0
60
0
100
AcDbText
1

10
748591.950000267
20
8930176.85600003
30
190.729999961853
40
0.3
41
1.0
50
0.0
51
0.0
7
Standard
11
748591.950000267
21
8930176.85600003
31
190.729999961853
210
0.0
220
0.0
230
1.0
72
0
100
AcDbText
73
0
0
TEXT
5
128
330
1A
100
AcDbEntity
67
0
8
Length
62
40
420
16760832
6
ByLayer
370
-1
48
1.0
60
0
100
AcDbText
1
11.02
10
748591.950000267
20
8930175.44600004
30
190.729999961853
40
0.3
41
1.0
50
0.0
51
0.0
7
Standard
11
748591.950000267
21
8930175.44600004
31
190.729999961853
210
0.0
220
0.0
230
1.0
72
0
100
AcDbText
73
0
0
POLYLINE
5
136
330
1A
100
AcDbEntity
67
0
8
Real Hole
62
1
420
16711680
6
ByLayer
370
-1
48
1.0
60
0
100
AcDb3dPolyline
10
0.0
20
0.0
30
0.0
70
8
75
0
210
0.0
220
0.0
230
1.0
0
VERTEX
5
129
100
AcDbEntity
8
Real Hole
62
1
420
16711680
100
AcDbVertex
100
AcDb3dPolylineVertex
10
748591.950000267
20
8930176.15000004
30
190.729999961853
70
32
0
VERTEX
5
12A
100
AcDbEntity
8
Real Hole
62
1
420
16711680
100
AcDbVertex
100
AcDb3dPolylineVertex
10
748592.189726617
20
8930176.26848018
30
189.766416194439
70
32
0
VERTEX
5
12B
100
AcDbEntity
8
Real Hole
62
1
420
16711680
100
AcDbVertex
100
AcDb3dPolylineVertex
10
748592.44971041
20
8930176.33853184
30
188.803347530365
70
32
0
VERTEX
5
12C
100
AcDbEntity
8
Real Hole
62
1
420
16711680
100
AcDbVertex
100
AcDb3dPolylineVertex
10
748592.730957668
20
8930176.43094686
30
187.848172369003
70
32
0
VERTEX
5
12D
100
AcDbEntity
8
Real Hole
62
1
420
16711680
100
AcDbVertex
100
AcDb3dPolylineVertex
10
748592.988942008
20
8930176.54607877
30
186.888907852173
70
32
0
VERTEX
5
12E
100
AcDbEntity
8
Real Hole
62
1
420
16711680
100
AcDbVertex
100
AcDb3dPolylineVertex
10
748593.230160575
20
8930176.6575374
30
185.924858512878
70
32
0
VERTEX
5
12F
100
AcDbEntity
8
Real Hole
62
1
420
16711680
100
AcDbVertex
100
AcDb3dPolylineVertex
10
748593.538140874
20
8930176.74899924
30
184.977872314453
70
32
0
VERTEX
5
130
100
AcDbEntity
8
Real Hole
62
1
420
16711680
100
AcDbVertex
100
AcDb3dPolylineVertex
10
748593.850582819
20
8930176.83061725
30
184.031448307037
70
32
0
VERTEX
5
131
100
AcDbEntity
8
Real Hole
62
1
420
16711680
100
AcDbVertex
100
AcDb3dPolylineVertex
10
748594.160886507
20
8930176.92524976
30
183.085532608032
70
32
0
VERTEX
5
132
100
AcDbEntity
8
Real Hole
62
1
420
16711680
100
AcDbVertex
100
AcDb3dPolylineVertex
10
748594.418313007
20
8930177.06137765
30
182.128871383667
70
32
0
VERTEX
5
133
100
AcDbEntity
8
Real Hole
62
1
420
16711680
100
AcDbVertex
100
AcDb3dPolylineVertex
10
748594.714178781
20
8930177.19959361
30
181.18369430542
70
32
0
VERTEX
5
134
100
AcDbEntity
8
Real Hole
62
1
420
16711680
100
AcDbVertex
100
AcDb3dPolylineVertex
10
748594.743863802
20
8930177.21157509
30
181.088956298828
70
32
0
SEQEND
5
135
100
AcDbEntity
8
Real Hole
0
POINT
5
137
330
1A
100
AcDbEntity
67
0
8
Hole
62
40
420
16760832
6
ByLayer
370
-1
48
1.0
60
0
100
AcDbPoint
10
748591.200000267
20
8930177.08999962
30
190.979999961853
39
0.0
210
0.0
220
0.0
230
1.0
50
360.0
0
LINE
5
138
330
1A
100
AcDbEntity
67
0
8
Theoretical Hole
62
40
420
16760832
6
ByLayer
370
-1
48
1.0
60
0
100
AcDbLine
10
748591.200000267
20
8930177.08999962
30
190.979999961853
11
748593.175719719
21
8930178.63804764
31
180.003313484192
39
0.0
210
0.0
220
0.0
230
1.0
0
TEXT
5
139
330
1A
100
AcDbEntity
67
0
8
Number
62
40
420
16760832
6
ByLayer
370
-1
48
1.0
60
0
100
AcDbText
1
36
10
748591.200000267
20
8930177.39599961
30
190.979999961853
40
0.3
41
1.0
50
0.0
51
0.0
7
Standard
11
748591.200000267
21
8930177.39599961
31
190.979999961853
210
0.0
220
0.0
230
1.0
72
0
100
AcDbText
73
0
0
TEXT
5
13A
330
1A
100
AcDbEntity
67
0
8
label
62
1
420
16711680
6
ByLayer
370
-1
48
1.0
60
0
100
AcDbText
1

10
748591.200000267
20
8930177.79599961
30
190.979999961853
40
0.3
41
1.0
50
0.0
51
0.0
7
Standard
11
748591.200000267
21
8930177.79599961
31
190.979999961853
210
0.0
220
0.0
230
1.0
72
0
100
AcDbText
73
0
0
TEXT
5
13B
330
1A
100
AcDbEntity
67
0
8
Length
62
40
420
16760832
6
ByLayer
370
-1
48
1.0
60
0
100
AcDbText
1
11.26
10
748591.200000267
20
8930176.38599962
30
190.979999961853
40
0.3
41
1.0
50
0.0
51
0.0
7
Standard
11
748591.200000267
21
8930176.38599962
31
190.979999961853
210
0.0
220
0.0
230
1.0
72
0
100
AcDbText
73
0
0
POLYLINE
5
149
330
1A
100
AcDbEntity
67
0
8
Real Hole
62
1
420
16711680
6
ByLayer
370
-1
48
1.0
60
0
100
AcDb3dPolyline
10
0.0
20
0.0
30
0.0
70
8
75
0
210
0.0
220
0.0
230
1.0
0
VERTEX
5
13C
100
AcDbEntity
8
Real Hole
62
1
420
16711680
100
AcDbVertex
100
AcDb3dPolylineVertex
10
748591.200000267
20
8930177.08999962
30
190.979999961853
70
32
0
VERTEX
5
13D
100
AcDbEntity
8
Real Hole
62
1
420
16711680
100
AcDbVertex
100
AcDb3dPolylineVertex
10
748591.502259563
20
8930177.14482045
30
190.028351905346
70
32
0
VERTEX
5
13E
100
AcDbEntity
8
Real Hole
62
1
420
16711680
100
AcDbVertex
100
AcDb3dPolylineVertex
10
748591.785224001
20
8930177.26650857
30
189.076972308159
70
32
0
VERTEX
5
13F
100
AcDbEntity
8
Real Hole
62
1
420
16711680
100
AcDbVertex
100
AcDb3dPolylineVertex
10
748592.051470082
20
8930177.35425183
30
188.117069187164
70
32
0
VERTEX
5
140
100
AcDbEntity
8
Real Hole
62
1
420
16711680
100
AcDbVertex
100
AcDb3dPolylineVertex
10
748592.349232655
20
8930177.42772004
30
187.16526049614
70
32
0
VERTEX
5
141
100
AcDbEntity
8
Real Hole
62
1
420
16711680
100
AcDbVertex
100
AcDb3dPolylineVertex
10
748592.628070335
20
8930177.54890427
30
186.212598743439
70
32
0
VERTEX
5
142
100
AcDbEntity
8
Real Hole
62
1
420
16711680
100
AcDbVertex
100
AcDb3dPolylineVertex
10
748592.933961372
20
8930177.68779129
30
185.270717086792
70
32
0
VERTEX
5
143
100
AcDbEntity
8
Real Hole
62
1
420
16711680
100
AcDbVertex
100
AcDb3dPolylineVertex
10
748593.248650532
20
8930177.80444819
30
184.328718128204
70
32
0
VERTEX
5
144
100
AcDbEntity
8
Real Hole
62
1
420
16711680
100
AcDbVertex
100
AcDb3dPolylineVertex
10
748593.545648079
20
8930177.92953849
30
183.38206905365
70
32
0
VERTEX
5
145
100
AcDbEntity
8
Real Hole
62
1
420
16711680
100
AcDbVertex
100
AcDb3dPolylineVertex
10
748593.86833046
20
8930178.03525675
30
182.441483917236
70
32
0
VERTEX
5
146
100
AcDbEntity
8
Real Hole
62
1
420
16711680
100
AcDbVertex
100
AcDb3dPolylineVertex
10
748594.217046242
20
8930178.1240136
30
181.508468093872
70
32
0
VERTEX
5
147
100
AcDbEntity
8
Real Hole
62
1
420
16711680
100
AcDbVertex
100
AcDb3dPolylineVertex
10
748594.525386553
20
8930178.22158808
30
180.668583335876
70
32
0
SEQEND
5
148
100
AcDbEntity
8
Real Hole
0
POINT
5
14A
330
1A
100
AcDbEntity
67
0
8
Hole
62
40
420
16760832
6
ByLayer
370
-1
48
1.0
60
0
100
AcDbPoint
10
748590.460000019
20
8930178.03000015
30
191.369999947548
39
0.0
210
0.0
220
0.0
230
1.0
50
360.0
0
LINE
5
14B
330
1A
100
AcDbEntity
67
0
8
Theoretical Hole
62
40
420
16760832
6
ByLayer
370
-1
48
1.0
60
0
100
AcDbLine
10
748590.460000019
20
8930178.03000015
30
191.369999947548
11
748592.485149841
21
8930179.54225105
31
179.997473182678
39
0.0
210
0.0
220
0.0
230
1.0
0
TEXT
5
14C
330
1A
100
AcDbEntity
67
0
8
Number
62
40
420
16760832
6
ByLayer
370
-1
48
1.0
60
0
100
AcDbText
1
37
10
748590.460000019
20
8930178.33600015
30
191.369999947548
40
0.3
41
1.0
50
0.0
51
0.0
7
Standard
11
748590.460000019
21
8930178.33600015
31
191.369999947548
210
0.0
220
0.0
230
1.0
72
0
100
AcDbText
73
0
0
TEXT
5
14D
330
1A
100
AcDbEntity
67
0
8
label
62
1
420
16711680
6
ByLayer
370
-1
48
1.0
60
0
100
AcDbText
1

10
748590.460000019
20
8930178.73600015
30
191.369999947548
40
0.3
41
1.0
50
0.0
51
0.0
7
Standard
11
748590.460000019
21
8930178.73600015
31
191.369999947548
210
0.0
220
0.0
230
1.0
72
0
100
AcDbText
73
0
0
TEXT
5
14E
330
1A
100
AcDbEntity
67
0
8
Length
62
40
420
16760832
6
ByLayer
370
-1
48
1.0
60
0
100
AcDbText
1
11.65
10
748590.460000019
20
8930177.32600016
30
191.369999947548
40
0.3
41
1.0
50
0.0
51
0.0
7
Standard
11
748590.460000019
21
8930177.32600016
31
191.369999947548
210
0.0
220
0.0
230
1.0
72
0
100
AcDbText
73
0
0
POLYLINE
5
15C
330
1A
100
AcDbEntity
67
0
8
Real Hole
62
1
420
16711680
6
ByLayer
370
-1
48
1.0
60
0
100
AcDb3dPolyline
10
0.0
20
0.0
30
0.0
70
8
75
0
210
0.0
220
0.0
230
1.0
0
VERTEX
5
14F
100
AcDbEntity
8
Real Hole
62
1
420
16711680
100
AcDbVertex
100
AcDb3dPolylineVertex
10
748590.460000019
20
8930178.03000015
30
191.369999947548
70
32
0
VERTEX
5
150
100
AcDbEntity
8
Real Hole
62
1
420
16711680
100
AcDbVertex
100
AcDb3dPolylineVertex
10
748590.692403879
20
8930178.15461401
30
190.405396463871
70
32
0
VERTEX
5
151
100
AcDbEntity
8
Real Hole
62
1
420
16711680
100
AcDbVertex
100
AcDb3dPolylineVertex
10
748590.9370539
20
8930178.25029433
30
189.440517368317
70
32
0
VERTEX
5
152
100
AcDbEntity
8
Real Hole
62
1
420
16711680
100
AcDbVertex
100
AcDb3dPolylineVertex
10
748591.201288741
20
8930178.30785853
30
188.477778496742
70
32
0
VERTEX
5
153
100
AcDbEntity
8
Real Hole
62
1
420
16711680
100
AcDbVertex
100
AcDb3dPolylineVertex
10
748591.499835949
20
8930178.36356834
30
187.525010886192
70
32
0
VERTEX
5
154
100
AcDbEntity
8
Real Hole
62
1
420
16711680
100
AcDbVertex
100
AcDb3dPolylineVertex
10
748591.786674123
20
8930178.40976918
30
186.568146767616
70
32
0
VERTEX
5
155
100
AcDbEntity
8
Real Hole
62
1
420
16711680
100
AcDbVertex
100
AcDb3dPolylineVertex
10
748592.091356258
20
8930178.50129414
30
185.620100083351
70
32
0
VERTEX
5
156
100
AcDbEntity
8
Real Hole
62
1
420
16711680
100
AcDbVertex
100
AcDb3dPolylineVertex
10
748592.386962395
20
8930178.58667237
30
184.66861301899
70
32
0
VERTEX
5
157
100
AcDbEntity
8
Real Hole
62
1
420
16711680
100
AcDbVertex
100
AcDb3dPolylineVertex
10
748592.665059547
20
8930178.70494688
30
183.715369763374
70
32
0
VERTEX
5
158
100
AcDbEntity
8
Real Hole
62
1
420
16711680
100
AcDbVertex
100
AcDb3dPolylineVertex
10
748592.915054064
20
8930178.80982954
30
182.752820076942
70
32
0
VERTEX
5
159
100
AcDbEntity
8
Real Hole
62
1
420
16711680
100
AcDbVertex
100
AcDb3dPolylineVertex
10
748593.202806215
20
8930178.89060462
30
181.798526825905
70
32
0
VERTEX
5
15A
100
AcDbEntity
8
Real Hole
62
1
420
16711680
100
AcDbVertex
100
AcDb3dPolylineVertex
10
748593.435139637
20
8930178.95164281
30
181.141035141945
70
32
0
SEQEND
5
15B
100
AcDbEntity
8
Real Hole
0
POINT
5
15D
330
1A
100
AcDbEntity
67
0
8
Hole
62
40
420
16760832
6
ByLayer
370
-1
48
1.0
60
0
100
AcDbPoint
10
748589.740000229
20
8930178.98999924
30
191.63000005722
39
0.0
210
0.0
220
0.0
230
1.0
50
360.0
0
LINE
5
15E
330
1A
100
AcDbEntity
67
0
8
Theoretical Hole
62
40
420
16760832
6
ByLayer
370
-1
48
1.0
60
0
100
AcDbLine
10
748589.740000229
20
8930178.98999924
30
191.63000005722
11
748591.771757584
21
8930180.50608009
31
180.003158035278
39
0.0
210
0.0
220
0.0
230
1.0
0
TEXT
5
15F
330
1A
100
AcDbEntity
67
0
8
Number
62
40
420
16760832
6
ByLayer
370
-1
48
1.0
60
0
100
AcDbText
1
38
10
748589.740000229
20
8930179.29599923
30
191.63000005722
40
0.3
41
1.0
50
0.0
51
0.0
7
Standard
11
748589.740000229
21
8930179.29599923
31
191.63000005722
210
0.0
220
0.0
230
1.0
72
0
100
AcDbText
73
0
0
TEXT
5
160
330
1A
100
AcDbEntity
67
0
8
label
62
1
420
16711680
6
ByLayer
370
-1
48
1.0
60
0
100
AcDbText
1

10
748589.740000229
20
8930179.69599923
30
191.63000005722
40
0.3
41
1.0
50
0.0
51
0.0
7
Standard
11
748589.740000229
21
8930179.69599923
31
191.63000005722
210
0.0
220
0.0
230
1.0
72
0
100
AcDbText
73
0
0
TEXT
5
161
330
1A
100
AcDbEntity
67
0
8
Length
62
40
420
16760832
6
ByLayer
370
-1
48
1.0
60
0
100
AcDbText
1
11.90
10
748589.740000229
20
8930178.28599924
30
191.63000005722
40
0.3
41
1.0
50
0.0
51
0.0
7
Standard
11
748589.740000229
21
8930178.28599924
31
191.63000005722
210
0.0
220
0.0
230
1.0
72
0
100
AcDbText
73
0
0
POLYLINE
5
16F
330
1A
100
AcDbEntity
67
0
8
Real Hole
62
1
420
16711680
6
ByLayer
370
-1
48
1.0
60
0
100
AcDb3dPolyline
10
0.0
20
0.0
30
0.0
70
8
75
0
210
0.0
220
0.0
230
1.0
0
VERTEX
5
162
100
AcDbEntity
8
Real Hole
62
1
420
16711680
100
AcDbVertex
100
AcDb3dPolylineVertex
10
748589.740000229
20
8930178.98999924
30
191.63000005722
70
32
0
VERTEX
5
163
100
AcDbEntity
8
Real Hole
62
1
420
16711680
100
AcDbVertex
100
AcDb3dPolylineVertex
10
748589.984857093
20
8930179.13091192
30
190.670735361576
70
32
0
VERTEX
5
164
100
AcDbEntity
8
Real Hole
62
1
420
16711680
100
AcDbVertex
100
AcDb3dPolylineVertex
10
748590.247693162
20
8930179.24953172
30
189.71321434021
70
32
0
VERTEX
5
165
100
AcDbEntity
8
Real Hole
62
1
420
16711680
100
AcDbVertex
100
AcDb3dPolylineVertex
10
748590.531885724
20
8930179.30575186
30
188.756096782684
70
32
0
VERTEX
5
166
100
AcDbEntity
8
Real Hole
62
1
420
16711680
100
AcDbVertex
100
AcDb3dPolylineVertex
10
748590.846386056
20
8930179.40684799
30
187.81223815918
70
32
0
VERTEX
5
167
100
AcDbEntity
8
Real Hole
62
1
420
16711680
100
AcDbVertex
100
AcDb3dPolylineVertex
10
748591.111911755
20
8930179.52059758
30
186.854868354797
70
32
0
VERTEX
5
168
100
AcDbEntity
8
Real Hole
62
1
420
16711680
100
AcDbVertex
100
AcDb3dPolylineVertex
10
748591.408793311
20
8930179.62830174
30
185.906047286987
70
32
0
VERTEX
5
169
100
AcDbEntity
8
Real Hole
62
1
420
16711680
100
AcDbVertex
100
AcDb3dPolylineVertex
10
748591.734716992
20
8930179.72059024
30
184.965166511536
70
32
0
VERTEX
5
16A
100
AcDbEntity
8
Real Hole
62
1
420
16711680
100
AcDbVertex
100
AcDb3dPolylineVertex
10
748592.001940708
20
8930179.85739434
30
184.01129240036
70
32
0
VERTEX
5
16B
100
AcDbEntity
8
Real Hole
62
1
420
16711680
100
AcDbVertex
100
AcDb3dPolylineVertex
10
748592.285175304
20
8930179.97802895
30
183.059859218597
70
32
0
VERTEX
5
16C
100
AcDbEntity
8
Real Hole
62
1
420
16711680
100
AcDbVertex
100
AcDb3dPolylineVertex
10
748592.584673386
20
8930180.05743939
30
182.109072628021
70
32
0
VERTEX
5
16D
100
AcDbEntity
8
Real Hole
62
1
420
16711680
100
AcDbVertex
100
AcDb3dPolylineVertex
10
748592.675787907
20
8930180.08054573
30
181.824179592133
70
32
0
SEQEND
5
16E
100
AcDbEntity
8
Real Hole
0
POINT
5
170
330
1A
100
AcDbEntity
67
0
8
Hole
62
40
420
16760832
6
ByLayer
370
-1
48
1.0
60
0
100
AcDbPoint
10
748589.019999962
20
8930179.95000023
30
191.63000005722
39
0.0
210
0.0
220
0.0
230
1.0
50
360.0
0
LINE
5
171
330
1A
100
AcDbEntity
67
0
8
Theoretical Hole
62
40
420
16760832
6
ByLayer
370
-1
48
1.0
60
0
100
AcDbLine
10
748589.019999962
20
8930179.95000023
30
191.63000005722
11
748591.071632843
21
8930181.48035377
31
179.998280944824
39
0.0
210
0.0
220
0.0
230
1.0
0
TEXT
5
172
330
1A
100
AcDbEntity
67
0
8
Number
62
40
420
16760832
6
ByLayer
370
-1
48
1.0
60
0
100
AcDbText
1
39
10
748589.019999962
20
8930180.25600022
30
191.63000005722
40
0.3
41
1.0
50
0.0
51
0.0
7
Standard
11
748589.019999962
21
8930180.25600022
31
191.63000005722
210
0.0
220
0.0
230
1.0
72
0
100
AcDbText
73
0
0
TEXT
5
173
330
1A
100
AcDbEntity
67
0
8
label
62
1
420
16711680
6
ByLayer
370
-1
48
1.0
60
0
100
AcDbText
1

10
748589.019999962
20
8930180.65600022
30
191.63000005722
40
0.3
41
1.0
50
0.0
51
0.0
7
Standard
11
748589.019999962
21
8930180.65600022
31
191.63000005722
210
0.0
220
0.0
230
1.0
72
0
100
AcDbText
73
0
0
TEXT
5
174
330
1A
100
AcDbEntity
67
0
8
Length
62
40
420
16760832
6
ByLayer
370
-1
48
1.0
60
0
100
AcDbText
1
11.91
10
748589.019999962
20
8930179.24600023
30
191.63000005722
40
0.3
41
1.0
50
0.0
51
0.0
7
Standard
11
748589.019999962
21
8930179.24600023
31
191.63000005722
210
0.0
220
0.0
230
1.0
72
0
100
AcDbText
73
0
0
POLYLINE
5
182
330
1A
100
AcDbEntity
67
0
8
Real Hole
62
1
420
16711680
6
ByLayer
370
-1
48
1.0
60
0
100
AcDb3dPolyline
10
0.0
20
0.0
30
0.0
70
8
75
0
210
0.0
220
0.0
230
1.0
0
VERTEX
5
175
100
AcDbEntity
8
Real Hole
62
1
420
16711680
100
AcDbVertex
100
AcDb3dPolylineVertex
10
748589.019999962
20
8930179.95000023
30
191.63000005722
70
32
0
VERTEX
5
176
100
AcDbEntity
8
Real Hole
62
1
420
16711680
100
AcDbVertex
100
AcDb3dPolylineVertex
10
748589.299907308
20
8930180.08858228
30
190.68002802372
70
32
0
VERTEX
5
177
100
AcDbEntity
8
Real Hole
62
1
420
16711680
100
AcDbVertex
100
AcDb3dPolylineVertex
10
748589.563627522
20
8930180.24219442
30
189.72773868084
70
32
0
VERTEX
5
178
100
AcDbEntity
8
Real Hole
62
1
420
16711680
100
AcDbVertex
100
AcDb3dPolylineVertex
10
748589.85181884
20
8930180.37014398
30
188.778752508163
70
32
0
VERTEX
5
179
100
AcDbEntity
8
Real Hole
62
1
420
16711680
100
AcDbVertex
100
AcDb3dPolylineVertex
10
748590.182889204
20
8930180.49537713
30
187.843493642807
70
32
0
VERTEX
5
17A
100
AcDbEntity
8
Real Hole
62
1
420
16711680
100
AcDbVertex
100
AcDb3dPolylineVertex
10
748590.467335205
20
8930180.65578503
30
186.898316802979
70
32
0
VERTEX
5
17B
100
AcDbEntity
8
Real Hole
62
1
420
16711680
100
AcDbVertex
100
AcDb3dPolylineVertex
10
748590.7592238
20
8930180.82992375
30
185.957850399017
70
32
0
VERTEX
5
17C
100
AcDbEntity
8
Real Hole
62
1
420
16711680
100
AcDbVertex
100
AcDb3dPolylineVertex
10
748591.051911573
20
8930180.99781901
30
185.016497554779
70
32
0
VERTEX
5
17D
100
AcDbEntity
8
Real Hole
62
1
420
16711680
100
AcDbVertex
100
AcDb3dPolylineVertex
10
748591.320757608
20
8930181.18231553
30
184.071149768829
70
32
0
VERTEX
5
17E
100
AcDbEntity
8
Real Hole
62
1
420
16711680
100
AcDbVertex
100
AcDb3dPolylineVertex
10
748591.59577034
20
8930181.34808308
30
183.124107303619
70
32
0
VERTEX
5
17F
100
AcDbEntity
8
Real Hole
62
1
420
16711680
100
AcDbVertex
100
AcDb3dPolylineVertex
10
748591.907478313
20
8930181.49356729
30
182.185132923126
70
32
0
VERTEX
5
180
100
AcDbEntity
8
Real Hole
62
1
420
16711680
100
AcDbVertex
100
AcDb3dPolylineVertex
10
748592.123894196
20
8930181.60526782
30
181.528865756989
70
32
0
SEQEND
5
181
100
AcDbEntity
8
Real Hole
0
POINT
5
183
330
1A
100
AcDbEntity
67
0
8
Hole
62
40
420
16760832
6
ByLayer
370
-1
48
1.0
60
0
100
AcDbPoint
10
748588.300000172
20
8930180.91999954
30
191.199999990463
39
0.0
210
0.0
220
0.0
230
1.0
50
360.0
0
LINE
5
184
330
1A
100
AcDbEntity
67
0
8
Theoretical Hole
62
40
420
16760832
6
ByLayer
370
-1
48
1.0
60
0
100
AcDbLine
10
748588.300000172
20
8930180.91999954
30
191.199999990463
11
748590.400715809
21
8930182.45636505
31
179.998366775513
39
0.0
210
0.0
220
0.0
230
1.0
0
TEXT
5
185
330
1A
100
AcDbEntity
67
0
8
Number
62
40
420
16760832
6
ByLayer
370
-1
48
1.0
60
0
100
AcDbText
1
40
10
748588.300000172
20
8930181.22599954
30
191.199999990463
40
0.3
41
1.0
50
0.0
51
0.0
7
Standard
11
748588.300000172
21
8930181.22599954
31
191.199999990463
210
0.0
220
0.0
230
1.0
72
0
100
AcDbText
73
0
0
TEXT
5
186
330
1A
100
AcDbEntity
67
0
8
label
62
1
420
16711680
6
ByLayer
370
-1
48
1.0
60
0
100
AcDbText
1

10
748588.300000172
20
8930181.62599954
30
191.199999990463
40
0.3
41
1.0
50
0.0
51
0.0
7
Standard
11
748588.300000172
21
8930181.62599954
31
191.199999990463
210
0.0
220
0.0
230
1.0
72
0
100
AcDbText
73
0
0
TEXT
5
187
330
1A
100
AcDbEntity
67
0
8
Length
62
40
420
16760832
6
ByLayer
370
-1
48
1.0
60
0
100
AcDbText
1
11.50
10
748588.300000172
20
8930180.21599955
30
191.199999990463
40
0.3
41
1.0
50
0.0
51
0.0
7
Standard
11
748588.300000172
21
8930180.21599955
31
191.199999990463
210
0.0
220
0.0
230
1.0
72
0
100
AcDbText
73
0
0
POLYLINE
5
195
330
1A
100
AcDbEntity
67
0
8
Real Hole
62
1
420
16711680
6
ByLayer
370
-1
48
1.0
60
0
100
AcDb3dPolyline
10
0.0
20
0.0
30
0.0
70
8
75
0
210
0.0
220
0.0
230
1.0
0
VERTEX
5
188
100
AcDbEntity
8
Real Hole
62
1
420
16711680
100
AcDbVertex
100
AcDb3dPolylineVertex
10
748588.300000172
20
8930180.91999954
30
191.199999990463
70
32
0
VERTEX
5
189
100
AcDbEntity
8
Real Hole
62
1
420
16711680
100
AcDbVertex
100
AcDb3dPolylineVertex
10
748588.561593186
20
8930180.93164968
30
190.234892013073
70
32
0
VERTEX
5
18A
100
AcDbEntity
8
Real Hole
62
1
420
16711680
100
AcDbVertex
100
AcDb3dPolylineVertex
10
748588.814360361
20
8930181.02872855
30
189.272247495651
70
32
0
VERTEX
5
18B
100
AcDbEntity
8
Real Hole
62
1
420
16711680
100
AcDbVertex
100
AcDb3dPolylineVertex
10
748589.082472901
20
8930181.10707934
30
188.312051239014
70
32
0
VERTEX
5
18C
100
AcDbEntity
8
Real Hole
62
1
420
16711680
100
AcDbVertex
100
AcDb3dPolylineVertex
10
748589.353667955
20
8930181.15910697
30
187.350933971405
70
32
0
VERTEX
5
18D
100
AcDbEntity
8
Real Hole
62
1
420
16711680
100
AcDbVertex
100
AcDb3dPolylineVertex
10
748589.608154159
20
8930181.26844284
30
186.390058221817
70
32
0
VERTEX
5
18E
100
AcDbEntity
8
Real Hole
62
1
420
16711680
100
AcDbVertex
100
AcDb3dPolylineVertex
10
748589.917989712
20
8930181.32424689
30
185.440907182693
70
32
0
VERTEX
5
18F
100
AcDbEntity
8
Real Hole
62
1
420
16711680
100
AcDbVertex
100
AcDb3dPolylineVertex
10
748590.236585121
20
8930181.38180089
30
184.494764986038
70
32
0
VERTEX
5
190
100
AcDbEntity
8
Real Hole
62
1
420
16711680
100
AcDbVertex
100
AcDb3dPolylineVertex
10
748590.533629398
20
8930181.47505975
30
183.544466676712
70
32
0
VERTEX
5
191
100
AcDbEntity
8
Real Hole
62
1
420
16711680
100
AcDbVertex
100
AcDb3dPolylineVertex
10
748590.821145754
20
8930181.59959829
30
182.59482211113
70
32
0
VERTEX
5
192
100
AcDbEntity
8
Real Hole
62
1
420
16711680
100
AcDbVertex
100
AcDb3dPolylineVertex
10
748591.113744001
20
8930181.68096304
30
181.642054738998
70
32
0
VERTEX
5
193
100
AcDbEntity
8
Real Hole
62
1
420
16711680
100
AcDbVertex
100
AcDb3dPolylineVertex
10
748591.360790949
20
8930181.7585249
30
180.991707029343
70
32
0
SEQEND
5
194
100
AcDbEntity
8
Real Hole
0
POINT
5
196
330
1A
100
AcDbEntity
67
0
8
Hole
62
40
420
16760832
6
ByLayer
370
-1
48
1.0
60
0
100
AcDbPoint
10
748587.590000134
20
8930181.88000053
30
190.709999980927
39
0.0
210
0.0
220
0.0
230
1.0
50
360.0
0
LINE
5
197
330
1A
100
AcDbEntity
67
0
8
Theoretical Hole
62
40
420
16760832
6
ByLayer
370
-1
48
1.0
60
0
100
AcDbLine
10
748587.590000134
20
8930181.88000053
30
190.709999980927
11
748589.724235992
21
8930183.44088119
31
180.001611175537
39
0.0
210
0.0
220
0.0
230
1.0
0
TEXT
5
198
330
1A
100
AcDbEntity
67
0
8
Number
62
40
420
16760832
6
ByLayer
370
-1
48
1.0
60
0
100
AcDbText
1
41
10
748587.590000134
20
8930182.18600053
30
190.709999980927
40
0.3
41
1.0
50
0.0
51
0.0
7
Standard
11
748587.590000134
21
8930182.18600053
31
190.709999980927
210
0.0
220
0.0
230
1.0
72
0
100
AcDbText
73
0
0
TEXT
5
199
330
1A
100
AcDbEntity
67
0
8
label
62
1
420
16711680
6
ByLayer
370
-1
48
1.0
60
0
100
AcDbText
1

10
748587.590000134
20
8930182.58600053
30
190.709999980927
40
0.3
41
1.0
50
0.0
51
0.0
7
Standard
11
748587.590000134
21
8930182.58600053
31
190.709999980927
210
0.0
220
0.0
230
1.0
72
0
100
AcDbText
73
0
0
TEXT
5
19A
330
1A
100
AcDbEntity
67
0
8
Length
62
40
420
16760832
6
ByLayer
370
-1
48
1.0
60
0
100
AcDbText
1
11.03
10
748587.590000134
20
8930181.17600054
30
190.709999980927
40
0.3
41
1.0
50
0.0
51
0.0
7
Standard
11
748587.590000134
21
8930181.17600054
31
190.709999980927
210
0.0
220
0.0
230
1.0
72
0
100
AcDbText
73
0
0
POLYLINE
5
1A8
330
1A
100
AcDbEntity
67
0
8
Real Hole
62
1
420
16711680
6
ByLayer
370
-1
48
1.0
60
0
100
AcDb3dPolyline
10
0.0
20
0.0
30
0.0
70
8
75
0
210
0.0
220
0.0
230
1.0
0
VERTEX
5
19B
100
AcDbEntity
8
Real Hole
62
1
420
16711680
100
AcDbVertex
100
AcDb3dPolylineVertex
10
748587.590000134
20
8930181.88000053
30
190.709999980927
70
32
0
VERTEX
5
19C
100
AcDbEntity
8
Real Hole
62
1
420
16711680
100
AcDbVertex
100
AcDb3dPolylineVertex
10
748587.849727135
20
8930181.98504251
30
189.750047864914
70
32
0
VERTEX
5
19D
100
AcDbEntity
8
Real Hole
62
1
420
16711680
100
AcDbVertex
100
AcDb3dPolylineVertex
10
748588.113360386
20
8930182.08084087
30
188.790193619728
70
32
0
VERTEX
5
19E
100
AcDbEntity
8
Real Hole
62
1
420
16711680
100
AcDbVertex
100
AcDb3dPolylineVertex
10
748588.410525839
20
8930182.11427835
30
187.835953178406
70
32
0
VERTEX
5
19F
100
AcDbEntity
8
Real Hole
62
1
420
16711680
100
AcDbVertex
100
AcDb3dPolylineVertex
10
748588.70067976
20
8930182.1746833
30
186.880881490707
70
32
0
VERTEX
5
1A0
100
AcDbEntity
8
Real Hole
62
1
420
16711680
100
AcDbVertex
100
AcDb3dPolylineVertex
10
748588.945148091
20
8930182.27355415
30
185.916278305054
70
32
0
VERTEX
5
1A1
100
AcDbEntity
8
Real Hole
62
1
420
16711680
100
AcDbVertex
100
AcDb3dPolylineVertex
10
748589.227035027
20
8930182.33589217
30
184.958857955933
70
32
0
VERTEX
5
1A2
100
AcDbEntity
8
Real Hole
62
1
420
16711680
100
AcDbVertex
100
AcDb3dPolylineVertex
10
748589.518262844
20
8930182.38212234
30
184.003321590424
70
32
0
VERTEX
5
1A3
100
AcDbEntity
8
Real Hole
62
1
420
16711680
100
AcDbVertex
100
AcDb3dPolylineVertex
10
748589.833827238
20
8930182.46485025
30
183.058030548096
70
32
0
VERTEX
5
1A4
100
AcDbEntity
8
Real Hole
62
1
420
16711680
100
AcDbVertex
100
AcDb3dPolylineVertex
10
748590.148135405
20
8930182.55036372
30
182.112568798065
70
32
0
VERTEX
5
1A5
100
AcDbEntity
8
Real Hole
62
1
420
16711680
100
AcDbVertex
100
AcDb3dPolylineVertex
10
748590.428404789
20
8930182.67773557
30
181.161135616302
70
32
0
VERTEX
5
1A6
100
AcDbEntity
8
Real Hole
62
1
420
16711680
100
AcDbVertex
100
AcDb3dPolylineVertex
10
748590.601341944
20
8930182.74757153
30
180.590858402252
70
32
0
SEQEND
5
1A7
100
AcDbEntity
8
Real Hole
0
POINT
5
1A9
330
1A
100
AcDbEntity
67
0
8
Hole
62
40
420
16760832
6
ByLayer
370
-1
48
1.0
60
0
100
AcDbPoint
10
748586.889999847
20
8930182.84999985
30
190.46999997139
39
0.0
210
0.0
220
0.0
230
1.0
50
360.0
0
LINE
5
1AA
330
1A
100
AcDbEntity
67
0
8
Theoretical Hole
62
40
420
16760832
6
ByLayer
370
-1
48
1.0
60
0
100
AcDbLine
10
748586.889999847
20
8930182.84999985
30
190.46999997139
11
748589.061410408
21
8930184.43806786
31
180.000085296631
39
0.0
210
0.0
220
0.0
230
1.0
0
TEXT
5
1AB
330
1A
100
AcDbEntity
67
0
8
Number
62
40
420
16760832
6
ByLayer
370
-1
48
1.0
60
0
100
AcDbText
1
42
10
748586.889999847
20
8930183.15599984
30
190.46999997139
40
0.3
41
1.0
50
0.0
51
0.0
7
Standard
11
748586.889999847
21
8930183.15599984
31
190.46999997139
210
0.0
220
0.0
230
1.0
72
0
100
AcDbText
73
0
0
TEXT
5
1AC
330
1A
100
AcDbEntity
67
0
8
label
62
1
420
16711680
6
ByLayer
370
-1
48
1.0
60
0
100
AcDbText
1

10
748586.889999847
20
8930183.55599984
30
190.46999997139
40
0.3
41
1.0
50
0.0
51
0.0
7
Standard
11
748586.889999847
21
8930183.55599984
31
190.46999997139
210
0.0
220
0.0
230
1.0
72
0
100
AcDbText
73
0
0
TEXT
5
1AD
330
1A
100
AcDbEntity
67
0
8
Length
62
40
420
16760832
6
ByLayer
370
-1
48
1.0
60
0
100
AcDbText
1
10.81
10
748586.889999847
20
8930182.14599985
30
190.46999997139
40
0.3
41
1.0
50
0.0
51
0.0
7
Standard
11
748586.889999847
21
8930182.14599985
31
190.46999997139
210
0.0
220
0.0
230
1.0
72
0
100
AcDbText
73
0
0
POLYLINE
5
1BB
330
1A
100
AcDbEntity
67
0
8
Real Hole
62
1
420
16711680
6
ByLayer
370
-1
48
1.0
60
0
100
AcDb3dPolyline
10
0.0
20
0.0
30
0.0
70
8
75
0
210
0.0
220
0.0
230
1.0
0
VERTEX
5
1AE
100
AcDbEntity
8
Real Hole
62
1
420
16711680
100
AcDbVertex
100
AcDb3dPolylineVertex
10
748586.889999847
20
8930182.84999985
30
190.46999997139
70
32
0
VERTEX
5
1AF
100
AcDbEntity
8
Real Hole
62
1
420
16711680
100
AcDbVertex
100
AcDb3dPolylineVertex
10
748587.131022702
20
8930182.9864751
30
189.509124102592
70
32
0
VERTEX
5
1B0
100
AcDbEntity
8
Real Hole
62
1
420
16711680
100
AcDbVertex
100
AcDb3dPolylineVertex
10
748587.386870246
20
8930183.107851
30
188.550056877136
70
32
0
VERTEX
5
1B1
100
AcDbEntity
8
Real Hole
62
1
420
16711680
100
AcDbVertex
100
AcDb3dPolylineVertex
10
748587.701993029
20
8930183.17765433
30
187.603576364517
70
32
0
VERTEX
5
1B2
100
AcDbEntity
8
Real Hole
62
1
420
16711680
100
AcDbVertex
100
AcDb3dPolylineVertex
10
748588.008364182
20
8930183.23753986
30
186.653549852371
70
32
0
VERTEX
5
1B3
100
AcDbEntity
8
Real Hole
62
1
420
16711680
100
AcDbVertex
100
AcDb3dPolylineVertex
10
748588.291219573
20
8930183.37949223
30
185.704949560165
70
32
0
VERTEX
5
1B4
100
AcDbEntity
8
Real Hole
62
1
420
16711680
100
AcDbVertex
100
AcDb3dPolylineVertex
10
748588.591074448
20
8930183.49483592
30
184.75796336174
70
32
0
VERTEX
5
1B5
100
AcDbEntity
8
Real Hole
62
1
420
16711680
100
AcDbVertex
100
AcDb3dPolylineVertex
10
748588.915405731
20
8930183.58851069
30
183.816669645309
70
32
0
VERTEX
5
1B6
100
AcDbEntity
8
Real Hole
62
1
420
16711680
100
AcDbVertex
100
AcDb3dPolylineVertex
10
748589.176511269
20
8930183.75128758
30
182.865182580948
70
32
0
VERTEX
5
1B7
100
AcDbEntity
8
Real Hole
62
1
420
16711680
100
AcDbVertex
100
AcDb3dPolylineVertex
10
748589.458392363
20
8930183.88999027
30
181.915812196732
70
32
0
VERTEX
5
1B8
100
AcDbEntity
8
Real Hole
62
1
420
16711680
100
AcDbVertex
100
AcDb3dPolylineVertex
10
748589.776661139
20
8930184.03921372
30
180.979629220963
70
32
0
VERTEX
5
1B9
100
AcDbEntity
8
Real Hole
62
1
420
16711680
100
AcDbVertex
100
AcDb3dPolylineVertex
10
748589.902523499
20
8930184.09641344
30
180.604280176163
70
32
0
SEQEND
5
1BA
100
AcDbEntity
8
Real Hole
0
POINT
5
1BC
330
1A
100
AcDbEntity
67
0
8
Hole
62
40
420
16760832
6
ByLayer
370
-1
48
1.0
60
0
100
AcDbPoint
10
748586.180000048
20
8930183.81999916
30
190.449999990463
39
0.0
210
0.0
220
0.0
230
1.0
50
360.0
0
LINE
5
1BD
330
1A
100
AcDbEntity
67
0
8
Theoretical Hole
62
40
420
16760832
6
ByLayer
370
-1
48
1.0
60
0
100
AcDbLine
10
748586.180000048
20
8930183.81999916
30
190.449999990463
11
748588.392108898
21
8930185.43783325
31
180.003508033752
39
0.0
210
0.0
220
0.0
230
1.0
0
TEXT
5
1BE
330
1A
100
AcDbEntity
67
0
8
Number
62
40
420
16760832
6
ByLayer
370
-1
48
1.0
60
0
100
AcDbText
1
43
10
748586.180000048
20
8930184.12599915
30
190.449999990463
40
0.3
41
1.0
50
0.0
51
0.0
7
Standard
11
748586.180000048
21
8930184.12599915
31
190.449999990463
210
0.0
220
0.0
230
1.0
72
0
100
AcDbText
73
0
0
TEXT
5
1BF
330
1A
100
AcDbEntity
67
0
8
label
62
1
420
16711680
6
ByLayer
370
-1
48
1.0
60
0
100
AcDbText
1

10
748586.180000048
20
8930184.52599915
30
190.449999990463
40
0.3
41
1.0
50
0.0
51
0.0
7
Standard
11
748586.180000048
21
8930184.52599915
31
190.449999990463
210
0.0
220
0.0
230
1.0
72
0
100
AcDbText
73
0
0
TEXT
5
1C0
330
1A
100
AcDbEntity
67
0
8
Length
62
40
420
16760832
6
ByLayer
370
-1
48
1.0
60
0
100
AcDbText
1
10.80
10
748586.180000048
20
8930183.11599916
30
190.449999990463
40
0.3
41
1.0
50
0.0
51
0.0
7
Standard
11
748586.180000048
21
8930183.11599916
31
190.449999990463
210
0.0
220
0.0
230
1.0
72
0
100
AcDbText
73
0
0
POLYLINE
5
1CE
330
1A
100
AcDbEntity
67
0
8
Real Hole
62
1
420
16711680
6
ByLayer
370
-1
48
1.0
60
0
100
AcDb3dPolyline
10
0.0
20
0.0
30
0.0
70
8
75
0
210
0.0
220
0.0
230
1.0
0
VERTEX
5
1C1
100
AcDbEntity
8
Real Hole
62
1
420
16711680
100
AcDbVertex
100
AcDb3dPolylineVertex
10
748586.180000048
20
8930183.81999916
30
190.449999990463
70
32
0
VERTEX
5
1C2
100
AcDbEntity
8
Real Hole
62
1
420
16711680
100
AcDbVertex
100
AcDb3dPolylineVertex
10
748586.41062982
20
8930183.90207736
30
189.480426313877
70
32
0
VERTEX
5
1C3
100
AcDbEntity
8
Real Hole
62
1
420
16711680
100
AcDbVertex
100
AcDb3dPolylineVertex
10
748586.669407378
20
8930183.92348918
30
188.514726700783
70
32
0
VERTEX
5
1C4
100
AcDbEntity
8
Real Hole
62
1
420
16711680
100
AcDbVertex
100
AcDb3dPolylineVertex
10
748586.925993423
20
8930183.97980938
30
187.549847545624
70
32
0
VERTEX
5
1C5
100
AcDbEntity
8
Real Hole
62
1
420
16711680
100
AcDbVertex
100
AcDb3dPolylineVertex
10
748587.17712615
20
8930183.99450949
30
186.582006635666
70
32
0
VERTEX
5
1C6
100
AcDbEntity
8
Real Hole
62
1
420
16711680
100
AcDbVertex
100
AcDb3dPolylineVertex
10
748587.452040534
20
8930184.05104134
30
185.622201147079
70
32
0
VERTEX
5
1C7
100
AcDbEntity
8
Real Hole
62
1
420
16711680
100
AcDbVertex
100
AcDb3dPolylineVertex
10
748587.706395249
20
8930184.08873725
30
184.65582531929
70
32
0
VERTEX
5
1C8
100
AcDbEntity
8
Real Hole
62
1
420
16711680
100
AcDbVertex
100
AcDb3dPolylineVertex
10
748587.958294134
20
8930184.18336961
30
183.692709627151
70
32
0
VERTEX
5
1C9
100
AcDbEntity
8
Real Hole
62
1
420
16711680
100
AcDbVertex
100
AcDb3dPolylineVertex
10
748588.184576254
20
8930184.29633767
30
182.725220861435
70
32
0
VERTEX
5
1CA
100
AcDbEntity
8
Real Hole
62
1
420
16711680
100
AcDbVertex
100
AcDb3dPolylineVertex
10
748588.372005444
20
8930184.40660978
30
181.749152364731
70
32
0
VERTEX
5
1CB
100
AcDbEntity
8
Real Hole
62
1
420
16711680
100
AcDbVertex
100
AcDb3dPolylineVertex
10
748588.579954128
20
8930184.52450115
30
180.778143110275
70
32
0
VERTEX
5
1CC
100
AcDbEntity
8
Real Hole
62
1
420
16711680
100
AcDbVertex
100
AcDb3dPolylineVertex
10
748588.668085318
20
8930184.5592525
30
180.389522733688
70
32
0
SEQEND
5
1CD
100
AcDbEntity
8
Real Hole
0
POINT
5
1CF
330
1A
100
AcDbEntity
67
0
8
Hole
62
40
420
16760832
6
ByLayer
370
-1
48
1.0
60
0
100
AcDbPoint
10
748585.47000001
20
8930184.79000038
30
190.46999997139
39
0.0
210
0.0
220
0.0
230
1.0
50
360.0
0
LINE
5
1D0
330
1A
100
AcDbEntity
67
0
8
Theoretical Hole
62
40
420
16760832
6
ByLayer
370
-1
48
1.0
60
0
100
AcDbLine
10
748585.47000001
20
8930184.79000038
30
190.46999997139
11
748587.700973968
21
8930186.45049614
31
180.003175201416
39
0.0
210
0.0
220
0.0
230
1.0
0
TEXT
5
1D1
330
1A
100
AcDbEntity
67
0
8
Number
62
40
420
16760832
6
ByLayer
370
-1
48
1.0
60
0
100
AcDbText
1
44
10
748585.47000001
20
8930185.09600038
30
190.46999997139
40
0.3
41
1.0
50
0.0
51
0.0
7
Standard
11
748585.47000001
21
8930185.09600038
31
190.46999997139
210
0.0
220
0.0
230
1.0
72
0
100
AcDbText
73
0
0
TEXT
5
1D2
330
1A
100
AcDbEntity
67
0
8
label
62
1
420
16711680
6
ByLayer
370
-1
48
1.0
60
0
100
AcDbText
1

10
748585.47000001
20
8930185.49600038
30
190.46999997139
40
0.3
41
1.0
50
0.0
51
0.0
7
Standard
11
748585.47000001
21
8930185.49600038
31
190.46999997139
210
0.0
220
0.0
230
1.0
72
0
100
AcDbText
73
0
0
TEXT
5
1D3
330
1A
100
AcDbEntity
67
0
8
Length
62
40
420
16760832
6
ByLayer
370
-1
48
1.0
60
0
100
AcDbText
1
10.83
10
748585.47000001
20
8930184.08600038
30
190.46999997139
40
0.3
41
1.0
50
0.0
51
0.0
7
Standard
11
748585.47000001
21
8930184.08600038
31
190.46999997139
210
0.0
220
0.0
230
1.0
72
0
100
AcDbText
73
0
0
POLYLINE
5
1E1
330
1A
100
AcDbEntity
67
0
8
Real Hole
62
1
420
16711680
6
ByLayer
370
-1
48
1.0
60
0
100
AcDb3dPolyline
10
0.0
20
0.0
30
0.0
70
8
75
0
210
0.0
220
0.0
230
1.0
0
VERTEX
5
1D4
100
AcDbEntity
8
Real Hole
62
1
420
16711680
100
AcDbVertex
100
AcDb3dPolylineVertex
10
748585.47000001
20
8930184.79000038
30
190.46999997139
70
32
0
VERTEX
5
1D5
100
AcDbEntity
8
Real Hole
62
1
420
16711680
100
AcDbVertex
100
AcDb3dPolylineVertex
10
748585.722797375
20
8930184.87561674
30
189.506276311874
70
32
0
VERTEX
5
1D6
100
AcDbEntity
8
Real Hole
62
1
420
16711680
100
AcDbVertex
100
AcDb3dPolylineVertex
10
748585.973218303
20
8930184.95717678
30
188.541580858231
70
32
0
VERTEX
5
1D7
100
AcDbEntity
8
Real Hole
62
1
420
16711680
100
AcDbVertex
100
AcDb3dPolylineVertex
10
748586.221956413
20
8930184.98428624
30
187.573389472961
70
32
0
VERTEX
5
1D8
100
AcDbEntity
8
Real Hole
62
1
420
16711680
100
AcDbVertex
100
AcDb3dPolylineVertex
10
748586.476354938
20
8930185.08639911
30
186.611695947647
70
32
0
VERTEX
5
1D9
100
AcDbEntity
8
Real Hole
62
1
420
16711680
100
AcDbVertex
100
AcDb3dPolylineVertex
10
748586.740092378
20
8930185.14308393
30
185.648768606186
70
32
0
VERTEX
5
1DA
100
AcDbEntity
8
Real Hole
62
1
420
16711680
100
AcDbVertex
100
AcDb3dPolylineVertex
10
748586.970270853
20
8930185.18945426
30
184.676725568771
70
32
0
VERTEX
5
1DB
100
AcDbEntity
8
Real Hole
62
1
420
16711680
100
AcDbVertex
100
AcDb3dPolylineVertex
10
748587.231216888
20
8930185.26172292
30
183.714080991745
70
32
0
VERTEX
5
1DC
100
AcDbEntity
8
Real Hole
62
1
420
16711680
100
AcDbVertex
100
AcDb3dPolylineVertex
10
748587.504513483
20
8930185.33194447
30
182.754717531204
70
32
0
VERTEX
5
1DD
100
AcDbEntity
8
Real Hole
62
1
420
16711680
100
AcDbVertex
100
AcDb3dPolylineVertex
10
748587.7749121
20
8930185.4090206
30
181.795059862137
70
32
0
VERTEX
5
1DE
100
AcDbEntity
8
Real Hole
62
1
420
16711680
100
AcDbVertex
100
AcDb3dPolylineVertex
10
748588.037754517
20
8930185.49584556
30
180.834135713577
70
32
0
VERTEX
5
1DF
100
AcDbEntity
8
Real Hole
62
1
420
16711680
100
AcDbVertex
100
AcDb3dPolylineVertex
10
748588.202938538
20
8930185.58187169
30
180.159366312027
70
32
0
SEQEND
5
1E0
100
AcDbEntity
8
Real Hole
0
POINT
5
1E2
330
1A
100
AcDbEntity
67
0
8
Hole
62
40
420
16760832
6
ByLayer
370
-1
48
1.0
60
0
100
AcDbPoint
10
748584.749999981
20
8930185.74999947
30
190.430000009537
39
0.0
210
0.0
220
0.0
230
1.0
50
360.0
0
LINE
5
1E3
330
1A
100
AcDbEntity
67
0
8
Theoretical Hole
62
40
420
16760832
6
ByLayer
370
-1
48
1.0
60
0
100
AcDbLine
10
748584.749999981
20
8930185.74999947
30
190.430000009537
11
748586.99630497
21
8930187.45133347
31
179.993731918335
39
0.0
210
0.0
220
0.0
230
1.0
0
TEXT
5
1E4
330
1A
100
AcDbEntity
67
0
8
Number
62
40
420
16760832
6
ByLayer
370
-1
48
1.0
60
0
100
AcDbText
1
45
10
748584.749999981
20
8930186.05599946
30
190.430000009537
40
0.3
41
1.0
50
0.0
51
0.0
7
Standard
11
748584.749999981
21
8930186.05599946
31
190.430000009537
210
0.0
220
0.0
230
1.0
72
0
100
AcDbText
73
0
0
TEXT
5
1E5
330
1A
100
AcDbEntity
67
0
8
label
62
1
420
16711680
6
ByLayer
370
-1
48
1.0
60
0
100
AcDbText
1

10
748584.749999981
20
8930186.45599946
30
190.430000009537
40
0.3
41
1.0
50
0.0
51
0.0
7
Standard
11
748584.749999981
21
8930186.45599946
31
190.430000009537
210
0.0
220
0.0
230
1.0
72
0
100
AcDbText
73
0
0
TEXT
5
1E6
330
1A
100
AcDbEntity
67
0
8
Length
62
40
420
16760832
6
ByLayer
370
-1
48
1.0
60
0
100
AcDbText
1
10.81
10
748584.749999981
20
8930185.04599947
30
190.430000009537
40
0.3
41
1.0
50
0.0
51
0.0
7
Standard
11
748584.749999981
21
8930185.04599947
31
190.430000009537
210
0.0
220
0.0
230
1.0
72
0
100
AcDbText
73
0
0
POLYLINE
5
1F4
330
1A
100
AcDbEntity
67
0
8
Real Hole
62
1
420
16711680
6
ByLayer
370
-1
48
1.0
60
0
100
AcDb3dPolyline
10
0.0
20
0.0
30
0.0
70
8
75
0
210
0.0
220
0.0
230
1.0
0
VERTEX
5
1E7
100
AcDbEntity
8
Real Hole
62
1
420
16711680
100
AcDbVertex
100
AcDb3dPolylineVertex
10
748584.749999981
20
8930185.74999947
30
190.430000009537
70
32
0
VERTEX
5
1E8
100
AcDbEntity
8
Real Hole
62
1
420
16711680
100
AcDbVertex
100
AcDb3dPolylineVertex
10
748585.022812169
20
8930185.84746557
30
189.472882511616
70
32
0
VERTEX
5
1E9
100
AcDbEntity
8
Real Hole
62
1
420
16711680
100
AcDbVertex
100
AcDb3dPolylineVertex
10
748585.281954508
20
8930185.96572744
30
188.51431101799
70
32
0
VERTEX
5
1EA
100
AcDbEntity
8
Real Hole
62
1
420
16711680
100
AcDbVertex
100
AcDb3dPolylineVertex
10
748585.551753621
20
8930186.04780156
30
187.554898443222
70
32
0
VERTEX
5
1EB
100
AcDbEntity
8
Real Hole
62
1
420
16711680
100
AcDbVertex
100
AcDb3dPolylineVertex
10
748585.788860302
20
8930186.17750609
30
186.592112483978
70
32
0
VERTEX
5
1EC
100
AcDbEntity
8
Real Hole
62
1
420
16711680
100
AcDbVertex
100
AcDb3dPolylineVertex
10
748586.044866781
20
8930186.25817549
30
185.628809156418
70
32
0
VERTEX
5
1ED
100
AcDbEntity
8
Real Hole
62
1
420
16711680
100
AcDbVertex
100
AcDb3dPolylineVertex
10
748586.314795475
20
8930186.33506674
30
184.669003667831
70
32
0
VERTEX
5
1EE
100
AcDbEntity
8
Real Hole
62
1
420
16711680
100
AcDbVertex
100
AcDb3dPolylineVertex
10
748586.532890539
20
8930186.47411567
30
183.703032674789
70
32
0
VERTEX
5
1EF
100
AcDbEntity
8
Real Hole
62
1
420
16711680
100
AcDbVertex
100
AcDb3dPolylineVertex
10
748586.769393902
20
8930186.54823131
30
182.734233083725
70
32
0
VERTEX
5
1F0
100
AcDbEntity
8
Real Hole
62
1
420
16711680
100
AcDbVertex
100
AcDb3dPolylineVertex
10
748587.00374649
20
8930186.61476737
30
181.764361085892
70
32
0
VERTEX
5
1F1
100
AcDbEntity
8
Real Hole
62
1
420
16711680
100
AcDbVertex
100
AcDb3dPolylineVertex
10
748587.233515005
20
8930186.68716902
30
180.793812456131
70
32
0
VERTEX
5
1F2
100
AcDbEntity
8
Real Hole
62
1
420
16711680
100
AcDbVertex
100
AcDb3dPolylineVertex
10
748587.348917465
20
8930186.72994924
30
180.309197130203
70
32
0
SEQEND
5
1F3
100
AcDbEntity
8
Real Hole
0
POINT
5
1F5
330
1A
100
AcDbEntity
67
0
8
Hole
62
40
420
16760832
6
ByLayer
370
-1
48
1.0
60
0
100
AcDbPoint
10
748584.029999952
20
8930186.71000046
30
190.310000004768
39
0.0
210
0.0
220
0.0
230
1.0
50
360.0
0
LINE
5
1F6
330
1A
100
AcDbEntity
67
0
8
Theoretical Hole
62
40
420
16760832
6
ByLayer
370
-1
48
1.0
60
0
100
AcDbLine
10
748584.029999952
20
8930186.71000046
30
190.310000004768
11
748586.236357908
21
8930188.49476189
31
179.993188323975
39
0.0
210
0.0
220
0.0
230
1.0
0
TEXT
5
1F7
330
1A
100
AcDbEntity
67
0
8
Number
62
40
420
16760832
6
ByLayer
370
-1
48
1.0
60
0
100
AcDbText
1
46
10
748584.029999952
20
8930187.01600045
30
190.310000004768
40
0.3
41
1.0
50
0.0
51
0.0
7
Standard
11
748584.029999952
21
8930187.01600045
31
190.310000004768
210
0.0
220
0.0
230
1.0
72
0
100
AcDbText
73
0
0
TEXT
5
1F8
330
1A
100
AcDbEntity
67
0
8
label
62
1
420
16711680
6
ByLayer
370
-1
48
1.0
60
0
100
AcDbText
1

10
748584.029999952
20
8930187.41600045
30
190.310000004768
40
0.3
41
1.0
50
0.0
51
0.0
7
Standard
11
748584.029999952
21
8930187.41600045
31
190.310000004768
210
0.0
220
0.0
230
1.0
72
0
100
AcDbText
73
0
0
TEXT
5
1F9
330
1A
100
AcDbEntity
67
0
8
Length
62
40
420
16760832
6
ByLayer
370
-1
48
1.0
60
0
100
AcDbText
1
10.70
10
748584.029999952
20
8930186.00600046
30
190.310000004768
40
0.3
41
1.0
50
0.0
51
0.0
7
Standard
11
748584.029999952
21
8930186.00600046
31
190.310000004768
210
0.0
220
0.0
230
1.0
72
0
100
AcDbText
73
0
0
POLYLINE
5
207
330
1A
100
AcDbEntity
67
0
8
Real Hole
62
1
420
16711680
6
ByLayer
370
-1
48
1.0
60
0
100
AcDb3dPolyline
10
0.0
20
0.0
30
0.0
70
8
75
0
210
0.0
220
0.0
230
1.0
0
VERTEX
5
1FA
100
AcDbEntity
8
Real Hole
62
1
420
16711680
100
AcDbVertex
100
AcDb3dPolylineVertex
10
748584.029999952
20
8930186.71000046
30
190.310000004768
70
32
0
VERTEX
5
1FB
100
AcDbEntity
8
Real Hole
62
1
420
16711680
100
AcDbVertex
100
AcDb3dPolylineVertex
10
748584.263278227
20
8930186.86056866
30
189.349317731857
70
32
0
VERTEX
5
1FC
100
AcDbEntity
8
Real Hole
62
1
420
16711680
100
AcDbVertex
100
AcDb3dPolylineVertex
10
748584.526195656
20
8930186.99222788
30
188.393524708748
70
32
0
VERTEX
5
1FD
100
AcDbEntity
8
Real Hole
62
1
420
16711680
100
AcDbVertex
100
AcDb3dPolylineVertex
10
748584.810071986
20
8930187.10830692
30
187.441716017723
70
32
0
VERTEX
5
1FE
100
AcDbEntity
8
Real Hole
62
1
420
16711680
100
AcDbVertex
100
AcDb3dPolylineVertex
10
748585.061107616
20
8930187.24918151
30
186.484044137001
70
32
0
VERTEX
5
1FF
100
AcDbEntity
8
Real Hole
62
1
420
16711680
100
AcDbVertex
100
AcDb3dPolylineVertex
10
748585.267409067
20
8930187.38500571
30
185.515028538704
70
32
0
VERTEX
5
200
100
AcDbEntity
8
Real Hole
62
1
420
16711680
100
AcDbVertex
100
AcDb3dPolylineVertex
10
748585.52795754
20
8930187.48890132
30
184.55517393589
70
32
0
VERTEX
5
201
100
AcDbEntity
8
Real Hole
62
1
420
16711680
100
AcDbVertex
100
AcDb3dPolylineVertex
10
748585.760585647
20
8930187.62713564
30
183.592482151985
70
32
0
VERTEX
5
202
100
AcDbEntity
8
Real Hole
62
1
420
16711680
100
AcDbVertex
100
AcDb3dPolylineVertex
10
748585.966577272
20
8930187.73805076
30
182.62023455143
70
32
0
VERTEX
5
203
100
AcDbEntity
8
Real Hole
62
1
420
16711680
100
AcDbVertex
100
AcDb3dPolylineVertex
10
748586.194467287
20
8930187.87633783
30
181.656418385506
70
32
0
VERTEX
5
204
100
AcDbEntity
8
Real Hole
62
1
420
16711680
100
AcDbVertex
100
AcDb3dPolylineVertex
10
748586.397302132
20
8930188.03710264
30
180.690492215157
70
32
0
VERTEX
5
205
100
AcDbEntity
8
Real Hole
62
1
420
16711680
100
AcDbVertex
100
AcDb3dPolylineVertex
10
748586.457513313
20
8930188.0831042
30
180.400218548775
70
32
0
SEQEND
5
206
100
AcDbEntity
8
Real Hole
0
POINT
5
208
330
1A
100
AcDbEntity
67
0
8
Hole
62
40
420
16760832
6
ByLayer
370
-1
48
1.0
60
0
100
AcDbPoint
10
748583.270000021
20
8930187.64000076
30
190.139999988079
39
0.0
210
0.0
220
0.0
230
1.0
50
360.0
0
LINE
5
209
330
1A
100
AcDbEntity
67
0
8
Theoretical Hole
62
40
420
16760832
6
ByLayer
370
-1
48
1.0
60
0
100
AcDbLine
10
748583.270000021
20
8930187.64000076
30
190.139999988079
11
748585.413598518
21
8930189.51459831
31
180.002358856201
39
0.0
210
0.0
220
0.0
230
1.0
0
TEXT
5
20A
330
1A
100
AcDbEntity
67
0
8
Number
62
40
420
16760832
6
ByLayer
370
-1
48
1.0
60
0
100
AcDbText
1
47
10
748583.270000021
20
8930187.94600076
30
190.139999988079
40
0.3
41
1.0
50
0.0
51
0.0
7
Standard
11
748583.270000021
21
8930187.94600076
31
190.139999988079
210
0.0
220
0.0
230
1.0
72
0
100
AcDbText
73
0
0
TEXT
5
20B
330
1A
100
AcDbEntity
67
0
8
label
62
1
420
16711680
6
ByLayer
370
-1
48
1.0
60
0
100
AcDbText
1

10
748583.270000021
20
8930188.34600076
30
190.139999988079
40
0.3
41
1.0
50
0.0
51
0.0
7
Standard
11
748583.270000021
21
8930188.34600076
31
190.139999988079
210
0.0
220
0.0
230
1.0
72
0
100
AcDbText
73
0
0
TEXT
5
20C
330
1A
100
AcDbEntity
67
0
8
Length
62
40
420
16760832
6
ByLayer
370
-1
48
1.0
60
0
100
AcDbText
1
10.53
10
748583.270000021
20
8930186.93600077
30
190.139999988079
40
0.3
41
1.0
50
0.0
51
0.0
7
Standard
11
748583.270000021
21
8930186.93600077
31
190.139999988079
210
0.0
220
0.0
230
1.0
72
0
100
AcDbText
73
0
0
POLYLINE
5
219
330
1A
100
AcDbEntity
67
0
8
Real Hole
62
1
420
16711680
6
ByLayer
370
-1
48
1.0
60
0
100
AcDb3dPolyline
10
0.0
20
0.0
30
0.0
70
8
75
0
210
0.0
220
0.0
230
1.0
0
VERTEX
5
20D
100
AcDbEntity
8
Real Hole
62
1
420
16711680
100
AcDbVertex
100
AcDb3dPolylineVertex
10
748583.270000021
20
8930187.64000076
30
190.139999988079
70
32
0
VERTEX
5
20E
100
AcDbEntity
8
Real Hole
62
1
420
16711680
100
AcDbVertex
100
AcDb3dPolylineVertex
10
748583.586795818
20
8930187.79382855
30
189.204063358307
70
32
0
VERTEX
5
20F
100
AcDbEntity
8
Real Hole
62
1
420
16711680
100
AcDbVertex
100
AcDb3dPolylineVertex
10
748583.940801601
20
8930187.90551409
30
188.275512697697
70
32
0
VERTEX
5
210
100
AcDbEntity
8
Real Hole
62
1
420
16711680
100
AcDbVertex
100
AcDb3dPolylineVertex
10
748584.271664541
20
8930188.06652945
30
187.34567201376
70
32
0
VERTEX
5
211
100
AcDbEntity
8
Real Hole
62
1
420
16711680
100
AcDbVertex
100
AcDb3dPolylineVertex
10
748584.609054248
20
8930188.15668035
30
186.408633592129
70
32
0
VERTEX
5
212
100
AcDbEntity
8
Real Hole
62
1
420
16711680
100
AcDbVertex
100
AcDb3dPolylineVertex
10
748584.929682891
20
8930188.29132849
30
185.471047999859
70
32
0
VERTEX
5
213
100
AcDbEntity
8
Real Hole
62
1
420
16711680
100
AcDbVertex
100
AcDb3dPolylineVertex
10
748585.221347373
20
8930188.42406333
30
184.523781421185
70
32
0
VERTEX
5
214
100
AcDbEntity
8
Real Hole
62
1
420
16711680
100
AcDbVertex
100
AcDb3dPolylineVertex
10
748585.525950472
20
8930188.52033812
30
183.576180102825
70
32
0
VERTEX
5
215
100
AcDbEntity
8
Real Hole
62
1
420
16711680
100
AcDbVertex
100
AcDb3dPolylineVertex
10
748585.883966486
20
8930188.61466271
30
182.647241237164
70
32
0
VERTEX
5
216
100
AcDbEntity
8
Real Hole
62
1
420
16711680
100
AcDbVertex
100
AcDb3dPolylineVertex
10
748586.19016103
20
8930188.74551851
30
181.704309108257
70
32
0
VERTEX
5
217
100
AcDbEntity
8
Real Hole
62
1
420
16711680
100
AcDbVertex
100
AcDb3dPolylineVertex
10
748586.545268099
20
8930188.86682195
30
180.777387263775
70
32
0
SEQEND
5
218
100
AcDbEntity
8
Real Hole
0
POINT
5
21A
330
1A
100
AcDbEntity
67
0
8
Hole
62
40
420
16760832
6
ByLayer
370
-1
48
1.0
60
0
100
AcDbPoint
10
748582.48
20
8930188.55000061
30
189.94
39
0.0
210
0.0
220
0.0
230
1.0
50
360.0
0
LINE
5
21B
330
1A
100
AcDbEntity
67
0
8
Theoretical Hole
62
40
420
16760832
6
ByLayer
370
-1
48
1.0
60
0
100
AcDbLine
10
748582.48
20
8930188.55000061
30
189.94
11
748584.606184463
21
8930190.40936798
31
180.024446907043
39
0.0
210
0.0
220
0.0
230
1.0
0
TEXT
5
21C
330
1A
100
AcDbEntity
67
0
8
Number
62
40
420
16760832
6
ByLayer
370
-1
48
1.0
60
0
100
AcDbText
1
48
10
748582.48
20
8930188.8560006
30
189.94
40
0.3
41
1.0
50
0.0
51
0.0
7
Standard
11
748582.48
21
8930188.8560006
31
189.94
210
0.0
220
0.0
230
1.0
72
0
100
AcDbText
73
0
0
TEXT
5
21D
330
1A
100
AcDbEntity
67
0
8
label
62
1
420
16711680
6
ByLayer
370
-1
48
1.0
60
0
100
AcDbText
1

10
748582.48
20
8930189.2560006
30
189.94
40
0.3
41
1.0
50
0.0
51
0.0
7
Standard
11
748582.48
21
8930189.2560006
31
189.94
210
0.0
220
0.0
230
1.0
72
0
100
AcDbText
73
0
0
TEXT
5
21E
330
1A
100
AcDbEntity
67
0
8
Length
62
40
420
16760832
6
ByLayer
370
-1
48
1.0
60
0
100
AcDbText
1
10.31
10
748582.48
20
8930187.84600061
30
189.94
40
0.3
41
1.0
50
0.0
51
0.0
7
Standard
11
748582.48
21
8930187.84600061
31
189.94
210
0.0
220
0.0
230
1.0
72
0
100
AcDbText
73
0
0
POLYLINE
5
22C
330
1A
100
AcDbEntity
67
0
8
Real Hole
62
1
420
16711680
6
ByLayer
370
-1
48
1.0
60
0
100
AcDb3dPolyline
10
0.0
20
0.0
30
0.0
70
8
75
0
210
0.0
220
0.0
230
1.0
0
VERTEX
5
21F
100
AcDbEntity
8
Real Hole
62
1
420
16711680
100
AcDbVertex
100
AcDb3dPolylineVertex
10
748582.48
20
8930188.55000061
30
189.94
70
32
0
VERTEX
5
220
100
AcDbEntity
8
Real Hole
62
1
420
16711680
100
AcDbVertex
100
AcDb3dPolylineVertex
10
748582.730790685
20
8930188.7518578
30
188.993238332272
70
32
0
VERTEX
5
221
100
AcDbEntity
8
Real Hole
62
1
420
16711680
100
AcDbVertex
100
AcDb3dPolylineVertex
10
748583.021127741
20
8930188.92151711
30
188.051473917961
70
32
0
VERTEX
5
222
100
AcDbEntity
8
Real Hole
62
1
420
16711680
100
AcDbVertex
100
AcDb3dPolylineVertex
10
748583.34498481
20
8930189.07342965
30
187.117643537521
70
32
0
VERTEX
5
223
100
AcDbEntity
8
Real Hole
62
1
420
16711680
100
AcDbVertex
100
AcDb3dPolylineVertex
10
748583.637947063
20
8930189.27727133
30
186.183501424789
70
32
0
VERTEX
5
224
100
AcDbEntity
8
Real Hole
62
1
420
16711680
100
AcDbVertex
100
AcDb3dPolylineVertex
10
748583.925956826
20
8930189.50261319
30
185.252764167786
70
32
0
VERTEX
5
225
100
AcDbEntity
8
Real Hole
62
1
420
16711680
100
AcDbVertex
100
AcDb3dPolylineVertex
10
748584.225663166
20
8930189.67704636
30
184.314814987183
70
32
0
VERTEX
5
226
100
AcDbEntity
8
Real Hole
62
1
420
16711680
100
AcDbVertex
100
AcDb3dPolylineVertex
10
748584.543381195
20
8930189.84562463
30
183.381735744476
70
32
0
VERTEX
5
227
100
AcDbEntity
8
Real Hole
62
1
420
16711680
100
AcDbVertex
100
AcDb3dPolylineVertex
10
748584.860436182
20
8930190.03961176
30
182.453379573822
70
32
0
VERTEX
5
228
100
AcDbEntity
8
Real Hole
62
1
420
16711680
100
AcDbVertex
100
AcDb3dPolylineVertex
10
748585.192952614
20
8930190.24449736
30
181.532806816101
70
32
0
VERTEX
5
229
100
AcDbEntity
8
Real Hole
62
1
420
16711680
100
AcDbVertex
100
AcDb3dPolylineVertex
10
748585.521409731
20
8930190.42157525
30
180.605035247803
70
32
0
VERTEX
5
22A
100
AcDbEntity
8
Real Hole
62
1
420
16711680
100
AcDbVertex
100
AcDb3dPolylineVertex
10
748585.642841797
20
8930190.49601811
30
180.231254043579
70
32
0
SEQEND
5
22B
100
AcDbEntity
8
Real Hole
0
VIEWPORT
5
231
330
22D
100
AcDbEntity
67
1
8
0
62
256
6
ByLayer
370
-1
48
1.0
60
0
100
AcDbViewport
10
0.0
20
0.0
30
0.0
40
297.0
41
210.0
68
1
69
1
12
50.0
22
100.0
13
0.0
23
0.0
14
10.0
24
10.0
15
10.0
25
10.0
16
0.0
26
0.0
36
1.0
17
0.0
27
0.0
37
0.0
42
50.0
43
0.0
44
0.0
45
250.0
50
0.0
51
0.0
72
1000
90
819232
110
0.0
120
0.0
130
0.0
111
1.0
121
0.0
131
0.0
112
0.0
122
1.0
132
0.0
0
ENDSEC
0
SECTION
2
OBJECTS
0
DICTIONARY
5
236
330
0
100
AcDbDictionary
280
0
281
1
3
ACAD_GROUP
350
237
3
ACAD_LAYOUT
350
238
3
ACAD_MLINESTYLE
350
23C
0
DICTIONARY
5
237
330
236
100
AcDbDictionary
280
0
281
1
0
DICTIONARY
5
238
330
236
100
AcDbDictionary
280
0
281
1
3
Model
350
1E
3
Layout1
350
232
0
DICTIONARY
5
23C
330
236
100
AcDbDictionary
280
0
281
1
3
Standard
350
19
0
LAYOUT
5
1E
330
238
100
AcDbPlotSettings
1

2
none_device
4
ISO_A4_(210.00_x_297.00_MM)
6

40
7.5
41
20.0
42
7.5
43
20.0
44
210.0
45
297.0
46
0.0
47
0.0
48
0.0
49
0.0
140
0.0
141
0.0
142
1.0
143
1.0
70
11952
72
1
73
1
74
5
7

75
16
147
1.0
148
0.0
149
0.0
100
AcDbLayout
1
Model
70
1
71
0
10
-20.0
20
-7.5
11
277.0
21
202.5
12
0.0
22
0.0
32
0.0
14
25.7
24
19.5
34
0.0
15
231.3
25
175.5
35
0.0
146
0.0
13
0.0
23
0.0
33
0.0
16
1.0
26
0.0
36
0.0
17
0.0
27
1.0
37
0.0
76
0
330
1A
0
LAYOUT
5
232
330
238
100
AcDbPlotSettings
1

2
none_device
4
ISO_A4_(210.00_x_297.00_MM)
6

40
7.5
41
20.0
42
7.5
43
20.0
44
210.0
45
297.0
46
0.0
47
0.0
48
0.0
49
0.0
140
0.0
141
0.0
142
1.0
143
1.0
70
688
72
1
73
1
74
5
7

75
16
147
1.0
148
0.0
149
0.0
100
AcDbLayout
1
Layout1
70
1
71
1
10
-20.0
20
-7.5
11
277.0
21
202.5
12
0.0
22
0.0
32
0.0
14
25.7
24
19.5
34
0.0
15
231.3
25
175.5
35
0.0
146
0.0
13
0.0
23
0.0
33
0.0
16
1.0
26
0.0
36
0.0
17
0.0
27
1.0
37
0.0
76
0
330
22D
0
MLINESTYLE
5
19
330
23C
100
AcDbMlineStyle
2
Standard
70
0
3

62
256
51
90.0
52
90.0
71
2
49
-0.5
62
256
6
ByLayer
49
0.5
62
256
6
ByLayer
0
ENDSEC
0
EOF
