999
Dxf file generated by netDxf https://netdxf.codeplex.com, Copyright(C) 2015 Daniel Carvajal, Licensed under LGPL
0
SECTION
2
HEADER
9
$ACADVER
1
AC1015
9
$DWGCODEPAGE
3
ANSI_1252
9
$HANDSEED
5
126
9
$ANGBASE
50
0.0
9
$ANGDIR
70
0
9
$ATTMODE
70
1
9
$AUNITS
70
0
9
$AUPREC
70
0
9
$CECOLOR
62
256
9
$CELTSCALE
40
1.0
9
$CELTYPE
6
ByLayer
9
$CELWEIGHT
370
-1
9
$CLAYER
8
0
9
$CMLJUST
70
0
9
$CMLSCALE
40
20.0
9
$CMLSTYLE
2
Standard
9
$DIMSTYLE
2
Standard
9
$TEXTSIZE
40
2.5
9
$TEXTSTYLE
7
Standard
9
$LUNITS
70
2
9
$LUPREC
70
4
9
$EXTNAMES
290
1
9
$INSBASE
10
0.0
20
0.0
30
0.0
9
$INSUNITS
70
0
9
$LTSCALE
40
1.0
9
$LWDISPLAY
290
0
9
$PDMODE
70
0
9
$PDSIZE
40
0.0
9
$PLINEGEN
70
0
9
$PSLTSCALE
70
1
9
$TDCREATE
40
2461225.43226907
9
$TDUCREATE
40
2461225.55726907
9
$TDUPDATE
40
2461225.43226907
9
$TDUUPDATE
40
2461225.55726907
9
$TDINDWG
40
0.0
9
$DIMADEC
70
0
9
$DIMAUNIT
70
0
9
$DIMASZ
40
0.18
9
$DIMAZIN
70
0
9
$DIMBLK
1

9
$DIMBLK1
1

9
$DIMBLK2
1

9
$DIMLDRBLK
1

9
$DIMCEN
40
0.09
9
$DIMCLRD
70
0
9
$DIMCLRE
70
0
9
$DIMCLRT
70
0
9
$DIMDEC
70
2
9
$DIMDLE
40
0.0
9
$DIMDLI
40
0.38
9
$DIMDSEP
70
46
9
$DIMEXE
40
0.18
9
$DIMEXO
40
0.0625
9
$DIMGAP
40
0.09
9
$DIMJUST
70
0
9
$DIMLFAC
40
1.0
9
$DIMLUNIT
70
2
9
$DIMLWD
70
-2
9
$DIMLWE
70
-2
9
$DIMPOST
1
<>
9
$DIMRND
40
0.0
9
$DIMSAH
70
0
9
$DIMSCALE
40
1.0
9
$DIMSE1
70
0
9
$DIMSE2
70
0
9
$DIMTAD
70
1
9
$DIMTIH
70
0
9
$DIMTOH
70
0
9
$DIMTXT
40
0.18
9
$DIMZIN
70
0
9
$DIMFRAC
70
0
9
$DIMLTYPE
6
ByBlock
9
$DIMLTEX1
6
ByBlock
9
$DIMLTEX2
6
ByBlock
0
ENDSEC
0
SECTION
2
CLASSES
0
CLASS
1
RASTERVARIABLES
2
AcDbRasterVariables
3
ISM
90
0
280
0
281
0
0
ENDSEC
0
SECTION
2
TABLES
0
TABLE
2
APPID
5
4
330
0
100
AcDbSymbolTable
70
4
0
APPID
5
17
330
4
100
AcDbSymbolTableRecord
100
AcDbRegAppTableRecord
2
ACAD
70
0
0
APPID
5
11B
330
4
100
AcDbSymbolTableRecord
100
AcDbRegAppTableRecord
2
AcCmTransparency
70
0
0
APPID
5
11C
330
4
100
AcDbSymbolTableRecord
100
AcDbRegAppTableRecord
2
GradientColor1ACI
70
0
0
APPID
5
11D
330
4
100
AcDbSymbolTableRecord
100
AcDbRegAppTableRecord
2
GradientColor2ACI
70
0
0
ENDTAB
0
TABLE
2
VPORT
5
1
330
0
100
AcDbSymbolTable
70
1
0
VPORT
5
2
330
1
100
AcDbSymbolTableRecord
100
AcDbViewportTableRecord
2
*Active
70
0
10
0.0
20
0.0
11
1.0
21
1.0
12
0.0
22
0.0
13
0.0
23
0.0
14
0.5
24
0.5
15
10.0
25
10.0
16
0.0
26
0.0
36
1.0
17
0.0
27
0.0
37
0.0
40
10.0
41
1.0
75
0
76
1
0
ENDTAB
0
TABLE
2
LTYPE
5
6
330
0
100
AcDbSymbolTable
70
3
0
LTYPE
5
13
330
6
100
AcDbSymbolTableRecord
100
AcDbLinetypeTableRecord
70
0
2
Continuous
3
Solid line
72
65
73
0
40
0.0
0
LTYPE
5
14
330
6
100
AcDbSymbolTableRecord
100
AcDbLinetypeTableRecord
70
0
2
ByLayer
3

72
65
73
0
40
0.0
0
LTYPE
5
15
330
6
100
AcDbSymbolTableRecord
100
AcDbLinetypeTableRecord
70
0
2
ByBlock
3

72
65
73
0
40
0.0
0
ENDTAB
0
TABLE
2
LAYER
5
5
330
0
100
AcDbSymbolTable
70
6
0
LAYER
5
12
330
5
100
AcDbSymbolTableRecord
100
AcDbLayerTableRecord
2
0
70
0
62
7
6
Continuous
290
1
370
-3
390
0
0
LAYER
5
21
330
5
100
AcDbSymbolTableRecord
100
AcDbLayerTableRecord
2
Hole
70
0
62
7
6
Continuous
290
1
370
-3
390
0
0
LAYER
5
23
330
5
100
AcDbSymbolTableRecord
100
AcDbLayerTableRecord
2
Theoretical Hole
70
0
62
7
6
Continuous
290
1
370
-3
390
0
0
LAYER
5
25
330
5
100
AcDbSymbolTableRecord
100
AcDbLayerTableRecord
2
Number
70
0
62
7
6
Continuous
290
1
370
-3
390
0
0
LAYER
5
27
330
5
100
AcDbSymbolTableRecord
100
AcDbLayerTableRecord
2
label
70
0
62
7
6
Continuous
290
1
370
-3
390
0
0
LAYER
5
29
330
5
100
AcDbSymbolTableRecord
100
AcDbLayerTableRecord
2
Length
70
0
62
7
6
Continuous
290
1
370
-3
390
0
0
ENDTAB
0
TABLE
2
STYLE
5
7
330
0
100
AcDbSymbolTable
70
1
0
STYLE
5
16
330
7
100
AcDbSymbolTableRecord
100
AcDbTextStyleTableRecord
2
Standard
3
simplex.shx
70
0
71
0
40
0.0
41
1.0
42
0.0
50
0.0
0
ENDTAB
0
TABLE
2
DIMSTYLE
5
8
330
0
100
AcDbSymbolTable
70
1
100
AcDbDimStyleTable
0
DIMSTYLE
105
18
330
8
100
AcDbSymbolTableRecord
100
AcDbDimStyleTableRecord
2
Standard
70
0
3
<>
40
1.0
41
0.18
42
0.0625
43
0.38
44
0.18
45
0.0
46
0.0
73
0
74
0
75
0
76
0
77
1
78
0
79
0
140
0.18
141
0.09
144
1.0
147
0.09
173
0
176
0
177
0
178
0
179
0
271
2
275
0
276
0
277
2
278
46
280
0
340
16
345
15
346
15
347
15
371
-2
372
-2
0
ENDTAB
0
TABLE
2
VIEW
5
3
330
0
100
AcDbSymbolTable
70
0
0
ENDTAB
0
TABLE
2
UCS
5
A
330
0
100
AcDbSymbolTable
70
0
0
ENDTAB
0
TABLE
2
BLOCK_RECORD
5
B
330
0
100
AcDbSymbolTable
70
2
0
BLOCK_RECORD
5
1A
330
B
100
AcDbSymbolTableRecord
100
AcDbBlockTableRecord
2
*Model_Space
340
1E
0
BLOCK_RECORD
5
115
330
B
100
AcDbSymbolTableRecord
100
AcDbBlockTableRecord
2
*Paper_Space
340
11A
0
ENDTAB
0
ENDSEC
0
SECTION
2
BLOCKS
0
BLOCK
5
1C
330
1A
100
AcDbEntity
8
0
100
AcDbBlockBegin
2
*Model_Space
70
0
10
0.0
20
0.0
30
0.0
3
*Model_Space
0
ENDBLK
5
1B
330
1A
100
AcDbEntity
8
0
100
AcDbBlockEnd
0
BLOCK
5
117
330
115
100
AcDbEntity
8
0
100
AcDbBlockBegin
2
*Paper_Space
70
0
10
0.0
20
0.0
30
0.0
3
*Paper_Space
0
ENDBLK
5
116
330
115
100
AcDbEntity
8
0
100
AcDbBlockEnd
0
ENDSEC
0
SECTION
2
ENTITIES
0
POINT
5
20
330
1A
100
AcDbEntity
67
0
8
Hole
62
40
420
16760832
6
ByLayer
370
-1
48
1.0
60
0
100
AcDbPoint
10
748628.11999939
20
8930161.25
30
190.680000009537
39
0.0
210
0.0
220
0.0
230
1.0
50
360.0
0
LINE
5
22
330
1A
100
AcDbEntity
67
0
8
Theoretical Hole
62
40
420
16760832
6
ByLayer
370
-1
48
1.0
60
0
100
AcDbLine
10
748628.11999939
20
8930161.25
30
190.680000009537
11
748628.034012299
21
8930163.84210652
31
180.00040763855
39
0.0
210
0.0
220
0.0
230
1.0
0
TEXT
5
24
330
1A
100
AcDbEntity
67
0
8
Number
62
40
420
16760832
6
ByLayer
370
-1
48
1.0
60
0
100
AcDbText
1
1
10
748628.11999939
20
8930161.55599999
30
190.680000009537
40
0.3
41
1.0
50
0.0
51
0.0
7
Standard
11
748628.11999939
21
8930161.55599999
31
190.680000009537
210
0.0
220
0.0
230
1.0
72
0
100
AcDbText
73
0
0
TEXT
5
26
330
1A
100
AcDbEntity
67
0
8
label
62
1
420
16711680
6
ByLayer
370
-1
48
1.0
60
0
100
AcDbText
1

10
748628.11999939
20
8930161.95599999
30
190.680000009537
40
0.3
41
1.0
50
0.0
51
0.0
7
Standard
11
748628.11999939
21
8930161.95599999
31
190.680000009537
210
0.0
220
0.0
230
1.0
72
0
100
AcDbText
73
0
0
TEXT
5
28
330
1A
100
AcDbEntity
67
0
8
Length
62
40
420
16760832
6
ByLayer
370
-1
48
1.0
60
0
100
AcDbText
1
10.99
10
748628.11999939
20
8930160.546
30
190.680000009537
40
0.3
41
1.0
50
0.0
51
0.0
7
Standard
11
748628.11999939
21
8930160.546
31
190.680000009537
210
0.0
220
0.0
230
1.0
72
0
100
AcDbText
73
0
0
POINT
5
2A
330
1A
100
AcDbEntity
67
0
8
Hole
62
40
420
16760832
6
ByLayer
370
-1
48
1.0
60
0
100
AcDbPoint
10
748626.919998627
20
8930161.21
30
190.69
39
0.0
210
0.0
220
0.0
230
1.0
50
360.0
0
LINE
5
2B
330
1A
100
AcDbEntity
67
0
8
Theoretical Hole
62
40
420
16760832
6
ByLayer
370
-1
48
1.0
60
0
100
AcDbLine
10
748626.919998627
20
8930161.21
30
190.69
11
748626.869938354
21
8930163.8171069
31
179.993245544434
39
0.0
210
0.0
220
0.0
230
1.0
0
TEXT
5
2C
330
1A
100
AcDbEntity
67
0
8
Number
62
40
420
16760832
6
ByLayer
370
-1
48
1.0
60
0
100
AcDbText
1
2
10
748626.919998627
20
8930161.51599999
30
190.69
40
0.3
41
1.0
50
0.0
51
0.0
7
Standard
11
748626.919998627
21
8930161.51599999
31
190.69
210
0.0
220
0.0
230
1.0
72
0
100
AcDbText
73
0
0
TEXT
5
2D
330
1A
100
AcDbEntity
67
0
8
label
62
1
420
16711680
6
ByLayer
370
-1
48
1.0
60
0
100
AcDbText
1

10
748626.919998627
20
8930161.91599999
30
190.69
40
0.3
41
1.0
50
0.0
51
0.0
7
Standard
11
748626.919998627
21
8930161.91599999
31
190.69
210
0.0
220
0.0
230
1.0
72
0
100
AcDbText
73
0
0
TEXT
5
2E
330
1A
100
AcDbEntity
67
0
8
Length
62
40
420
16760832
6
ByLayer
370
-1
48
1.0
60
0
100
AcDbText
1
11.01
10
748626.919998627
20
8930160.506
30
190.69
40
0.3
41
1.0
50
0.0
51
0.0
7
Standard
11
748626.919998627
21
8930160.506
31
190.69
210
0.0
220
0.0
230
1.0
72
0
100
AcDbText
73
0
0
POINT
5
2F
330
1A
100
AcDbEntity
67
0
8
Hole
62
40
420
16760832
6
ByLayer
370
-1
48
1.0
60
0
100
AcDbPoint
10
748625.720001678
20
8930161.19
30
190.680000009537
39
0.0
210
0.0
220
0.0
230
1.0
50
360.0
0
LINE
5
30
330
1A
100
AcDbEntity
67
0
8
Theoretical Hole
62
40
420
16760832
6
ByLayer
370
-1
48
1.0
60
0
100
AcDbLine
10
748625.720001678
20
8930161.19
30
190.680000009537
11
748625.777279358
21
8930163.79408497
31
180.003129425049
39
0.0
210
0.0
220
0.0
230
1.0
0
TEXT
5
31
330
1A
100
AcDbEntity
67
0
8
Number
62
40
420
16760832
6
ByLayer
370
-1
48
1.0
60
0
100
AcDbText
1
3
10
748625.720001678
20
8930161.49599999
30
190.680000009537
40
0.3
41
1.0
50
0.0
51
0.0
7
Standard
11
748625.720001678
21
8930161.49599999
31
190.680000009537
210
0.0
220
0.0
230
1.0
72
0
100
AcDbText
73
0
0
TEXT
5
32
330
1A
100
AcDbEntity
67
0
8
label
62
1
420
16711680
6
ByLayer
370
-1
48
1.0
60
0
100
AcDbText
1

10
748625.720001678
20
8930161.89599999
30
190.680000009537
40
0.3
41
1.0
50
0.0
51
0.0
7
Standard
11
748625.720001678
21
8930161.89599999
31
190.680000009537
210
0.0
220
0.0
230
1.0
72
0
100
AcDbText
73
0
0
TEXT
5
33
330
1A
100
AcDbEntity
67
0
8
Length
62
40
420
16760832
6
ByLayer
370
-1
48
1.0
60
0
100
AcDbText
1
10.99
10
748625.720001678
20
8930160.486
30
190.680000009537
40
0.3
41
1.0
50
0.0
51
0.0
7
Standard
11
748625.720001678
21
8930160.486
31
190.680000009537
210
0.0
220
0.0
230
1.0
72
0
100
AcDbText
73
0
0
POINT
5
34
330
1A
100
AcDbEntity
67
0
8
Hole
62
40
420
16760832
6
ByLayer
370
-1
48
1.0
60
0
100
AcDbPoint
10
748624.520000916
20
8930161.22
30
190.649999978542
39
0.0
210
0.0
220
0.0
230
1.0
50
360.0
0
LINE
5
35
330
1A
100
AcDbEntity
67
0
8
Theoretical Hole
62
40
420
16760832
6
ByLayer
370
-1
48
1.0
60
0
100
AcDbLine
10
748624.520000916
20
8930161.22
30
190.649999978542
11
748624.577293854
21
8930163.82492489
31
179.99392074585
39
0.0
210
0.0
220
0.0
230
1.0
0
TEXT
5
36
330
1A
100
AcDbEntity
67
0
8
Number
62
40
420
16760832
6
ByLayer
370
-1
48
1.0
60
0
100
AcDbText
1
4
10
748624.520000916
20
8930161.52599999
30
190.649999978542
40
0.3
41
1.0
50
0.0
51
0.0
7
Standard
11
748624.520000916
21
8930161.52599999
31
190.649999978542
210
0.0
220
0.0
230
1.0
72
0
100
AcDbText
73
0
0
TEXT
5
37
330
1A
100
AcDbEntity
67
0
8
label
62
1
420
16711680
6
ByLayer
370
-1
48
1.0
60
0
100
AcDbText
1

10
748624.520000916
20
8930161.92599999
30
190.649999978542
40
0.3
41
1.0
50
0.0
51
0.0
7
Standard
11
748624.520000916
21
8930161.92599999
31
190.649999978542
210
0.0
220
0.0
230
1.0
72
0
100
AcDbText
73
0
0
TEXT
5
38
330
1A
100
AcDbEntity
67
0
8
Length
62
40
420
16760832
6
ByLayer
370
-1
48
1.0
60
0
100
AcDbText
1
10.97
10
748624.520000916
20
8930160.516
30
190.649999978542
40
0.3
41
1.0
50
0.0
51
0.0
7
Standard
11
748624.520000916
21
8930160.516
31
190.649999978542
210
0.0
220
0.0
230
1.0
72
0
100
AcDbText
73
0
0
POINT
5
39
330
1A
100
AcDbEntity
67
0
8
Hole
62
40
420
16760832
6
ByLayer
370
-1
48
1.0
60
0
100
AcDbPoint
10
748623.320000153
20
8930161.24
30
190.620000007153
39
0.0
210
0.0
220
0.0
230
1.0
50
360.0
0
LINE
5
3A
330
1A
100
AcDbEntity
67
0
8
Theoretical Hole
62
40
420
16760832
6
ByLayer
370
-1
48
1.0
60
0
100
AcDbLine
10
748623.320000153
20
8930161.24
30
190.620000007153
11
748623.454777222
21
8930163.85535616
31
179.998073043823
39
0.0
210
0.0
220
0.0
230
1.0
0
TEXT
5
3B
330
1A
100
AcDbEntity
67
0
8
Number
62
40
420
16760832
6
ByLayer
370
-1
48
1.0
60
0
100
AcDbText
1
5
10
748623.320000153
20
8930161.54599999
30
190.620000007153
40
0.3
41
1.0
50
0.0
51
0.0
7
Standard
11
748623.320000153
21
8930161.54599999
31
190.620000007153
210
0.0
220
0.0
230
1.0
72
0
100
AcDbText
73
0
0
TEXT
5
3C
330
1A
100
AcDbEntity
67
0
8
label
62
1
420
16711680
6
ByLayer
370
-1
48
1.0
60
0
100
AcDbText
1

10
748623.320000153
20
8930161.94599999
30
190.620000007153
40
0.3
41
1.0
50
0.0
51
0.0
7
Standard
11
748623.320000153
21
8930161.94599999
31
190.620000007153
210
0.0
220
0.0
230
1.0
72
0
100
AcDbText
73
0
0
TEXT
5
3D
330
1A
100
AcDbEntity
67
0
8
Length
62
40
420
16760832
6
ByLayer
370
-1
48
1.0
60
0
100
AcDbText
1
10.94
10
748623.320000153
20
8930160.536
30
190.620000007153
40
0.3
41
1.0
50
0.0
51
0.0
7
Standard
11
748623.320000153
21
8930160.536
31
190.620000007153
210
0.0
220
0.0
230
1.0
72
0
100
AcDbText
73
0
0
POINT
5
3E
330
1A
100
AcDbEntity
67
0
8
Hole
62
40
420
16760832
6
ByLayer
370
-1
48
1.0
60
0
100
AcDbPoint
10
748622.11999939
20
8930161.3
30
190.600000026226
39
0.0
210
0.0
220
0.0
230
1.0
50
360.0
0
LINE
5
3F
330
1A
100
AcDbEntity
67
0
8
Theoretical Hole
62
40
420
16760832
6
ByLayer
370
-1
48
1.0
60
0
100
AcDbLine
10
748622.11999939
20
8930161.3
30
190.600000026226
11
748622.291321259
21
8930163.89304799
31
180.004017295837
39
0.0
210
0.0
220
0.0
230
1.0
0
TEXT
5
40
330
1A
100
AcDbEntity
67
0
8
Number
62
40
420
16760832
6
ByLayer
370
-1
48
1.0
60
0
100
AcDbText
1
6
10
748622.11999939
20
8930161.60599999
30
190.600000026226
40
0.3
41
1.0
50
0.0
51
0.0
7
Standard
11
748622.11999939
21
8930161.60599999
31
190.600000026226
210
0.0
220
0.0
230
1.0
72
0
100
AcDbText
73
0
0
TEXT
5
41
330
1A
100
AcDbEntity
67
0
8
label
62
1
420
16711680
6
ByLayer
370
-1
48
1.0
60
0
100
AcDbText
1

10
748622.11999939
20
8930162.00599999
30
190.600000026226
40
0.3
41
1.0
50
0.0
51
0.0
7
Standard
11
748622.11999939
21
8930162.00599999
31
190.600000026226
210
0.0
220
0.0
230
1.0
72
0
100
AcDbText
73
0
0
TEXT
5
42
330
1A
100
AcDbEntity
67
0
8
Length
62
40
420
16760832
6
ByLayer
370
-1
48
1.0
60
0
100
AcDbText
1
10.91
10
748622.11999939
20
8930160.596
30
190.600000026226
40
0.3
41
1.0
50
0.0
51
0.0
7
Standard
11
748622.11999939
21
8930160.596
31
190.600000026226
210
0.0
220
0.0
230
1.0
72
0
100
AcDbText
73
0
0
POINT
5
43
330
1A
100
AcDbEntity
67
0
8
Hole
62
40
420
16760832
6
ByLayer
370
-1
48
1.0
60
0
100
AcDbPoint
10
748620.930000763
20
8930161.38
30
190.600000026226
39
0.0
210
0.0
220
0.0
230
1.0
50
360.0
0
LINE
5
44
330
1A
100
AcDbEntity
67
0
8
Theoretical Hole
62
40
420
16760832
6
ByLayer
370
-1
48
1.0
60
0
100
AcDbLine
10
748620.930000763
20
8930161.38
30
190.600000026226
11
748621.131741028
21
8930163.98995441
31
179.998402061462
39
0.0
210
0.0
220
0.0
230
1.0
0
TEXT
5
45
330
1A
100
AcDbEntity
67
0
8
Number
62
40
420
16760832
6
ByLayer
370
-1
48
1.0
60
0
100
AcDbText
1
7
10
748620.930000763
20
8930161.68599999
30
190.600000026226
40
0.3
41
1.0
50
0.0
51
0.0
7
Standard
11
748620.930000763
21
8930161.68599999
31
190.600000026226
210
0.0
220
0.0
230
1.0
72
0
100
AcDbText
73
0
0
TEXT
5
46
330
1A
100
AcDbEntity
67
0
8
label
62
1
420
16711680
6
ByLayer
370
-1
48
1.0
60
0
100
AcDbText
1

10
748620.930000763
20
8930162.08599999
30
190.600000026226
40
0.3
41
1.0
50
0.0
51
0.0
7
Standard
11
748620.930000763
21
8930162.08599999
31
190.600000026226
210
0.0
220
0.0
230
1.0
72
0
100
AcDbText
73
0
0
TEXT
5
47
330
1A
100
AcDbEntity
67
0
8
Length
62
40
420
16760832
6
ByLayer
370
-1
48
1.0
60
0
100
AcDbText
1
10.92
10
748620.930000763
20
8930160.676
30
190.600000026226
40
0.3
41
1.0
50
0.0
51
0.0
7
Standard
11
748620.930000763
21
8930160.676
31
190.600000026226
210
0.0
220
0.0
230
1.0
72
0
100
AcDbText
73
0
0
POINT
5
48
330
1A
100
AcDbEntity
67
0
8
Hole
62
40
420
16760832
6
ByLayer
370
-1
48
1.0
60
0
100
AcDbPoint
10
748619.73
20
8930161.47999999
30
190.649999978542
39
0.0
210
0.0
220
0.0
230
1.0
50
360.0
0
LINE
5
49
330
1A
100
AcDbEntity
67
0
8
Theoretical Hole
62
40
420
16760832
6
ByLayer
370
-1
48
1.0
60
0
100
AcDbLine
10
748619.73
20
8930161.47999999
30
190.649999978542
11
748620.027866821
21
8930164.09841389
31
180.001238288879
39
0.0
210
0.0
220
0.0
230
1.0
0
TEXT
5
4A
330
1A
100
AcDbEntity
67
0
8
Number
62
40
420
16760832
6
ByLayer
370
-1
48
1.0
60
0
100
AcDbText
1
8
10
748619.73
20
8930161.78599999
30
190.649999978542
40
0.3
41
1.0
50
0.0
51
0.0
7
Standard
11
748619.73
21
8930161.78599999
31
190.649999978542
210
0.0
220
0.0
230
1.0
72
0
100
AcDbText
73
0
0
TEXT
5
4B
330
1A
100
AcDbEntity
67
0
8
label
62
1
420
16711680
6
ByLayer
370
-1
48
1.0
60
0
100
AcDbText
1

10
748619.73
20
8930162.18599999
30
190.649999978542
40
0.3
41
1.0
50
0.0
51
0.0
7
Standard
11
748619.73
21
8930162.18599999
31
190.649999978542
210
0.0
220
0.0
230
1.0
72
0
100
AcDbText
73
0
0
TEXT
5
4C
330
1A
100
AcDbEntity
67
0
8
Length
62
40
420
16760832
6
ByLayer
370
-1
48
1.0
60
0
100
AcDbText
1
10.97
10
748619.73
20
8930160.77599999
30
190.649999978542
40
0.3
41
1.0
50
0.0
51
0.0
7
Standard
11
748619.73
21
8930160.77599999
31
190.649999978542
210
0.0
220
0.0
230
1.0
72
0
100
AcDbText
73
0
0
POINT
5
4D
330
1A
100
AcDbEntity
67
0
8
Hole
62
40
420
16760832
6
ByLayer
370
-1
48
1.0
60
0
100
AcDbPoint
10
748618.540001373
20
8930161.60999999
30
190.699999990463
39
0.0
210
0.0
220
0.0
230
1.0
50
360.0
0
LINE
5
4E
330
1A
100
AcDbEntity
67
0
8
Theoretical Hole
62
40
420
16760832
6
ByLayer
370
-1
48
1.0
60
0
100
AcDbLine
10
748618.540001373
20
8930161.60999999
30
190.699999990463
11
748618.83521698
21
8930164.2050876
31
179.993983688354
39
0.0
210
0.0
220
0.0
230
1.0
0
TEXT
5
4F
330
1A
100
AcDbEntity
67
0
8
Number
62
40
420
16760832
6
ByLayer
370
-1
48
1.0
60
0
100
AcDbText
1
9
10
748618.540001373
20
8930161.91599998
30
190.699999990463
40
0.3
41
1.0
50
0.0
51
0.0
7
Standard
11
748618.540001373
21
8930161.91599998
31
190.699999990463
210
0.0
220
0.0
230
1.0
72
0
100
AcDbText
73
0
0
TEXT
5
50
330
1A
100
AcDbEntity
67
0
8
label
62
1
420
16711680
6
ByLayer
370
-1
48
1.0
60
0
100
AcDbText
1

10
748618.540001373
20
8930162.31599998
30
190.699999990463
40
0.3
41
1.0
50
0.0
51
0.0
7
Standard
11
748618.540001373
21
8930162.31599998
31
190.699999990463
210
0.0
220
0.0
230
1.0
72
0
100
AcDbText
73
0
0
TEXT
5
51
330
1A
100
AcDbEntity
67
0
8
Length
62
40
420
16760832
6
ByLayer
370
-1
48
1.0
60
0
100
AcDbText
1
11.02
10
748618.540001373
20
8930160.90599999
30
190.699999990463
40
0.3
41
1.0
50
0.0
51
0.0
7
Standard
11
748618.540001373
21
8930160.90599999
31
190.699999990463
210
0.0
220
0.0
230
1.0
72
0
100
AcDbText
73
0
0
POINT
5
52
330
1A
100
AcDbEntity
67
0
8
Hole
62
40
420
16760832
6
ByLayer
370
-1
48
1.0
60
0
100
AcDbPoint
10
748617.34000061
20
8930161.75
30
190.649999978542
39
0.0
210
0.0
220
0.0
230
1.0
50
360.0
0
LINE
5
53
330
1A
100
AcDbEntity
67
0
8
Theoretical Hole
62
40
420
16760832
6
ByLayer
370
-1
48
1.0
60
0
100
AcDbLine
10
748617.34000061
20
8930161.75
30
190.649999978542
11
748617.765449982
21
8930164.37389344
31
179.996618690491
39
0.0
210
0.0
220
0.0
230
1.0
0
TEXT
5
54
330
1A
100
AcDbEntity
67
0
8
Number
62
40
420
16760832
6
ByLayer
370
-1
48
1.0
60
0
100
AcDbText
1
10
10
748617.34000061
20
8930162.056
30
190.649999978542
40
0.3
41
1.0
50
0.0
51
0.0
7
Standard
11
748617.34000061
21
8930162.056
31
190.649999978542
210
0.0
220
0.0
230
1.0
72
0
100
AcDbText
73
0
0
TEXT
5
55
330
1A
100
AcDbEntity
67
0
8
label
62
1
420
16711680
6
ByLayer
370
-1
48
1.0
60
0
100
AcDbText
1

10
748617.34000061
20
8930162.456
30
190.649999978542
40
0.3
41
1.0
50
0.0
51
0.0
7
Standard
11
748617.34000061
21
8930162.456
31
190.649999978542
210
0.0
220
0.0
230
1.0
72
0
100
AcDbText
73
0
0
TEXT
5
56
330
1A
100
AcDbEntity
67
0
8
Length
62
40
420
16760832
6
ByLayer
370
-1
48
1.0
60
0
100
AcDbText
1
10.98
10
748617.34000061
20
8930161.04600001
30
190.649999978542
40
0.3
41
1.0
50
0.0
51
0.0
7
Standard
11
748617.34000061
21
8930161.04600001
31
190.649999978542
210
0.0
220
0.0
230
1.0
72
0
100
AcDbText
73
0
0
POINT
5
57
330
1A
100
AcDbEntity
67
0
8
Hole
62
40
420
16760832
6
ByLayer
370
-1
48
1.0
60
0
100
AcDbPoint
10
748616.160000305
20
8930161.94
30
190.610000016689
39
0.0
210
0.0
220
0.0
230
1.0
50
360.0
0
LINE
5
58
330
1A
100
AcDbEntity
67
0
8
Theoretical Hole
62
40
420
16760832
6
ByLayer
370
-1
48
1.0
60
0
100
AcDbLine
10
748616.160000305
20
8930161.94
30
190.610000016689
11
748616.591404419
21
8930164.55440468
31
180.006053390503
39
0.0
210
0.0
220
0.0
230
1.0
0
TEXT
5
59
330
1A
100
AcDbEntity
67
0
8
Number
62
40
420
16760832
6
ByLayer
370
-1
48
1.0
60
0
100
AcDbText
1
11
10
748616.160000305
20
8930162.24599999
30
190.610000016689
40
0.3
41
1.0
50
0.0
51
0.0
7
Standard
11
748616.160000305
21
8930162.24599999
31
190.610000016689
210
0.0
220
0.0
230
1.0
72
0
100
AcDbText
73
0
0
TEXT
5
5A
330
1A
100
AcDbEntity
67
0
8
label
62
1
420
16711680
6
ByLayer
370
-1
48
1.0
60
0
100
AcDbText
1

10
748616.160000305
20
8930162.64599999
30
190.610000016689
40
0.3
41
1.0
50
0.0
51
0.0
7
Standard
11
748616.160000305
21
8930162.64599999
31
190.610000016689
210
0.0
220
0.0
230
1.0
72
0
100
AcDbText
73
0
0
TEXT
5
5B
330
1A
100
AcDbEntity
67
0
8
Length
62
40
420
16760832
6
ByLayer
370
-1
48
1.0
60
0
100
AcDbText
1
10.93
10
748616.160000305
20
8930161.236
30
190.610000016689
40
0.3
41
1.0
50
0.0
51
0.0
7
Standard
11
748616.160000305
21
8930161.236
31
190.610000016689
210
0.0
220
0.0
230
1.0
72
0
100
AcDbText
73
0
0
POINT
5
5C
330
1A
100
AcDbEntity
67
0
8
Hole
62
40
420
16760832
6
ByLayer
370
-1
48
1.0
60
0
100
AcDbPoint
10
748614.98
20
8930162.13999999
30
190.639999988079
39
0.0
210
0.0
220
0.0
230
1.0
50
360.0
0
LINE
5
5D
330
1A
100
AcDbEntity
67
0
8
Theoretical Hole
62
40
420
16760832
6
ByLayer
370
-1
48
1.0
60
0
100
AcDbLine
10
748614.98
20
8930162.13999999
30
190.639999988079
11
748615.52309082
21
8930164.75100178
31
179.999105873108
39
0.0
210
0.0
220
0.0
230
1.0
0
TEXT
5
5E
330
1A
100
AcDbEntity
67
0
8
Number
62
40
420
16760832
6
ByLayer
370
-1
48
1.0
60
0
100
AcDbText
1
12
10
748614.98
20
8930162.44599998
30
190.639999988079
40
0.3
41
1.0
50
0.0
51
0.0
7
Standard
11
748614.98
21
8930162.44599998
31
190.639999988079
210
0.0
220
0.0
230
1.0
72
0
100
AcDbText
73
0
0
TEXT
5
5F
330
1A
100
AcDbEntity
67
0
8
label
62
1
420
16711680
6
ByLayer
370
-1
48
1.0
60
0
100
AcDbText
1

10
748614.98
20
8930162.84599998
30
190.639999988079
40
0.3
41
1.0
50
0.0
51
0.0
7
Standard
11
748614.98
21
8930162.84599998
31
190.639999988079
210
0.0
220
0.0
230
1.0
72
0
100
AcDbText
73
0
0
TEXT
5
60
330
1A
100
AcDbEntity
67
0
8
Length
62
40
420
16760832
6
ByLayer
370
-1
48
1.0
60
0
100
AcDbText
1
10.97
10
748614.98
20
8930161.43599999
30
190.639999988079
40
0.3
41
1.0
50
0.0
51
0.0
7
Standard
11
748614.98
21
8930161.43599999
31
190.639999988079
210
0.0
220
0.0
230
1.0
72
0
100
AcDbText
73
0
0
POINT
5
61
330
1A
100
AcDbEntity
67
0
8
Hole
62
40
420
16760832
6
ByLayer
370
-1
48
1.0
60
0
100
AcDbPoint
10
748613.799999695
20
8930162.38000006
30
190.69
39
0.0
210
0.0
220
0.0
230
1.0
50
360.0
0
LINE
5
62
330
1A
100
AcDbEntity
67
0
8
Theoretical Hole
62
40
420
16760832
6
ByLayer
370
-1
48
1.0
60
0
100
AcDbLine
10
748613.799999695
20
8930162.38000006
30
190.69
11
748614.377457123
21
8930164.99988693
31
180.001541557312
39
0.0
210
0.0
220
0.0
230
1.0
0
TEXT
5
63
330
1A
100
AcDbEntity
67
0
8
Number
62
40
420
16760832
6
ByLayer
370
-1
48
1.0
60
0
100
AcDbText
1
13
10
748613.799999695
20
8930162.68600005
30
190.69
40
0.3
41
1.0
50
0.0
51
0.0
7
Standard
11
748613.799999695
21
8930162.68600005
31
190.69
210
0.0
220
0.0
230
1.0
72
0
100
AcDbText
73
0
0
TEXT
5
64
330
1A
100
AcDbEntity
67
0
8
label
62
1
420
16711680
6
ByLayer
370
-1
48
1.0
60
0
100
AcDbText
1

10
748613.799999695
20
8930163.08600005
30
190.69
40
0.3
41
1.0
50
0.0
51
0.0
7
Standard
11
748613.799999695
21
8930163.08600005
31
190.69
210
0.0
220
0.0
230
1.0
72
0
100
AcDbText
73
0
0
TEXT
5
65
330
1A
100
AcDbEntity
67
0
8
Length
62
40
420
16760832
6
ByLayer
370
-1
48
1.0
60
0
100
AcDbText
1
11.02
10
748613.799999695
20
8930161.67600006
30
190.69
40
0.3
41
1.0
50
0.0
51
0.0
7
Standard
11
748613.799999695
21
8930161.67600006
31
190.69
210
0.0
220
0.0
230
1.0
72
0
100
AcDbText
73
0
0
POINT
5
66
330
1A
100
AcDbEntity
67
0
8
Hole
62
40
420
16760832
6
ByLayer
370
-1
48
1.0
60
0
100
AcDbPoint
10
748612.629999619
20
8930162.64000005
30
190.709999980927
39
0.0
210
0.0
220
0.0
230
1.0
50
360.0
0
LINE
5
67
330
1A
100
AcDbEntity
67
0
8
Theoretical Hole
62
40
420
16760832
6
ByLayer
370
-1
48
1.0
60
0
100
AcDbLine
10
748612.629999619
20
8930162.64000005
30
190.709999980927
11
748613.314732056
21
8930165.23895258
31
180.00214427948
39
0.0
210
0.0
220
0.0
230
1.0
0
TEXT
5
68
330
1A
100
AcDbEntity
67
0
8
Number
62
40
420
16760832
6
ByLayer
370
-1
48
1.0
60
0
100
AcDbText
1
14
10
748612.629999619
20
8930162.94600004
30
190.709999980927
40
0.3
41
1.0
50
0.0
51
0.0
7
Standard
11
748612.629999619
21
8930162.94600004
31
190.709999980927
210
0.0
220
0.0
230
1.0
72
0
100
AcDbText
73
0
0
TEXT
5
69
330
1A
100
AcDbEntity
67
0
8
label
62
1
420
16711680
6
ByLayer
370
-1
48
1.0
60
0
100
AcDbText
1

10
748612.629999619
20
8930163.34600004
30
190.709999980927
40
0.3
41
1.0
50
0.0
51
0.0
7
Standard
11
748612.629999619
21
8930163.34600004
31
190.709999980927
210
0.0
220
0.0
230
1.0
72
0
100
AcDbText
73
0
0
TEXT
5
6A
330
1A
100
AcDbEntity
67
0
8
Length
62
40
420
16760832
6
ByLayer
370
-1
48
1.0
60
0
100
AcDbText
1
11.04
10
748612.629999619
20
8930161.93600005
30
190.709999980927
40
0.3
41
1.0
50
0.0
51
0.0
7
Standard
11
748612.629999619
21
8930161.93600005
31
190.709999980927
210
0.0
220
0.0
230
1.0
72
0
100
AcDbText
73
0
0
POINT
5
6B
330
1A
100
AcDbEntity
67
0
8
Hole
62
40
420
16760832
6
ByLayer
370
-1
48
1.0
60
0
100
AcDbPoint
10
748611.469999771
20
8930162.94
30
190.709999980927
39
0.0
210
0.0
220
0.0
230
1.0
50
360.0
0
LINE
5
6C
330
1A
100
AcDbEntity
67
0
8
Theoretical Hole
62
40
420
16760832
6
ByLayer
370
-1
48
1.0
60
0
100
AcDbLine
10
748611.469999771
20
8930162.94
30
190.709999980927
11
748612.199760895
21
8930165.54668325
31
179.996681632996
39
0.0
210
0.0
220
0.0
230
1.0
0
TEXT
5
6D
330
1A
100
AcDbEntity
67
0
8
Number
62
40
420
16760832
6
ByLayer
370
-1
48
1.0
60
0
100
AcDbText
1
15
10
748611.469999771
20
8930163.24599999
30
190.709999980927
40
0.3
41
1.0
50
0.0
51
0.0
7
Standard
11
748611.469999771
21
8930163.24599999
31
190.709999980927
210
0.0
220
0.0
230
1.0
72
0
100
AcDbText
73
0
0
TEXT
5
6E
330
1A
100
AcDbEntity
67
0
8
label
62
1
420
16711680
6
ByLayer
370
-1
48
1.0
60
0
100
AcDbText
1

10
748611.469999771
20
8930163.64599999
30
190.709999980927
40
0.3
41
1.0
50
0.0
51
0.0
7
Standard
11
748611.469999771
21
8930163.64599999
31
190.709999980927
210
0.0
220
0.0
230
1.0
72
0
100
AcDbText
73
0
0
TEXT
5
6F
330
1A
100
AcDbEntity
67
0
8
Length
62
40
420
16760832
6
ByLayer
370
-1
48
1.0
60
0
100
AcDbText
1
11.05
10
748611.469999771
20
8930162.236
30
190.709999980927
40
0.3
41
1.0
50
0.0
51
0.0
7
Standard
11
748611.469999771
21
8930162.236
31
190.709999980927
210
0.0
220
0.0
230
1.0
72
0
100
AcDbText
73
0
0
POINT
5
70
330
1A
100
AcDbEntity
67
0
8
Hole
62
40
420
16760832
6
ByLayer
370
-1
48
1.0
60
0
100
AcDbPoint
10
748610.309999924
20
8930163.26999992
30
190.699999990463
39
0.0
210
0.0
220
0.0
230
1.0
50
360.0
0
LINE
5
71
330
1A
100
AcDbEntity
67
0
8
Theoretical Hole
62
40
420
16760832
6
ByLayer
370
-1
48
1.0
60
0
100
AcDbLine
10
748610.309999924
20
8930163.26999992
30
190.699999990463
11
748611.162016373
21
8930165.85837835
31
180.001590194702
39
0.0
210
0.0
220
0.0
230
1.0
0
TEXT
5
72
330
1A
100
AcDbEntity
67
0
8
Number
62
40
420
16760832
6
ByLayer
370
-1
48
1.0
60
0
100
AcDbText
1
16
10
748610.309999924
20
8930163.57599992
30
190.699999990463
40
0.3
41
1.0
50
0.0
51
0.0
7
Standard
11
748610.309999924
21
8930163.57599992
31
190.699999990463
210
0.0
220
0.0
230
1.0
72
0
100
AcDbText
73
0
0
TEXT
5
73
330
1A
100
AcDbEntity
67
0
8
label
62
1
420
16711680
6
ByLayer
370
-1
48
1.0
60
0
100
AcDbText
1

10
748610.309999924
20
8930163.97599992
30
190.699999990463
40
0.3
41
1.0
50
0.0
51
0.0
7
Standard
11
748610.309999924
21
8930163.97599992
31
190.699999990463
210
0.0
220
0.0
230
1.0
72
0
100
AcDbText
73
0
0
TEXT
5
74
330
1A
100
AcDbEntity
67
0
8
Length
62
40
420
16760832
6
ByLayer
370
-1
48
1.0
60
0
100
AcDbText
1
11.04
10
748610.309999924
20
8930162.56599993
30
190.699999990463
40
0.3
41
1.0
50
0.0
51
0.0
7
Standard
11
748610.309999924
21
8930162.56599993
31
190.699999990463
210
0.0
220
0.0
230
1.0
72
0
100
AcDbText
73
0
0
POINT
5
75
330
1A
100
AcDbEntity
67
0
8
Hole
62
40
420
16760832
6
ByLayer
370
-1
48
1.0
60
0
100
AcDbPoint
10
748609.170000534
20
8930163.64000005
30
190.680000009537
39
0.0
210
0.0
220
0.0
230
1.0
50
360.0
0
LINE
5
76
330
1A
100
AcDbEntity
67
0
8
Theoretical Hole
62
40
420
16760832
6
ByLayer
370
-1
48
1.0
60
0
100
AcDbLine
10
748609.170000534
20
8930163.64000005
30
190.680000009537
11
748610.054220657
21
8930166.21233601
31
180.000970306396
39
0.0
210
0.0
220
0.0
230
1.0
0
TEXT
5
77
330
1A
100
AcDbEntity
67
0
8
Number
62
40
420
16760832
6
ByLayer
370
-1
48
1.0
60
0
100
AcDbText
1
17
10
748609.170000534
20
8930163.94600004
30
190.680000009537
40
0.3
41
1.0
50
0.0
51
0.0
7
Standard
11
748609.170000534
21
8930163.94600004
31
190.680000009537
210
0.0
220
0.0
230
1.0
72
0
100
AcDbText
73
0
0
TEXT
5
78
330
1A
100
AcDbEntity
67
0
8
label
62
1
420
16711680
6
ByLayer
370
-1
48
1.0
60
0
100
AcDbText
1

10
748609.170000534
20
8930164.34600004
30
190.680000009537
40
0.3
41
1.0
50
0.0
51
0.0
7
Standard
11
748609.170000534
21
8930164.34600004
31
190.680000009537
210
0.0
220
0.0
230
1.0
72
0
100
AcDbText
73
0
0
TEXT
5
79
330
1A
100
AcDbEntity
67
0
8
Length
62
40
420
16760832
6
ByLayer
370
-1
48
1.0
60
0
100
AcDbText
1
11.02
10
748609.170000534
20
8930162.93600005
30
190.680000009537
40
0.3
41
1.0
50
0.0
51
0.0
7
Standard
11
748609.170000534
21
8930162.93600005
31
190.680000009537
210
0.0
220
0.0
230
1.0
72
0
100
AcDbText
73
0
0
POINT
5
7A
330
1A
100
AcDbEntity
67
0
8
Hole
62
40
420
16760832
6
ByLayer
370
-1
48
1.0
60
0
100
AcDbPoint
10
748608.039999466
20
8930164.02999991
30
190.670000019073
39
0.0
210
0.0
220
0.0
230
1.0
50
360.0
0
LINE
5
7B
330
1A
100
AcDbEntity
67
0
8
Theoretical Hole
62
40
420
16760832
6
ByLayer
370
-1
48
1.0
60
0
100
AcDbLine
10
748608.039999466
20
8930164.02999991
30
190.670000019073
11
748609.074331741
21
8930166.5772509
31
180.008774223328
39
0.0
210
0.0
220
0.0
230
1.0
0
TEXT
5
7C
330
1A
100
AcDbEntity
67
0
8
Number
62
40
420
16760832
6
ByLayer
370
-1
48
1.0
60
0
100
AcDbText
1
18
10
748608.039999466
20
8930164.33599991
30
190.670000019073
40
0.3
41
1.0
50
0.0
51
0.0
7
Standard
11
748608.039999466
21
8930164.33599991
31
190.670000019073
210
0.0
220
0.0
230
1.0
72
0
100
AcDbText
73
0
0
TEXT
5
7D
330
1A
100
AcDbEntity
67
0
8
label
62
1
420
16711680
6
ByLayer
370
-1
48
1.0
60
0
100
AcDbText
1

10
748608.039999466
20
8930164.73599991
30
190.670000019073
40
0.3
41
1.0
50
0.0
51
0.0
7
Standard
11
748608.039999466
21
8930164.73599991
31
190.670000019073
210
0.0
220
0.0
230
1.0
72
0
100
AcDbText
73
0
0
TEXT
5
7E
330
1A
100
AcDbEntity
67
0
8
Length
62
40
420
16760832
6
ByLayer
370
-1
48
1.0
60
0
100
AcDbText
1
11.01
10
748608.039999466
20
8930163.32599992
30
190.670000019073
40
0.3
41
1.0
50
0.0
51
0.0
7
Standard
11
748608.039999466
21
8930163.32599992
31
190.670000019073
210
0.0
220
0.0
230
1.0
72
0
100
AcDbText
73
0
0
POINT
5
7F
330
1A
100
AcDbEntity
67
0
8
Hole
62
40
420
16760832
6
ByLayer
370
-1
48
1.0
60
0
100
AcDbPoint
10
748606.930000763
20
8930164.47999996
30
190.649999978542
39
0.0
210
0.0
220
0.0
230
1.0
50
360.0
0
LINE
5
80
330
1A
100
AcDbEntity
67
0
8
Theoretical Hole
62
40
420
16760832
6
ByLayer
370
-1
48
1.0
60
0
100
AcDbLine
10
748606.930000763
20
8930164.47999996
30
190.649999978542
11
748607.987711411
21
8930166.99005932
31
180.002891960144
39
0.0
210
0.0
220
0.0
230
1.0
0
TEXT
5
81
330
1A
100
AcDbEntity
67
0
8
Number
62
40
420
16760832
6
ByLayer
370
-1
48
1.0
60
0
100
AcDbText
1
19
10
748606.930000763
20
8930164.78599996
30
190.649999978542
40
0.3
41
1.0
50
0.0
51
0.0
7
Standard
11
748606.930000763
21
8930164.78599996
31
190.649999978542
210
0.0
220
0.0
230
1.0
72
0
100
AcDbText
73
0
0
TEXT
5
82
330
1A
100
AcDbEntity
67
0
8
label
62
1
420
16711680
6
ByLayer
370
-1
48
1.0
60
0
100
AcDbText
1

10
748606.930000763
20
8930165.18599996
30
190.649999978542
40
0.3
41
1.0
50
0.0
51
0.0
7
Standard
11
748606.930000763
21
8930165.18599996
31
190.649999978542
210
0.0
220
0.0
230
1.0
72
0
100
AcDbText
73
0
0
TEXT
5
83
330
1A
100
AcDbEntity
67
0
8
Length
62
40
420
16760832
6
ByLayer
370
-1
48
1.0
60
0
100
AcDbText
1
10.99
10
748606.930000763
20
8930163.77599997
30
190.649999978542
40
0.3
41
1.0
50
0.0
51
0.0
7
Standard
11
748606.930000763
21
8930163.77599997
31
190.649999978542
210
0.0
220
0.0
230
1.0
72
0
100
AcDbText
73
0
0
POINT
5
84
330
1A
100
AcDbEntity
67
0
8
Hole
62
40
420
16760832
6
ByLayer
370
-1
48
1.0
60
0
100
AcDbPoint
10
748605.820000153
20
8930164.94999999
30
190.629999997616
39
0.0
210
0.0
220
0.0
230
1.0
50
360.0
0
LINE
5
85
330
1A
100
AcDbEntity
67
0
8
Theoretical Hole
62
40
420
16760832
6
ByLayer
370
-1
48
1.0
60
0
100
AcDbLine
10
748605.820000153
20
8930164.94999999
30
190.629999997616
11
748607.022205811
21
8930167.43135303
31
179.99149936676
39
0.0
210
0.0
220
0.0
230
1.0
0
TEXT
5
86
330
1A
100
AcDbEntity
67
0
8
Number
62
40
420
16760832
6
ByLayer
370
-1
48
1.0
60
0
100
AcDbText
1
20
10
748605.820000153
20
8930165.25599998
30
190.629999997616
40
0.3
41
1.0
50
0.0
51
0.0
7
Standard
11
748605.820000153
21
8930165.25599998
31
190.629999997616
210
0.0
220
0.0
230
1.0
72
0
100
AcDbText
73
0
0
TEXT
5
87
330
1A
100
AcDbEntity
67
0
8
label
62
1
420
16711680
6
ByLayer
370
-1
48
1.0
60
0
100
AcDbText
1

10
748605.820000153
20
8930165.65599998
30
190.629999997616
40
0.3
41
1.0
50
0.0
51
0.0
7
Standard
11
748605.820000153
21
8930165.65599998
31
190.629999997616
210
0.0
220
0.0
230
1.0
72
0
100
AcDbText
73
0
0
TEXT
5
88
330
1A
100
AcDbEntity
67
0
8
Length
62
40
420
16760832
6
ByLayer
370
-1
48
1.0
60
0
100
AcDbText
1
10.99
10
748605.820000153
20
8930164.24599999
30
190.629999997616
40
0.3
41
1.0
50
0.0
51
0.0
7
Standard
11
748605.820000153
21
8930164.24599999
31
190.629999997616
210
0.0
220
0.0
230
1.0
72
0
100
AcDbText
73
0
0
POINT
5
89
330
1A
100
AcDbEntity
67
0
8
Hole
62
40
420
16760832
6
ByLayer
370
-1
48
1.0
60
0
100
AcDbPoint
10
748604.740000229
20
8930165.47000021
30
190.629999997616
39
0.0
210
0.0
220
0.0
230
1.0
50
360.0
0
LINE
5
8A
330
1A
100
AcDbEntity
67
0
8
Theoretical Hole
62
40
420
16760832
6
ByLayer
370
-1
48
1.0
60
0
100
AcDbLine
10
748604.740000229
20
8930165.47000021
30
190.629999997616
11
748605.990831833
21
8930167.89448065
31
180.00464099884
39
0.0
210
0.0
220
0.0
230
1.0
0
TEXT
5
8B
330
1A
100
AcDbEntity
67
0
8
Number
62
40
420
16760832
6
ByLayer
370
-1
48
1.0
60
0
100
AcDbText
1
21
10
748604.740000229
20
8930165.7760002
30
190.629999997616
40
0.3
41
1.0
50
0.0
51
0.0
7
Standard
11
748604.740000229
21
8930165.7760002
31
190.629999997616
210
0.0
220
0.0
230
1.0
72
0
100
AcDbText
73
0
0
TEXT
5
8C
330
1A
100
AcDbEntity
67
0
8
label
62
1
420
16711680
6
ByLayer
370
-1
48
1.0
60
0
100
AcDbText
1

10
748604.740000229
20
8930166.1760002
30
190.629999997616
40
0.3
41
1.0
50
0.0
51
0.0
7
Standard
11
748604.740000229
21
8930166.1760002
31
190.629999997616
210
0.0
220
0.0
230
1.0
72
0
100
AcDbText
73
0
0
TEXT
5
8D
330
1A
100
AcDbEntity
67
0
8
Length
62
40
420
16760832
6
ByLayer
370
-1
48
1.0
60
0
100
AcDbText
1
10.97
10
748604.740000229
20
8930164.76600021
30
190.629999997616
40
0.3
41
1.0
50
0.0
51
0.0
7
Standard
11
748604.740000229
21
8930164.76600021
31
190.629999997616
210
0.0
220
0.0
230
1.0
72
0
100
AcDbText
73
0
0
POINT
5
8E
330
1A
100
AcDbEntity
67
0
8
Hole
62
40
420
16760832
6
ByLayer
370
-1
48
1.0
60
0
100
AcDbPoint
10
748603.670000534
20
8930166.01999992
30
190.600000026226
39
0.0
210
0.0
220
0.0
230
1.0
50
360.0
0
LINE
5
8F
330
1A
100
AcDbEntity
67
0
8
Theoretical Hole
62
40
420
16760832
6
ByLayer
370
-1
48
1.0
60
0
100
AcDbLine
10
748603.670000534
20
8930166.01999992
30
190.600000026226
11
748605.011721115
21
8930168.41091818
31
179.998783531189
39
0.0
210
0.0
220
0.0
230
1.0
0
TEXT
5
90
330
1A
100
AcDbEntity
67
0
8
Number
62
40
420
16760832
6
ByLayer
370
-1
48
1.0
60
0
100
AcDbText
1
22
10
748603.670000534
20
8930166.32599992
30
190.600000026226
40
0.3
41
1.0
50
0.0
51
0.0
7
Standard
11
748603.670000534
21
8930166.32599992
31
190.600000026226
210
0.0
220
0.0
230
1.0
72
0
100
AcDbText
73
0
0
TEXT
5
91
330
1A
100
AcDbEntity
67
0
8
label
62
1
420
16711680
6
ByLayer
370
-1
48
1.0
60
0
100
AcDbText
1

10
748603.670000534
20
8930166.72599992
30
190.600000026226
40
0.3
41
1.0
50
0.0
51
0.0
7
Standard
11
748603.670000534
21
8930166.72599992
31
190.600000026226
210
0.0
220
0.0
230
1.0
72
0
100
AcDbText
73
0
0
TEXT
5
92
330
1A
100
AcDbEntity
67
0
8
Length
62
40
420
16760832
6
ByLayer
370
-1
48
1.0
60
0
100
AcDbText
1
10.95
10
748603.670000534
20
8930165.31599993
30
190.600000026226
40
0.3
41
1.0
50
0.0
51
0.0
7
Standard
11
748603.670000534
21
8930165.31599993
31
190.600000026226
210
0.0
220
0.0
230
1.0
72
0
100
AcDbText
73
0
0
POINT
5
93
330
1A
100
AcDbEntity
67
0
8
Hole
62
40
420
16760832
6
ByLayer
370
-1
48
1.0
60
0
100
AcDbPoint
10
748602.629999619
20
8930166.61000008
30
190.569999995232
39
0.0
210
0.0
220
0.0
230
1.0
50
360.0
0
LINE
5
94
330
1A
100
AcDbEntity
67
0
8
Theoretical Hole
62
40
420
16760832
6
ByLayer
370
-1
48
1.0
60
0
100
AcDbLine
10
748602.629999619
20
8930166.61000008
30
190.569999995232
11
748604.070286255
21
8930168.92752165
31
179.996399345398
39
0.0
210
0.0
220
0.0
230
1.0
0
TEXT
5
95
330
1A
100
AcDbEntity
67
0
8
Number
62
40
420
16760832
6
ByLayer
370
-1
48
1.0
60
0
100
AcDbText
1
23
10
748602.629999619
20
8930166.91600007
30
190.569999995232
40
0.3
41
1.0
50
0.0
51
0.0
7
Standard
11
748602.629999619
21
8930166.91600007
31
190.569999995232
210
0.0
220
0.0
230
1.0
72
0
100
AcDbText
73
0
0
TEXT
5
96
330
1A
100
AcDbEntity
67
0
8
label
62
1
420
16711680
6
ByLayer
370
-1
48
1.0
60
0
100
AcDbText
1

10
748602.629999619
20
8930167.31600007
30
190.569999995232
40
0.3
41
1.0
50
0.0
51
0.0
7
Standard
11
748602.629999619
21
8930167.31600007
31
190.569999995232
210
0.0
220
0.0
230
1.0
72
0
100
AcDbText
73
0
0
TEXT
5
97
330
1A
100
AcDbEntity
67
0
8
Length
62
40
420
16760832
6
ByLayer
370
-1
48
1.0
60
0
100
AcDbText
1
10.92
10
748602.629999619
20
8930165.90600008
30
190.569999995232
40
0.3
41
1.0
50
0.0
51
0.0
7
Standard
11
748602.629999619
21
8930165.90600008
31
190.569999995232
210
0.0
220
0.0
230
1.0
72
0
100
AcDbText
73
0
0
POINT
5
98
330
1A
100
AcDbEntity
67
0
8
Hole
62
40
420
16760832
6
ByLayer
370
-1
48
1.0
60
0
100
AcDbPoint
10
748601.609999161
20
8930167.24000019
30
190.540000023842
39
0.0
210
0.0
220
0.0
230
1.0
50
360.0
0
LINE
5
99
330
1A
100
AcDbEntity
67
0
8
Theoretical Hole
62
40
420
16760832
6
ByLayer
370
-1
48
1.0
60
0
100
AcDbLine
10
748601.609999161
20
8930167.24000019
30
190.540000023842
11
748603.094221573
21
8930169.51332134
31
180.00418132782
39
0.0
210
0.0
220
0.0
230
1.0
0
TEXT
5
9A
330
1A
100
AcDbEntity
67
0
8
Number
62
40
420
16760832
6
ByLayer
370
-1
48
1.0
60
0
100
AcDbText
1
24
10
748601.609999161
20
8930167.54600018
30
190.540000023842
40
0.3
41
1.0
50
0.0
51
0.0
7
Standard
11
748601.609999161
21
8930167.54600018
31
190.540000023842
210
0.0
220
0.0
230
1.0
72
0
100
AcDbText
73
0
0
TEXT
5
9B
330
1A
100
AcDbEntity
67
0
8
label
62
1
420
16711680
6
ByLayer
370
-1
48
1.0
60
0
100
AcDbText
1

10
748601.609999161
20
8930167.94600018
30
190.540000023842
40
0.3
41
1.0
50
0.0
51
0.0
7
Standard
11
748601.609999161
21
8930167.94600018
31
190.540000023842
210
0.0
220
0.0
230
1.0
72
0
100
AcDbText
73
0
0
TEXT
5
9C
330
1A
100
AcDbEntity
67
0
8
Length
62
40
420
16760832
6
ByLayer
370
-1
48
1.0
60
0
100
AcDbText
1
10.88
10
748601.609999161
20
8930166.53600019
30
190.540000023842
40
0.3
41
1.0
50
0.0
51
0.0
7
Standard
11
748601.609999161
21
8930166.53600019
31
190.540000023842
210
0.0
220
0.0
230
1.0
72
0
100
AcDbText
73
0
0
POINT
5
9D
330
1A
100
AcDbEntity
67
0
8
Hole
62
40
420
16760832
6
ByLayer
370
-1
48
1.0
60
0
100
AcDbPoint
10
748600.600000839
20
8930167.90000004
30
190.529999973774
39
0.0
210
0.0
220
0.0
230
1.0
50
360.0
0
LINE
5
9E
330
1A
100
AcDbEntity
67
0
8
Theoretical Hole
62
40
420
16760832
6
ByLayer
370
-1
48
1.0
60
0
100
AcDbLine
10
748600.600000839
20
8930167.90000004
30
190.529999973774
11
748602.187027435
21
8930170.08836883
31
180.001499595642
39
0.0
210
0.0
220
0.0
230
1.0
0
TEXT
5
9F
330
1A
100
AcDbEntity
67
0
8
Number
62
40
420
16760832
6
ByLayer
370
-1
48
1.0
60
0
100
AcDbText
1
25
10
748600.600000839
20
8930168.20600003
30
190.529999973774
40
0.3
41
1.0
50
0.0
51
0.0
7
Standard
11
748600.600000839
21
8930168.20600003
31
190.529999973774
210
0.0
220
0.0
230
1.0
72
0
100
AcDbText
73
0
0
TEXT
5
A0
330
1A
100
AcDbEntity
67
0
8
label
62
1
420
16711680
6
ByLayer
370
-1
48
1.0
60
0
100
AcDbText
1

10
748600.600000839
20
8930168.60600003
30
190.529999973774
40
0.3
41
1.0
50
0.0
51
0.0
7
Standard
11
748600.600000839
21
8930168.60600003
31
190.529999973774
210
0.0
220
0.0
230
1.0
72
0
100
AcDbText
73
0
0
TEXT
5
A1
330
1A
100
AcDbEntity
67
0
8
Length
62
40
420
16760832
6
ByLayer
370
-1
48
1.0
60
0
100
AcDbText
1
10.87
10
748600.600000839
20
8930167.19600004
30
190.529999973774
40
0.3
41
1.0
50
0.0
51
0.0
7
Standard
11
748600.600000839
21
8930167.19600004
31
190.529999973774
210
0.0
220
0.0
230
1.0
72
0
100
AcDbText
73
0
0
POINT
5
A2
330
1A
100
AcDbEntity
67
0
8
Hole
62
40
420
16760832
6
ByLayer
370
-1
48
1.0
60
0
100
AcDbPoint
10
748599.629999619
20
8930168.59999985
30
190.519999983311
39
0.0
210
0.0
220
0.0
230
1.0
50
360.0
0
LINE
5
A3
330
1A
100
AcDbEntity
67
0
8
Theoretical Hole
62
40
420
16760832
6
ByLayer
370
-1
48
1.0
60
0
100
AcDbLine
10
748599.629999619
20
8930168.59999985
30
190.519999983311
11
748601.270746689
21
8930170.72441143
31
179.996956291199
39
0.0
210
0.0
220
0.0
230
1.0
0
TEXT
5
A4
330
1A
100
AcDbEntity
67
0
8
Number
62
40
420
16760832
6
ByLayer
370
-1
48
1.0
60
0
100
AcDbText
1
26
10
748599.629999619
20
8930168.90599984
30
190.519999983311
40
0.3
41
1.0
50
0.0
51
0.0
7
Standard
11
748599.629999619
21
8930168.90599984
31
190.519999983311
210
0.0
220
0.0
230
1.0
72
0
100
AcDbText
73
0
0
TEXT
5
A5
330
1A
100
AcDbEntity
67
0
8
label
62
1
420
16711680
6
ByLayer
370
-1
48
1.0
60
0
100
AcDbText
1

10
748599.629999619
20
8930169.30599984
30
190.519999983311
40
0.3
41
1.0
50
0.0
51
0.0
7
Standard
11
748599.629999619
21
8930169.30599984
31
190.519999983311
210
0.0
220
0.0
230
1.0
72
0
100
AcDbText
73
0
0
TEXT
5
A6
330
1A
100
AcDbEntity
67
0
8
Length
62
40
420
16760832
6
ByLayer
370
-1
48
1.0
60
0
100
AcDbText
1
10.86
10
748599.629999619
20
8930167.89599985
30
190.519999983311
40
0.3
41
1.0
50
0.0
51
0.0
7
Standard
11
748599.629999619
21
8930167.89599985
31
190.519999983311
210
0.0
220
0.0
230
1.0
72
0
100
AcDbText
73
0
0
POINT
5
A7
330
1A
100
AcDbEntity
67
0
8
Hole
62
40
420
16760832
6
ByLayer
370
-1
48
1.0
60
0
100
AcDbPoint
10
748598.680000763
20
8930169.33999962
30
190.509999992847
39
0.0
210
0.0
220
0.0
230
1.0
50
360.0
0
LINE
5
A8
330
1A
100
AcDbEntity
67
0
8
Theoretical Hole
62
40
420
16760832
6
ByLayer
370
-1
48
1.0
60
0
100
AcDbLine
10
748598.680000763
20
8930169.33999962
30
190.509999992847
11
748600.352501373
21
8930171.40021557
31
179.999821128845
39
0.0
210
0.0
220
0.0
230
1.0
0
TEXT
5
A9
330
1A
100
AcDbEntity
67
0
8
Number
62
40
420
16760832
6
ByLayer
370
-1
48
1.0
60
0
100
AcDbText
1
27
10
748598.680000763
20
8930169.64599961
30
190.509999992847
40
0.3
41
1.0
50
0.0
51
0.0
7
Standard
11
748598.680000763
21
8930169.64599961
31
190.509999992847
210
0.0
220
0.0
230
1.0
72
0
100
AcDbText
73
0
0
TEXT
5
AA
330
1A
100
AcDbEntity
67
0
8
label
62
1
420
16711680
6
ByLayer
370
-1
48
1.0
60
0
100
AcDbText
1

10
748598.680000763
20
8930170.04599961
30
190.509999992847
40
0.3
41
1.0
50
0.0
51
0.0
7
Standard
11
748598.680000763
21
8930170.04599961
31
190.509999992847
210
0.0
220
0.0
230
1.0
72
0
100
AcDbText
73
0
0
TEXT
5
AB
330
1A
100
AcDbEntity
67
0
8
Length
62
40
420
16760832
6
ByLayer
370
-1
48
1.0
60
0
100
AcDbText
1
10.84
10
748598.680000763
20
8930168.63599962
30
190.509999992847
40
0.3
41
1.0
50
0.0
51
0.0
7
Standard
11
748598.680000763
21
8930168.63599962
31
190.509999992847
210
0.0
220
0.0
230
1.0
72
0
100
AcDbText
73
0
0
POINT
5
AC
330
1A
100
AcDbEntity
67
0
8
Hole
62
40
420
16760832
6
ByLayer
370
-1
48
1.0
60
0
100
AcDbPoint
10
748597.750000458
20
8930170.08999962
30
190.519999983311
39
0.0
210
0.0
220
0.0
230
1.0
50
360.0
0
LINE
5
AD
330
1A
100
AcDbEntity
67
0
8
Theoretical Hole
62
40
420
16760832
6
ByLayer
370
-1
48
1.0
60
0
100
AcDbLine
10
748597.750000458
20
8930170.08999962
30
190.519999983311
11
748599.520481567
21
8930172.06253952
31
179.998737754822
39
0.0
210
0.0
220
0.0
230
1.0
0
TEXT
5
AE
330
1A
100
AcDbEntity
67
0
8
Number
62
40
420
16760832
6
ByLayer
370
-1
48
1.0
60
0
100
AcDbText
1
28
10
748597.750000458
20
8930170.39599961
30
190.519999983311
40
0.3
41
1.0
50
0.0
51
0.0
7
Standard
11
748597.750000458
21
8930170.39599961
31
190.519999983311
210
0.0
220
0.0
230
1.0
72
0
100
AcDbText
73
0
0
TEXT
5
AF
330
1A
100
AcDbEntity
67
0
8
label
62
1
420
16711680
6
ByLayer
370
-1
48
1.0
60
0
100
AcDbText
1

10
748597.750000458
20
8930170.79599961
30
190.519999983311
40
0.3
41
1.0
50
0.0
51
0.0
7
Standard
11
748597.750000458
21
8930170.79599961
31
190.519999983311
210
0.0
220
0.0
230
1.0
72
0
100
AcDbText
73
0
0
TEXT
5
B0
330
1A
100
AcDbEntity
67
0
8
Length
62
40
420
16760832
6
ByLayer
370
-1
48
1.0
60
0
100
AcDbText
1
10.85
10
748597.750000458
20
8930169.38599962
30
190.519999983311
40
0.3
41
1.0
50
0.0
51
0.0
7
Standard
11
748597.750000458
21
8930169.38599962
31
190.519999983311
210
0.0
220
0.0
230
1.0
72
0
100
AcDbText
73
0
0
POINT
5
B1
330
1A
100
AcDbEntity
67
0
8
Hole
62
40
420
16760832
6
ByLayer
370
-1
48
1.0
60
0
100
AcDbPoint
10
748596.860000114
20
8930170.90000004
30
190.550000014305
39
0.0
210
0.0
220
0.0
230
1.0
50
360.0
0
LINE
5
B2
330
1A
100
AcDbEntity
67
0
8
Theoretical Hole
62
40
420
16760832
6
ByLayer
370
-1
48
1.0
60
0
100
AcDbLine
10
748596.860000114
20
8930170.90000004
30
190.550000014305
11
748598.64276741
21
8930172.80044693
31
179.996944847107
39
0.0
210
0.0
220
0.0
230
1.0
0
TEXT
5
B3
330
1A
100
AcDbEntity
67
0
8
Number
62
40
420
16760832
6
ByLayer
370
-1
48
1.0
60
0
100
AcDbText
1
29
10
748596.860000114
20
8930171.20600003
30
190.550000014305
40
0.3
41
1.0
50
0.0
51
0.0
7
Standard
11
748596.860000114
21
8930171.20600003
31
190.550000014305
210
0.0
220
0.0
230
1.0
72
0
100
AcDbText
73
0
0
TEXT
5
B4
330
1A
100
AcDbEntity
67
0
8
label
62
1
420
16711680
6
ByLayer
370
-1
48
1.0
60
0
100
AcDbText
1

10
748596.860000114
20
8930171.60600003
30
190.550000014305
40
0.3
41
1.0
50
0.0
51
0.0
7
Standard
11
748596.860000114
21
8930171.60600003
31
190.550000014305
210
0.0
220
0.0
230
1.0
72
0
100
AcDbText
73
0
0
TEXT
5
B5
330
1A
100
AcDbEntity
67
0
8
Length
62
40
420
16760832
6
ByLayer
370
-1
48
1.0
60
0
100
AcDbText
1
10.87
10
748596.860000114
20
8930170.19600004
30
190.550000014305
40
0.3
41
1.0
50
0.0
51
0.0
7
Standard
11
748596.860000114
21
8930170.19600004
31
190.550000014305
210
0.0
220
0.0
230
1.0
72
0
100
AcDbText
73
0
0
POINT
5
B6
330
1A
100
AcDbEntity
67
0
8
Hole
62
40
420
16760832
6
ByLayer
370
-1
48
1.0
60
0
100
AcDbPoint
10
748595.98
20
8930171.71999973
30
190.589999976158
39
0.0
210
0.0
220
0.0
230
1.0
50
360.0
0
LINE
5
B7
330
1A
100
AcDbEntity
67
0
8
Theoretical Hole
62
40
420
16760832
6
ByLayer
370
-1
48
1.0
60
0
100
AcDbLine
10
748595.98
20
8930171.71999973
30
190.589999976158
11
748597.798161964
21
8930173.56823772
31
180.002824249268
39
0.0
210
0.0
220
0.0
230
1.0
0
TEXT
5
B8
330
1A
100
AcDbEntity
67
0
8
Number
62
40
420
16760832
6
ByLayer
370
-1
48
1.0
60
0
100
AcDbText
1
30
10
748595.98
20
8930172.02599973
30
190.589999976158
40
0.3
41
1.0
50
0.0
51
0.0
7
Standard
11
748595.98
21
8930172.02599973
31
190.589999976158
210
0.0
220
0.0
230
1.0
72
0
100
AcDbText
73
0
0
TEXT
5
B9
330
1A
100
AcDbEntity
67
0
8
label
62
1
420
16711680
6
ByLayer
370
-1
48
1.0
60
0
100
AcDbText
1

10
748595.98
20
8930172.42599973
30
190.589999976158
40
0.3
41
1.0
50
0.0
51
0.0
7
Standard
11
748595.98
21
8930172.42599973
31
190.589999976158
210
0.0
220
0.0
230
1.0
72
0
100
AcDbText
73
0
0
TEXT
5
BA
330
1A
100
AcDbEntity
67
0
8
Length
62
40
420
16760832
6
ByLayer
370
-1
48
1.0
60
0
100
AcDbText
1
10.90
10
748595.98
20
8930171.01599974
30
190.589999976158
40
0.3
41
1.0
50
0.0
51
0.0
7
Standard
11
748595.98
21
8930171.01599974
31
190.589999976158
210
0.0
220
0.0
230
1.0
72
0
100
AcDbText
73
0
0
POINT
5
BB
330
1A
100
AcDbEntity
67
0
8
Hole
62
40
420
16760832
6
ByLayer
370
-1
48
1.0
60
0
100
AcDbPoint
10
748595.129999619
20
8930172.55999989
30
190.610000016689
39
0.0
210
0.0
220
0.0
230
1.0
50
360.0
0
LINE
5
BC
330
1A
100
AcDbEntity
67
0
8
Theoretical Hole
62
40
420
16760832
6
ByLayer
370
-1
48
1.0
60
0
100
AcDbLine
10
748595.129999619
20
8930172.55999989
30
190.610000016689
11
748596.997827988
21
8930174.31584877
31
180.005458297729
39
0.0
210
0.0
220
0.0
230
1.0
0
TEXT
5
BD
330
1A
100
AcDbEntity
67
0
8
Number
62
40
420
16760832
6
ByLayer
370
-1
48
1.0
60
0
100
AcDbText
1
31
10
748595.129999619
20
8930172.86599988
30
190.610000016689
40
0.3
41
1.0
50
0.0
51
0.0
7
Standard
11
748595.129999619
21
8930172.86599988
31
190.610000016689
210
0.0
220
0.0
230
1.0
72
0
100
AcDbText
73
0
0
TEXT
5
BE
330
1A
100
AcDbEntity
67
0
8
label
62
1
420
16711680
6
ByLayer
370
-1
48
1.0
60
0
100
AcDbText
1

10
748595.129999619
20
8930173.26599988
30
190.610000016689
40
0.3
41
1.0
50
0.0
51
0.0
7
Standard
11
748595.129999619
21
8930173.26599988
31
190.610000016689
210
0.0
220
0.0
230
1.0
72
0
100
AcDbText
73
0
0
TEXT
5
BF
330
1A
100
AcDbEntity
67
0
8
Length
62
40
420
16760832
6
ByLayer
370
-1
48
1.0
60
0
100
AcDbText
1
10.91
10
748595.129999619
20
8930171.85599989
30
190.610000016689
40
0.3
41
1.0
50
0.0
51
0.0
7
Standard
11
748595.129999619
21
8930171.85599989
31
190.610000016689
210
0.0
220
0.0
230
1.0
72
0
100
AcDbText
73
0
0
POINT
5
C0
330
1A
100
AcDbEntity
67
0
8
Hole
62
40
420
16760832
6
ByLayer
370
-1
48
1.0
60
0
100
AcDbPoint
10
748594.309999924
20
8930173.42999977
30
190.620000007153
39
0.0
210
0.0
220
0.0
230
1.0
50
360.0
0
LINE
5
C1
330
1A
100
AcDbEntity
67
0
8
Theoretical Hole
62
40
420
16760832
6
ByLayer
370
-1
48
1.0
60
0
100
AcDbLine
10
748594.309999924
20
8930173.42999977
30
190.620000007153
11
748596.196506004
21
8930175.14177937
31
180.001276435852
39
0.0
210
0.0
220
0.0
230
1.0
0
TEXT
5
C2
330
1A
100
AcDbEntity
67
0
8
Number
62
40
420
16760832
6
ByLayer
370
-1
48
1.0
60
0
100
AcDbText
1
32
10
748594.309999924
20
8930173.73599976
30
190.620000007153
40
0.3
41
1.0
50
0.0
51
0.0
7
Standard
11
748594.309999924
21
8930173.73599976
31
190.620000007153
210
0.0
220
0.0
230
1.0
72
0
100
AcDbText
73
0
0
TEXT
5
C3
330
1A
100
AcDbEntity
67
0
8
label
62
1
420
16711680
6
ByLayer
370
-1
48
1.0
60
0
100
AcDbText
1

10
748594.309999924
20
8930174.13599977
30
190.620000007153
40
0.3
41
1.0
50
0.0
51
0.0
7
Standard
11
748594.309999924
21
8930174.13599977
31
190.620000007153
210
0.0
220
0.0
230
1.0
72
0
100
AcDbText
73
0
0
TEXT
5
C4
330
1A
100
AcDbEntity
67
0
8
Length
62
40
420
16760832
6
ByLayer
370
-1
48
1.0
60
0
100
AcDbText
1
10.92
10
748594.309999924
20
8930172.72599977
30
190.620000007153
40
0.3
41
1.0
50
0.0
51
0.0
7
Standard
11
748594.309999924
21
8930172.72599977
31
190.620000007153
210
0.0
220
0.0
230
1.0
72
0
100
AcDbText
73
0
0
POINT
5
C5
330
1A
100
AcDbEntity
67
0
8
Hole
62
40
420
16760832
6
ByLayer
370
-1
48
1.0
60
0
100
AcDbPoint
10
748593.500000458
20
8930174.32000011
30
190.629999997616
39
0.0
210
0.0
220
0.0
230
1.0
50
360.0
0
LINE
5
C6
330
1A
100
AcDbEntity
67
0
8
Theoretical Hole
62
40
420
16760832
6
ByLayer
370
-1
48
1.0
60
0
100
AcDbLine
10
748593.500000458
20
8930174.32000011
30
190.629999997616
11
748595.405111771
21
8930175.98369259
31
179.99667591095
39
0.0
210
0.0
220
0.0
230
1.0
0
TEXT
5
C7
330
1A
100
AcDbEntity
67
0
8
Number
62
40
420
16760832
6
ByLayer
370
-1
48
1.0
60
0
100
AcDbText
1
33
10
748593.500000458
20
8930174.62600011
30
190.629999997616
40
0.3
41
1.0
50
0.0
51
0.0
7
Standard
11
748593.500000458
21
8930174.62600011
31
190.629999997616
210
0.0
220
0.0
230
1.0
72
0
100
AcDbText
73
0
0
TEXT
5
C8
330
1A
100
AcDbEntity
67
0
8
label
62
1
420
16711680
6
ByLayer
370
-1
48
1.0
60
0
100
AcDbText
1

10
748593.500000458
20
8930175.02600011
30
190.629999997616
40
0.3
41
1.0
50
0.0
51
0.0
7
Standard
11
748593.500000458
21
8930175.02600011
31
190.629999997616
210
0.0
220
0.0
230
1.0
72
0
100
AcDbText
73
0
0
TEXT
5
C9
330
1A
100
AcDbEntity
67
0
8
Length
62
40
420
16760832
6
ByLayer
370
-1
48
1.0
60
0
100
AcDbText
1
10.93
10
748593.500000458
20
8930173.61600012
30
190.629999997616
40
0.3
41
1.0
50
0.0
51
0.0
7
Standard
11
748593.500000458
21
8930173.61600012
31
190.629999997616
210
0.0
220
0.0
230
1.0
72
0
100
AcDbText
73
0
0
POINT
5
CA
330
1A
100
AcDbEntity
67
0
8
Hole
62
40
420
16760832
6
ByLayer
370
-1
48
1.0
60
0
100
AcDbPoint
10
748592.709999542
20
8930175.22999996
30
190.639999988079
39
0.0
210
0.0
220
0.0
230
1.0
50
360.0
0
LINE
5
CB
330
1A
100
AcDbEntity
67
0
8
Theoretical Hole
62
40
420
16760832
6
ByLayer
370
-1
48
1.0
60
0
100
AcDbLine
10
748592.709999542
20
8930175.22999996
30
190.639999988079
11
748594.657368164
21
8930176.83528656
31
180.005351486206
39
0.0
210
0.0
220
0.0
230
1.0
0
TEXT
5
CC
330
1A
100
AcDbEntity
67
0
8
Number
62
40
420
16760832
6
ByLayer
370
-1
48
1.0
60
0
100
AcDbText
1
34
10
748592.709999542
20
8930175.53599996
30
190.639999988079
40
0.3
41
1.0
50
0.0
51
0.0
7
Standard
11
748592.709999542
21
8930175.53599996
31
190.639999988079
210
0.0
220
0.0
230
1.0
72
0
100
AcDbText
73
0
0
TEXT
5
CD
330
1A
100
AcDbEntity
67
0
8
label
62
1
420
16711680
6
ByLayer
370
-1
48
1.0
60
0
100
AcDbText
1

10
748592.709999542
20
8930175.93599996
30
190.639999988079
40
0.3
41
1.0
50
0.0
51
0.0
7
Standard
11
748592.709999542
21
8930175.93599996
31
190.639999988079
210
0.0
220
0.0
230
1.0
72
0
100
AcDbText
73
0
0
TEXT
5
CE
330
1A
100
AcDbEntity
67
0
8
Length
62
40
420
16760832
6
ByLayer
370
-1
48
1.0
60
0
100
AcDbText
1
10.93
10
748592.709999542
20
8930174.52599997
30
190.639999988079
40
0.3
41
1.0
50
0.0
51
0.0
7
Standard
11
748592.709999542
21
8930174.52599997
31
190.639999988079
210
0.0
220
0.0
230
1.0
72
0
100
AcDbText
73
0
0
POINT
5
CF
330
1A
100
AcDbEntity
67
0
8
Hole
62
40
420
16760832
6
ByLayer
370
-1
48
1.0
60
0
100
AcDbPoint
10
748591.950000267
20
8930176.15000004
30
190.729999961853
39
0.0
210
0.0
220
0.0
230
1.0
50
360.0
0
LINE
5
D0
330
1A
100
AcDbEntity
67
0
8
Theoretical Hole
62
40
420
16760832
6
ByLayer
370
-1
48
1.0
60
0
100
AcDbLine
10
748591.950000267
20
8930176.15000004
30
190.729999961853
11
748593.9096875
21
8930177.72562927
31
180.000720443726
39
0.0
210
0.0
220
0.0
230
1.0
0
TEXT
5
D1
330
1A
100
AcDbEntity
67
0
8
Number
62
40
420
16760832
6
ByLayer
370
-1
48
1.0
60
0
100
AcDbText
1
35
10
748591.950000267
20
8930176.45600003
30
190.729999961853
40
0.3
41
1.0
50
0.0
51
0.0
7
Standard
11
748591.950000267
21
8930176.45600003
31
190.729999961853
210
0.0
220
0.0
230
1.0
72
0
100
AcDbText
73
0
0
TEXT
5
D2
330
1A
100
AcDbEntity
67
0
8
label
62
1
420
16711680
6
ByLayer
370
-1
48
1.0
60
0
100
AcDbText
1

10
748591.950000267
20
8930176.85600003
30
190.729999961853
40
0.3
41
1.0
50
0.0
51
0.0
7
Standard
11
748591.950000267
21
8930176.85600003
31
190.729999961853
210
0.0
220
0.0
230
1.0
72
0
100
AcDbText
73
0
0
TEXT
5
D3
330
1A
100
AcDbEntity
67
0
8
Length
62
40
420
16760832
6
ByLayer
370
-1
48
1.0
60
0
100
AcDbText
1
11.02
10
748591.950000267
20
8930175.44600004
30
190.729999961853
40
0.3
41
1.0
50
0.0
51
0.0
7
Standard
11
748591.950000267
21
8930175.44600004
31
190.729999961853
210
0.0
220
0.0
230
1.0
72
0
100
AcDbText
73
0
0
POINT
5
D4
330
1A
100
AcDbEntity
67
0
8
Hole
62
40
420
16760832
6
ByLayer
370
-1
48
1.0
60
0
100
AcDbPoint
10
748591.200000267
20
8930177.08999962
30
190.979999961853
39
0.0
210
0.0
220
0.0
230
1.0
50
360.0
0
LINE
5
D5
330
1A
100
AcDbEntity
67
0
8
Theoretical Hole
62
40
420
16760832
6
ByLayer
370
-1
48
1.0
60
0
100
AcDbLine
10
748591.200000267
20
8930177.08999962
30
190.979999961853
11
748593.175719719
21
8930178.63804764
31
180.003313484192
39
0.0
210
0.0
220
0.0
230
1.0
0
TEXT
5
D6
330
1A
100
AcDbEntity
67
0
8
Number
62
40
420
16760832
6
ByLayer
370
-1
48
1.0
60
0
100
AcDbText
1
36
10
748591.200000267
20
8930177.39599961
30
190.979999961853
40
0.3
41
1.0
50
0.0
51
0.0
7
Standard
11
748591.200000267
21
8930177.39599961
31
190.979999961853
210
0.0
220
0.0
230
1.0
72
0
100
AcDbText
73
0
0
TEXT
5
D7
330
1A
100
AcDbEntity
67
0
8
label
62
1
420
16711680
6
ByLayer
370
-1
48
1.0
60
0
100
AcDbText
1

10
748591.200000267
20
8930177.79599961
30
190.979999961853
40
0.3
41
1.0
50
0.0
51
0.0
7
Standard
11
748591.200000267
21
8930177.79599961
31
190.979999961853
210
0.0
220
0.0
230
1.0
72
0
100
AcDbText
73
0
0
TEXT
5
D8
330
1A
100
AcDbEntity
67
0
8
Length
62
40
420
16760832
6
ByLayer
370
-1
48
1.0
60
0
100
AcDbText
1
11.26
10
748591.200000267
20
8930176.38599962
30
190.979999961853
40
0.3
41
1.0
50
0.0
51
0.0
7
Standard
11
748591.200000267
21
8930176.38599962
31
190.979999961853
210
0.0
220
0.0
230
1.0
72
0
100
AcDbText
73
0
0
POINT
5
D9
330
1A
100
AcDbEntity
67
0
8
Hole
62
40
420
16760832
6
ByLayer
370
-1
48
1.0
60
0
100
AcDbPoint
10
748590.460000019
20
8930178.03000015
30
191.369999947548
39
0.0
210
0.0
220
0.0
230
1.0
50
360.0
0
LINE
5
DA
330
1A
100
AcDbEntity
67
0
8
Theoretical Hole
62
40
420
16760832
6
ByLayer
370
-1
48
1.0
60
0
100
AcDbLine
10
748590.460000019
20
8930178.03000015
30
191.369999947548
11
748592.485149841
21
8930179.54225105
31
179.997473182678
39
0.0
210
0.0
220
0.0
230
1.0
0
TEXT
5
DB
330
1A
100
AcDbEntity
67
0
8
Number
62
40
420
16760832
6
ByLayer
370
-1
48
1.0
60
0
100
AcDbText
1
37
10
748590.460000019
20
8930178.33600015
30
191.369999947548
40
0.3
41
1.0
50
0.0
51
0.0
7
Standard
11
748590.460000019
21
8930178.33600015
31
191.369999947548
210
0.0
220
0.0
230
1.0
72
0
100
AcDbText
73
0
0
TEXT
5
DC
330
1A
100
AcDbEntity
67
0
8
label
62
1
420
16711680
6
ByLayer
370
-1
48
1.0
60
0
100
AcDbText
1

10
748590.460000019
20
8930178.73600015
30
191.369999947548
40
0.3
41
1.0
50
0.0
51
0.0
7
Standard
11
748590.460000019
21
8930178.73600015
31
191.369999947548
210
0.0
220
0.0
230
1.0
72
0
100
AcDbText
73
0
0
TEXT
5
DD
330
1A
100
AcDbEntity
67
0
8
Length
62
40
420
16760832
6
ByLayer
370
-1
48
1.0
60
0
100
AcDbText
1
11.65
10
748590.460000019
20
8930177.32600016
30
191.369999947548
40
0.3
41
1.0
50
0.0
51
0.0
7
Standard
11
748590.460000019
21
8930177.32600016
31
191.369999947548
210
0.0
220
0.0
230
1.0
72
0
100
AcDbText
73
0
0
POINT
5
DE
330
1A
100
AcDbEntity
67
0
8
Hole
62
40
420
16760832
6
ByLayer
370
-1
48
1.0
60
0
100
AcDbPoint
10
748589.740000229
20
8930178.98999924
30
191.63000005722
39
0.0
210
0.0
220
0.0
230
1.0
50
360.0
0
LINE
5
DF
330
1A
100
AcDbEntity
67
0
8
Theoretical Hole
62
40
420
16760832
6
ByLayer
370
-1
48
1.0
60
0
100
AcDbLine
10
748589.740000229
20
8930178.98999924
30
191.63000005722
11
748591.771757584
21
8930180.50608009
31
180.003158035278
39
0.0
210
0.0
220
0.0
230
1.0
0
TEXT
5
E0
330
1A
100
AcDbEntity
67
0
8
Number
62
40
420
16760832
6
ByLayer
370
-1
48
1.0
60
0
100
AcDbText
1
38
10
748589.740000229
20
8930179.29599923
30
191.63000005722
40
0.3
41
1.0
50
0.0
51
0.0
7
Standard
11
748589.740000229
21
8930179.29599923
31
191.63000005722
210
0.0
220
0.0
230
1.0
72
0
100
AcDbText
73
0
0
TEXT
5
E1
330
1A
100
AcDbEntity
67
0
8
label
62
1
420
16711680
6
ByLayer
370
-1
48
1.0
60
0
100
AcDbText
1

10
748589.740000229
20
8930179.69599923
30
191.63000005722
40
0.3
41
1.0
50
0.0
51
0.0
7
Standard
11
748589.740000229
21
8930179.69599923
31
191.63000005722
210
0.0
220
0.0
230
1.0
72
0
100
AcDbText
73
0
0
TEXT
5
E2
330
1A
100
AcDbEntity
67
0
8
Length
62
40
420
16760832
6
ByLayer
370
-1
48
1.0
60
0
100
AcDbText
1
11.90
10
748589.740000229
20
8930178.28599924
30
191.63000005722
40
0.3
41
1.0
50
0.0
51
0.0
7
Standard
11
748589.740000229
21
8930178.28599924
31
191.63000005722
210
0.0
220
0.0
230
1.0
72
0
100
AcDbText
73
0
0
POINT
5
E3
330
1A
100
AcDbEntity
67
0
8
Hole
62
40
420
16760832
6
ByLayer
370
-1
48
1.0
60
0
100
AcDbPoint
10
748589.019999962
20
8930179.95000023
30
191.63000005722
39
0.0
210
0.0
220
0.0
230
1.0
50
360.0
0
LINE
5
E4
330
1A
100
AcDbEntity
67
0
8
Theoretical Hole
62
40
420
16760832
6
ByLayer
370
-1
48
1.0
60
0
100
AcDbLine
10
748589.019999962
20
8930179.95000023
30
191.63000005722
11
748591.071632843
21
8930181.48035377
31
179.998280944824
39
0.0
210
0.0
220
0.0
230
1.0
0
TEXT
5
E5
330
1A
100
AcDbEntity
67
0
8
Number
62
40
420
16760832
6
ByLayer
370
-1
48
1.0
60
0
100
AcDbText
1
39
10
748589.019999962
20
8930180.25600022
30
191.63000005722
40
0.3
41
1.0
50
0.0
51
0.0
7
Standard
11
748589.019999962
21
8930180.25600022
31
191.63000005722
210
0.0
220
0.0
230
1.0
72
0
100
AcDbText
73
0
0
TEXT
5
E6
330
1A
100
AcDbEntity
67
0
8
label
62
1
420
16711680
6
ByLayer
370
-1
48
1.0
60
0
100
AcDbText
1

10
748589.019999962
20
8930180.65600022
30
191.63000005722
40
0.3
41
1.0
50
0.0
51
0.0
7
Standard
11
748589.019999962
21
8930180.65600022
31
191.63000005722
210
0.0
220
0.0
230
1.0
72
0
100
AcDbText
73
0
0
TEXT
5
E7
330
1A
100
AcDbEntity
67
0
8
Length
62
40
420
16760832
6
ByLayer
370
-1
48
1.0
60
0
100
AcDbText
1
11.91
10
748589.019999962
20
8930179.24600023
30
191.63000005722
40
0.3
41
1.0
50
0.0
51
0.0
7
Standard
11
748589.019999962
21
8930179.24600023
31
191.63000005722
210
0.0
220
0.0
230
1.0
72
0
100
AcDbText
73
0
0
POINT
5
E8
330
1A
100
AcDbEntity
67
0
8
Hole
62
40
420
16760832
6
ByLayer
370
-1
48
1.0
60
0
100
AcDbPoint
10
748588.300000172
20
8930180.91999954
30
191.199999990463
39
0.0
210
0.0
220
0.0
230
1.0
50
360.0
0
LINE
5
E9
330
1A
100
AcDbEntity
67
0
8
Theoretical Hole
62
40
420
16760832
6
ByLayer
370
-1
48
1.0
60
0
100
AcDbLine
10
748588.300000172
20
8930180.91999954
30
191.199999990463
11
748590.400715809
21
8930182.45636505
31
179.998366775513
39
0.0
210
0.0
220
0.0
230
1.0
0
TEXT
5
EA
330
1A
100
AcDbEntity
67
0
8
Number
62
40
420
16760832
6
ByLayer
370
-1
48
1.0
60
0
100
AcDbText
1
40
10
748588.300000172
20
8930181.22599954
30
191.199999990463
40
0.3
41
1.0
50
0.0
51
0.0
7
Standard
11
748588.300000172
21
8930181.22599954
31
191.199999990463
210
0.0
220
0.0
230
1.0
72
0
100
AcDbText
73
0
0
TEXT
5
EB
330
1A
100
AcDbEntity
67
0
8
label
62
1
420
16711680
6
ByLayer
370
-1
48
1.0
60
0
100
AcDbText
1

10
748588.300000172
20
8930181.62599954
30
191.199999990463
40
0.3
41
1.0
50
0.0
51
0.0
7
Standard
11
748588.300000172
21
8930181.62599954
31
191.199999990463
210
0.0
220
0.0
230
1.0
72
0
100
AcDbText
73
0
0
TEXT
5
EC
330
1A
100
AcDbEntity
67
0
8
Length
62
40
420
16760832
6
ByLayer
370
-1
48
1.0
60
0
100
AcDbText
1
11.50
10
748588.300000172
20
8930180.21599955
30
191.199999990463
40
0.3
41
1.0
50
0.0
51
0.0
7
Standard
11
748588.300000172
21
8930180.21599955
31
191.199999990463
210
0.0
220
0.0
230
1.0
72
0
100
AcDbText
73
0
0
POINT
5
ED
330
1A
100
AcDbEntity
67
0
8
Hole
62
40
420
16760832
6
ByLayer
370
-1
48
1.0
60
0
100
AcDbPoint
10
748587.590000134
20
8930181.88000053
30
190.709999980927
39
0.0
210
0.0
220
0.0
230
1.0
50
360.0
0
LINE
5
EE
330
1A
100
AcDbEntity
67
0
8
Theoretical Hole
62
40
420
16760832
6
ByLayer
370
-1
48
1.0
60
0
100
AcDbLine
10
748587.590000134
20
8930181.88000053
30
190.709999980927
11
748589.724235992
21
8930183.44088119
31
180.001611175537
39
0.0
210
0.0
220
0.0
230
1.0
0
TEXT
5
EF
330
1A
100
AcDbEntity
67
0
8
Number
62
40
420
16760832
6
ByLayer
370
-1
48
1.0
60
0
100
AcDbText
1
41
10
748587.590000134
20
8930182.18600053
30
190.709999980927
40
0.3
41
1.0
50
0.0
51
0.0
7
Standard
11
748587.590000134
21
8930182.18600053
31
190.709999980927
210
0.0
220
0.0
230
1.0
72
0
100
AcDbText
73
0
0
TEXT
5
F0
330
1A
100
AcDbEntity
67
0
8
label
62
1
420
16711680
6
ByLayer
370
-1
48
1.0
60
0
100
AcDbText
1

10
748587.590000134
20
8930182.58600053
30
190.709999980927
40
0.3
41
1.0
50
0.0
51
0.0
7
Standard
11
748587.590000134
21
8930182.58600053
31
190.709999980927
210
0.0
220
0.0
230
1.0
72
0
100
AcDbText
73
0
0
TEXT
5
F1
330
1A
100
AcDbEntity
67
0
8
Length
62
40
420
16760832
6
ByLayer
370
-1
48
1.0
60
0
100
AcDbText
1
11.03
10
748587.590000134
20
8930181.17600054
30
190.709999980927
40
0.3
41
1.0
50
0.0
51
0.0
7
Standard
11
748587.590000134
21
8930181.17600054
31
190.709999980927
210
0.0
220
0.0
230
1.0
72
0
100
AcDbText
73
0
0
POINT
5
F2
330
1A
100
AcDbEntity
67
0
8
Hole
62
40
420
16760832
6
ByLayer
370
-1
48
1.0
60
0
100
AcDbPoint
10
748586.889999847
20
8930182.84999985
30
190.46999997139
39
0.0
210
0.0
220
0.0
230
1.0
50
360.0
0
LINE
5
F3
330
1A
100
AcDbEntity
67
0
8
Theoretical Hole
62
40
420
16760832
6
ByLayer
370
-1
48
1.0
60
0
100
AcDbLine
10
748586.889999847
20
8930182.84999985
30
190.46999997139
11
748589.061410408
21
8930184.43806786
31
180.000086250305
39
0.0
210
0.0
220
0.0
230
1.0
0
TEXT
5
F4
330
1A
100
AcDbEntity
67
0
8
Number
62
40
420
16760832
6
ByLayer
370
-1
48
1.0
60
0
100
AcDbText
1
42
10
748586.889999847
20
8930183.15599984
30
190.46999997139
40
0.3
41
1.0
50
0.0
51
0.0
7
Standard
11
748586.889999847
21
8930183.15599984
31
190.46999997139
210
0.0
220
0.0
230
1.0
72
0
100
AcDbText
73
0
0
TEXT
5
F5
330
1A
100
AcDbEntity
67
0
8
label
62
1
420
16711680
6
ByLayer
370
-1
48
1.0
60
0
100
AcDbText
1

10
748586.889999847
20
8930183.55599984
30
190.46999997139
40
0.3
41
1.0
50
0.0
51
0.0
7
Standard
11
748586.889999847
21
8930183.55599984
31
190.46999997139
210
0.0
220
0.0
230
1.0
72
0
100
AcDbText
73
0
0
TEXT
5
F6
330
1A
100
AcDbEntity
67
0
8
Length
62
40
420
16760832
6
ByLayer
370
-1
48
1.0
60
0
100
AcDbText
1
10.81
10
748586.889999847
20
8930182.14599985
30
190.46999997139
40
0.3
41
1.0
50
0.0
51
0.0
7
Standard
11
748586.889999847
21
8930182.14599985
31
190.46999997139
210
0.0
220
0.0
230
1.0
72
0
100
AcDbText
73
0
0
POINT
5
F7
330
1A
100
AcDbEntity
67
0
8
Hole
62
40
420
16760832
6
ByLayer
370
-1
48
1.0
60
0
100
AcDbPoint
10
748586.180000048
20
8930183.81999916
30
190.449999990463
39
0.0
210
0.0
220
0.0
230
1.0
50
360.0
0
LINE
5
F8
330
1A
100
AcDbEntity
67
0
8
Theoretical Hole
62
40
420
16760832
6
ByLayer
370
-1
48
1.0
60
0
100
AcDbLine
10
748586.180000048
20
8930183.81999916
30
190.449999990463
11
748588.392108898
21
8930185.43783325
31
180.003508033752
39
0.0
210
0.0
220
0.0
230
1.0
0
TEXT
5
F9
330
1A
100
AcDbEntity
67
0
8
Number
62
40
420
16760832
6
ByLayer
370
-1
48
1.0
60
0
100
AcDbText
1
43
10
748586.180000048
20
8930184.12599915
30
190.449999990463
40
0.3
41
1.0
50
0.0
51
0.0
7
Standard
11
748586.180000048
21
8930184.12599915
31
190.449999990463
210
0.0
220
0.0
230
1.0
72
0
100
AcDbText
73
0
0
TEXT
5
FA
330
1A
100
AcDbEntity
67
0
8
label
62
1
420
16711680
6
ByLayer
370
-1
48
1.0
60
0
100
AcDbText
1

10
748586.180000048
20
8930184.52599915
30
190.449999990463
40
0.3
41
1.0
50
0.0
51
0.0
7
Standard
11
748586.180000048
21
8930184.52599915
31
190.449999990463
210
0.0
220
0.0
230
1.0
72
0
100
AcDbText
73
0
0
TEXT
5
FB
330
1A
100
AcDbEntity
67
0
8
Length
62
40
420
16760832
6
ByLayer
370
-1
48
1.0
60
0
100
AcDbText
1
10.80
10
748586.180000048
20
8930183.11599916
30
190.449999990463
40
0.3
41
1.0
50
0.0
51
0.0
7
Standard
11
748586.180000048
21
8930183.11599916
31
190.449999990463
210
0.0
220
0.0
230
1.0
72
0
100
AcDbText
73
0
0
POINT
5
FC
330
1A
100
AcDbEntity
67
0
8
Hole
62
40
420
16760832
6
ByLayer
370
-1
48
1.0
60
0
100
AcDbPoint
10
748585.47000001
20
8930184.79000038
30
190.46999997139
39
0.0
210
0.0
220
0.0
230
1.0
50
360.0
0
LINE
5
FD
330
1A
100
AcDbEntity
67
0
8
Theoretical Hole
62
40
420
16760832
6
ByLayer
370
-1
48
1.0
60
0
100
AcDbLine
10
748585.47000001
20
8930184.79000038
30
190.46999997139
11
748587.700973968
21
8930186.45049614
31
180.003175201416
39
0.0
210
0.0
220
0.0
230
1.0
0
TEXT
5
FE
330
1A
100
AcDbEntity
67
0
8
Number
62
40
420
16760832
6
ByLayer
370
-1
48
1.0
60
0
100
AcDbText
1
44
10
748585.47000001
20
8930185.09600038
30
190.46999997139
40
0.3
41
1.0
50
0.0
51
0.0
7
Standard
11
748585.47000001
21
8930185.09600038
31
190.46999997139
210
0.0
220
0.0
230
1.0
72
0
100
AcDbText
73
0
0
TEXT
5
FF
330
1A
100
AcDbEntity
67
0
8
label
62
1
420
16711680
6
ByLayer
370
-1
48
1.0
60
0
100
AcDbText
1

10
748585.47000001
20
8930185.49600038
30
190.46999997139
40
0.3
41
1.0
50
0.0
51
0.0
7
Standard
11
748585.47000001
21
8930185.49600038
31
190.46999997139
210
0.0
220
0.0
230
1.0
72
0
100
AcDbText
73
0
0
TEXT
5
100
330
1A
100
AcDbEntity
67
0
8
Length
62
40
420
16760832
6
ByLayer
370
-1
48
1.0
60
0
100
AcDbText
1
10.83
10
748585.47000001
20
8930184.08600038
30
190.46999997139
40
0.3
41
1.0
50
0.0
51
0.0
7
Standard
11
748585.47000001
21
8930184.08600038
31
190.46999997139
210
0.0
220
0.0
230
1.0
72
0
100
AcDbText
73
0
0
POINT
5
101
330
1A
100
AcDbEntity
67
0
8
Hole
62
40
420
16760832
6
ByLayer
370
-1
48
1.0
60
0
100
AcDbPoint
10
748584.749999981
20
8930185.74999947
30
190.430000009537
39
0.0
210
0.0
220
0.0
230
1.0
50
360.0
0
LINE
5
102
330
1A
100
AcDbEntity
67
0
8
Theoretical Hole
62
40
420
16760832
6
ByLayer
370
-1
48
1.0
60
0
100
AcDbLine
10
748584.749999981
20
8930185.74999947
30
190.430000009537
11
748586.99630497
21
8930187.45133347
31
179.993731918335
39
0.0
210
0.0
220
0.0
230
1.0
0
TEXT
5
103
330
1A
100
AcDbEntity
67
0
8
Number
62
40
420
16760832
6
ByLayer
370
-1
48
1.0
60
0
100
AcDbText
1
45
10
748584.749999981
20
8930186.05599946
30
190.430000009537
40
0.3
41
1.0
50
0.0
51
0.0
7
Standard
11
748584.749999981
21
8930186.05599946
31
190.430000009537
210
0.0
220
0.0
230
1.0
72
0
100
AcDbText
73
0
0
TEXT
5
104
330
1A
100
AcDbEntity
67
0
8
label
62
1
420
16711680
6
ByLayer
370
-1
48
1.0
60
0
100
AcDbText
1

10
748584.749999981
20
8930186.45599946
30
190.430000009537
40
0.3
41
1.0
50
0.0
51
0.0
7
Standard
11
748584.749999981
21
8930186.45599946
31
190.430000009537
210
0.0
220
0.0
230
1.0
72
0
100
AcDbText
73
0
0
TEXT
5
105
330
1A
100
AcDbEntity
67
0
8
Length
62
40
420
16760832
6
ByLayer
370
-1
48
1.0
60
0
100
AcDbText
1
10.81
10
748584.749999981
20
8930185.04599947
30
190.430000009537
40
0.3
41
1.0
50
0.0
51
0.0
7
Standard
11
748584.749999981
21
8930185.04599947
31
190.430000009537
210
0.0
220
0.0
230
1.0
72
0
100
AcDbText
73
0
0
POINT
5
106
330
1A
100
AcDbEntity
67
0
8
Hole
62
40
420
16760832
6
ByLayer
370
-1
48
1.0
60
0
100
AcDbPoint
10
748584.029999952
20
8930186.71000046
30
190.310000004768
39
0.0
210
0.0
220
0.0
230
1.0
50
360.0
0
LINE
5
107
330
1A
100
AcDbEntity
67
0
8
Theoretical Hole
62
40
420
16760832
6
ByLayer
370
-1
48
1.0
60
0
100
AcDbLine
10
748584.029999952
20
8930186.71000046
30
190.310000004768
11
748586.236357908
21
8930188.49476189
31
179.993188323975
39
0.0
210
0.0
220
0.0
230
1.0
0
TEXT
5
108
330
1A
100
AcDbEntity
67
0
8
Number
62
40
420
16760832
6
ByLayer
370
-1
48
1.0
60
0
100
AcDbText
1
46
10
748584.029999952
20
8930187.01600045
30
190.310000004768
40
0.3
41
1.0
50
0.0
51
0.0
7
Standard
11
748584.029999952
21
8930187.01600045
31
190.310000004768
210
0.0
220
0.0
230
1.0
72
0
100
AcDbText
73
0
0
TEXT
5
109
330
1A
100
AcDbEntity
67
0
8
label
62
1
420
16711680
6
ByLayer
370
-1
48
1.0
60
0
100
AcDbText
1

10
748584.029999952
20
8930187.41600045
30
190.310000004768
40
0.3
41
1.0
50
0.0
51
0.0
7
Standard
11
748584.029999952
21
8930187.41600045
31
190.310000004768
210
0.0
220
0.0
230
1.0
72
0
100
AcDbText
73
0
0
TEXT
5
10A
330
1A
100
AcDbEntity
67
0
8
Length
62
40
420
16760832
6
ByLayer
370
-1
48
1.0
60
0
100
AcDbText
1
10.70
10
748584.029999952
20
8930186.00600046
30
190.310000004768
40
0.3
41
1.0
50
0.0
51
0.0
7
Standard
11
748584.029999952
21
8930186.00600046
31
190.310000004768
210
0.0
220
0.0
230
1.0
72
0
100
AcDbText
73
0
0
POINT
5
10B
330
1A
100
AcDbEntity
67
0
8
Hole
62
40
420
16760832
6
ByLayer
370
-1
48
1.0
60
0
100
AcDbPoint
10
748583.270000021
20
8930187.64000076
30
190.139999988079
39
0.0
210
0.0
220
0.0
230
1.0
50
360.0
0
LINE
5
10C
330
1A
100
AcDbEntity
67
0
8
Theoretical Hole
62
40
420
16760832
6
ByLayer
370
-1
48
1.0
60
0
100
AcDbLine
10
748583.270000021
20
8930187.64000076
30
190.139999988079
11
748585.413598518
21
8930189.51459831
31
180.002358856201
39
0.0
210
0.0
220
0.0
230
1.0
0
TEXT
5
10D
330
1A
100
AcDbEntity
67
0
8
Number
62
40
420
16760832
6
ByLayer
370
-1
48
1.0
60
0
100
AcDbText
1
47
10
748583.270000021
20
8930187.94600076
30
190.139999988079
40
0.3
41
1.0
50
0.0
51
0.0
7
Standard
11
748583.270000021
21
8930187.94600076
31
190.139999988079
210
0.0
220
0.0
230
1.0
72
0
100
AcDbText
73
0
0
TEXT
5
10E
330
1A
100
AcDbEntity
67
0
8
label
62
1
420
16711680
6
ByLayer
370
-1
48
1.0
60
0
100
AcDbText
1

10
748583.270000021
20
8930188.34600076
30
190.139999988079
40
0.3
41
1.0
50
0.0
51
0.0
7
Standard
11
748583.270000021
21
8930188.34600076
31
190.139999988079
210
0.0
220
0.0
230
1.0
72
0
100
AcDbText
73
0
0
TEXT
5
10F
330
1A
100
AcDbEntity
67
0
8
Length
62
40
420
16760832
6
ByLayer
370
-1
48
1.0
60
0
100
AcDbText
1
10.53
10
748583.270000021
20
8930186.93600077
30
190.139999988079
40
0.3
41
1.0
50
0.0
51
0.0
7
Standard
11
748583.270000021
21
8930186.93600077
31
190.139999988079
210
0.0
220
0.0
230
1.0
72
0
100
AcDbText
73
0
0
POINT
5
110
330
1A
100
AcDbEntity
67
0
8
Hole
62
40
420
16760832
6
ByLayer
370
-1
48
1.0
60
0
100
AcDbPoint
10
748582.48
20
8930188.55000061
30
189.94
39
0.0
210
0.0
220
0.0
230
1.0
50
360.0
0
LINE
5
111
330
1A
100
AcDbEntity
67
0
8
Theoretical Hole
62
40
420
16760832
6
ByLayer
370
-1
48
1.0
60
0
100
AcDbLine
10
748582.48
20
8930188.55000061
30
189.94
11
748584.606184463
21
8930190.40936798
31
180.024446907043
39
0.0
210
0.0
220
0.0
230
1.0
0
TEXT
5
112
330
1A
100
AcDbEntity
67
0
8
Number
62
40
420
16760832
6
ByLayer
370
-1
48
1.0
60
0
100
AcDbText
1
48
10
748582.48
20
8930188.8560006
30
189.94
40
0.3
41
1.0
50
0.0
51
0.0
7
Standard
11
748582.48
21
8930188.8560006
31
189.94
210
0.0
220
0.0
230
1.0
72
0
100
AcDbText
73
0
0
TEXT
5
113
330
1A
100
AcDbEntity
67
0
8
label
62
1
420
16711680
6
ByLayer
370
-1
48
1.0
60
0
100
AcDbText
1

10
748582.48
20
8930189.2560006
30
189.94
40
0.3
41
1.0
50
0.0
51
0.0
7
Standard
11
748582.48
21
8930189.2560006
31
189.94
210
0.0
220
0.0
230
1.0
72
0
100
AcDbText
73
0
0
TEXT
5
114
330
1A
100
AcDbEntity
67
0
8
Length
62
40
420
16760832
6
ByLayer
370
-1
48
1.0
60
0
100
AcDbText
1
10.31
10
748582.48
20
8930187.84600061
30
189.94
40
0.3
41
1.0
50
0.0
51
0.0
7
Standard
11
748582.48
21
8930187.84600061
31
189.94
210
0.0
220
0.0
230
1.0
72
0
100
AcDbText
73
0
0
VIEWPORT
5
119
330
115
100
AcDbEntity
67
1
8
0
62
256
6
ByLayer
370
-1
48
1.0
60
0
100
AcDbViewport
10
0.0
20
0.0
30
0.0
40
297.0
41
210.0
68
1
69
1
12
50.0
22
100.0
13
0.0
23
0.0
14
10.0
24
10.0
15
10.0
25
10.0
16
0.0
26
0.0
36
1.0
17
0.0
27
0.0
37
0.0
42
50.0
43
0.0
44
0.0
45
250.0
50
0.0
51
0.0
72
1000
90
819232
110
0.0
120
0.0
130
0.0
111
1.0
121
0.0
131
0.0
112
0.0
122
1.0
132
0.0
0
ENDSEC
0
SECTION
2
OBJECTS
0
DICTIONARY
5
11E
330
0
100
AcDbDictionary
280
0
281
1
3
ACAD_GROUP
350
11F
3
ACAD_LAYOUT
350
120
3
ACAD_MLINESTYLE
350
124
0
DICTIONARY
5
11F
330
11E
100
AcDbDictionary
280
0
281
1
0
DICTIONARY
5
120
330
11E
100
AcDbDictionary
280
0
281
1
3
Model
350
1E
3
Layout1
350
11A
0
DICTIONARY
5
124
330
11E
100
AcDbDictionary
280
0
281
1
3
Standard
350
19
0
LAYOUT
5
1E
330
120
100
AcDbPlotSettings
1

2
none_device
4
ISO_A4_(210.00_x_297.00_MM)
6

40
7.5
41
20.0
42
7.5
43
20.0
44
210.0
45
297.0
46
0.0
47
0.0
48
0.0
49
0.0
140
0.0
141
0.0
142
1.0
143
1.0
70
11952
72
1
73
1
74
5
7

75
16
147
1.0
148
0.0
149
0.0
100
AcDbLayout
1
Model
70
1
71
0
10
-20.0
20
-7.5
11
277.0
21
202.5
12
0.0
22
0.0
32
0.0
14
25.7
24
19.5
34
0.0
15
231.3
25
175.5
35
0.0
146
0.0
13
0.0
23
0.0
33
0.0
16
1.0
26
0.0
36
0.0
17
0.0
27
1.0
37
0.0
76
0
330
1A
0
LAYOUT
5
11A
330
120
100
AcDbPlotSettings
1

2
none_device
4
ISO_A4_(210.00_x_297.00_MM)
6

40
7.5
41
20.0
42
7.5
43
20.0
44
210.0
45
297.0
46
0.0
47
0.0
48
0.0
49
0.0
140
0.0
141
0.0
142
1.0
143
1.0
70
688
72
1
73
1
74
5
7

75
16
147
1.0
148
0.0
149
0.0
100
AcDbLayout
1
Layout1
70
1
71
1
10
-20.0
20
-7.5
11
277.0
21
202.5
12
0.0
22
0.0
32
0.0
14
25.7
24
19.5
34
0.0
15
231.3
25
175.5
35
0.0
146
0.0
13
0.0
23
0.0
33
0.0
16
1.0
26
0.0
36
0.0
17
0.0
27
1.0
37
0.0
76
0
330
115
0
MLINESTYLE
5
19
330
124
100
AcDbMlineStyle
2
Standard
70
0
3

62
256
51
90.0
52
90.0
71
2
49
-0.5
62
256
6
ByLayer
49
0.5
62
256
6
ByLayer
0
ENDSEC
0
EOF
