999
Dxf file generated by netDxf https://netdxf.codeplex.com, Copyright(C) 2015 Daniel Carvajal, Licensed under LGPL
0
SECTION
2
HEADER
9
$ACADVER
1
AC1015
9
$DWGCODEPAGE
3
ANSI_1252
9
$HANDSEED
5
2AF
9
$ANGBASE
50
0.0
9
$ANGDIR
70
0
9
$ATTMODE
70
1
9
$AUNITS
70
0
9
$AUPREC
70
0
9
$CECOLOR
62
256
9
$CELTSCALE
40
1.0
9
$CELTYPE
6
ByLayer
9
$CELWEIGHT
370
-1
9
$CLAYER
8
0
9
$CMLJUST
70
0
9
$CMLSCALE
40
20.0
9
$CMLSTYLE
2
Standard
9
$DIMSTYLE
2
Standard
9
$TEXTSIZE
40
2.5
9
$TEXTSTYLE
7
Standard
9
$LUNITS
70
2
9
$LUPREC
70
4
9
$EXTNAMES
290
1
9
$INSBASE
10
0.0
20
0.0
30
0.0
9
$INSUNITS
70
0
9
$LTSCALE
40
1.0
9
$LWDISPLAY
290
0
9
$PDMODE
70
0
9
$PDSIZE
40
0.0
9
$PLINEGEN
70
0
9
$PSLTSCALE
70
1
9
$TDCREATE
40
2461225.43865983
9
$TDUCREATE
40
2461225.56365983
9
$TDUPDATE
40
2461225.43865983
9
$TDUUPDATE
40
2461225.56365983
9
$TDINDWG
40
0.0
9
$DIMADEC
70
0
9
$DIMAUNIT
70
0
9
$DIMASZ
40
0.18
9
$DIMAZIN
70
0
9
$DIMBLK
1

9
$DIMBLK1
1

9
$DIMBLK2
1

9
$DIMLDRBLK
1

9
$DIMCEN
40
0.09
9
$DIMCLRD
70
0
9
$DIMCLRE
70
0
9
$DIMCLRT
70
0
9
$DIMDEC
70
2
9
$DIMDLE
40
0.0
9
$DIMDLI
40
0.38
9
$DIMDSEP
70
46
9
$DIMEXE
40
0.18
9
$DIMEXO
40
0.0625
9
$DIMGAP
40
0.09
9
$DIMJUST
70
0
9
$DIMLFAC
40
1.0
9
$DIMLUNIT
70
2
9
$DIMLWD
70
-2
9
$DIMLWE
70
-2
9
$DIMPOST
1
<>
9
$DIMRND
40
0.0
9
$DIMSAH
70
0
9
$DIMSCALE
40
1.0
9
$DIMSE1
70
0
9
$DIMSE2
70
0
9
$DIMTAD
70
1
9
$DIMTIH
70
0
9
$DIMTOH
70
0
9
$DIMTXT
40
0.18
9
$DIMZIN
70
0
9
$DIMFRAC
70
0
9
$DIMLTYPE
6
ByBlock
9
$DIMLTEX1
6
ByBlock
9
$DIMLTEX2
6
ByBlock
0
ENDSEC
0
SECTION
2
CLASSES
0
CLASS
1
RASTERVARIABLES
2
AcDbRasterVariables
3
ISM
90
0
280
0
281
0
0
ENDSEC
0
SECTION
2
TABLES
0
TABLE
2
APPID
5
4
330
0
100
AcDbSymbolTable
70
4
0
APPID
5
17
330
4
100
AcDbSymbolTableRecord
100
AcDbRegAppTableRecord
2
ACAD
70
0
0
APPID
5
2A4
330
4
100
AcDbSymbolTableRecord
100
AcDbRegAppTableRecord
2
AcCmTransparency
70
0
0
APPID
5
2A5
330
4
100
AcDbSymbolTableRecord
100
AcDbRegAppTableRecord
2
GradientColor1ACI
70
0
0
APPID
5
2A6
330
4
100
AcDbSymbolTableRecord
100
AcDbRegAppTableRecord
2
GradientColor2ACI
70
0
0
ENDTAB
0
TABLE
2
VPORT
5
1
330
0
100
AcDbSymbolTable
70
1
0
VPORT
5
2
330
1
100
AcDbSymbolTableRecord
100
AcDbViewportTableRecord
2
*Active
70
0
10
0.0
20
0.0
11
1.0
21
1.0
12
0.0
22
0.0
13
0.0
23
0.0
14
0.5
24
0.5
15
10.0
25
10.0
16
0.0
26
0.0
36
1.0
17
0.0
27
0.0
37
0.0
40
10.0
41
1.0
75
0
76
1
0
ENDTAB
0
TABLE
2
LTYPE
5
6
330
0
100
AcDbSymbolTable
70
3
0
LTYPE
5
13
330
6
100
AcDbSymbolTableRecord
100
AcDbLinetypeTableRecord
70
0
2
Continuous
3
Solid line
72
65
73
0
40
0.0
0
LTYPE
5
14
330
6
100
AcDbSymbolTableRecord
100
AcDbLinetypeTableRecord
70
0
2
ByLayer
3

72
65
73
0
40
0.0
0
LTYPE
5
15
330
6
100
AcDbSymbolTableRecord
100
AcDbLinetypeTableRecord
70
0
2
ByBlock
3

72
65
73
0
40
0.0
0
ENDTAB
0
TABLE
2
LAYER
5
5
330
0
100
AcDbSymbolTable
70
7
0
LAYER
5
12
330
5
100
AcDbSymbolTableRecord
100
AcDbLayerTableRecord
2
0
70
0
62
7
6
Continuous
290
1
370
-3
390
0
0
LAYER
5
21
330
5
100
AcDbSymbolTableRecord
100
AcDbLayerTableRecord
2
Hole
70
0
62
7
6
Continuous
290
1
370
-3
390
0
0
LAYER
5
23
330
5
100
AcDbSymbolTableRecord
100
AcDbLayerTableRecord
2
Theoretical Hole
70
0
62
7
6
Continuous
290
1
370
-3
390
0
0
LAYER
5
25
330
5
100
AcDbSymbolTableRecord
100
AcDbLayerTableRecord
2
Number
70
0
62
7
6
Continuous
290
1
370
-3
390
0
0
LAYER
5
27
330
5
100
AcDbSymbolTableRecord
100
AcDbLayerTableRecord
2
label
70
0
62
7
6
Continuous
290
1
370
-3
390
0
0
LAYER
5
29
330
5
100
AcDbSymbolTableRecord
100
AcDbLayerTableRecord
2
Length
70
0
62
7
6
Continuous
290
1
370
-3
390
0
0
LAYER
5
38
330
5
100
AcDbSymbolTableRecord
100
AcDbLayerTableRecord
2
Real Hole
70
0
62
7
6
Continuous
290
1
370
-3
390
0
0
ENDTAB
0
TABLE
2
STYLE
5
7
330
0
100
AcDbSymbolTable
70
1
0
STYLE
5
16
330
7
100
AcDbSymbolTableRecord
100
AcDbTextStyleTableRecord
2
Standard
3
simplex.shx
70
0
71
0
40
0.0
41
1.0
42
0.0
50
0.0
0
ENDTAB
0
TABLE
2
DIMSTYLE
5
8
330
0
100
AcDbSymbolTable
70
1
100
AcDbDimStyleTable
0
DIMSTYLE
105
18
330
8
100
AcDbSymbolTableRecord
100
AcDbDimStyleTableRecord
2
Standard
70
0
3
<>
40
1.0
41
0.18
42
0.0625
43
0.38
44
0.18
45
0.0
46
0.0
73
0
74
0
75
0
76
0
77
1
78
0
79
0
140
0.18
141
0.09
144
1.0
147
0.09
173
0
176
0
177
0
178
0
179
0
271
2
275
0
276
0
277
2
278
46
280
0
340
16
345
15
346
15
347
15
371
-2
372
-2
0
ENDTAB
0
TABLE
2
VIEW
5
3
330
0
100
AcDbSymbolTable
70
0
0
ENDTAB
0
TABLE
2
UCS
5
A
330
0
100
AcDbSymbolTable
70
0
0
ENDTAB
0
TABLE
2
BLOCK_RECORD
5
B
330
0
100
AcDbSymbolTable
70
2
0
BLOCK_RECORD
5
1A
330
B
100
AcDbSymbolTableRecord
100
AcDbBlockTableRecord
2
*Model_Space
340
1E
0
BLOCK_RECORD
5
29E
330
B
100
AcDbSymbolTableRecord
100
AcDbBlockTableRecord
2
*Paper_Space
340
2A3
0
ENDTAB
0
ENDSEC
0
SECTION
2
BLOCKS
0
BLOCK
5
1C
330
1A
100
AcDbEntity
8
0
100
AcDbBlockBegin
2
*Model_Space
70
0
10
0.0
20
0.0
30
0.0
3
*Model_Space
0
ENDBLK
5
1B
330
1A
100
AcDbEntity
8
0
100
AcDbBlockEnd
0
BLOCK
5
2A0
330
29E
100
AcDbEntity
8
0
100
AcDbBlockBegin
2
*Paper_Space
70
0
10
0.0
20
0.0
30
0.0
3
*Paper_Space
0
ENDBLK
5
29F
330
29E
100
AcDbEntity
8
0
100
AcDbBlockEnd
0
ENDSEC
0
SECTION
2
ENTITIES
0
POINT
5
20
330
1A
100
AcDbEntity
67
0
8
Hole
62
244
420
659967
6
ByLayer
370
-1
48
1.0
60
0
100
AcDbPoint
10
748628.11999939
20
8930161.25
30
190.680000009537
39
0.0
210
0.0
220
0.0
230
1.0
50
360.0
0
LINE
5
22
330
1A
100
AcDbEntity
67
0
8
Theoretical Hole
62
244
420
659967
6
ByLayer
370
-1
48
1.0
60
0
100
AcDbLine
10
748628.11999939
20
8930161.25
30
190.680000009537
11
748629.194550018
21
8930163.73670811
31
180.029096069336
39
0.0
210
0.0
220
0.0
230
1.0
0
TEXT
5
24
330
1A
100
AcDbEntity
67
0
8
Number
62
244
420
659967
6
ByLayer
370
-1
48
1.0
60
0
100
AcDbText
1
1
10
748628.11999939
20
8930161.55599999
30
190.680000009537
40
0.3
41
1.0
50
0.0
51
0.0
7
Standard
11
748628.11999939
21
8930161.55599999
31
190.680000009537
210
0.0
220
0.0
230
1.0
72
0
100
AcDbText
73
0
0
TEXT
5
26
330
1A
100
AcDbEntity
67
0
8
label
62
1
420
16711680
6
ByLayer
370
-1
48
1.0
60
0
100
AcDbText
1

10
748628.11999939
20
8930161.95599999
30
190.680000009537
40
0.3
41
1.0
50
0.0
51
0.0
7
Standard
11
748628.11999939
21
8930161.95599999
31
190.680000009537
210
0.0
220
0.0
230
1.0
72
0
100
AcDbText
73
0
0
TEXT
5
28
330
1A
100
AcDbEntity
67
0
8
Length
62
244
420
659967
6
ByLayer
370
-1
48
1.0
60
0
100
AcDbText
1
10.99
10
748628.11999939
20
8930160.546
30
190.680000009537
40
0.3
41
1.0
50
0.0
51
0.0
7
Standard
11
748628.11999939
21
8930160.546
31
190.680000009537
210
0.0
220
0.0
230
1.0
72
0
100
AcDbText
73
0
0
POLYLINE
5
37
330
1A
100
AcDbEntity
67
0
8
Real Hole
62
1
420
16711680
6
ByLayer
370
-1
48
1.0
60
0
100
AcDb3dPolyline
10
0.0
20
0.0
30
0.0
70
8
75
0
210
0.0
220
0.0
230
1.0
0
VERTEX
5
2A
100
AcDbEntity
8
Real Hole
62
1
420
16711680
100
AcDbVertex
100
AcDb3dPolylineVertex
10
748628.11999939
20
8930161.25
30
190.680000009537
70
32
0
VERTEX
5
2B
100
AcDbEntity
8
Real Hole
62
1
420
16711680
100
AcDbVertex
100
AcDb3dPolylineVertex
10
748628.124822528
20
8930161.52358097
30
189.718163135052
70
32
0
VERTEX
5
2C
100
AcDbEntity
8
Real Hole
62
1
420
16711680
100
AcDbVertex
100
AcDb3dPolylineVertex
10
748628.10805667
20
8930161.79382986
30
188.75551861763
70
32
0
VERTEX
5
2D
100
AcDbEntity
8
Real Hole
62
1
420
16711680
100
AcDbVertex
100
AcDb3dPolylineVertex
10
748628.09871418
20
8930162.06964457
30
187.794353189468
70
32
0
VERTEX
5
2E
100
AcDbEntity
8
Real Hole
62
1
420
16711680
100
AcDbVertex
100
AcDb3dPolylineVertex
10
748628.076055221
20
8930162.36080205
30
186.837946357727
70
32
0
VERTEX
5
2F
100
AcDbEntity
8
Real Hole
62
1
420
16711680
100
AcDbVertex
100
AcDb3dPolylineVertex
10
748628.04943167
20
8930162.63380182
30
185.876300992966
70
32
0
VERTEX
5
30
100
AcDbEntity
8
Real Hole
62
1
420
16711680
100
AcDbVertex
100
AcDb3dPolylineVertex
10
748628.010007914
20
8930162.93325507
30
184.923004808426
70
32
0
VERTEX
5
31
100
AcDbEntity
8
Real Hole
62
1
420
16711680
100
AcDbVertex
100
AcDb3dPolylineVertex
10
748627.96922582
20
8930163.21043503
30
183.963052453995
70
32
0
VERTEX
5
32
100
AcDbEntity
8
Real Hole
62
1
420
16711680
100
AcDbVertex
100
AcDb3dPolylineVertex
10
748627.921523254
20
8930163.50463414
30
183.008499803543
70
32
0
VERTEX
5
33
100
AcDbEntity
8
Real Hole
62
1
420
16711680
100
AcDbVertex
100
AcDb3dPolylineVertex
10
748627.888512339
20
8930163.78065252
30
182.047914209366
70
32
0
VERTEX
5
34
100
AcDbEntity
8
Real Hole
62
1
420
16711680
100
AcDbVertex
100
AcDb3dPolylineVertex
10
748627.829504679
20
8930164.06888151
30
181.092172327042
70
32
0
VERTEX
5
35
100
AcDbEntity
8
Real Hole
62
1
420
16711680
100
AcDbVertex
100
AcDb3dPolylineVertex
10
748627.804152917
20
8930164.20077944
30
180.715396585464
70
32
0
SEQEND
5
36
100
AcDbEntity
8
Real Hole
0
POINT
5
39
330
1A
100
AcDbEntity
67
0
8
Hole
62
244
420
659967
6
ByLayer
370
-1
48
1.0
60
0
100
AcDbPoint
10
748626.919998627
20
8930161.21
30
190.69
39
0.0
210
0.0
220
0.0
230
1.0
50
360.0
0
LINE
5
3A
330
1A
100
AcDbEntity
67
0
8
Theoretical Hole
62
244
420
659967
6
ByLayer
370
-1
48
1.0
60
0
100
AcDbLine
10
748626.919998627
20
8930161.21
30
190.69
11
748626.869938354
21
8930163.81710714
31
179.993244590759
39
0.0
210
0.0
220
0.0
230
1.0
0
TEXT
5
3B
330
1A
100
AcDbEntity
67
0
8
Number
62
244
420
659967
6
ByLayer
370
-1
48
1.0
60
0
100
AcDbText
1
2
10
748626.919998627
20
8930161.51599999
30
190.69
40
0.3
41
1.0
50
0.0
51
0.0
7
Standard
11
748626.919998627
21
8930161.51599999
31
190.69
210
0.0
220
0.0
230
1.0
72
0
100
AcDbText
73
0
0
TEXT
5
3C
330
1A
100
AcDbEntity
67
0
8
label
62
1
420
16711680
6
ByLayer
370
-1
48
1.0
60
0
100
AcDbText
1

10
748626.919998627
20
8930161.91599999
30
190.69
40
0.3
41
1.0
50
0.0
51
0.0
7
Standard
11
748626.919998627
21
8930161.91599999
31
190.69
210
0.0
220
0.0
230
1.0
72
0
100
AcDbText
73
0
0
TEXT
5
3D
330
1A
100
AcDbEntity
67
0
8
Length
62
244
420
659967
6
ByLayer
370
-1
48
1.0
60
0
100
AcDbText
1
11.01
10
748626.919998627
20
8930160.506
30
190.69
40
0.3
41
1.0
50
0.0
51
0.0
7
Standard
11
748626.919998627
21
8930160.506
31
190.69
210
0.0
220
0.0
230
1.0
72
0
100
AcDbText
73
0
0
POLYLINE
5
4B
330
1A
100
AcDbEntity
67
0
8
Real Hole
62
1
420
16711680
6
ByLayer
370
-1
48
1.0
60
0
100
AcDb3dPolyline
10
0.0
20
0.0
30
0.0
70
8
75
0
210
0.0
220
0.0
230
1.0
0
VERTEX
5
3E
100
AcDbEntity
8
Real Hole
62
1
420
16711680
100
AcDbVertex
100
AcDb3dPolylineVertex
10
748626.919998627
20
8930161.21
30
190.69
70
32
0
VERTEX
5
3F
100
AcDbEntity
8
Real Hole
62
1
420
16711680
100
AcDbVertex
100
AcDb3dPolylineVertex
10
748626.905392145
20
8930161.48323335
30
189.728163125515
70
32
0
VERTEX
5
40
100
AcDbEntity
8
Real Hole
62
1
420
16711680
100
AcDbVertex
100
AcDb3dPolylineVertex
10
748626.878832217
20
8930161.73678555
30
188.761206092834
70
32
0
VERTEX
5
41
100
AcDbEntity
8
Real Hole
62
1
420
16711680
100
AcDbVertex
100
AcDb3dPolylineVertex
10
748626.854980852
20
8930162.00194409
30
187.797296228409
70
32
0
VERTEX
5
42
100
AcDbEntity
8
Real Hole
62
1
420
16711680
100
AcDbVertex
100
AcDb3dPolylineVertex
10
748626.83364335
20
8930162.29320141
30
186.840889635086
70
32
0
VERTEX
5
43
100
AcDbEntity
8
Real Hole
62
1
420
16711680
100
AcDbVertex
100
AcDb3dPolylineVertex
10
748626.783909048
20
8930162.58976587
30
185.887172641754
70
32
0
VERTEX
5
44
100
AcDbEntity
8
Real Hole
62
1
420
16711680
100
AcDbVertex
100
AcDb3dPolylineVertex
10
748626.734070789
20
8930162.87328072
30
184.929500522614
70
32
0
VERTEX
5
45
100
AcDbEntity
8
Real Hole
62
1
420
16711680
100
AcDbVertex
100
AcDb3dPolylineVertex
10
748626.686939459
20
8930163.1662217
30
183.974532546997
70
32
0
VERTEX
5
46
100
AcDbEntity
8
Real Hole
62
1
420
16711680
100
AcDbVertex
100
AcDb3dPolylineVertex
10
748626.630497973
20
8930163.45258327
30
183.018074932098
70
32
0
VERTEX
5
47
100
AcDbEntity
8
Real Hole
62
1
420
16711680
100
AcDbVertex
100
AcDb3dPolylineVertex
10
748626.569673221
20
8930163.72073766
30
182.056621017456
70
32
0
VERTEX
5
48
100
AcDbEntity
8
Real Hole
62
1
420
16711680
100
AcDbVertex
100
AcDb3dPolylineVertex
10
748626.519341986
20
8930164.01990124
30
181.103747787476
70
32
0
VERTEX
5
49
100
AcDbEntity
8
Real Hole
62
1
420
16711680
100
AcDbVertex
100
AcDb3dPolylineVertex
10
748626.481477033
20
8930164.23911591
30
180.440037193298
70
32
0
SEQEND
5
4A
100
AcDbEntity
8
Real Hole
0
POINT
5
4C
330
1A
100
AcDbEntity
67
0
8
Hole
62
244
420
659967
6
ByLayer
370
-1
48
1.0
60
0
100
AcDbPoint
10
748625.720001678
20
8930161.19
30
190.680000009537
39
0.0
210
0.0
220
0.0
230
1.0
50
360.0
0
LINE
5
4D
330
1A
100
AcDbEntity
67
0
8
Theoretical Hole
62
244
420
659967
6
ByLayer
370
-1
48
1.0
60
0
100
AcDbLine
10
748625.720001678
20
8930161.19
30
190.680000009537
11
748625.777279358
21
8930163.79408497
31
180.003129425049
39
0.0
210
0.0
220
0.0
230
1.0
0
TEXT
5
4E
330
1A
100
AcDbEntity
67
0
8
Number
62
244
420
659967
6
ByLayer
370
-1
48
1.0
60
0
100
AcDbText
1
3
10
748625.720001678
20
8930161.49599999
30
190.680000009537
40
0.3
41
1.0
50
0.0
51
0.0
7
Standard
11
748625.720001678
21
8930161.49599999
31
190.680000009537
210
0.0
220
0.0
230
1.0
72
0
100
AcDbText
73
0
0
TEXT
5
4F
330
1A
100
AcDbEntity
67
0
8
label
62
1
420
16711680
6
ByLayer
370
-1
48
1.0
60
0
100
AcDbText
1

10
748625.720001678
20
8930161.89599999
30
190.680000009537
40
0.3
41
1.0
50
0.0
51
0.0
7
Standard
11
748625.720001678
21
8930161.89599999
31
190.680000009537
210
0.0
220
0.0
230
1.0
72
0
100
AcDbText
73
0
0
TEXT
5
50
330
1A
100
AcDbEntity
67
0
8
Length
62
244
420
659967
6
ByLayer
370
-1
48
1.0
60
0
100
AcDbText
1
10.99
10
748625.720001678
20
8930160.486
30
190.680000009537
40
0.3
41
1.0
50
0.0
51
0.0
7
Standard
11
748625.720001678
21
8930160.486
31
190.680000009537
210
0.0
220
0.0
230
1.0
72
0
100
AcDbText
73
0
0
POLYLINE
5
5E
330
1A
100
AcDbEntity
67
0
8
Real Hole
62
1
420
16711680
6
ByLayer
370
-1
48
1.0
60
0
100
AcDb3dPolyline
10
0.0
20
0.0
30
0.0
70
8
75
0
210
0.0
220
0.0
230
1.0
0
VERTEX
5
51
100
AcDbEntity
8
Real Hole
62
1
420
16711680
100
AcDbVertex
100
AcDb3dPolylineVertex
10
748625.720001678
20
8930161.19
30
190.680000009537
70
32
0
VERTEX
5
52
100
AcDbEntity
8
Real Hole
62
1
420
16711680
100
AcDbVertex
100
AcDb3dPolylineVertex
10
748625.724832706
20
8930161.4667694
30
189.719075801373
70
32
0
VERTEX
5
53
100
AcDbEntity
8
Real Hole
62
1
420
16711680
100
AcDbVertex
100
AcDb3dPolylineVertex
10
748625.702850399
20
8930161.71210903
30
188.749887886047
70
32
0
VERTEX
5
54
100
AcDbEntity
8
Real Hole
62
1
420
16711680
100
AcDbVertex
100
AcDb3dPolylineVertex
10
748625.687180414
20
8930161.95979655
30
187.781174602509
70
32
0
VERTEX
5
55
100
AcDbEntity
8
Real Hole
62
1
420
16711680
100
AcDbVertex
100
AcDb3dPolylineVertex
10
748625.696790702
20
8930162.2449885
30
186.822752418518
70
32
0
VERTEX
5
56
100
AcDbEntity
8
Real Hole
62
1
420
16711680
100
AcDbVertex
100
AcDb3dPolylineVertex
10
748625.686504852
20
8930162.54101807
30
185.867628755569
70
32
0
VERTEX
5
57
100
AcDbEntity
8
Real Hole
62
1
420
16711680
100
AcDbVertex
100
AcDb3dPolylineVertex
10
748625.644747074
20
8930162.81075686
30
184.905601205826
70
32
0
VERTEX
5
58
100
AcDbEntity
8
Real Hole
62
1
420
16711680
100
AcDbVertex
100
AcDb3dPolylineVertex
10
748625.610036689
20
8930163.06349272
30
183.938688936234
70
32
0
VERTEX
5
59
100
AcDbEntity
8
Real Hole
62
1
420
16711680
100
AcDbVertex
100
AcDb3dPolylineVertex
10
748625.56779037
20
8930163.34316367
30
182.979522886276
70
32
0
VERTEX
5
5A
100
AcDbEntity
8
Real Hole
62
1
420
16711680
100
AcDbVertex
100
AcDb3dPolylineVertex
10
748625.535352822
20
8930163.66030306
30
182.031698884964
70
32
0
VERTEX
5
5B
100
AcDbEntity
8
Real Hole
62
1
420
16711680
100
AcDbVertex
100
AcDb3dPolylineVertex
10
748625.508240532
20
8930163.98937291
30
181.087782564163
70
32
0
VERTEX
5
5C
100
AcDbEntity
8
Real Hole
62
1
420
16711680
100
AcDbVertex
100
AcDb3dPolylineVertex
10
748625.476896371
20
8930164.20715565
30
180.423261346817
70
32
0
SEQEND
5
5D
100
AcDbEntity
8
Real Hole
0
POINT
5
5F
330
1A
100
AcDbEntity
67
0
8
Hole
62
244
420
659967
6
ByLayer
370
-1
48
1.0
60
0
100
AcDbPoint
10
748624.520000916
20
8930161.22
30
190.649999978542
39
0.0
210
0.0
220
0.0
230
1.0
50
360.0
0
LINE
5
60
330
1A
100
AcDbEntity
67
0
8
Theoretical Hole
62
244
420
659967
6
ByLayer
370
-1
48
1.0
60
0
100
AcDbLine
10
748624.520000916
20
8930161.22
30
190.649999978542
11
748624.577293854
21
8930163.82492489
31
179.99392074585
39
0.0
210
0.0
220
0.0
230
1.0
0
TEXT
5
61
330
1A
100
AcDbEntity
67
0
8
Number
62
244
420
659967
6
ByLayer
370
-1
48
1.0
60
0
100
AcDbText
1
4
10
748624.520000916
20
8930161.52599999
30
190.649999978542
40
0.3
41
1.0
50
0.0
51
0.0
7
Standard
11
748624.520000916
21
8930161.52599999
31
190.649999978542
210
0.0
220
0.0
230
1.0
72
0
100
AcDbText
73
0
0
TEXT
5
62
330
1A
100
AcDbEntity
67
0
8
label
62
1
420
16711680
6
ByLayer
370
-1
48
1.0
60
0
100
AcDbText
1

10
748624.520000916
20
8930161.92599999
30
190.649999978542
40
0.3
41
1.0
50
0.0
51
0.0
7
Standard
11
748624.520000916
21
8930161.92599999
31
190.649999978542
210
0.0
220
0.0
230
1.0
72
0
100
AcDbText
73
0
0
TEXT
5
63
330
1A
100
AcDbEntity
67
0
8
Length
62
244
420
659967
6
ByLayer
370
-1
48
1.0
60
0
100
AcDbText
1
10.97
10
748624.520000916
20
8930160.516
30
190.649999978542
40
0.3
41
1.0
50
0.0
51
0.0
7
Standard
11
748624.520000916
21
8930160.516
31
190.649999978542
210
0.0
220
0.0
230
1.0
72
0
100
AcDbText
73
0
0
POLYLINE
5
71
330
1A
100
AcDbEntity
67
0
8
Real Hole
62
1
420
16711680
6
ByLayer
370
-1
48
1.0
60
0
100
AcDb3dPolyline
10
0.0
20
0.0
30
0.0
70
8
75
0
210
0.0
220
0.0
230
1.0
0
VERTEX
5
64
100
AcDbEntity
8
Real Hole
62
1
420
16711680
100
AcDbVertex
100
AcDb3dPolylineVertex
10
748624.520000916
20
8930161.22
30
190.649999978542
70
32
0
VERTEX
5
65
100
AcDbEntity
8
Real Hole
62
1
420
16711680
100
AcDbVertex
100
AcDb3dPolylineVertex
10
748624.536436678
20
8930161.47694498
30
189.683713736534
70
32
0
VERTEX
5
66
100
AcDbEntity
8
Real Hole
62
1
420
16711680
100
AcDbVertex
100
AcDb3dPolylineVertex
10
748624.540758304
20
8930161.71967506
30
188.713629486561
70
32
0
VERTEX
5
67
100
AcDbEntity
8
Real Hole
62
1
420
16711680
100
AcDbVertex
100
AcDb3dPolylineVertex
10
748624.557040594
20
8930161.96036938
30
187.743165137768
70
32
0
VERTEX
5
68
100
AcDbEntity
8
Real Hole
62
1
420
16711680
100
AcDbVertex
100
AcDb3dPolylineVertex
10
748624.589888203
20
8930162.23421153
30
186.781951549053
70
32
0
VERTEX
5
69
100
AcDbEntity
8
Real Hole
62
1
420
16711680
100
AcDbVertex
100
AcDb3dPolylineVertex
10
748624.602250915
20
8930162.47089657
30
185.810443761349
70
32
0
VERTEX
5
6A
100
AcDbEntity
8
Real Hole
62
1
420
16711680
100
AcDbVertex
100
AcDb3dPolylineVertex
10
748624.62485079
20
8930162.70733532
30
184.839060189724
70
32
0
VERTEX
5
6B
100
AcDbEntity
8
Real Hole
62
1
420
16711680
100
AcDbVertex
100
AcDb3dPolylineVertex
10
748624.656383495
20
8930162.99665818
30
183.882347943783
70
32
0
VERTEX
5
6C
100
AcDbEntity
8
Real Hole
62
1
420
16711680
100
AcDbVertex
100
AcDb3dPolylineVertex
10
748624.683634009
20
8930163.28440258
30
182.925028684139
70
32
0
VERTEX
5
6D
100
AcDbEntity
8
Real Hole
62
1
420
16711680
100
AcDbVertex
100
AcDb3dPolylineVertex
10
748624.684993591
20
8930163.54406092
30
181.95932901144
70
32
0
VERTEX
5
6E
100
AcDbEntity
8
Real Hole
62
1
420
16711680
100
AcDbVertex
100
AcDb3dPolylineVertex
10
748624.676615577
20
8930163.81671616
30
180.997253777981
70
32
0
VERTEX
5
6F
100
AcDbEntity
8
Real Hole
62
1
420
16711680
100
AcDbVertex
100
AcDb3dPolylineVertex
10
748624.680595751
20
8930164.09480307
30
180.141302468777
70
32
0
SEQEND
5
70
100
AcDbEntity
8
Real Hole
0
POINT
5
72
330
1A
100
AcDbEntity
67
0
8
Hole
62
244
420
659967
6
ByLayer
370
-1
48
1.0
60
0
100
AcDbPoint
10
748623.320000153
20
8930161.24
30
190.620000007153
39
0.0
210
0.0
220
0.0
230
1.0
50
360.0
0
LINE
5
73
330
1A
100
AcDbEntity
67
0
8
Theoretical Hole
62
244
420
659967
6
ByLayer
370
-1
48
1.0
60
0
100
AcDbLine
10
748623.320000153
20
8930161.24
30
190.620000007153
11
748623.454777222
21
8930163.85535616
31
179.998072090149
39
0.0
210
0.0
220
0.0
230
1.0
0
TEXT
5
74
330
1A
100
AcDbEntity
67
0
8
Number
62
244
420
659967
6
ByLayer
370
-1
48
1.0
60
0
100
AcDbText
1
5
10
748623.320000153
20
8930161.54599999
30
190.620000007153
40
0.3
41
1.0
50
0.0
51
0.0
7
Standard
11
748623.320000153
21
8930161.54599999
31
190.620000007153
210
0.0
220
0.0
230
1.0
72
0
100
AcDbText
73
0
0
TEXT
5
75
330
1A
100
AcDbEntity
67
0
8
label
62
1
420
16711680
6
ByLayer
370
-1
48
1.0
60
0
100
AcDbText
1

10
748623.320000153
20
8930161.94599999
30
190.620000007153
40
0.3
41
1.0
50
0.0
51
0.0
7
Standard
11
748623.320000153
21
8930161.94599999
31
190.620000007153
210
0.0
220
0.0
230
1.0
72
0
100
AcDbText
73
0
0
TEXT
5
76
330
1A
100
AcDbEntity
67
0
8
Length
62
244
420
659967
6
ByLayer
370
-1
48
1.0
60
0
100
AcDbText
1
10.94
10
748623.320000153
20
8930160.536
30
190.620000007153
40
0.3
41
1.0
50
0.0
51
0.0
7
Standard
11
748623.320000153
21
8930160.536
31
190.620000007153
210
0.0
220
0.0
230
1.0
72
0
100
AcDbText
73
0
0
POLYLINE
5
84
330
1A
100
AcDbEntity
67
0
8
Real Hole
62
1
420
16711680
6
ByLayer
370
-1
48
1.0
60
0
100
AcDb3dPolyline
10
0.0
20
0.0
30
0.0
70
8
75
0
210
0.0
220
0.0
230
1.0
0
VERTEX
5
77
100
AcDbEntity
8
Real Hole
62
1
420
16711680
100
AcDbVertex
100
AcDb3dPolylineVertex
10
748623.320000153
20
8930161.24
30
190.620000007153
70
32
0
VERTEX
5
78
100
AcDbEntity
8
Real Hole
62
1
420
16711680
100
AcDbVertex
100
AcDb3dPolylineVertex
10
748623.344129405
20
8930161.48564765
30
189.650941195488
70
32
0
VERTEX
5
79
100
AcDbEntity
8
Real Hole
62
1
420
16711680
100
AcDbVertex
100
AcDb3dPolylineVertex
10
748623.370709177
20
8930161.71466967
30
188.677882912159
70
32
0
VERTEX
5
7A
100
AcDbEntity
8
Real Hole
62
1
420
16711680
100
AcDbVertex
100
AcDb3dPolylineVertex
10
748623.390806783
20
8930161.96017086
30
187.708695056438
70
32
0
VERTEX
5
7B
100
AcDbEntity
8
Real Hole
62
1
420
16711680
100
AcDbVertex
100
AcDb3dPolylineVertex
10
748623.442042563
20
8930162.23237007
30
186.747819068432
70
32
0
VERTEX
5
7C
100
AcDbEntity
8
Real Hole
62
1
420
16711680
100
AcDbVertex
100
AcDb3dPolylineVertex
10
748623.466730963
20
8930162.51917147
30
185.790146949291
70
32
0
VERTEX
5
7D
100
AcDbEntity
8
Real Hole
62
1
420
16711680
100
AcDbVertex
100
AcDb3dPolylineVertex
10
748623.472993295
20
8930162.82579969
30
184.838338496685
70
32
0
VERTEX
5
7E
100
AcDbEntity
8
Real Hole
62
1
420
16711680
100
AcDbVertex
100
AcDb3dPolylineVertex
10
748623.465236019
20
8930163.13654517
30
183.887877109051
70
32
0
VERTEX
5
7F
100
AcDbEntity
8
Real Hole
62
1
420
16711680
100
AcDbVertex
100
AcDb3dPolylineVertex
10
748623.47825044
20
8930163.44196342
30
182.935747745037
70
32
0
VERTEX
5
80
100
AcDbEntity
8
Real Hole
62
1
420
16711680
100
AcDbVertex
100
AcDb3dPolylineVertex
10
748623.49225543
20
8930163.73567008
30
181.979954841137
70
32
0
VERTEX
5
81
100
AcDbEntity
8
Real Hole
62
1
420
16711680
100
AcDbVertex
100
AcDb3dPolylineVertex
10
748623.490491952
20
8930164.01633119
30
181.020149352551
70
32
0
VERTEX
5
82
100
AcDbEntity
8
Real Hole
62
1
420
16711680
100
AcDbVertex
100
AcDb3dPolylineVertex
10
748623.489985045
20
8930164.25835966
30
180.257639052868
70
32
0
SEQEND
5
83
100
AcDbEntity
8
Real Hole
0
POINT
5
85
330
1A
100
AcDbEntity
67
0
8
Hole
62
244
420
659967
6
ByLayer
370
-1
48
1.0
60
0
100
AcDbPoint
10
748622.11999939
20
8930161.3
30
190.600000026226
39
0.0
210
0.0
220
0.0
230
1.0
50
360.0
0
LINE
5
86
330
1A
100
AcDbEntity
67
0
8
Theoretical Hole
62
244
420
659967
6
ByLayer
370
-1
48
1.0
60
0
100
AcDbLine
10
748622.11999939
20
8930161.3
30
190.600000026226
11
748622.291321259
21
8930163.89304823
31
180.004017295837
39
0.0
210
0.0
220
0.0
230
1.0
0
TEXT
5
87
330
1A
100
AcDbEntity
67
0
8
Number
62
244
420
659967
6
ByLayer
370
-1
48
1.0
60
0
100
AcDbText
1
6
10
748622.11999939
20
8930161.60599999
30
190.600000026226
40
0.3
41
1.0
50
0.0
51
0.0
7
Standard
11
748622.11999939
21
8930161.60599999
31
190.600000026226
210
0.0
220
0.0
230
1.0
72
0
100
AcDbText
73
0
0
TEXT
5
88
330
1A
100
AcDbEntity
67
0
8
label
62
1
420
16711680
6
ByLayer
370
-1
48
1.0
60
0
100
AcDbText
1

10
748622.11999939
20
8930162.00599999
30
190.600000026226
40
0.3
41
1.0
50
0.0
51
0.0
7
Standard
11
748622.11999939
21
8930162.00599999
31
190.600000026226
210
0.0
220
0.0
230
1.0
72
0
100
AcDbText
73
0
0
TEXT
5
89
330
1A
100
AcDbEntity
67
0
8
Length
62
244
420
659967
6
ByLayer
370
-1
48
1.0
60
0
100
AcDbText
1
10.91
10
748622.11999939
20
8930160.596
30
190.600000026226
40
0.3
41
1.0
50
0.0
51
0.0
7
Standard
11
748622.11999939
21
8930160.596
31
190.600000026226
210
0.0
220
0.0
230
1.0
72
0
100
AcDbText
73
0
0
POLYLINE
5
97
330
1A
100
AcDbEntity
67
0
8
Real Hole
62
1
420
16711680
6
ByLayer
370
-1
48
1.0
60
0
100
AcDb3dPolyline
10
0.0
20
0.0
30
0.0
70
8
75
0
210
0.0
220
0.0
230
1.0
0
VERTEX
5
8A
100
AcDbEntity
8
Real Hole
62
1
420
16711680
100
AcDbVertex
100
AcDb3dPolylineVertex
10
748622.11999939
20
8930161.3
30
190.600000026226
70
32
0
VERTEX
5
8B
100
AcDbEntity
8
Real Hole
62
1
420
16711680
100
AcDbVertex
100
AcDb3dPolylineVertex
10
748622.160810239
20
8930161.54840139
30
189.632202925682
70
32
0
VERTEX
5
8C
100
AcDbEntity
8
Real Hole
62
1
420
16711680
100
AcDbVertex
100
AcDb3dPolylineVertex
10
748622.190668623
20
8930161.78642513
30
188.661402704716
70
32
0
VERTEX
5
8D
100
AcDbEntity
8
Real Hole
62
1
420
16711680
100
AcDbVertex
100
AcDb3dPolylineVertex
10
748622.20823257
20
8930162.05729674
30
187.698947312832
70
32
0
VERTEX
5
8E
100
AcDbEntity
8
Real Hole
62
1
420
16711680
100
AcDbVertex
100
AcDb3dPolylineVertex
10
748622.209661122
20
8930162.29802875
30
186.72835695982
70
32
0
VERTEX
5
8F
100
AcDbEntity
8
Real Hole
62
1
420
16711680
100
AcDbVertex
100
AcDb3dPolylineVertex
10
748622.220409717
20
8930162.55341713
30
185.761578204632
70
32
0
VERTEX
5
90
100
AcDbEntity
8
Real Hole
62
1
420
16711680
100
AcDbVertex
100
AcDb3dPolylineVertex
10
748622.223890159
20
8930162.81238143
30
184.795697333813
70
32
0
VERTEX
5
91
100
AcDbEntity
8
Real Hole
62
1
420
16711680
100
AcDbVertex
100
AcDb3dPolylineVertex
10
748622.240427274
20
8930163.10093968
30
183.838378074169
70
32
0
VERTEX
5
92
100
AcDbEntity
8
Real Hole
62
1
420
16711680
100
AcDbVertex
100
AcDb3dPolylineVertex
10
748622.227672081
20
8930163.34845595
30
182.869578006268
70
32
0
VERTEX
5
93
100
AcDbEntity
8
Real Hole
62
1
420
16711680
100
AcDbVertex
100
AcDb3dPolylineVertex
10
748622.232966724
20
8930163.64294891
30
181.913939120769
70
32
0
VERTEX
5
94
100
AcDbEntity
8
Real Hole
62
1
420
16711680
100
AcDbVertex
100
AcDb3dPolylineVertex
10
748622.220818612
20
8930163.92687182
30
180.955169322491
70
32
0
VERTEX
5
95
100
AcDbEntity
8
Real Hole
62
1
420
16711680
100
AcDbVertex
100
AcDb3dPolylineVertex
10
748622.20559531
20
8930164.07318573
30
180.477298381329
70
32
0
SEQEND
5
96
100
AcDbEntity
8
Real Hole
0
POINT
5
98
330
1A
100
AcDbEntity
67
0
8
Hole
62
244
420
659967
6
ByLayer
370
-1
48
1.0
60
0
100
AcDbPoint
10
748620.930000763
20
8930161.38
30
190.600000026226
39
0.0
210
0.0
220
0.0
230
1.0
50
360.0
0
LINE
5
99
330
1A
100
AcDbEntity
67
0
8
Theoretical Hole
62
244
420
659967
6
ByLayer
370
-1
48
1.0
60
0
100
AcDbLine
10
748620.930000763
20
8930161.38
30
190.600000026226
11
748621.131741028
21
8930163.98995465
31
179.998402061462
39
0.0
210
0.0
220
0.0
230
1.0
0
TEXT
5
9A
330
1A
100
AcDbEntity
67
0
8
Number
62
244
420
659967
6
ByLayer
370
-1
48
1.0
60
0
100
AcDbText
1
7
10
748620.930000763
20
8930161.68599999
30
190.600000026226
40
0.3
41
1.0
50
0.0
51
0.0
7
Standard
11
748620.930000763
21
8930161.68599999
31
190.600000026226
210
0.0
220
0.0
230
1.0
72
0
100
AcDbText
73
0
0
TEXT
5
9B
330
1A
100
AcDbEntity
67
0
8
label
62
1
420
16711680
6
ByLayer
370
-1
48
1.0
60
0
100
AcDbText
1

10
748620.930000763
20
8930162.08599999
30
190.600000026226
40
0.3
41
1.0
50
0.0
51
0.0
7
Standard
11
748620.930000763
21
8930162.08599999
31
190.600000026226
210
0.0
220
0.0
230
1.0
72
0
100
AcDbText
73
0
0
TEXT
5
9C
330
1A
100
AcDbEntity
67
0
8
Length
62
244
420
659967
6
ByLayer
370
-1
48
1.0
60
0
100
AcDbText
1
10.92
10
748620.930000763
20
8930160.676
30
190.600000026226
40
0.3
41
1.0
50
0.0
51
0.0
7
Standard
11
748620.930000763
21
8930160.676
31
190.600000026226
210
0.0
220
0.0
230
1.0
72
0
100
AcDbText
73
0
0
POLYLINE
5
AA
330
1A
100
AcDbEntity
67
0
8
Real Hole
62
1
420
16711680
6
ByLayer
370
-1
48
1.0
60
0
100
AcDb3dPolyline
10
0.0
20
0.0
30
0.0
70
8
75
0
210
0.0
220
0.0
230
1.0
0
VERTEX
5
9D
100
AcDbEntity
8
Real Hole
62
1
420
16711680
100
AcDbVertex
100
AcDb3dPolylineVertex
10
748620.930000763
20
8930161.38
30
190.600000026226
70
32
0
VERTEX
5
9E
100
AcDbEntity
8
Real Hole
62
1
420
16711680
100
AcDbVertex
100
AcDb3dPolylineVertex
10
748620.920086083
20
8930161.62578422
30
189.630726161003
70
32
0
VERTEX
5
9F
100
AcDbEntity
8
Real Hole
62
1
420
16711680
100
AcDbVertex
100
AcDb3dPolylineVertex
10
748620.91298414
20
8930161.88163763
30
188.664036633968
70
32
0
VERTEX
5
A0
100
AcDbEntity
8
Real Hole
62
1
420
16711680
100
AcDbVertex
100
AcDb3dPolylineVertex
10
748620.888969495
20
8930162.14001733
30
187.698291661739
70
32
0
VERTEX
5
A1
100
AcDbEntity
8
Real Hole
62
1
420
16711680
100
AcDbVertex
100
AcDb3dPolylineVertex
10
748620.851780574
20
8930162.39308262
30
186.731557490826
70
32
0
VERTEX
5
A2
100
AcDbEntity
8
Real Hole
62
1
420
16711680
100
AcDbVertex
100
AcDb3dPolylineVertex
10
748620.833669524
20
8930162.67467487
30
185.772194507122
70
32
0
VERTEX
5
A3
100
AcDbEntity
8
Real Hole
62
1
420
16711680
100
AcDbVertex
100
AcDb3dPolylineVertex
10
748620.810643445
20
8930162.95120013
30
184.811463477612
70
32
0
VERTEX
5
A4
100
AcDbEntity
8
Real Hole
62
1
420
16711680
100
AcDbVertex
100
AcDb3dPolylineVertex
10
748620.772728618
20
8930163.21046317
30
183.846401336193
70
32
0
VERTEX
5
A5
100
AcDbEntity
8
Real Hole
62
1
420
16711680
100
AcDbVertex
100
AcDb3dPolylineVertex
10
748620.727974291
20
8930163.47256243
30
182.88239872694
70
32
0
VERTEX
5
A6
100
AcDbEntity
8
Real Hole
62
1
420
16711680
100
AcDbVertex
100
AcDb3dPolylineVertex
10
748620.691159766
20
8930163.74166429
30
181.919991137981
70
32
0
VERTEX
5
A7
100
AcDbEntity
8
Real Hole
62
1
420
16711680
100
AcDbVertex
100
AcDb3dPolylineVertex
10
748620.672300379
20
8930164.02337516
30
180.960676791668
70
32
0
VERTEX
5
A8
100
AcDbEntity
8
Real Hole
62
1
420
16711680
100
AcDbVertex
100
AcDb3dPolylineVertex
10
748620.64397056
20
8930164.28543341
30
180.100140216351
70
32
0
SEQEND
5
A9
100
AcDbEntity
8
Real Hole
0
POINT
5
AB
330
1A
100
AcDbEntity
67
0
8
Hole
62
244
420
659967
6
ByLayer
370
-1
48
1.0
60
0
100
AcDbPoint
10
748619.73
20
8930161.47999999
30
190.649999978542
39
0.0
210
0.0
220
0.0
230
1.0
50
360.0
0
LINE
5
AC
330
1A
100
AcDbEntity
67
0
8
Theoretical Hole
62
244
420
659967
6
ByLayer
370
-1
48
1.0
60
0
100
AcDbLine
10
748619.73
20
8930161.47999999
30
190.649999978542
11
748620.027866821
21
8930164.09841389
31
180.001238288879
39
0.0
210
0.0
220
0.0
230
1.0
0
TEXT
5
AD
330
1A
100
AcDbEntity
67
0
8
Number
62
244
420
659967
6
ByLayer
370
-1
48
1.0
60
0
100
AcDbText
1
8
10
748619.73
20
8930161.78599999
30
190.649999978542
40
0.3
41
1.0
50
0.0
51
0.0
7
Standard
11
748619.73
21
8930161.78599999
31
190.649999978542
210
0.0
220
0.0
230
1.0
72
0
100
AcDbText
73
0
0
TEXT
5
AE
330
1A
100
AcDbEntity
67
0
8
label
62
1
420
16711680
6
ByLayer
370
-1
48
1.0
60
0
100
AcDbText
1

10
748619.73
20
8930162.18599999
30
190.649999978542
40
0.3
41
1.0
50
0.0
51
0.0
7
Standard
11
748619.73
21
8930162.18599999
31
190.649999978542
210
0.0
220
0.0
230
1.0
72
0
100
AcDbText
73
0
0
TEXT
5
AF
330
1A
100
AcDbEntity
67
0
8
Length
62
244
420
659967
6
ByLayer
370
-1
48
1.0
60
0
100
AcDbText
1
10.97
10
748619.73
20
8930160.77599999
30
190.649999978542
40
0.3
41
1.0
50
0.0
51
0.0
7
Standard
11
748619.73
21
8930160.77599999
31
190.649999978542
210
0.0
220
0.0
230
1.0
72
0
100
AcDbText
73
0
0
POLYLINE
5
BD
330
1A
100
AcDbEntity
67
0
8
Real Hole
62
1
420
16711680
6
ByLayer
370
-1
48
1.0
60
0
100
AcDb3dPolyline
10
0.0
20
0.0
30
0.0
70
8
75
0
210
0.0
220
0.0
230
1.0
0
VERTEX
5
B0
100
AcDbEntity
8
Real Hole
62
1
420
16711680
100
AcDbVertex
100
AcDb3dPolylineVertex
10
748619.73
20
8930161.47999999
30
190.649999978542
70
32
0
VERTEX
5
B1
100
AcDbEntity
8
Real Hole
62
1
420
16711680
100
AcDbVertex
100
AcDb3dPolylineVertex
10
748619.761458106
20
8930161.73995578
30
189.684892001152
70
32
0
VERTEX
5
B2
100
AcDbEntity
8
Real Hole
62
1
420
16711680
100
AcDbVertex
100
AcDb3dPolylineVertex
10
748619.792586442
20
8930161.9846445
30
188.715790154934
70
32
0
VERTEX
5
B3
100
AcDbEntity
8
Real Hole
62
1
420
16711680
100
AcDbVertex
100
AcDb3dPolylineVertex
10
748619.823000904
20
8930162.24591133
30
187.751002910137
70
32
0
VERTEX
5
B4
100
AcDbEntity
8
Real Hole
62
1
420
16711680
100
AcDbVertex
100
AcDb3dPolylineVertex
10
748619.833612252
20
8930162.50670561
30
186.785666825771
70
32
0
VERTEX
5
B5
100
AcDbEntity
8
Real Hole
62
1
420
16711680
100
AcDbVertex
100
AcDb3dPolylineVertex
10
748619.813710805
20
8930162.78918383
30
185.826599481106
70
32
0
VERTEX
5
B6
100
AcDbEntity
8
Real Hole
62
1
420
16711680
100
AcDbVertex
100
AcDb3dPolylineVertex
10
748619.815647546
20
8930163.05338654
30
184.862134339809
70
32
0
VERTEX
5
B7
100
AcDbEntity
8
Real Hole
62
1
420
16711680
100
AcDbVertex
100
AcDb3dPolylineVertex
10
748619.809643235
20
8930163.33532915
30
183.902721765041
70
32
0
VERTEX
5
B8
100
AcDbEntity
8
Real Hole
62
1
420
16711680
100
AcDbVertex
100
AcDb3dPolylineVertex
10
748619.796454165
20
8930163.60308382
30
182.939324738979
70
32
0
VERTEX
5
B9
100
AcDbEntity
8
Real Hole
62
1
420
16711680
100
AcDbVertex
100
AcDb3dPolylineVertex
10
748619.786388985
20
8930163.88155768
30
181.978933694363
70
32
0
VERTEX
5
BA
100
AcDbEntity
8
Real Hole
62
1
420
16711680
100
AcDbVertex
100
AcDb3dPolylineVertex
10
748619.771795038
20
8930164.19686935
30
181.030058267117
70
32
0
VERTEX
5
BB
100
AcDbEntity
8
Real Hole
62
1
420
16711680
100
AcDbVertex
100
AcDb3dPolylineVertex
10
748619.759205594
20
8930164.39422438
30
180.358572366238
70
32
0
SEQEND
5
BC
100
AcDbEntity
8
Real Hole
0
POINT
5
BE
330
1A
100
AcDbEntity
67
0
8
Hole
62
244
420
659967
6
ByLayer
370
-1
48
1.0
60
0
100
AcDbPoint
10
748618.540001373
20
8930161.60999999
30
190.699999990463
39
0.0
210
0.0
220
0.0
230
1.0
50
360.0
0
LINE
5
BF
330
1A
100
AcDbEntity
67
0
8
Theoretical Hole
62
244
420
659967
6
ByLayer
370
-1
48
1.0
60
0
100
AcDbLine
10
748618.540001373
20
8930161.60999999
30
190.699999990463
11
748618.83521698
21
8930164.20508784
31
179.993983688354
39
0.0
210
0.0
220
0.0
230
1.0
0
TEXT
5
C0
330
1A
100
AcDbEntity
67
0
8
Number
62
244
420
659967
6
ByLayer
370
-1
48
1.0
60
0
100
AcDbText
1
9
10
748618.540001373
20
8930161.91599998
30
190.699999990463
40
0.3
41
1.0
50
0.0
51
0.0
7
Standard
11
748618.540001373
21
8930161.91599998
31
190.699999990463
210
0.0
220
0.0
230
1.0
72
0
100
AcDbText
73
0
0
TEXT
5
C1
330
1A
100
AcDbEntity
67
0
8
label
62
1
420
16711680
6
ByLayer
370
-1
48
1.0
60
0
100
AcDbText
1

10
748618.540001373
20
8930162.31599998
30
190.699999990463
40
0.3
41
1.0
50
0.0
51
0.0
7
Standard
11
748618.540001373
21
8930162.31599998
31
190.699999990463
210
0.0
220
0.0
230
1.0
72
0
100
AcDbText
73
0
0
TEXT
5
C2
330
1A
100
AcDbEntity
67
0
8
Length
62
244
420
659967
6
ByLayer
370
-1
48
1.0
60
0
100
AcDbText
1
11.02
10
748618.540001373
20
8930160.90599999
30
190.699999990463
40
0.3
41
1.0
50
0.0
51
0.0
7
Standard
11
748618.540001373
21
8930160.90599999
31
190.699999990463
210
0.0
220
0.0
230
1.0
72
0
100
AcDbText
73
0
0
POLYLINE
5
D0
330
1A
100
AcDbEntity
67
0
8
Real Hole
62
1
420
16711680
6
ByLayer
370
-1
48
1.0
60
0
100
AcDb3dPolyline
10
0.0
20
0.0
30
0.0
70
8
75
0
210
0.0
220
0.0
230
1.0
0
VERTEX
5
C3
100
AcDbEntity
8
Real Hole
62
1
420
16711680
100
AcDbVertex
100
AcDb3dPolylineVertex
10
748618.540001373
20
8930161.60999999
30
190.699999990463
70
32
0
VERTEX
5
C4
100
AcDbEntity
8
Real Hole
62
1
420
16711680
100
AcDbVertex
100
AcDb3dPolylineVertex
10
748618.593452226
20
8930161.82517941
30
189.724889340401
70
32
0
VERTEX
5
C5
100
AcDbEntity
8
Real Hole
62
1
420
16711680
100
AcDbVertex
100
AcDb3dPolylineVertex
10
748618.644566487
20
8930162.05052379
30
188.751951875687
70
32
0
VERTEX
5
C6
100
AcDbEntity
8
Real Hole
62
1
420
16711680
100
AcDbVertex
100
AcDb3dPolylineVertex
10
748618.669079761
20
8930162.28336111
30
187.779745283127
70
32
0
VERTEX
5
C7
100
AcDbEntity
8
Real Hole
62
1
420
16711680
100
AcDbVertex
100
AcDb3dPolylineVertex
10
748618.702288296
20
8930162.50636324
30
186.805493059158
70
32
0
VERTEX
5
C8
100
AcDbEntity
8
Real Hole
62
1
420
16711680
100
AcDbVertex
100
AcDb3dPolylineVertex
10
748618.753851946
20
8930162.75448224
30
185.838136854172
70
32
0
VERTEX
5
C9
100
AcDbEntity
8
Real Hole
62
1
420
16711680
100
AcDbVertex
100
AcDb3dPolylineVertex
10
748618.804102253
20
8930163.00803253
30
184.8721205616
70
32
0
VERTEX
5
CA
100
AcDbEntity
8
Real Hole
62
1
420
16711680
100
AcDbVertex
100
AcDb3dPolylineVertex
10
748618.854408215
20
8930163.26139996
30
183.906059446335
70
32
0
VERTEX
5
CB
100
AcDbEntity
8
Real Hole
62
1
420
16711680
100
AcDbVertex
100
AcDb3dPolylineVertex
10
748618.893893253
20
8930163.52434454
30
182.942056837082
70
32
0
VERTEX
5
CC
100
AcDbEntity
8
Real Hole
62
1
420
16711680
100
AcDbVertex
100
AcDb3dPolylineVertex
10
748618.921385716
20
8930163.77099976
30
181.973343076706
70
32
0
VERTEX
5
CD
100
AcDbEntity
8
Real Hole
62
1
420
16711680
100
AcDbVertex
100
AcDb3dPolylineVertex
10
748618.956686209
20
8930164.04132065
30
181.011221113205
70
32
0
VERTEX
5
CE
100
AcDbEntity
8
Real Hole
62
1
420
16711680
100
AcDbVertex
100
AcDb3dPolylineVertex
10
748618.98046742
20
8930164.19764385
30
180.432431402206
70
32
0
SEQEND
5
CF
100
AcDbEntity
8
Real Hole
0
POINT
5
D1
330
1A
100
AcDbEntity
67
0
8
Hole
62
244
420
659967
6
ByLayer
370
-1
48
1.0
60
0
100
AcDbPoint
10
748617.34000061
20
8930161.75
30
190.649999978542
39
0.0
210
0.0
220
0.0
230
1.0
50
360.0
0
LINE
5
D2
330
1A
100
AcDbEntity
67
0
8
Theoretical Hole
62
244
420
659967
6
ByLayer
370
-1
48
1.0
60
0
100
AcDbLine
10
748617.34000061
20
8930161.75
30
190.649999978542
11
748617.765449982
21
8930164.37389344
31
179.996617736816
39
0.0
210
0.0
220
0.0
230
1.0
0
TEXT
5
D3
330
1A
100
AcDbEntity
67
0
8
Number
62
244
420
659967
6
ByLayer
370
-1
48
1.0
60
0
100
AcDbText
1
10
10
748617.34000061
20
8930162.056
30
190.649999978542
40
0.3
41
1.0
50
0.0
51
0.0
7
Standard
11
748617.34000061
21
8930162.056
31
190.649999978542
210
0.0
220
0.0
230
1.0
72
0
100
AcDbText
73
0
0
TEXT
5
D4
330
1A
100
AcDbEntity
67
0
8
label
62
1
420
16711680
6
ByLayer
370
-1
48
1.0
60
0
100
AcDbText
1

10
748617.34000061
20
8930162.456
30
190.649999978542
40
0.3
41
1.0
50
0.0
51
0.0
7
Standard
11
748617.34000061
21
8930162.456
31
190.649999978542
210
0.0
220
0.0
230
1.0
72
0
100
AcDbText
73
0
0
TEXT
5
D5
330
1A
100
AcDbEntity
67
0
8
Length
62
244
420
659967
6
ByLayer
370
-1
48
1.0
60
0
100
AcDbText
1
10.98
10
748617.34000061
20
8930161.04600001
30
190.649999978542
40
0.3
41
1.0
50
0.0
51
0.0
7
Standard
11
748617.34000061
21
8930161.04600001
31
190.649999978542
210
0.0
220
0.0
230
1.0
72
0
100
AcDbText
73
0
0
POLYLINE
5
E3
330
1A
100
AcDbEntity
67
0
8
Real Hole
62
1
420
16711680
6
ByLayer
370
-1
48
1.0
60
0
100
AcDb3dPolyline
10
0.0
20
0.0
30
0.0
70
8
75
0
210
0.0
220
0.0
230
1.0
0
VERTEX
5
D6
100
AcDbEntity
8
Real Hole
62
1
420
16711680
100
AcDbVertex
100
AcDb3dPolylineVertex
10
748617.34000061
20
8930161.75
30
190.649999978542
70
32
0
VERTEX
5
D7
100
AcDbEntity
8
Real Hole
62
1
420
16711680
100
AcDbVertex
100
AcDb3dPolylineVertex
10
748617.410438049
20
8930161.9789605
30
189.67911601305
70
32
0
VERTEX
5
D8
100
AcDbEntity
8
Real Hole
62
1
420
16711680
100
AcDbVertex
100
AcDb3dPolylineVertex
10
748617.449614767
20
8930162.19095856
30
188.702631475925
70
32
0
VERTEX
5
D9
100
AcDbEntity
8
Real Hole
62
1
420
16711680
100
AcDbVertex
100
AcDb3dPolylineVertex
10
748617.503395285
20
8930162.43116492
30
187.733400704861
70
32
0
VERTEX
5
DA
100
AcDbEntity
8
Real Hole
62
1
420
16711680
100
AcDbVertex
100
AcDb3dPolylineVertex
10
748617.567309539
20
8930162.68561822
30
186.768429877758
70
32
0
VERTEX
5
DB
100
AcDbEntity
8
Real Hole
62
1
420
16711680
100
AcDbVertex
100
AcDb3dPolylineVertex
10
748617.628312986
20
8930162.95631182
30
185.807699086666
70
32
0
VERTEX
5
DC
100
AcDbEntity
8
Real Hole
62
1
420
16711680
100
AcDbVertex
100
AcDb3dPolylineVertex
10
748617.695854287
20
8930163.22700393
30
184.84740531683
70
32
0
VERTEX
5
DD
100
AcDbEntity
8
Real Hole
62
1
420
16711680
100
AcDbVertex
100
AcDb3dPolylineVertex
10
748617.746372174
20
8930163.46860886
30
183.878346803188
70
32
0
VERTEX
5
DE
100
AcDbEntity
8
Real Hole
62
1
420
16711680
100
AcDbVertex
100
AcDb3dPolylineVertex
10
748617.781646084
20
8930163.72314036
30
182.911925675869
70
32
0
VERTEX
5
DF
100
AcDbEntity
8
Real Hole
62
1
420
16711680
100
AcDbVertex
100
AcDb3dPolylineVertex
10
748617.799380313
20
8930163.99299073
30
181.949186685085
70
32
0
VERTEX
5
E0
100
AcDbEntity
8
Real Hole
62
1
420
16711680
100
AcDbVertex
100
AcDb3dPolylineVertex
10
748617.8351265
20
8930164.27795077
30
180.991314294338
70
32
0
VERTEX
5
E1
100
AcDbEntity
8
Real Hole
62
1
420
16711680
100
AcDbVertex
100
AcDb3dPolylineVertex
10
748617.859973292
20
8930164.54031325
30
180.026665093899
70
32
0
SEQEND
5
E2
100
AcDbEntity
8
Real Hole
0
POINT
5
E4
330
1A
100
AcDbEntity
67
0
8
Hole
62
244
420
659967
6
ByLayer
370
-1
48
1.0
60
0
100
AcDbPoint
10
748616.160000305
20
8930161.94
30
190.610000016689
39
0.0
210
0.0
220
0.0
230
1.0
50
360.0
0
LINE
5
E5
330
1A
100
AcDbEntity
67
0
8
Theoretical Hole
62
244
420
659967
6
ByLayer
370
-1
48
1.0
60
0
100
AcDbLine
10
748616.160000305
20
8930161.94
30
190.610000016689
11
748616.591404419
21
8930164.55440468
31
180.006052436829
39
0.0
210
0.0
220
0.0
230
1.0
0
TEXT
5
E6
330
1A
100
AcDbEntity
67
0
8
Number
62
244
420
659967
6
ByLayer
370
-1
48
1.0
60
0
100
AcDbText
1
11
10
748616.160000305
20
8930162.24599999
30
190.610000016689
40
0.3
41
1.0
50
0.0
51
0.0
7
Standard
11
748616.160000305
21
8930162.24599999
31
190.610000016689
210
0.0
220
0.0
230
1.0
72
0
100
AcDbText
73
0
0
TEXT
5
E7
330
1A
100
AcDbEntity
67
0
8
label
62
1
420
16711680
6
ByLayer
370
-1
48
1.0
60
0
100
AcDbText
1

10
748616.160000305
20
8930162.64599999
30
190.610000016689
40
0.3
41
1.0
50
0.0
51
0.0
7
Standard
11
748616.160000305
21
8930162.64599999
31
190.610000016689
210
0.0
220
0.0
230
1.0
72
0
100
AcDbText
73
0
0
TEXT
5
E8
330
1A
100
AcDbEntity
67
0
8
Length
62
244
420
659967
6
ByLayer
370
-1
48
1.0
60
0
100
AcDbText
1
10.93
10
748616.160000305
20
8930161.236
30
190.610000016689
40
0.3
41
1.0
50
0.0
51
0.0
7
Standard
11
748616.160000305
21
8930161.236
31
190.610000016689
210
0.0
220
0.0
230
1.0
72
0
100
AcDbText
73
0
0
POLYLINE
5
F6
330
1A
100
AcDbEntity
67
0
8
Real Hole
62
1
420
16711680
6
ByLayer
370
-1
48
1.0
60
0
100
AcDb3dPolyline
10
0.0
20
0.0
30
0.0
70
8
75
0
210
0.0
220
0.0
230
1.0
0
VERTEX
5
E9
100
AcDbEntity
8
Real Hole
62
1
420
16711680
100
AcDbVertex
100
AcDb3dPolylineVertex
10
748616.160000305
20
8930161.94
30
190.610000016689
70
32
0
VERTEX
5
EA
100
AcDbEntity
8
Real Hole
62
1
420
16711680
100
AcDbVertex
100
AcDb3dPolylineVertex
10
748616.205126982
20
8930162.20851466
30
189.647782030106
70
32
0
VERTEX
5
EB
100
AcDbEntity
8
Real Hole
62
1
420
16711680
100
AcDbVertex
100
AcDb3dPolylineVertex
10
748616.231289494
20
8930162.47582096
30
188.684525611401
70
32
0
VERTEX
5
EC
100
AcDbEntity
8
Real Hole
62
1
420
16711680
100
AcDbVertex
100
AcDb3dPolylineVertex
10
748616.239844698
20
8930162.72080982
30
187.71503746748
70
32
0
VERTEX
5
ED
100
AcDbEntity
8
Real Hole
62
1
420
16711680
100
AcDbVertex
100
AcDb3dPolylineVertex
10
748616.271560896
20
8930162.99039096
30
186.752582194805
70
32
0
VERTEX
5
EE
100
AcDbEntity
8
Real Hole
62
1
420
16711680
100
AcDbVertex
100
AcDb3dPolylineVertex
10
748616.312980841
20
8930163.29276401
30
185.800292851925
70
32
0
VERTEX
5
EF
100
AcDbEntity
8
Real Hole
62
1
420
16711680
100
AcDbVertex
100
AcDb3dPolylineVertex
10
748616.352367844
20
8930163.58179671
30
184.84378421545
70
32
0
VERTEX
5
F0
100
AcDbEntity
8
Real Hole
62
1
420
16711680
100
AcDbVertex
100
AcDb3dPolylineVertex
10
748616.384800236
20
8930163.86513299
30
183.885312440395
70
32
0
VERTEX
5
F1
100
AcDbEntity
8
Real Hole
62
1
420
16711680
100
AcDbVertex
100
AcDb3dPolylineVertex
10
748616.397484969
20
8930164.1755504
30
182.934796693325
70
32
0
VERTEX
5
F2
100
AcDbEntity
8
Real Hole
62
1
420
16711680
100
AcDbVertex
100
AcDb3dPolylineVertex
10
748616.41388775
20
8930164.51093
30
181.992856385708
70
32
0
VERTEX
5
F3
100
AcDbEntity
8
Real Hole
62
1
420
16711680
100
AcDbVertex
100
AcDb3dPolylineVertex
10
748616.424987357
20
8930164.83861941
30
181.048136117458
70
32
0
VERTEX
5
F4
100
AcDbEntity
8
Real Hole
62
1
420
16711680
100
AcDbVertex
100
AcDb3dPolylineVertex
10
748616.428337615
20
8930165.11282724
30
180.190931680202
70
32
0
SEQEND
5
F5
100
AcDbEntity
8
Real Hole
0
POINT
5
F7
330
1A
100
AcDbEntity
67
0
8
Hole
62
244
420
659967
6
ByLayer
370
-1
48
1.0
60
0
100
AcDbPoint
10
748614.98
20
8930162.13999999
30
190.639999988079
39
0.0
210
0.0
220
0.0
230
1.0
50
360.0
0
LINE
5
F8
330
1A
100
AcDbEntity
67
0
8
Theoretical Hole
62
244
420
659967
6
ByLayer
370
-1
48
1.0
60
0
100
AcDbLine
10
748614.98
20
8930162.13999999
30
190.639999988079
11
748615.52309082
21
8930164.75100178
31
179.999105873108
39
0.0
210
0.0
220
0.0
230
1.0
0
TEXT
5
F9
330
1A
100
AcDbEntity
67
0
8
Number
62
244
420
659967
6
ByLayer
370
-1
48
1.0
60
0
100
AcDbText
1
12
10
748614.98
20
8930162.44599998
30
190.639999988079
40
0.3
41
1.0
50
0.0
51
0.0
7
Standard
11
748614.98
21
8930162.44599998
31
190.639999988079
210
0.0
220
0.0
230
1.0
72
0
100
AcDbText
73
0
0
TEXT
5
FA
330
1A
100
AcDbEntity
67
0
8
label
62
1
420
16711680
6
ByLayer
370
-1
48
1.0
60
0
100
AcDbText
1

10
748614.98
20
8930162.84599998
30
190.639999988079
40
0.3
41
1.0
50
0.0
51
0.0
7
Standard
11
748614.98
21
8930162.84599998
31
190.639999988079
210
0.0
220
0.0
230
1.0
72
0
100
AcDbText
73
0
0
TEXT
5
FB
330
1A
100
AcDbEntity
67
0
8
Length
62
244
420
659967
6
ByLayer
370
-1
48
1.0
60
0
100
AcDbText
1
10.97
10
748614.98
20
8930161.43599999
30
190.639999988079
40
0.3
41
1.0
50
0.0
51
0.0
7
Standard
11
748614.98
21
8930161.43599999
31
190.639999988079
210
0.0
220
0.0
230
1.0
72
0
100
AcDbText
73
0
0
POLYLINE
5
109
330
1A
100
AcDbEntity
67
0
8
Real Hole
62
1
420
16711680
6
ByLayer
370
-1
48
1.0
60
0
100
AcDb3dPolyline
10
0.0
20
0.0
30
0.0
70
8
75
0
210
0.0
220
0.0
230
1.0
0
VERTEX
5
FC
100
AcDbEntity
8
Real Hole
62
1
420
16711680
100
AcDbVertex
100
AcDb3dPolylineVertex
10
748614.98
20
8930162.13999999
30
190.639999988079
70
32
0
VERTEX
5
FD
100
AcDbEntity
8
Real Hole
62
1
420
16711680
100
AcDbVertex
100
AcDb3dPolylineVertex
10
748615.064287196
20
8930162.38149683
30
189.673265817165
70
32
0
VERTEX
5
FE
100
AcDbEntity
8
Real Hole
62
1
420
16711680
100
AcDbVertex
100
AcDb3dPolylineVertex
10
748615.157109674
20
8930162.6268853
30
188.708295109272
70
32
0
VERTEX
5
FF
100
AcDbEntity
8
Real Hole
62
1
420
16711680
100
AcDbVertex
100
AcDb3dPolylineVertex
10
748615.224514391
20
8930162.86257434
30
187.738806846142
70
32
0
VERTEX
5
100
100
AcDbEntity
8
Real Hole
62
1
420
16711680
100
AcDbVertex
100
AcDb3dPolylineVertex
10
748615.284142326
20
8930163.10244221
30
186.769834401608
70
32
0
VERTEX
5
101
100
AcDbEntity
8
Real Hole
62
1
420
16711680
100
AcDbVertex
100
AcDb3dPolylineVertex
10
748615.344763588
20
8930163.32312811
30
185.796374919415
70
32
0
VERTEX
5
102
100
AcDbEntity
8
Real Hole
62
1
420
16711680
100
AcDbVertex
100
AcDb3dPolylineVertex
10
748615.424994658
20
8930163.59225786
30
184.836619021893
70
32
0
VERTEX
5
103
100
AcDbEntity
8
Real Hole
62
1
420
16711680
100
AcDbVertex
100
AcDb3dPolylineVertex
10
748615.507649105
20
8930163.84603906
30
183.872895362377
70
32
0
VERTEX
5
104
100
AcDbEntity
8
Real Hole
62
1
420
16711680
100
AcDbVertex
100
AcDb3dPolylineVertex
10
748615.589478295
20
8930164.13349307
30
182.918602588177
70
32
0
VERTEX
5
105
100
AcDbEntity
8
Real Hole
62
1
420
16711680
100
AcDbVertex
100
AcDb3dPolylineVertex
10
748615.658644955
20
8930164.39527834
30
181.95595801115
70
32
0
VERTEX
5
106
100
AcDbEntity
8
Real Hole
62
1
420
16711680
100
AcDbVertex
100
AcDb3dPolylineVertex
10
748615.733001153
20
8930164.68320716
30
181.001197459698
70
32
0
VERTEX
5
107
100
AcDbEntity
8
Real Hole
62
1
420
16711680
100
AcDbVertex
100
AcDb3dPolylineVertex
10
748615.787907164
20
8930164.96101177
30
180.042130115032
70
32
0
SEQEND
5
108
100
AcDbEntity
8
Real Hole
0
POINT
5
10A
330
1A
100
AcDbEntity
67
0
8
Hole
62
244
420
659967
6
ByLayer
370
-1
48
1.0
60
0
100
AcDbPoint
10
748613.799999695
20
8930162.38000006
30
190.69
39
0.0
210
0.0
220
0.0
230
1.0
50
360.0
0
LINE
5
10B
330
1A
100
AcDbEntity
67
0
8
Theoretical Hole
62
244
420
659967
6
ByLayer
370
-1
48
1.0
60
0
100
AcDbLine
10
748613.799999695
20
8930162.38000006
30
190.69
11
748614.377457123
21
8930164.99988717
31
180.001541557312
39
0.0
210
0.0
220
0.0
230
1.0
0
TEXT
5
10C
330
1A
100
AcDbEntity
67
0
8
Number
62
244
420
659967
6
ByLayer
370
-1
48
1.0
60
0
100
AcDbText
1
13
10
748613.799999695
20
8930162.68600005
30
190.69
40
0.3
41
1.0
50
0.0
51
0.0
7
Standard
11
748613.799999695
21
8930162.68600005
31
190.69
210
0.0
220
0.0
230
1.0
72
0
100
AcDbText
73
0
0
TEXT
5
10D
330
1A
100
AcDbEntity
67
0
8
label
62
1
420
16711680
6
ByLayer
370
-1
48
1.0
60
0
100
AcDbText
1

10
748613.799999695
20
8930163.08600005
30
190.69
40
0.3
41
1.0
50
0.0
51
0.0
7
Standard
11
748613.799999695
21
8930163.08600005
31
190.69
210
0.0
220
0.0
230
1.0
72
0
100
AcDbText
73
0
0
TEXT
5
10E
330
1A
100
AcDbEntity
67
0
8
Length
62
244
420
659967
6
ByLayer
370
-1
48
1.0
60
0
100
AcDbText
1
11.02
10
748613.799999695
20
8930161.67600006
30
190.69
40
0.3
41
1.0
50
0.0
51
0.0
7
Standard
11
748613.799999695
21
8930161.67600006
31
190.69
210
0.0
220
0.0
230
1.0
72
0
100
AcDbText
73
0
0
POLYLINE
5
11C
330
1A
100
AcDbEntity
67
0
8
Real Hole
62
1
420
16711680
6
ByLayer
370
-1
48
1.0
60
0
100
AcDb3dPolyline
10
0.0
20
0.0
30
0.0
70
8
75
0
210
0.0
220
0.0
230
1.0
0
VERTEX
5
10F
100
AcDbEntity
8
Real Hole
62
1
420
16711680
100
AcDbVertex
100
AcDb3dPolylineVertex
10
748613.799999695
20
8930162.38000006
30
190.69
70
32
0
VERTEX
5
110
100
AcDbEntity
8
Real Hole
62
1
420
16711680
100
AcDbVertex
100
AcDb3dPolylineVertex
10
748613.868820373
20
8930162.62582533
30
189.723132016659
70
32
0
VERTEX
5
111
100
AcDbEntity
8
Real Hole
62
1
420
16711680
100
AcDbVertex
100
AcDb3dPolylineVertex
10
748613.906734403
20
8930162.8563433
30
188.750802936554
70
32
0
VERTEX
5
112
100
AcDbEntity
8
Real Hole
62
1
420
16711680
100
AcDbVertex
100
AcDb3dPolylineVertex
10
748613.950675126
20
8930163.07505292
30
187.776002826691
70
32
0
VERTEX
5
113
100
AcDbEntity
8
Real Hole
62
1
420
16711680
100
AcDbVertex
100
AcDb3dPolylineVertex
10
748614.022162344
20
8930163.32835829
30
186.811261358261
70
32
0
VERTEX
5
114
100
AcDbEntity
8
Real Hole
62
1
420
16711680
100
AcDbVertex
100
AcDb3dPolylineVertex
10
748614.081429671
20
8930163.60458034
30
185.851996841431
70
32
0
VERTEX
5
115
100
AcDbEntity
8
Real Hole
62
1
420
16711680
100
AcDbVertex
100
AcDb3dPolylineVertex
10
748614.123066645
20
8930163.90541321
30
184.899228992462
70
32
0
VERTEX
5
116
100
AcDbEntity
8
Real Hole
62
1
420
16711680
100
AcDbVertex
100
AcDb3dPolylineVertex
10
748614.154703389
20
8930164.17635638
30
183.937153759003
70
32
0
VERTEX
5
117
100
AcDbEntity
8
Real Hole
62
1
420
16711680
100
AcDbVertex
100
AcDb3dPolylineVertex
10
748614.190368901
20
8930164.4594726
30
182.978731575012
70
32
0
VERTEX
5
118
100
AcDbEntity
8
Real Hole
62
1
420
16711680
100
AcDbVertex
100
AcDb3dPolylineVertex
10
748614.206307422
20
8930164.73094958
30
182.016418876648
70
32
0
VERTEX
5
119
100
AcDbEntity
8
Real Hole
62
1
420
16711680
100
AcDbVertex
100
AcDb3dPolylineVertex
10
748614.232932847
20
8930165.02126807
30
181.05985874176
70
32
0
VERTEX
5
11A
100
AcDbEntity
8
Real Hole
62
1
420
16711680
100
AcDbVertex
100
AcDb3dPolylineVertex
10
748614.251352559
20
8930165.34267611
30
180.113097610474
70
32
0
SEQEND
5
11B
100
AcDbEntity
8
Real Hole
0
POINT
5
11D
330
1A
100
AcDbEntity
67
0
8
Hole
62
244
420
659967
6
ByLayer
370
-1
48
1.0
60
0
100
AcDbPoint
10
748612.629999619
20
8930162.64000005
30
190.709999980927
39
0.0
210
0.0
220
0.0
230
1.0
50
360.0
0
LINE
5
11E
330
1A
100
AcDbEntity
67
0
8
Theoretical Hole
62
244
420
659967
6
ByLayer
370
-1
48
1.0
60
0
100
AcDbLine
10
748612.629999619
20
8930162.64000005
30
190.709999980927
11
748613.314732056
21
8930165.23895258
31
180.002143325806
39
0.0
210
0.0
220
0.0
230
1.0
0
TEXT
5
11F
330
1A
100
AcDbEntity
67
0
8
Number
62
244
420
659967
6
ByLayer
370
-1
48
1.0
60
0
100
AcDbText
1
14
10
748612.629999619
20
8930162.94600004
30
190.709999980927
40
0.3
41
1.0
50
0.0
51
0.0
7
Standard
11
748612.629999619
21
8930162.94600004
31
190.709999980927
210
0.0
220
0.0
230
1.0
72
0
100
AcDbText
73
0
0
TEXT
5
120
330
1A
100
AcDbEntity
67
0
8
label
62
1
420
16711680
6
ByLayer
370
-1
48
1.0
60
0
100
AcDbText
1

10
748612.629999619
20
8930163.34600004
30
190.709999980927
40
0.3
41
1.0
50
0.0
51
0.0
7
Standard
11
748612.629999619
21
8930163.34600004
31
190.709999980927
210
0.0
220
0.0
230
1.0
72
0
100
AcDbText
73
0
0
TEXT
5
121
330
1A
100
AcDbEntity
67
0
8
Length
62
244
420
659967
6
ByLayer
370
-1
48
1.0
60
0
100
AcDbText
1
11.04
10
748612.629999619
20
8930161.93600005
30
190.709999980927
40
0.3
41
1.0
50
0.0
51
0.0
7
Standard
11
748612.629999619
21
8930161.93600005
31
190.709999980927
210
0.0
220
0.0
230
1.0
72
0
100
AcDbText
73
0
0
POLYLINE
5
12F
330
1A
100
AcDbEntity
67
0
8
Real Hole
62
1
420
16711680
6
ByLayer
370
-1
48
1.0
60
0
100
AcDb3dPolyline
10
0.0
20
0.0
30
0.0
70
8
75
0
210
0.0
220
0.0
230
1.0
0
VERTEX
5
122
100
AcDbEntity
8
Real Hole
62
1
420
16711680
100
AcDbVertex
100
AcDb3dPolylineVertex
10
748612.629999619
20
8930162.64000005
30
190.709999980927
70
32
0
VERTEX
5
123
100
AcDbEntity
8
Real Hole
62
1
420
16711680
100
AcDbVertex
100
AcDb3dPolylineVertex
10
748612.681087371
20
8930162.90282375
30
189.746509613991
70
32
0
VERTEX
5
124
100
AcDbEntity
8
Real Hole
62
1
420
16711680
100
AcDbVertex
100
AcDb3dPolylineVertex
10
748612.743424948
20
8930163.15471822
30
188.780764641762
70
32
0
VERTEX
5
125
100
AcDbEntity
8
Real Hole
62
1
420
16711680
100
AcDbVertex
100
AcDb3dPolylineVertex
10
748612.779115047
20
8930163.39210892
30
187.810006322861
70
32
0
VERTEX
5
126
100
AcDbEntity
8
Real Hole
62
1
420
16711680
100
AcDbVertex
100
AcDb3dPolylineVertex
10
748612.827213954
20
8930163.64813453
30
186.844533624649
70
32
0
VERTEX
5
127
100
AcDbEntity
8
Real Hole
62
1
420
16711680
100
AcDbVertex
100
AcDb3dPolylineVertex
10
748612.889561425
20
8930163.9382183
30
185.889565410614
70
32
0
VERTEX
5
128
100
AcDbEntity
8
Real Hole
62
1
420
16711680
100
AcDbVertex
100
AcDb3dPolylineVertex
10
748612.921444695
20
8930164.17341382
30
184.918140354156
70
32
0
VERTEX
5
129
100
AcDbEntity
8
Real Hole
62
1
420
16711680
100
AcDbVertex
100
AcDb3dPolylineVertex
10
748612.964952539
20
8930164.41070265
30
183.947676124573
70
32
0
VERTEX
5
12A
100
AcDbEntity
8
Real Hole
62
1
420
16711680
100
AcDbVertex
100
AcDb3dPolylineVertex
10
748613.00827546
20
8930164.66073507
30
182.98040813446
70
32
0
VERTEX
5
12B
100
AcDbEntity
8
Real Hole
62
1
420
16711680
100
AcDbVertex
100
AcDb3dPolylineVertex
10
748613.061596971
20
8930164.94871253
30
182.024256649017
70
32
0
VERTEX
5
12C
100
AcDbEntity
8
Real Hole
62
1
420
16711680
100
AcDbVertex
100
AcDb3dPolylineVertex
10
748613.139104586
20
8930165.24733705
30
181.07303899765
70
32
0
VERTEX
5
12D
100
AcDbEntity
8
Real Hole
62
1
420
16711680
100
AcDbVertex
100
AcDb3dPolylineVertex
10
748613.187286179
20
8930165.54881853
30
180.226406040192
70
32
0
SEQEND
5
12E
100
AcDbEntity
8
Real Hole
0
POINT
5
130
330
1A
100
AcDbEntity
67
0
8
Hole
62
244
420
659967
6
ByLayer
370
-1
48
1.0
60
0
100
AcDbPoint
10
748611.469999771
20
8930162.94
30
190.709999980927
39
0.0
210
0.0
220
0.0
230
1.0
50
360.0
0
LINE
5
131
330
1A
100
AcDbEntity
67
0
8
Theoretical Hole
62
244
420
659967
6
ByLayer
370
-1
48
1.0
60
0
100
AcDbLine
10
748611.469999771
20
8930162.94
30
190.709999980927
11
748612.199760895
21
8930165.54668325
31
179.996681632996
39
0.0
210
0.0
220
0.0
230
1.0
0
TEXT
5
132
330
1A
100
AcDbEntity
67
0
8
Number
62
244
420
659967
6
ByLayer
370
-1
48
1.0
60
0
100
AcDbText
1
15
10
748611.469999771
20
8930163.24599999
30
190.709999980927
40
0.3
41
1.0
50
0.0
51
0.0
7
Standard
11
748611.469999771
21
8930163.24599999
31
190.709999980927
210
0.0
220
0.0
230
1.0
72
0
100
AcDbText
73
0
0
TEXT
5
133
330
1A
100
AcDbEntity
67
0
8
label
62
1
420
16711680
6
ByLayer
370
-1
48
1.0
60
0
100
AcDbText
1

10
748611.469999771
20
8930163.64599999
30
190.709999980927
40
0.3
41
1.0
50
0.0
51
0.0
7
Standard
11
748611.469999771
21
8930163.64599999
31
190.709999980927
210
0.0
220
0.0
230
1.0
72
0
100
AcDbText
73
0
0
TEXT
5
134
330
1A
100
AcDbEntity
67
0
8
Length
62
244
420
659967
6
ByLayer
370
-1
48
1.0
60
0
100
AcDbText
1
11.05
10
748611.469999771
20
8930162.236
30
190.709999980927
40
0.3
41
1.0
50
0.0
51
0.0
7
Standard
11
748611.469999771
21
8930162.236
31
190.709999980927
210
0.0
220
0.0
230
1.0
72
0
100
AcDbText
73
0
0
POLYLINE
5
142
330
1A
100
AcDbEntity
67
0
8
Real Hole
62
1
420
16711680
6
ByLayer
370
-1
48
1.0
60
0
100
AcDb3dPolyline
10
0.0
20
0.0
30
0.0
70
8
75
0
210
0.0
220
0.0
230
1.0
0
VERTEX
5
135
100
AcDbEntity
8
Real Hole
62
1
420
16711680
100
AcDbVertex
100
AcDb3dPolylineVertex
10
748611.469999771
20
8930162.94
30
190.709999980927
70
32
0
VERTEX
5
136
100
AcDbEntity
8
Real Hole
62
1
420
16711680
100
AcDbVertex
100
AcDb3dPolylineVertex
10
748611.587132614
20
8930163.14271659
30
189.737793269157
70
32
0
VERTEX
5
137
100
AcDbEntity
8
Real Hole
62
1
420
16711680
100
AcDbVertex
100
AcDb3dPolylineVertex
10
748611.688291829
20
8930163.33329025
30
188.761346402168
70
32
0
VERTEX
5
138
100
AcDbEntity
8
Real Hole
62
1
420
16711680
100
AcDbVertex
100
AcDb3dPolylineVertex
10
748611.796543967
20
8930163.56596762
30
187.794835748672
70
32
0
VERTEX
5
139
100
AcDbEntity
8
Real Hole
62
1
420
16711680
100
AcDbVertex
100
AcDb3dPolylineVertex
10
748611.913952212
20
8930163.79719186
30
186.829045715332
70
32
0
VERTEX
5
13A
100
AcDbEntity
8
Real Hole
62
1
420
16711680
100
AcDbVertex
100
AcDb3dPolylineVertex
10
748612.025728683
20
8930164.01972491
30
185.8605493927
70
32
0
VERTEX
5
13B
100
AcDbEntity
8
Real Hole
62
1
420
16711680
100
AcDbVertex
100
AcDb3dPolylineVertex
10
748612.119894783
20
8930164.24989742
30
184.891966285706
70
32
0
VERTEX
5
13C
100
AcDbEntity
8
Real Hole
62
1
420
16711680
100
AcDbVertex
100
AcDb3dPolylineVertex
10
748612.211440425
20
8930164.49216587
30
183.926085414886
70
32
0
VERTEX
5
13D
100
AcDbEntity
8
Real Hole
62
1
420
16711680
100
AcDbVertex
100
AcDb3dPolylineVertex
10
748612.301488798
20
8930164.72724039
30
182.958288612366
70
32
0
VERTEX
5
13E
100
AcDbEntity
8
Real Hole
62
1
420
16711680
100
AcDbVertex
100
AcDb3dPolylineVertex
10
748612.388834517
20
8930164.97891134
30
181.994424762726
70
32
0
VERTEX
5
13F
100
AcDbEntity
8
Real Hole
62
1
420
16711680
100
AcDbVertex
100
AcDb3dPolylineVertex
10
748612.481558065
20
8930165.23759359
30
181.032923641205
70
32
0
VERTEX
5
140
100
AcDbEntity
8
Real Hole
62
1
420
16711680
100
AcDbVertex
100
AcDb3dPolylineVertex
10
748612.589503269
20
8930165.5214631
30
180.080155315399
70
32
0
SEQEND
5
141
100
AcDbEntity
8
Real Hole
0
POINT
5
143
330
1A
100
AcDbEntity
67
0
8
Hole
62
244
420
659967
6
ByLayer
370
-1
48
1.0
60
0
100
AcDbPoint
10
748610.309999924
20
8930163.26999992
30
190.699999990463
39
0.0
210
0.0
220
0.0
230
1.0
50
360.0
0
LINE
5
144
330
1A
100
AcDbEntity
67
0
8
Theoretical Hole
62
244
420
659967
6
ByLayer
370
-1
48
1.0
60
0
100
AcDbLine
10
748610.309999924
20
8930163.26999992
30
190.699999990463
11
748611.162016373
21
8930165.85837883
31
180.001590194702
39
0.0
210
0.0
220
0.0
230
1.0
0
TEXT
5
145
330
1A
100
AcDbEntity
67
0
8
Number
62
244
420
659967
6
ByLayer
370
-1
48
1.0
60
0
100
AcDbText
1
16
10
748610.309999924
20
8930163.57599992
30
190.699999990463
40
0.3
41
1.0
50
0.0
51
0.0
7
Standard
11
748610.309999924
21
8930163.57599992
31
190.699999990463
210
0.0
220
0.0
230
1.0
72
0
100
AcDbText
73
0
0
TEXT
5
146
330
1A
100
AcDbEntity
67
0
8
label
62
1
420
16711680
6
ByLayer
370
-1
48
1.0
60
0
100
AcDbText
1

10
748610.309999924
20
8930163.97599992
30
190.699999990463
40
0.3
41
1.0
50
0.0
51
0.0
7
Standard
11
748610.309999924
21
8930163.97599992
31
190.699999990463
210
0.0
220
0.0
230
1.0
72
0
100
AcDbText
73
0
0
TEXT
5
147
330
1A
100
AcDbEntity
67
0
8
Length
62
244
420
659967
6
ByLayer
370
-1
48
1.0
60
0
100
AcDbText
1
11.04
10
748610.309999924
20
8930162.56599993
30
190.699999990463
40
0.3
41
1.0
50
0.0
51
0.0
7
Standard
11
748610.309999924
21
8930162.56599993
31
190.699999990463
210
0.0
220
0.0
230
1.0
72
0
100
AcDbText
73
0
0
POLYLINE
5
155
330
1A
100
AcDbEntity
67
0
8
Real Hole
62
1
420
16711680
6
ByLayer
370
-1
48
1.0
60
0
100
AcDb3dPolyline
10
0.0
20
0.0
30
0.0
70
8
75
0
210
0.0
220
0.0
230
1.0
0
VERTEX
5
148
100
AcDbEntity
8
Real Hole
62
1
420
16711680
100
AcDbVertex
100
AcDb3dPolylineVertex
10
748610.309999924
20
8930163.26999992
30
190.699999990463
70
32
0
VERTEX
5
149
100
AcDbEntity
8
Real Hole
62
1
420
16711680
100
AcDbVertex
100
AcDb3dPolylineVertex
10
748610.391459319
20
8930163.49527466
30
189.729116024971
70
32
0
VERTEX
5
14A
100
AcDbEntity
8
Real Hole
62
1
420
16711680
100
AcDbVertex
100
AcDb3dPolylineVertex
10
748610.457514893
20
8930163.71119797
30
188.754942598343
70
32
0
VERTEX
5
14B
100
AcDbEntity
8
Real Hole
62
1
420
16711680
100
AcDbVertex
100
AcDb3dPolylineVertex
10
748610.545888107
20
8930163.98093832
30
187.796073379517
70
32
0
VERTEX
5
14C
100
AcDbEntity
8
Real Hole
62
1
420
16711680
100
AcDbVertex
100
AcDb3dPolylineVertex
10
748610.636648278
20
8930164.22655839
30
186.830965461731
70
32
0
VERTEX
5
14D
100
AcDbEntity
8
Real Hole
62
1
420
16711680
100
AcDbVertex
100
AcDb3dPolylineVertex
10
748610.733383547
20
8930164.4762153
30
185.867475214005
70
32
0
VERTEX
5
14E
100
AcDbEntity
8
Real Hole
62
1
420
16711680
100
AcDbVertex
100
AcDb3dPolylineVertex
10
748610.811206024
20
8930164.73643595
30
184.905067148209
70
32
0
VERTEX
5
14F
100
AcDbEntity
8
Real Hole
62
1
420
16711680
100
AcDbVertex
100
AcDb3dPolylineVertex
10
748610.850840967
20
8930165.00037867
30
183.941343488693
70
32
0
VERTEX
5
150
100
AcDbEntity
8
Real Hole
62
1
420
16711680
100
AcDbVertex
100
AcDb3dPolylineVertex
10
748610.909419279
20
8930165.26439053
30
182.97860449791
70
32
0
VERTEX
5
151
100
AcDbEntity
8
Real Hole
62
1
420
16711680
100
AcDbVertex
100
AcDb3dPolylineVertex
10
748610.976724606
20
8930165.54048795
30
182.019834699631
70
32
0
VERTEX
5
152
100
AcDbEntity
8
Real Hole
62
1
420
16711680
100
AcDbVertex
100
AcDb3dPolylineVertex
10
748611.030624013
20
8930165.77302593
30
181.048741521835
70
32
0
VERTEX
5
153
100
AcDbEntity
8
Real Hole
62
1
420
16711680
100
AcDbVertex
100
AcDb3dPolylineVertex
10
748611.0899931
20
8930166.03906411
30
180.191012563705
70
32
0
SEQEND
5
154
100
AcDbEntity
8
Real Hole
0
POINT
5
156
330
1A
100
AcDbEntity
67
0
8
Hole
62
244
420
659967
6
ByLayer
370
-1
48
1.0
60
0
100
AcDbPoint
10
748609.170000534
20
8930163.64000005
30
190.680000009537
39
0.0
210
0.0
220
0.0
230
1.0
50
360.0
0
LINE
5
157
330
1A
100
AcDbEntity
67
0
8
Theoretical Hole
62
244
420
659967
6
ByLayer
370
-1
48
1.0
60
0
100
AcDbLine
10
748609.170000534
20
8930163.64000005
30
190.680000009537
11
748610.054220657
21
8930166.21233648
31
180.000969352722
39
0.0
210
0.0
220
0.0
230
1.0
0
TEXT
5
158
330
1A
100
AcDbEntity
67
0
8
Number
62
244
420
659967
6
ByLayer
370
-1
48
1.0
60
0
100
AcDbText
1
17
10
748609.170000534
20
8930163.94600004
30
190.680000009537
40
0.3
41
1.0
50
0.0
51
0.0
7
Standard
11
748609.170000534
21
8930163.94600004
31
190.680000009537
210
0.0
220
0.0
230
1.0
72
0
100
AcDbText
73
0
0
TEXT
5
159
330
1A
100
AcDbEntity
67
0
8
label
62
1
420
16711680
6
ByLayer
370
-1
48
1.0
60
0
100
AcDbText
1

10
748609.170000534
20
8930164.34600004
30
190.680000009537
40
0.3
41
1.0
50
0.0
51
0.0
7
Standard
11
748609.170000534
21
8930164.34600004
31
190.680000009537
210
0.0
220
0.0
230
1.0
72
0
100
AcDbText
73
0
0
TEXT
5
15A
330
1A
100
AcDbEntity
67
0
8
Length
62
244
420
659967
6
ByLayer
370
-1
48
1.0
60
0
100
AcDbText
1
11.02
10
748609.170000534
20
8930162.93600005
30
190.680000009537
40
0.3
41
1.0
50
0.0
51
0.0
7
Standard
11
748609.170000534
21
8930162.93600005
31
190.680000009537
210
0.0
220
0.0
230
1.0
72
0
100
AcDbText
73
0
0
POLYLINE
5
168
330
1A
100
AcDbEntity
67
0
8
Real Hole
62
1
420
16711680
6
ByLayer
370
-1
48
1.0
60
0
100
AcDb3dPolyline
10
0.0
20
0.0
30
0.0
70
8
75
0
210
0.0
220
0.0
230
1.0
0
VERTEX
5
15B
100
AcDbEntity
8
Real Hole
62
1
420
16711680
100
AcDbVertex
100
AcDb3dPolylineVertex
10
748609.170000534
20
8930163.64000005
30
190.680000009537
70
32
0
VERTEX
5
15C
100
AcDbEntity
8
Real Hole
62
1
420
16711680
100
AcDbVertex
100
AcDb3dPolylineVertex
10
748609.240550506
20
8930163.87264525
30
189.710000576973
70
32
0
VERTEX
5
15D
100
AcDbEntity
8
Real Hole
62
1
420
16711680
100
AcDbVertex
100
AcDb3dPolylineVertex
10
748609.291571084
20
8930164.09068605
30
188.735395493507
70
32
0
VERTEX
5
15E
100
AcDbEntity
8
Real Hole
62
1
420
16711680
100
AcDbVertex
100
AcDb3dPolylineVertex
10
748609.376419406
20
8930164.33502358
30
187.769424381256
70
32
0
VERTEX
5
15F
100
AcDbEntity
8
Real Hole
62
1
420
16711680
100
AcDbVertex
100
AcDb3dPolylineVertex
10
748609.428400617
20
8930164.55982095
30
186.796406450272
70
32
0
VERTEX
5
160
100
AcDbEntity
8
Real Hole
62
1
420
16711680
100
AcDbVertex
100
AcDb3dPolylineVertex
10
748609.499902229
20
8930164.78631944
30
185.825022878647
70
32
0
VERTEX
5
161
100
AcDbEntity
8
Real Hole
62
1
420
16711680
100
AcDbVertex
100
AcDb3dPolylineVertex
10
748609.585675995
20
8930164.99390775
30
184.850574197769
70
32
0
VERTEX
5
162
100
AcDbEntity
8
Real Hole
62
1
420
16711680
100
AcDbVertex
100
AcDb3dPolylineVertex
10
748609.700682502
20
8930165.27642697
30
183.898231687546
70
32
0
VERTEX
5
163
100
AcDbEntity
8
Real Hole
62
1
420
16711680
100
AcDbVertex
100
AcDb3dPolylineVertex
10
748609.791428308
20
8930165.52043528
30
182.932713689804
70
32
0
VERTEX
5
164
100
AcDbEntity
8
Real Hole
62
1
420
16711680
100
AcDbVertex
100
AcDb3dPolylineVertex
10
748609.903125327
20
8930165.77095765
30
181.971068086624
70
32
0
VERTEX
5
165
100
AcDbEntity
8
Real Hole
62
1
420
16711680
100
AcDbVertex
100
AcDb3dPolylineVertex
10
748609.990924637
20
8930166.01442951
30
181.005141916275
70
32
0
VERTEX
5
166
100
AcDbEntity
8
Real Hole
62
1
420
16711680
100
AcDbVertex
100
AcDb3dPolylineVertex
10
748610.137611608
20
8930166.31005806
30
180.061168375015
70
32
0
SEQEND
5
167
100
AcDbEntity
8
Real Hole
0
POINT
5
169
330
1A
100
AcDbEntity
67
0
8
Hole
62
244
420
659967
6
ByLayer
370
-1
48
1.0
60
0
100
AcDbPoint
10
748608.039999466
20
8930164.02999991
30
190.670000019073
39
0.0
210
0.0
220
0.0
230
1.0
50
360.0
0
LINE
5
16A
330
1A
100
AcDbEntity
67
0
8
Theoretical Hole
62
244
420
659967
6
ByLayer
370
-1
48
1.0
60
0
100
AcDbLine
10
748608.039999466
20
8930164.02999991
30
190.670000019073
11
748609.074331741
21
8930166.5772509
31
180.008773269653
39
0.0
210
0.0
220
0.0
230
1.0
0
TEXT
5
16B
330
1A
100
AcDbEntity
67
0
8
Number
62
244
420
659967
6
ByLayer
370
-1
48
1.0
60
0
100
AcDbText
1
18
10
748608.039999466
20
8930164.33599991
30
190.670000019073
40
0.3
41
1.0
50
0.0
51
0.0
7
Standard
11
748608.039999466
21
8930164.33599991
31
190.670000019073
210
0.0
220
0.0
230
1.0
72
0
100
AcDbText
73
0
0
TEXT
5
16C
330
1A
100
AcDbEntity
67
0
8
label
62
1
420
16711680
6
ByLayer
370
-1
48
1.0
60
0
100
AcDbText
1

10
748608.039999466
20
8930164.73599991
30
190.670000019073
40
0.3
41
1.0
50
0.0
51
0.0
7
Standard
11
748608.039999466
21
8930164.73599991
31
190.670000019073
210
0.0
220
0.0
230
1.0
72
0
100
AcDbText
73
0
0
TEXT
5
16D
330
1A
100
AcDbEntity
67
0
8
Length
62
244
420
659967
6
ByLayer
370
-1
48
1.0
60
0
100
AcDbText
1
11.01
10
748608.039999466
20
8930163.32599992
30
190.670000019073
40
0.3
41
1.0
50
0.0
51
0.0
7
Standard
11
748608.039999466
21
8930163.32599992
31
190.670000019073
210
0.0
220
0.0
230
1.0
72
0
100
AcDbText
73
0
0
POLYLINE
5
17B
330
1A
100
AcDbEntity
67
0
8
Real Hole
62
1
420
16711680
6
ByLayer
370
-1
48
1.0
60
0
100
AcDb3dPolyline
10
0.0
20
0.0
30
0.0
70
8
75
0
210
0.0
220
0.0
230
1.0
0
VERTEX
5
16E
100
AcDbEntity
8
Real Hole
62
1
420
16711680
100
AcDbVertex
100
AcDb3dPolylineVertex
10
748608.039999466
20
8930164.02999991
30
190.670000019073
70
32
0
VERTEX
5
16F
100
AcDbEntity
8
Real Hole
62
1
420
16711680
100
AcDbVertex
100
AcDb3dPolylineVertex
10
748608.13798711
20
8930164.22164948
30
189.693440320492
70
32
0
VERTEX
5
170
100
AcDbEntity
8
Real Hole
62
1
420
16711680
100
AcDbVertex
100
AcDb3dPolylineVertex
10
748608.255301024
20
8930164.41338873
30
188.719031038284
70
32
0
VERTEX
5
171
100
AcDbEntity
8
Real Hole
62
1
420
16711680
100
AcDbVertex
100
AcDb3dPolylineVertex
10
748608.382698219
20
8930164.64003694
30
187.753422203064
70
32
0
VERTEX
5
172
100
AcDbEntity
8
Real Hole
62
1
420
16711680
100
AcDbVertex
100
AcDb3dPolylineVertex
10
748608.472831051
20
8930164.85372335
30
186.780686798096
70
32
0
VERTEX
5
173
100
AcDbEntity
8
Real Hole
62
1
420
16711680
100
AcDbVertex
100
AcDb3dPolylineVertex
10
748608.544262092
20
8930165.02398378
30
185.797880115509
70
32
0
VERTEX
5
174
100
AcDbEntity
8
Real Hole
62
1
420
16711680
100
AcDbVertex
100
AcDb3dPolylineVertex
10
748608.680325787
20
8930165.27499968
30
184.839507522583
70
32
0
VERTEX
5
175
100
AcDbEntity
8
Real Hole
62
1
420
16711680
100
AcDbVertex
100
AcDb3dPolylineVertex
10
748608.803159277
20
8930165.51176721
30
183.875737133026
70
32
0
VERTEX
5
176
100
AcDbEntity
8
Real Hole
62
1
420
16711680
100
AcDbVertex
100
AcDb3dPolylineVertex
10
748608.938185911
20
8930165.74801475
30
182.913471641541
70
32
0
VERTEX
5
177
100
AcDbEntity
8
Real Hole
62
1
420
16711680
100
AcDbVertex
100
AcDb3dPolylineVertex
10
748609.080070477
20
8930165.95019609
30
181.944456043243
70
32
0
VERTEX
5
178
100
AcDbEntity
8
Real Hole
62
1
420
16711680
100
AcDbVertex
100
AcDb3dPolylineVertex
10
748609.229697804
20
8930166.20060152
30
180.987947406769
70
32
0
VERTEX
5
179
100
AcDbEntity
8
Real Hole
62
1
420
16711680
100
AcDbVertex
100
AcDb3dPolylineVertex
10
748609.367811065
20
8930166.39167828
30
180.223477306366
70
32
0
SEQEND
5
17A
100
AcDbEntity
8
Real Hole
0
POINT
5
17C
330
1A
100
AcDbEntity
67
0
8
Hole
62
244
420
659967
6
ByLayer
370
-1
48
1.0
60
0
100
AcDbPoint
10
748606.930000763
20
8930164.47999996
30
190.649999978542
39
0.0
210
0.0
220
0.0
230
1.0
50
360.0
0
LINE
5
17D
330
1A
100
AcDbEntity
67
0
8
Theoretical Hole
62
244
420
659967
6
ByLayer
370
-1
48
1.0
60
0
100
AcDbLine
10
748606.930000763
20
8930164.47999996
30
190.649999978542
11
748607.987711411
21
8930166.99005932
31
180.00289100647
39
0.0
210
0.0
220
0.0
230
1.0
0
TEXT
5
17E
330
1A
100
AcDbEntity
67
0
8
Number
62
244
420
659967
6
ByLayer
370
-1
48
1.0
60
0
100
AcDbText
1
19
10
748606.930000763
20
8930164.78599996
30
190.649999978542
40
0.3
41
1.0
50
0.0
51
0.0
7
Standard
11
748606.930000763
21
8930164.78599996
31
190.649999978542
210
0.0
220
0.0
230
1.0
72
0
100
AcDbText
73
0
0
TEXT
5
17F
330
1A
100
AcDbEntity
67
0
8
label
62
1
420
16711680
6
ByLayer
370
-1
48
1.0
60
0
100
AcDbText
1

10
748606.930000763
20
8930165.18599996
30
190.649999978542
40
0.3
41
1.0
50
0.0
51
0.0
7
Standard
11
748606.930000763
21
8930165.18599996
31
190.649999978542
210
0.0
220
0.0
230
1.0
72
0
100
AcDbText
73
0
0
TEXT
5
180
330
1A
100
AcDbEntity
67
0
8
Length
62
244
420
659967
6
ByLayer
370
-1
48
1.0
60
0
100
AcDbText
1
10.99
10
748606.930000763
20
8930163.77599997
30
190.649999978542
40
0.3
41
1.0
50
0.0
51
0.0
7
Standard
11
748606.930000763
21
8930163.77599997
31
190.649999978542
210
0.0
220
0.0
230
1.0
72
0
100
AcDbText
73
0
0
POLYLINE
5
18E
330
1A
100
AcDbEntity
67
0
8
Real Hole
62
1
420
16711680
6
ByLayer
370
-1
48
1.0
60
0
100
AcDb3dPolyline
10
0.0
20
0.0
30
0.0
70
8
75
0
210
0.0
220
0.0
230
1.0
0
VERTEX
5
181
100
AcDbEntity
8
Real Hole
62
1
420
16711680
100
AcDbVertex
100
AcDb3dPolylineVertex
10
748606.930000763
20
8930164.47999996
30
190.649999978542
70
32
0
VERTEX
5
182
100
AcDbEntity
8
Real Hole
62
1
420
16711680
100
AcDbVertex
100
AcDb3dPolylineVertex
10
748607.036273133
20
8930164.70614754
30
189.681721391678
70
32
0
VERTEX
5
183
100
AcDbEntity
8
Real Hole
62
1
420
16711680
100
AcDbVertex
100
AcDb3dPolylineVertex
10
748607.137130837
20
8930164.91893664
30
188.70984256506
70
32
0
VERTEX
5
184
100
AcDbEntity
8
Real Hole
62
1
420
16711680
100
AcDbVertex
100
AcDb3dPolylineVertex
10
748607.237762164
20
8930165.11516506
30
187.734461667538
70
32
0
VERTEX
5
185
100
AcDbEntity
8
Real Hole
62
1
420
16711680
100
AcDbVertex
100
AcDb3dPolylineVertex
10
748607.357757519
20
8930165.32873213
30
186.764930846691
70
32
0
VERTEX
5
186
100
AcDbEntity
8
Real Hole
62
1
420
16711680
100
AcDbVertex
100
AcDb3dPolylineVertex
10
748607.515269499
20
8930165.59149891
30
185.813014867306
70
32
0
VERTEX
5
187
100
AcDbEntity
8
Real Hole
62
1
420
16711680
100
AcDbVertex
100
AcDb3dPolylineVertex
10
748607.626895707
20
8930165.79941958
30
184.841259362698
70
32
0
VERTEX
5
188
100
AcDbEntity
8
Real Hole
62
1
420
16711680
100
AcDbVertex
100
AcDb3dPolylineVertex
10
748607.757458012
20
8930166.01306325
30
183.873112084866
70
32
0
VERTEX
5
189
100
AcDbEntity
8
Real Hole
62
1
420
16711680
100
AcDbVertex
100
AcDb3dPolylineVertex
10
748607.855101328
20
8930166.18314487
30
182.892531278133
70
32
0
VERTEX
5
18A
100
AcDbEntity
8
Real Hole
62
1
420
16711680
100
AcDbVertex
100
AcDb3dPolylineVertex
10
748607.98739038
20
8930166.40383393
30
181.926200273037
70
32
0
VERTEX
5
18B
100
AcDbEntity
8
Real Hole
62
1
420
16711680
100
AcDbVertex
100
AcDb3dPolylineVertex
10
748608.131087165
20
8930166.61767739
30
180.959959390163
70
32
0
VERTEX
5
18C
100
AcDbEntity
8
Real Hole
62
1
420
16711680
100
AcDbVertex
100
AcDb3dPolylineVertex
10
748608.259295325
20
8930166.78943151
30
180.189203622341
70
32
0
SEQEND
5
18D
100
AcDbEntity
8
Real Hole
0
POINT
5
18F
330
1A
100
AcDbEntity
67
0
8
Hole
62
244
420
659967
6
ByLayer
370
-1
48
1.0
60
0
100
AcDbPoint
10
748605.820000153
20
8930164.94999999
30
190.629999997616
39
0.0
210
0.0
220
0.0
230
1.0
50
360.0
0
LINE
5
190
330
1A
100
AcDbEntity
67
0
8
Theoretical Hole
62
244
420
659967
6
ByLayer
370
-1
48
1.0
60
0
100
AcDbLine
10
748605.820000153
20
8930164.94999999
30
190.629999997616
11
748607.022205811
21
8930167.43135351
31
179.99149936676
39
0.0
210
0.0
220
0.0
230
1.0
0
TEXT
5
191
330
1A
100
AcDbEntity
67
0
8
Number
62
244
420
659967
6
ByLayer
370
-1
48
1.0
60
0
100
AcDbText
1
20
10
748605.820000153
20
8930165.25599998
30
190.629999997616
40
0.3
41
1.0
50
0.0
51
0.0
7
Standard
11
748605.820000153
21
8930165.25599998
31
190.629999997616
210
0.0
220
0.0
230
1.0
72
0
100
AcDbText
73
0
0
TEXT
5
192
330
1A
100
AcDbEntity
67
0
8
label
62
1
420
16711680
6
ByLayer
370
-1
48
1.0
60
0
100
AcDbText
1

10
748605.820000153
20
8930165.65599998
30
190.629999997616
40
0.3
41
1.0
50
0.0
51
0.0
7
Standard
11
748605.820000153
21
8930165.65599998
31
190.629999997616
210
0.0
220
0.0
230
1.0
72
0
100
AcDbText
73
0
0
TEXT
5
193
330
1A
100
AcDbEntity
67
0
8
Length
62
244
420
659967
6
ByLayer
370
-1
48
1.0
60
0
100
AcDbText
1
10.99
10
748605.820000153
20
8930164.24599999
30
190.629999997616
40
0.3
41
1.0
50
0.0
51
0.0
7
Standard
11
748605.820000153
21
8930164.24599999
31
190.629999997616
210
0.0
220
0.0
230
1.0
72
0
100
AcDbText
73
0
0
POLYLINE
5
1A1
330
1A
100
AcDbEntity
67
0
8
Real Hole
62
1
420
16711680
6
ByLayer
370
-1
48
1.0
60
0
100
AcDb3dPolyline
10
0.0
20
0.0
30
0.0
70
8
75
0
210
0.0
220
0.0
230
1.0
0
VERTEX
5
194
100
AcDbEntity
8
Real Hole
62
1
420
16711680
100
AcDbVertex
100
AcDb3dPolylineVertex
10
748605.820000153
20
8930164.94999999
30
190.629999997616
70
32
0
VERTEX
5
195
100
AcDbEntity
8
Real Hole
62
1
420
16711680
100
AcDbVertex
100
AcDb3dPolylineVertex
10
748605.940366935
20
8930165.15730989
30
189.659157874584
70
32
0
VERTEX
5
196
100
AcDbEntity
8
Real Hole
62
1
420
16711680
100
AcDbVertex
100
AcDb3dPolylineVertex
10
748606.071116309
20
8930165.34762255
30
188.68618011713
70
32
0
VERTEX
5
197
100
AcDbEntity
8
Real Hole
62
1
420
16711680
100
AcDbVertex
100
AcDb3dPolylineVertex
10
748606.205361019
20
8930165.53465039
30
187.713041427135
70
32
0
VERTEX
5
198
100
AcDbEntity
8
Real Hole
62
1
420
16711680
100
AcDbVertex
100
AcDb3dPolylineVertex
10
748606.33419637
20
8930165.71614051
30
186.738124492168
70
32
0
VERTEX
5
199
100
AcDbEntity
8
Real Hole
62
1
420
16711680
100
AcDbVertex
100
AcDb3dPolylineVertex
10
748606.477416317
20
8930165.88828272
30
185.763519647121
70
32
0
VERTEX
5
19A
100
AcDbEntity
8
Real Hole
62
1
420
16711680
100
AcDbVertex
100
AcDb3dPolylineVertex
10
748606.657257717
20
8930166.04857189
30
184.792971017361
70
32
0
VERTEX
5
19B
100
AcDbEntity
8
Real Hole
62
1
420
16711680
100
AcDbVertex
100
AcDb3dPolylineVertex
10
748606.84382246
20
8930166.21479494
30
183.824692132473
70
32
0
VERTEX
5
19C
100
AcDbEntity
8
Real Hole
62
1
420
16711680
100
AcDbVertex
100
AcDb3dPolylineVertex
10
748607.034343462
20
8930166.37568373
30
182.856283071041
70
32
0
VERTEX
5
19D
100
AcDbEntity
8
Real Hole
62
1
420
16711680
100
AcDbVertex
100
AcDb3dPolylineVertex
10
748607.245241742
20
8930166.52600497
30
181.890402677059
70
32
0
VERTEX
5
19E
100
AcDbEntity
8
Real Hole
62
1
420
16711680
100
AcDbVertex
100
AcDb3dPolylineVertex
10
748607.486338716
20
8930166.68144089
30
180.932429196835
70
32
0
VERTEX
5
19F
100
AcDbEntity
8
Real Hole
62
1
420
16711680
100
AcDbVertex
100
AcDb3dPolylineVertex
10
748607.694063168
20
8930166.82988304
30
180.069402577877
70
32
0
SEQEND
5
1A0
100
AcDbEntity
8
Real Hole
0
POINT
5
1A2
330
1A
100
AcDbEntity
67
0
8
Hole
62
244
420
659967
6
ByLayer
370
-1
48
1.0
60
0
100
AcDbPoint
10
748604.740000229
20
8930165.47000021
30
190.629999997616
39
0.0
210
0.0
220
0.0
230
1.0
50
360.0
0
LINE
5
1A3
330
1A
100
AcDbEntity
67
0
8
Theoretical Hole
62
244
420
659967
6
ByLayer
370
-1
48
1.0
60
0
100
AcDbLine
10
748604.740000229
20
8930165.47000021
30
190.629999997616
11
748605.990831833
21
8930167.89448065
31
180.00464099884
39
0.0
210
0.0
220
0.0
230
1.0
0
TEXT
5
1A4
330
1A
100
AcDbEntity
67
0
8
Number
62
244
420
659967
6
ByLayer
370
-1
48
1.0
60
0
100
AcDbText
1
21
10
748604.740000229
20
8930165.7760002
30
190.629999997616
40
0.3
41
1.0
50
0.0
51
0.0
7
Standard
11
748604.740000229
21
8930165.7760002
31
190.629999997616
210
0.0
220
0.0
230
1.0
72
0
100
AcDbText
73
0
0
TEXT
5
1A5
330
1A
100
AcDbEntity
67
0
8
label
62
1
420
16711680
6
ByLayer
370
-1
48
1.0
60
0
100
AcDbText
1

10
748604.740000229
20
8930166.1760002
30
190.629999997616
40
0.3
41
1.0
50
0.0
51
0.0
7
Standard
11
748604.740000229
21
8930166.1760002
31
190.629999997616
210
0.0
220
0.0
230
1.0
72
0
100
AcDbText
73
0
0
TEXT
5
1A6
330
1A
100
AcDbEntity
67
0
8
Length
62
244
420
659967
6
ByLayer
370
-1
48
1.0
60
0
100
AcDbText
1
10.97
10
748604.740000229
20
8930164.76600021
30
190.629999997616
40
0.3
41
1.0
50
0.0
51
0.0
7
Standard
11
748604.740000229
21
8930164.76600021
31
190.629999997616
210
0.0
220
0.0
230
1.0
72
0
100
AcDbText
73
0
0
POLYLINE
5
1B4
330
1A
100
AcDbEntity
67
0
8
Real Hole
62
1
420
16711680
6
ByLayer
370
-1
48
1.0
60
0
100
AcDb3dPolyline
10
0.0
20
0.0
30
0.0
70
8
75
0
210
0.0
220
0.0
230
1.0
0
VERTEX
5
1A7
100
AcDbEntity
8
Real Hole
62
1
420
16711680
100
AcDbVertex
100
AcDb3dPolylineVertex
10
748604.740000229
20
8930165.47000021
30
190.629999997616
70
32
0
VERTEX
5
1A8
100
AcDbEntity
8
Real Hole
62
1
420
16711680
100
AcDbVertex
100
AcDb3dPolylineVertex
10
748604.929790448
20
8930165.66523393
30
189.667782011032
70
32
0
VERTEX
5
1A9
100
AcDbEntity
8
Real Hole
62
1
420
16711680
100
AcDbVertex
100
AcDb3dPolylineVertex
10
748605.109141837
20
8930165.87032196
30
188.705611588955
70
32
0
VERTEX
5
1AA
100
AcDbEntity
8
Real Hole
62
1
420
16711680
100
AcDbVertex
100
AcDb3dPolylineVertex
10
748605.334899347
20
8930166.08254492
30
187.754824998379
70
32
0
VERTEX
5
1AB
100
AcDbEntity
8
Real Hole
62
1
420
16711680
100
AcDbVertex
100
AcDb3dPolylineVertex
10
748605.529020946
20
8930166.2753833
30
186.792988183498
70
32
0
VERTEX
5
1AC
100
AcDbEntity
8
Real Hole
62
1
420
16711680
100
AcDbVertex
100
AcDb3dPolylineVertex
10
748605.714819293
20
8930166.49743813
30
185.835820081234
70
32
0
VERTEX
5
1AD
100
AcDbEntity
8
Real Hole
62
1
420
16711680
100
AcDbVertex
100
AcDb3dPolylineVertex
10
748605.94051383
20
8930166.71668655
30
184.886614205837
70
32
0
VERTEX
5
1AE
100
AcDbEntity
8
Real Hole
62
1
420
16711680
100
AcDbVertex
100
AcDb3dPolylineVertex
10
748606.17301033
20
8930166.93601018
30
183.939068677425
70
32
0
VERTEX
5
1AF
100
AcDbEntity
8
Real Hole
62
1
420
16711680
100
AcDbVertex
100
AcDb3dPolylineVertex
10
748606.379423122
20
8930167.15946263
30
182.986460092068
70
32
0
VERTEX
5
1B0
100
AcDbEntity
8
Real Hole
62
1
420
16711680
100
AcDbVertex
100
AcDb3dPolylineVertex
10
748606.590841155
20
8930167.4046523
30
182.04031837225
70
32
0
VERTEX
5
1B1
100
AcDbEntity
8
Real Hole
62
1
420
16711680
100
AcDbVertex
100
AcDb3dPolylineVertex
10
748606.813665371
20
8930167.65142983
30
181.097211720943
70
32
0
VERTEX
5
1B2
100
AcDbEntity
8
Real Hole
62
1
420
16711680
100
AcDbVertex
100
AcDb3dPolylineVertex
10
748606.927038889
20
8930167.76915997
30
180.624680402279
70
32
0
SEQEND
5
1B3
100
AcDbEntity
8
Real Hole
0
POINT
5
1B5
330
1A
100
AcDbEntity
67
0
8
Hole
62
244
420
659967
6
ByLayer
370
-1
48
1.0
60
0
100
AcDbPoint
10
748603.670000534
20
8930166.01999992
30
190.600000026226
39
0.0
210
0.0
220
0.0
230
1.0
50
360.0
0
LINE
5
1B6
330
1A
100
AcDbEntity
67
0
8
Theoretical Hole
62
244
420
659967
6
ByLayer
370
-1
48
1.0
60
0
100
AcDbLine
10
748603.670000534
20
8930166.01999992
30
190.600000026226
11
748605.011721115
21
8930168.41091818
31
179.998783531189
39
0.0
210
0.0
220
0.0
230
1.0
0
TEXT
5
1B7
330
1A
100
AcDbEntity
67
0
8
Number
62
244
420
659967
6
ByLayer
370
-1
48
1.0
60
0
100
AcDbText
1
22
10
748603.670000534
20
8930166.32599992
30
190.600000026226
40
0.3
41
1.0
50
0.0
51
0.0
7
Standard
11
748603.670000534
21
8930166.32599992
31
190.600000026226
210
0.0
220
0.0
230
1.0
72
0
100
AcDbText
73
0
0
TEXT
5
1B8
330
1A
100
AcDbEntity
67
0
8
label
62
1
420
16711680
6
ByLayer
370
-1
48
1.0
60
0
100
AcDbText
1

10
748603.670000534
20
8930166.72599992
30
190.600000026226
40
0.3
41
1.0
50
0.0
51
0.0
7
Standard
11
748603.670000534
21
8930166.72599992
31
190.600000026226
210
0.0
220
0.0
230
1.0
72
0
100
AcDbText
73
0
0
TEXT
5
1B9
330
1A
100
AcDbEntity
67
0
8
Length
62
244
420
659967
6
ByLayer
370
-1
48
1.0
60
0
100
AcDbText
1
10.95
10
748603.670000534
20
8930165.31599993
30
190.600000026226
40
0.3
41
1.0
50
0.0
51
0.0
7
Standard
11
748603.670000534
21
8930165.31599993
31
190.600000026226
210
0.0
220
0.0
230
1.0
72
0
100
AcDbText
73
0
0
POLYLINE
5
1C7
330
1A
100
AcDbEntity
67
0
8
Real Hole
62
1
420
16711680
6
ByLayer
370
-1
48
1.0
60
0
100
AcDb3dPolyline
10
0.0
20
0.0
30
0.0
70
8
75
0
210
0.0
220
0.0
230
1.0
0
VERTEX
5
1BA
100
AcDbEntity
8
Real Hole
62
1
420
16711680
100
AcDbVertex
100
AcDb3dPolylineVertex
10
748603.670000534
20
8930166.01999992
30
190.600000026226
70
32
0
VERTEX
5
1BB
100
AcDbEntity
8
Real Hole
62
1
420
16711680
100
AcDbVertex
100
AcDb3dPolylineVertex
10
748603.852536525
20
8930166.26022093
30
189.646598520279
70
32
0
VERTEX
5
1BC
100
AcDbEntity
8
Real Hole
62
1
420
16711680
100
AcDbVertex
100
AcDb3dPolylineVertex
10
748604.042169999
20
8930166.48406652
30
188.690600397587
70
32
0
VERTEX
5
1BD
100
AcDbEntity
8
Real Hole
62
1
420
16711680
100
AcDbVertex
100
AcDb3dPolylineVertex
10
748604.219522815
20
8930166.70504356
30
187.731582763195
70
32
0
VERTEX
5
1BE
100
AcDbEntity
8
Real Hole
62
1
420
16711680
100
AcDbVertex
100
AcDb3dPolylineVertex
10
748604.395724754
20
8930166.94438774
30
186.776769998074
70
32
0
VERTEX
5
1BF
100
AcDbEntity
8
Real Hole
62
1
420
16711680
100
AcDbVertex
100
AcDb3dPolylineVertex
10
748604.542300265
20
8930167.19233209
30
185.819148185253
70
32
0
VERTEX
5
1C0
100
AcDbEntity
8
Real Hole
62
1
420
16711680
100
AcDbVertex
100
AcDb3dPolylineVertex
10
748604.711351733
20
8930167.44822604
30
184.867339732647
70
32
0
VERTEX
5
1C1
100
AcDbEntity
8
Real Hole
62
1
420
16711680
100
AcDbVertex
100
AcDb3dPolylineVertex
10
748604.891086559
20
8930167.6948846
30
183.915050151348
70
32
0
VERTEX
5
1C2
100
AcDbEntity
8
Real Hole
62
1
420
16711680
100
AcDbVertex
100
AcDb3dPolylineVertex
10
748605.048436384
20
8930167.96545583
30
182.965296390057
70
32
0
VERTEX
5
1C3
100
AcDbEntity
8
Real Hole
62
1
420
16711680
100
AcDbVertex
100
AcDb3dPolylineVertex
10
748605.238676052
20
8930168.24433679
30
182.024002673626
70
32
0
VERTEX
5
1C4
100
AcDbEntity
8
Real Hole
62
1
420
16711680
100
AcDbVertex
100
AcDb3dPolylineVertex
10
748605.423894505
20
8930168.50238055
30
181.07579005003
70
32
0
VERTEX
5
1C5
100
AcDbEntity
8
Real Hole
62
1
420
16711680
100
AcDbVertex
100
AcDb3dPolylineVertex
10
748605.603976946
20
8930168.73783344
30
180.22600615263
70
32
0
SEQEND
5
1C6
100
AcDbEntity
8
Real Hole
0
POINT
5
1C8
330
1A
100
AcDbEntity
67
0
8
Hole
62
244
420
659967
6
ByLayer
370
-1
48
1.0
60
0
100
AcDbPoint
10
748602.629999619
20
8930166.61000008
30
190.569999995232
39
0.0
210
0.0
220
0.0
230
1.0
50
360.0
0
LINE
5
1C9
330
1A
100
AcDbEntity
67
0
8
Theoretical Hole
62
244
420
659967
6
ByLayer
370
-1
48
1.0
60
0
100
AcDbLine
10
748602.629999619
20
8930166.61000008
30
190.569999995232
11
748604.070286255
21
8930168.92752212
31
179.996398391724
39
0.0
210
0.0
220
0.0
230
1.0
0
TEXT
5
1CA
330
1A
100
AcDbEntity
67
0
8
Number
62
244
420
659967
6
ByLayer
370
-1
48
1.0
60
0
100
AcDbText
1
23
10
748602.629999619
20
8930166.91600007
30
190.569999995232
40
0.3
41
1.0
50
0.0
51
0.0
7
Standard
11
748602.629999619
21
8930166.91600007
31
190.569999995232
210
0.0
220
0.0
230
1.0
72
0
100
AcDbText
73
0
0
TEXT
5
1CB
330
1A
100
AcDbEntity
67
0
8
label
62
1
420
16711680
6
ByLayer
370
-1
48
1.0
60
0
100
AcDbText
1

10
748602.629999619
20
8930167.31600007
30
190.569999995232
40
0.3
41
1.0
50
0.0
51
0.0
7
Standard
11
748602.629999619
21
8930167.31600007
31
190.569999995232
210
0.0
220
0.0
230
1.0
72
0
100
AcDbText
73
0
0
TEXT
5
1CC
330
1A
100
AcDbEntity
67
0
8
Length
62
244
420
659967
6
ByLayer
370
-1
48
1.0
60
0
100
AcDbText
1
10.92
10
748602.629999619
20
8930165.90600008
30
190.569999995232
40
0.3
41
1.0
50
0.0
51
0.0
7
Standard
11
748602.629999619
21
8930165.90600008
31
190.569999995232
210
0.0
220
0.0
230
1.0
72
0
100
AcDbText
73
0
0
POLYLINE
5
1DA
330
1A
100
AcDbEntity
67
0
8
Real Hole
62
1
420
16711680
6
ByLayer
370
-1
48
1.0
60
0
100
AcDb3dPolyline
10
0.0
20
0.0
30
0.0
70
8
75
0
210
0.0
220
0.0
230
1.0
0
VERTEX
5
1CD
100
AcDbEntity
8
Real Hole
62
1
420
16711680
100
AcDbVertex
100
AcDb3dPolylineVertex
10
748602.629999619
20
8930166.61000008
30
190.569999995232
70
32
0
VERTEX
5
1CE
100
AcDbEntity
8
Real Hole
62
1
420
16711680
100
AcDbVertex
100
AcDb3dPolylineVertex
10
748602.769062843
20
8930166.84467548
30
189.607924702168
70
32
0
VERTEX
5
1CF
100
AcDbEntity
8
Real Hole
62
1
420
16711680
100
AcDbVertex
100
AcDb3dPolylineVertex
10
748602.928844761
20
8930167.07051069
30
188.646952214241
70
32
0
VERTEX
5
1D0
100
AcDbEntity
8
Real Hole
62
1
420
16711680
100
AcDbVertex
100
AcDb3dPolylineVertex
10
748603.098800104
20
8930167.31045842
30
187.691159071922
70
32
0
VERTEX
5
1D1
100
AcDbEntity
8
Real Hole
62
1
420
16711680
100
AcDbVertex
100
AcDb3dPolylineVertex
10
748603.241245728
20
8930167.55500806
30
186.732042613029
70
32
0
VERTEX
5
1D2
100
AcDbEntity
8
Real Hole
62
1
420
16711680
100
AcDbVertex
100
AcDb3dPolylineVertex
10
748603.392382543
20
8930167.82834083
30
185.78207046032
70
32
0
VERTEX
5
1D3
100
AcDbEntity
8
Real Hole
62
1
420
16711680
100
AcDbVertex
100
AcDb3dPolylineVertex
10
748603.548145037
20
8930168.08614415
30
184.828511061668
70
32
0
VERTEX
5
1D4
100
AcDbEntity
8
Real Hole
62
1
420
16711680
100
AcDbVertex
100
AcDb3dPolylineVertex
10
748603.700734715
20
8930168.37914127
30
183.884652438164
70
32
0
VERTEX
5
1D5
100
AcDbEntity
8
Real Hole
62
1
420
16711680
100
AcDbVertex
100
AcDb3dPolylineVertex
10
748603.84907959
20
8930168.65418762
30
182.934735121727
70
32
0
VERTEX
5
1D6
100
AcDbEntity
8
Real Hole
62
1
420
16711680
100
AcDbVertex
100
AcDb3dPolylineVertex
10
748604.011414747
20
8930168.93468136
30
181.988705935478
70
32
0
VERTEX
5
1D7
100
AcDbEntity
8
Real Hole
62
1
420
16711680
100
AcDbVertex
100
AcDb3dPolylineVertex
10
748604.166311364
20
8930169.18343634
30
181.032605471611
70
32
0
VERTEX
5
1D8
100
AcDbEntity
8
Real Hole
62
1
420
16711680
100
AcDbVertex
100
AcDb3dPolylineVertex
10
748604.287127714
20
8930169.38074559
30
180.371944727898
70
32
0
SEQEND
5
1D9
100
AcDbEntity
8
Real Hole
0
POINT
5
1DB
330
1A
100
AcDbEntity
67
0
8
Hole
62
244
420
659967
6
ByLayer
370
-1
48
1.0
60
0
100
AcDbPoint
10
748601.609999161
20
8930167.24000019
30
190.540000023842
39
0.0
210
0.0
220
0.0
230
1.0
50
360.0
0
LINE
5
1DC
330
1A
100
AcDbEntity
67
0
8
Theoretical Hole
62
244
420
659967
6
ByLayer
370
-1
48
1.0
60
0
100
AcDbLine
10
748601.609999161
20
8930167.24000019
30
190.540000023842
11
748603.094221573
21
8930169.51332134
31
180.004180374146
39
0.0
210
0.0
220
0.0
230
1.0
0
TEXT
5
1DD
330
1A
100
AcDbEntity
67
0
8
Number
62
244
420
659967
6
ByLayer
370
-1
48
1.0
60
0
100
AcDbText
1
24
10
748601.609999161
20
8930167.54600018
30
190.540000023842
40
0.3
41
1.0
50
0.0
51
0.0
7
Standard
11
748601.609999161
21
8930167.54600018
31
190.540000023842
210
0.0
220
0.0
230
1.0
72
0
100
AcDbText
73
0
0
TEXT
5
1DE
330
1A
100
AcDbEntity
67
0
8
label
62
1
420
16711680
6
ByLayer
370
-1
48
1.0
60
0
100
AcDbText
1

10
748601.609999161
20
8930167.94600018
30
190.540000023842
40
0.3
41
1.0
50
0.0
51
0.0
7
Standard
11
748601.609999161
21
8930167.94600018
31
190.540000023842
210
0.0
220
0.0
230
1.0
72
0
100
AcDbText
73
0
0
TEXT
5
1DF
330
1A
100
AcDbEntity
67
0
8
Length
62
244
420
659967
6
ByLayer
370
-1
48
1.0
60
0
100
AcDbText
1
10.88
10
748601.609999161
20
8930166.53600019
30
190.540000023842
40
0.3
41
1.0
50
0.0
51
0.0
7
Standard
11
748601.609999161
21
8930166.53600019
31
190.540000023842
210
0.0
220
0.0
230
1.0
72
0
100
AcDbText
73
0
0
POLYLINE
5
1EC
330
1A
100
AcDbEntity
67
0
8
Real Hole
62
1
420
16711680
6
ByLayer
370
-1
48
1.0
60
0
100
AcDb3dPolyline
10
0.0
20
0.0
30
0.0
70
8
75
0
210
0.0
220
0.0
230
1.0
0
VERTEX
5
1E0
100
AcDbEntity
8
Real Hole
62
1
420
16711680
100
AcDbVertex
100
AcDb3dPolylineVertex
10
748601.609999161
20
8930167.24000019
30
190.540000023842
70
32
0
VERTEX
5
1E1
100
AcDbEntity
8
Real Hole
62
1
420
16711680
100
AcDbVertex
100
AcDb3dPolylineVertex
10
748601.772066619
20
8930167.44309128
30
189.574345769882
70
32
0
VERTEX
5
1E2
100
AcDbEntity
8
Real Hole
62
1
420
16711680
100
AcDbVertex
100
AcDb3dPolylineVertex
10
748601.922822874
20
8930167.64742273
30
188.607122364044
70
32
0
VERTEX
5
1E3
100
AcDbEntity
8
Real Hole
62
1
420
16711680
100
AcDbVertex
100
AcDb3dPolylineVertex
10
748602.092637967
20
8930167.86666292
30
187.646343054771
70
32
0
VERTEX
5
1E4
100
AcDbEntity
8
Real Hole
62
1
420
16711680
100
AcDbVertex
100
AcDb3dPolylineVertex
10
748602.279241066
20
8930168.08276844
30
186.687970700264
70
32
0
VERTEX
5
1E5
100
AcDbEntity
8
Real Hole
62
1
420
16711680
100
AcDbVertex
100
AcDb3dPolylineVertex
10
748602.448593001
20
8930168.32027871
30
185.731462063789
70
32
0
VERTEX
5
1E6
100
AcDbEntity
8
Real Hole
62
1
420
16711680
100
AcDbVertex
100
AcDb3dPolylineVertex
10
748602.604155283
20
8930168.55247945
30
184.771314682961
70
32
0
VERTEX
5
1E7
100
AcDbEntity
8
Real Hole
62
1
420
16711680
100
AcDbVertex
100
AcDb3dPolylineVertex
10
748602.780850153
20
8930168.81063253
30
183.821506085396
70
32
0
VERTEX
5
1E8
100
AcDbEntity
8
Real Hole
62
1
420
16711680
100
AcDbVertex
100
AcDb3dPolylineVertex
10
748602.945754509
20
8930169.05789608
30
182.866693558693
70
32
0
VERTEX
5
1E9
100
AcDbEntity
8
Real Hole
62
1
420
16711680
100
AcDbVertex
100
AcDb3dPolylineVertex
10
748603.14306901
20
8930169.30702371
30
181.918536248207
70
32
0
VERTEX
5
1EA
100
AcDbEntity
8
Real Hole
62
1
420
16711680
100
AcDbVertex
100
AcDb3dPolylineVertex
10
748603.268089991
20
8930169.48737496
30
181.253823342323
70
32
0
SEQEND
5
1EB
100
AcDbEntity
8
Real Hole
0
POINT
5
1ED
330
1A
100
AcDbEntity
67
0
8
Hole
62
244
420
659967
6
ByLayer
370
-1
48
1.0
60
0
100
AcDbPoint
10
748600.600000839
20
8930167.90000004
30
190.529999973774
39
0.0
210
0.0
220
0.0
230
1.0
50
360.0
0
LINE
5
1EE
330
1A
100
AcDbEntity
67
0
8
Theoretical Hole
62
244
420
659967
6
ByLayer
370
-1
48
1.0
60
0
100
AcDbLine
10
748600.600000839
20
8930167.90000004
30
190.529999973774
11
748602.187027435
21
8930170.08836883
31
180.001499595642
39
0.0
210
0.0
220
0.0
230
1.0
0
TEXT
5
1EF
330
1A
100
AcDbEntity
67
0
8
Number
62
244
420
659967
6
ByLayer
370
-1
48
1.0
60
0
100
AcDbText
1
25
10
748600.600000839
20
8930168.20600003
30
190.529999973774
40
0.3
41
1.0
50
0.0
51
0.0
7
Standard
11
748600.600000839
21
8930168.20600003
31
190.529999973774
210
0.0
220
0.0
230
1.0
72
0
100
AcDbText
73
0
0
TEXT
5
1F0
330
1A
100
AcDbEntity
67
0
8
label
62
1
420
16711680
6
ByLayer
370
-1
48
1.0
60
0
100
AcDbText
1

10
748600.600000839
20
8930168.60600003
30
190.529999973774
40
0.3
41
1.0
50
0.0
51
0.0
7
Standard
11
748600.600000839
21
8930168.60600003
31
190.529999973774
210
0.0
220
0.0
230
1.0
72
0
100
AcDbText
73
0
0
TEXT
5
1F1
330
1A
100
AcDbEntity
67
0
8
Length
62
244
420
659967
6
ByLayer
370
-1
48
1.0
60
0
100
AcDbText
1
10.87
10
748600.600000839
20
8930167.19600004
30
190.529999973774
40
0.3
41
1.0
50
0.0
51
0.0
7
Standard
11
748600.600000839
21
8930167.19600004
31
190.529999973774
210
0.0
220
0.0
230
1.0
72
0
100
AcDbText
73
0
0
POLYLINE
5
200
330
1A
100
AcDbEntity
67
0
8
Real Hole
62
1
420
16711680
6
ByLayer
370
-1
48
1.0
60
0
100
AcDb3dPolyline
10
0.0
20
0.0
30
0.0
70
8
75
0
210
0.0
220
0.0
230
1.0
0
VERTEX
5
1F2
100
AcDbEntity
8
Real Hole
62
1
420
16711680
100
AcDbVertex
100
AcDb3dPolylineVertex
10
748600.600000839
20
8930167.90000004
30
190.529999973774
70
32
0
VERTEX
5
1F3
100
AcDbEntity
8
Real Hole
62
1
420
16711680
100
AcDbVertex
100
AcDb3dPolylineVertex
10
748600.74254715
20
8930168.1192507
30
189.564800682068
70
32
0
VERTEX
5
1F4
100
AcDbEntity
8
Real Hole
62
1
420
16711680
100
AcDbVertex
100
AcDb3dPolylineVertex
10
748600.896397572
20
8930168.30463028
30
188.594252111912
70
32
0
VERTEX
5
1F5
100
AcDbEntity
8
Real Hole
62
1
420
16711680
100
AcDbVertex
100
AcDb3dPolylineVertex
10
748601.04562829
20
8930168.52184349
30
187.629602673054
70
32
0
VERTEX
5
1F6
100
AcDbEntity
8
Real Hole
62
1
420
16711680
100
AcDbVertex
100
AcDb3dPolylineVertex
10
748601.2127528
20
8930168.7333839
30
186.666628124714
70
32
0
VERTEX
5
1F7
100
AcDbEntity
8
Real Hole
62
1
420
16711680
100
AcDbVertex
100
AcDb3dPolylineVertex
10
748601.391729991
20
8930168.94234771
30
185.705222370625
70
32
0
VERTEX
5
1F8
100
AcDbEntity
8
Real Hole
62
1
420
16711680
100
AcDbVertex
100
AcDb3dPolylineVertex
10
748601.562002163
20
8930169.13072556
30
184.737998726368
70
32
0
VERTEX
5
1F9
100
AcDbEntity
8
Real Hole
62
1
420
16711680
100
AcDbVertex
100
AcDb3dPolylineVertex
10
748601.736639004
20
8930169.33211869
30
183.774182083607
70
32
0
VERTEX
5
1FA
100
AcDbEntity
8
Real Hole
62
1
420
16711680
100
AcDbVertex
100
AcDb3dPolylineVertex
10
748601.943234544
20
8930169.54762978
30
182.819785358906
70
32
0
VERTEX
5
1FB
100
AcDbEntity
8
Real Hole
62
1
420
16711680
100
AcDbVertex
100
AcDb3dPolylineVertex
10
748602.153220277
20
8930169.74599523
30
181.862415554523
70
32
0
VERTEX
5
1FC
100
AcDbEntity
8
Real Hole
62
1
420
16711680
100
AcDbVertex
100
AcDb3dPolylineVertex
10
748602.360354404
20
8930169.96214384
30
180.908279659748
70
32
0
VERTEX
5
1FD
100
AcDbEntity
8
Real Hole
62
1
420
16711680
100
AcDbVertex
100
AcDb3dPolylineVertex
10
748602.602332811
20
8930170.20778197
30
179.969605686665
70
32
0
VERTEX
5
1FE
100
AcDbEntity
8
Real Hole
62
1
420
16711680
100
AcDbVertex
100
AcDb3dPolylineVertex
10
748602.698230486
20
8930170.29840416
30
179.591993572712
70
32
0
SEQEND
5
1FF
100
AcDbEntity
8
Real Hole
0
POINT
5
201
330
1A
100
AcDbEntity
67
0
8
Hole
62
244
420
659967
6
ByLayer
370
-1
48
1.0
60
0
100
AcDbPoint
10
748599.629999619
20
8930168.59999985
30
190.519999983311
39
0.0
210
0.0
220
0.0
230
1.0
50
360.0
0
LINE
5
202
330
1A
100
AcDbEntity
67
0
8
Theoretical Hole
62
244
420
659967
6
ByLayer
370
-1
48
1.0
60
0
100
AcDbLine
10
748599.629999619
20
8930168.59999985
30
190.519999983311
11
748601.270746689
21
8930170.72441143
31
179.996956291199
39
0.0
210
0.0
220
0.0
230
1.0
0
TEXT
5
203
330
1A
100
AcDbEntity
67
0
8
Number
62
244
420
659967
6
ByLayer
370
-1
48
1.0
60
0
100
AcDbText
1
26
10
748599.629999619
20
8930168.90599984
30
190.519999983311
40
0.3
41
1.0
50
0.0
51
0.0
7
Standard
11
748599.629999619
21
8930168.90599984
31
190.519999983311
210
0.0
220
0.0
230
1.0
72
0
100
AcDbText
73
0
0
TEXT
5
204
330
1A
100
AcDbEntity
67
0
8
label
62
1
420
16711680
6
ByLayer
370
-1
48
1.0
60
0
100
AcDbText
1

10
748599.629999619
20
8930169.30599984
30
190.519999983311
40
0.3
41
1.0
50
0.0
51
0.0
7
Standard
11
748599.629999619
21
8930169.30599984
31
190.519999983311
210
0.0
220
0.0
230
1.0
72
0
100
AcDbText
73
0
0
TEXT
5
205
330
1A
100
AcDbEntity
67
0
8
Length
62
244
420
659967
6
ByLayer
370
-1
48
1.0
60
0
100
AcDbText
1
10.86
10
748599.629999619
20
8930167.89599985
30
190.519999983311
40
0.3
41
1.0
50
0.0
51
0.0
7
Standard
11
748599.629999619
21
8930167.89599985
31
190.519999983311
210
0.0
220
0.0
230
1.0
72
0
100
AcDbText
73
0
0
POLYLINE
5
213
330
1A
100
AcDbEntity
67
0
8
Real Hole
62
1
420
16711680
6
ByLayer
370
-1
48
1.0
60
0
100
AcDb3dPolyline
10
0.0
20
0.0
30
0.0
70
8
75
0
210
0.0
220
0.0
230
1.0
0
VERTEX
5
206
100
AcDbEntity
8
Real Hole
62
1
420
16711680
100
AcDbVertex
100
AcDb3dPolylineVertex
10
748599.629999619
20
8930168.59999985
30
190.519999983311
70
32
0
VERTEX
5
207
100
AcDbEntity
8
Real Hole
62
1
420
16711680
100
AcDbVertex
100
AcDb3dPolylineVertex
10
748599.772074814
20
8930168.8233572
30
189.555673184395
70
32
0
VERTEX
5
208
100
AcDbEntity
8
Real Hole
62
1
420
16711680
100
AcDbVertex
100
AcDb3dPolylineVertex
10
748599.916504275
20
8930169.03934789
30
188.59001899004
70
32
0
VERTEX
5
209
100
AcDbEntity
8
Real Hole
62
1
420
16711680
100
AcDbVertex
100
AcDb3dPolylineVertex
10
748600.050477188
20
8930169.2375229
30
187.619051458836
70
32
0
VERTEX
5
20A
100
AcDbEntity
8
Real Hole
62
1
420
16711680
100
AcDbVertex
100
AcDb3dPolylineVertex
10
748600.188384871
20
8930169.44182563
30
186.64990639925
70
32
0
VERTEX
5
20B
100
AcDbEntity
8
Real Hole
62
1
420
16711680
100
AcDbVertex
100
AcDb3dPolylineVertex
10
748600.356236975
20
8930169.64977271
30
185.686275961399
70
32
0
VERTEX
5
20C
100
AcDbEntity
8
Real Hole
62
1
420
16711680
100
AcDbVertex
100
AcDb3dPolylineVertex
10
748600.503238599
20
8930169.85099322
30
184.717823030949
70
32
0
VERTEX
5
20D
100
AcDbEntity
8
Real Hole
62
1
420
16711680
100
AcDbVertex
100
AcDb3dPolylineVertex
10
748600.645963531
20
8930170.06548637
30
183.751582148075
70
32
0
VERTEX
5
20E
100
AcDbEntity
8
Real Hole
62
1
420
16711680
100
AcDbVertex
100
AcDb3dPolylineVertex
10
748600.787926893
20
8930170.28209895
30
182.785701277256
70
32
0
VERTEX
5
20F
100
AcDbEntity
8
Real Hole
62
1
420
16711680
100
AcDbVertex
100
AcDb3dPolylineVertex
10
748600.940923195
20
8930170.50671989
30
181.823340895176
70
32
0
VERTEX
5
210
100
AcDbEntity
8
Real Hole
62
1
420
16711680
100
AcDbVertex
100
AcDb3dPolylineVertex
10
748601.090339522
20
8930170.71681375
30
180.857144834995
70
32
0
VERTEX
5
211
100
AcDbEntity
8
Real Hole
62
1
420
16711680
100
AcDbVertex
100
AcDb3dPolylineVertex
10
748601.274292092
20
8930170.94940418
30
179.902124884129
70
32
0
SEQEND
5
212
100
AcDbEntity
8
Real Hole
0
POINT
5
214
330
1A
100
AcDbEntity
67
0
8
Hole
62
244
420
659967
6
ByLayer
370
-1
48
1.0
60
0
100
AcDbPoint
10
748598.680000763
20
8930169.33999962
30
190.509999992847
39
0.0
210
0.0
220
0.0
230
1.0
50
360.0
0
LINE
5
215
330
1A
100
AcDbEntity
67
0
8
Theoretical Hole
62
244
420
659967
6
ByLayer
370
-1
48
1.0
60
0
100
AcDbLine
10
748598.680000763
20
8930169.33999962
30
190.509999992847
11
748600.352501373
21
8930171.40021557
31
179.999821128845
39
0.0
210
0.0
220
0.0
230
1.0
0
TEXT
5
216
330
1A
100
AcDbEntity
67
0
8
Number
62
244
420
659967
6
ByLayer
370
-1
48
1.0
60
0
100
AcDbText
1
27
10
748598.680000763
20
8930169.64599961
30
190.509999992847
40
0.3
41
1.0
50
0.0
51
0.0
7
Standard
11
748598.680000763
21
8930169.64599961
31
190.509999992847
210
0.0
220
0.0
230
1.0
72
0
100
AcDbText
73
0
0
TEXT
5
217
330
1A
100
AcDbEntity
67
0
8
label
62
1
420
16711680
6
ByLayer
370
-1
48
1.0
60
0
100
AcDbText
1

10
748598.680000763
20
8930170.04599961
30
190.509999992847
40
0.3
41
1.0
50
0.0
51
0.0
7
Standard
11
748598.680000763
21
8930170.04599961
31
190.509999992847
210
0.0
220
0.0
230
1.0
72
0
100
AcDbText
73
0
0
TEXT
5
218
330
1A
100
AcDbEntity
67
0
8
Length
62
244
420
659967
6
ByLayer
370
-1
48
1.0
60
0
100
AcDbText
1
10.84
10
748598.680000763
20
8930168.63599962
30
190.509999992847
40
0.3
41
1.0
50
0.0
51
0.0
7
Standard
11
748598.680000763
21
8930168.63599962
31
190.509999992847
210
0.0
220
0.0
230
1.0
72
0
100
AcDbText
73
0
0
POLYLINE
5
227
330
1A
100
AcDbEntity
67
0
8
Real Hole
62
1
420
16711680
6
ByLayer
370
-1
48
1.0
60
0
100
AcDb3dPolyline
10
0.0
20
0.0
30
0.0
70
8
75
0
210
0.0
220
0.0
230
1.0
0
VERTEX
5
219
100
AcDbEntity
8
Real Hole
62
1
420
16711680
100
AcDbVertex
100
AcDb3dPolylineVertex
10
748598.680000763
20
8930169.33999962
30
190.509999992847
70
32
0
VERTEX
5
21A
100
AcDbEntity
8
Real Hole
62
1
420
16711680
100
AcDbVertex
100
AcDb3dPolylineVertex
10
748598.826372366
20
8930169.60115105
30
189.555864098072
70
32
0
VERTEX
5
21B
100
AcDbEntity
8
Real Hole
62
1
420
16711680
100
AcDbVertex
100
AcDb3dPolylineVertex
10
748598.975383948
20
8930169.85483074
30
188.600122454166
70
32
0
VERTEX
5
21C
100
AcDbEntity
8
Real Hole
62
1
420
16711680
100
AcDbVertex
100
AcDb3dPolylineVertex
10
748599.108887594
20
8930170.12964857
30
187.647939684391
70
32
0
VERTEX
5
21D
100
AcDbEntity
8
Real Hole
62
1
420
16711680
100
AcDbVertex
100
AcDb3dPolylineVertex
10
748599.239369373
20
8930170.40444249
30
186.695331337452
70
32
0
VERTEX
5
21E
100
AcDbEntity
8
Real Hole
62
1
420
16711680
100
AcDbVertex
100
AcDb3dPolylineVertex
10
748599.389475982
20
8930170.68568534
30
185.74750733614
70
32
0
VERTEX
5
21F
100
AcDbEntity
8
Real Hole
62
1
420
16711680
100
AcDbVertex
100
AcDb3dPolylineVertex
10
748599.514192324
20
8930170.97907144
30
184.799683334827
70
32
0
VERTEX
5
220
100
AcDbEntity
8
Real Hole
62
1
420
16711680
100
AcDbVertex
100
AcDb3dPolylineVertex
10
748599.628563206
20
8930171.24995703
30
183.84388995409
70
32
0
VERTEX
5
221
100
AcDbEntity
8
Real Hole
62
1
420
16711680
100
AcDbVertex
100
AcDb3dPolylineVertex
10
748599.742510061
20
8930171.54236669
30
182.894409897327
70
32
0
VERTEX
5
222
100
AcDbEntity
8
Real Hole
62
1
420
16711680
100
AcDbVertex
100
AcDb3dPolylineVertex
10
748599.857288818
20
8930171.82264394
30
181.941377403736
70
32
0
VERTEX
5
223
100
AcDbEntity
8
Real Hole
62
1
420
16711680
100
AcDbVertex
100
AcDb3dPolylineVertex
10
748599.984862547
20
8930172.10026425
30
180.989194633961
70
32
0
VERTEX
5
224
100
AcDbEntity
8
Real Hole
62
1
420
16711680
100
AcDbVertex
100
AcDb3dPolylineVertex
10
748600.133593898
20
8930172.43416351
30
180.058394196033
70
32
0
VERTEX
5
225
100
AcDbEntity
8
Real Hole
62
1
420
16711680
100
AcDbVertex
100
AcDb3dPolylineVertex
10
748600.228257756
20
8930172.65156406
30
179.39977717638
70
32
0
SEQEND
5
226
100
AcDbEntity
8
Real Hole
0
POINT
5
228
330
1A
100
AcDbEntity
67
0
8
Hole
62
244
420
659967
6
ByLayer
370
-1
48
1.0
60
0
100
AcDbPoint
10
748597.750000458
20
8930170.08999962
30
190.519999983311
39
0.0
210
0.0
220
0.0
230
1.0
50
360.0
0
LINE
5
229
330
1A
100
AcDbEntity
67
0
8
Theoretical Hole
62
244
420
659967
6
ByLayer
370
-1
48
1.0
60
0
100
AcDbLine
10
748597.750000458
20
8930170.08999962
30
190.519999983311
11
748599.520481567
21
8930172.06253952
31
179.998736801147
39
0.0
210
0.0
220
0.0
230
1.0
0
TEXT
5
22A
330
1A
100
AcDbEntity
67
0
8
Number
62
244
420
659967
6
ByLayer
370
-1
48
1.0
60
0
100
AcDbText
1
28
10
748597.750000458
20
8930170.39599961
30
190.519999983311
40
0.3
41
1.0
50
0.0
51
0.0
7
Standard
11
748597.750000458
21
8930170.39599961
31
190.519999983311
210
0.0
220
0.0
230
1.0
72
0
100
AcDbText
73
0
0
TEXT
5
22B
330
1A
100
AcDbEntity
67
0
8
label
62
1
420
16711680
6
ByLayer
370
-1
48
1.0
60
0
100
AcDbText
1

10
748597.750000458
20
8930170.79599961
30
190.519999983311
40
0.3
41
1.0
50
0.0
51
0.0
7
Standard
11
748597.750000458
21
8930170.79599961
31
190.519999983311
210
0.0
220
0.0
230
1.0
72
0
100
AcDbText
73
0
0
TEXT
5
22C
330
1A
100
AcDbEntity
67
0
8
Length
62
244
420
659967
6
ByLayer
370
-1
48
1.0
60
0
100
AcDbText
1
10.85
10
748597.750000458
20
8930169.38599962
30
190.519999983311
40
0.3
41
1.0
50
0.0
51
0.0
7
Standard
11
748597.750000458
21
8930169.38599962
31
190.519999983311
210
0.0
220
0.0
230
1.0
72
0
100
AcDbText
73
0
0
POLYLINE
5
239
330
1A
100
AcDbEntity
67
0
8
Real Hole
62
1
420
16711680
6
ByLayer
370
-1
48
1.0
60
0
100
AcDb3dPolyline
10
0.0
20
0.0
30
0.0
70
8
75
0
210
0.0
220
0.0
230
1.0
0
VERTEX
5
22D
100
AcDbEntity
8
Real Hole
62
1
420
16711680
100
AcDbVertex
100
AcDb3dPolylineVertex
10
748597.750000458
20
8930170.08999962
30
190.519999983311
70
32
0
VERTEX
5
22E
100
AcDbEntity
8
Real Hole
62
1
420
16711680
100
AcDbVertex
100
AcDb3dPolylineVertex
10
748597.855279382
20
8930170.32403732
30
189.55348938942
70
32
0
VERTEX
5
22F
100
AcDbEntity
8
Real Hole
62
1
420
16711680
100
AcDbVertex
100
AcDb3dPolylineVertex
10
748597.980037596
20
8930170.55808178
30
188.589301350117
70
32
0
VERTEX
5
230
100
AcDbEntity
8
Real Hole
62
1
420
16711680
100
AcDbVertex
100
AcDb3dPolylineVertex
10
748598.08891068
20
8930170.80010939
30
187.625159742832
70
32
0
VERTEX
5
231
100
AcDbEntity
8
Real Hole
62
1
420
16711680
100
AcDbVertex
100
AcDb3dPolylineVertex
10
748598.187068831
20
8930171.06804925
30
186.666737320423
70
32
0
VERTEX
5
232
100
AcDbEntity
8
Real Hole
62
1
420
16711680
100
AcDbVertex
100
AcDb3dPolylineVertex
10
748598.264995258
20
8930171.32911533
30
185.704566957951
70
32
0
VERTEX
5
233
100
AcDbEntity
8
Real Hole
62
1
420
16711680
100
AcDbVertex
100
AcDb3dPolylineVertex
10
748598.331921916
20
8930171.56898147
30
184.736070635319
70
32
0
VERTEX
5
234
100
AcDbEntity
8
Real Hole
62
1
420
16711680
100
AcDbVertex
100
AcDb3dPolylineVertex
10
748598.435397367
20
8930171.83383566
30
183.777349951267
70
32
0
VERTEX
5
235
100
AcDbEntity
8
Real Hole
62
1
420
16711680
100
AcDbVertex
100
AcDb3dPolylineVertex
10
748598.506203871
20
8930172.10801906
30
182.818283083439
70
32
0
VERTEX
5
236
100
AcDbEntity
8
Real Hole
62
1
420
16711680
100
AcDbVertex
100
AcDb3dPolylineVertex
10
748598.613632123
20
8930172.42232818
30
181.875060560703
70
32
0
VERTEX
5
237
100
AcDbEntity
8
Real Hole
62
1
420
16711680
100
AcDbVertex
100
AcDb3dPolylineVertex
10
748598.625843983
20
8930172.48440045
30
181.685328962803
70
32
0
SEQEND
5
238
100
AcDbEntity
8
Real Hole
0
POINT
5
23A
330
1A
100
AcDbEntity
67
0
8
Hole
62
244
420
659967
6
ByLayer
370
-1
48
1.0
60
0
100
AcDbPoint
10
748596.860000114
20
8930170.90000004
30
190.550000014305
39
0.0
210
0.0
220
0.0
230
1.0
50
360.0
0
LINE
5
23B
330
1A
100
AcDbEntity
67
0
8
Theoretical Hole
62
244
420
659967
6
ByLayer
370
-1
48
1.0
60
0
100
AcDbLine
10
748596.860000114
20
8930170.90000004
30
190.550000014305
11
748598.64276741
21
8930172.80044693
31
179.996944847107
39
0.0
210
0.0
220
0.0
230
1.0
0
TEXT
5
23C
330
1A
100
AcDbEntity
67
0
8
Number
62
244
420
659967
6
ByLayer
370
-1
48
1.0
60
0
100
AcDbText
1
29
10
748596.860000114
20
8930171.20600003
30
190.550000014305
40
0.3
41
1.0
50
0.0
51
0.0
7
Standard
11
748596.860000114
21
8930171.20600003
31
190.550000014305
210
0.0
220
0.0
230
1.0
72
0
100
AcDbText
73
0
0
TEXT
5
23D
330
1A
100
AcDbEntity
67
0
8
label
62
1
420
16711680
6
ByLayer
370
-1
48
1.0
60
0
100
AcDbText
1

10
748596.860000114
20
8930171.60600003
30
190.550000014305
40
0.3
41
1.0
50
0.0
51
0.0
7
Standard
11
748596.860000114
21
8930171.60600003
31
190.550000014305
210
0.0
220
0.0
230
1.0
72
0
100
AcDbText
73
0
0
TEXT
5
23E
330
1A
100
AcDbEntity
67
0
8
Length
62
244
420
659967
6
ByLayer
370
-1
48
1.0
60
0
100
AcDbText
1
10.87
10
748596.860000114
20
8930170.19600004
30
190.550000014305
40
0.3
41
1.0
50
0.0
51
0.0
7
Standard
11
748596.860000114
21
8930170.19600004
31
190.550000014305
210
0.0
220
0.0
230
1.0
72
0
100
AcDbText
73
0
0
POINT
5
23F
330
1A
100
AcDbEntity
67
0
8
Hole
62
244
420
659967
6
ByLayer
370
-1
48
1.0
60
0
100
AcDbPoint
10
748595.98
20
8930171.71999973
30
190.589999976158
39
0.0
210
0.0
220
0.0
230
1.0
50
360.0
0
LINE
5
240
330
1A
100
AcDbEntity
67
0
8
Theoretical Hole
62
244
420
659967
6
ByLayer
370
-1
48
1.0
60
0
100
AcDbLine
10
748595.98
20
8930171.71999973
30
190.589999976158
11
748597.798161964
21
8930173.56823772
31
180.002824249268
39
0.0
210
0.0
220
0.0
230
1.0
0
TEXT
5
241
330
1A
100
AcDbEntity
67
0
8
Number
62
244
420
659967
6
ByLayer
370
-1
48
1.0
60
0
100
AcDbText
1
30
10
748595.98
20
8930172.02599973
30
190.589999976158
40
0.3
41
1.0
50
0.0
51
0.0
7
Standard
11
748595.98
21
8930172.02599973
31
190.589999976158
210
0.0
220
0.0
230
1.0
72
0
100
AcDbText
73
0
0
TEXT
5
242
330
1A
100
AcDbEntity
67
0
8
label
62
1
420
16711680
6
ByLayer
370
-1
48
1.0
60
0
100
AcDbText
1

10
748595.98
20
8930172.42599973
30
190.589999976158
40
0.3
41
1.0
50
0.0
51
0.0
7
Standard
11
748595.98
21
8930172.42599973
31
190.589999976158
210
0.0
220
0.0
230
1.0
72
0
100
AcDbText
73
0
0
TEXT
5
243
330
1A
100
AcDbEntity
67
0
8
Length
62
244
420
659967
6
ByLayer
370
-1
48
1.0
60
0
100
AcDbText
1
10.90
10
748595.98
20
8930171.01599974
30
190.589999976158
40
0.3
41
1.0
50
0.0
51
0.0
7
Standard
11
748595.98
21
8930171.01599974
31
190.589999976158
210
0.0
220
0.0
230
1.0
72
0
100
AcDbText
73
0
0
POINT
5
244
330
1A
100
AcDbEntity
67
0
8
Hole
62
244
420
659967
6
ByLayer
370
-1
48
1.0
60
0
100
AcDbPoint
10
748595.129999619
20
8930172.55999989
30
190.610000016689
39
0.0
210
0.0
220
0.0
230
1.0
50
360.0
0
LINE
5
245
330
1A
100
AcDbEntity
67
0
8
Theoretical Hole
62
244
420
659967
6
ByLayer
370
-1
48
1.0
60
0
100
AcDbLine
10
748595.129999619
20
8930172.55999989
30
190.610000016689
11
748596.997827988
21
8930174.31584877
31
180.005458297729
39
0.0
210
0.0
220
0.0
230
1.0
0
TEXT
5
246
330
1A
100
AcDbEntity
67
0
8
Number
62
244
420
659967
6
ByLayer
370
-1
48
1.0
60
0
100
AcDbText
1
31
10
748595.129999619
20
8930172.86599988
30
190.610000016689
40
0.3
41
1.0
50
0.0
51
0.0
7
Standard
11
748595.129999619
21
8930172.86599988
31
190.610000016689
210
0.0
220
0.0
230
1.0
72
0
100
AcDbText
73
0
0
TEXT
5
247
330
1A
100
AcDbEntity
67
0
8
label
62
1
420
16711680
6
ByLayer
370
-1
48
1.0
60
0
100
AcDbText
1

10
748595.129999619
20
8930173.26599988
30
190.610000016689
40
0.3
41
1.0
50
0.0
51
0.0
7
Standard
11
748595.129999619
21
8930173.26599988
31
190.610000016689
210
0.0
220
0.0
230
1.0
72
0
100
AcDbText
73
0
0
TEXT
5
248
330
1A
100
AcDbEntity
67
0
8
Length
62
244
420
659967
6
ByLayer
370
-1
48
1.0
60
0
100
AcDbText
1
10.91
10
748595.129999619
20
8930171.85599989
30
190.610000016689
40
0.3
41
1.0
50
0.0
51
0.0
7
Standard
11
748595.129999619
21
8930171.85599989
31
190.610000016689
210
0.0
220
0.0
230
1.0
72
0
100
AcDbText
73
0
0
POINT
5
249
330
1A
100
AcDbEntity
67
0
8
Hole
62
244
420
659967
6
ByLayer
370
-1
48
1.0
60
0
100
AcDbPoint
10
748594.309999924
20
8930173.42999977
30
190.620000007153
39
0.0
210
0.0
220
0.0
230
1.0
50
360.0
0
LINE
5
24A
330
1A
100
AcDbEntity
67
0
8
Theoretical Hole
62
244
420
659967
6
ByLayer
370
-1
48
1.0
60
0
100
AcDbLine
10
748594.309999924
20
8930173.42999977
30
190.620000007153
11
748596.196506004
21
8930175.14177937
31
180.001276435852
39
0.0
210
0.0
220
0.0
230
1.0
0
TEXT
5
24B
330
1A
100
AcDbEntity
67
0
8
Number
62
244
420
659967
6
ByLayer
370
-1
48
1.0
60
0
100
AcDbText
1
32
10
748594.309999924
20
8930173.73599976
30
190.620000007153
40
0.3
41
1.0
50
0.0
51
0.0
7
Standard
11
748594.309999924
21
8930173.73599976
31
190.620000007153
210
0.0
220
0.0
230
1.0
72
0
100
AcDbText
73
0
0
TEXT
5
24C
330
1A
100
AcDbEntity
67
0
8
label
62
1
420
16711680
6
ByLayer
370
-1
48
1.0
60
0
100
AcDbText
1

10
748594.309999924
20
8930174.13599977
30
190.620000007153
40
0.3
41
1.0
50
0.0
51
0.0
7
Standard
11
748594.309999924
21
8930174.13599977
31
190.620000007153
210
0.0
220
0.0
230
1.0
72
0
100
AcDbText
73
0
0
TEXT
5
24D
330
1A
100
AcDbEntity
67
0
8
Length
62
244
420
659967
6
ByLayer
370
-1
48
1.0
60
0
100
AcDbText
1
10.92
10
748594.309999924
20
8930172.72599977
30
190.620000007153
40
0.3
41
1.0
50
0.0
51
0.0
7
Standard
11
748594.309999924
21
8930172.72599977
31
190.620000007153
210
0.0
220
0.0
230
1.0
72
0
100
AcDbText
73
0
0
POINT
5
24E
330
1A
100
AcDbEntity
67
0
8
Hole
62
244
420
659967
6
ByLayer
370
-1
48
1.0
60
0
100
AcDbPoint
10
748593.500000458
20
8930174.32000011
30
190.629999997616
39
0.0
210
0.0
220
0.0
230
1.0
50
360.0
0
LINE
5
24F
330
1A
100
AcDbEntity
67
0
8
Theoretical Hole
62
244
420
659967
6
ByLayer
370
-1
48
1.0
60
0
100
AcDbLine
10
748593.500000458
20
8930174.32000011
30
190.629999997616
11
748595.405112724
21
8930175.98369259
31
179.99667591095
39
0.0
210
0.0
220
0.0
230
1.0
0
TEXT
5
250
330
1A
100
AcDbEntity
67
0
8
Number
62
244
420
659967
6
ByLayer
370
-1
48
1.0
60
0
100
AcDbText
1
33
10
748593.500000458
20
8930174.62600011
30
190.629999997616
40
0.3
41
1.0
50
0.0
51
0.0
7
Standard
11
748593.500000458
21
8930174.62600011
31
190.629999997616
210
0.0
220
0.0
230
1.0
72
0
100
AcDbText
73
0
0
TEXT
5
251
330
1A
100
AcDbEntity
67
0
8
label
62
1
420
16711680
6
ByLayer
370
-1
48
1.0
60
0
100
AcDbText
1

10
748593.500000458
20
8930175.02600011
30
190.629999997616
40
0.3
41
1.0
50
0.0
51
0.0
7
Standard
11
748593.500000458
21
8930175.02600011
31
190.629999997616
210
0.0
220
0.0
230
1.0
72
0
100
AcDbText
73
0
0
TEXT
5
252
330
1A
100
AcDbEntity
67
0
8
Length
62
244
420
659967
6
ByLayer
370
-1
48
1.0
60
0
100
AcDbText
1
10.93
10
748593.500000458
20
8930173.61600012
30
190.629999997616
40
0.3
41
1.0
50
0.0
51
0.0
7
Standard
11
748593.500000458
21
8930173.61600012
31
190.629999997616
210
0.0
220
0.0
230
1.0
72
0
100
AcDbText
73
0
0
POINT
5
253
330
1A
100
AcDbEntity
67
0
8
Hole
62
244
420
659967
6
ByLayer
370
-1
48
1.0
60
0
100
AcDbPoint
10
748592.709999542
20
8930175.22999996
30
190.639999988079
39
0.0
210
0.0
220
0.0
230
1.0
50
360.0
0
LINE
5
254
330
1A
100
AcDbEntity
67
0
8
Theoretical Hole
62
244
420
659967
6
ByLayer
370
-1
48
1.0
60
0
100
AcDbLine
10
748592.709999542
20
8930175.22999996
30
190.639999988079
11
748594.657368164
21
8930176.83528656
31
180.005351486206
39
0.0
210
0.0
220
0.0
230
1.0
0
TEXT
5
255
330
1A
100
AcDbEntity
67
0
8
Number
62
244
420
659967
6
ByLayer
370
-1
48
1.0
60
0
100
AcDbText
1
34
10
748592.709999542
20
8930175.53599996
30
190.639999988079
40
0.3
41
1.0
50
0.0
51
0.0
7
Standard
11
748592.709999542
21
8930175.53599996
31
190.639999988079
210
0.0
220
0.0
230
1.0
72
0
100
AcDbText
73
0
0
TEXT
5
256
330
1A
100
AcDbEntity
67
0
8
label
62
1
420
16711680
6
ByLayer
370
-1
48
1.0
60
0
100
AcDbText
1

10
748592.709999542
20
8930175.93599996
30
190.639999988079
40
0.3
41
1.0
50
0.0
51
0.0
7
Standard
11
748592.709999542
21
8930175.93599996
31
190.639999988079
210
0.0
220
0.0
230
1.0
72
0
100
AcDbText
73
0
0
TEXT
5
257
330
1A
100
AcDbEntity
67
0
8
Length
62
244
420
659967
6
ByLayer
370
-1
48
1.0
60
0
100
AcDbText
1
10.93
10
748592.709999542
20
8930174.52599997
30
190.639999988079
40
0.3
41
1.0
50
0.0
51
0.0
7
Standard
11
748592.709999542
21
8930174.52599997
31
190.639999988079
210
0.0
220
0.0
230
1.0
72
0
100
AcDbText
73
0
0
POINT
5
258
330
1A
100
AcDbEntity
67
0
8
Hole
62
244
420
659967
6
ByLayer
370
-1
48
1.0
60
0
100
AcDbPoint
10
748591.950000267
20
8930176.15000004
30
190.729999961853
39
0.0
210
0.0
220
0.0
230
1.0
50
360.0
0
LINE
5
259
330
1A
100
AcDbEntity
67
0
8
Theoretical Hole
62
244
420
659967
6
ByLayer
370
-1
48
1.0
60
0
100
AcDbLine
10
748591.950000267
20
8930176.15000004
30
190.729999961853
11
748593.9096875
21
8930177.72562927
31
180.000720443726
39
0.0
210
0.0
220
0.0
230
1.0
0
TEXT
5
25A
330
1A
100
AcDbEntity
67
0
8
Number
62
244
420
659967
6
ByLayer
370
-1
48
1.0
60
0
100
AcDbText
1
35
10
748591.950000267
20
8930176.45600003
30
190.729999961853
40
0.3
41
1.0
50
0.0
51
0.0
7
Standard
11
748591.950000267
21
8930176.45600003
31
190.729999961853
210
0.0
220
0.0
230
1.0
72
0
100
AcDbText
73
0
0
TEXT
5
25B
330
1A
100
AcDbEntity
67
0
8
label
62
1
420
16711680
6
ByLayer
370
-1
48
1.0
60
0
100
AcDbText
1

10
748591.950000267
20
8930176.85600003
30
190.729999961853
40
0.3
41
1.0
50
0.0
51
0.0
7
Standard
11
748591.950000267
21
8930176.85600003
31
190.729999961853
210
0.0
220
0.0
230
1.0
72
0
100
AcDbText
73
0
0
TEXT
5
25C
330
1A
100
AcDbEntity
67
0
8
Length
62
244
420
659967
6
ByLayer
370
-1
48
1.0
60
0
100
AcDbText
1
11.02
10
748591.950000267
20
8930175.44600004
30
190.729999961853
40
0.3
41
1.0
50
0.0
51
0.0
7
Standard
11
748591.950000267
21
8930175.44600004
31
190.729999961853
210
0.0
220
0.0
230
1.0
72
0
100
AcDbText
73
0
0
POINT
5
25D
330
1A
100
AcDbEntity
67
0
8
Hole
62
244
420
659967
6
ByLayer
370
-1
48
1.0
60
0
100
AcDbPoint
10
748591.200000267
20
8930177.08999962
30
190.979999961853
39
0.0
210
0.0
220
0.0
230
1.0
50
360.0
0
LINE
5
25E
330
1A
100
AcDbEntity
67
0
8
Theoretical Hole
62
244
420
659967
6
ByLayer
370
-1
48
1.0
60
0
100
AcDbLine
10
748591.200000267
20
8930177.08999962
30
190.979999961853
11
748593.175719719
21
8930178.63804764
31
180.003312530518
39
0.0
210
0.0
220
0.0
230
1.0
0
TEXT
5
25F
330
1A
100
AcDbEntity
67
0
8
Number
62
244
420
659967
6
ByLayer
370
-1
48
1.0
60
0
100
AcDbText
1
36
10
748591.200000267
20
8930177.39599961
30
190.979999961853
40
0.3
41
1.0
50
0.0
51
0.0
7
Standard
11
748591.200000267
21
8930177.39599961
31
190.979999961853
210
0.0
220
0.0
230
1.0
72
0
100
AcDbText
73
0
0
TEXT
5
260
330
1A
100
AcDbEntity
67
0
8
label
62
1
420
16711680
6
ByLayer
370
-1
48
1.0
60
0
100
AcDbText
1

10
748591.200000267
20
8930177.79599961
30
190.979999961853
40
0.3
41
1.0
50
0.0
51
0.0
7
Standard
11
748591.200000267
21
8930177.79599961
31
190.979999961853
210
0.0
220
0.0
230
1.0
72
0
100
AcDbText
73
0
0
TEXT
5
261
330
1A
100
AcDbEntity
67
0
8
Length
62
244
420
659967
6
ByLayer
370
-1
48
1.0
60
0
100
AcDbText
1
11.26
10
748591.200000267
20
8930176.38599962
30
190.979999961853
40
0.3
41
1.0
50
0.0
51
0.0
7
Standard
11
748591.200000267
21
8930176.38599962
31
190.979999961853
210
0.0
220
0.0
230
1.0
72
0
100
AcDbText
73
0
0
POINT
5
262
330
1A
100
AcDbEntity
67
0
8
Hole
62
244
420
659967
6
ByLayer
370
-1
48
1.0
60
0
100
AcDbPoint
10
748590.460000019
20
8930178.03000015
30
191.369999947548
39
0.0
210
0.0
220
0.0
230
1.0
50
360.0
0
LINE
5
263
330
1A
100
AcDbEntity
67
0
8
Theoretical Hole
62
244
420
659967
6
ByLayer
370
-1
48
1.0
60
0
100
AcDbLine
10
748590.460000019
20
8930178.03000015
30
191.369999947548
11
748592.485149841
21
8930179.54225105
31
179.997473182678
39
0.0
210
0.0
220
0.0
230
1.0
0
TEXT
5
264
330
1A
100
AcDbEntity
67
0
8
Number
62
244
420
659967
6
ByLayer
370
-1
48
1.0
60
0
100
AcDbText
1
37
10
748590.460000019
20
8930178.33600015
30
191.369999947548
40
0.3
41
1.0
50
0.0
51
0.0
7
Standard
11
748590.460000019
21
8930178.33600015
31
191.369999947548
210
0.0
220
0.0
230
1.0
72
0
100
AcDbText
73
0
0
TEXT
5
265
330
1A
100
AcDbEntity
67
0
8
label
62
1
420
16711680
6
ByLayer
370
-1
48
1.0
60
0
100
AcDbText
1

10
748590.460000019
20
8930178.73600015
30
191.369999947548
40
0.3
41
1.0
50
0.0
51
0.0
7
Standard
11
748590.460000019
21
8930178.73600015
31
191.369999947548
210
0.0
220
0.0
230
1.0
72
0
100
AcDbText
73
0
0
TEXT
5
266
330
1A
100
AcDbEntity
67
0
8
Length
62
244
420
659967
6
ByLayer
370
-1
48
1.0
60
0
100
AcDbText
1
11.65
10
748590.460000019
20
8930177.32600016
30
191.369999947548
40
0.3
41
1.0
50
0.0
51
0.0
7
Standard
11
748590.460000019
21
8930177.32600016
31
191.369999947548
210
0.0
220
0.0
230
1.0
72
0
100
AcDbText
73
0
0
POINT
5
267
330
1A
100
AcDbEntity
67
0
8
Hole
62
244
420
659967
6
ByLayer
370
-1
48
1.0
60
0
100
AcDbPoint
10
748589.740000229
20
8930178.98999924
30
191.63000005722
39
0.0
210
0.0
220
0.0
230
1.0
50
360.0
0
LINE
5
268
330
1A
100
AcDbEntity
67
0
8
Theoretical Hole
62
244
420
659967
6
ByLayer
370
-1
48
1.0
60
0
100
AcDbLine
10
748589.740000229
20
8930178.98999924
30
191.63000005722
11
748591.771757584
21
8930180.50608009
31
180.003158035278
39
0.0
210
0.0
220
0.0
230
1.0
0
TEXT
5
269
330
1A
100
AcDbEntity
67
0
8
Number
62
244
420
659967
6
ByLayer
370
-1
48
1.0
60
0
100
AcDbText
1
38
10
748589.740000229
20
8930179.29599923
30
191.63000005722
40
0.3
41
1.0
50
0.0
51
0.0
7
Standard
11
748589.740000229
21
8930179.29599923
31
191.63000005722
210
0.0
220
0.0
230
1.0
72
0
100
AcDbText
73
0
0
TEXT
5
26A
330
1A
100
AcDbEntity
67
0
8
label
62
1
420
16711680
6
ByLayer
370
-1
48
1.0
60
0
100
AcDbText
1

10
748589.740000229
20
8930179.69599923
30
191.63000005722
40
0.3
41
1.0
50
0.0
51
0.0
7
Standard
11
748589.740000229
21
8930179.69599923
31
191.63000005722
210
0.0
220
0.0
230
1.0
72
0
100
AcDbText
73
0
0
TEXT
5
26B
330
1A
100
AcDbEntity
67
0
8
Length
62
244
420
659967
6
ByLayer
370
-1
48
1.0
60
0
100
AcDbText
1
11.90
10
748589.740000229
20
8930178.28599924
30
191.63000005722
40
0.3
41
1.0
50
0.0
51
0.0
7
Standard
11
748589.740000229
21
8930178.28599924
31
191.63000005722
210
0.0
220
0.0
230
1.0
72
0
100
AcDbText
73
0
0
POINT
5
26C
330
1A
100
AcDbEntity
67
0
8
Hole
62
244
420
659967
6
ByLayer
370
-1
48
1.0
60
0
100
AcDbPoint
10
748589.019999962
20
8930179.95000023
30
191.63000005722
39
0.0
210
0.0
220
0.0
230
1.0
50
360.0
0
LINE
5
26D
330
1A
100
AcDbEntity
67
0
8
Theoretical Hole
62
244
420
659967
6
ByLayer
370
-1
48
1.0
60
0
100
AcDbLine
10
748589.019999962
20
8930179.95000023
30
191.63000005722
11
748591.071632843
21
8930181.48035377
31
179.998280944824
39
0.0
210
0.0
220
0.0
230
1.0
0
TEXT
5
26E
330
1A
100
AcDbEntity
67
0
8
Number
62
244
420
659967
6
ByLayer
370
-1
48
1.0
60
0
100
AcDbText
1
39
10
748589.019999962
20
8930180.25600022
30
191.63000005722
40
0.3
41
1.0
50
0.0
51
0.0
7
Standard
11
748589.019999962
21
8930180.25600022
31
191.63000005722
210
0.0
220
0.0
230
1.0
72
0
100
AcDbText
73
0
0
TEXT
5
26F
330
1A
100
AcDbEntity
67
0
8
label
62
1
420
16711680
6
ByLayer
370
-1
48
1.0
60
0
100
AcDbText
1

10
748589.019999962
20
8930180.65600022
30
191.63000005722
40
0.3
41
1.0
50
0.0
51
0.0
7
Standard
11
748589.019999962
21
8930180.65600022
31
191.63000005722
210
0.0
220
0.0
230
1.0
72
0
100
AcDbText
73
0
0
TEXT
5
270
330
1A
100
AcDbEntity
67
0
8
Length
62
244
420
659967
6
ByLayer
370
-1
48
1.0
60
0
100
AcDbText
1
11.91
10
748589.019999962
20
8930179.24600023
30
191.63000005722
40
0.3
41
1.0
50
0.0
51
0.0
7
Standard
11
748589.019999962
21
8930179.24600023
31
191.63000005722
210
0.0
220
0.0
230
1.0
72
0
100
AcDbText
73
0
0
POINT
5
271
330
1A
100
AcDbEntity
67
0
8
Hole
62
244
420
659967
6
ByLayer
370
-1
48
1.0
60
0
100
AcDbPoint
10
748588.300000172
20
8930180.91999954
30
191.199999990463
39
0.0
210
0.0
220
0.0
230
1.0
50
360.0
0
LINE
5
272
330
1A
100
AcDbEntity
67
0
8
Theoretical Hole
62
244
420
659967
6
ByLayer
370
-1
48
1.0
60
0
100
AcDbLine
10
748588.300000172
20
8930180.91999954
30
191.199999990463
11
748590.400715809
21
8930182.45636505
31
179.998366775513
39
0.0
210
0.0
220
0.0
230
1.0
0
TEXT
5
273
330
1A
100
AcDbEntity
67
0
8
Number
62
244
420
659967
6
ByLayer
370
-1
48
1.0
60
0
100
AcDbText
1
40
10
748588.300000172
20
8930181.22599954
30
191.199999990463
40
0.3
41
1.0
50
0.0
51
0.0
7
Standard
11
748588.300000172
21
8930181.22599954
31
191.199999990463
210
0.0
220
0.0
230
1.0
72
0
100
AcDbText
73
0
0
TEXT
5
274
330
1A
100
AcDbEntity
67
0
8
label
62
1
420
16711680
6
ByLayer
370
-1
48
1.0
60
0
100
AcDbText
1

10
748588.300000172
20
8930181.62599954
30
191.199999990463
40
0.3
41
1.0
50
0.0
51
0.0
7
Standard
11
748588.300000172
21
8930181.62599954
31
191.199999990463
210
0.0
220
0.0
230
1.0
72
0
100
AcDbText
73
0
0
TEXT
5
275
330
1A
100
AcDbEntity
67
0
8
Length
62
244
420
659967
6
ByLayer
370
-1
48
1.0
60
0
100
AcDbText
1
11.50
10
748588.300000172
20
8930180.21599955
30
191.199999990463
40
0.3
41
1.0
50
0.0
51
0.0
7
Standard
11
748588.300000172
21
8930180.21599955
31
191.199999990463
210
0.0
220
0.0
230
1.0
72
0
100
AcDbText
73
0
0
POINT
5
276
330
1A
100
AcDbEntity
67
0
8
Hole
62
244
420
659967
6
ByLayer
370
-1
48
1.0
60
0
100
AcDbPoint
10
748587.590000134
20
8930181.88000053
30
190.709999980927
39
0.0
210
0.0
220
0.0
230
1.0
50
360.0
0
LINE
5
277
330
1A
100
AcDbEntity
67
0
8
Theoretical Hole
62
244
420
659967
6
ByLayer
370
-1
48
1.0
60
0
100
AcDbLine
10
748587.590000134
20
8930181.88000053
30
190.709999980927
11
748589.724235992
21
8930183.44088119
31
180.001611175537
39
0.0
210
0.0
220
0.0
230
1.0
0
TEXT
5
278
330
1A
100
AcDbEntity
67
0
8
Number
62
244
420
659967
6
ByLayer
370
-1
48
1.0
60
0
100
AcDbText
1
41
10
748587.590000134
20
8930182.18600053
30
190.709999980927
40
0.3
41
1.0
50
0.0
51
0.0
7
Standard
11
748587.590000134
21
8930182.18600053
31
190.709999980927
210
0.0
220
0.0
230
1.0
72
0
100
AcDbText
73
0
0
TEXT
5
279
330
1A
100
AcDbEntity
67
0
8
label
62
1
420
16711680
6
ByLayer
370
-1
48
1.0
60
0
100
AcDbText
1

10
748587.590000134
20
8930182.58600053
30
190.709999980927
40
0.3
41
1.0
50
0.0
51
0.0
7
Standard
11
748587.590000134
21
8930182.58600053
31
190.709999980927
210
0.0
220
0.0
230
1.0
72
0
100
AcDbText
73
0
0
TEXT
5
27A
330
1A
100
AcDbEntity
67
0
8
Length
62
244
420
659967
6
ByLayer
370
-1
48
1.0
60
0
100
AcDbText
1
11.03
10
748587.590000134
20
8930181.17600054
30
190.709999980927
40
0.3
41
1.0
50
0.0
51
0.0
7
Standard
11
748587.590000134
21
8930181.17600054
31
190.709999980927
210
0.0
220
0.0
230
1.0
72
0
100
AcDbText
73
0
0
POINT
5
27B
330
1A
100
AcDbEntity
67
0
8
Hole
62
244
420
659967
6
ByLayer
370
-1
48
1.0
60
0
100
AcDbPoint
10
748586.889999847
20
8930182.84999985
30
190.46999997139
39
0.0
210
0.0
220
0.0
230
1.0
50
360.0
0
LINE
5
27C
330
1A
100
AcDbEntity
67
0
8
Theoretical Hole
62
244
420
659967
6
ByLayer
370
-1
48
1.0
60
0
100
AcDbLine
10
748586.889999847
20
8930182.84999985
30
190.46999997139
11
748589.061410408
21
8930184.43806786
31
180.000086250305
39
0.0
210
0.0
220
0.0
230
1.0
0
TEXT
5
27D
330
1A
100
AcDbEntity
67
0
8
Number
62
244
420
659967
6
ByLayer
370
-1
48
1.0
60
0
100
AcDbText
1
42
10
748586.889999847
20
8930183.15599984
30
190.46999997139
40
0.3
41
1.0
50
0.0
51
0.0
7
Standard
11
748586.889999847
21
8930183.15599984
31
190.46999997139
210
0.0
220
0.0
230
1.0
72
0
100
AcDbText
73
0
0
TEXT
5
27E
330
1A
100
AcDbEntity
67
0
8
label
62
1
420
16711680
6
ByLayer
370
-1
48
1.0
60
0
100
AcDbText
1

10
748586.889999847
20
8930183.55599984
30
190.46999997139
40
0.3
41
1.0
50
0.0
51
0.0
7
Standard
11
748586.889999847
21
8930183.55599984
31
190.46999997139
210
0.0
220
0.0
230
1.0
72
0
100
AcDbText
73
0
0
TEXT
5
27F
330
1A
100
AcDbEntity
67
0
8
Length
62
244
420
659967
6
ByLayer
370
-1
48
1.0
60
0
100
AcDbText
1
10.81
10
748586.889999847
20
8930182.14599985
30
190.46999997139
40
0.3
41
1.0
50
0.0
51
0.0
7
Standard
11
748586.889999847
21
8930182.14599985
31
190.46999997139
210
0.0
220
0.0
230
1.0
72
0
100
AcDbText
73
0
0
POINT
5
280
330
1A
100
AcDbEntity
67
0
8
Hole
62
244
420
659967
6
ByLayer
370
-1
48
1.0
60
0
100
AcDbPoint
10
748586.180000048
20
8930183.81999916
30
190.449999990463
39
0.0
210
0.0
220
0.0
230
1.0
50
360.0
0
LINE
5
281
330
1A
100
AcDbEntity
67
0
8
Theoretical Hole
62
244
420
659967
6
ByLayer
370
-1
48
1.0
60
0
100
AcDbLine
10
748586.180000048
20
8930183.81999916
30
190.449999990463
11
748588.392108898
21
8930185.43783325
31
180.003508033752
39
0.0
210
0.0
220
0.0
230
1.0
0
TEXT
5
282
330
1A
100
AcDbEntity
67
0
8
Number
62
244
420
659967
6
ByLayer
370
-1
48
1.0
60
0
100
AcDbText
1
43
10
748586.180000048
20
8930184.12599915
30
190.449999990463
40
0.3
41
1.0
50
0.0
51
0.0
7
Standard
11
748586.180000048
21
8930184.12599915
31
190.449999990463
210
0.0
220
0.0
230
1.0
72
0
100
AcDbText
73
0
0
TEXT
5
283
330
1A
100
AcDbEntity
67
0
8
label
62
1
420
16711680
6
ByLayer
370
-1
48
1.0
60
0
100
AcDbText
1

10
748586.180000048
20
8930184.52599915
30
190.449999990463
40
0.3
41
1.0
50
0.0
51
0.0
7
Standard
11
748586.180000048
21
8930184.52599915
31
190.449999990463
210
0.0
220
0.0
230
1.0
72
0
100
AcDbText
73
0
0
TEXT
5
284
330
1A
100
AcDbEntity
67
0
8
Length
62
244
420
659967
6
ByLayer
370
-1
48
1.0
60
0
100
AcDbText
1
10.80
10
748586.180000048
20
8930183.11599916
30
190.449999990463
40
0.3
41
1.0
50
0.0
51
0.0
7
Standard
11
748586.180000048
21
8930183.11599916
31
190.449999990463
210
0.0
220
0.0
230
1.0
72
0
100
AcDbText
73
0
0
POINT
5
285
330
1A
100
AcDbEntity
67
0
8
Hole
62
244
420
659967
6
ByLayer
370
-1
48
1.0
60
0
100
AcDbPoint
10
748585.47000001
20
8930184.79000038
30
190.46999997139
39
0.0
210
0.0
220
0.0
230
1.0
50
360.0
0
LINE
5
286
330
1A
100
AcDbEntity
67
0
8
Theoretical Hole
62
244
420
659967
6
ByLayer
370
-1
48
1.0
60
0
100
AcDbLine
10
748585.47000001
20
8930184.79000038
30
190.46999997139
11
748587.700973968
21
8930186.45049614
31
180.003174247742
39
0.0
210
0.0
220
0.0
230
1.0
0
TEXT
5
287
330
1A
100
AcDbEntity
67
0
8
Number
62
244
420
659967
6
ByLayer
370
-1
48
1.0
60
0
100
AcDbText
1
44
10
748585.47000001
20
8930185.09600038
30
190.46999997139
40
0.3
41
1.0
50
0.0
51
0.0
7
Standard
11
748585.47000001
21
8930185.09600038
31
190.46999997139
210
0.0
220
0.0
230
1.0
72
0
100
AcDbText
73
0
0
TEXT
5
288
330
1A
100
AcDbEntity
67
0
8
label
62
1
420
16711680
6
ByLayer
370
-1
48
1.0
60
0
100
AcDbText
1

10
748585.47000001
20
8930185.49600038
30
190.46999997139
40
0.3
41
1.0
50
0.0
51
0.0
7
Standard
11
748585.47000001
21
8930185.49600038
31
190.46999997139
210
0.0
220
0.0
230
1.0
72
0
100
AcDbText
73
0
0
TEXT
5
289
330
1A
100
AcDbEntity
67
0
8
Length
62
244
420
659967
6
ByLayer
370
-1
48
1.0
60
0
100
AcDbText
1
10.83
10
748585.47000001
20
8930184.08600038
30
190.46999997139
40
0.3
41
1.0
50
0.0
51
0.0
7
Standard
11
748585.47000001
21
8930184.08600038
31
190.46999997139
210
0.0
220
0.0
230
1.0
72
0
100
AcDbText
73
0
0
POINT
5
28A
330
1A
100
AcDbEntity
67
0
8
Hole
62
244
420
659967
6
ByLayer
370
-1
48
1.0
60
0
100
AcDbPoint
10
748584.749999981
20
8930185.74999947
30
190.430000009537
39
0.0
210
0.0
220
0.0
230
1.0
50
360.0
0
LINE
5
28B
330
1A
100
AcDbEntity
67
0
8
Theoretical Hole
62
244
420
659967
6
ByLayer
370
-1
48
1.0
60
0
100
AcDbLine
10
748584.749999981
20
8930185.74999947
30
190.430000009537
11
748586.99630497
21
8930187.45133347
31
179.993731918335
39
0.0
210
0.0
220
0.0
230
1.0
0
TEXT
5
28C
330
1A
100
AcDbEntity
67
0
8
Number
62
244
420
659967
6
ByLayer
370
-1
48
1.0
60
0
100
AcDbText
1
45
10
748584.749999981
20
8930186.05599946
30
190.430000009537
40
0.3
41
1.0
50
0.0
51
0.0
7
Standard
11
748584.749999981
21
8930186.05599946
31
190.430000009537
210
0.0
220
0.0
230
1.0
72
0
100
AcDbText
73
0
0
TEXT
5
28D
330
1A
100
AcDbEntity
67
0
8
label
62
1
420
16711680
6
ByLayer
370
-1
48
1.0
60
0
100
AcDbText
1

10
748584.749999981
20
8930186.45599946
30
190.430000009537
40
0.3
41
1.0
50
0.0
51
0.0
7
Standard
11
748584.749999981
21
8930186.45599946
31
190.430000009537
210
0.0
220
0.0
230
1.0
72
0
100
AcDbText
73
0
0
TEXT
5
28E
330
1A
100
AcDbEntity
67
0
8
Length
62
244
420
659967
6
ByLayer
370
-1
48
1.0
60
0
100
AcDbText
1
10.81
10
748584.749999981
20
8930185.04599947
30
190.430000009537
40
0.3
41
1.0
50
0.0
51
0.0
7
Standard
11
748584.749999981
21
8930185.04599947
31
190.430000009537
210
0.0
220
0.0
230
1.0
72
0
100
AcDbText
73
0
0
POINT
5
28F
330
1A
100
AcDbEntity
67
0
8
Hole
62
244
420
659967
6
ByLayer
370
-1
48
1.0
60
0
100
AcDbPoint
10
748584.029999952
20
8930186.71000046
30
190.310000004768
39
0.0
210
0.0
220
0.0
230
1.0
50
360.0
0
LINE
5
290
330
1A
100
AcDbEntity
67
0
8
Theoretical Hole
62
244
420
659967
6
ByLayer
370
-1
48
1.0
60
0
100
AcDbLine
10
748584.029999952
20
8930186.71000046
30
190.310000004768
11
748586.236357908
21
8930188.49476189
31
179.993188323975
39
0.0
210
0.0
220
0.0
230
1.0
0
TEXT
5
291
330
1A
100
AcDbEntity
67
0
8
Number
62
244
420
659967
6
ByLayer
370
-1
48
1.0
60
0
100
AcDbText
1
46
10
748584.029999952
20
8930187.01600045
30
190.310000004768
40
0.3
41
1.0
50
0.0
51
0.0
7
Standard
11
748584.029999952
21
8930187.01600045
31
190.310000004768
210
0.0
220
0.0
230
1.0
72
0
100
AcDbText
73
0
0
TEXT
5
292
330
1A
100
AcDbEntity
67
0
8
label
62
1
420
16711680
6
ByLayer
370
-1
48
1.0
60
0
100
AcDbText
1

10
748584.029999952
20
8930187.41600045
30
190.310000004768
40
0.3
41
1.0
50
0.0
51
0.0
7
Standard
11
748584.029999952
21
8930187.41600045
31
190.310000004768
210
0.0
220
0.0
230
1.0
72
0
100
AcDbText
73
0
0
TEXT
5
293
330
1A
100
AcDbEntity
67
0
8
Length
62
244
420
659967
6
ByLayer
370
-1
48
1.0
60
0
100
AcDbText
1
10.70
10
748584.029999952
20
8930186.00600046
30
190.310000004768
40
0.3
41
1.0
50
0.0
51
0.0
7
Standard
11
748584.029999952
21
8930186.00600046
31
190.310000004768
210
0.0
220
0.0
230
1.0
72
0
100
AcDbText
73
0
0
POINT
5
294
330
1A
100
AcDbEntity
67
0
8
Hole
62
244
420
659967
6
ByLayer
370
-1
48
1.0
60
0
100
AcDbPoint
10
748583.270000021
20
8930187.64000076
30
190.139999988079
39
0.0
210
0.0
220
0.0
230
1.0
50
360.0
0
LINE
5
295
330
1A
100
AcDbEntity
67
0
8
Theoretical Hole
62
244
420
659967
6
ByLayer
370
-1
48
1.0
60
0
100
AcDbLine
10
748583.270000021
20
8930187.64000076
30
190.139999988079
11
748585.413598518
21
8930189.51459831
31
180.002358856201
39
0.0
210
0.0
220
0.0
230
1.0
0
TEXT
5
296
330
1A
100
AcDbEntity
67
0
8
Number
62
244
420
659967
6
ByLayer
370
-1
48
1.0
60
0
100
AcDbText
1
47
10
748583.270000021
20
8930187.94600076
30
190.139999988079
40
0.3
41
1.0
50
0.0
51
0.0
7
Standard
11
748583.270000021
21
8930187.94600076
31
190.139999988079
210
0.0
220
0.0
230
1.0
72
0
100
AcDbText
73
0
0
TEXT
5
297
330
1A
100
AcDbEntity
67
0
8
label
62
1
420
16711680
6
ByLayer
370
-1
48
1.0
60
0
100
AcDbText
1

10
748583.270000021
20
8930188.34600076
30
190.139999988079
40
0.3
41
1.0
50
0.0
51
0.0
7
Standard
11
748583.270000021
21
8930188.34600076
31
190.139999988079
210
0.0
220
0.0
230
1.0
72
0
100
AcDbText
73
0
0
TEXT
5
298
330
1A
100
AcDbEntity
67
0
8
Length
62
244
420
659967
6
ByLayer
370
-1
48
1.0
60
0
100
AcDbText
1
10.53
10
748583.270000021
20
8930186.93600077
30
190.139999988079
40
0.3
41
1.0
50
0.0
51
0.0
7
Standard
11
748583.270000021
21
8930186.93600077
31
190.139999988079
210
0.0
220
0.0
230
1.0
72
0
100
AcDbText
73
0
0
POINT
5
299
330
1A
100
AcDbEntity
67
0
8
Hole
62
244
420
659967
6
ByLayer
370
-1
48
1.0
60
0
100
AcDbPoint
10
748582.48
20
8930188.55000061
30
189.94
39
0.0
210
0.0
220
0.0
230
1.0
50
360.0
0
LINE
5
29A
330
1A
100
AcDbEntity
67
0
8
Theoretical Hole
62
244
420
659967
6
ByLayer
370
-1
48
1.0
60
0
100
AcDbLine
10
748582.48
20
8930188.55000061
30
189.94
11
748584.606184463
21
8930190.40936798
31
180.024445953369
39
0.0
210
0.0
220
0.0
230
1.0
0
TEXT
5
29B
330
1A
100
AcDbEntity
67
0
8
Number
62
244
420
659967
6
ByLayer
370
-1
48
1.0
60
0
100
AcDbText
1
48
10
748582.48
20
8930188.8560006
30
189.94
40
0.3
41
1.0
50
0.0
51
0.0
7
Standard
11
748582.48
21
8930188.8560006
31
189.94
210
0.0
220
0.0
230
1.0
72
0
100
AcDbText
73
0
0
TEXT
5
29C
330
1A
100
AcDbEntity
67
0
8
label
62
1
420
16711680
6
ByLayer
370
-1
48
1.0
60
0
100
AcDbText
1

10
748582.48
20
8930189.2560006
30
189.94
40
0.3
41
1.0
50
0.0
51
0.0
7
Standard
11
748582.48
21
8930189.2560006
31
189.94
210
0.0
220
0.0
230
1.0
72
0
100
AcDbText
73
0
0
TEXT
5
29D
330
1A
100
AcDbEntity
67
0
8
Length
62
244
420
659967
6
ByLayer
370
-1
48
1.0
60
0
100
AcDbText
1
10.31
10
748582.48
20
8930187.84600061
30
189.94
40
0.3
41
1.0
50
0.0
51
0.0
7
Standard
11
748582.48
21
8930187.84600061
31
189.94
210
0.0
220
0.0
230
1.0
72
0
100
AcDbText
73
0
0
VIEWPORT
5
2A2
330
29E
100
AcDbEntity
67
1
8
0
62
256
6
ByLayer
370
-1
48
1.0
60
0
100
AcDbViewport
10
0.0
20
0.0
30
0.0
40
297.0
41
210.0
68
1
69
1
12
50.0
22
100.0
13
0.0
23
0.0
14
10.0
24
10.0
15
10.0
25
10.0
16
0.0
26
0.0
36
1.0
17
0.0
27
0.0
37
0.0
42
50.0
43
0.0
44
0.0
45
250.0
50
0.0
51
0.0
72
1000
90
819232
110
0.0
120
0.0
130
0.0
111
1.0
121
0.0
131
0.0
112
0.0
122
1.0
132
0.0
0
ENDSEC
0
SECTION
2
OBJECTS
0
DICTIONARY
5
2A7
330
0
100
AcDbDictionary
280
0
281
1
3
ACAD_GROUP
350
2A8
3
ACAD_LAYOUT
350
2A9
3
ACAD_MLINESTYLE
350
2AD
0
DICTIONARY
5
2A8
330
2A7
100
AcDbDictionary
280
0
281
1
0
DICTIONARY
5
2A9
330
2A7
100
AcDbDictionary
280
0
281
1
3
Model
350
1E
3
Layout1
350
2A3
0
DICTIONARY
5
2AD
330
2A7
100
AcDbDictionary
280
0
281
1
3
Standard
350
19
0
LAYOUT
5
1E
330
2A9
100
AcDbPlotSettings
1

2
none_device
4
ISO_A4_(210.00_x_297.00_MM)
6

40
7.5
41
20.0
42
7.5
43
20.0
44
210.0
45
297.0
46
0.0
47
0.0
48
0.0
49
0.0
140
0.0
141
0.0
142
1.0
143
1.0
70
11952
72
1
73
1
74
5
7

75
16
147
1.0
148
0.0
149
0.0
100
AcDbLayout
1
Model
70
1
71
0
10
-20.0
20
-7.5
11
277.0
21
202.5
12
0.0
22
0.0
32
0.0
14
25.7
24
19.5
34
0.0
15
231.3
25
175.5
35
0.0
146
0.0
13
0.0
23
0.0
33
0.0
16
1.0
26
0.0
36
0.0
17
0.0
27
1.0
37
0.0
76
0
330
1A
0
LAYOUT
5
2A3
330
2A9
100
AcDbPlotSettings
1

2
none_device
4
ISO_A4_(210.00_x_297.00_MM)
6

40
7.5
41
20.0
42
7.5
43
20.0
44
210.0
45
297.0
46
0.0
47
0.0
48
0.0
49
0.0
140
0.0
141
0.0
142
1.0
143
1.0
70
688
72
1
73
1
74
5
7

75
16
147
1.0
148
0.0
149
0.0
100
AcDbLayout
1
Layout1
70
1
71
1
10
-20.0
20
-7.5
11
277.0
21
202.5
12
0.0
22
0.0
32
0.0
14
25.7
24
19.5
34
0.0
15
231.3
25
175.5
35
0.0
146
0.0
13
0.0
23
0.0
33
0.0
16
1.0
26
0.0
36
0.0
17
0.0
27
1.0
37
0.0
76
0
330
29E
0
MLINESTYLE
5
19
330
2AD
100
AcDbMlineStyle
2
Standard
70
0
3

62
256
51
90.0
52
90.0
71
2
49
-0.5
62
256
6
ByLayer
49
0.5
62
256
6
ByLayer
0
ENDSEC
0
EOF
