999
Dxf file generated by netDxf https://netdxf.codeplex.com, Copyright(C) 2015 Daniel Carvajal, Licensed under LGPL
0
SECTION
2
HEADER
9
$ACADVER
1
AC1015
9
$DWGCODEPAGE
3
ANSI_1252
9
$HANDSEED
5
40B
9
$ANGBASE
50
0.0
9
$ANGDIR
70
0
9
$ATTMODE
70
1
9
$AUNITS
70
0
9
$AUPREC
70
0
9
$CECOLOR
62
256
9
$CELTSCALE
40
1.0
9
$CELTYPE
6
ByLayer
9
$CELWEIGHT
370
-1
9
$CLAYER
8
0
9
$CMLJUST
70
0
9
$CMLSCALE
40
20.0
9
$CMLSTYLE
2
Standard
9
$DIMSTYLE
2
Standard
9
$TEXTSIZE
40
2.5
9
$TEXTSTYLE
7
Standard
9
$LUNITS
70
2
9
$LUPREC
70
4
9
$EXTNAMES
290
1
9
$INSBASE
10
0.0
20
0.0
30
0.0
9
$INSUNITS
70
0
9
$LTSCALE
40
1.0
9
$LWDISPLAY
290
0
9
$PDMODE
70
0
9
$PDSIZE
40
0.0
9
$PLINEGEN
70
0
9
$PSLTSCALE
70
1
9
$TDCREATE
40
2461225.43454109
9
$TDUCREATE
40
2461225.55954109
9
$TDUPDATE
40
2461225.43454109
9
$TDUUPDATE
40
2461225.55954109
9
$TDINDWG
40
0.0
9
$DIMADEC
70
0
9
$DIMAUNIT
70
0
9
$DIMASZ
40
0.18
9
$DIMAZIN
70
0
9
$DIMBLK
1

9
$DIMBLK1
1

9
$DIMBLK2
1

9
$DIMLDRBLK
1

9
$DIMCEN
40
0.09
9
$DIMCLRD
70
0
9
$DIMCLRE
70
0
9
$DIMCLRT
70
0
9
$DIMDEC
70
2
9
$DIMDLE
40
0.0
9
$DIMDLI
40
0.38
9
$DIMDSEP
70
46
9
$DIMEXE
40
0.18
9
$DIMEXO
40
0.0625
9
$DIMGAP
40
0.09
9
$DIMJUST
70
0
9
$DIMLFAC
40
1.0
9
$DIMLUNIT
70
2
9
$DIMLWD
70
-2
9
$DIMLWE
70
-2
9
$DIMPOST
1
<>
9
$DIMRND
40
0.0
9
$DIMSAH
70
0
9
$DIMSCALE
40
1.0
9
$DIMSE1
70
0
9
$DIMSE2
70
0
9
$DIMTAD
70
1
9
$DIMTIH
70
0
9
$DIMTOH
70
0
9
$DIMTXT
40
0.18
9
$DIMZIN
70
0
9
$DIMFRAC
70
0
9
$DIMLTYPE
6
ByBlock
9
$DIMLTEX1
6
ByBlock
9
$DIMLTEX2
6
ByBlock
0
ENDSEC
0
SECTION
2
CLASSES
0
CLASS
1
RASTERVARIABLES
2
AcDbRasterVariables
3
ISM
90
0
280
0
281
0
0
ENDSEC
0
SECTION
2
TABLES
0
TABLE
2
APPID
5
4
330
0
100
AcDbSymbolTable
70
4
0
APPID
5
17
330
4
100
AcDbSymbolTableRecord
100
AcDbRegAppTableRecord
2
ACAD
70
0
0
APPID
5
400
330
4
100
AcDbSymbolTableRecord
100
AcDbRegAppTableRecord
2
AcCmTransparency
70
0
0
APPID
5
401
330
4
100
AcDbSymbolTableRecord
100
AcDbRegAppTableRecord
2
GradientColor1ACI
70
0
0
APPID
5
402
330
4
100
AcDbSymbolTableRecord
100
AcDbRegAppTableRecord
2
GradientColor2ACI
70
0
0
ENDTAB
0
TABLE
2
VPORT
5
1
330
0
100
AcDbSymbolTable
70
1
0
VPORT
5
2
330
1
100
AcDbSymbolTableRecord
100
AcDbViewportTableRecord
2
*Active
70
0
10
0.0
20
0.0
11
1.0
21
1.0
12
0.0
22
0.0
13
0.0
23
0.0
14
0.5
24
0.5
15
10.0
25
10.0
16
0.0
26
0.0
36
1.0
17
0.0
27
0.0
37
0.0
40
10.0
41
1.0
75
0
76
1
0
ENDTAB
0
TABLE
2
LTYPE
5
6
330
0
100
AcDbSymbolTable
70
3
0
LTYPE
5
13
330
6
100
AcDbSymbolTableRecord
100
AcDbLinetypeTableRecord
70
0
2
Continuous
3
Solid line
72
65
73
0
40
0.0
0
LTYPE
5
14
330
6
100
AcDbSymbolTableRecord
100
AcDbLinetypeTableRecord
70
0
2
ByLayer
3

72
65
73
0
40
0.0
0
LTYPE
5
15
330
6
100
AcDbSymbolTableRecord
100
AcDbLinetypeTableRecord
70
0
2
ByBlock
3

72
65
73
0
40
0.0
0
ENDTAB
0
TABLE
2
LAYER
5
5
330
0
100
AcDbSymbolTable
70
7
0
LAYER
5
12
330
5
100
AcDbSymbolTableRecord
100
AcDbLayerTableRecord
2
0
70
0
62
7
6
Continuous
290
1
370
-3
390
0
0
LAYER
5
21
330
5
100
AcDbSymbolTableRecord
100
AcDbLayerTableRecord
2
Hole
70
0
62
7
6
Continuous
290
1
370
-3
390
0
0
LAYER
5
23
330
5
100
AcDbSymbolTableRecord
100
AcDbLayerTableRecord
2
Theoretical Hole
70
0
62
7
6
Continuous
290
1
370
-3
390
0
0
LAYER
5
25
330
5
100
AcDbSymbolTableRecord
100
AcDbLayerTableRecord
2
Number
70
0
62
7
6
Continuous
290
1
370
-3
390
0
0
LAYER
5
27
330
5
100
AcDbSymbolTableRecord
100
AcDbLayerTableRecord
2
label
70
0
62
7
6
Continuous
290
1
370
-3
390
0
0
LAYER
5
29
330
5
100
AcDbSymbolTableRecord
100
AcDbLayerTableRecord
2
Length
70
0
62
7
6
Continuous
290
1
370
-3
390
0
0
LAYER
5
3C
330
5
100
AcDbSymbolTableRecord
100
AcDbLayerTableRecord
2
Real Hole
70
0
62
7
6
Continuous
290
1
370
-3
390
0
0
ENDTAB
0
TABLE
2
STYLE
5
7
330
0
100
AcDbSymbolTable
70
1
0
STYLE
5
16
330
7
100
AcDbSymbolTableRecord
100
AcDbTextStyleTableRecord
2
Standard
3
simplex.shx
70
0
71
0
40
0.0
41
1.0
42
0.0
50
0.0
0
ENDTAB
0
TABLE
2
DIMSTYLE
5
8
330
0
100
AcDbSymbolTable
70
1
100
AcDbDimStyleTable
0
DIMSTYLE
105
18
330
8
100
AcDbSymbolTableRecord
100
AcDbDimStyleTableRecord
2
Standard
70
0
3
<>
40
1.0
41
0.18
42
0.0625
43
0.38
44
0.18
45
0.0
46
0.0
73
0
74
0
75
0
76
0
77
1
78
0
79
0
140
0.18
141
0.09
144
1.0
147
0.09
173
0
176
0
177
0
178
0
179
0
271
2
275
0
276
0
277
2
278
46
280
0
340
16
345
15
346
15
347
15
371
-2
372
-2
0
ENDTAB
0
TABLE
2
VIEW
5
3
330
0
100
AcDbSymbolTable
70
0
0
ENDTAB
0
TABLE
2
UCS
5
A
330
0
100
AcDbSymbolTable
70
0
0
ENDTAB
0
TABLE
2
BLOCK_RECORD
5
B
330
0
100
AcDbSymbolTable
70
2
0
BLOCK_RECORD
5
1A
330
B
100
AcDbSymbolTableRecord
100
AcDbBlockTableRecord
2
*Model_Space
340
1E
0
BLOCK_RECORD
5
3FA
330
B
100
AcDbSymbolTableRecord
100
AcDbBlockTableRecord
2
*Paper_Space
340
3FF
0
ENDTAB
0
ENDSEC
0
SECTION
2
BLOCKS
0
BLOCK
5
1C
330
1A
100
AcDbEntity
8
0
100
AcDbBlockBegin
2
*Model_Space
70
0
10
0.0
20
0.0
30
0.0
3
*Model_Space
0
ENDBLK
5
1B
330
1A
100
AcDbEntity
8
0
100
AcDbBlockEnd
0
BLOCK
5
3FC
330
3FA
100
AcDbEntity
8
0
100
AcDbBlockBegin
2
*Paper_Space
70
0
10
0.0
20
0.0
30
0.0
3
*Paper_Space
0
ENDBLK
5
3FB
330
3FA
100
AcDbEntity
8
0
100
AcDbBlockEnd
0
ENDSEC
0
SECTION
2
ENTITIES
0
POINT
5
20
330
1A
100
AcDbEntity
67
0
8
Hole
62
244
420
659967
6
ByLayer
370
-1
48
1.0
60
0
100
AcDbPoint
10
748666.43
20
8930224.88999992
30
190.169999923706
39
0.0
210
0.0
220
0.0
230
1.0
50
360.0
0
LINE
5
22
330
1A
100
AcDbEntity
67
0
8
Theoretical Hole
62
244
420
659967
6
ByLayer
370
-1
48
1.0
60
0
100
AcDbLine
10
748666.43
20
8930224.88999992
30
190.169999923706
11
748666.555992239
21
8930222.1983667
31
180.021640505791
39
0.0
210
0.0
220
0.0
230
1.0
0
TEXT
5
24
330
1A
100
AcDbEntity
67
0
8
Number
62
244
420
659967
6
ByLayer
370
-1
48
1.0
60
0
100
AcDbText
1
1
10
748666.43
20
8930225.19599992
30
190.169999923706
40
0.3
41
1.0
50
0.0
51
0.0
7
Standard
11
748666.43
21
8930225.19599992
31
190.169999923706
210
0.0
220
0.0
230
1.0
72
0
100
AcDbText
73
0
0
TEXT
5
26
330
1A
100
AcDbEntity
67
0
8
label
62
1
420
16711680
6
ByLayer
370
-1
48
1.0
60
0
100
AcDbText
1

10
748666.43
20
8930225.59599992
30
190.169999923706
40
0.3
41
1.0
50
0.0
51
0.0
7
Standard
11
748666.43
21
8930225.59599992
31
190.169999923706
210
0.0
220
0.0
230
1.0
72
0
100
AcDbText
73
0
0
TEXT
5
28
330
1A
100
AcDbEntity
67
0
8
Length
62
244
420
659967
6
ByLayer
370
-1
48
1.0
60
0
100
AcDbText
1
10.50
10
748666.43
20
8930224.18599993
30
190.169999923706
40
0.3
41
1.0
50
0.0
51
0.0
7
Standard
11
748666.43
21
8930224.18599993
31
190.169999923706
210
0.0
220
0.0
230
1.0
72
0
100
AcDbText
73
0
0
POINT
5
2A
330
1A
100
AcDbEntity
67
0
8
Hole
62
244
420
659967
6
ByLayer
370
-1
48
1.0
60
0
100
AcDbPoint
10
748667.630000048
20
8930224.94999939
30
190.180000152588
39
0.0
210
0.0
220
0.0
230
1.0
50
360.0
0
LINE
5
2B
330
1A
100
AcDbEntity
67
0
8
Theoretical Hole
62
244
420
659967
6
ByLayer
370
-1
48
1.0
60
0
100
AcDbLine
10
748667.630000048
20
8930224.94999939
30
190.180000152588
11
748667.77316814
21
8930222.23631817
31
180.017036643028
39
0.0
210
0.0
220
0.0
230
1.0
0
TEXT
5
2C
330
1A
100
AcDbEntity
67
0
8
Number
62
244
420
659967
6
ByLayer
370
-1
48
1.0
60
0
100
AcDbText
1
2
10
748667.630000048
20
8930225.25599938
30
190.180000152588
40
0.3
41
1.0
50
0.0
51
0.0
7
Standard
11
748667.630000048
21
8930225.25599938
31
190.180000152588
210
0.0
220
0.0
230
1.0
72
0
100
AcDbText
73
0
0
TEXT
5
2D
330
1A
100
AcDbEntity
67
0
8
label
62
1
420
16711680
6
ByLayer
370
-1
48
1.0
60
0
100
AcDbText
1

10
748667.630000048
20
8930225.65599938
30
190.180000152588
40
0.3
41
1.0
50
0.0
51
0.0
7
Standard
11
748667.630000048
21
8930225.65599938
31
190.180000152588
210
0.0
220
0.0
230
1.0
72
0
100
AcDbText
73
0
0
TEXT
5
2E
330
1A
100
AcDbEntity
67
0
8
Length
62
244
420
659967
6
ByLayer
370
-1
48
1.0
60
0
100
AcDbText
1
10.52
10
748667.630000048
20
8930224.24599939
30
190.180000152588
40
0.3
41
1.0
50
0.0
51
0.0
7
Standard
11
748667.630000048
21
8930224.24599939
31
190.180000152588
210
0.0
220
0.0
230
1.0
72
0
100
AcDbText
73
0
0
POLYLINE
5
3B
330
1A
100
AcDbEntity
67
0
8
Real Hole
62
1
420
16711680
6
ByLayer
370
-1
48
1.0
60
0
100
AcDb3dPolyline
10
0.0
20
0.0
30
0.0
70
8
75
0
210
0.0
220
0.0
230
1.0
0
VERTEX
5
2F
100
AcDbEntity
8
Real Hole
62
1
420
16711680
100
AcDbVertex
100
AcDb3dPolylineVertex
10
748667.630000048
20
8930224.94999939
30
190.180000152588
70
32
0
VERTEX
5
30
100
AcDbEntity
8
Real Hole
62
1
420
16711680
100
AcDbVertex
100
AcDb3dPolylineVertex
10
748667.66784015
20
8930224.64749259
30
189.227604355812
70
32
0
VERTEX
5
31
100
AcDbEntity
8
Real Hole
62
1
420
16711680
100
AcDbVertex
100
AcDb3dPolylineVertex
10
748667.681888875
20
8930224.35713005
30
188.270790781975
70
32
0
VERTEX
5
32
100
AcDbEntity
8
Real Hole
62
1
420
16711680
100
AcDbVertex
100
AcDb3dPolylineVertex
10
748667.705188357
20
8930224.06434899
30
187.314895238876
70
32
0
VERTEX
5
33
100
AcDbEntity
8
Real Hole
62
1
420
16711680
100
AcDbVertex
100
AcDb3dPolylineVertex
10
748667.736120552
20
8930223.77680915
30
186.357626047134
70
32
0
VERTEX
5
34
100
AcDbEntity
8
Real Hole
62
1
420
16711680
100
AcDbVertex
100
AcDb3dPolylineVertex
10
748667.737084568
20
8930223.4861086
30
185.400812473297
70
32
0
VERTEX
5
35
100
AcDbEntity
8
Real Hole
62
1
420
16711680
100
AcDbVertex
100
AcDb3dPolylineVertex
10
748667.764050089
20
8930223.20657188
30
184.441056098938
70
32
0
VERTEX
5
36
100
AcDbEntity
8
Real Hole
62
1
420
16711680
100
AcDbVertex
100
AcDb3dPolylineVertex
10
748667.755933188
20
8930222.91598302
30
183.484242763519
70
32
0
VERTEX
5
37
100
AcDbEntity
8
Real Hole
62
1
420
16711680
100
AcDbVertex
100
AcDb3dPolylineVertex
10
748667.757883989
20
8930222.64337402
30
182.522119846344
70
32
0
VERTEX
5
38
100
AcDbEntity
8
Real Hole
62
1
420
16711680
100
AcDbVertex
100
AcDb3dPolylineVertex
10
748667.758873441
20
8930222.34500104
30
181.567670669556
70
32
0
VERTEX
5
39
100
AcDbEntity
8
Real Hole
62
1
420
16711680
100
AcDbVertex
100
AcDb3dPolylineVertex
10
748667.762194299
20
8930222.22536427
30
181.185995903015
70
32
0
SEQEND
5
3A
100
AcDbEntity
8
Real Hole
0
POINT
5
3D
330
1A
100
AcDbEntity
67
0
8
Hole
62
244
420
659967
6
ByLayer
370
-1
48
1.0
60
0
100
AcDbPoint
10
748668.830000095
20
8930225.01000076
30
190.169999923706
39
0.0
210
0.0
220
0.0
230
1.0
50
360.0
0
LINE
5
3E
330
1A
100
AcDbEntity
67
0
8
Theoretical Hole
62
244
420
659967
6
ByLayer
370
-1
48
1.0
60
0
100
AcDbLine
10
748668.830000095
20
8930225.01000076
30
190.169999923706
11
748668.97677105
21
8930222.27342659
31
180.013227548599
39
0.0
210
0.0
220
0.0
230
1.0
0
TEXT
5
3F
330
1A
100
AcDbEntity
67
0
8
Number
62
244
420
659967
6
ByLayer
370
-1
48
1.0
60
0
100
AcDbText
1
3
10
748668.830000095
20
8930225.31600076
30
190.169999923706
40
0.3
41
1.0
50
0.0
51
0.0
7
Standard
11
748668.830000095
21
8930225.31600076
31
190.169999923706
210
0.0
220
0.0
230
1.0
72
0
100
AcDbText
73
0
0
TEXT
5
40
330
1A
100
AcDbEntity
67
0
8
label
62
1
420
16711680
6
ByLayer
370
-1
48
1.0
60
0
100
AcDbText
1

10
748668.830000095
20
8930225.71600076
30
190.169999923706
40
0.3
41
1.0
50
0.0
51
0.0
7
Standard
11
748668.830000095
21
8930225.71600076
31
190.169999923706
210
0.0
220
0.0
230
1.0
72
0
100
AcDbText
73
0
0
TEXT
5
41
330
1A
100
AcDbEntity
67
0
8
Length
62
244
420
659967
6
ByLayer
370
-1
48
1.0
60
0
100
AcDbText
1
10.52
10
748668.830000095
20
8930224.30600077
30
190.169999923706
40
0.3
41
1.0
50
0.0
51
0.0
7
Standard
11
748668.830000095
21
8930224.30600077
31
190.169999923706
210
0.0
220
0.0
230
1.0
72
0
100
AcDbText
73
0
0
POLYLINE
5
4E
330
1A
100
AcDbEntity
67
0
8
Real Hole
62
1
420
16711680
6
ByLayer
370
-1
48
1.0
60
0
100
AcDb3dPolyline
10
0.0
20
0.0
30
0.0
70
8
75
0
210
0.0
220
0.0
230
1.0
0
VERTEX
5
42
100
AcDbEntity
8
Real Hole
62
1
420
16711680
100
AcDbVertex
100
AcDb3dPolylineVertex
10
748668.830000095
20
8930225.01000076
30
190.169999923706
70
32
0
VERTEX
5
43
100
AcDbEntity
8
Real Hole
62
1
420
16711680
100
AcDbVertex
100
AcDb3dPolylineVertex
10
748668.863283929
20
8930224.70161301
30
189.219321634769
70
32
0
VERTEX
5
44
100
AcDbEntity
8
Real Hole
62
1
420
16711680
100
AcDbVertex
100
AcDb3dPolylineVertex
10
748668.89491766
20
8930224.41230112
30
188.262609567642
70
32
0
VERTEX
5
45
100
AcDbEntity
8
Real Hole
62
1
420
16711680
100
AcDbVertex
100
AcDb3dPolylineVertex
10
748668.933724426
20
8930224.07116949
30
187.323395338058
70
32
0
VERTEX
5
46
100
AcDbEntity
8
Real Hole
62
1
420
16711680
100
AcDbVertex
100
AcDb3dPolylineVertex
10
748668.965916373
20
8930223.76333326
30
186.372500982285
70
32
0
VERTEX
5
47
100
AcDbEntity
8
Real Hole
62
1
420
16711680
100
AcDbVertex
100
AcDb3dPolylineVertex
10
748668.973198437
20
8930223.46105105
30
185.419310417175
70
32
0
VERTEX
5
48
100
AcDbEntity
8
Real Hole
62
1
420
16711680
100
AcDbVertex
100
AcDb3dPolylineVertex
10
748669.000425719
20
8930223.16643172
30
184.464083518982
70
32
0
VERTEX
5
49
100
AcDbEntity
8
Real Hole
62
1
420
16711680
100
AcDbVertex
100
AcDb3dPolylineVertex
10
748669.001250752
20
8930222.85128051
30
183.515042152405
70
32
0
VERTEX
5
4A
100
AcDbEntity
8
Real Hole
62
1
420
16711680
100
AcDbVertex
100
AcDb3dPolylineVertex
10
748669.021543421
20
8930222.54575997
30
182.563073005676
70
32
0
VERTEX
5
4B
100
AcDbEntity
8
Real Hole
62
1
420
16711680
100
AcDbVertex
100
AcDb3dPolylineVertex
10
748669.034705721
20
8930222.21946722
30
181.617895927429
70
32
0
VERTEX
5
4C
100
AcDbEntity
8
Real Hole
62
1
420
16711680
100
AcDbVertex
100
AcDb3dPolylineVertex
10
748669.055865251
20
8930221.9106763
30
180.667001571655
70
32
0
SEQEND
5
4D
100
AcDbEntity
8
Real Hole
0
POINT
5
4F
330
1A
100
AcDbEntity
67
0
8
Hole
62
244
420
659967
6
ByLayer
370
-1
48
1.0
60
0
100
AcDbPoint
10
748670.029999905
20
8930225.08000046
30
190.159999694824
39
0.0
210
0.0
220
0.0
230
1.0
50
360.0
0
LINE
5
50
330
1A
100
AcDbEntity
67
0
8
Theoretical Hole
62
244
420
659967
6
ByLayer
370
-1
48
1.0
60
0
100
AcDbLine
10
748670.029999905
20
8930225.08000046
30
190.159999694824
11
748670.178004675
21
8930222.3204208
31
180.00947042942
39
0.0
210
0.0
220
0.0
230
1.0
0
TEXT
5
51
330
1A
100
AcDbEntity
67
0
8
Number
62
244
420
659967
6
ByLayer
370
-1
48
1.0
60
0
100
AcDbText
1
4
10
748670.029999905
20
8930225.38600045
30
190.159999694824
40
0.3
41
1.0
50
0.0
51
0.0
7
Standard
11
748670.029999905
21
8930225.38600045
31
190.159999694824
210
0.0
220
0.0
230
1.0
72
0
100
AcDbText
73
0
0
TEXT
5
52
330
1A
100
AcDbEntity
67
0
8
label
62
1
420
16711680
6
ByLayer
370
-1
48
1.0
60
0
100
AcDbText
1

10
748670.029999905
20
8930225.78600045
30
190.159999694824
40
0.3
41
1.0
50
0.0
51
0.0
7
Standard
11
748670.029999905
21
8930225.78600045
31
190.159999694824
210
0.0
220
0.0
230
1.0
72
0
100
AcDbText
73
0
0
TEXT
5
53
330
1A
100
AcDbEntity
67
0
8
Length
62
244
420
659967
6
ByLayer
370
-1
48
1.0
60
0
100
AcDbText
1
10.52
10
748670.029999905
20
8930224.37600046
30
190.159999694824
40
0.3
41
1.0
50
0.0
51
0.0
7
Standard
11
748670.029999905
21
8930224.37600046
31
190.159999694824
210
0.0
220
0.0
230
1.0
72
0
100
AcDbText
73
0
0
POLYLINE
5
61
330
1A
100
AcDbEntity
67
0
8
Real Hole
62
1
420
16711680
6
ByLayer
370
-1
48
1.0
60
0
100
AcDb3dPolyline
10
0.0
20
0.0
30
0.0
70
8
75
0
210
0.0
220
0.0
230
1.0
0
VERTEX
5
54
100
AcDbEntity
8
Real Hole
62
1
420
16711680
100
AcDbVertex
100
AcDb3dPolylineVertex
10
748670.029999905
20
8930225.08000046
30
190.159999694824
70
32
0
VERTEX
5
55
100
AcDbEntity
8
Real Hole
62
1
420
16711680
100
AcDbVertex
100
AcDb3dPolylineVertex
10
748669.996483121
20
8930224.82438108
30
189.19380333662
70
32
0
VERTEX
5
56
100
AcDbEntity
8
Real Hole
62
1
420
16711680
100
AcDbVertex
100
AcDb3dPolylineVertex
10
748669.968470198
20
8930224.58153009
30
188.224144306183
70
32
0
VERTEX
5
57
100
AcDbEntity
8
Real Hole
62
1
420
16711680
100
AcDbVertex
100
AcDb3dPolylineVertex
10
748669.955980011
20
8930224.29996788
30
187.264682617188
70
32
0
VERTEX
5
58
100
AcDbEntity
8
Real Hole
62
1
420
16711680
100
AcDbVertex
100
AcDb3dPolylineVertex
10
748669.907235459
20
8930224.02492755
30
186.30448636055
70
32
0
VERTEX
5
59
100
AcDbEntity
8
Real Hole
62
1
420
16711680
100
AcDbVertex
100
AcDb3dPolylineVertex
10
748669.881094702
20
8930223.75880188
30
185.34090265274
70
32
0
VERTEX
5
5A
100
AcDbEntity
8
Real Hole
62
1
420
16711680
100
AcDbVertex
100
AcDb3dPolylineVertex
10
748669.854407616
20
8930223.47436267
30
184.382580127716
70
32
0
VERTEX
5
5B
100
AcDbEntity
8
Real Hole
62
1
420
16711680
100
AcDbVertex
100
AcDb3dPolylineVertex
10
748669.81633731
20
8930223.19426173
30
183.423364486694
70
32
0
VERTEX
5
5C
100
AcDbEntity
8
Real Hole
62
1
420
16711680
100
AcDbVertex
100
AcDb3dPolylineVertex
10
748669.782763444
20
8930222.92812377
30
182.460014667511
70
32
0
VERTEX
5
5D
100
AcDbEntity
8
Real Hole
62
1
420
16711680
100
AcDbVertex
100
AcDb3dPolylineVertex
10
748669.753477209
20
8930222.64326793
30
181.501891937256
70
32
0
VERTEX
5
5E
100
AcDbEntity
8
Real Hole
62
1
420
16711680
100
AcDbVertex
100
AcDb3dPolylineVertex
10
748669.72930222
20
8930222.36583096
30
180.541452255249
70
32
0
VERTEX
5
5F
100
AcDbEntity
8
Real Hole
62
1
420
16711680
100
AcDbVertex
100
AcDb3dPolylineVertex
10
748669.70759555
20
8930222.21444851
30
180.065414276123
70
32
0
SEQEND
5
60
100
AcDbEntity
8
Real Hole
0
POINT
5
62
330
1A
100
AcDbEntity
67
0
8
Hole
62
244
420
659967
6
ByLayer
370
-1
48
1.0
60
0
100
AcDbPoint
10
748671.230000191
20
8930225.13999992
30
190.150000419617
39
0.0
210
0.0
220
0.0
230
1.0
50
360.0
0
LINE
5
63
330
1A
100
AcDbEntity
67
0
8
Theoretical Hole
62
244
420
659967
6
ByLayer
370
-1
48
1.0
60
0
100
AcDbLine
10
748671.230000191
20
8930225.13999992
30
190.150000419617
11
748671.379001312
21
8930222.36184078
31
180.014925804138
39
0.0
210
0.0
220
0.0
230
1.0
0
TEXT
5
64
330
1A
100
AcDbEntity
67
0
8
Number
62
244
420
659967
6
ByLayer
370
-1
48
1.0
60
0
100
AcDbText
1
5
10
748671.230000191
20
8930225.44599992
30
190.150000419617
40
0.3
41
1.0
50
0.0
51
0.0
7
Standard
11
748671.230000191
21
8930225.44599992
31
190.150000419617
210
0.0
220
0.0
230
1.0
72
0
100
AcDbText
73
0
0
TEXT
5
65
330
1A
100
AcDbEntity
67
0
8
label
62
1
420
16711680
6
ByLayer
370
-1
48
1.0
60
0
100
AcDbText
1

10
748671.230000191
20
8930225.84599992
30
190.150000419617
40
0.3
41
1.0
50
0.0
51
0.0
7
Standard
11
748671.230000191
21
8930225.84599992
31
190.150000419617
210
0.0
220
0.0
230
1.0
72
0
100
AcDbText
73
0
0
TEXT
5
66
330
1A
100
AcDbEntity
67
0
8
Length
62
244
420
659967
6
ByLayer
370
-1
48
1.0
60
0
100
AcDbText
1
10.51
10
748671.230000191
20
8930224.43599993
30
190.150000419617
40
0.3
41
1.0
50
0.0
51
0.0
7
Standard
11
748671.230000191
21
8930224.43599993
31
190.150000419617
210
0.0
220
0.0
230
1.0
72
0
100
AcDbText
73
0
0
POLYLINE
5
74
330
1A
100
AcDbEntity
67
0
8
Real Hole
62
1
420
16711680
6
ByLayer
370
-1
48
1.0
60
0
100
AcDb3dPolyline
10
0.0
20
0.0
30
0.0
70
8
75
0
210
0.0
220
0.0
230
1.0
0
VERTEX
5
67
100
AcDbEntity
8
Real Hole
62
1
420
16711680
100
AcDbVertex
100
AcDb3dPolylineVertex
10
748671.230000191
20
8930225.13999992
30
190.150000419617
70
32
0
VERTEX
5
68
100
AcDbEntity
8
Real Hole
62
1
420
16711680
100
AcDbVertex
100
AcDb3dPolylineVertex
10
748671.212486375
20
8930224.85200146
30
189.192529704571
70
32
0
VERTEX
5
69
100
AcDbEntity
8
Real Hole
62
1
420
16711680
100
AcDbVertex
100
AcDb3dPolylineVertex
10
748671.203453336
20
8930224.57970303
30
188.230359282494
70
32
0
VERTEX
5
6A
100
AcDbEntity
8
Real Hole
62
1
420
16711680
100
AcDbVertex
100
AcDb3dPolylineVertex
10
748671.201178531
20
8930224.30239773
30
187.269580211639
70
32
0
VERTEX
5
6B
100
AcDbEntity
8
Real Hole
62
1
420
16711680
100
AcDbVertex
100
AcDb3dPolylineVertex
10
748671.208244276
20
8930224.02517313
30
186.308801021576
70
32
0
VERTEX
5
6C
100
AcDbEntity
8
Real Hole
62
1
420
16711680
100
AcDbVertex
100
AcDb3dPolylineVertex
10
748671.188197967
20
8930223.75413698
30
185.346440639496
70
32
0
VERTEX
5
6D
100
AcDbEntity
8
Real Hole
62
1
420
16711680
100
AcDbVertex
100
AcDb3dPolylineVertex
10
748671.174744163
20
8930223.45439893
30
184.392514076233
70
32
0
VERTEX
5
6E
100
AcDbEntity
8
Real Hole
62
1
420
16711680
100
AcDbVertex
100
AcDb3dPolylineVertex
10
748671.191321899
20
8930223.19594234
30
183.426633205414
70
32
0
VERTEX
5
6F
100
AcDbEntity
8
Real Hole
62
1
420
16711680
100
AcDbVertex
100
AcDb3dPolylineVertex
10
748671.186888349
20
8930222.92857247
30
182.463049259186
70
32
0
VERTEX
5
70
100
AcDbEntity
8
Real Hole
62
1
420
16711680
100
AcDbVertex
100
AcDb3dPolylineVertex
10
748671.166941174
20
8930222.65887672
30
181.500310745239
70
32
0
VERTEX
5
71
100
AcDbEntity
8
Real Hole
62
1
420
16711680
100
AcDbVertex
100
AcDb3dPolylineVertex
10
748671.136596173
20
8930222.37161046
30
180.542940940857
70
32
0
VERTEX
5
72
100
AcDbEntity
8
Real Hole
62
1
420
16711680
100
AcDbVertex
100
AcDb3dPolylineVertex
10
748671.132913702
20
8930222.21535116
30
179.963657226563
70
32
0
SEQEND
5
73
100
AcDbEntity
8
Real Hole
0
POINT
5
75
330
1A
100
AcDbEntity
67
0
8
Hole
62
244
420
659967
6
ByLayer
370
-1
48
1.0
60
0
100
AcDbPoint
10
748672.419999771
20
8930225.19999939
30
190.09
39
0.0
210
0.0
220
0.0
230
1.0
50
360.0
0
LINE
5
76
330
1A
100
AcDbEntity
67
0
8
Theoretical Hole
62
244
420
659967
6
ByLayer
370
-1
48
1.0
60
0
100
AcDbLine
10
748672.419999771
20
8930225.19999939
30
190.09
11
748672.569705658
21
8930222.40869766
31
180.010425772667
39
0.0
210
0.0
220
0.0
230
1.0
0
TEXT
5
77
330
1A
100
AcDbEntity
67
0
8
Number
62
244
420
659967
6
ByLayer
370
-1
48
1.0
60
0
100
AcDbText
1
6
10
748672.419999771
20
8930225.50599938
30
190.09
40
0.3
41
1.0
50
0.0
51
0.0
7
Standard
11
748672.419999771
21
8930225.50599938
31
190.09
210
0.0
220
0.0
230
1.0
72
0
100
AcDbText
73
0
0
TEXT
5
78
330
1A
100
AcDbEntity
67
0
8
label
62
1
420
16711680
6
ByLayer
370
-1
48
1.0
60
0
100
AcDbText
1

10
748672.419999771
20
8930225.90599938
30
190.09
40
0.3
41
1.0
50
0.0
51
0.0
7
Standard
11
748672.419999771
21
8930225.90599938
31
190.09
210
0.0
220
0.0
230
1.0
72
0
100
AcDbText
73
0
0
TEXT
5
79
330
1A
100
AcDbEntity
67
0
8
Length
62
244
420
659967
6
ByLayer
370
-1
48
1.0
60
0
100
AcDbText
1
10.46
10
748672.419999771
20
8930224.49599939
30
190.09
40
0.3
41
1.0
50
0.0
51
0.0
7
Standard
11
748672.419999771
21
8930224.49599939
31
190.09
210
0.0
220
0.0
230
1.0
72
0
100
AcDbText
73
0
0
POLYLINE
5
87
330
1A
100
AcDbEntity
67
0
8
Real Hole
62
1
420
16711680
6
ByLayer
370
-1
48
1.0
60
0
100
AcDb3dPolyline
10
0.0
20
0.0
30
0.0
70
8
75
0
210
0.0
220
0.0
230
1.0
0
VERTEX
5
7A
100
AcDbEntity
8
Real Hole
62
1
420
16711680
100
AcDbVertex
100
AcDb3dPolylineVertex
10
748672.419999771
20
8930225.19999939
30
190.09
70
32
0
VERTEX
5
7B
100
AcDbEntity
8
Real Hole
62
1
420
16711680
100
AcDbVertex
100
AcDb3dPolylineVertex
10
748672.448215977
20
8930224.90480327
30
189.134980049133
70
32
0
VERTEX
5
7C
100
AcDbEntity
8
Real Hole
62
1
420
16711680
100
AcDbVertex
100
AcDb3dPolylineVertex
10
748672.472047974
20
8930224.62851453
30
188.17420085907
70
32
0
VERTEX
5
7D
100
AcDbEntity
8
Real Hole
62
1
420
16711680
100
AcDbVertex
100
AcDb3dPolylineVertex
10
748672.48994381
20
8930224.35547691
30
187.212364044189
70
32
0
VERTEX
5
7E
100
AcDbEntity
8
Real Hole
62
1
420
16711680
100
AcDbVertex
100
AcDb3dPolylineVertex
10
748672.482331839
20
8930224.06671244
30
186.254994001389
70
32
0
VERTEX
5
7F
100
AcDbEntity
8
Real Hole
62
1
420
16711680
100
AcDbVertex
100
AcDb3dPolylineVertex
10
748672.51357051
20
8930223.77584654
30
185.298740234375
70
32
0
VERTEX
5
80
100
AcDbEntity
8
Real Hole
62
1
420
16711680
100
AcDbVertex
100
AcDb3dPolylineVertex
10
748672.514551126
20
8930223.48014015
30
184.343461837769
70
32
0
VERTEX
5
81
100
AcDbEntity
8
Real Hole
62
1
420
16711680
100
AcDbVertex
100
AcDb3dPolylineVertex
10
748672.511389636
20
8930223.19262987
30
183.385689582825
70
32
0
VERTEX
5
82
100
AcDbEntity
8
Real Hole
62
1
420
16711680
100
AcDbVertex
100
AcDb3dPolylineVertex
10
748672.504719824
20
8930222.90317374
30
182.42852148056
70
32
0
VERTEX
5
83
100
AcDbEntity
8
Real Hole
62
1
420
16711680
100
AcDbVertex
100
AcDb3dPolylineVertex
10
748672.519277223
20
8930222.62540179
30
181.46798500061
70
32
0
VERTEX
5
84
100
AcDbEntity
8
Real Hole
62
1
420
16711680
100
AcDbVertex
100
AcDb3dPolylineVertex
10
748672.544537381
20
8930222.3536213
30
180.505957450867
70
32
0
VERTEX
5
85
100
AcDbEntity
8
Real Hole
62
1
420
16711680
100
AcDbVertex
100
AcDb3dPolylineVertex
10
748672.547584556
20
8930222.3250137
30
180.410184707642
70
32
0
SEQEND
5
86
100
AcDbEntity
8
Real Hole
0
POINT
5
88
330
1A
100
AcDbEntity
67
0
8
Hole
62
244
420
659967
6
ByLayer
370
-1
48
1.0
60
0
100
AcDbPoint
10
748673.620000057
20
8930225.26999909
30
190.039999809265
39
0.0
210
0.0
220
0.0
230
1.0
50
360.0
0
LINE
5
89
330
1A
100
AcDbEntity
67
0
8
Theoretical Hole
62
244
420
659967
6
ByLayer
370
-1
48
1.0
60
0
100
AcDbLine
10
748673.620000057
20
8930225.26999909
30
190.039999809265
11
748673.77002161
21
8930222.47281414
31
180.013966407776
39
0.0
210
0.0
220
0.0
230
1.0
0
TEXT
5
8A
330
1A
100
AcDbEntity
67
0
8
Number
62
244
420
659967
6
ByLayer
370
-1
48
1.0
60
0
100
AcDbText
1
7
10
748673.620000057
20
8930225.57599908
30
190.039999809265
40
0.3
41
1.0
50
0.0
51
0.0
7
Standard
11
748673.620000057
21
8930225.57599908
31
190.039999809265
210
0.0
220
0.0
230
1.0
72
0
100
AcDbText
73
0
0
TEXT
5
8B
330
1A
100
AcDbEntity
67
0
8
label
62
1
420
16711680
6
ByLayer
370
-1
48
1.0
60
0
100
AcDbText
1

10
748673.620000057
20
8930225.97599908
30
190.039999809265
40
0.3
41
1.0
50
0.0
51
0.0
7
Standard
11
748673.620000057
21
8930225.97599908
31
190.039999809265
210
0.0
220
0.0
230
1.0
72
0
100
AcDbText
73
0
0
TEXT
5
8C
330
1A
100
AcDbEntity
67
0
8
Length
62
244
420
659967
6
ByLayer
370
-1
48
1.0
60
0
100
AcDbText
1
10.41
10
748673.620000057
20
8930224.56599909
30
190.039999809265
40
0.3
41
1.0
50
0.0
51
0.0
7
Standard
11
748673.620000057
21
8930224.56599909
31
190.039999809265
210
0.0
220
0.0
230
1.0
72
0
100
AcDbText
73
0
0
POLYLINE
5
99
330
1A
100
AcDbEntity
67
0
8
Real Hole
62
1
420
16711680
6
ByLayer
370
-1
48
1.0
60
0
100
AcDb3dPolyline
10
0.0
20
0.0
30
0.0
70
8
75
0
210
0.0
220
0.0
230
1.0
0
VERTEX
5
8D
100
AcDbEntity
8
Real Hole
62
1
420
16711680
100
AcDbVertex
100
AcDb3dPolylineVertex
10
748673.620000057
20
8930225.26999909
30
190.039999809265
70
32
0
VERTEX
5
8E
100
AcDbEntity
8
Real Hole
62
1
420
16711680
100
AcDbVertex
100
AcDb3dPolylineVertex
10
748673.609112735
20
8930224.99289822
30
189.079220678806
70
32
0
VERTEX
5
8F
100
AcDbEntity
8
Real Hole
62
1
420
16711680
100
AcDbVertex
100
AcDb3dPolylineVertex
10
748673.590928384
20
8930224.73607105
30
188.112934436798
70
32
0
VERTEX
5
90
100
AcDbEntity
8
Real Hole
62
1
420
16711680
100
AcDbVertex
100
AcDb3dPolylineVertex
10
748673.547292322
20
8930224.46424949
30
187.151576604843
70
32
0
VERTEX
5
91
100
AcDbEntity
8
Real Hole
62
1
420
16711680
100
AcDbVertex
100
AcDb3dPolylineVertex
10
748673.535818071
20
8930224.18817943
30
186.190507497787
70
32
0
VERTEX
5
92
100
AcDbEntity
8
Real Hole
62
1
420
16711680
100
AcDbVertex
100
AcDb3dPolylineVertex
10
748673.486718007
20
8930223.91746205
30
185.22910150528
70
32
0
VERTEX
5
93
100
AcDbEntity
8
Real Hole
62
1
420
16711680
100
AcDbVertex
100
AcDb3dPolylineVertex
10
748673.438535132
20
8930223.63705426
30
184.27043088913
70
32
0
VERTEX
5
94
100
AcDbEntity
8
Real Hole
62
1
420
16711680
100
AcDbVertex
100
AcDb3dPolylineVertex
10
748673.375321962
20
8930223.36016291
30
183.311611022949
70
32
0
VERTEX
5
95
100
AcDbEntity
8
Real Hole
62
1
420
16711680
100
AcDbVertex
100
AcDb3dPolylineVertex
10
748673.329810255
20
8930223.08524877
30
182.351219978333
70
32
0
VERTEX
5
96
100
AcDbEntity
8
Real Hole
62
1
420
16711680
100
AcDbVertex
100
AcDb3dPolylineVertex
10
748673.277972274
20
8930222.79886633
30
181.394508209229
70
32
0
VERTEX
5
97
100
AcDbEntity
8
Real Hole
62
1
420
16711680
100
AcDbVertex
100
AcDb3dPolylineVertex
10
748673.237845444
20
8930222.53755122
30
180.430088844299
70
32
0
SEQEND
5
98
100
AcDbEntity
8
Real Hole
0
POINT
5
9A
330
1A
100
AcDbEntity
67
0
8
Hole
62
244
420
659967
6
ByLayer
370
-1
48
1.0
60
0
100
AcDbPoint
10
748674.820000343
20
8930225.33000046
30
190.010000076294
39
0.0
210
0.0
220
0.0
230
1.0
50
360.0
0
LINE
5
9B
330
1A
100
AcDbEntity
67
0
8
Theoretical Hole
62
244
420
659967
6
ByLayer
370
-1
48
1.0
60
0
100
AcDbLine
10
748674.820000343
20
8930225.33000046
30
190.010000076294
11
748674.970244103
21
8930222.52868229
31
180.016280140877
39
0.0
210
0.0
220
0.0
230
1.0
0
TEXT
5
9C
330
1A
100
AcDbEntity
67
0
8
Number
62
244
420
659967
6
ByLayer
370
-1
48
1.0
60
0
100
AcDbText
1
8
10
748674.820000343
20
8930225.63600045
30
190.010000076294
40
0.3
41
1.0
50
0.0
51
0.0
7
Standard
11
748674.820000343
21
8930225.63600045
31
190.010000076294
210
0.0
220
0.0
230
1.0
72
0
100
AcDbText
73
0
0
TEXT
5
9D
330
1A
100
AcDbEntity
67
0
8
label
62
1
420
16711680
6
ByLayer
370
-1
48
1.0
60
0
100
AcDbText
1

10
748674.820000343
20
8930226.03600045
30
190.010000076294
40
0.3
41
1.0
50
0.0
51
0.0
7
Standard
11
748674.820000343
21
8930226.03600045
31
190.010000076294
210
0.0
220
0.0
230
1.0
72
0
100
AcDbText
73
0
0
TEXT
5
9E
330
1A
100
AcDbEntity
67
0
8
Length
62
244
420
659967
6
ByLayer
370
-1
48
1.0
60
0
100
AcDbText
1
10.38
10
748674.820000343
20
8930224.62600046
30
190.010000076294
40
0.3
41
1.0
50
0.0
51
0.0
7
Standard
11
748674.820000343
21
8930224.62600046
31
190.010000076294
210
0.0
220
0.0
230
1.0
72
0
100
AcDbText
73
0
0
POLYLINE
5
AC
330
1A
100
AcDbEntity
67
0
8
Real Hole
62
1
420
16711680
6
ByLayer
370
-1
48
1.0
60
0
100
AcDb3dPolyline
10
0.0
20
0.0
30
0.0
70
8
75
0
210
0.0
220
0.0
230
1.0
0
VERTEX
5
9F
100
AcDbEntity
8
Real Hole
62
1
420
16711680
100
AcDbVertex
100
AcDb3dPolylineVertex
10
748674.820000343
20
8930225.33000046
30
190.010000076294
70
32
0
VERTEX
5
A0
100
AcDbEntity
8
Real Hole
62
1
420
16711680
100
AcDbVertex
100
AcDb3dPolylineVertex
10
748674.772849586
20
8930225.07157221
30
189.04512098074
70
32
0
VERTEX
5
A1
100
AcDbEntity
8
Real Hole
62
1
420
16711680
100
AcDbVertex
100
AcDb3dPolylineVertex
10
748674.724117637
20
8930224.81292337
30
188.080379571915
70
32
0
VERTEX
5
A2
100
AcDbEntity
8
Real Hole
62
1
420
16711680
100
AcDbVertex
100
AcDb3dPolylineVertex
10
748674.697097339
20
8930224.55925011
30
187.113467063904
70
32
0
VERTEX
5
A3
100
AcDbEntity
8
Real Hole
62
1
420
16711680
100
AcDbVertex
100
AcDb3dPolylineVertex
10
748674.674660184
20
8930224.32876152
30
186.140650835037
70
32
0
VERTEX
5
A4
100
AcDbEntity
8
Real Hole
62
1
420
16711680
100
AcDbVertex
100
AcDb3dPolylineVertex
10
748674.683223553
20
8930224.12358993
30
185.161962356567
70
32
0
VERTEX
5
A5
100
AcDbEntity
8
Real Hole
62
1
420
16711680
100
AcDbVertex
100
AcDb3dPolylineVertex
10
748674.662202679
20
8930223.86681014
30
184.195720996857
70
32
0
VERTEX
5
A6
100
AcDbEntity
8
Real Hole
62
1
420
16711680
100
AcDbVertex
100
AcDb3dPolylineVertex
10
748674.6282705
20
8930223.61584216
30
183.228320446014
70
32
0
VERTEX
5
A7
100
AcDbEntity
8
Real Hole
62
1
420
16711680
100
AcDbVertex
100
AcDb3dPolylineVertex
10
748674.599474423
20
8930223.36032694
30
182.261944141388
70
32
0
VERTEX
5
A8
100
AcDbEntity
8
Real Hole
62
1
420
16711680
100
AcDbVertex
100
AcDb3dPolylineVertex
10
748674.583665245
20
8930223.10621625
30
181.294898834229
70
32
0
VERTEX
5
A9
100
AcDbEntity
8
Real Hole
62
1
420
16711680
100
AcDbVertex
100
AcDb3dPolylineVertex
10
748674.558737629
20
8930222.82800442
30
180.334702339172
70
32
0
VERTEX
5
AA
100
AcDbEntity
8
Real Hole
62
1
420
16711680
100
AcDbVertex
100
AcDb3dPolylineVertex
10
748674.55540251
20
8930222.80052501
30
180.238610115051
70
32
0
SEQEND
5
AB
100
AcDbEntity
8
Real Hole
0
POINT
5
AD
330
1A
100
AcDbEntity
67
0
8
Hole
62
244
420
659967
6
ByLayer
370
-1
48
1.0
60
0
100
AcDbPoint
10
748676.020000153
20
8930225.40000015
30
189.98999961853
39
0.0
210
0.0
220
0.0
230
1.0
50
360.0
0
LINE
5
AE
330
1A
100
AcDbEntity
67
0
8
Theoretical Hole
62
244
420
659967
6
ByLayer
370
-1
48
1.0
60
0
100
AcDbLine
10
748676.020000153
20
8930225.40000015
30
189.98999961853
11
748676.17737072
21
8930222.60274368
31
180.016024198532
39
0.0
210
0.0
220
0.0
230
1.0
0
TEXT
5
AF
330
1A
100
AcDbEntity
67
0
8
Number
62
244
420
659967
6
ByLayer
370
-1
48
1.0
60
0
100
AcDbText
1
9
10
748676.020000153
20
8930225.70600015
30
189.98999961853
40
0.3
41
1.0
50
0.0
51
0.0
7
Standard
11
748676.020000153
21
8930225.70600015
31
189.98999961853
210
0.0
220
0.0
230
1.0
72
0
100
AcDbText
73
0
0
TEXT
5
B0
330
1A
100
AcDbEntity
67
0
8
label
62
1
420
16711680
6
ByLayer
370
-1
48
1.0
60
0
100
AcDbText
1

10
748676.020000153
20
8930226.10600015
30
189.98999961853
40
0.3
41
1.0
50
0.0
51
0.0
7
Standard
11
748676.020000153
21
8930226.10600015
31
189.98999961853
210
0.0
220
0.0
230
1.0
72
0
100
AcDbText
73
0
0
TEXT
5
B1
330
1A
100
AcDbEntity
67
0
8
Length
62
244
420
659967
6
ByLayer
370
-1
48
1.0
60
0
100
AcDbText
1
10.36
10
748676.020000153
20
8930224.69600016
30
189.98999961853
40
0.3
41
1.0
50
0.0
51
0.0
7
Standard
11
748676.020000153
21
8930224.69600016
31
189.98999961853
210
0.0
220
0.0
230
1.0
72
0
100
AcDbText
73
0
0
POLYLINE
5
BE
330
1A
100
AcDbEntity
67
0
8
Real Hole
62
1
420
16711680
6
ByLayer
370
-1
48
1.0
60
0
100
AcDb3dPolyline
10
0.0
20
0.0
30
0.0
70
8
75
0
210
0.0
220
0.0
230
1.0
0
VERTEX
5
B2
100
AcDbEntity
8
Real Hole
62
1
420
16711680
100
AcDbVertex
100
AcDb3dPolylineVertex
10
748676.020000153
20
8930225.40000015
30
189.98999961853
70
32
0
VERTEX
5
B3
100
AcDbEntity
8
Real Hole
62
1
420
16711680
100
AcDbVertex
100
AcDb3dPolylineVertex
10
748676.076377135
20
8930225.15344997
30
189.022510793209
70
32
0
VERTEX
5
B4
100
AcDbEntity
8
Real Hole
62
1
420
16711680
100
AcDbVertex
100
AcDb3dPolylineVertex
10
748676.13551765
20
8930224.91886821
30
188.052215065956
70
32
0
VERTEX
5
B5
100
AcDbEntity
8
Real Hole
62
1
420
16711680
100
AcDbVertex
100
AcDb3dPolylineVertex
10
748676.167167195
20
8930224.64944833
30
187.089712467194
70
32
0
VERTEX
5
B6
100
AcDbEntity
8
Real Hole
62
1
420
16711680
100
AcDbVertex
100
AcDb3dPolylineVertex
10
748676.189964705
20
8930224.39942974
30
186.12173995018
70
32
0
VERTEX
5
B7
100
AcDbEntity
8
Real Hole
62
1
420
16711680
100
AcDbVertex
100
AcDb3dPolylineVertex
10
748676.187523969
20
8930224.10189825
30
185.167031135559
70
32
0
VERTEX
5
B8
100
AcDbEntity
8
Real Hole
62
1
420
16711680
100
AcDbVertex
100
AcDb3dPolylineVertex
10
748676.180549272
20
8930223.8059389
30
184.211855735779
70
32
0
VERTEX
5
B9
100
AcDbEntity
8
Real Hole
62
1
420
16711680
100
AcDbVertex
100
AcDb3dPolylineVertex
10
748676.18225243
20
8930223.51023584
30
183.256577339172
70
32
0
VERTEX
5
BA
100
AcDbEntity
8
Real Hole
62
1
420
16711680
100
AcDbVertex
100
AcDb3dPolylineVertex
10
748676.176420771
20
8930223.21458512
30
182.301298942566
70
32
0
VERTEX
5
BB
100
AcDbEntity
8
Real Hole
62
1
420
16711680
100
AcDbVertex
100
AcDb3dPolylineVertex
10
748676.164622032
20
8930222.90745526
30
181.349704589844
70
32
0
VERTEX
5
BC
100
AcDbEntity
8
Real Hole
62
1
420
16711680
100
AcDbVertex
100
AcDb3dPolylineVertex
10
748676.16652494
20
8930222.59595519
30
180.399460639954
70
32
0
SEQEND
5
BD
100
AcDbEntity
8
Real Hole
0
POINT
5
BF
330
1A
100
AcDbEntity
67
0
8
Hole
62
244
420
659967
6
ByLayer
370
-1
48
1.0
60
0
100
AcDbPoint
10
748677.219999962
20
8930225.45999962
30
189.98999961853
39
0.0
210
0.0
220
0.0
230
1.0
50
360.0
0
LINE
5
C0
330
1A
100
AcDbEntity
67
0
8
Theoretical Hole
62
244
420
659967
6
ByLayer
370
-1
48
1.0
60
0
100
AcDbLine
10
748677.219999962
20
8930225.45999962
30
189.98999961853
11
748677.407533341
21
8930222.67332798
31
180.013583269119
39
0.0
210
0.0
220
0.0
230
1.0
0
TEXT
5
C1
330
1A
100
AcDbEntity
67
0
8
Number
62
244
420
659967
6
ByLayer
370
-1
48
1.0
60
0
100
AcDbText
1
10
10
748677.219999962
20
8930225.76599961
30
189.98999961853
40
0.3
41
1.0
50
0.0
51
0.0
7
Standard
11
748677.219999962
21
8930225.76599961
31
189.98999961853
210
0.0
220
0.0
230
1.0
72
0
100
AcDbText
73
0
0
TEXT
5
C2
330
1A
100
AcDbEntity
67
0
8
label
62
1
420
16711680
6
ByLayer
370
-1
48
1.0
60
0
100
AcDbText
1

10
748677.219999962
20
8930226.16599961
30
189.98999961853
40
0.3
41
1.0
50
0.0
51
0.0
7
Standard
11
748677.219999962
21
8930226.16599961
31
189.98999961853
210
0.0
220
0.0
230
1.0
72
0
100
AcDbText
73
0
0
TEXT
5
C3
330
1A
100
AcDbEntity
67
0
8
Length
62
244
420
659967
6
ByLayer
370
-1
48
1.0
60
0
100
AcDbText
1
10.36
10
748677.219999962
20
8930224.75599962
30
189.98999961853
40
0.3
41
1.0
50
0.0
51
0.0
7
Standard
11
748677.219999962
21
8930224.75599962
31
189.98999961853
210
0.0
220
0.0
230
1.0
72
0
100
AcDbText
73
0
0
POLYLINE
5
D1
330
1A
100
AcDbEntity
67
0
8
Real Hole
62
1
420
16711680
6
ByLayer
370
-1
48
1.0
60
0
100
AcDb3dPolyline
10
0.0
20
0.0
30
0.0
70
8
75
0
210
0.0
220
0.0
230
1.0
0
VERTEX
5
C4
100
AcDbEntity
8
Real Hole
62
1
420
16711680
100
AcDbVertex
100
AcDb3dPolylineVertex
10
748677.219999962
20
8930225.45999962
30
189.98999961853
70
32
0
VERTEX
5
C5
100
AcDbEntity
8
Real Hole
62
1
420
16711680
100
AcDbVertex
100
AcDb3dPolylineVertex
10
748677.246608155
20
8930225.21426786
30
189.021026995182
70
32
0
VERTEX
5
C6
100
AcDbEntity
8
Real Hole
62
1
420
16711680
100
AcDbVertex
100
AcDb3dPolylineVertex
10
748677.265086688
20
8930224.98308751
30
188.048291649818
70
32
0
VERTEX
5
C7
100
AcDbEntity
8
Real Hole
62
1
420
16711680
100
AcDbVertex
100
AcDb3dPolylineVertex
10
748677.253692061
20
8930224.72418195
30
187.082456197739
70
32
0
VERTEX
5
C8
100
AcDbEntity
8
Real Hole
62
1
420
16711680
100
AcDbVertex
100
AcDb3dPolylineVertex
10
748677.257102233
20
8930224.47686821
30
186.113526668549
70
32
0
VERTEX
5
C9
100
AcDbEntity
8
Real Hole
62
1
420
16711680
100
AcDbVertex
100
AcDb3dPolylineVertex
10
748677.281693194
20
8930224.23602909
30
185.143273200989
70
32
0
VERTEX
5
CA
100
AcDbEntity
8
Real Hole
62
1
420
16711680
100
AcDbVertex
100
AcDb3dPolylineVertex
10
748677.28164734
20
8930223.97316629
30
184.178439941406
70
32
0
VERTEX
5
CB
100
AcDbEntity
8
Real Hole
62
1
420
16711680
100
AcDbVertex
100
AcDb3dPolylineVertex
10
748677.278089602
20
8930223.69771975
30
183.217130031586
70
32
0
VERTEX
5
CC
100
AcDbEntity
8
Real Hole
62
1
420
16711680
100
AcDbVertex
100
AcDb3dPolylineVertex
10
748677.293588348
20
8930223.44358998
30
182.250084247589
70
32
0
VERTEX
5
CD
100
AcDbEntity
8
Real Hole
62
1
420
16711680
100
AcDbVertex
100
AcDb3dPolylineVertex
10
748677.310874425
20
8930223.18264657
30
181.284885253906
70
32
0
VERTEX
5
CE
100
AcDbEntity
8
Real Hole
62
1
420
16711680
100
AcDbVertex
100
AcDb3dPolylineVertex
10
748677.336810425
20
8930222.91717654
30
180.321114387512
70
32
0
VERTEX
5
CF
100
AcDbEntity
8
Real Hole
62
1
420
16711680
100
AcDbVertex
100
AcDb3dPolylineVertex
10
748677.347522728
20
8930222.81244331
30
179.935218658447
70
32
0
SEQEND
5
D0
100
AcDbEntity
8
Real Hole
0
POINT
5
D2
330
1A
100
AcDbEntity
67
0
8
Hole
62
244
420
659967
6
ByLayer
370
-1
48
1.0
60
0
100
AcDbPoint
10
748678.419999771
20
8930225.53999954
30
189.98999961853
39
0.0
210
0.0
220
0.0
230
1.0
50
360.0
0
LINE
5
D3
330
1A
100
AcDbEntity
67
0
8
Theoretical Hole
62
244
420
659967
6
ByLayer
370
-1
48
1.0
60
0
100
AcDbLine
10
748678.419999771
20
8930225.53999954
30
189.98999961853
11
748678.61713665
21
8930222.75573593
31
180.013096060753
39
0.0
210
0.0
220
0.0
230
1.0
0
TEXT
5
D4
330
1A
100
AcDbEntity
67
0
8
Number
62
244
420
659967
6
ByLayer
370
-1
48
1.0
60
0
100
AcDbText
1
11
10
748678.419999771
20
8930225.84599954
30
189.98999961853
40
0.3
41
1.0
50
0.0
51
0.0
7
Standard
11
748678.419999771
21
8930225.84599954
31
189.98999961853
210
0.0
220
0.0
230
1.0
72
0
100
AcDbText
73
0
0
TEXT
5
D5
330
1A
100
AcDbEntity
67
0
8
label
62
1
420
16711680
6
ByLayer
370
-1
48
1.0
60
0
100
AcDbText
1

10
748678.419999771
20
8930226.24599954
30
189.98999961853
40
0.3
41
1.0
50
0.0
51
0.0
7
Standard
11
748678.419999771
21
8930226.24599954
31
189.98999961853
210
0.0
220
0.0
230
1.0
72
0
100
AcDbText
73
0
0
TEXT
5
D6
330
1A
100
AcDbEntity
67
0
8
Length
62
244
420
659967
6
ByLayer
370
-1
48
1.0
60
0
100
AcDbText
1
10.36
10
748678.419999771
20
8930224.83599955
30
189.98999961853
40
0.3
41
1.0
50
0.0
51
0.0
7
Standard
11
748678.419999771
21
8930224.83599955
31
189.98999961853
210
0.0
220
0.0
230
1.0
72
0
100
AcDbText
73
0
0
POLYLINE
5
E4
330
1A
100
AcDbEntity
67
0
8
Real Hole
62
1
420
16711680
6
ByLayer
370
-1
48
1.0
60
0
100
AcDb3dPolyline
10
0.0
20
0.0
30
0.0
70
8
75
0
210
0.0
220
0.0
230
1.0
0
VERTEX
5
D7
100
AcDbEntity
8
Real Hole
62
1
420
16711680
100
AcDbVertex
100
AcDb3dPolylineVertex
10
748678.419999771
20
8930225.53999954
30
189.98999961853
70
32
0
VERTEX
5
D8
100
AcDbEntity
8
Real Hole
62
1
420
16711680
100
AcDbVertex
100
AcDb3dPolylineVertex
10
748678.434374655
20
8930225.31278267
30
189.016261544228
70
32
0
VERTEX
5
D9
100
AcDbEntity
8
Real Hole
62
1
420
16711680
100
AcDbVertex
100
AcDb3dPolylineVertex
10
748678.437488085
20
8930225.07494762
30
188.044960942268
70
32
0
VERTEX
5
DA
100
AcDbEntity
8
Real Hole
62
1
420
16711680
100
AcDbVertex
100
AcDb3dPolylineVertex
10
748678.451474943
20
8930224.84294188
30
187.072347011566
70
32
0
VERTEX
5
DB
100
AcDbEntity
8
Real Hole
62
1
420
16711680
100
AcDbVertex
100
AcDb3dPolylineVertex
10
748678.473637656
20
8930224.6177184
30
186.098292198181
70
32
0
VERTEX
5
DC
100
AcDbEntity
8
Real Hole
62
1
420
16711680
100
AcDbVertex
100
AcDb3dPolylineVertex
10
748678.511789181
20
8930224.38294262
30
185.126991596222
70
32
0
VERTEX
5
DD
100
AcDbEntity
8
Real Hole
62
1
420
16711680
100
AcDbVertex
100
AcDb3dPolylineVertex
10
748678.526579529
20
8930224.15728551
30
184.152897205353
70
32
0
VERTEX
5
DE
100
AcDbEntity
8
Real Hole
62
1
420
16711680
100
AcDbVertex
100
AcDb3dPolylineVertex
10
748678.562667989
20
8930223.94232088
30
183.176942195892
70
32
0
VERTEX
5
DF
100
AcDbEntity
8
Real Hole
62
1
420
16711680
100
AcDbVertex
100
AcDb3dPolylineVertex
10
748678.595297657
20
8930223.71305305
30
182.204125728607
70
32
0
VERTEX
5
E0
100
AcDbEntity
8
Real Hole
62
1
420
16711680
100
AcDbVertex
100
AcDb3dPolylineVertex
10
748678.590347402
20
8930223.48798638
30
181.229795303345
70
32
0
VERTEX
5
E1
100
AcDbEntity
8
Real Hole
62
1
420
16711680
100
AcDbVertex
100
AcDb3dPolylineVertex
10
748678.586723961
20
8930223.24659973
30
180.259372558594
70
32
0
VERTEX
5
E2
100
AcDbEntity
8
Real Hole
62
1
420
16711680
100
AcDbVertex
100
AcDb3dPolylineVertex
10
748678.584448256
20
8930223.19667703
30
180.065717544556
70
32
0
SEQEND
5
E3
100
AcDbEntity
8
Real Hole
0
POINT
5
E5
330
1A
100
AcDbEntity
67
0
8
Hole
62
244
420
659967
6
ByLayer
370
-1
48
1.0
60
0
100
AcDbPoint
10
748679.610000305
20
8930225.6299997
30
189.959999885559
39
0.0
210
0.0
220
0.0
230
1.0
50
360.0
0
LINE
5
E6
330
1A
100
AcDbEntity
67
0
8
Theoretical Hole
62
244
420
659967
6
ByLayer
370
-1
48
1.0
60
0
100
AcDbLine
10
748679.610000305
20
8930225.6299997
30
189.959999885559
11
748679.850147896
21
8930222.85722881
31
180.011986699104
39
0.0
210
0.0
220
0.0
230
1.0
0
TEXT
5
E7
330
1A
100
AcDbEntity
67
0
8
Number
62
244
420
659967
6
ByLayer
370
-1
48
1.0
60
0
100
AcDbText
1
12
10
748679.610000305
20
8930225.93599969
30
189.959999885559
40
0.3
41
1.0
50
0.0
51
0.0
7
Standard
11
748679.610000305
21
8930225.93599969
31
189.959999885559
210
0.0
220
0.0
230
1.0
72
0
100
AcDbText
73
0
0
TEXT
5
E8
330
1A
100
AcDbEntity
67
0
8
label
62
1
420
16711680
6
ByLayer
370
-1
48
1.0
60
0
100
AcDbText
1

10
748679.610000305
20
8930226.33599969
30
189.959999885559
40
0.3
41
1.0
50
0.0
51
0.0
7
Standard
11
748679.610000305
21
8930226.33599969
31
189.959999885559
210
0.0
220
0.0
230
1.0
72
0
100
AcDbText
73
0
0
TEXT
5
E9
330
1A
100
AcDbEntity
67
0
8
Length
62
244
420
659967
6
ByLayer
370
-1
48
1.0
60
0
100
AcDbText
1
10.33
10
748679.610000305
20
8930224.9259997
30
189.959999885559
40
0.3
41
1.0
50
0.0
51
0.0
7
Standard
11
748679.610000305
21
8930224.9259997
31
189.959999885559
210
0.0
220
0.0
230
1.0
72
0
100
AcDbText
73
0
0
POINT
5
EA
330
1A
100
AcDbEntity
67
0
8
Hole
62
244
420
659967
6
ByLayer
370
-1
48
1.0
60
0
100
AcDbPoint
10
748680.810000114
20
8930225.73000008
30
189.94000038147
39
0.0
210
0.0
220
0.0
230
1.0
50
360.0
0
LINE
5
EB
330
1A
100
AcDbEntity
67
0
8
Theoretical Hole
62
244
420
659967
6
ByLayer
370
-1
48
1.0
60
0
100
AcDbLine
10
748680.810000114
20
8930225.73000008
30
189.94000038147
11
748681.06455677
21
8930222.95967823
31
180.022817578316
39
0.0
210
0.0
220
0.0
230
1.0
0
TEXT
5
EC
330
1A
100
AcDbEntity
67
0
8
Number
62
244
420
659967
6
ByLayer
370
-1
48
1.0
60
0
100
AcDbText
1
13
10
748680.810000114
20
8930226.03600007
30
189.94000038147
40
0.3
41
1.0
50
0.0
51
0.0
7
Standard
11
748680.810000114
21
8930226.03600007
31
189.94000038147
210
0.0
220
0.0
230
1.0
72
0
100
AcDbText
73
0
0
TEXT
5
ED
330
1A
100
AcDbEntity
67
0
8
label
62
1
420
16711680
6
ByLayer
370
-1
48
1.0
60
0
100
AcDbText
1

10
748680.810000114
20
8930226.43600007
30
189.94000038147
40
0.3
41
1.0
50
0.0
51
0.0
7
Standard
11
748680.810000114
21
8930226.43600007
31
189.94000038147
210
0.0
220
0.0
230
1.0
72
0
100
AcDbText
73
0
0
TEXT
5
EE
330
1A
100
AcDbEntity
67
0
8
Length
62
244
420
659967
6
ByLayer
370
-1
48
1.0
60
0
100
AcDbText
1
10.30
10
748680.810000114
20
8930225.02600008
30
189.94000038147
40
0.3
41
1.0
50
0.0
51
0.0
7
Standard
11
748680.810000114
21
8930225.02600008
31
189.94000038147
210
0.0
220
0.0
230
1.0
72
0
100
AcDbText
73
0
0
POINT
5
EF
330
1A
100
AcDbEntity
67
0
8
Hole
62
244
420
659967
6
ByLayer
370
-1
48
1.0
60
0
100
AcDbPoint
10
748681.999999695
20
8930225.84000069
30
189.94000038147
39
0.0
210
0.0
220
0.0
230
1.0
50
360.0
0
LINE
5
F0
330
1A
100
AcDbEntity
67
0
8
Theoretical Hole
62
244
420
659967
6
ByLayer
370
-1
48
1.0
60
0
100
AcDbLine
10
748681.999999695
20
8930225.84000069
30
189.94000038147
11
748682.310489349
21
8930223.08061462
31
180.021361913681
39
0.0
210
0.0
220
0.0
230
1.0
0
TEXT
5
F1
330
1A
100
AcDbEntity
67
0
8
Number
62
244
420
659967
6
ByLayer
370
-1
48
1.0
60
0
100
AcDbText
1
14
10
748681.999999695
20
8930226.14600068
30
189.94000038147
40
0.3
41
1.0
50
0.0
51
0.0
7
Standard
11
748681.999999695
21
8930226.14600068
31
189.94000038147
210
0.0
220
0.0
230
1.0
72
0
100
AcDbText
73
0
0
TEXT
5
F2
330
1A
100
AcDbEntity
67
0
8
label
62
1
420
16711680
6
ByLayer
370
-1
48
1.0
60
0
100
AcDbText
1

10
748681.999999695
20
8930226.54600068
30
189.94000038147
40
0.3
41
1.0
50
0.0
51
0.0
7
Standard
11
748681.999999695
21
8930226.54600068
31
189.94000038147
210
0.0
220
0.0
230
1.0
72
0
100
AcDbText
73
0
0
TEXT
5
F3
330
1A
100
AcDbEntity
67
0
8
Length
62
244
420
659967
6
ByLayer
370
-1
48
1.0
60
0
100
AcDbText
1
10.30
10
748681.999999695
20
8930225.13600069
30
189.94000038147
40
0.3
41
1.0
50
0.0
51
0.0
7
Standard
11
748681.999999695
21
8930225.13600069
31
189.94000038147
210
0.0
220
0.0
230
1.0
72
0
100
AcDbText
73
0
0
POINT
5
F4
330
1A
100
AcDbEntity
67
0
8
Hole
62
244
420
659967
6
ByLayer
370
-1
48
1.0
60
0
100
AcDbPoint
10
748683.200000458
20
8930225.98000008
30
189.930000152588
39
0.0
210
0.0
220
0.0
230
1.0
50
360.0
0
LINE
5
F5
330
1A
100
AcDbEntity
67
0
8
Theoretical Hole
62
244
420
659967
6
ByLayer
370
-1
48
1.0
60
0
100
AcDbLine
10
748683.200000458
20
8930225.98000008
30
189.930000152588
11
748683.530086212
21
8930223.21591621
31
180.01330300808
39
0.0
210
0.0
220
0.0
230
1.0
0
TEXT
5
F6
330
1A
100
AcDbEntity
67
0
8
Number
62
244
420
659967
6
ByLayer
370
-1
48
1.0
60
0
100
AcDbText
1
15
10
748683.200000458
20
8930226.28600007
30
189.930000152588
40
0.3
41
1.0
50
0.0
51
0.0
7
Standard
11
748683.200000458
21
8930226.28600007
31
189.930000152588
210
0.0
220
0.0
230
1.0
72
0
100
AcDbText
73
0
0
TEXT
5
F7
330
1A
100
AcDbEntity
67
0
8
label
62
1
420
16711680
6
ByLayer
370
-1
48
1.0
60
0
100
AcDbText
1

10
748683.200000458
20
8930226.68600007
30
189.930000152588
40
0.3
41
1.0
50
0.0
51
0.0
7
Standard
11
748683.200000458
21
8930226.68600007
31
189.930000152588
210
0.0
220
0.0
230
1.0
72
0
100
AcDbText
73
0
0
TEXT
5
F8
330
1A
100
AcDbEntity
67
0
8
Length
62
244
420
659967
6
ByLayer
370
-1
48
1.0
60
0
100
AcDbText
1
10.30
10
748683.200000458
20
8930225.27600008
30
189.930000152588
40
0.3
41
1.0
50
0.0
51
0.0
7
Standard
11
748683.200000458
21
8930225.27600008
31
189.930000152588
210
0.0
220
0.0
230
1.0
72
0
100
AcDbText
73
0
0
POINT
5
F9
330
1A
100
AcDbEntity
67
0
8
Hole
62
244
420
659967
6
ByLayer
370
-1
48
1.0
60
0
100
AcDbPoint
10
748684.389999085
20
8930226.11999947
30
189.94000038147
39
0.0
210
0.0
220
0.0
230
1.0
50
360.0
0
LINE
5
FA
330
1A
100
AcDbEntity
67
0
8
Theoretical Hole
62
244
420
659967
6
ByLayer
370
-1
48
1.0
60
0
100
AcDbLine
10
748684.389999085
20
8930226.11999947
30
189.94000038147
11
748684.78477066
21
8930223.36343056
31
180.013189997673
39
0.0
210
0.0
220
0.0
230
1.0
0
TEXT
5
FB
330
1A
100
AcDbEntity
67
0
8
Number
62
244
420
659967
6
ByLayer
370
-1
48
1.0
60
0
100
AcDbText
1
16
10
748684.389999085
20
8930226.42599946
30
189.94000038147
40
0.3
41
1.0
50
0.0
51
0.0
7
Standard
11
748684.389999085
21
8930226.42599946
31
189.94000038147
210
0.0
220
0.0
230
1.0
72
0
100
AcDbText
73
0
0
TEXT
5
FC
330
1A
100
AcDbEntity
67
0
8
label
62
1
420
16711680
6
ByLayer
370
-1
48
1.0
60
0
100
AcDbText
1

10
748684.389999085
20
8930226.82599946
30
189.94000038147
40
0.3
41
1.0
50
0.0
51
0.0
7
Standard
11
748684.389999085
21
8930226.82599946
31
189.94000038147
210
0.0
220
0.0
230
1.0
72
0
100
AcDbText
73
0
0
TEXT
5
FD
330
1A
100
AcDbEntity
67
0
8
Length
62
244
420
659967
6
ByLayer
370
-1
48
1.0
60
0
100
AcDbText
1
10.31
10
748684.389999085
20
8930225.41599947
30
189.94000038147
40
0.3
41
1.0
50
0.0
51
0.0
7
Standard
11
748684.389999085
21
8930225.41599947
31
189.94000038147
210
0.0
220
0.0
230
1.0
72
0
100
AcDbText
73
0
0
POLYLINE
5
10A
330
1A
100
AcDbEntity
67
0
8
Real Hole
62
1
420
16711680
6
ByLayer
370
-1
48
1.0
60
0
100
AcDb3dPolyline
10
0.0
20
0.0
30
0.0
70
8
75
0
210
0.0
220
0.0
230
1.0
0
VERTEX
5
FE
100
AcDbEntity
8
Real Hole
62
1
420
16711680
100
AcDbVertex
100
AcDb3dPolylineVertex
10
748684.389999085
20
8930226.11999947
30
189.94000038147
70
32
0
VERTEX
5
FF
100
AcDbEntity
8
Real Hole
62
1
420
16711680
100
AcDbVertex
100
AcDb3dPolylineVertex
10
748684.391832955
20
8930225.8281343
30
188.983542647362
70
32
0
VERTEX
5
100
100
AcDbEntity
8
Real Hole
62
1
420
16711680
100
AcDbVertex
100
AcDb3dPolylineVertex
10
748684.427240271
20
8930225.55173707
30
188.023151602745
70
32
0
VERTEX
5
101
100
AcDbEntity
8
Real Hole
62
1
420
16711680
100
AcDbVertex
100
AcDb3dPolylineVertex
10
748684.432494082
20
8930225.29448926
30
187.056820478439
70
32
0
VERTEX
5
102
100
AcDbEntity
8
Real Hole
62
1
420
16711680
100
AcDbVertex
100
AcDb3dPolylineVertex
10
748684.42184842
20
8930224.98499137
30
186.105980005264
70
32
0
VERTEX
5
103
100
AcDbEntity
8
Real Hole
62
1
420
16711680
100
AcDbVertex
100
AcDb3dPolylineVertex
10
748684.409537468
20
8930224.68753797
30
185.151323165894
70
32
0
VERTEX
5
104
100
AcDbEntity
8
Real Hole
62
1
420
16711680
100
AcDbVertex
100
AcDb3dPolylineVertex
10
748684.431695469
20
8930224.42476576
30
184.186719741821
70
32
0
VERTEX
5
105
100
AcDbEntity
8
Real Hole
62
1
420
16711680
100
AcDbVertex
100
AcDb3dPolylineVertex
10
748684.453652233
20
8930224.1638357
30
183.221611347198
70
32
0
VERTEX
5
106
100
AcDbEntity
8
Real Hole
62
1
420
16711680
100
AcDbVertex
100
AcDb3dPolylineVertex
10
748684.447066523
20
8930223.89045936
30
182.259726848602
70
32
0
VERTEX
5
107
100
AcDbEntity
8
Real Hole
62
1
420
16711680
100
AcDbVertex
100
AcDb3dPolylineVertex
10
748684.458586537
20
8930223.61674243
30
181.297985877991
70
32
0
VERTEX
5
108
100
AcDbEntity
8
Real Hole
62
1
420
16711680
100
AcDbVertex
100
AcDb3dPolylineVertex
10
748684.488987483
20
8930223.33133083
30
180.340062942505
70
32
0
SEQEND
5
109
100
AcDbEntity
8
Real Hole
0
POINT
5
10B
330
1A
100
AcDbEntity
67
0
8
Hole
62
244
420
659967
6
ByLayer
370
-1
48
1.0
60
0
100
AcDbPoint
10
748685.56999939
20
8930226.28999954
30
189.980000343323
39
0.0
210
0.0
220
0.0
230
1.0
50
360.0
0
LINE
5
10C
330
1A
100
AcDbEntity
67
0
8
Theoretical Hole
62
244
420
659967
6
ByLayer
370
-1
48
1.0
60
0
100
AcDbLine
10
748685.56999939
20
8930226.28999954
30
189.980000343323
11
748685.982717209
21
8930223.52513748
31
180.014676656723
39
0.0
210
0.0
220
0.0
230
1.0
0
TEXT
5
10D
330
1A
100
AcDbEntity
67
0
8
Number
62
244
420
659967
6
ByLayer
370
-1
48
1.0
60
0
100
AcDbText
1
17
10
748685.56999939
20
8930226.59599954
30
189.980000343323
40
0.3
41
1.0
50
0.0
51
0.0
7
Standard
11
748685.56999939
21
8930226.59599954
31
189.980000343323
210
0.0
220
0.0
230
1.0
72
0
100
AcDbText
73
0
0
TEXT
5
10E
330
1A
100
AcDbEntity
67
0
8
label
62
1
420
16711680
6
ByLayer
370
-1
48
1.0
60
0
100
AcDbText
1

10
748685.56999939
20
8930226.99599954
30
189.980000343323
40
0.3
41
1.0
50
0.0
51
0.0
7
Standard
11
748685.56999939
21
8930226.99599954
31
189.980000343323
210
0.0
220
0.0
230
1.0
72
0
100
AcDbText
73
0
0
TEXT
5
10F
330
1A
100
AcDbEntity
67
0
8
Length
62
244
420
659967
6
ByLayer
370
-1
48
1.0
60
0
100
AcDbText
1
10.35
10
748685.56999939
20
8930225.58599955
30
189.980000343323
40
0.3
41
1.0
50
0.0
51
0.0
7
Standard
11
748685.56999939
21
8930225.58599955
31
189.980000343323
210
0.0
220
0.0
230
1.0
72
0
100
AcDbText
73
0
0
POLYLINE
5
11C
330
1A
100
AcDbEntity
67
0
8
Real Hole
62
1
420
16711680
6
ByLayer
370
-1
48
1.0
60
0
100
AcDb3dPolyline
10
0.0
20
0.0
30
0.0
70
8
75
0
210
0.0
220
0.0
230
1.0
0
VERTEX
5
110
100
AcDbEntity
8
Real Hole
62
1
420
16711680
100
AcDbVertex
100
AcDb3dPolylineVertex
10
748685.56999939
20
8930226.28999954
30
189.980000343323
70
32
0
VERTEX
5
111
100
AcDbEntity
8
Real Hole
62
1
420
16711680
100
AcDbVertex
100
AcDb3dPolylineVertex
10
748685.603895538
20
8930226.01273754
30
189.019804086685
70
32
0
VERTEX
5
112
100
AcDbEntity
8
Real Hole
62
1
420
16711680
100
AcDbVertex
100
AcDb3dPolylineVertex
10
748685.654425681
20
8930225.75374776
30
188.055246677399
70
32
0
VERTEX
5
113
100
AcDbEntity
8
Real Hole
62
1
420
16711680
100
AcDbVertex
100
AcDb3dPolylineVertex
10
748685.672892161
20
8930225.46346539
30
187.098483886719
70
32
0
VERTEX
5
114
100
AcDbEntity
8
Real Hole
62
1
420
16711680
100
AcDbVertex
100
AcDb3dPolylineVertex
10
748685.720532574
20
8930225.18534213
30
186.139120664597
70
32
0
VERTEX
5
115
100
AcDbEntity
8
Real Hole
62
1
420
16711680
100
AcDbVertex
100
AcDb3dPolylineVertex
10
748685.765843653
20
8930224.86894923
30
185.191574897766
70
32
0
VERTEX
5
116
100
AcDbEntity
8
Real Hole
62
1
420
16711680
100
AcDbVertex
100
AcDb3dPolylineVertex
10
748685.818648123
20
8930224.58597189
30
184.233903255463
70
32
0
VERTEX
5
117
100
AcDbEntity
8
Real Hole
62
1
420
16711680
100
AcDbVertex
100
AcDb3dPolylineVertex
10
748685.882162117
20
8930224.3070901
30
183.275680389404
70
32
0
VERTEX
5
118
100
AcDbEntity
8
Real Hole
62
1
420
16711680
100
AcDbVertex
100
AcDb3dPolylineVertex
10
748685.960418843
20
8930224.03929931
30
182.315386619568
70
32
0
VERTEX
5
119
100
AcDbEntity
8
Real Hole
62
1
420
16711680
100
AcDbVertex
100
AcDb3dPolylineVertex
10
748686.067068152
20
8930223.7540527
30
181.362884368896
70
32
0
VERTEX
5
11A
100
AcDbEntity
8
Real Hole
62
1
420
16711680
100
AcDbVertex
100
AcDb3dPolylineVertex
10
748686.134838693
20
8930223.49917346
30
180.502394523621
70
32
0
SEQEND
5
11B
100
AcDbEntity
8
Real Hole
0
POINT
5
11D
330
1A
100
AcDbEntity
67
0
8
Hole
62
244
420
659967
6
ByLayer
370
-1
48
1.0
60
0
100
AcDbPoint
10
748686.759999924
20
8930226.46999985
30
190.020000305176
39
0.0
210
0.0
220
0.0
230
1.0
50
360.0
0
LINE
5
11E
330
1A
100
AcDbEntity
67
0
8
Theoretical Hole
62
244
420
659967
6
ByLayer
370
-1
48
1.0
60
0
100
AcDbLine
10
748686.759999924
20
8930226.46999985
30
190.020000305176
11
748687.245185547
21
8930223.71837097
31
180.01274081707
39
0.0
210
0.0
220
0.0
230
1.0
0
TEXT
5
11F
330
1A
100
AcDbEntity
67
0
8
Number
62
244
420
659967
6
ByLayer
370
-1
48
1.0
60
0
100
AcDbText
1
18
10
748686.759999924
20
8930226.77599984
30
190.020000305176
40
0.3
41
1.0
50
0.0
51
0.0
7
Standard
11
748686.759999924
21
8930226.77599984
31
190.020000305176
210
0.0
220
0.0
230
1.0
72
0
100
AcDbText
73
0
0
TEXT
5
120
330
1A
100
AcDbEntity
67
0
8
label
62
1
420
16711680
6
ByLayer
370
-1
48
1.0
60
0
100
AcDbText
1

10
748686.759999924
20
8930227.17599984
30
190.020000305176
40
0.3
41
1.0
50
0.0
51
0.0
7
Standard
11
748686.759999924
21
8930227.17599984
31
190.020000305176
210
0.0
220
0.0
230
1.0
72
0
100
AcDbText
73
0
0
TEXT
5
121
330
1A
100
AcDbEntity
67
0
8
Length
62
244
420
659967
6
ByLayer
370
-1
48
1.0
60
0
100
AcDbText
1
10.39
10
748686.759999924
20
8930225.76599985
30
190.020000305176
40
0.3
41
1.0
50
0.0
51
0.0
7
Standard
11
748686.759999924
21
8930225.76599985
31
190.020000305176
210
0.0
220
0.0
230
1.0
72
0
100
AcDbText
73
0
0
POLYLINE
5
12E
330
1A
100
AcDbEntity
67
0
8
Real Hole
62
1
420
16711680
6
ByLayer
370
-1
48
1.0
60
0
100
AcDb3dPolyline
10
0.0
20
0.0
30
0.0
70
8
75
0
210
0.0
220
0.0
230
1.0
0
VERTEX
5
122
100
AcDbEntity
8
Real Hole
62
1
420
16711680
100
AcDbVertex
100
AcDb3dPolylineVertex
10
748686.759999924
20
8930226.46999985
30
190.020000305176
70
32
0
VERTEX
5
123
100
AcDbEntity
8
Real Hole
62
1
420
16711680
100
AcDbVertex
100
AcDb3dPolylineVertex
10
748686.818578057
20
8930226.20065889
30
189.058738615513
70
32
0
VERTEX
5
124
100
AcDbEntity
8
Real Hole
62
1
420
16711680
100
AcDbVertex
100
AcDb3dPolylineVertex
10
748686.869895161
20
8930225.93787986
30
188.095248188972
70
32
0
VERTEX
5
125
100
AcDbEntity
8
Real Hole
62
1
420
16711680
100
AcDbVertex
100
AcDb3dPolylineVertex
10
748686.902114101
20
8930225.63689679
30
187.142163124084
70
32
0
VERTEX
5
126
100
AcDbEntity
8
Real Hole
62
1
420
16711680
100
AcDbVertex
100
AcDb3dPolylineVertex
10
748686.946661242
20
8930225.332282
30
186.190729703903
70
32
0
VERTEX
5
127
100
AcDbEntity
8
Real Hole
62
1
420
16711680
100
AcDbVertex
100
AcDb3dPolylineVertex
10
748687.02680596
20
8930225.03401071
30
185.239619579315
70
32
0
VERTEX
5
128
100
AcDbEntity
8
Real Hole
62
1
420
16711680
100
AcDbVertex
100
AcDb3dPolylineVertex
10
748687.103038572
20
8930224.75573307
30
184.282148685455
70
32
0
VERTEX
5
129
100
AcDbEntity
8
Real Hole
62
1
420
16711680
100
AcDbVertex
100
AcDb3dPolylineVertex
10
748687.17356705
20
8930224.49361545
30
183.319693412781
70
32
0
VERTEX
5
12A
100
AcDbEntity
8
Real Hole
62
1
420
16711680
100
AcDbVertex
100
AcDb3dPolylineVertex
10
748687.26914417
20
8930224.23866135
30
182.357475605011
70
32
0
VERTEX
5
12B
100
AcDbEntity
8
Real Hole
62
1
420
16711680
100
AcDbVertex
100
AcDb3dPolylineVertex
10
748687.349070125
20
8930223.94670135
30
181.404390182495
70
32
0
VERTEX
5
12C
100
AcDbEntity
8
Real Hole
62
1
420
16711680
100
AcDbVertex
100
AcDb3dPolylineVertex
10
748687.414679878
20
8930223.69172245
30
180.543762054443
70
32
0
SEQEND
5
12D
100
AcDbEntity
8
Real Hole
0
POINT
5
12F
330
1A
100
AcDbEntity
67
0
8
Hole
62
244
420
659967
6
ByLayer
370
-1
48
1.0
60
0
100
AcDbPoint
10
748687.940000229
20
8930226.67000061
30
190.060000267029
39
0.0
210
0.0
220
0.0
230
1.0
50
360.0
0
LINE
5
130
330
1A
100
AcDbEntity
67
0
8
Theoretical Hole
62
244
420
659967
6
ByLayer
370
-1
48
1.0
60
0
100
AcDbLine
10
748687.940000229
20
8930226.67000061
30
190.060000267029
11
748688.4286763
21
8930223.90984589
31
180.013725008965
39
0.0
210
0.0
220
0.0
230
1.0
0
TEXT
5
131
330
1A
100
AcDbEntity
67
0
8
Number
62
244
420
659967
6
ByLayer
370
-1
48
1.0
60
0
100
AcDbText
1
19
10
748687.940000229
20
8930226.97600061
30
190.060000267029
40
0.3
41
1.0
50
0.0
51
0.0
7
Standard
11
748687.940000229
21
8930226.97600061
31
190.060000267029
210
0.0
220
0.0
230
1.0
72
0
100
AcDbText
73
0
0
TEXT
5
132
330
1A
100
AcDbEntity
67
0
8
label
62
1
420
16711680
6
ByLayer
370
-1
48
1.0
60
0
100
AcDbText
1

10
748687.940000229
20
8930227.37600061
30
190.060000267029
40
0.3
41
1.0
50
0.0
51
0.0
7
Standard
11
748687.940000229
21
8930227.37600061
31
190.060000267029
210
0.0
220
0.0
230
1.0
72
0
100
AcDbText
73
0
0
TEXT
5
133
330
1A
100
AcDbEntity
67
0
8
Length
62
244
420
659967
6
ByLayer
370
-1
48
1.0
60
0
100
AcDbText
1
10.43
10
748687.940000229
20
8930225.96600061
30
190.060000267029
40
0.3
41
1.0
50
0.0
51
0.0
7
Standard
11
748687.940000229
21
8930225.96600061
31
190.060000267029
210
0.0
220
0.0
230
1.0
72
0
100
AcDbText
73
0
0
POLYLINE
5
140
330
1A
100
AcDbEntity
67
0
8
Real Hole
62
1
420
16711680
6
ByLayer
370
-1
48
1.0
60
0
100
AcDb3dPolyline
10
0.0
20
0.0
30
0.0
70
8
75
0
210
0.0
220
0.0
230
1.0
0
VERTEX
5
134
100
AcDbEntity
8
Real Hole
62
1
420
16711680
100
AcDbVertex
100
AcDb3dPolylineVertex
10
748687.940000229
20
8930226.67000061
30
190.060000267029
70
32
0
VERTEX
5
135
100
AcDbEntity
8
Real Hole
62
1
420
16711680
100
AcDbVertex
100
AcDb3dPolylineVertex
10
748687.954495413
20
8930226.45233948
30
189.08408352375
70
32
0
VERTEX
5
136
100
AcDbEntity
8
Real Hole
62
1
420
16711680
100
AcDbVertex
100
AcDb3dPolylineVertex
10
748687.978862569
20
8930226.24397021
30
188.106336917877
70
32
0
VERTEX
5
137
100
AcDbEntity
8
Real Hole
62
1
420
16711680
100
AcDbVertex
100
AcDb3dPolylineVertex
10
748687.946704714
20
8930225.99293899
30
187.138892259598
70
32
0
VERTEX
5
138
100
AcDbEntity
8
Real Hole
62
1
420
16711680
100
AcDbVertex
100
AcDb3dPolylineVertex
10
748687.954071099
20
8930225.76487696
30
186.165273513794
70
32
0
VERTEX
5
139
100
AcDbEntity
8
Real Hole
62
1
420
16711680
100
AcDbVertex
100
AcDb3dPolylineVertex
10
748687.929665955
20
8930225.5199365
30
185.196042385101
70
32
0
VERTEX
5
13A
100
AcDbEntity
8
Real Hole
62
1
420
16711680
100
AcDbVertex
100
AcDb3dPolylineVertex
10
748687.922804233
20
8930225.27117222
30
184.227502670288
70
32
0
VERTEX
5
13B
100
AcDbEntity
8
Real Hole
62
1
420
16711680
100
AcDbVertex
100
AcDb3dPolylineVertex
10
748687.91779277
20
8930225.03964835
30
183.25468667984
70
32
0
VERTEX
5
13C
100
AcDbEntity
8
Real Hole
62
1
420
16711680
100
AcDbVertex
100
AcDb3dPolylineVertex
10
748687.921262836
20
8930224.80012315
30
182.28380235672
70
32
0
VERTEX
5
13D
100
AcDbEntity
8
Real Hole
62
1
420
16711680
100
AcDbVertex
100
AcDb3dPolylineVertex
10
748687.943469763
20
8930224.57763821
30
181.30911907196
70
32
0
VERTEX
5
13E
100
AcDbEntity
8
Real Hole
62
1
420
16711680
100
AcDbVertex
100
AcDb3dPolylineVertex
10
748687.964079984
20
8930224.39674479
30
180.325832214355
70
32
0
SEQEND
5
13F
100
AcDbEntity
8
Real Hole
0
POINT
5
141
330
1A
100
AcDbEntity
67
0
8
Hole
62
244
420
659967
6
ByLayer
370
-1
48
1.0
60
0
100
AcDbPoint
10
748689.120000534
20
8930226.8799997
30
190.079999771118
39
0.0
210
0.0
220
0.0
230
1.0
50
360.0
0
LINE
5
142
330
1A
100
AcDbEntity
67
0
8
Theoretical Hole
62
244
420
659967
6
ByLayer
370
-1
48
1.0
60
0
100
AcDbLine
10
748689.120000534
20
8930226.8799997
30
190.079999771118
11
748689.665563278
21
8930224.14475113
31
180.00908788681
39
0.0
210
0.0
220
0.0
230
1.0
0
TEXT
5
143
330
1A
100
AcDbEntity
67
0
8
Number
62
244
420
659967
6
ByLayer
370
-1
48
1.0
60
0
100
AcDbText
1
20
10
748689.120000534
20
8930227.18599969
30
190.079999771118
40
0.3
41
1.0
50
0.0
51
0.0
7
Standard
11
748689.120000534
21
8930227.18599969
31
190.079999771118
210
0.0
220
0.0
230
1.0
72
0
100
AcDbText
73
0
0
TEXT
5
144
330
1A
100
AcDbEntity
67
0
8
label
62
1
420
16711680
6
ByLayer
370
-1
48
1.0
60
0
100
AcDbText
1

10
748689.120000534
20
8930227.58599969
30
190.079999771118
40
0.3
41
1.0
50
0.0
51
0.0
7
Standard
11
748689.120000534
21
8930227.58599969
31
190.079999771118
210
0.0
220
0.0
230
1.0
72
0
100
AcDbText
73
0
0
TEXT
5
145
330
1A
100
AcDbEntity
67
0
8
Length
62
244
420
659967
6
ByLayer
370
-1
48
1.0
60
0
100
AcDbText
1
10.45
10
748689.120000534
20
8930226.1759997
30
190.079999771118
40
0.3
41
1.0
50
0.0
51
0.0
7
Standard
11
748689.120000534
21
8930226.1759997
31
190.079999771118
210
0.0
220
0.0
230
1.0
72
0
100
AcDbText
73
0
0
POLYLINE
5
152
330
1A
100
AcDbEntity
67
0
8
Real Hole
62
1
420
16711680
6
ByLayer
370
-1
48
1.0
60
0
100
AcDb3dPolyline
10
0.0
20
0.0
30
0.0
70
8
75
0
210
0.0
220
0.0
230
1.0
0
VERTEX
5
146
100
AcDbEntity
8
Real Hole
62
1
420
16711680
100
AcDbVertex
100
AcDb3dPolylineVertex
10
748689.120000534
20
8930226.8799997
30
190.079999771118
70
32
0
VERTEX
5
147
100
AcDbEntity
8
Real Hole
62
1
420
16711680
100
AcDbVertex
100
AcDb3dPolylineVertex
10
748689.194066875
20
8930226.62638393
30
189.115534510612
70
32
0
VERTEX
5
148
100
AcDbEntity
8
Real Hole
62
1
420
16711680
100
AcDbVertex
100
AcDb3dPolylineVertex
10
748689.267618768
20
8930226.39023605
30
188.146605100632
70
32
0
VERTEX
5
149
100
AcDbEntity
8
Real Hole
62
1
420
16711680
100
AcDbVertex
100
AcDb3dPolylineVertex
10
748689.2902947
20
8930226.1551674
30
187.174890842438
70
32
0
VERTEX
5
14A
100
AcDbEntity
8
Real Hole
62
1
420
16711680
100
AcDbVertex
100
AcDb3dPolylineVertex
10
748689.339155846
20
8930225.9042663
30
186.20811208725
70
32
0
VERTEX
5
14B
100
AcDbEntity
8
Real Hole
62
1
420
16711680
100
AcDbVertex
100
AcDb3dPolylineVertex
10
748689.357959561
20
8930225.63263613
30
185.24589427948
70
32
0
VERTEX
5
14C
100
AcDbEntity
8
Real Hole
62
1
420
16711680
100
AcDbVertex
100
AcDb3dPolylineVertex
10
748689.414650225
20
8930225.3990187
30
184.275219287872
70
32
0
VERTEX
5
14D
100
AcDbEntity
8
Real Hole
62
1
420
16711680
100
AcDbVertex
100
AcDb3dPolylineVertex
10
748689.46282541
20
8930225.19378406
30
183.297693099976
70
32
0
VERTEX
5
14E
100
AcDbEntity
8
Real Hole
62
1
420
16711680
100
AcDbVertex
100
AcDb3dPolylineVertex
10
748689.504641109
20
8930224.95997757
30
182.326309528351
70
32
0
VERTEX
5
14F
100
AcDbEntity
8
Real Hole
62
1
420
16711680
100
AcDbVertex
100
AcDb3dPolylineVertex
10
748689.550337218
20
8930224.71603805
30
181.357596244812
70
32
0
VERTEX
5
150
100
AcDbEntity
8
Real Hole
62
1
420
16711680
100
AcDbVertex
100
AcDb3dPolylineVertex
10
748689.603892438
20
8930224.52027303
30
180.378409233093
70
32
0
SEQEND
5
151
100
AcDbEntity
8
Real Hole
0
POINT
5
153
330
1A
100
AcDbEntity
67
0
8
Hole
62
244
420
659967
6
ByLayer
370
-1
48
1.0
60
0
100
AcDbPoint
10
748690.300000839
20
8930227.11999947
30
190.140000190735
39
0.0
210
0.0
220
0.0
230
1.0
50
360.0
0
LINE
5
154
330
1A
100
AcDbEntity
67
0
8
Theoretical Hole
62
244
420
659967
6
ByLayer
370
-1
48
1.0
60
0
100
AcDbLine
10
748690.300000839
20
8930227.11999947
30
190.140000190735
11
748690.889196091
21
8930224.41089493
31
180.012631382942
39
0.0
210
0.0
220
0.0
230
1.0
0
TEXT
5
155
330
1A
100
AcDbEntity
67
0
8
Number
62
244
420
659967
6
ByLayer
370
-1
48
1.0
60
0
100
AcDbText
1
21
10
748690.300000839
20
8930227.42599946
30
190.140000190735
40
0.3
41
1.0
50
0.0
51
0.0
7
Standard
11
748690.300000839
21
8930227.42599946
31
190.140000190735
210
0.0
220
0.0
230
1.0
72
0
100
AcDbText
73
0
0
TEXT
5
156
330
1A
100
AcDbEntity
67
0
8
label
62
1
420
16711680
6
ByLayer
370
-1
48
1.0
60
0
100
AcDbText
1

10
748690.300000839
20
8930227.82599946
30
190.140000190735
40
0.3
41
1.0
50
0.0
51
0.0
7
Standard
11
748690.300000839
21
8930227.82599946
31
190.140000190735
210
0.0
220
0.0
230
1.0
72
0
100
AcDbText
73
0
0
TEXT
5
157
330
1A
100
AcDbEntity
67
0
8
Length
62
244
420
659967
6
ByLayer
370
-1
48
1.0
60
0
100
AcDbText
1
10.50
10
748690.300000839
20
8930226.41599947
30
190.140000190735
40
0.3
41
1.0
50
0.0
51
0.0
7
Standard
11
748690.300000839
21
8930226.41599947
31
190.140000190735
210
0.0
220
0.0
230
1.0
72
0
100
AcDbText
73
0
0
POLYLINE
5
164
330
1A
100
AcDbEntity
67
0
8
Real Hole
62
1
420
16711680
6
ByLayer
370
-1
48
1.0
60
0
100
AcDb3dPolyline
10
0.0
20
0.0
30
0.0
70
8
75
0
210
0.0
220
0.0
230
1.0
0
VERTEX
5
158
100
AcDbEntity
8
Real Hole
62
1
420
16711680
100
AcDbVertex
100
AcDb3dPolylineVertex
10
748690.300000839
20
8930227.11999947
30
190.140000190735
70
32
0
VERTEX
5
159
100
AcDbEntity
8
Real Hole
62
1
420
16711680
100
AcDbVertex
100
AcDb3dPolylineVertex
10
748690.363832735
20
8930226.84806442
30
189.179803934097
70
32
0
VERTEX
5
15A
100
AcDbEntity
8
Real Hole
62
1
420
16711680
100
AcDbVertex
100
AcDb3dPolylineVertex
10
748690.441345133
20
8930226.59213847
30
188.216220107079
70
32
0
VERTEX
5
15B
100
AcDbEntity
8
Real Hole
62
1
420
16711680
100
AcDbVertex
100
AcDb3dPolylineVertex
10
748690.484934561
20
8930226.3015157
30
187.260375823975
70
32
0
VERTEX
5
15C
100
AcDbEntity
8
Real Hole
62
1
420
16711680
100
AcDbVertex
100
AcDb3dPolylineVertex
10
748690.550205343
20
8930225.99522942
30
186.310676660538
70
32
0
VERTEX
5
15D
100
AcDbEntity
8
Real Hole
62
1
420
16711680
100
AcDbVertex
100
AcDb3dPolylineVertex
10
748690.63597589
20
8930225.71711892
30
185.353964653015
70
32
0
VERTEX
5
15E
100
AcDbEntity
8
Real Hole
62
1
420
16711680
100
AcDbVertex
100
AcDb3dPolylineVertex
10
748690.69903218
20
8930225.4207167
30
184.400985088348
70
32
0
VERTEX
5
15F
100
AcDbEntity
8
Real Hole
62
1
420
16711680
100
AcDbVertex
100
AcDb3dPolylineVertex
10
748690.778634303
20
8930225.09687882
30
183.458227481842
70
32
0
VERTEX
5
160
100
AcDbEntity
8
Real Hole
62
1
420
16711680
100
AcDbVertex
100
AcDb3dPolylineVertex
10
748690.86986392
20
8930224.78710681
30
182.511803474426
70
32
0
VERTEX
5
161
100
AcDbEntity
8
Real Hole
62
1
420
16711680
100
AcDbVertex
100
AcDb3dPolylineVertex
10
748690.940542333
20
8930224.49157411
30
181.559088554382
70
32
0
VERTEX
5
162
100
AcDbEntity
8
Real Hole
62
1
420
16711680
100
AcDbVertex
100
AcDb3dPolylineVertex
10
748691.024151378
20
8930224.19029385
30
180.609226074219
70
32
0
SEQEND
5
163
100
AcDbEntity
8
Real Hole
0
POINT
5
165
330
1A
100
AcDbEntity
67
0
8
Hole
62
244
420
659967
6
ByLayer
370
-1
48
1.0
60
0
100
AcDbPoint
10
748691.470000916
20
8930227.36999947
30
190.199999656677
39
0.0
210
0.0
220
0.0
230
1.0
50
360.0
0
LINE
5
166
330
1A
100
AcDbEntity
67
0
8
Theoretical Hole
62
244
420
659967
6
ByLayer
370
-1
48
1.0
60
0
100
AcDbLine
10
748691.470000916
20
8930227.36999947
30
190.199999656677
11
748692.125957184
21
8930224.70744568
31
180.022960271835
39
0.0
210
0.0
220
0.0
230
1.0
0
TEXT
5
167
330
1A
100
AcDbEntity
67
0
8
Number
62
244
420
659967
6
ByLayer
370
-1
48
1.0
60
0
100
AcDbText
1
22
10
748691.470000916
20
8930227.67599946
30
190.199999656677
40
0.3
41
1.0
50
0.0
51
0.0
7
Standard
11
748691.470000916
21
8930227.67599946
31
190.199999656677
210
0.0
220
0.0
230
1.0
72
0
100
AcDbText
73
0
0
TEXT
5
168
330
1A
100
AcDbEntity
67
0
8
label
62
1
420
16711680
6
ByLayer
370
-1
48
1.0
60
0
100
AcDbText
1

10
748691.470000916
20
8930228.07599946
30
190.199999656677
40
0.3
41
1.0
50
0.0
51
0.0
7
Standard
11
748691.470000916
21
8930228.07599946
31
190.199999656677
210
0.0
220
0.0
230
1.0
72
0
100
AcDbText
73
0
0
TEXT
5
169
330
1A
100
AcDbEntity
67
0
8
Length
62
244
420
659967
6
ByLayer
370
-1
48
1.0
60
0
100
AcDbText
1
10.54
10
748691.470000916
20
8930226.66599947
30
190.199999656677
40
0.3
41
1.0
50
0.0
51
0.0
7
Standard
11
748691.470000916
21
8930226.66599947
31
190.199999656677
210
0.0
220
0.0
230
1.0
72
0
100
AcDbText
73
0
0
POLYLINE
5
177
330
1A
100
AcDbEntity
67
0
8
Real Hole
62
1
420
16711680
6
ByLayer
370
-1
48
1.0
60
0
100
AcDb3dPolyline
10
0.0
20
0.0
30
0.0
70
8
75
0
210
0.0
220
0.0
230
1.0
0
VERTEX
5
16A
100
AcDbEntity
8
Real Hole
62
1
420
16711680
100
AcDbVertex
100
AcDb3dPolylineVertex
10
748691.470000916
20
8930227.36999947
30
190.199999656677
70
32
0
VERTEX
5
16B
100
AcDbEntity
8
Real Hole
62
1
420
16711680
100
AcDbVertex
100
AcDb3dPolylineVertex
10
748691.538091921
20
8930227.12397107
30
189.233131673336
70
32
0
VERTEX
5
16C
100
AcDbEntity
8
Real Hole
62
1
420
16711680
100
AcDbVertex
100
AcDb3dPolylineVertex
10
748691.602840744
20
8930226.891754
30
188.262625184059
70
32
0
VERTEX
5
16D
100
AcDbEntity
8
Real Hole
62
1
420
16711680
100
AcDbVertex
100
AcDb3dPolylineVertex
10
748691.630786203
20
8930226.6204052
30
187.30054983139
70
32
0
VERTEX
5
16E
100
AcDbEntity
8
Real Hole
62
1
420
16711680
100
AcDbVertex
100
AcDb3dPolylineVertex
10
748691.686929576
20
8930226.37952423
30
186.331620540619
70
32
0
VERTEX
5
16F
100
AcDbEntity
8
Real Hole
62
1
420
16711680
100
AcDbVertex
100
AcDb3dPolylineVertex
10
748691.739193224
20
8930226.14817697
30
185.360153999329
70
32
0
VERTEX
5
170
100
AcDbEntity
8
Real Hole
62
1
420
16711680
100
AcDbVertex
100
AcDb3dPolylineVertex
10
748691.791925989
20
8930225.91051107
30
184.390239562988
70
32
0
VERTEX
5
171
100
AcDbEntity
8
Real Hole
62
1
420
16711680
100
AcDbVertex
100
AcDb3dPolylineVertex
10
748691.840758376
20
8930225.66184014
30
183.422883358002
70
32
0
VERTEX
5
172
100
AcDbEntity
8
Real Hole
62
1
420
16711680
100
AcDbVertex
100
AcDb3dPolylineVertex
10
748691.875350707
20
8930225.39549345
30
182.459626998901
70
32
0
VERTEX
5
173
100
AcDbEntity
8
Real Hole
62
1
420
16711680
100
AcDbVertex
100
AcDb3dPolylineVertex
10
748691.914977424
20
8930225.1441651
30
181.492536392212
70
32
0
VERTEX
5
174
100
AcDbEntity
8
Real Hole
62
1
420
16711680
100
AcDbVertex
100
AcDb3dPolylineVertex
10
748691.962613158
20
8930224.90939885
30
180.521653022766
70
32
0
VERTEX
5
175
100
AcDbEntity
8
Real Hole
62
1
420
16711680
100
AcDbVertex
100
AcDb3dPolylineVertex
10
748692.003323011
20
8930224.72500711
30
179.847603645325
70
32
0
SEQEND
5
176
100
AcDbEntity
8
Real Hole
0
POINT
5
178
330
1A
100
AcDbEntity
67
0
8
Hole
62
244
420
659967
6
ByLayer
370
-1
48
1.0
60
0
100
AcDbPoint
10
748692.639999085
20
8930227.66000038
30
190.140000190735
39
0.0
210
0.0
220
0.0
230
1.0
50
360.0
0
LINE
5
179
330
1A
100
AcDbEntity
67
0
8
Theoretical Hole
62
244
420
659967
6
ByLayer
370
-1
48
1.0
60
0
100
AcDbLine
10
748692.639999085
20
8930227.66000038
30
190.140000190735
11
748693.356170349
21
8930225.04749542
31
180.016151990891
39
0.0
210
0.0
220
0.0
230
1.0
0
TEXT
5
17A
330
1A
100
AcDbEntity
67
0
8
Number
62
244
420
659967
6
ByLayer
370
-1
48
1.0
60
0
100
AcDbText
1
23
10
748692.639999085
20
8930227.96600038
30
190.140000190735
40
0.3
41
1.0
50
0.0
51
0.0
7
Standard
11
748692.639999085
21
8930227.96600038
31
190.140000190735
210
0.0
220
0.0
230
1.0
72
0
100
AcDbText
73
0
0
TEXT
5
17B
330
1A
100
AcDbEntity
67
0
8
label
62
1
420
16711680
6
ByLayer
370
-1
48
1.0
60
0
100
AcDbText
1

10
748692.639999085
20
8930228.36600038
30
190.140000190735
40
0.3
41
1.0
50
0.0
51
0.0
7
Standard
11
748692.639999085
21
8930228.36600038
31
190.140000190735
210
0.0
220
0.0
230
1.0
72
0
100
AcDbText
73
0
0
TEXT
5
17C
330
1A
100
AcDbEntity
67
0
8
Length
62
244
420
659967
6
ByLayer
370
-1
48
1.0
60
0
100
AcDbText
1
10.48
10
748692.639999085
20
8930226.95600039
30
190.140000190735
40
0.3
41
1.0
50
0.0
51
0.0
7
Standard
11
748692.639999085
21
8930226.95600039
31
190.140000190735
210
0.0
220
0.0
230
1.0
72
0
100
AcDbText
73
0
0
POLYLINE
5
18A
330
1A
100
AcDbEntity
67
0
8
Real Hole
62
1
420
16711680
6
ByLayer
370
-1
48
1.0
60
0
100
AcDb3dPolyline
10
0.0
20
0.0
30
0.0
70
8
75
0
210
0.0
220
0.0
230
1.0
0
VERTEX
5
17D
100
AcDbEntity
8
Real Hole
62
1
420
16711680
100
AcDbVertex
100
AcDb3dPolylineVertex
10
748692.639999085
20
8930227.66000038
30
190.140000190735
70
32
0
VERTEX
5
17E
100
AcDbEntity
8
Real Hole
62
1
420
16711680
100
AcDbVertex
100
AcDb3dPolylineVertex
10
748692.719314389
20
8930227.41487427
30
189.173758890629
70
32
0
VERTEX
5
17F
100
AcDbEntity
8
Real Hole
62
1
420
16711680
100
AcDbVertex
100
AcDb3dPolylineVertex
10
748692.805564084
20
8930227.18758133
30
188.20375939846
70
32
0
VERTEX
5
180
100
AcDbEntity
8
Real Hole
62
1
420
16711680
100
AcDbVertex
100
AcDb3dPolylineVertex
10
748692.881059923
20
8930226.95045024
30
187.235219802856
70
32
0
VERTEX
5
181
100
AcDbEntity
8
Real Hole
62
1
420
16711680
100
AcDbVertex
100
AcDb3dPolylineVertex
10
748692.962947421
20
8930226.71383965
30
186.267072048187
70
32
0
VERTEX
5
182
100
AcDbEntity
8
Real Hole
62
1
420
16711680
100
AcDbVertex
100
AcDb3dPolylineVertex
10
748693.026225232
20
8930226.47281045
30
185.298619117737
70
32
0
VERTEX
5
183
100
AcDbEntity
8
Real Hole
62
1
420
16711680
100
AcDbVertex
100
AcDb3dPolylineVertex
10
748693.109962814
20
8930226.25781292
30
184.325601425171
70
32
0
VERTEX
5
184
100
AcDbEntity
8
Real Hole
62
1
420
16711680
100
AcDbVertex
100
AcDb3dPolylineVertex
10
748693.188939326
20
8930225.99916953
30
183.362862434387
70
32
0
VERTEX
5
185
100
AcDbEntity
8
Real Hole
62
1
420
16711680
100
AcDbVertex
100
AcDb3dPolylineVertex
10
748693.261380069
20
8930225.73635429
30
182.400739517212
70
32
0
VERTEX
5
186
100
AcDbEntity
8
Real Hole
62
1
420
16711680
100
AcDbVertex
100
AcDb3dPolylineVertex
10
748693.331606023
20
8930225.49321014
30
181.433295097351
70
32
0
VERTEX
5
187
100
AcDbEntity
8
Real Hole
62
1
420
16711680
100
AcDbVertex
100
AcDb3dPolylineVertex
10
748693.441362433
20
8930225.24807602
30
180.470038261414
70
32
0
VERTEX
5
188
100
AcDbEntity
8
Real Hole
62
1
420
16711680
100
AcDbVertex
100
AcDb3dPolylineVertex
10
748693.467446857
20
8930225.17969614
30
180.179101791382
70
32
0
SEQEND
5
189
100
AcDbEntity
8
Real Hole
0
POINT
5
18B
330
1A
100
AcDbEntity
67
0
8
Hole
62
244
420
659967
6
ByLayer
370
-1
48
1.0
60
0
100
AcDbPoint
10
748693.800000839
20
8930227.98000008
30
190.050000038147
39
0.0
210
0.0
220
0.0
230
1.0
50
360.0
0
LINE
5
18C
330
1A
100
AcDbEntity
67
0
8
Theoretical Hole
62
244
420
659967
6
ByLayer
370
-1
48
1.0
60
0
100
AcDbLine
10
748693.800000839
20
8930227.98000008
30
190.050000038147
11
748694.575505905
21
8930225.43709045
31
180.016226854324
39
0.0
210
0.0
220
0.0
230
1.0
0
TEXT
5
18D
330
1A
100
AcDbEntity
67
0
8
Number
62
244
420
659967
6
ByLayer
370
-1
48
1.0
60
0
100
AcDbText
1
24
10
748693.800000839
20
8930228.28600007
30
190.050000038147
40
0.3
41
1.0
50
0.0
51
0.0
7
Standard
11
748693.800000839
21
8930228.28600007
31
190.050000038147
210
0.0
220
0.0
230
1.0
72
0
100
AcDbText
73
0
0
TEXT
5
18E
330
1A
100
AcDbEntity
67
0
8
label
62
1
420
16711680
6
ByLayer
370
-1
48
1.0
60
0
100
AcDbText
1

10
748693.800000839
20
8930228.68600007
30
190.050000038147
40
0.3
41
1.0
50
0.0
51
0.0
7
Standard
11
748693.800000839
21
8930228.68600007
31
190.050000038147
210
0.0
220
0.0
230
1.0
72
0
100
AcDbText
73
0
0
TEXT
5
18F
330
1A
100
AcDbEntity
67
0
8
Length
62
244
420
659967
6
ByLayer
370
-1
48
1.0
60
0
100
AcDbText
1
10.38
10
748693.800000839
20
8930227.27600008
30
190.050000038147
40
0.3
41
1.0
50
0.0
51
0.0
7
Standard
11
748693.800000839
21
8930227.27600008
31
190.050000038147
210
0.0
220
0.0
230
1.0
72
0
100
AcDbText
73
0
0
POLYLINE
5
19D
330
1A
100
AcDbEntity
67
0
8
Real Hole
62
1
420
16711680
6
ByLayer
370
-1
48
1.0
60
0
100
AcDb3dPolyline
10
0.0
20
0.0
30
0.0
70
8
75
0
210
0.0
220
0.0
230
1.0
0
VERTEX
5
190
100
AcDbEntity
8
Real Hole
62
1
420
16711680
100
AcDbVertex
100
AcDb3dPolylineVertex
10
748693.800000839
20
8930227.98000008
30
190.050000038147
70
32
0
VERTEX
5
191
100
AcDbEntity
8
Real Hole
62
1
420
16711680
100
AcDbVertex
100
AcDb3dPolylineVertex
10
748693.887749508
20
8930227.78438534
30
189.073252882957
70
32
0
VERTEX
5
192
100
AcDbEntity
8
Real Hole
62
1
420
16711680
100
AcDbVertex
100
AcDb3dPolylineVertex
10
748693.990082957
20
8930227.6071386
30
188.094421234131
70
32
0
VERTEX
5
193
100
AcDbEntity
8
Real Hole
62
1
420
16711680
100
AcDbVertex
100
AcDb3dPolylineVertex
10
748694.071465306
20
8930227.37500697
30
187.125147428513
70
32
0
VERTEX
5
194
100
AcDbEntity
8
Real Hole
62
1
420
16711680
100
AcDbVertex
100
AcDb3dPolylineVertex
10
748694.165770583
20
8930227.19993621
30
186.145118322372
70
32
0
VERTEX
5
195
100
AcDbEntity
8
Real Hole
62
1
420
16711680
100
AcDbVertex
100
AcDb3dPolylineVertex
10
748694.265004181
20
8930226.98507649
30
185.17352804184
70
32
0
VERTEX
5
196
100
AcDbEntity
8
Real Hole
62
1
420
16711680
100
AcDbVertex
100
AcDb3dPolylineVertex
10
748694.385077589
20
8930226.76729446
30
184.204944934845
70
32
0
VERTEX
5
197
100
AcDbEntity
8
Real Hole
62
1
420
16711680
100
AcDbVertex
100
AcDb3dPolylineVertex
10
748694.502458446
20
8930226.57559615
30
183.230535354614
70
32
0
VERTEX
5
198
100
AcDbEntity
8
Real Hole
62
1
420
16711680
100
AcDbVertex
100
AcDb3dPolylineVertex
10
748694.620354407
20
8930226.40021449
30
182.253119316101
70
32
0
VERTEX
5
199
100
AcDbEntity
8
Real Hole
62
1
420
16711680
100
AcDbVertex
100
AcDb3dPolylineVertex
10
748694.736196392
20
8930226.21879858
30
181.276559677124
70
32
0
VERTEX
5
19A
100
AcDbEntity
8
Real Hole
62
1
420
16711680
100
AcDbVertex
100
AcDb3dPolylineVertex
10
748694.842508965
20
8930226.03576809
30
180.299218025208
70
32
0
VERTEX
5
19B
100
AcDbEntity
8
Real Hole
62
1
420
16711680
100
AcDbVertex
100
AcDb3dPolylineVertex
10
748694.923822336
20
8930225.9160741
30
179.61433681488
70
32
0
SEQEND
5
19C
100
AcDbEntity
8
Real Hole
0
POINT
5
19E
330
1A
100
AcDbEntity
67
0
8
Hole
62
244
420
659967
6
ByLayer
370
-1
48
1.0
60
0
100
AcDbPoint
10
748694.940000229
20
8930228.33000046
30
189.949999656677
39
0.0
210
0.0
220
0.0
230
1.0
50
360.0
0
LINE
5
19F
330
1A
100
AcDbEntity
67
0
8
Theoretical Hole
62
244
420
659967
6
ByLayer
370
-1
48
1.0
60
0
100
AcDbLine
10
748694.940000229
20
8930228.33000046
30
189.949999656677
11
748695.80387085
21
8930225.88779884
31
180.012078490257
39
0.0
210
0.0
220
0.0
230
1.0
0
TEXT
5
1A0
330
1A
100
AcDbEntity
67
0
8
Number
62
244
420
659967
6
ByLayer
370
-1
48
1.0
60
0
100
AcDbText
1
25
10
748694.940000229
20
8930228.63600045
30
189.949999656677
40
0.3
41
1.0
50
0.0
51
0.0
7
Standard
11
748694.940000229
21
8930228.63600045
31
189.949999656677
210
0.0
220
0.0
230
1.0
72
0
100
AcDbText
73
0
0
TEXT
5
1A1
330
1A
100
AcDbEntity
67
0
8
label
62
1
420
16711680
6
ByLayer
370
-1
48
1.0
60
0
100
AcDbText
1

10
748694.940000229
20
8930229.03600045
30
189.949999656677
40
0.3
41
1.0
50
0.0
51
0.0
7
Standard
11
748694.940000229
21
8930229.03600045
31
189.949999656677
210
0.0
220
0.0
230
1.0
72
0
100
AcDbText
73
0
0
TEXT
5
1A2
330
1A
100
AcDbEntity
67
0
8
Length
62
244
420
659967
6
ByLayer
370
-1
48
1.0
60
0
100
AcDbText
1
10.27
10
748694.940000229
20
8930227.62600046
30
189.949999656677
40
0.3
41
1.0
50
0.0
51
0.0
7
Standard
11
748694.940000229
21
8930227.62600046
31
189.949999656677
210
0.0
220
0.0
230
1.0
72
0
100
AcDbText
73
0
0
POLYLINE
5
1B0
330
1A
100
AcDbEntity
67
0
8
Real Hole
62
1
420
16711680
6
ByLayer
370
-1
48
1.0
60
0
100
AcDb3dPolyline
10
0.0
20
0.0
30
0.0
70
8
75
0
210
0.0
220
0.0
230
1.0
0
VERTEX
5
1A3
100
AcDbEntity
8
Real Hole
62
1
420
16711680
100
AcDbVertex
100
AcDb3dPolylineVertex
10
748694.940000229
20
8930228.33000046
30
189.949999656677
70
32
0
VERTEX
5
1A4
100
AcDbEntity
8
Real Hole
62
1
420
16711680
100
AcDbVertex
100
AcDb3dPolylineVertex
10
748694.992219303
20
8930228.12241424
30
188.973177697659
70
32
0
VERTEX
5
1A5
100
AcDbEntity
8
Real Hole
62
1
420
16711680
100
AcDbVertex
100
AcDb3dPolylineVertex
10
748695.053429976
20
8930227.93447363
30
187.992906537056
70
32
0
VERTEX
5
1A6
100
AcDbEntity
8
Real Hole
62
1
420
16711680
100
AcDbVertex
100
AcDb3dPolylineVertex
10
748695.073105105
20
8930227.70867789
30
187.018930521011
70
32
0
VERTEX
5
1A7
100
AcDbEntity
8
Real Hole
62
1
420
16711680
100
AcDbVertex
100
AcDb3dPolylineVertex
10
748695.123603993
20
8930227.49768621
30
186.042748060226
70
32
0
VERTEX
5
1A8
100
AcDbEntity
8
Real Hole
62
1
420
16711680
100
AcDbVertex
100
AcDb3dPolylineVertex
10
748695.161463417
20
8930227.2965514
30
185.063916530609
70
32
0
VERTEX
5
1A9
100
AcDbEntity
8
Real Hole
62
1
420
16711680
100
AcDbVertex
100
AcDb3dPolylineVertex
10
748695.21694585
20
8930227.11416608
30
184.082255687714
70
32
0
VERTEX
5
1AA
100
AcDbEntity
8
Real Hole
62
1
420
16711680
100
AcDbVertex
100
AcDb3dPolylineVertex
10
748695.288745575
20
8930226.91197091
30
183.105546321869
70
32
0
VERTEX
5
1AB
100
AcDbEntity
8
Real Hole
62
1
420
16711680
100
AcDbVertex
100
AcDb3dPolylineVertex
10
748695.358177327
20
8930226.71021217
30
182.128575172424
70
32
0
VERTEX
5
1AC
100
AcDbEntity
8
Real Hole
62
1
420
16711680
100
AcDbVertex
100
AcDb3dPolylineVertex
10
748695.422042035
20
8930226.52804714
30
181.147383537292
70
32
0
VERTEX
5
1AD
100
AcDbEntity
8
Real Hole
62
1
420
16711680
100
AcDbVertex
100
AcDb3dPolylineVertex
10
748695.480447643
20
8930226.3514449
30
180.164835777283
70
32
0
VERTEX
5
1AE
100
AcDbEntity
8
Real Hole
62
1
420
16711680
100
AcDbVertex
100
AcDb3dPolylineVertex
10
748695.490363531
20
8930226.30014521
30
179.869419898987
70
32
0
SEQEND
5
1AF
100
AcDbEntity
8
Real Hole
0
POINT
5
1B1
330
1A
100
AcDbEntity
67
0
8
Hole
62
244
420
659967
6
ByLayer
370
-1
48
1.0
60
0
100
AcDbPoint
10
748696.079999619
20
8930228.73000008
30
189.869999732971
39
0.0
210
0.0
220
0.0
230
1.0
50
360.0
0
LINE
5
1B2
330
1A
100
AcDbEntity
67
0
8
Theoretical Hole
62
244
420
659967
6
ByLayer
370
-1
48
1.0
60
0
100
AcDbLine
10
748696.079999619
20
8930228.73000008
30
189.869999732971
11
748697.026801758
21
8930226.38658196
31
180.019066896439
39
0.0
210
0.0
220
0.0
230
1.0
0
TEXT
5
1B3
330
1A
100
AcDbEntity
67
0
8
Number
62
244
420
659967
6
ByLayer
370
-1
48
1.0
60
0
100
AcDbText
1
26
10
748696.079999619
20
8930229.03600007
30
189.869999732971
40
0.3
41
1.0
50
0.0
51
0.0
7
Standard
11
748696.079999619
21
8930229.03600007
31
189.869999732971
210
0.0
220
0.0
230
1.0
72
0
100
AcDbText
73
0
0
TEXT
5
1B4
330
1A
100
AcDbEntity
67
0
8
label
62
1
420
16711680
6
ByLayer
370
-1
48
1.0
60
0
100
AcDbText
1

10
748696.079999619
20
8930229.43600007
30
189.869999732971
40
0.3
41
1.0
50
0.0
51
0.0
7
Standard
11
748696.079999619
21
8930229.43600007
31
189.869999732971
210
0.0
220
0.0
230
1.0
72
0
100
AcDbText
73
0
0
TEXT
5
1B5
330
1A
100
AcDbEntity
67
0
8
Length
62
244
420
659967
6
ByLayer
370
-1
48
1.0
60
0
100
AcDbText
1
10.17
10
748696.079999619
20
8930228.02600008
30
189.869999732971
40
0.3
41
1.0
50
0.0
51
0.0
7
Standard
11
748696.079999619
21
8930228.02600008
31
189.869999732971
210
0.0
220
0.0
230
1.0
72
0
100
AcDbText
73
0
0
POLYLINE
5
1C3
330
1A
100
AcDbEntity
67
0
8
Real Hole
62
1
420
16711680
6
ByLayer
370
-1
48
1.0
60
0
100
AcDb3dPolyline
10
0.0
20
0.0
30
0.0
70
8
75
0
210
0.0
220
0.0
230
1.0
0
VERTEX
5
1B6
100
AcDbEntity
8
Real Hole
62
1
420
16711680
100
AcDbVertex
100
AcDb3dPolylineVertex
10
748696.079999619
20
8930228.73000008
30
189.869999732971
70
32
0
VERTEX
5
1B7
100
AcDbEntity
8
Real Hole
62
1
420
16711680
100
AcDbVertex
100
AcDb3dPolylineVertex
10
748696.146925129
20
8930228.5498504
30
188.888639953136
70
32
0
VERTEX
5
1B8
100
AcDbEntity
8
Real Hole
62
1
420
16711680
100
AcDbVertex
100
AcDb3dPolylineVertex
10
748696.2162432
20
8930228.39496046
30
187.903143014908
70
32
0
VERTEX
5
1B9
100
AcDbEntity
8
Real Hole
62
1
420
16711680
100
AcDbVertex
100
AcDb3dPolylineVertex
10
748696.238310896
20
8930228.19475311
30
186.923637952805
70
32
0
VERTEX
5
1BA
100
AcDbEntity
8
Real Hole
62
1
420
16711680
100
AcDbVertex
100
AcDb3dPolylineVertex
10
748696.299889632
20
8930227.99545502
30
185.945635881424
70
32
0
VERTEX
5
1BB
100
AcDbEntity
8
Real Hole
62
1
420
16711680
100
AcDbVertex
100
AcDb3dPolylineVertex
10
748696.326265224
20
8930227.80215591
30
184.964850749969
70
32
0
VERTEX
5
1BC
100
AcDbEntity
8
Real Hole
62
1
420
16711680
100
AcDbVertex
100
AcDb3dPolylineVertex
10
748696.369653218
20
8930227.61195153
30
183.984065380096
70
32
0
VERTEX
5
1BD
100
AcDbEntity
8
Real Hole
62
1
420
16711680
100
AcDbVertex
100
AcDb3dPolylineVertex
10
748696.415043854
20
8930227.42186302
30
183.003348197937
70
32
0
VERTEX
5
1BE
100
AcDbEntity
8
Real Hole
62
1
420
16711680
100
AcDbVertex
100
AcDb3dPolylineVertex
10
748696.468275302
20
8930227.23399752
30
182.022597160339
70
32
0
VERTEX
5
1BF
100
AcDbEntity
8
Real Hole
62
1
420
16711680
100
AcDbVertex
100
AcDb3dPolylineVertex
10
748696.506567084
20
8930227.05881625
30
181.038805809021
70
32
0
VERTEX
5
1C0
100
AcDbEntity
8
Real Hole
62
1
420
16711680
100
AcDbVertex
100
AcDb3dPolylineVertex
10
748696.558475249
20
8930226.88807362
30
180.054858055115
70
32
0
VERTEX
5
1C1
100
AcDbEntity
8
Real Hole
62
1
420
16711680
100
AcDbVertex
100
AcDb3dPolylineVertex
10
748696.570117317
20
8930226.85799628
30
179.857476081848
70
32
0
SEQEND
5
1C2
100
AcDbEntity
8
Real Hole
0
POINT
5
1C4
330
1A
100
AcDbEntity
67
0
8
Hole
62
244
420
659967
6
ByLayer
370
-1
48
1.0
60
0
100
AcDbPoint
10
748697.190000229
20
8930229.18000084
30
189.770000305176
39
0.0
210
0.0
220
0.0
230
1.0
50
360.0
0
LINE
5
1C5
330
1A
100
AcDbEntity
67
0
8
Theoretical Hole
62
244
420
659967
6
ByLayer
370
-1
48
1.0
60
0
100
AcDbLine
10
748697.190000229
20
8930229.18000084
30
189.770000305176
11
748698.25059288
21
8930226.88045364
31
180.013279523849
39
0.0
210
0.0
220
0.0
230
1.0
0
TEXT
5
1C6
330
1A
100
AcDbEntity
67
0
8
Number
62
244
420
659967
6
ByLayer
370
-1
48
1.0
60
0
100
AcDbText
1
27
10
748697.190000229
20
8930229.48600083
30
189.770000305176
40
0.3
41
1.0
50
0.0
51
0.0
7
Standard
11
748697.190000229
21
8930229.48600083
31
189.770000305176
210
0.0
220
0.0
230
1.0
72
0
100
AcDbText
73
0
0
TEXT
5
1C7
330
1A
100
AcDbEntity
67
0
8
label
62
1
420
16711680
6
ByLayer
370
-1
48
1.0
60
0
100
AcDbText
1

10
748697.190000229
20
8930229.88600083
30
189.770000305176
40
0.3
41
1.0
50
0.0
51
0.0
7
Standard
11
748697.190000229
21
8930229.88600083
31
189.770000305176
210
0.0
220
0.0
230
1.0
72
0
100
AcDbText
73
0
0
TEXT
5
1C8
330
1A
100
AcDbEntity
67
0
8
Length
62
244
420
659967
6
ByLayer
370
-1
48
1.0
60
0
100
AcDbText
1
10.08
10
748697.190000229
20
8930228.47600084
30
189.770000305176
40
0.3
41
1.0
50
0.0
51
0.0
7
Standard
11
748697.190000229
21
8930228.47600084
31
189.770000305176
210
0.0
220
0.0
230
1.0
72
0
100
AcDbText
73
0
0
POLYLINE
5
1D5
330
1A
100
AcDbEntity
67
0
8
Real Hole
62
1
420
16711680
6
ByLayer
370
-1
48
1.0
60
0
100
AcDb3dPolyline
10
0.0
20
0.0
30
0.0
70
8
75
0
210
0.0
220
0.0
230
1.0
0
VERTEX
5
1C9
100
AcDbEntity
8
Real Hole
62
1
420
16711680
100
AcDbVertex
100
AcDb3dPolylineVertex
10
748697.190000229
20
8930229.18000084
30
189.770000305176
70
32
0
VERTEX
5
1CA
100
AcDbEntity
8
Real Hole
62
1
420
16711680
100
AcDbVertex
100
AcDb3dPolylineVertex
10
748697.287143179
20
8930228.95070152
30
188.801504042149
70
32
0
VERTEX
5
1CB
100
AcDbEntity
8
Real Hole
62
1
420
16711680
100
AcDbVertex
100
AcDb3dPolylineVertex
10
748697.394093715
20
8930228.75048509
30
187.827607240677
70
32
0
VERTEX
5
1CC
100
AcDbEntity
8
Real Hole
62
1
420
16711680
100
AcDbVertex
100
AcDb3dPolylineVertex
10
748697.473178141
20
8930228.54262179
30
186.8526516819
70
32
0
VERTEX
5
1CD
100
AcDbEntity
8
Real Hole
62
1
420
16711680
100
AcDbVertex
100
AcDb3dPolylineVertex
10
748697.558183395
20
8930228.34970671
30
185.875125255585
70
32
0
VERTEX
5
1CE
100
AcDbEntity
8
Real Hole
62
1
420
16711680
100
AcDbVertex
100
AcDb3dPolylineVertex
10
748697.626057349
20
8930228.11362415
30
184.905765380859
70
32
0
VERTEX
5
1CF
100
AcDbEntity
8
Real Hole
62
1
420
16711680
100
AcDbVertex
100
AcDb3dPolylineVertex
10
748697.724990838
20
8930227.90951615
30
183.931829299927
70
32
0
VERTEX
5
1D0
100
AcDbEntity
8
Real Hole
62
1
420
16711680
100
AcDbVertex
100
AcDb3dPolylineVertex
10
748697.797531776
20
8930227.6831705
30
182.960487213135
70
32
0
VERTEX
5
1D1
100
AcDbEntity
8
Real Hole
62
1
420
16711680
100
AcDbVertex
100
AcDb3dPolylineVertex
10
748697.871440046
20
8930227.45228129
30
181.990318145752
70
32
0
VERTEX
5
1D2
100
AcDbEntity
8
Real Hole
62
1
420
16711680
100
AcDbVertex
100
AcDb3dPolylineVertex
10
748697.955497139
20
8930227.21661204
30
181.022126998901
70
32
0
VERTEX
5
1D3
100
AcDbEntity
8
Real Hole
62
1
420
16711680
100
AcDbVertex
100
AcDb3dPolylineVertex
10
748697.993788176
20
8930227.12538749
30
180.634554710388
70
32
0
SEQEND
5
1D4
100
AcDbEntity
8
Real Hole
0
POINT
5
1D6
330
1A
100
AcDbEntity
67
0
8
Hole
62
244
420
659967
6
ByLayer
370
-1
48
1.0
60
0
100
AcDbPoint
10
748698.280000382
20
8930229.68000084
30
189.730000343323
39
0.0
210
0.0
220
0.0
230
1.0
50
360.0
0
LINE
5
1D7
330
1A
100
AcDbEntity
67
0
8
Theoretical Hole
62
244
420
659967
6
ByLayer
370
-1
48
1.0
60
0
100
AcDbLine
10
748698.280000382
20
8930229.68000084
30
189.730000343323
11
748699.459083252
21
8930227.40337425
31
180.012530651093
39
0.0
210
0.0
220
0.0
230
1.0
0
TEXT
5
1D8
330
1A
100
AcDbEntity
67
0
8
Number
62
244
420
659967
6
ByLayer
370
-1
48
1.0
60
0
100
AcDbText
1
28
10
748698.280000382
20
8930229.98600083
30
189.730000343323
40
0.3
41
1.0
50
0.0
51
0.0
7
Standard
11
748698.280000382
21
8930229.98600083
31
189.730000343323
210
0.0
220
0.0
230
1.0
72
0
100
AcDbText
73
0
0
TEXT
5
1D9
330
1A
100
AcDbEntity
67
0
8
label
62
1
420
16711680
6
ByLayer
370
-1
48
1.0
60
0
100
AcDbText
1

10
748698.280000382
20
8930230.38600083
30
189.730000343323
40
0.3
41
1.0
50
0.0
51
0.0
7
Standard
11
748698.280000382
21
8930230.38600083
31
189.730000343323
210
0.0
220
0.0
230
1.0
72
0
100
AcDbText
73
0
0
TEXT
5
1DA
330
1A
100
AcDbEntity
67
0
8
Length
62
244
420
659967
6
ByLayer
370
-1
48
1.0
60
0
100
AcDbText
1
10.05
10
748698.280000382
20
8930228.97600084
30
189.730000343323
40
0.3
41
1.0
50
0.0
51
0.0
7
Standard
11
748698.280000382
21
8930228.97600084
31
189.730000343323
210
0.0
220
0.0
230
1.0
72
0
100
AcDbText
73
0
0
POLYLINE
5
1E7
330
1A
100
AcDbEntity
67
0
8
Real Hole
62
1
420
16711680
6
ByLayer
370
-1
48
1.0
60
0
100
AcDb3dPolyline
10
0.0
20
0.0
30
0.0
70
8
75
0
210
0.0
220
0.0
230
1.0
0
VERTEX
5
1DB
100
AcDbEntity
8
Real Hole
62
1
420
16711680
100
AcDbVertex
100
AcDb3dPolylineVertex
10
748698.280000382
20
8930229.68000084
30
189.730000343323
70
32
0
VERTEX
5
1DC
100
AcDbEntity
8
Real Hole
62
1
420
16711680
100
AcDbVertex
100
AcDb3dPolylineVertex
10
748698.383510515
20
8930229.47037981
30
188.75771197319
70
32
0
VERTEX
5
1DD
100
AcDbEntity
8
Real Hole
62
1
420
16711680
100
AcDbVertex
100
AcDb3dPolylineVertex
10
748698.47081808
20
8930229.24222198
30
187.788010325432
70
32
0
VERTEX
5
1DE
100
AcDbEntity
8
Real Hole
62
1
420
16711680
100
AcDbVertex
100
AcDb3dPolylineVertex
10
748698.608059399
20
8930229.0502423
30
186.816254940033
70
32
0
VERTEX
5
1DF
100
AcDbEntity
8
Real Hole
62
1
420
16711680
100
AcDbVertex
100
AcDb3dPolylineVertex
10
748698.722663634
20
8930228.84940123
30
185.843357648849
70
32
0
VERTEX
5
1E0
100
AcDbEntity
8
Real Hole
62
1
420
16711680
100
AcDbVertex
100
AcDb3dPolylineVertex
10
748698.872233563
20
8930228.64734274
30
184.875472869873
70
32
0
VERTEX
5
1E1
100
AcDbEntity
8
Real Hole
62
1
420
16711680
100
AcDbVertex
100
AcDb3dPolylineVertex
10
748699.030231528
20
8930228.4666087
30
183.904714431763
70
32
0
VERTEX
5
1E2
100
AcDbEntity
8
Real Hole
62
1
420
16711680
100
AcDbVertex
100
AcDb3dPolylineVertex
10
748699.183914535
20
8930228.29771334
30
182.931135501862
70
32
0
VERTEX
5
1E3
100
AcDbEntity
8
Real Hole
62
1
420
16711680
100
AcDbVertex
100
AcDb3dPolylineVertex
10
748699.331817918
20
8930228.13482731
30
181.955639209747
70
32
0
VERTEX
5
1E4
100
AcDbEntity
8
Real Hole
62
1
420
16711680
100
AcDbVertex
100
AcDb3dPolylineVertex
10
748699.482010775
20
8930227.9918006
30
180.977383460999
70
32
0
VERTEX
5
1E5
100
AcDbEntity
8
Real Hole
62
1
420
16711680
100
AcDbVertex
100
AcDb3dPolylineVertex
10
748699.636559897
20
8930227.82990449
30
180.105658378601
70
32
0
SEQEND
5
1E6
100
AcDbEntity
8
Real Hole
0
POINT
5
1E8
330
1A
100
AcDbEntity
67
0
8
Hole
62
244
420
659967
6
ByLayer
370
-1
48
1.0
60
0
100
AcDbPoint
10
748699.339999847
20
8930230.23000008
30
189.699999656677
39
0.0
210
0.0
220
0.0
230
1.0
50
360.0
0
LINE
5
1E9
330
1A
100
AcDbEntity
67
0
8
Theoretical Hole
62
244
420
659967
6
ByLayer
370
-1
48
1.0
60
0
100
AcDbLine
10
748699.339999847
20
8930230.23000008
30
189.699999656677
11
748700.639148407
21
8930227.95327431
31
180.018592443466
39
0.0
210
0.0
220
0.0
230
1.0
0
TEXT
5
1EA
330
1A
100
AcDbEntity
67
0
8
Number
62
244
420
659967
6
ByLayer
370
-1
48
1.0
60
0
100
AcDbText
1
29
10
748699.339999847
20
8930230.53600007
30
189.699999656677
40
0.3
41
1.0
50
0.0
51
0.0
7
Standard
11
748699.339999847
21
8930230.53600007
31
189.699999656677
210
0.0
220
0.0
230
1.0
72
0
100
AcDbText
73
0
0
TEXT
5
1EB
330
1A
100
AcDbEntity
67
0
8
label
62
1
420
16711680
6
ByLayer
370
-1
48
1.0
60
0
100
AcDbText
1

10
748699.339999847
20
8930230.93600007
30
189.699999656677
40
0.3
41
1.0
50
0.0
51
0.0
7
Standard
11
748699.339999847
21
8930230.93600007
31
189.699999656677
210
0.0
220
0.0
230
1.0
72
0
100
AcDbText
73
0
0
TEXT
5
1EC
330
1A
100
AcDbEntity
67
0
8
Length
62
244
420
659967
6
ByLayer
370
-1
48
1.0
60
0
100
AcDbText
1
10.03
10
748699.339999847
20
8930229.52600008
30
189.699999656677
40
0.3
41
1.0
50
0.0
51
0.0
7
Standard
11
748699.339999847
21
8930229.52600008
31
189.699999656677
210
0.0
220
0.0
230
1.0
72
0
100
AcDbText
73
0
0
POLYLINE
5
1F9
330
1A
100
AcDbEntity
67
0
8
Real Hole
62
1
420
16711680
6
ByLayer
370
-1
48
1.0
60
0
100
AcDb3dPolyline
10
0.0
20
0.0
30
0.0
70
8
75
0
210
0.0
220
0.0
230
1.0
0
VERTEX
5
1ED
100
AcDbEntity
8
Real Hole
62
1
420
16711680
100
AcDbVertex
100
AcDb3dPolylineVertex
10
748699.339999847
20
8930230.23000008
30
189.699999656677
70
32
0
VERTEX
5
1EE
100
AcDbEntity
8
Real Hole
62
1
420
16711680
100
AcDbVertex
100
AcDb3dPolylineVertex
10
748699.432405681
20
8930230.05973889
30
188.718942906857
70
32
0
VERTEX
5
1EF
100
AcDbEntity
8
Real Hole
62
1
420
16711680
100
AcDbVertex
100
AcDb3dPolylineVertex
10
748699.521630161
20
8930229.90976602
30
187.734287109375
70
32
0
VERTEX
5
1F0
100
AcDbEntity
8
Real Hole
62
1
420
16711680
100
AcDbVertex
100
AcDb3dPolylineVertex
10
748699.604158335
20
8930229.76228058
30
186.748672094345
70
32
0
VERTEX
5
1F1
100
AcDbEntity
8
Real Hole
62
1
420
16711680
100
AcDbVertex
100
AcDb3dPolylineVertex
10
748699.714984559
20
8930229.57458472
30
185.772717084885
70
32
0
VERTEX
5
1F2
100
AcDbEntity
8
Real Hole
62
1
420
16711680
100
AcDbVertex
100
AcDb3dPolylineVertex
10
748699.796437644
20
8930229.40526211
30
184.790528144836
70
32
0
VERTEX
5
1F3
100
AcDbEntity
8
Real Hole
62
1
420
16711680
100
AcDbVertex
100
AcDb3dPolylineVertex
10
748699.895940058
20
8930229.26336884
30
183.805659618378
70
32
0
VERTEX
5
1F4
100
AcDbEntity
8
Real Hole
62
1
420
16711680
100
AcDbVertex
100
AcDb3dPolylineVertex
10
748699.984452837
20
8930229.07637209
30
182.827295150757
70
32
0
VERTEX
5
1F5
100
AcDbEntity
8
Real Hole
62
1
420
16711680
100
AcDbVertex
100
AcDb3dPolylineVertex
10
748700.084231906
20
8930228.90396684
30
181.847335662842
70
32
0
VERTEX
5
1F6
100
AcDbEntity
8
Real Hole
62
1
420
16711680
100
AcDbVertex
100
AcDb3dPolylineVertex
10
748700.16561585
20
8930228.74533862
30
180.863357391357
70
32
0
VERTEX
5
1F7
100
AcDbEntity
8
Real Hole
62
1
420
16711680
100
AcDbVertex
100
AcDb3dPolylineVertex
10
748700.213963561
20
8930228.66528648
30
180.372180786133
70
32
0
SEQEND
5
1F8
100
AcDbEntity
8
Real Hole
0
POINT
5
1FA
330
1A
100
AcDbEntity
67
0
8
Hole
62
244
420
659967
6
ByLayer
370
-1
48
1.0
60
0
100
AcDbPoint
10
748700.389999085
20
8930230.83000046
30
189.699999656677
39
0.0
210
0.0
220
0.0
230
1.0
50
360.0
0
LINE
5
1FB
330
1A
100
AcDbEntity
67
0
8
Theoretical Hole
62
244
420
659967
6
ByLayer
370
-1
48
1.0
60
0
100
AcDbLine
10
748700.389999085
20
8930230.83000046
30
189.699999656677
11
748701.828456574
21
8930228.55194717
31
180.017861690521
39
0.0
210
0.0
220
0.0
230
1.0
0
TEXT
5
1FC
330
1A
100
AcDbEntity
67
0
8
Number
62
244
420
659967
6
ByLayer
370
-1
48
1.0
60
0
100
AcDbText
1
30
10
748700.389999085
20
8930231.13600045
30
189.699999656677
40
0.3
41
1.0
50
0.0
51
0.0
7
Standard
11
748700.389999085
21
8930231.13600045
31
189.699999656677
210
0.0
220
0.0
230
1.0
72
0
100
AcDbText
73
0
0
TEXT
5
1FD
330
1A
100
AcDbEntity
67
0
8
label
62
1
420
16711680
6
ByLayer
370
-1
48
1.0
60
0
100
AcDbText
1

10
748700.389999085
20
8930231.53600045
30
189.699999656677
40
0.3
41
1.0
50
0.0
51
0.0
7
Standard
11
748700.389999085
21
8930231.53600045
31
189.699999656677
210
0.0
220
0.0
230
1.0
72
0
100
AcDbText
73
0
0
TEXT
5
1FE
330
1A
100
AcDbEntity
67
0
8
Length
62
244
420
659967
6
ByLayer
370
-1
48
1.0
60
0
100
AcDbText
1
10.05
10
748700.389999085
20
8930230.12600046
30
189.699999656677
40
0.3
41
1.0
50
0.0
51
0.0
7
Standard
11
748700.389999085
21
8930230.12600046
31
189.699999656677
210
0.0
220
0.0
230
1.0
72
0
100
AcDbText
73
0
0
POLYLINE
5
20B
330
1A
100
AcDbEntity
67
0
8
Real Hole
62
1
420
16711680
6
ByLayer
370
-1
48
1.0
60
0
100
AcDb3dPolyline
10
0.0
20
0.0
30
0.0
70
8
75
0
210
0.0
220
0.0
230
1.0
0
VERTEX
5
1FF
100
AcDbEntity
8
Real Hole
62
1
420
16711680
100
AcDbVertex
100
AcDb3dPolylineVertex
10
748700.389999085
20
8930230.83000046
30
189.699999656677
70
32
0
VERTEX
5
200
100
AcDbEntity
8
Real Hole
62
1
420
16711680
100
AcDbVertex
100
AcDb3dPolylineVertex
10
748700.520993732
20
8930230.59996943
30
188.735672857761
70
32
0
VERTEX
5
201
100
AcDbEntity
8
Real Hole
62
1
420
16711680
100
AcDbVertex
100
AcDb3dPolylineVertex
10
748700.652131163
20
8930230.37546459
30
187.770063962936
70
32
0
VERTEX
5
202
100
AcDbEntity
8
Real Hole
62
1
420
16711680
100
AcDbVertex
100
AcDb3dPolylineVertex
10
748700.734682076
20
8930230.13283402
30
186.803463783264
70
32
0
VERTEX
5
203
100
AcDbEntity
8
Real Hole
62
1
420
16711680
100
AcDbVertex
100
AcDb3dPolylineVertex
10
748700.846728199
20
8930229.8691259
30
185.845390882492
70
32
0
VERTEX
5
204
100
AcDbEntity
8
Real Hole
62
1
420
16711680
100
AcDbVertex
100
AcDb3dPolylineVertex
10
748700.959562414
20
8930229.61617142
30
184.884515132904
70
32
0
VERTEX
5
205
100
AcDbEntity
8
Real Hole
62
1
420
16711680
100
AcDbVertex
100
AcDb3dPolylineVertex
10
748701.055507891
20
8930229.35455423
30
183.924124088287
70
32
0
VERTEX
5
206
100
AcDbEntity
8
Real Hole
62
1
420
16711680
100
AcDbVertex
100
AcDb3dPolylineVertex
10
748701.187434249
20
8930229.09663647
30
182.967006530762
70
32
0
VERTEX
5
207
100
AcDbEntity
8
Real Hole
62
1
420
16711680
100
AcDbVertex
100
AcDb3dPolylineVertex
10
748701.322591
20
8930228.86376005
30
182.003938045502
70
32
0
VERTEX
5
208
100
AcDbEntity
8
Real Hole
62
1
420
16711680
100
AcDbVertex
100
AcDb3dPolylineVertex
10
748701.46841126
20
8930228.62728768
30
181.043304290771
70
32
0
VERTEX
5
209
100
AcDbEntity
8
Real Hole
62
1
420
16711680
100
AcDbVertex
100
AcDb3dPolylineVertex
10
748701.496776633
20
8930228.58310419
30
180.850318756104
70
32
0
SEQEND
5
20A
100
AcDbEntity
8
Real Hole
0
POINT
5
20C
330
1A
100
AcDbEntity
67
0
8
Hole
62
244
420
659967
6
ByLayer
370
-1
48
1.0
60
0
100
AcDbPoint
10
748701.400001221
20
8930231.46999985
30
189.73999961853
39
0.0
210
0.0
220
0.0
230
1.0
50
360.0
0
LINE
5
20D
330
1A
100
AcDbEntity
67
0
8
Theoretical Hole
62
244
420
659967
6
ByLayer
370
-1
48
1.0
60
0
100
AcDbLine
10
748701.400001221
20
8930231.46999985
30
189.73999961853
11
748702.964008026
21
8930229.18411499
31
180.016795363426
39
0.0
210
0.0
220
0.0
230
1.0
0
TEXT
5
20E
330
1A
100
AcDbEntity
67
0
8
Number
62
244
420
659967
6
ByLayer
370
-1
48
1.0
60
0
100
AcDbText
1
31
10
748701.400001221
20
8930231.77599984
30
189.73999961853
40
0.3
41
1.0
50
0.0
51
0.0
7
Standard
11
748701.400001221
21
8930231.77599984
31
189.73999961853
210
0.0
220
0.0
230
1.0
72
0
100
AcDbText
73
0
0
TEXT
5
20F
330
1A
100
AcDbEntity
67
0
8
label
62
1
420
16711680
6
ByLayer
370
-1
48
1.0
60
0
100
AcDbText
1

10
748701.400001221
20
8930232.17599984
30
189.73999961853
40
0.3
41
1.0
50
0.0
51
0.0
7
Standard
11
748701.400001221
21
8930232.17599984
31
189.73999961853
210
0.0
220
0.0
230
1.0
72
0
100
AcDbText
73
0
0
TEXT
5
210
330
1A
100
AcDbEntity
67
0
8
Length
62
244
420
659967
6
ByLayer
370
-1
48
1.0
60
0
100
AcDbText
1
10.11
10
748701.400001221
20
8930230.76599985
30
189.73999961853
40
0.3
41
1.0
50
0.0
51
0.0
7
Standard
11
748701.400001221
21
8930230.76599985
31
189.73999961853
210
0.0
220
0.0
230
1.0
72
0
100
AcDbText
73
0
0
POLYLINE
5
21D
330
1A
100
AcDbEntity
67
0
8
Real Hole
62
1
420
16711680
6
ByLayer
370
-1
48
1.0
60
0
100
AcDb3dPolyline
10
0.0
20
0.0
30
0.0
70
8
75
0
210
0.0
220
0.0
230
1.0
0
VERTEX
5
211
100
AcDbEntity
8
Real Hole
62
1
420
16711680
100
AcDbVertex
100
AcDb3dPolylineVertex
10
748701.400001221
20
8930231.46999985
30
189.73999961853
70
32
0
VERTEX
5
212
100
AcDbEntity
8
Real Hole
62
1
420
16711680
100
AcDbVertex
100
AcDb3dPolylineVertex
10
748701.515408375
20
8930231.27099213
30
188.766820755005
70
32
0
VERTEX
5
213
100
AcDbEntity
8
Real Hole
62
1
420
16711680
100
AcDbVertex
100
AcDb3dPolylineVertex
10
748701.637445249
20
8930231.09638128
30
187.789775218964
70
32
0
VERTEX
5
214
100
AcDbEntity
8
Real Hole
62
1
420
16711680
100
AcDbVertex
100
AcDb3dPolylineVertex
10
748701.741083615
20
8930230.87703347
30
186.819648590088
70
32
0
VERTEX
5
215
100
AcDbEntity
8
Real Hole
62
1
420
16711680
100
AcDbVertex
100
AcDb3dPolylineVertex
10
748701.870118343
20
8930230.65209037
30
185.853858318329
70
32
0
VERTEX
5
216
100
AcDbEntity
8
Real Hole
62
1
420
16711680
100
AcDbVertex
100
AcDb3dPolylineVertex
10
748702.006274514
20
8930230.45294124
30
184.883394088745
70
32
0
VERTEX
5
217
100
AcDbEntity
8
Real Hole
62
1
420
16711680
100
AcDbVertex
100
AcDb3dPolylineVertex
10
748702.153394394
20
8930230.24805134
30
183.91572889328
70
32
0
VERTEX
5
218
100
AcDbEntity
8
Real Hole
62
1
420
16711680
100
AcDbVertex
100
AcDb3dPolylineVertex
10
748702.301509492
20
8930230.02058297
30
182.953273620605
70
32
0
VERTEX
5
219
100
AcDbEntity
8
Real Hole
62
1
420
16711680
100
AcDbVertex
100
AcDb3dPolylineVertex
10
748702.417656236
20
8930229.79174417
30
181.9867628479
70
32
0
VERTEX
5
21A
100
AcDbEntity
8
Real Hole
62
1
420
16711680
100
AcDbVertex
100
AcDb3dPolylineVertex
10
748702.55700665
20
8930229.5758459
30
181.020341720581
70
32
0
VERTEX
5
21B
100
AcDbEntity
8
Real Hole
62
1
420
16711680
100
AcDbVertex
100
AcDb3dPolylineVertex
10
748702.673834734
20
8930229.38519984
30
180.252223815918
70
32
0
SEQEND
5
21C
100
AcDbEntity
8
Real Hole
0
POINT
5
21E
330
1A
100
AcDbEntity
67
0
8
Hole
62
244
420
659967
6
ByLayer
370
-1
48
1.0
60
0
100
AcDbPoint
10
748702.389999085
20
8930232.15000015
30
189.779999580383
39
0.0
210
0.0
220
0.0
230
1.0
50
360.0
0
LINE
5
21F
330
1A
100
AcDbEntity
67
0
8
Theoretical Hole
62
244
420
659967
6
ByLayer
370
-1
48
1.0
60
0
100
AcDbLine
10
748702.389999085
20
8930232.15000015
30
189.779999580383
11
748704.177776032
21
8930229.93359047
31
180.01678964138
39
0.0
210
0.0
220
0.0
230
1.0
0
TEXT
5
220
330
1A
100
AcDbEntity
67
0
8
Number
62
244
420
659967
6
ByLayer
370
-1
48
1.0
60
0
100
AcDbText
1
32
10
748702.389999085
20
8930232.45600015
30
189.779999580383
40
0.3
41
1.0
50
0.0
51
0.0
7
Standard
11
748702.389999085
21
8930232.45600015
31
189.779999580383
210
0.0
220
0.0
230
1.0
72
0
100
AcDbText
73
0
0
TEXT
5
221
330
1A
100
AcDbEntity
67
0
8
label
62
1
420
16711680
6
ByLayer
370
-1
48
1.0
60
0
100
AcDbText
1

10
748702.389999085
20
8930232.85600015
30
189.779999580383
40
0.3
41
1.0
50
0.0
51
0.0
7
Standard
11
748702.389999085
21
8930232.85600015
31
189.779999580383
210
0.0
220
0.0
230
1.0
72
0
100
AcDbText
73
0
0
TEXT
5
222
330
1A
100
AcDbEntity
67
0
8
Length
62
244
420
659967
6
ByLayer
370
-1
48
1.0
60
0
100
AcDbText
1
10.17
10
748702.389999085
20
8930231.44600016
30
189.779999580383
40
0.3
41
1.0
50
0.0
51
0.0
7
Standard
11
748702.389999085
21
8930231.44600016
31
189.779999580383
210
0.0
220
0.0
230
1.0
72
0
100
AcDbText
73
0
0
POLYLINE
5
22F
330
1A
100
AcDbEntity
67
0
8
Real Hole
62
1
420
16711680
6
ByLayer
370
-1
48
1.0
60
0
100
AcDb3dPolyline
10
0.0
20
0.0
30
0.0
70
8
75
0
210
0.0
220
0.0
230
1.0
0
VERTEX
5
223
100
AcDbEntity
8
Real Hole
62
1
420
16711680
100
AcDbVertex
100
AcDb3dPolylineVertex
10
748702.389999085
20
8930232.15000015
30
189.779999580383
70
32
0
VERTEX
5
224
100
AcDbEntity
8
Real Hole
62
1
420
16711680
100
AcDbVertex
100
AcDb3dPolylineVertex
10
748702.513193101
20
8930231.93747937
30
188.810639944077
70
32
0
VERTEX
5
225
100
AcDbEntity
8
Real Hole
62
1
420
16711680
100
AcDbVertex
100
AcDb3dPolylineVertex
10
748702.641934269
20
8930231.70598703
30
187.84635933876
70
32
0
VERTEX
5
226
100
AcDbEntity
8
Real Hole
62
1
420
16711680
100
AcDbVertex
100
AcDb3dPolylineVertex
10
748702.782687001
20
8930231.47862184
30
186.882775630951
70
32
0
VERTEX
5
227
100
AcDbEntity
8
Real Hole
62
1
420
16711680
100
AcDbVertex
100
AcDb3dPolylineVertex
10
748702.888319843
20
8930231.27139503
30
185.910202350616
70
32
0
VERTEX
5
228
100
AcDbEntity
8
Real Hole
62
1
420
16711680
100
AcDbVertex
100
AcDb3dPolylineVertex
10
748703.037410491
20
8930231.04356068
30
184.94798406601
70
32
0
VERTEX
5
229
100
AcDbEntity
8
Real Hole
62
1
420
16711680
100
AcDbVertex
100
AcDb3dPolylineVertex
10
748703.193776541
20
8930230.86118966
30
183.977267589569
70
32
0
VERTEX
5
22A
100
AcDbEntity
8
Real Hole
62
1
420
16711680
100
AcDbVertex
100
AcDb3dPolylineVertex
10
748703.346395843
20
8930230.67677015
30
183.006342258453
70
32
0
VERTEX
5
22B
100
AcDbEntity
8
Real Hole
62
1
420
16711680
100
AcDbVertex
100
AcDb3dPolylineVertex
10
748703.495158606
20
8930230.46168893
30
182.041142787933
70
32
0
VERTEX
5
22C
100
AcDbEntity
8
Real Hole
62
1
420
16711680
100
AcDbVertex
100
AcDb3dPolylineVertex
10
748703.639233642
20
8930230.23761326
30
181.077279891968
70
32
0
VERTEX
5
22D
100
AcDbEntity
8
Real Hole
62
1
420
16711680
100
AcDbVertex
100
AcDb3dPolylineVertex
10
748703.727039509
20
8930230.10550481
30
180.498628463745
70
32
0
SEQEND
5
22E
100
AcDbEntity
8
Real Hole
0
POINT
5
230
330
1A
100
AcDbEntity
67
0
8
Hole
62
244
420
659967
6
ByLayer
370
-1
48
1.0
60
0
100
AcDbPoint
10
748703.31999939
20
8930232.90000015
30
189.909999694824
39
0.0
210
0.0
220
0.0
230
1.0
50
360.0
0
LINE
5
231
330
1A
100
AcDbEntity
67
0
8
Theoretical Hole
62
244
420
659967
6
ByLayer
370
-1
48
1.0
60
0
100
AcDbLine
10
748703.31999939
20
8930232.90000015
30
189.909999694824
11
748705.261989288
21
8930230.67933708
31
180.020626869202
39
0.0
210
0.0
220
0.0
230
1.0
0
TEXT
5
232
330
1A
100
AcDbEntity
67
0
8
Number
62
244
420
659967
6
ByLayer
370
-1
48
1.0
60
0
100
AcDbText
1
33
10
748703.31999939
20
8930233.20600015
30
189.909999694824
40
0.3
41
1.0
50
0.0
51
0.0
7
Standard
11
748703.31999939
21
8930233.20600015
31
189.909999694824
210
0.0
220
0.0
230
1.0
72
0
100
AcDbText
73
0
0
TEXT
5
233
330
1A
100
AcDbEntity
67
0
8
label
62
1
420
16711680
6
ByLayer
370
-1
48
1.0
60
0
100
AcDbText
1

10
748703.31999939
20
8930233.60600015
30
189.909999694824
40
0.3
41
1.0
50
0.0
51
0.0
7
Standard
11
748703.31999939
21
8930233.60600015
31
189.909999694824
210
0.0
220
0.0
230
1.0
72
0
100
AcDbText
73
0
0
TEXT
5
234
330
1A
100
AcDbEntity
67
0
8
Length
62
244
420
659967
6
ByLayer
370
-1
48
1.0
60
0
100
AcDbText
1
10.32
10
748703.31999939
20
8930232.19600016
30
189.909999694824
40
0.3
41
1.0
50
0.0
51
0.0
7
Standard
11
748703.31999939
21
8930232.19600016
31
189.909999694824
210
0.0
220
0.0
230
1.0
72
0
100
AcDbText
73
0
0
POLYLINE
5
242
330
1A
100
AcDbEntity
67
0
8
Real Hole
62
1
420
16711680
6
ByLayer
370
-1
48
1.0
60
0
100
AcDb3dPolyline
10
0.0
20
0.0
30
0.0
70
8
75
0
210
0.0
220
0.0
230
1.0
0
VERTEX
5
235
100
AcDbEntity
8
Real Hole
62
1
420
16711680
100
AcDbVertex
100
AcDb3dPolylineVertex
10
748703.31999939
20
8930232.90000015
30
189.909999694824
70
32
0
VERTEX
5
236
100
AcDbEntity
8
Real Hole
62
1
420
16711680
100
AcDbVertex
100
AcDb3dPolylineVertex
10
748703.493946635
20
8930232.70046013
30
188.945672895908
70
32
0
VERTEX
5
237
100
AcDbEntity
8
Real Hole
62
1
420
16711680
100
AcDbVertex
100
AcDb3dPolylineVertex
10
748703.658610188
20
8930232.49233365
30
187.981531229019
70
32
0
VERTEX
5
238
100
AcDbEntity
8
Real Hole
62
1
420
16711680
100
AcDbVertex
100
AcDb3dPolylineVertex
10
748703.802020453
20
8930232.25204682
30
187.021481361389
70
32
0
VERTEX
5
239
100
AcDbEntity
8
Real Hole
62
1
420
16711680
100
AcDbVertex
100
AcDb3dPolylineVertex
10
748703.941210382
20
8930231.99854702
30
186.064212169647
70
32
0
VERTEX
5
23A
100
AcDbEntity
8
Real Hole
62
1
420
16711680
100
AcDbVertex
100
AcDb3dPolylineVertex
10
748704.098902755
20
8930231.7730878
30
185.102806415558
70
32
0
VERTEX
5
23B
100
AcDbEntity
8
Real Hole
62
1
420
16711680
100
AcDbVertex
100
AcDb3dPolylineVertex
10
748704.265892558
20
8930231.56964642
30
184.138065185547
70
32
0
VERTEX
5
23C
100
AcDbEntity
8
Real Hole
62
1
420
16711680
100
AcDbVertex
100
AcDb3dPolylineVertex
10
748704.438992076
20
8930231.35838586
30
183.176084842682
70
32
0
VERTEX
5
23D
100
AcDbEntity
8
Real Hole
62
1
420
16711680
100
AcDbVertex
100
AcDb3dPolylineVertex
10
748704.610321217
20
8930231.14958364
30
182.213251914978
70
32
0
VERTEX
5
23E
100
AcDbEntity
8
Real Hole
62
1
420
16711680
100
AcDbVertex
100
AcDb3dPolylineVertex
10
748704.794825368
20
8930230.94638914
30
181.251653518677
70
32
0
VERTEX
5
23F
100
AcDbEntity
8
Real Hole
62
1
420
16711680
100
AcDbVertex
100
AcDb3dPolylineVertex
10
748704.96392601
20
8930230.70993048
30
180.294840660095
70
32
0
VERTEX
5
240
100
AcDbEntity
8
Real Hole
62
1
420
16711680
100
AcDbVertex
100
AcDb3dPolylineVertex
10
748704.983150415
20
8930230.68852693
30
180.19906791687
70
32
0
SEQEND
5
241
100
AcDbEntity
8
Real Hole
0
POINT
5
243
330
1A
100
AcDbEntity
67
0
8
Hole
62
244
420
659967
6
ByLayer
370
-1
48
1.0
60
0
100
AcDbPoint
10
748704.229999237
20
8930233.68999916
30
189.970000114441
39
0.0
210
0.0
220
0.0
230
1.0
50
360.0
0
LINE
5
244
330
1A
100
AcDbEntity
67
0
8
Theoretical Hole
62
244
420
659967
6
ByLayer
370
-1
48
1.0
60
0
100
AcDbLine
10
748704.229999237
20
8930233.68999916
30
189.970000114441
11
748706.316852264
21
8930231.48089653
31
180.023901786804
39
0.0
210
0.0
220
0.0
230
1.0
0
TEXT
5
245
330
1A
100
AcDbEntity
67
0
8
Number
62
244
420
659967
6
ByLayer
370
-1
48
1.0
60
0
100
AcDbText
1
34
10
748704.229999237
20
8930233.99599916
30
189.970000114441
40
0.3
41
1.0
50
0.0
51
0.0
7
Standard
11
748704.229999237
21
8930233.99599916
31
189.970000114441
210
0.0
220
0.0
230
1.0
72
0
100
AcDbText
73
0
0
TEXT
5
246
330
1A
100
AcDbEntity
67
0
8
label
62
1
420
16711680
6
ByLayer
370
-1
48
1.0
60
0
100
AcDbText
1

10
748704.229999237
20
8930234.39599916
30
189.970000114441
40
0.3
41
1.0
50
0.0
51
0.0
7
Standard
11
748704.229999237
21
8930234.39599916
31
189.970000114441
210
0.0
220
0.0
230
1.0
72
0
100
AcDbText
73
0
0
TEXT
5
247
330
1A
100
AcDbEntity
67
0
8
Length
62
244
420
659967
6
ByLayer
370
-1
48
1.0
60
0
100
AcDbText
1
10.40
10
748704.229999237
20
8930232.98599917
30
189.970000114441
40
0.3
41
1.0
50
0.0
51
0.0
7
Standard
11
748704.229999237
21
8930232.98599917
31
189.970000114441
210
0.0
220
0.0
230
1.0
72
0
100
AcDbText
73
0
0
POLYLINE
5
254
330
1A
100
AcDbEntity
67
0
8
Real Hole
62
1
420
16711680
6
ByLayer
370
-1
48
1.0
60
0
100
AcDb3dPolyline
10
0.0
20
0.0
30
0.0
70
8
75
0
210
0.0
220
0.0
230
1.0
0
VERTEX
5
248
100
AcDbEntity
8
Real Hole
62
1
420
16711680
100
AcDbVertex
100
AcDb3dPolylineVertex
10
748704.229999237
20
8930233.68999916
30
189.970000114441
70
32
0
VERTEX
5
249
100
AcDbEntity
8
Real Hole
62
1
420
16711680
100
AcDbVertex
100
AcDb3dPolylineVertex
10
748704.376894556
20
8930233.51672481
30
188.996142950058
70
32
0
VERTEX
5
24A
100
AcDbEntity
8
Real Hole
62
1
420
16711680
100
AcDbVertex
100
AcDb3dPolylineVertex
10
748704.520993911
20
8930233.33155435
30
188.024059023857
70
32
0
VERTEX
5
24B
100
AcDbEntity
8
Real Hole
62
1
420
16711680
100
AcDbVertex
100
AcDb3dPolylineVertex
10
748704.631958329
20
8930233.10654074
30
187.056042518616
70
32
0
VERTEX
5
24C
100
AcDbEntity
8
Real Hole
62
1
420
16711680
100
AcDbVertex
100
AcDb3dPolylineVertex
10
748704.753871493
20
8930232.91045022
30
186.083064880371
70
32
0
VERTEX
5
24D
100
AcDbEntity
8
Real Hole
62
1
420
16711680
100
AcDbVertex
100
AcDb3dPolylineVertex
10
748704.893377655
20
8930232.72095185
30
185.111144866943
70
32
0
VERTEX
5
24E
100
AcDbEntity
8
Real Hole
62
1
420
16711680
100
AcDbVertex
100
AcDb3dPolylineVertex
10
748705.028630011
20
8930232.53486126
30
184.137966003418
70
32
0
VERTEX
5
24F
100
AcDbEntity
8
Real Hole
62
1
420
16711680
100
AcDbVertex
100
AcDb3dPolylineVertex
10
748705.164888256
20
8930232.35715765
30
183.163360919952
70
32
0
VERTEX
5
250
100
AcDbEntity
8
Real Hole
62
1
420
16711680
100
AcDbVertex
100
AcDb3dPolylineVertex
10
748705.324122005
20
8930232.18344527
30
182.191522922516
70
32
0
VERTEX
5
251
100
AcDbEntity
8
Real Hole
62
1
420
16711680
100
AcDbVertex
100
AcDb3dPolylineVertex
10
748705.478834086
20
8930232.01341897
30
181.218304481506
70
32
0
VERTEX
5
252
100
AcDbEntity
8
Real Hole
62
1
420
16711680
100
AcDbVertex
100
AcDb3dPolylineVertex
10
748705.629576497
20
8930231.80865782
30
180.251169052124
70
32
0
SEQEND
5
253
100
AcDbEntity
8
Real Hole
0
POINT
5
255
330
1A
100
AcDbEntity
67
0
8
Hole
62
244
420
659967
6
ByLayer
370
-1
48
1.0
60
0
100
AcDbPoint
10
748705.099998169
20
8930234.51000076
30
189.930000152588
39
0.0
210
0.0
220
0.0
230
1.0
50
360.0
0
LINE
5
256
330
1A
100
AcDbEntity
67
0
8
Theoretical Hole
62
244
420
659967
6
ByLayer
370
-1
48
1.0
60
0
100
AcDbLine
10
748705.099998169
20
8930234.51000076
30
189.930000152588
11
748707.330108337
21
8930232.34660774
31
180.015443053246
39
0.0
210
0.0
220
0.0
230
1.0
0
TEXT
5
257
330
1A
100
AcDbEntity
67
0
8
Number
62
244
420
659967
6
ByLayer
370
-1
48
1.0
60
0
100
AcDbText
1
35
10
748705.099998169
20
8930234.81600076
30
189.930000152588
40
0.3
41
1.0
50
0.0
51
0.0
7
Standard
11
748705.099998169
21
8930234.81600076
31
189.930000152588
210
0.0
220
0.0
230
1.0
72
0
100
AcDbText
73
0
0
TEXT
5
258
330
1A
100
AcDbEntity
67
0
8
label
62
1
420
16711680
6
ByLayer
370
-1
48
1.0
60
0
100
AcDbText
1

10
748705.099998169
20
8930235.21600076
30
189.930000152588
40
0.3
41
1.0
50
0.0
51
0.0
7
Standard
11
748705.099998169
21
8930235.21600076
31
189.930000152588
210
0.0
220
0.0
230
1.0
72
0
100
AcDbText
73
0
0
TEXT
5
259
330
1A
100
AcDbEntity
67
0
8
Length
62
244
420
659967
6
ByLayer
370
-1
48
1.0
60
0
100
AcDbText
1
10.39
10
748705.099998169
20
8930233.80600077
30
189.930000152588
40
0.3
41
1.0
50
0.0
51
0.0
7
Standard
11
748705.099998169
21
8930233.80600077
31
189.930000152588
210
0.0
220
0.0
230
1.0
72
0
100
AcDbText
73
0
0
POLYLINE
5
266
330
1A
100
AcDbEntity
67
0
8
Real Hole
62
1
420
16711680
6
ByLayer
370
-1
48
1.0
60
0
100
AcDb3dPolyline
10
0.0
20
0.0
30
0.0
70
8
75
0
210
0.0
220
0.0
230
1.0
0
VERTEX
5
25A
100
AcDbEntity
8
Real Hole
62
1
420
16711680
100
AcDbVertex
100
AcDb3dPolylineVertex
10
748705.099998169
20
8930234.51000076
30
189.930000152588
70
32
0
VERTEX
5
25B
100
AcDbEntity
8
Real Hole
62
1
420
16711680
100
AcDbVertex
100
AcDb3dPolylineVertex
10
748705.272069745
20
8930234.34999002
30
188.957998123169
70
32
0
VERTEX
5
25C
100
AcDbEntity
8
Real Hole
62
1
420
16711680
100
AcDbVertex
100
AcDb3dPolylineVertex
10
748705.453069233
20
8930234.19203847
30
187.987281646729
70
32
0
VERTEX
5
25D
100
AcDbEntity
8
Real Hole
62
1
420
16711680
100
AcDbVertex
100
AcDb3dPolylineVertex
10
748705.587139659
20
8930234.00134635
30
187.014830198288
70
32
0
VERTEX
5
25E
100
AcDbEntity
8
Real Hole
62
1
420
16711680
100
AcDbVertex
100
AcDb3dPolylineVertex
10
748705.742086463
20
8930233.80273783
30
186.047077026367
70
32
0
VERTEX
5
25F
100
AcDbEntity
8
Real Hole
62
1
420
16711680
100
AcDbVertex
100
AcDb3dPolylineVertex
10
748705.900417202
20
8930233.6475265
30
185.071966495514
70
32
0
VERTEX
5
260
100
AcDbEntity
8
Real Hole
62
1
420
16711680
100
AcDbVertex
100
AcDb3dPolylineVertex
10
748706.045548611
20
8930233.45694524
30
184.101082649231
70
32
0
VERTEX
5
261
100
AcDbEntity
8
Real Hole
62
1
420
16711680
100
AcDbVertex
100
AcDb3dPolylineVertex
10
748706.19821506
20
8930233.28101271
30
183.128590431213
70
32
0
VERTEX
5
262
100
AcDbEntity
8
Real Hole
62
1
420
16711680
100
AcDbVertex
100
AcDb3dPolylineVertex
10
748706.391720467
20
8930233.13301307
30
182.15871843338
70
32
0
VERTEX
5
263
100
AcDbEntity
8
Real Hole
62
1
420
16711680
100
AcDbVertex
100
AcDb3dPolylineVertex
10
748706.575962477
20
8930232.96647924
30
181.19004901886
70
32
0
VERTEX
5
264
100
AcDbEntity
8
Real Hole
62
1
420
16711680
100
AcDbVertex
100
AcDb3dPolylineVertex
10
748706.773773127
20
8930232.81243247
30
180.221988525391
70
32
0
SEQEND
5
265
100
AcDbEntity
8
Real Hole
0
POINT
5
267
330
1A
100
AcDbEntity
67
0
8
Hole
62
244
420
659967
6
ByLayer
370
-1
48
1.0
60
0
100
AcDbPoint
10
748705.939998322
20
8930235.36999947
30
190.180000152588
39
0.0
210
0.0
220
0.0
230
1.0
50
360.0
0
LINE
5
268
330
1A
100
AcDbEntity
67
0
8
Theoretical Hole
62
244
420
659967
6
ByLayer
370
-1
48
1.0
60
0
100
AcDbLine
10
748705.939998322
20
8930235.36999947
30
190.180000152588
11
748708.318313294
21
8930233.28133255
31
180.011246290207
39
0.0
210
0.0
220
0.0
230
1.0
0
TEXT
5
269
330
1A
100
AcDbEntity
67
0
8
Number
62
244
420
659967
6
ByLayer
370
-1
48
1.0
60
0
100
AcDbText
1
36
10
748705.939998322
20
8930235.67599946
30
190.180000152588
40
0.3
41
1.0
50
0.0
51
0.0
7
Standard
11
748705.939998322
21
8930235.67599946
31
190.180000152588
210
0.0
220
0.0
230
1.0
72
0
100
AcDbText
73
0
0
TEXT
5
26A
330
1A
100
AcDbEntity
67
0
8
label
62
1
420
16711680
6
ByLayer
370
-1
48
1.0
60
0
100
AcDbText
1

10
748705.939998322
20
8930236.07599946
30
190.180000152588
40
0.3
41
1.0
50
0.0
51
0.0
7
Standard
11
748705.939998322
21
8930236.07599946
31
190.180000152588
210
0.0
220
0.0
230
1.0
72
0
100
AcDbText
73
0
0
TEXT
5
26B
330
1A
100
AcDbEntity
67
0
8
Length
62
244
420
659967
6
ByLayer
370
-1
48
1.0
60
0
100
AcDbText
1
10.65
10
748705.939998322
20
8930234.66599947
30
190.180000152588
40
0.3
41
1.0
50
0.0
51
0.0
7
Standard
11
748705.939998322
21
8930234.66599947
31
190.180000152588
210
0.0
220
0.0
230
1.0
72
0
100
AcDbText
73
0
0
POLYLINE
5
278
330
1A
100
AcDbEntity
67
0
8
Real Hole
62
1
420
16711680
6
ByLayer
370
-1
48
1.0
60
0
100
AcDb3dPolyline
10
0.0
20
0.0
30
0.0
70
8
75
0
210
0.0
220
0.0
230
1.0
0
VERTEX
5
26C
100
AcDbEntity
8
Real Hole
62
1
420
16711680
100
AcDbVertex
100
AcDb3dPolylineVertex
10
748705.939998322
20
8930235.36999947
30
190.180000152588
70
32
0
VERTEX
5
26D
100
AcDbEntity
8
Real Hole
62
1
420
16711680
100
AcDbVertex
100
AcDb3dPolylineVertex
10
748706.104059123
20
8930235.21189947
30
189.206301834583
70
32
0
VERTEX
5
26E
100
AcDbEntity
8
Real Hole
62
1
420
16711680
100
AcDbVertex
100
AcDb3dPolylineVertex
10
748706.272106491
20
8930235.03999534
30
188.235627260208
70
32
0
VERTEX
5
26F
100
AcDbEntity
8
Real Hole
62
1
420
16711680
100
AcDbVertex
100
AcDb3dPolylineVertex
10
748706.408961915
20
8930234.86577046
30
187.260477867126
70
32
0
VERTEX
5
270
100
AcDbEntity
8
Real Hole
62
1
420
16711680
100
AcDbVertex
100
AcDb3dPolylineVertex
10
748706.572013073
20
8930234.6711089
30
186.293254461288
70
32
0
VERTEX
5
271
100
AcDbEntity
8
Real Hole
62
1
420
16711680
100
AcDbVertex
100
AcDb3dPolylineVertex
10
748706.741513186
20
8930234.51182627
30
185.320681419373
70
32
0
VERTEX
5
272
100
AcDbEntity
8
Real Hole
62
1
420
16711680
100
AcDbVertex
100
AcDb3dPolylineVertex
10
748706.923970037
20
8930234.35040206
30
184.350809421539
70
32
0
VERTEX
5
273
100
AcDbEntity
8
Real Hole
62
1
420
16711680
100
AcDbVertex
100
AcDb3dPolylineVertex
10
748707.074794464
20
8930234.18649667
30
183.375931110382
70
32
0
VERTEX
5
274
100
AcDbEntity
8
Real Hole
62
1
420
16711680
100
AcDbVertex
100
AcDb3dPolylineVertex
10
748707.239109092
20
8930233.99157399
30
182.408974018097
70
32
0
VERTEX
5
275
100
AcDbEntity
8
Real Hole
62
1
420
16711680
100
AcDbVertex
100
AcDb3dPolylineVertex
10
748707.402573519
20
8930233.79902786
30
181.441397514343
70
32
0
VERTEX
5
276
100
AcDbEntity
8
Real Hole
62
1
420
16711680
100
AcDbVertex
100
AcDb3dPolylineVertex
10
748707.587569647
20
8930233.62855726
30
180.473556365967
70
32
0
SEQEND
5
277
100
AcDbEntity
8
Real Hole
0
POINT
5
279
330
1A
100
AcDbEntity
67
0
8
Hole
62
244
420
659967
6
ByLayer
370
-1
48
1.0
60
0
100
AcDbPoint
10
748706.729999237
20
8930236.27999931
30
190.360000457764
39
0.0
210
0.0
220
0.0
230
1.0
50
360.0
0
LINE
5
27A
330
1A
100
AcDbEntity
67
0
8
Theoretical Hole
62
244
420
659967
6
ByLayer
370
-1
48
1.0
60
0
100
AcDbLine
10
748706.729999237
20
8930236.27999931
30
190.360000457764
11
748709.267760925
21
8930234.29228455
31
180.010392036438
39
0.0
210
0.0
220
0.0
230
1.0
0
TEXT
5
27B
330
1A
100
AcDbEntity
67
0
8
Number
62
244
420
659967
6
ByLayer
370
-1
48
1.0
60
0
100
AcDbText
1
37
10
748706.729999237
20
8930236.58599931
30
190.360000457764
40
0.3
41
1.0
50
0.0
51
0.0
7
Standard
11
748706.729999237
21
8930236.58599931
31
190.360000457764
210
0.0
220
0.0
230
1.0
72
0
100
AcDbText
73
0
0
TEXT
5
27C
330
1A
100
AcDbEntity
67
0
8
label
62
1
420
16711680
6
ByLayer
370
-1
48
1.0
60
0
100
AcDbText
1

10
748706.729999237
20
8930236.98599931
30
190.360000457764
40
0.3
41
1.0
50
0.0
51
0.0
7
Standard
11
748706.729999237
21
8930236.98599931
31
190.360000457764
210
0.0
220
0.0
230
1.0
72
0
100
AcDbText
73
0
0
TEXT
5
27D
330
1A
100
AcDbEntity
67
0
8
Length
62
244
420
659967
6
ByLayer
370
-1
48
1.0
60
0
100
AcDbText
1
10.84
10
748706.729999237
20
8930235.57599932
30
190.360000457764
40
0.3
41
1.0
50
0.0
51
0.0
7
Standard
11
748706.729999237
21
8930235.57599932
31
190.360000457764
210
0.0
220
0.0
230
1.0
72
0
100
AcDbText
73
0
0
POLYLINE
5
28B
330
1A
100
AcDbEntity
67
0
8
Real Hole
62
1
420
16711680
6
ByLayer
370
-1
48
1.0
60
0
100
AcDb3dPolyline
10
0.0
20
0.0
30
0.0
70
8
75
0
210
0.0
220
0.0
230
1.0
0
VERTEX
5
27E
100
AcDbEntity
8
Real Hole
62
1
420
16711680
100
AcDbVertex
100
AcDb3dPolylineVertex
10
748706.729999237
20
8930236.27999931
30
190.360000457764
70
32
0
VERTEX
5
27F
100
AcDbEntity
8
Real Hole
62
1
420
16711680
100
AcDbVertex
100
AcDb3dPolylineVertex
10
748706.908549182
20
8930236.09426389
30
189.393759157658
70
32
0
VERTEX
5
280
100
AcDbEntity
8
Real Hole
62
1
420
16711680
100
AcDbVertex
100
AcDb3dPolylineVertex
10
748707.093246304
20
8930235.86397138
30
188.438326086998
70
32
0
VERTEX
5
281
100
AcDbEntity
8
Real Hole
62
1
420
16711680
100
AcDbVertex
100
AcDb3dPolylineVertex
10
748707.277161472
20
8930235.67451674
30
187.473814811707
70
32
0
VERTEX
5
282
100
AcDbEntity
8
Real Hole
62
1
420
16711680
100
AcDbVertex
100
AcDb3dPolylineVertex
10
748707.471278243
20
8930235.48647016
30
186.511028614044
70
32
0
VERTEX
5
283
100
AcDbEntity
8
Real Hole
62
1
420
16711680
100
AcDbVertex
100
AcDb3dPolylineVertex
10
748707.648533993
20
8930235.27341884
30
185.550201263428
70
32
0
VERTEX
5
284
100
AcDbEntity
8
Real Hole
62
1
420
16711680
100
AcDbVertex
100
AcDb3dPolylineVertex
10
748707.83162456
20
8930235.0864529
30
184.585047569275
70
32
0
VERTEX
5
285
100
AcDbEntity
8
Real Hole
62
1
420
16711680
100
AcDbVertex
100
AcDb3dPolylineVertex
10
748708.036929421
20
8930234.91172486
30
183.622073020935
70
32
0
VERTEX
5
286
100
AcDbEntity
8
Real Hole
62
1
420
16711680
100
AcDbVertex
100
AcDb3dPolylineVertex
10
748708.23723846
20
8930234.76778823
30
182.652971115112
70
32
0
VERTEX
5
287
100
AcDbEntity
8
Real Hole
62
1
420
16711680
100
AcDbVertex
100
AcDb3dPolylineVertex
10
748708.430256896
20
8930234.59460264
30
181.687180366516
70
32
0
VERTEX
5
288
100
AcDbEntity
8
Real Hole
62
1
420
16711680
100
AcDbVertex
100
AcDb3dPolylineVertex
10
748708.64076107
20
8930234.4541077
30
180.719735946655
70
32
0
VERTEX
5
289
100
AcDbEntity
8
Real Hole
62
1
420
16711680
100
AcDbVertex
100
AcDb3dPolylineVertex
10
748708.745691471
20
8930234.36042088
30
180.239931907654
70
32
0
SEQEND
5
28A
100
AcDbEntity
8
Real Hole
0
POINT
5
28C
330
1A
100
AcDbEntity
67
0
8
Hole
62
244
420
659967
6
ByLayer
370
-1
48
1.0
60
0
100
AcDbPoint
10
748707.470000916
20
8930237.21999985
30
190.539999809265
39
0.0
210
0.0
220
0.0
230
1.0
50
360.0
0
LINE
5
28D
330
1A
100
AcDbEntity
67
0
8
Theoretical Hole
62
244
420
659967
6
ByLayer
370
-1
48
1.0
60
0
100
AcDbLine
10
748707.470000916
20
8930237.21999985
30
190.539999809265
11
748710.194602661
21
8930235.35442596
31
180.015881385803
39
0.0
210
0.0
220
0.0
230
1.0
0
TEXT
5
28E
330
1A
100
AcDbEntity
67
0
8
Number
62
244
420
659967
6
ByLayer
370
-1
48
1.0
60
0
100
AcDbText
1
38
10
748707.470000916
20
8930237.52599984
30
190.539999809265
40
0.3
41
1.0
50
0.0
51
0.0
7
Standard
11
748707.470000916
21
8930237.52599984
31
190.539999809265
210
0.0
220
0.0
230
1.0
72
0
100
AcDbText
73
0
0
TEXT
5
28F
330
1A
100
AcDbEntity
67
0
8
label
62
1
420
16711680
6
ByLayer
370
-1
48
1.0
60
0
100
AcDbText
1

10
748707.470000916
20
8930237.92599984
30
190.539999809265
40
0.3
41
1.0
50
0.0
51
0.0
7
Standard
11
748707.470000916
21
8930237.92599984
31
190.539999809265
210
0.0
220
0.0
230
1.0
72
0
100
AcDbText
73
0
0
TEXT
5
290
330
1A
100
AcDbEntity
67
0
8
Length
62
244
420
659967
6
ByLayer
370
-1
48
1.0
60
0
100
AcDbText
1
11.03
10
748707.470000916
20
8930236.51599985
30
190.539999809265
40
0.3
41
1.0
50
0.0
51
0.0
7
Standard
11
748707.470000916
21
8930236.51599985
31
190.539999809265
210
0.0
220
0.0
230
1.0
72
0
100
AcDbText
73
0
0
POLYLINE
5
29E
330
1A
100
AcDbEntity
67
0
8
Real Hole
62
1
420
16711680
6
ByLayer
370
-1
48
1.0
60
0
100
AcDb3dPolyline
10
0.0
20
0.0
30
0.0
70
8
75
0
210
0.0
220
0.0
230
1.0
0
VERTEX
5
291
100
AcDbEntity
8
Real Hole
62
1
420
16711680
100
AcDbVertex
100
AcDb3dPolylineVertex
10
748707.470000916
20
8930237.21999985
30
190.539999809265
70
32
0
VERTEX
5
292
100
AcDbEntity
8
Real Hole
62
1
420
16711680
100
AcDbVertex
100
AcDb3dPolylineVertex
10
748707.645182856
20
8930237.10993793
30
189.561635043621
70
32
0
VERTEX
5
293
100
AcDbEntity
8
Real Hole
62
1
420
16711680
100
AcDbVertex
100
AcDb3dPolylineVertex
10
748707.823991649
20
8930237.00351564
30
188.583523716927
70
32
0
VERTEX
5
294
100
AcDbEntity
8
Real Hole
62
1
420
16711680
100
AcDbVertex
100
AcDb3dPolylineVertex
10
748708.001408331
20
8930236.91370159
30
187.603494729996
70
32
0
VERTEX
5
295
100
AcDbEntity
8
Real Hole
62
1
420
16711680
100
AcDbVertex
100
AcDb3dPolylineVertex
10
748708.171706491
20
8930236.80872851
30
186.623709526062
70
32
0
VERTEX
5
296
100
AcDbEntity
8
Real Hole
62
1
420
16711680
100
AcDbVertex
100
AcDb3dPolylineVertex
10
748708.348934941
20
8930236.73665535
30
185.642182197571
70
32
0
VERTEX
5
297
100
AcDbEntity
8
Real Hole
62
1
420
16711680
100
AcDbVertex
100
AcDb3dPolylineVertex
10
748708.524126344
20
8930236.70548057
30
184.658141460419
70
32
0
VERTEX
5
298
100
AcDbEntity
8
Real Hole
62
1
420
16711680
100
AcDbVertex
100
AcDb3dPolylineVertex
10
748708.71467679
20
8930236.64569264
30
183.678286399841
70
32
0
VERTEX
5
299
100
AcDbEntity
8
Real Hole
62
1
420
16711680
100
AcDbVertex
100
AcDb3dPolylineVertex
10
748708.910636597
20
8930236.59285533
30
182.699099388123
70
32
0
VERTEX
5
29A
100
AcDbEntity
8
Real Hole
62
1
420
16711680
100
AcDbVertex
100
AcDb3dPolylineVertex
10
748709.115223579
20
8930236.53857189
30
181.721756782532
70
32
0
VERTEX
5
29B
100
AcDbEntity
8
Real Hole
62
1
420
16711680
100
AcDbVertex
100
AcDb3dPolylineVertex
10
748709.350859933
20
8930236.49011689
30
180.751124229431
70
32
0
VERTEX
5
29C
100
AcDbEntity
8
Real Hole
62
1
420
16711680
100
AcDbVertex
100
AcDb3dPolylineVertex
10
748709.370805912
20
8930236.48584455
30
180.653226699829
70
32
0
SEQEND
5
29D
100
AcDbEntity
8
Real Hole
0
POINT
5
29F
330
1A
100
AcDbEntity
67
0
8
Hole
62
244
420
659967
6
ByLayer
370
-1
48
1.0
60
0
100
AcDbPoint
10
748708.150001221
20
8930238.20999962
30
190.629999961853
39
0.0
210
0.0
220
0.0
230
1.0
50
360.0
0
LINE
5
2A0
330
1A
100
AcDbEntity
67
0
8
Theoretical Hole
62
244
420
659967
6
ByLayer
370
-1
48
1.0
60
0
100
AcDbLine
10
748708.150001221
20
8930238.20999962
30
190.629999961853
11
748711.104987793
21
8930236.48531967
31
180.017929759026
39
0.0
210
0.0
220
0.0
230
1.0
0
TEXT
5
2A1
330
1A
100
AcDbEntity
67
0
8
Number
62
244
420
659967
6
ByLayer
370
-1
48
1.0
60
0
100
AcDbText
1
39
10
748708.150001221
20
8930238.51599961
30
190.629999961853
40
0.3
41
1.0
50
0.0
51
0.0
7
Standard
11
748708.150001221
21
8930238.51599961
31
190.629999961853
210
0.0
220
0.0
230
1.0
72
0
100
AcDbText
73
0
0
TEXT
5
2A2
330
1A
100
AcDbEntity
67
0
8
label
62
1
420
16711680
6
ByLayer
370
-1
48
1.0
60
0
100
AcDbText
1

10
748708.150001221
20
8930238.91599961
30
190.629999961853
40
0.3
41
1.0
50
0.0
51
0.0
7
Standard
11
748708.150001221
21
8930238.91599961
31
190.629999961853
210
0.0
220
0.0
230
1.0
72
0
100
AcDbText
73
0
0
TEXT
5
2A3
330
1A
100
AcDbEntity
67
0
8
Length
62
244
420
659967
6
ByLayer
370
-1
48
1.0
60
0
100
AcDbText
1
11.15
10
748708.150001221
20
8930237.50599962
30
190.629999961853
40
0.3
41
1.0
50
0.0
51
0.0
7
Standard
11
748708.150001221
21
8930237.50599962
31
190.629999961853
210
0.0
220
0.0
230
1.0
72
0
100
AcDbText
73
0
0
POLYLINE
5
2B1
330
1A
100
AcDbEntity
67
0
8
Real Hole
62
1
420
16711680
6
ByLayer
370
-1
48
1.0
60
0
100
AcDb3dPolyline
10
0.0
20
0.0
30
0.0
70
8
75
0
210
0.0
220
0.0
230
1.0
0
VERTEX
5
2A4
100
AcDbEntity
8
Real Hole
62
1
420
16711680
100
AcDbVertex
100
AcDb3dPolylineVertex
10
748708.150001221
20
8930238.20999962
30
190.629999961853
70
32
0
VERTEX
5
2A5
100
AcDbEntity
8
Real Hole
62
1
420
16711680
100
AcDbVertex
100
AcDb3dPolylineVertex
10
748708.32969939
20
8930238.00993353
30
189.666837420464
70
32
0
VERTEX
5
2A6
100
AcDbEntity
8
Real Hole
62
1
420
16711680
100
AcDbVertex
100
AcDb3dPolylineVertex
10
748708.543536418
20
8930237.81226462
30
188.710176196098
70
32
0
VERTEX
5
2A7
100
AcDbEntity
8
Real Hole
62
1
420
16711680
100
AcDbVertex
100
AcDb3dPolylineVertex
10
748708.734756045
20
8930237.65592027
30
187.741160478592
70
32
0
VERTEX
5
2A8
100
AcDbEntity
8
Real Hole
62
1
420
16711680
100
AcDbVertex
100
AcDb3dPolylineVertex
10
748708.950172894
20
8930237.49494368
30
186.777997817993
70
32
0
VERTEX
5
2A9
100
AcDbEntity
8
Real Hole
62
1
420
16711680
100
AcDbVertex
100
AcDb3dPolylineVertex
10
748709.151463919
20
8930237.31159025
30
185.815780010223
70
32
0
VERTEX
5
2AA
100
AcDbEntity
8
Real Hole
62
1
420
16711680
100
AcDbVertex
100
AcDb3dPolylineVertex
10
748709.369249277
20
8930237.10520834
30
184.86185344696
70
32
0
VERTEX
5
2AB
100
AcDbEntity
8
Real Hole
62
1
420
16711680
100
AcDbVertex
100
AcDb3dPolylineVertex
10
748709.598607593
20
8930236.89393288
30
183.911717739105
70
32
0
VERTEX
5
2AC
100
AcDbEntity
8
Real Hole
62
1
420
16711680
100
AcDbVertex
100
AcDb3dPolylineVertex
10
748709.823417001
20
8930236.70131594
30
182.956542816162
70
32
0
VERTEX
5
2AD
100
AcDbEntity
8
Real Hole
62
1
420
16711680
100
AcDbVertex
100
AcDb3dPolylineVertex
10
748710.069823556
20
8930236.50113827
30
182.008274879456
70
32
0
VERTEX
5
2AE
100
AcDbEntity
8
Real Hole
62
1
420
16711680
100
AcDbVertex
100
AcDb3dPolylineVertex
10
748710.316875391
20
8930236.29704958
30
181.061008300781
70
32
0
VERTEX
5
2AF
100
AcDbEntity
8
Real Hole
62
1
420
16711680
100
AcDbVertex
100
AcDb3dPolylineVertex
10
748710.385415011
20
8930236.23755294
30
180.775067176819
70
32
0
SEQEND
5
2B0
100
AcDbEntity
8
Real Hole
0
POINT
5
2B2
330
1A
100
AcDbEntity
67
0
8
Hole
62
244
420
659967
6
ByLayer
370
-1
48
1.0
60
0
100
AcDbPoint
10
748708.749999695
20
8930239.25000053
30
190.69000038147
39
0.0
210
0.0
220
0.0
230
1.0
50
360.0
0
LINE
5
2B3
330
1A
100
AcDbEntity
67
0
8
Theoretical Hole
62
244
420
659967
6
ByLayer
370
-1
48
1.0
60
0
100
AcDbLine
10
748708.749999695
20
8930239.25000053
30
190.69000038147
11
748712.001060181
21
8930237.69026047
31
180.01242026329
39
0.0
210
0.0
220
0.0
230
1.0
0
TEXT
5
2B4
330
1A
100
AcDbEntity
67
0
8
Number
62
244
420
659967
6
ByLayer
370
-1
48
1.0
60
0
100
AcDbText
1
40
10
748708.749999695
20
8930239.55600053
30
190.69000038147
40
0.3
41
1.0
50
0.0
51
0.0
7
Standard
11
748708.749999695
21
8930239.55600053
31
190.69000038147
210
0.0
220
0.0
230
1.0
72
0
100
AcDbText
73
0
0
TEXT
5
2B5
330
1A
100
AcDbEntity
67
0
8
label
62
1
420
16711680
6
ByLayer
370
-1
48
1.0
60
0
100
AcDbText
1

10
748708.749999695
20
8930239.95600053
30
190.69000038147
40
0.3
41
1.0
50
0.0
51
0.0
7
Standard
11
748708.749999695
21
8930239.95600053
31
190.69000038147
210
0.0
220
0.0
230
1.0
72
0
100
AcDbText
73
0
0
TEXT
5
2B6
330
1A
100
AcDbEntity
67
0
8
Length
62
244
420
659967
6
ByLayer
370
-1
48
1.0
60
0
100
AcDbText
1
11.27
10
748708.749999695
20
8930238.54600054
30
190.69000038147
40
0.3
41
1.0
50
0.0
51
0.0
7
Standard
11
748708.749999695
21
8930238.54600054
31
190.69000038147
210
0.0
220
0.0
230
1.0
72
0
100
AcDbText
73
0
0
POLYLINE
5
2C4
330
1A
100
AcDbEntity
67
0
8
Real Hole
62
1
420
16711680
6
ByLayer
370
-1
48
1.0
60
0
100
AcDb3dPolyline
10
0.0
20
0.0
30
0.0
70
8
75
0
210
0.0
220
0.0
230
1.0
0
VERTEX
5
2B7
100
AcDbEntity
8
Real Hole
62
1
420
16711680
100
AcDbVertex
100
AcDb3dPolylineVertex
10
748708.749999695
20
8930239.25000053
30
190.69000038147
70
32
0
VERTEX
5
2B8
100
AcDbEntity
8
Real Hole
62
1
420
16711680
100
AcDbVertex
100
AcDb3dPolylineVertex
10
748708.992211499
20
8930239.09444357
30
189.732328500748
70
32
0
VERTEX
5
2B9
100
AcDbEntity
8
Real Hole
62
1
420
16711680
100
AcDbVertex
100
AcDb3dPolylineVertex
10
748709.237801098
20
8930238.94815898
30
188.774055805206
70
32
0
VERTEX
5
2BA
100
AcDbEntity
8
Real Hole
62
1
420
16711680
100
AcDbVertex
100
AcDb3dPolylineVertex
10
748709.405850403
20
8930238.82115644
30
187.79649266243
70
32
0
VERTEX
5
2BB
100
AcDbEntity
8
Real Hole
62
1
420
16711680
100
AcDbVertex
100
AcDb3dPolylineVertex
10
748709.616744332
20
8930238.67912078
30
186.829357948303
70
32
0
VERTEX
5
2BC
100
AcDbEntity
8
Real Hole
62
1
420
16711680
100
AcDbVertex
100
AcDb3dPolylineVertex
10
748709.835833721
20
8930238.53509646
30
185.864341106415
70
32
0
VERTEX
5
2BD
100
AcDbEntity
8
Real Hole
62
1
420
16711680
100
AcDbVertex
100
AcDb3dPolylineVertex
10
748710.049798899
20
8930238.38444006
30
184.899187889099
70
32
0
VERTEX
5
2BE
100
AcDbEntity
8
Real Hole
62
1
420
16711680
100
AcDbVertex
100
AcDb3dPolylineVertex
10
748710.276096873
20
8930238.28378039
30
183.930344429016
70
32
0
VERTEX
5
2BF
100
AcDbEntity
8
Real Hole
62
1
420
16711680
100
AcDbVertex
100
AcDb3dPolylineVertex
10
748710.521134787
20
8930238.17422098
30
182.967041339874
70
32
0
VERTEX
5
2C0
100
AcDbEntity
8
Real Hole
62
1
420
16711680
100
AcDbVertex
100
AcDb3dPolylineVertex
10
748710.743179851
20
8930238.05779296
30
181.998981323242
70
32
0
VERTEX
5
2C1
100
AcDbEntity
8
Real Hole
62
1
420
16711680
100
AcDbVertex
100
AcDb3dPolylineVertex
10
748710.985068255
20
8930237.9402861
30
181.035818901062
70
32
0
VERTEX
5
2C2
100
AcDbEntity
8
Real Hole
62
1
420
16711680
100
AcDbVertex
100
AcDb3dPolylineVertex
10
748711.010554485
20
8930237.92948359
30
180.939726676941
70
32
0
SEQEND
5
2C3
100
AcDbEntity
8
Real Hole
0
POINT
5
2C5
330
1A
100
AcDbEntity
67
0
8
Hole
62
244
420
659967
6
ByLayer
370
-1
48
1.0
60
0
100
AcDbPoint
10
748709.270000153
20
8930240.33000046
30
190.560000267029
39
0.0
210
0.0
220
0.0
230
1.0
50
360.0
0
LINE
5
2C6
330
1A
100
AcDbEntity
67
0
8
Theoretical Hole
62
244
420
659967
6
ByLayer
370
-1
48
1.0
60
0
100
AcDbLine
10
748709.270000153
20
8930240.33000046
30
190.560000267029
11
748712.850654297
21
8930238.99124771
31
180.011301007271
39
0.0
210
0.0
220
0.0
230
1.0
0
TEXT
5
2C7
330
1A
100
AcDbEntity
67
0
8
Number
62
244
420
659967
6
ByLayer
370
-1
48
1.0
60
0
100
AcDbText
1
41
10
748709.270000153
20
8930240.63600045
30
190.560000267029
40
0.3
41
1.0
50
0.0
51
0.0
7
Standard
11
748709.270000153
21
8930240.63600045
31
190.560000267029
210
0.0
220
0.0
230
1.0
72
0
100
AcDbText
73
0
0
TEXT
5
2C8
330
1A
100
AcDbEntity
67
0
8
label
62
1
420
16711680
6
ByLayer
370
-1
48
1.0
60
0
100
AcDbText
1

10
748709.270000153
20
8930241.03600045
30
190.560000267029
40
0.3
41
1.0
50
0.0
51
0.0
7
Standard
11
748709.270000153
21
8930241.03600045
31
190.560000267029
210
0.0
220
0.0
230
1.0
72
0
100
AcDbText
73
0
0
TEXT
5
2C9
330
1A
100
AcDbEntity
67
0
8
Length
62
244
420
659967
6
ByLayer
370
-1
48
1.0
60
0
100
AcDbText
1
11.22
10
748709.270000153
20
8930239.62600046
30
190.560000267029
40
0.3
41
1.0
50
0.0
51
0.0
7
Standard
11
748709.270000153
21
8930239.62600046
31
190.560000267029
210
0.0
220
0.0
230
1.0
72
0
100
AcDbText
73
0
0
POLYLINE
5
2D6
330
1A
100
AcDbEntity
67
0
8
Real Hole
62
1
420
16711680
6
ByLayer
370
-1
48
1.0
60
0
100
AcDb3dPolyline
10
0.0
20
0.0
30
0.0
70
8
75
0
210
0.0
220
0.0
230
1.0
0
VERTEX
5
2CA
100
AcDbEntity
8
Real Hole
62
1
420
16711680
100
AcDbVertex
100
AcDb3dPolylineVertex
10
748709.270000153
20
8930240.33000046
30
190.560000267029
70
32
0
VERTEX
5
2CB
100
AcDbEntity
8
Real Hole
62
1
420
16711680
100
AcDbVertex
100
AcDb3dPolylineVertex
10
748709.479111992
20
8930240.15798941
30
189.597355749607
70
32
0
VERTEX
5
2CC
100
AcDbEntity
8
Real Hole
62
1
420
16711680
100
AcDbVertex
100
AcDb3dPolylineVertex
10
748709.703827016
20
8930239.98871594
30
188.637746658325
70
32
0
VERTEX
5
2CD
100
AcDbEntity
8
Real Hole
62
1
420
16711680
100
AcDbVertex
100
AcDb3dPolylineVertex
10
748709.943469756
20
8930239.75024146
30
187.696629610062
70
32
0
VERTEX
5
2CE
100
AcDbEntity
8
Real Hole
62
1
420
16711680
100
AcDbVertex
100
AcDb3dPolylineVertex
10
748710.172422044
20
8930239.54768163
30
186.744500246048
70
32
0
VERTEX
5
2CF
100
AcDbEntity
8
Real Hole
62
1
420
16711680
100
AcDbVertex
100
AcDb3dPolylineVertex
10
748710.404373698
20
8930239.37579572
30
185.787080135345
70
32
0
VERTEX
5
2D0
100
AcDbEntity
8
Real Hole
62
1
420
16711680
100
AcDbVertex
100
AcDb3dPolylineVertex
10
748710.656538062
20
8930239.15782589
30
184.844263877869
70
32
0
VERTEX
5
2D1
100
AcDbEntity
8
Real Hole
62
1
420
16711680
100
AcDbVertex
100
AcDb3dPolylineVertex
10
748710.904370956
20
8930238.98870236
30
183.890337314606
70
32
0
VERTEX
5
2D2
100
AcDbEntity
8
Real Hole
62
1
420
16711680
100
AcDbVertex
100
AcDb3dPolylineVertex
10
748711.152905397
20
8930238.78096908
30
182.944251861572
70
32
0
VERTEX
5
2D3
100
AcDbEntity
8
Real Hole
62
1
420
16711680
100
AcDbVertex
100
AcDb3dPolylineVertex
10
748711.399070196
20
8930238.57426578
30
181.997321929932
70
32
0
VERTEX
5
2D4
100
AcDbEntity
8
Real Hole
62
1
420
16711680
100
AcDbVertex
100
AcDb3dPolylineVertex
10
748711.470571451
20
8930238.51828223
30
181.711396064758
70
32
0
SEQEND
5
2D5
100
AcDbEntity
8
Real Hole
0
POINT
5
2D7
330
1A
100
AcDbEntity
67
0
8
Hole
62
244
420
659967
6
ByLayer
370
-1
48
1.0
60
0
100
AcDbPoint
10
748709.689998322
20
8930241.44999939
30
190.449999656677
39
0.0
210
0.0
220
0.0
230
1.0
50
360.0
0
LINE
5
2D8
330
1A
100
AcDbEntity
67
0
8
Theoretical Hole
62
244
420
659967
6
ByLayer
370
-1
48
1.0
60
0
100
AcDbLine
10
748709.689998322
20
8930241.44999939
30
190.449999656677
11
748713.533736877
21
8930240.42725998
31
180.012156333923
39
0.0
210
0.0
220
0.0
230
1.0
0
TEXT
5
2D9
330
1A
100
AcDbEntity
67
0
8
Number
62
244
420
659967
6
ByLayer
370
-1
48
1.0
60
0
100
AcDbText
1
42
10
748709.689998322
20
8930241.75599938
30
190.449999656677
40
0.3
41
1.0
50
0.0
51
0.0
7
Standard
11
748709.689998322
21
8930241.75599938
31
190.449999656677
210
0.0
220
0.0
230
1.0
72
0
100
AcDbText
73
0
0
TEXT
5
2DA
330
1A
100
AcDbEntity
67
0
8
label
62
1
420
16711680
6
ByLayer
370
-1
48
1.0
60
0
100
AcDbText
1

10
748709.689998322
20
8930242.15599938
30
190.449999656677
40
0.3
41
1.0
50
0.0
51
0.0
7
Standard
11
748709.689998322
21
8930242.15599938
31
190.449999656677
210
0.0
220
0.0
230
1.0
72
0
100
AcDbText
73
0
0
TEXT
5
2DB
330
1A
100
AcDbEntity
67
0
8
Length
62
244
420
659967
6
ByLayer
370
-1
48
1.0
60
0
100
AcDbText
1
11.17
10
748709.689998322
20
8930240.74599939
30
190.449999656677
40
0.3
41
1.0
50
0.0
51
0.0
7
Standard
11
748709.689998322
21
8930240.74599939
31
190.449999656677
210
0.0
220
0.0
230
1.0
72
0
100
AcDbText
73
0
0
POLYLINE
5
2E8
330
1A
100
AcDbEntity
67
0
8
Real Hole
62
1
420
16711680
6
ByLayer
370
-1
48
1.0
60
0
100
AcDb3dPolyline
10
0.0
20
0.0
30
0.0
70
8
75
0
210
0.0
220
0.0
230
1.0
0
VERTEX
5
2DC
100
AcDbEntity
8
Real Hole
62
1
420
16711680
100
AcDbVertex
100
AcDb3dPolylineVertex
10
748709.689998322
20
8930241.44999939
30
190.449999656677
70
32
0
VERTEX
5
2DD
100
AcDbEntity
8
Real Hole
62
1
420
16711680
100
AcDbVertex
100
AcDb3dPolylineVertex
10
748709.997926854
20
8930241.25915007
30
189.517928566933
70
32
0
VERTEX
5
2DE
100
AcDbEntity
8
Real Hole
62
1
420
16711680
100
AcDbVertex
100
AcDb3dPolylineVertex
10
748710.288926714
20
8930241.0717572
30
188.579737153053
70
32
0
VERTEX
5
2DF
100
AcDbEntity
8
Real Hole
62
1
420
16711680
100
AcDbVertex
100
AcDb3dPolylineVertex
10
748710.6013534
20
8930240.86331564
30
187.652946081162
70
32
0
VERTEX
5
2E0
100
AcDbEntity
8
Real Hole
62
1
420
16711680
100
AcDbVertex
100
AcDb3dPolylineVertex
10
748710.88763135
20
8930240.6407752
30
186.721001472473
70
32
0
VERTEX
5
2E1
100
AcDbEntity
8
Real Hole
62
1
420
16711680
100
AcDbVertex
100
AcDb3dPolylineVertex
10
748711.199970179
20
8930240.40600878
30
185.800496902466
70
32
0
VERTEX
5
2E2
100
AcDbEntity
8
Real Hole
62
1
420
16711680
100
AcDbVertex
100
AcDb3dPolylineVertex
10
748711.508818798
20
8930240.19429821
30
184.873247470856
70
32
0
VERTEX
5
2E3
100
AcDbEntity
8
Real Hole
62
1
420
16711680
100
AcDbVertex
100
AcDb3dPolylineVertex
10
748711.812704973
20
8930239.99528903
30
183.941556301117
70
32
0
VERTEX
5
2E4
100
AcDbEntity
8
Real Hole
62
1
420
16711680
100
AcDbVertex
100
AcDb3dPolylineVertex
10
748712.136869841
20
8930239.82118183
30
183.011715736389
70
32
0
VERTEX
5
2E5
100
AcDbEntity
8
Real Hole
62
1
420
16711680
100
AcDbVertex
100
AcDb3dPolylineVertex
10
748712.448995762
20
8930239.64709788
30
182.077760543823
70
32
0
VERTEX
5
2E6
100
AcDbEntity
8
Real Hole
62
1
420
16711680
100
AcDbVertex
100
AcDb3dPolylineVertex
10
748712.727111988
20
8930239.47833282
30
181.2386120224
70
32
0
SEQEND
5
2E7
100
AcDbEntity
8
Real Hole
0
POINT
5
2E9
330
1A
100
AcDbEntity
67
0
8
Hole
62
244
420
659967
6
ByLayer
370
-1
48
1.0
60
0
100
AcDbPoint
10
748709.999999695
20
8930242.60999924
30
190.390000190735
39
0.0
210
0.0
220
0.0
230
1.0
50
360.0
0
LINE
5
2EA
330
1A
100
AcDbEntity
67
0
8
Theoretical Hole
62
244
420
659967
6
ByLayer
370
-1
48
1.0
60
0
100
AcDbLine
10
748709.999999695
20
8930242.60999924
30
190.390000190735
11
748714.036842041
21
8930241.97495895
31
180.015845503807
39
0.0
210
0.0
220
0.0
230
1.0
0
TEXT
5
2EB
330
1A
100
AcDbEntity
67
0
8
Number
62
244
420
659967
6
ByLayer
370
-1
48
1.0
60
0
100
AcDbText
1
43
10
748709.999999695
20
8930242.91599923
30
190.390000190735
40
0.3
41
1.0
50
0.0
51
0.0
7
Standard
11
748709.999999695
21
8930242.91599923
31
190.390000190735
210
0.0
220
0.0
230
1.0
72
0
100
AcDbText
73
0
0
TEXT
5
2EC
330
1A
100
AcDbEntity
67
0
8
label
62
1
420
16711680
6
ByLayer
370
-1
48
1.0
60
0
100
AcDbText
1

10
748709.999999695
20
8930243.31599923
30
190.390000190735
40
0.3
41
1.0
50
0.0
51
0.0
7
Standard
11
748709.999999695
21
8930243.31599923
31
190.390000190735
210
0.0
220
0.0
230
1.0
72
0
100
AcDbText
73
0
0
TEXT
5
2ED
330
1A
100
AcDbEntity
67
0
8
Length
62
244
420
659967
6
ByLayer
370
-1
48
1.0
60
0
100
AcDbText
1
11.15
10
748709.999999695
20
8930241.90599924
30
190.390000190735
40
0.3
41
1.0
50
0.0
51
0.0
7
Standard
11
748709.999999695
21
8930241.90599924
31
190.390000190735
210
0.0
220
0.0
230
1.0
72
0
100
AcDbText
73
0
0
POLYLINE
5
2FA
330
1A
100
AcDbEntity
67
0
8
Real Hole
62
1
420
16711680
6
ByLayer
370
-1
48
1.0
60
0
100
AcDb3dPolyline
10
0.0
20
0.0
30
0.0
70
8
75
0
210
0.0
220
0.0
230
1.0
0
VERTEX
5
2EE
100
AcDbEntity
8
Real Hole
62
1
420
16711680
100
AcDbVertex
100
AcDb3dPolylineVertex
10
748709.999999695
20
8930242.60999924
30
190.390000190735
70
32
0
VERTEX
5
2EF
100
AcDbEntity
8
Real Hole
62
1
420
16711680
100
AcDbVertex
100
AcDb3dPolylineVertex
10
748710.296627812
20
8930242.49548048
30
189.441898312569
70
32
0
VERTEX
5
2F0
100
AcDbEntity
8
Real Hole
62
1
420
16711680
100
AcDbVertex
100
AcDb3dPolylineVertex
10
748710.596300356
20
8930242.38104671
30
188.494744029045
70
32
0
VERTEX
5
2F1
100
AcDbEntity
8
Real Hole
62
1
420
16711680
100
AcDbVertex
100
AcDb3dPolylineVertex
10
748710.884660177
20
8930242.24356788
30
187.547142591476
70
32
0
VERTEX
5
2F2
100
AcDbEntity
8
Real Hole
62
1
420
16711680
100
AcDbVertex
100
AcDb3dPolylineVertex
10
748711.184858494
20
8930242.11253923
30
186.602308120728
70
32
0
VERTEX
5
2F3
100
AcDbEntity
8
Real Hole
62
1
420
16711680
100
AcDbVertex
100
AcDb3dPolylineVertex
10
748711.484273248
20
8930241.96533871
30
185.659608211517
70
32
0
VERTEX
5
2F4
100
AcDbEntity
8
Real Hole
62
1
420
16711680
100
AcDbVertex
100
AcDb3dPolylineVertex
10
748711.800396972
20
8930241.82280254
30
184.721659030914
70
32
0
VERTEX
5
2F5
100
AcDbEntity
8
Real Hole
62
1
420
16711680
100
AcDbVertex
100
AcDb3dPolylineVertex
10
748712.123095446
20
8930241.70509481
30
183.782504882813
70
32
0
VERTEX
5
2F6
100
AcDbEntity
8
Real Hole
62
1
420
16711680
100
AcDbVertex
100
AcDb3dPolylineVertex
10
748712.431680613
20
8930241.60393554
30
182.836702194214
70
32
0
VERTEX
5
2F7
100
AcDbEntity
8
Real Hole
62
1
420
16711680
100
AcDbVertex
100
AcDb3dPolylineVertex
10
748712.748976879
20
8930241.50850051
30
181.893190231323
70
32
0
VERTEX
5
2F8
100
AcDbEntity
8
Real Hole
62
1
420
16711680
100
AcDbVertex
100
AcDb3dPolylineVertex
10
748713.072921448
20
8930241.42266875
30
180.951015319824
70
32
0
SEQEND
5
2F9
100
AcDbEntity
8
Real Hole
0
POINT
5
2FB
330
1A
100
AcDbEntity
67
0
8
Hole
62
244
420
659967
6
ByLayer
370
-1
48
1.0
60
0
100
AcDbPoint
10
748710.18
20
8930243.80000168
30
190.400000419617
39
0.0
210
0.0
220
0.0
230
1.0
50
360.0
0
LINE
5
2FC
330
1A
100
AcDbEntity
67
0
8
Theoretical Hole
62
244
420
659967
6
ByLayer
370
-1
48
1.0
60
0
100
AcDbLine
10
748710.18
20
8930243.80000168
30
190.400000419617
11
748714.294620209
21
8930243.60452133
31
180.006536569595
39
0.0
210
0.0
220
0.0
230
1.0
0
TEXT
5
2FD
330
1A
100
AcDbEntity
67
0
8
Number
62
244
420
659967
6
ByLayer
370
-1
48
1.0
60
0
100
AcDbText
1
44
10
748710.18
20
8930244.10600167
30
190.400000419617
40
0.3
41
1.0
50
0.0
51
0.0
7
Standard
11
748710.18
21
8930244.10600167
31
190.400000419617
210
0.0
220
0.0
230
1.0
72
0
100
AcDbText
73
0
0
TEXT
5
2FE
330
1A
100
AcDbEntity
67
0
8
label
62
1
420
16711680
6
ByLayer
370
-1
48
1.0
60
0
100
AcDbText
1

10
748710.18
20
8930244.50600167
30
190.400000419617
40
0.3
41
1.0
50
0.0
51
0.0
7
Standard
11
748710.18
21
8930244.50600167
31
190.400000419617
210
0.0
220
0.0
230
1.0
72
0
100
AcDbText
73
0
0
TEXT
5
2FF
330
1A
100
AcDbEntity
67
0
8
Length
62
244
420
659967
6
ByLayer
370
-1
48
1.0
60
0
100
AcDbText
1
11.18
10
748710.18
20
8930243.09600168
30
190.400000419617
40
0.3
41
1.0
50
0.0
51
0.0
7
Standard
11
748710.18
21
8930243.09600168
31
190.400000419617
210
0.0
220
0.0
230
1.0
72
0
100
AcDbText
73
0
0
POLYLINE
5
30C
330
1A
100
AcDbEntity
67
0
8
Real Hole
62
1
420
16711680
6
ByLayer
370
-1
48
1.0
60
0
100
AcDb3dPolyline
10
0.0
20
0.0
30
0.0
70
8
75
0
210
0.0
220
0.0
230
1.0
0
VERTEX
5
300
100
AcDbEntity
8
Real Hole
62
1
420
16711680
100
AcDbVertex
100
AcDb3dPolylineVertex
10
748710.18
20
8930243.80000168
30
190.400000419617
70
32
0
VERTEX
5
301
100
AcDbEntity
8
Real Hole
62
1
420
16711680
100
AcDbVertex
100
AcDb3dPolylineVertex
10
748710.503976636
20
8930243.68054459
30
189.461507406235
70
32
0
VERTEX
5
302
100
AcDbEntity
8
Real Hole
62
1
420
16711680
100
AcDbVertex
100
AcDb3dPolylineVertex
10
748710.828493111
20
8930243.57409996
30
188.521635856628
70
32
0
VERTEX
5
303
100
AcDbEntity
8
Real Hole
62
1
420
16711680
100
AcDbVertex
100
AcDb3dPolylineVertex
10
748711.121614091
20
8930243.45477783
30
187.573035564423
70
32
0
VERTEX
5
304
100
AcDbEntity
8
Real Hole
62
1
420
16711680
100
AcDbVertex
100
AcDb3dPolylineVertex
10
748711.431972437
20
8930243.3178288
30
186.632332410812
70
32
0
VERTEX
5
305
100
AcDbEntity
8
Real Hole
62
1
420
16711680
100
AcDbVertex
100
AcDb3dPolylineVertex
10
748711.760356836
20
8930243.19151079
30
185.696272697449
70
32
0
VERTEX
5
306
100
AcDbEntity
8
Real Hole
62
1
420
16711680
100
AcDbVertex
100
AcDb3dPolylineVertex
10
748712.08008843
20
8930243.06155127
30
184.757719364166
70
32
0
VERTEX
5
307
100
AcDbEntity
8
Real Hole
62
1
420
16711680
100
AcDbVertex
100
AcDb3dPolylineVertex
10
748712.390110426
20
8930242.92835527
30
183.816366519928
70
32
0
VERTEX
5
308
100
AcDbEntity
8
Real Hole
62
1
420
16711680
100
AcDbVertex
100
AcDb3dPolylineVertex
10
748712.706132107
20
8930242.79002601
30
182.877753105164
70
32
0
VERTEX
5
309
100
AcDbEntity
8
Real Hole
62
1
420
16711680
100
AcDbVertex
100
AcDb3dPolylineVertex
10
748713.021364145
20
8930242.66118961
30
181.937524642944
70
32
0
VERTEX
5
30A
100
AcDbEntity
8
Real Hole
62
1
420
16711680
100
AcDbVertex
100
AcDb3dPolylineVertex
10
748713.235203676
20
8930242.56642896
30
181.277757492065
70
32
0
SEQEND
5
30B
100
AcDbEntity
8
Real Hole
0
POINT
5
30D
330
1A
100
AcDbEntity
67
0
8
Hole
62
244
420
659967
6
ByLayer
370
-1
48
1.0
60
0
100
AcDbPoint
10
748710.240001373
20
8930244.99999863
30
190.319999542236
39
0.0
210
0.0
220
0.0
230
1.0
50
360.0
0
LINE
5
30E
330
1A
100
AcDbEntity
67
0
8
Theoretical Hole
62
244
420
659967
6
ByLayer
370
-1
48
1.0
60
0
100
AcDbLine
10
748710.240001373
20
8930244.99999863
30
190.319999542236
11
748714.330829315
21
8930245.25378662
31
180.015204992294
39
0.0
210
0.0
220
0.0
230
1.0
0
TEXT
5
30F
330
1A
100
AcDbEntity
67
0
8
Number
62
244
420
659967
6
ByLayer
370
-1
48
1.0
60
0
100
AcDbText
1
45
10
748710.240001373
20
8930245.30599862
30
190.319999542236
40
0.3
41
1.0
50
0.0
51
0.0
7
Standard
11
748710.240001373
21
8930245.30599862
31
190.319999542236
210
0.0
220
0.0
230
1.0
72
0
100
AcDbText
73
0
0
TEXT
5
310
330
1A
100
AcDbEntity
67
0
8
label
62
1
420
16711680
6
ByLayer
370
-1
48
1.0
60
0
100
AcDbText
1

10
748710.240001373
20
8930245.70599862
30
190.319999542236
40
0.3
41
1.0
50
0.0
51
0.0
7
Standard
11
748710.240001373
21
8930245.70599862
31
190.319999542236
210
0.0
220
0.0
230
1.0
72
0
100
AcDbText
73
0
0
TEXT
5
311
330
1A
100
AcDbEntity
67
0
8
Length
62
244
420
659967
6
ByLayer
370
-1
48
1.0
60
0
100
AcDbText
1
11.09
10
748710.240001373
20
8930244.29599863
30
190.319999542236
40
0.3
41
1.0
50
0.0
51
0.0
7
Standard
11
748710.240001373
21
8930244.29599863
31
190.319999542236
210
0.0
220
0.0
230
1.0
72
0
100
AcDbText
73
0
0
POLYLINE
5
31E
330
1A
100
AcDbEntity
67
0
8
Real Hole
62
1
420
16711680
6
ByLayer
370
-1
48
1.0
60
0
100
AcDb3dPolyline
10
0.0
20
0.0
30
0.0
70
8
75
0
210
0.0
220
0.0
230
1.0
0
VERTEX
5
312
100
AcDbEntity
8
Real Hole
62
1
420
16711680
100
AcDbVertex
100
AcDb3dPolylineVertex
10
748710.240001373
20
8930244.99999863
30
190.319999542236
70
32
0
VERTEX
5
313
100
AcDbEntity
8
Real Hole
62
1
420
16711680
100
AcDbVertex
100
AcDb3dPolylineVertex
10
748710.560264759
20
8930244.93965791
30
189.374594655037
70
32
0
VERTEX
5
314
100
AcDbEntity
8
Real Hole
62
1
420
16711680
100
AcDbVertex
100
AcDb3dPolylineVertex
10
748710.875586562
20
8930244.9013881
30
188.426381793022
70
32
0
VERTEX
5
315
100
AcDbEntity
8
Real Hole
62
1
420
16711680
100
AcDbVertex
100
AcDb3dPolylineVertex
10
748711.179789357
20
8930244.84165074
30
187.475649442673
70
32
0
VERTEX
5
316
100
AcDbEntity
8
Real Hole
62
1
420
16711680
100
AcDbVertex
100
AcDb3dPolylineVertex
10
748711.531047635
20
8930244.76980331
30
186.542131509781
70
32
0
VERTEX
5
317
100
AcDbEntity
8
Real Hole
62
1
420
16711680
100
AcDbVertex
100
AcDb3dPolylineVertex
10
748711.867438726
20
8930244.71079114
30
185.602259960175
70
32
0
VERTEX
5
318
100
AcDbEntity
8
Real Hole
62
1
420
16711680
100
AcDbVertex
100
AcDb3dPolylineVertex
10
748712.217908197
20
8930244.68370092
30
184.66607793808
70
32
0
VERTEX
5
319
100
AcDbEntity
8
Real Hole
62
1
420
16711680
100
AcDbVertex
100
AcDb3dPolylineVertex
10
748712.536293678
20
8930244.69982967
30
183.71825345993
70
32
0
VERTEX
5
31A
100
AcDbEntity
8
Real Hole
62
1
420
16711680
100
AcDbVertex
100
AcDb3dPolylineVertex
10
748712.864448957
20
8930244.66040906
30
182.774452533722
70
32
0
VERTEX
5
31B
100
AcDbEntity
8
Real Hole
62
1
420
16711680
100
AcDbVertex
100
AcDb3dPolylineVertex
10
748713.232407026
20
8930244.61020136
30
181.845967140198
70
32
0
VERTEX
5
31C
100
AcDbEntity
8
Real Hole
62
1
420
16711680
100
AcDbVertex
100
AcDb3dPolylineVertex
10
748713.52806037
20
8930244.57243219
30
180.996753540039
70
32
0
SEQEND
5
31D
100
AcDbEntity
8
Real Hole
0
POINT
5
31F
330
1A
100
AcDbEntity
67
0
8
Hole
62
244
420
659967
6
ByLayer
370
-1
48
1.0
60
0
100
AcDbPoint
10
748710.170001679
20
8930246.19000107
30
190.289999809265
39
0.0
210
0.0
220
0.0
230
1.0
50
360.0
0
LINE
5
320
330
1A
100
AcDbEntity
67
0
8
Theoretical Hole
62
244
420
659967
6
ByLayer
370
-1
48
1.0
60
0
100
AcDbLine
10
748710.170001679
20
8930246.19000107
30
190.289999809265
11
748714.157733612
21
8930246.87521988
31
180.018189754486
39
0.0
210
0.0
220
0.0
230
1.0
0
TEXT
5
321
330
1A
100
AcDbEntity
67
0
8
Number
62
244
420
659967
6
ByLayer
370
-1
48
1.0
60
0
100
AcDbText
1
46
10
748710.170001679
20
8930246.49600106
30
190.289999809265
40
0.3
41
1.0
50
0.0
51
0.0
7
Standard
11
748710.170001679
21
8930246.49600106
31
190.289999809265
210
0.0
220
0.0
230
1.0
72
0
100
AcDbText
73
0
0
TEXT
5
322
330
1A
100
AcDbEntity
67
0
8
label
62
1
420
16711680
6
ByLayer
370
-1
48
1.0
60
0
100
AcDbText
1

10
748710.170001679
20
8930246.89600106
30
190.289999809265
40
0.3
41
1.0
50
0.0
51
0.0
7
Standard
11
748710.170001679
21
8930246.89600106
31
190.289999809265
210
0.0
220
0.0
230
1.0
72
0
100
AcDbText
73
0
0
TEXT
5
323
330
1A
100
AcDbEntity
67
0
8
Length
62
244
420
659967
6
ByLayer
370
-1
48
1.0
60
0
100
AcDbText
1
11.04
10
748710.170001679
20
8930245.48600107
30
190.289999809265
40
0.3
41
1.0
50
0.0
51
0.0
7
Standard
11
748710.170001679
21
8930245.48600107
31
190.289999809265
210
0.0
220
0.0
230
1.0
72
0
100
AcDbText
73
0
0
POLYLINE
5
330
330
1A
100
AcDbEntity
67
0
8
Real Hole
62
1
420
16711680
6
ByLayer
370
-1
48
1.0
60
0
100
AcDb3dPolyline
10
0.0
20
0.0
30
0.0
70
8
75
0
210
0.0
220
0.0
230
1.0
0
VERTEX
5
324
100
AcDbEntity
8
Real Hole
62
1
420
16711680
100
AcDbVertex
100
AcDb3dPolylineVertex
10
748710.170001679
20
8930246.19000107
30
190.289999809265
70
32
0
VERTEX
5
325
100
AcDbEntity
8
Real Hole
62
1
420
16711680
100
AcDbVertex
100
AcDb3dPolylineVertex
10
748710.569609486
20
8930246.27159277
30
189.376951959133
70
32
0
VERTEX
5
326
100
AcDbEntity
8
Real Hole
62
1
420
16711680
100
AcDbVertex
100
AcDb3dPolylineVertex
10
748710.975531035
20
8930246.35565506
30
188.466918315887
70
32
0
VERTEX
5
327
100
AcDbEntity
8
Real Hole
62
1
420
16711680
100
AcDbVertex
100
AcDb3dPolylineVertex
10
748711.384579115
20
8930246.38476072
30
187.554869737625
70
32
0
VERTEX
5
328
100
AcDbEntity
8
Real Hole
62
1
420
16711680
100
AcDbVertex
100
AcDb3dPolylineVertex
10
748711.831137829
20
8930246.41959198
30
186.660793628693
70
32
0
VERTEX
5
329
100
AcDbEntity
8
Real Hole
62
1
420
16711680
100
AcDbVertex
100
AcDb3dPolylineVertex
10
748712.208017044
20
8930246.49715981
30
185.73778470993
70
32
0
VERTEX
5
32A
100
AcDbEntity
8
Real Hole
62
1
420
16711680
100
AcDbVertex
100
AcDb3dPolylineVertex
10
748712.625482731
20
8930246.54937988
30
184.830593910217
70
32
0
VERTEX
5
32B
100
AcDbEntity
8
Real Hole
62
1
420
16711680
100
AcDbVertex
100
AcDb3dPolylineVertex
10
748713.077766829
20
8930246.60507363
30
183.940460529327
70
32
0
VERTEX
5
32C
100
AcDbEntity
8
Real Hole
62
1
420
16711680
100
AcDbVertex
100
AcDb3dPolylineVertex
10
748713.523202829
20
8930246.70415067
30
183.050645675659
70
32
0
VERTEX
5
32D
100
AcDbEntity
8
Real Hole
62
1
420
16711680
100
AcDbVertex
100
AcDb3dPolylineVertex
10
748713.96733778
20
8930246.8210817
30
182.162348594666
70
32
0
VERTEX
5
32E
100
AcDbEntity
8
Real Hole
62
1
420
16711680
100
AcDbVertex
100
AcDb3dPolylineVertex
10
748714.282856636
20
8930246.90864205
30
181.543656196594
70
32
0
SEQEND
5
32F
100
AcDbEntity
8
Real Hole
0
POINT
5
331
330
1A
100
AcDbEntity
67
0
8
Hole
62
244
420
659967
6
ByLayer
370
-1
48
1.0
60
0
100
AcDbPoint
10
748709.959998779
20
8930247.3799997
30
190.279999580383
39
0.0
210
0.0
220
0.0
230
1.0
50
360.0
0
LINE
5
332
330
1A
100
AcDbEntity
67
0
8
Theoretical Hole
62
244
420
659967
6
ByLayer
370
-1
48
1.0
60
0
100
AcDbLine
10
748709.959998779
20
8930247.3799997
30
190.279999580383
11
748713.771072083
21
8930248.44909149
31
180.006107416153
39
0.0
210
0.0
220
0.0
230
1.0
0
TEXT
5
333
330
1A
100
AcDbEntity
67
0
8
Number
62
244
420
659967
6
ByLayer
370
-1
48
1.0
60
0
100
AcDbText
1
47
10
748709.959998779
20
8930247.68599969
30
190.279999580383
40
0.3
41
1.0
50
0.0
51
0.0
7
Standard
11
748709.959998779
21
8930247.68599969
31
190.279999580383
210
0.0
220
0.0
230
1.0
72
0
100
AcDbText
73
0
0
TEXT
5
334
330
1A
100
AcDbEntity
67
0
8
label
62
1
420
16711680
6
ByLayer
370
-1
48
1.0
60
0
100
AcDbText
1

10
748709.959998779
20
8930248.08599969
30
190.279999580383
40
0.3
41
1.0
50
0.0
51
0.0
7
Standard
11
748709.959998779
21
8930248.08599969
31
190.279999580383
210
0.0
220
0.0
230
1.0
72
0
100
AcDbText
73
0
0
TEXT
5
335
330
1A
100
AcDbEntity
67
0
8
Length
62
244
420
659967
6
ByLayer
370
-1
48
1.0
60
0
100
AcDbText
1
11.01
10
748709.959998779
20
8930246.6759997
30
190.279999580383
40
0.3
41
1.0
50
0.0
51
0.0
7
Standard
11
748709.959998779
21
8930246.6759997
31
190.279999580383
210
0.0
220
0.0
230
1.0
72
0
100
AcDbText
73
0
0
POLYLINE
5
341
330
1A
100
AcDbEntity
67
0
8
Real Hole
62
1
420
16711680
6
ByLayer
370
-1
48
1.0
60
0
100
AcDb3dPolyline
10
0.0
20
0.0
30
0.0
70
8
75
0
210
0.0
220
0.0
230
1.0
0
VERTEX
5
336
100
AcDbEntity
8
Real Hole
62
1
420
16711680
100
AcDbVertex
100
AcDb3dPolylineVertex
10
748709.959998779
20
8930247.3799997
30
190.279999580383
70
32
0
VERTEX
5
337
100
AcDbEntity
8
Real Hole
62
1
420
16711680
100
AcDbVertex
100
AcDb3dPolylineVertex
10
748710.3338077
20
8930247.49207665
30
189.359290268421
70
32
0
VERTEX
5
338
100
AcDbEntity
8
Real Hole
62
1
420
16711680
100
AcDbVertex
100
AcDb3dPolylineVertex
10
748710.705750816
20
8930247.611781
30
188.438785400391
70
32
0
VERTEX
5
339
100
AcDbEntity
8
Real Hole
62
1
420
16711680
100
AcDbVertex
100
AcDb3dPolylineVertex
10
748711.056633525
20
8930247.71478528
30
187.508048381805
70
32
0
VERTEX
5
33A
100
AcDbEntity
8
Real Hole
62
1
420
16711680
100
AcDbVertex
100
AcDb3dPolylineVertex
10
748711.441929512
20
8930247.82055181
30
186.591336574554
70
32
0
VERTEX
5
33B
100
AcDbEntity
8
Real Hole
62
1
420
16711680
100
AcDbVertex
100
AcDb3dPolylineVertex
10
748711.798710876
20
8930247.95579541
30
185.666990127563
70
32
0
VERTEX
5
33C
100
AcDbEntity
8
Real Hole
62
1
420
16711680
100
AcDbVertex
100
AcDb3dPolylineVertex
10
748712.186066322
20
8930248.11041289
30
184.758117523193
70
32
0
VERTEX
5
33D
100
AcDbEntity
8
Real Hole
62
1
420
16711680
100
AcDbVertex
100
AcDb3dPolylineVertex
10
748712.612086706
20
8930248.2371723
30
183.86232837677
70
32
0
VERTEX
5
33E
100
AcDbEntity
8
Real Hole
62
1
420
16711680
100
AcDbVertex
100
AcDb3dPolylineVertex
10
748713.067808085
20
8930248.37597865
30
182.983095016479
70
32
0
VERTEX
5
33F
100
AcDbEntity
8
Real Hole
62
1
420
16711680
100
AcDbVertex
100
AcDb3dPolylineVertex
10
748713.51822155
20
8930248.50394243
30
182.099492874146
70
32
0
SEQEND
5
340
100
AcDbEntity
8
Real Hole
0
POINT
5
342
330
1A
100
AcDbEntity
67
0
8
Hole
62
244
420
659967
6
ByLayer
370
-1
48
1.0
60
0
100
AcDbPoint
10
748709.639999085
20
8930248.53000122
30
190.319999542236
39
0.0
210
0.0
220
0.0
230
1.0
50
360.0
0
LINE
5
343
330
1A
100
AcDbEntity
67
0
8
Theoretical Hole
62
244
420
659967
6
ByLayer
370
-1
48
1.0
60
0
100
AcDbLine
10
748709.639999085
20
8930248.53000122
30
190.319999542236
11
748713.243713074
21
8930249.92634445
31
180.010608520508
39
0.0
210
0.0
220
0.0
230
1.0
0
TEXT
5
344
330
1A
100
AcDbEntity
67
0
8
Number
62
244
420
659967
6
ByLayer
370
-1
48
1.0
60
0
100
AcDbText
1
48
10
748709.639999085
20
8930248.83600122
30
190.319999542236
40
0.3
41
1.0
50
0.0
51
0.0
7
Standard
11
748709.639999085
21
8930248.83600122
31
190.319999542236
210
0.0
220
0.0
230
1.0
72
0
100
AcDbText
73
0
0
TEXT
5
345
330
1A
100
AcDbEntity
67
0
8
label
62
1
420
16711680
6
ByLayer
370
-1
48
1.0
60
0
100
AcDbText
1

10
748709.639999085
20
8930249.23600122
30
190.319999542236
40
0.3
41
1.0
50
0.0
51
0.0
7
Standard
11
748709.639999085
21
8930249.23600122
31
190.319999542236
210
0.0
220
0.0
230
1.0
72
0
100
AcDbText
73
0
0
TEXT
5
346
330
1A
100
AcDbEntity
67
0
8
Length
62
244
420
659967
6
ByLayer
370
-1
48
1.0
60
0
100
AcDbText
1
11.01
10
748709.639999085
20
8930247.82600123
30
190.319999542236
40
0.3
41
1.0
50
0.0
51
0.0
7
Standard
11
748709.639999085
21
8930247.82600123
31
190.319999542236
210
0.0
220
0.0
230
1.0
72
0
100
AcDbText
73
0
0
POLYLINE
5
353
330
1A
100
AcDbEntity
67
0
8
Real Hole
62
1
420
16711680
6
ByLayer
370
-1
48
1.0
60
0
100
AcDb3dPolyline
10
0.0
20
0.0
30
0.0
70
8
75
0
210
0.0
220
0.0
230
1.0
0
VERTEX
5
347
100
AcDbEntity
8
Real Hole
62
1
420
16711680
100
AcDbVertex
100
AcDb3dPolylineVertex
10
748709.639999085
20
8930248.53000122
30
190.319999542236
70
32
0
VERTEX
5
348
100
AcDbEntity
8
Real Hole
62
1
420
16711680
100
AcDbVertex
100
AcDb3dPolylineVertex
10
748709.978159629
20
8930248.58743966
30
189.380665566921
70
32
0
VERTEX
5
349
100
AcDbEntity
8
Real Hole
62
1
420
16711680
100
AcDbVertex
100
AcDb3dPolylineVertex
10
748710.319757693
20
8930248.66235739
30
188.443810191154
70
32
0
VERTEX
5
34A
100
AcDbEntity
8
Real Hole
62
1
420
16711680
100
AcDbVertex
100
AcDb3dPolylineVertex
10
748710.675532155
20
8930248.72144687
30
187.51110824585
70
32
0
VERTEX
5
34B
100
AcDbEntity
8
Real Hole
62
1
420
16711680
100
AcDbVertex
100
AcDb3dPolylineVertex
10
748711.106254153
20
8930248.79685232
30
186.611779298782
70
32
0
VERTEX
5
34C
100
AcDbEntity
8
Real Hole
62
1
420
16711680
100
AcDbVertex
100
AcDb3dPolylineVertex
10
748711.48916822
20
8930248.86962008
30
185.690865840912
70
32
0
VERTEX
5
34D
100
AcDbEntity
8
Real Hole
62
1
420
16711680
100
AcDbVertex
100
AcDb3dPolylineVertex
10
748711.863767319
20
8930249.04565358
30
184.780542697906
70
32
0
VERTEX
5
34E
100
AcDbEntity
8
Real Hole
62
1
420
16711680
100
AcDbVertex
100
AcDb3dPolylineVertex
10
748712.281833344
20
8930249.17275142
30
183.881061401367
70
32
0
VERTEX
5
34F
100
AcDbEntity
8
Real Hole
62
1
420
16711680
100
AcDbVertex
100
AcDb3dPolylineVertex
10
748712.723230534
20
8930249.28477001
30
182.990769233704
70
32
0
VERTEX
5
350
100
AcDbEntity
8
Real Hole
62
1
420
16711680
100
AcDbVertex
100
AcDb3dPolylineVertex
10
748713.177383833
20
8930249.3747772
30
182.104404296875
70
32
0
VERTEX
5
351
100
AcDbEntity
8
Real Hole
62
1
420
16711680
100
AcDbVertex
100
AcDb3dPolylineVertex
10
748713.612948828
20
8930249.46015268
30
181.208304252625
70
32
0
SEQEND
5
352
100
AcDbEntity
8
Real Hole
0
POINT
5
354
330
1A
100
AcDbEntity
67
0
8
Hole
62
244
420
659967
6
ByLayer
370
-1
48
1.0
60
0
100
AcDbPoint
10
748709.209998779
20
8930249.65000015
30
190.319999542236
39
0.0
210
0.0
220
0.0
230
1.0
50
360.0
0
LINE
5
355
330
1A
100
AcDbEntity
67
0
8
Theoretical Hole
62
244
420
659967
6
ByLayer
370
-1
48
1.0
60
0
100
AcDbLine
10
748709.209998779
20
8930249.65000015
30
190.319999542236
11
748712.588946991
21
8930251.31338364
31
180.006114091873
39
0.0
210
0.0
220
0.0
230
1.0
0
TEXT
5
356
330
1A
100
AcDbEntity
67
0
8
Number
62
244
420
659967
6
ByLayer
370
-1
48
1.0
60
0
100
AcDbText
1
49
10
748709.209998779
20
8930249.95600015
30
190.319999542236
40
0.3
41
1.0
50
0.0
51
0.0
7
Standard
11
748709.209998779
21
8930249.95600015
31
190.319999542236
210
0.0
220
0.0
230
1.0
72
0
100
AcDbText
73
0
0
TEXT
5
357
330
1A
100
AcDbEntity
67
0
8
label
62
1
420
16711680
6
ByLayer
370
-1
48
1.0
60
0
100
AcDbText
1

10
748709.209998779
20
8930250.35600015
30
190.319999542236
40
0.3
41
1.0
50
0.0
51
0.0
7
Standard
11
748709.209998779
21
8930250.35600015
31
190.319999542236
210
0.0
220
0.0
230
1.0
72
0
100
AcDbText
73
0
0
TEXT
5
358
330
1A
100
AcDbEntity
67
0
8
Length
62
244
420
659967
6
ByLayer
370
-1
48
1.0
60
0
100
AcDbText
1
10.98
10
748709.209998779
20
8930248.94600016
30
190.319999542236
40
0.3
41
1.0
50
0.0
51
0.0
7
Standard
11
748709.209998779
21
8930248.94600016
31
190.319999542236
210
0.0
220
0.0
230
1.0
72
0
100
AcDbText
73
0
0
POLYLINE
5
365
330
1A
100
AcDbEntity
67
0
8
Real Hole
62
1
420
16711680
6
ByLayer
370
-1
48
1.0
60
0
100
AcDb3dPolyline
10
0.0
20
0.0
30
0.0
70
8
75
0
210
0.0
220
0.0
230
1.0
0
VERTEX
5
359
100
AcDbEntity
8
Real Hole
62
1
420
16711680
100
AcDbVertex
100
AcDb3dPolylineVertex
10
748709.209998779
20
8930249.65000015
30
190.319999542236
70
32
0
VERTEX
5
35A
100
AcDbEntity
8
Real Hole
62
1
420
16711680
100
AcDbVertex
100
AcDb3dPolylineVertex
10
748709.483052425
20
8930249.79819447
30
189.369483795166
70
32
0
VERTEX
5
35B
100
AcDbEntity
8
Real Hole
62
1
420
16711680
100
AcDbVertex
100
AcDb3dPolylineVertex
10
748709.748638563
20
8930249.92669824
30
188.413999285698
70
32
0
VERTEX
5
35C
100
AcDbEntity
8
Real Hole
62
1
420
16711680
100
AcDbVertex
100
AcDb3dPolylineVertex
10
748710.045575731
20
8930250.03665647
30
187.465454187393
70
32
0
VERTEX
5
35D
100
AcDbEntity
8
Real Hole
62
1
420
16711680
100
AcDbVertex
100
AcDb3dPolylineVertex
10
748710.377975278
20
8930250.1539737
30
186.529640522003
70
32
0
VERTEX
5
35E
100
AcDbEntity
8
Real Hole
62
1
420
16711680
100
AcDbVertex
100
AcDb3dPolylineVertex
10
748710.677429967
20
8930250.28003746
30
185.583895053864
70
32
0
VERTEX
5
35F
100
AcDbEntity
8
Real Hole
62
1
420
16711680
100
AcDbVertex
100
AcDb3dPolylineVertex
10
748711.019031339
20
8930250.38997674
30
184.650502529144
70
32
0
VERTEX
5
360
100
AcDbEntity
8
Real Hole
62
1
420
16711680
100
AcDbVertex
100
AcDb3dPolylineVertex
10
748711.353529863
20
8930250.50574189
30
183.715243663788
70
32
0
VERTEX
5
361
100
AcDbEntity
8
Real Hole
62
1
420
16711680
100
AcDbVertex
100
AcDb3dPolylineVertex
10
748711.674484186
20
8930250.62580561
30
182.775790061951
70
32
0
VERTEX
5
362
100
AcDbEntity
8
Real Hole
62
1
420
16711680
100
AcDbVertex
100
AcDb3dPolylineVertex
10
748711.995719605
20
8930250.75985199
30
181.8383253479
70
32
0
VERTEX
5
363
100
AcDbEntity
8
Real Hole
62
1
420
16711680
100
AcDbVertex
100
AcDb3dPolylineVertex
10
748712.186848812
20
8930250.83483177
30
181.274545516968
70
32
0
SEQEND
5
364
100
AcDbEntity
8
Real Hole
0
POINT
5
366
330
1A
100
AcDbEntity
67
0
8
Hole
62
244
420
659967
6
ByLayer
370
-1
48
1.0
60
0
100
AcDbPoint
10
748708.68
20
8930250.72999817
30
190.390000190735
39
0.0
210
0.0
220
0.0
230
1.0
50
360.0
0
LINE
5
367
330
1A
100
AcDbEntity
67
0
8
Theoretical Hole
62
244
420
659967
6
ByLayer
370
-1
48
1.0
60
0
100
AcDbLine
10
748708.68
20
8930250.72999817
30
190.390000190735
11
748711.843581848
21
8930252.60764938
31
180.012801852226
39
0.0
210
0.0
220
0.0
230
1.0
0
TEXT
5
368
330
1A
100
AcDbEntity
67
0
8
Number
62
244
420
659967
6
ByLayer
370
-1
48
1.0
60
0
100
AcDbText
1
50
10
748708.68
20
8930251.03599816
30
190.390000190735
40
0.3
41
1.0
50
0.0
51
0.0
7
Standard
11
748708.68
21
8930251.03599816
31
190.390000190735
210
0.0
220
0.0
230
1.0
72
0
100
AcDbText
73
0
0
TEXT
5
369
330
1A
100
AcDbEntity
67
0
8
label
62
1
420
16711680
6
ByLayer
370
-1
48
1.0
60
0
100
AcDbText
1

10
748708.68
20
8930251.43599816
30
190.390000190735
40
0.3
41
1.0
50
0.0
51
0.0
7
Standard
11
748708.68
21
8930251.43599816
31
190.390000190735
210
0.0
220
0.0
230
1.0
72
0
100
AcDbText
73
0
0
TEXT
5
36A
330
1A
100
AcDbEntity
67
0
8
Length
62
244
420
659967
6
ByLayer
370
-1
48
1.0
60
0
100
AcDbText
1
11.01
10
748708.68
20
8930250.02599817
30
190.390000190735
40
0.3
41
1.0
50
0.0
51
0.0
7
Standard
11
748708.68
21
8930250.02599817
31
190.390000190735
210
0.0
220
0.0
230
1.0
72
0
100
AcDbText
73
0
0
POLYLINE
5
377
330
1A
100
AcDbEntity
67
0
8
Real Hole
62
1
420
16711680
6
ByLayer
370
-1
48
1.0
60
0
100
AcDb3dPolyline
10
0.0
20
0.0
30
0.0
70
8
75
0
210
0.0
220
0.0
230
1.0
0
VERTEX
5
36B
100
AcDbEntity
8
Real Hole
62
1
420
16711680
100
AcDbVertex
100
AcDb3dPolylineVertex
10
748708.68
20
8930250.72999817
30
190.390000190735
70
32
0
VERTEX
5
36C
100
AcDbEntity
8
Real Hole
62
1
420
16711680
100
AcDbVertex
100
AcDb3dPolylineVertex
10
748708.952935003
20
8930250.85541883
30
189.436178352833
70
32
0
VERTEX
5
36D
100
AcDbEntity
8
Real Hole
62
1
420
16711680
100
AcDbVertex
100
AcDb3dPolylineVertex
10
748709.233914487
20
8930250.9543122
30
188.481573309898
70
32
0
VERTEX
5
36E
100
AcDbEntity
8
Real Hole
62
1
420
16711680
100
AcDbVertex
100
AcDb3dPolylineVertex
10
748709.570632689
20
8930251.05635831
30
187.545513715744
70
32
0
VERTEX
5
36F
100
AcDbEntity
8
Real Hole
62
1
420
16711680
100
AcDbVertex
100
AcDb3dPolylineVertex
10
748709.889438682
20
8930251.18899911
30
186.607020702362
70
32
0
VERTEX
5
370
100
AcDbEntity
8
Real Hole
62
1
420
16711680
100
AcDbVertex
100
AcDb3dPolylineVertex
10
748710.215381198
20
8930251.28877419
30
185.666910972595
70
32
0
VERTEX
5
371
100
AcDbEntity
8
Real Hole
62
1
420
16711680
100
AcDbVertex
100
AcDb3dPolylineVertex
10
748710.53941267
20
8930251.41680568
30
184.729568328857
70
32
0
VERTEX
5
372
100
AcDbEntity
8
Real Hole
62
1
420
16711680
100
AcDbVertex
100
AcDb3dPolylineVertex
10
748710.844604664
20
8930251.56936806
30
183.789577331543
70
32
0
VERTEX
5
373
100
AcDbEntity
8
Real Hole
62
1
420
16711680
100
AcDbVertex
100
AcDb3dPolylineVertex
10
748711.154306345
20
8930251.68337744
30
182.845603790283
70
32
0
VERTEX
5
374
100
AcDbEntity
8
Real Hole
62
1
420
16711680
100
AcDbVertex
100
AcDb3dPolylineVertex
10
748711.477490597
20
8930251.7968083
30
181.906090583801
70
32
0
VERTEX
5
375
100
AcDbEntity
8
Real Hole
62
1
420
16711680
100
AcDbVertex
100
AcDb3dPolylineVertex
10
748711.787445955
20
8930251.89423948
30
180.960344161987
70
32
0
SEQEND
5
376
100
AcDbEntity
8
Real Hole
0
POINT
5
378
330
1A
100
AcDbEntity
67
0
8
Hole
62
244
420
659967
6
ByLayer
370
-1
48
1.0
60
0
100
AcDbPoint
10
748708.060001068
20
8930251.76000076
30
190.629999961853
39
0.0
210
0.0
220
0.0
230
1.0
50
360.0
0
LINE
5
379
330
1A
100
AcDbEntity
67
0
8
Theoretical Hole
62
244
420
659967
6
ByLayer
370
-1
48
1.0
60
0
100
AcDbLine
10
748708.060001068
20
8930251.76000076
30
190.629999961853
11
748711.009360962
21
8930253.79766708
31
180.008641805649
39
0.0
210
0.0
220
0.0
230
1.0
0
TEXT
5
37A
330
1A
100
AcDbEntity
67
0
8
Number
62
244
420
659967
6
ByLayer
370
-1
48
1.0
60
0
100
AcDbText
1
51
10
748708.060001068
20
8930252.06600076
30
190.629999961853
40
0.3
41
1.0
50
0.0
51
0.0
7
Standard
11
748708.060001068
21
8930252.06600076
31
190.629999961853
210
0.0
220
0.0
230
1.0
72
0
100
AcDbText
73
0
0
TEXT
5
37B
330
1A
100
AcDbEntity
67
0
8
label
62
1
420
16711680
6
ByLayer
370
-1
48
1.0
60
0
100
AcDbText
1

10
748708.060001068
20
8930252.46600076
30
190.629999961853
40
0.3
41
1.0
50
0.0
51
0.0
7
Standard
11
748708.060001068
21
8930252.46600076
31
190.629999961853
210
0.0
220
0.0
230
1.0
72
0
100
AcDbText
73
0
0
TEXT
5
37C
330
1A
100
AcDbEntity
67
0
8
Length
62
244
420
659967
6
ByLayer
370
-1
48
1.0
60
0
100
AcDbText
1
11.21
10
748708.060001068
20
8930251.05600077
30
190.629999961853
40
0.3
41
1.0
50
0.0
51
0.0
7
Standard
11
748708.060001068
21
8930251.05600077
31
190.629999961853
210
0.0
220
0.0
230
1.0
72
0
100
AcDbText
73
0
0
POLYLINE
5
389
330
1A
100
AcDbEntity
67
0
8
Real Hole
62
1
420
16711680
6
ByLayer
370
-1
48
1.0
60
0
100
AcDb3dPolyline
10
0.0
20
0.0
30
0.0
70
8
75
0
210
0.0
220
0.0
230
1.0
0
VERTEX
5
37D
100
AcDbEntity
8
Real Hole
62
1
420
16711680
100
AcDbVertex
100
AcDb3dPolylineVertex
10
748708.060001068
20
8930251.76000076
30
190.629999961853
70
32
0
VERTEX
5
37E
100
AcDbEntity
8
Real Hole
62
1
420
16711680
100
AcDbVertex
100
AcDb3dPolylineVertex
10
748708.335528277
20
8930251.94195363
30
189.686083700657
70
32
0
VERTEX
5
37F
100
AcDbEntity
8
Real Hole
62
1
420
16711680
100
AcDbVertex
100
AcDb3dPolylineVertex
10
748708.615824275
20
8930252.10495883
30
188.740111436844
70
32
0
VERTEX
5
380
100
AcDbEntity
8
Real Hole
62
1
420
16711680
100
AcDbVertex
100
AcDb3dPolylineVertex
10
748708.895596497
20
8930252.26086998
30
187.792789306641
70
32
0
VERTEX
5
381
100
AcDbEntity
8
Real Hole
62
1
420
16711680
100
AcDbVertex
100
AcDb3dPolylineVertex
10
748709.229915791
20
8930252.40825265
30
186.861924734116
70
32
0
VERTEX
5
382
100
AcDbEntity
8
Real Hole
62
1
420
16711680
100
AcDbVertex
100
AcDb3dPolylineVertex
10
748709.558500938
20
8930252.54247957
30
185.927037086487
70
32
0
VERTEX
5
383
100
AcDbEntity
8
Real Hole
62
1
420
16711680
100
AcDbVertex
100
AcDb3dPolylineVertex
10
748709.858335428
20
8930252.73905963
30
184.993519153595
70
32
0
VERTEX
5
384
100
AcDbEntity
8
Real Hole
62
1
420
16711680
100
AcDbVertex
100
AcDb3dPolylineVertex
10
748710.172935419
20
8930252.90725225
30
184.059314575195
70
32
0
VERTEX
5
385
100
AcDbEntity
8
Real Hole
62
1
420
16711680
100
AcDbVertex
100
AcDb3dPolylineVertex
10
748710.485458069
20
8930253.06600982
30
183.122764911652
70
32
0
VERTEX
5
386
100
AcDbEntity
8
Real Hole
62
1
420
16711680
100
AcDbVertex
100
AcDb3dPolylineVertex
10
748710.789618425
20
8930253.21435875
30
182.181766357422
70
32
0
VERTEX
5
387
100
AcDbEntity
8
Real Hole
62
1
420
16711680
100
AcDbVertex
100
AcDb3dPolylineVertex
10
748711.071088724
20
8930253.37244159
30
181.341656532288
70
32
0
SEQEND
5
388
100
AcDbEntity
8
Real Hole
0
POINT
5
38A
330
1A
100
AcDbEntity
67
0
8
Hole
62
244
420
659967
6
ByLayer
370
-1
48
1.0
60
0
100
AcDbPoint
10
748707.380000763
20
8930252.74999863
30
190.770000305176
39
0.0
210
0.0
220
0.0
230
1.0
50
360.0
0
LINE
5
38B
330
1A
100
AcDbEntity
67
0
8
Theoretical Hole
62
244
420
659967
6
ByLayer
370
-1
48
1.0
60
0
100
AcDbLine
10
748707.380000763
20
8930252.74999863
30
190.770000305176
11
748710.129573517
21
8930254.9074884
31
180.013550605774
39
0.0
210
0.0
220
0.0
230
1.0
0
TEXT
5
38C
330
1A
100
AcDbEntity
67
0
8
Number
62
244
420
659967
6
ByLayer
370
-1
48
1.0
60
0
100
AcDbText
1
52
10
748707.380000763
20
8930253.05599862
30
190.770000305176
40
0.3
41
1.0
50
0.0
51
0.0
7
Standard
11
748707.380000763
21
8930253.05599862
31
190.770000305176
210
0.0
220
0.0
230
1.0
72
0
100
AcDbText
73
0
0
TEXT
5
38D
330
1A
100
AcDbEntity
67
0
8
label
62
1
420
16711680
6
ByLayer
370
-1
48
1.0
60
0
100
AcDbText
1

10
748707.380000763
20
8930253.45599862
30
190.770000305176
40
0.3
41
1.0
50
0.0
51
0.0
7
Standard
11
748707.380000763
21
8930253.45599862
31
190.770000305176
210
0.0
220
0.0
230
1.0
72
0
100
AcDbText
73
0
0
TEXT
5
38E
330
1A
100
AcDbEntity
67
0
8
Length
62
244
420
659967
6
ByLayer
370
-1
48
1.0
60
0
100
AcDbText
1
11.31
10
748707.380000763
20
8930252.04599863
30
190.770000305176
40
0.3
41
1.0
50
0.0
51
0.0
7
Standard
11
748707.380000763
21
8930252.04599863
31
190.770000305176
210
0.0
220
0.0
230
1.0
72
0
100
AcDbText
73
0
0
POLYLINE
5
39B
330
1A
100
AcDbEntity
67
0
8
Real Hole
62
1
420
16711680
6
ByLayer
370
-1
48
1.0
60
0
100
AcDb3dPolyline
10
0.0
20
0.0
30
0.0
70
8
75
0
210
0.0
220
0.0
230
1.0
0
VERTEX
5
38F
100
AcDbEntity
8
Real Hole
62
1
420
16711680
100
AcDbVertex
100
AcDb3dPolylineVertex
10
748707.380000763
20
8930252.74999863
30
190.770000305176
70
32
0
VERTEX
5
390
100
AcDbEntity
8
Real Hole
62
1
420
16711680
100
AcDbVertex
100
AcDb3dPolylineVertex
10
748707.621590741
20
8930252.93238051
30
189.816915240288
70
32
0
VERTEX
5
391
100
AcDbEntity
8
Real Hole
62
1
420
16711680
100
AcDbVertex
100
AcDb3dPolylineVertex
10
748707.849460982
20
8930253.11396161
30
188.86030479908
70
32
0
VERTEX
5
392
100
AcDbEntity
8
Real Hole
62
1
420
16711680
100
AcDbVertex
100
AcDb3dPolylineVertex
10
748708.076206439
20
8930253.28940016
30
187.902282085419
70
32
0
VERTEX
5
393
100
AcDbEntity
8
Real Hole
62
1
420
16711680
100
AcDbVertex
100
AcDb3dPolylineVertex
10
748708.354831152
20
8930253.47620493
30
186.960224475861
70
32
0
VERTEX
5
394
100
AcDbEntity
8
Real Hole
62
1
420
16711680
100
AcDbVertex
100
AcDb3dPolylineVertex
10
748708.640702181
20
8930253.6615681
30
186.020055141449
70
32
0
VERTEX
5
395
100
AcDbEntity
8
Real Hole
62
1
420
16711680
100
AcDbVertex
100
AcDb3dPolylineVertex
10
748708.920982175
20
8930253.85470384
30
185.079767074585
70
32
0
VERTEX
5
396
100
AcDbEntity
8
Real Hole
62
1
420
16711680
100
AcDbVertex
100
AcDb3dPolylineVertex
10
748709.205426507
20
8930254.05276614
30
184.141757335663
70
32
0
VERTEX
5
397
100
AcDbEntity
8
Real Hole
62
1
420
16711680
100
AcDbVertex
100
AcDb3dPolylineVertex
10
748709.501466208
20
8930254.2346062
30
183.204049911499
70
32
0
VERTEX
5
398
100
AcDbEntity
8
Real Hole
62
1
420
16711680
100
AcDbVertex
100
AcDb3dPolylineVertex
10
748709.81024354
20
8930254.4344396
30
182.274144973755
70
32
0
VERTEX
5
399
100
AcDbEntity
8
Real Hole
62
1
420
16711680
100
AcDbVertex
100
AcDb3dPolylineVertex
10
748710.13620513
20
8930254.60965842
30
181.34514125824
70
32
0
SEQEND
5
39A
100
AcDbEntity
8
Real Hole
0
POINT
5
39C
330
1A
100
AcDbEntity
67
0
8
Hole
62
244
420
659967
6
ByLayer
370
-1
48
1.0
60
0
100
AcDbPoint
10
748706.639999085
20
8930253.69000107
30
190.779999580383
39
0.0
210
0.0
220
0.0
230
1.0
50
360.0
0
LINE
5
39D
330
1A
100
AcDbEntity
67
0
8
Theoretical Hole
62
244
420
659967
6
ByLayer
370
-1
48
1.0
60
0
100
AcDbLine
10
748706.639999085
20
8930253.69000107
30
190.779999580383
11
748709.20955246
21
8930255.92604309
31
180.016096200943
39
0.0
210
0.0
220
0.0
230
1.0
0
TEXT
5
39E
330
1A
100
AcDbEntity
67
0
8
Number
62
244
420
659967
6
ByLayer
370
-1
48
1.0
60
0
100
AcDbText
1
53
10
748706.639999085
20
8930253.99600106
30
190.779999580383
40
0.3
41
1.0
50
0.0
51
0.0
7
Standard
11
748706.639999085
21
8930253.99600106
31
190.779999580383
210
0.0
220
0.0
230
1.0
72
0
100
AcDbText
73
0
0
TEXT
5
39F
330
1A
100
AcDbEntity
67
0
8
label
62
1
420
16711680
6
ByLayer
370
-1
48
1.0
60
0
100
AcDbText
1

10
748706.639999085
20
8930254.39600106
30
190.779999580383
40
0.3
41
1.0
50
0.0
51
0.0
7
Standard
11
748706.639999085
21
8930254.39600106
31
190.779999580383
210
0.0
220
0.0
230
1.0
72
0
100
AcDbText
73
0
0
TEXT
5
3A0
330
1A
100
AcDbEntity
67
0
8
Length
62
244
420
659967
6
ByLayer
370
-1
48
1.0
60
0
100
AcDbText
1
11.29
10
748706.639999085
20
8930252.98600107
30
190.779999580383
40
0.3
41
1.0
50
0.0
51
0.0
7
Standard
11
748706.639999085
21
8930252.98600107
31
190.779999580383
210
0.0
220
0.0
230
1.0
72
0
100
AcDbText
73
0
0
POLYLINE
5
3AE
330
1A
100
AcDbEntity
67
0
8
Real Hole
62
1
420
16711680
6
ByLayer
370
-1
48
1.0
60
0
100
AcDb3dPolyline
10
0.0
20
0.0
30
0.0
70
8
75
0
210
0.0
220
0.0
230
1.0
0
VERTEX
5
3A1
100
AcDbEntity
8
Real Hole
62
1
420
16711680
100
AcDbVertex
100
AcDb3dPolylineVertex
10
748706.639999085
20
8930253.69000107
30
190.779999580383
70
32
0
VERTEX
5
3A2
100
AcDbEntity
8
Real Hole
62
1
420
16711680
100
AcDbVertex
100
AcDb3dPolylineVertex
10
748706.844349109
20
8930253.8752294
30
189.818785991669
70
32
0
VERTEX
5
3A3
100
AcDbEntity
8
Real Hole
62
1
420
16711680
100
AcDbVertex
100
AcDb3dPolylineVertex
10
748707.034942799
20
8930254.06135192
30
188.854922738075
70
32
0
VERTEX
5
3A4
100
AcDbEntity
8
Real Hole
62
1
420
16711680
100
AcDbVertex
100
AcDb3dPolylineVertex
10
748707.253870242
20
8930254.21953797
30
187.892089452744
70
32
0
VERTEX
5
3A5
100
AcDbEntity
8
Real Hole
62
1
420
16711680
100
AcDbVertex
100
AcDb3dPolylineVertex
10
748707.486984723
20
8930254.41211307
30
186.938898649216
70
32
0
VERTEX
5
3A6
100
AcDbEntity
8
Real Hole
62
1
420
16711680
100
AcDbVertex
100
AcDb3dPolylineVertex
10
748707.736617141
20
8930254.59481633
30
185.987950172424
70
32
0
VERTEX
5
3A7
100
AcDbEntity
8
Real Hole
62
1
420
16711680
100
AcDbVertex
100
AcDb3dPolylineVertex
10
748708.010706358
20
8930254.77294797
30
185.042887058258
70
32
0
VERTEX
5
3A8
100
AcDbEntity
8
Real Hole
62
1
420
16711680
100
AcDbVertex
100
AcDb3dPolylineVertex
10
748708.261716895
20
8930254.95318454
30
184.09183057785
70
32
0
VERTEX
5
3A9
100
AcDbEntity
8
Real Hole
62
1
420
16711680
100
AcDbVertex
100
AcDb3dPolylineVertex
10
748708.467694812
20
8930255.15737277
30
183.134814109802
70
32
0
VERTEX
5
3AA
100
AcDbEntity
8
Real Hole
62
1
420
16711680
100
AcDbVertex
100
AcDb3dPolylineVertex
10
748708.668900423
20
8930255.3516069
30
182.174715843201
70
32
0
VERTEX
5
3AB
100
AcDbEntity
8
Real Hole
62
1
420
16711680
100
AcDbVertex
100
AcDb3dPolylineVertex
10
748708.84462636
20
8930255.54890662
30
181.210250701904
70
32
0
VERTEX
5
3AC
100
AcDbEntity
8
Real Hole
62
1
420
16711680
100
AcDbVertex
100
AcDb3dPolylineVertex
10
748708.945220404
20
8930255.65930313
30
180.733077850342
70
32
0
SEQEND
5
3AD
100
AcDbEntity
8
Real Hole
0
POINT
5
3AF
330
1A
100
AcDbEntity
67
0
8
Hole
62
244
420
659967
6
ByLayer
370
-1
48
1.0
60
0
100
AcDbPoint
10
748705.849998169
20
8930254.60000092
30
190.669999923706
39
0.0
210
0.0
220
0.0
230
1.0
50
360.0
0
LINE
5
3B0
330
1A
100
AcDbEntity
67
0
8
Theoretical Hole
62
244
420
659967
6
ByLayer
370
-1
48
1.0
60
0
100
AcDbLine
10
748705.849998169
20
8930254.60000092
30
190.669999923706
11
748708.245380096
21
8930256.88348633
31
180.011976685524
39
0.0
210
0.0
220
0.0
230
1.0
0
TEXT
5
3B1
330
1A
100
AcDbEntity
67
0
8
Number
62
244
420
659967
6
ByLayer
370
-1
48
1.0
60
0
100
AcDbText
1
54
10
748705.849998169
20
8930254.90600091
30
190.669999923706
40
0.3
41
1.0
50
0.0
51
0.0
7
Standard
11
748705.849998169
21
8930254.90600091
31
190.669999923706
210
0.0
220
0.0
230
1.0
72
0
100
AcDbText
73
0
0
TEXT
5
3B2
330
1A
100
AcDbEntity
67
0
8
label
62
1
420
16711680
6
ByLayer
370
-1
48
1.0
60
0
100
AcDbText
1

10
748705.849998169
20
8930255.30600091
30
190.669999923706
40
0.3
41
1.0
50
0.0
51
0.0
7
Standard
11
748705.849998169
21
8930255.30600091
31
190.669999923706
210
0.0
220
0.0
230
1.0
72
0
100
AcDbText
73
0
0
TEXT
5
3B3
330
1A
100
AcDbEntity
67
0
8
Length
62
244
420
659967
6
ByLayer
370
-1
48
1.0
60
0
100
AcDbText
1
11.16
10
748705.849998169
20
8930253.89600092
30
190.669999923706
40
0.3
41
1.0
50
0.0
51
0.0
7
Standard
11
748705.849998169
21
8930253.89600092
31
190.669999923706
210
0.0
220
0.0
230
1.0
72
0
100
AcDbText
73
0
0
POLYLINE
5
3C1
330
1A
100
AcDbEntity
67
0
8
Real Hole
62
1
420
16711680
6
ByLayer
370
-1
48
1.0
60
0
100
AcDb3dPolyline
10
0.0
20
0.0
30
0.0
70
8
75
0
210
0.0
220
0.0
230
1.0
0
VERTEX
5
3B4
100
AcDbEntity
8
Real Hole
62
1
420
16711680
100
AcDbVertex
100
AcDb3dPolylineVertex
10
748705.849998169
20
8930254.60000092
30
190.669999923706
70
32
0
VERTEX
5
3B5
100
AcDbEntity
8
Real Hole
62
1
420
16711680
100
AcDbVertex
100
AcDb3dPolylineVertex
10
748706.060202413
20
8930254.81919986
30
189.717232372761
70
32
0
VERTEX
5
3B6
100
AcDbEntity
8
Real Hole
62
1
420
16711680
100
AcDbVertex
100
AcDb3dPolylineVertex
10
748706.247813426
20
8930255.04278597
30
188.760774698257
70
32
0
VERTEX
5
3B7
100
AcDbEntity
8
Real Hole
62
1
420
16711680
100
AcDbVertex
100
AcDb3dPolylineVertex
10
748706.520411484
20
8930255.26678026
30
187.825084056854
70
32
0
VERTEX
5
3B8
100
AcDbEntity
8
Real Hole
62
1
420
16711680
100
AcDbVertex
100
AcDb3dPolylineVertex
10
748706.76265549
20
8930255.48651075
30
186.880078163147
70
32
0
VERTEX
5
3B9
100
AcDbEntity
8
Real Hole
62
1
420
16711680
100
AcDbVertex
100
AcDb3dPolylineVertex
10
748707.026364379
20
8930255.72917348
30
185.946497764587
70
32
0
VERTEX
5
3BA
100
AcDbEntity
8
Real Hole
62
1
420
16711680
100
AcDbVertex
100
AcDb3dPolylineVertex
10
748707.282913737
20
8930255.95337027
30
185.006328430176
70
32
0
VERTEX
5
3BB
100
AcDbEntity
8
Real Hole
62
1
420
16711680
100
AcDbVertex
100
AcDb3dPolylineVertex
10
748707.534890823
20
8930256.18826049
30
184.067534294128
70
32
0
VERTEX
5
3BC
100
AcDbEntity
8
Real Hole
62
1
420
16711680
100
AcDbVertex
100
AcDb3dPolylineVertex
10
748707.810622149
20
8930256.41563672
30
183.133579101563
70
32
0
VERTEX
5
3BD
100
AcDbEntity
8
Real Hole
62
1
420
16711680
100
AcDbVertex
100
AcDb3dPolylineVertex
10
748708.089576416
20
8930256.64112669
30
182.200123634338
70
32
0
VERTEX
5
3BE
100
AcDbEntity
8
Real Hole
62
1
420
16711680
100
AcDbVertex
100
AcDb3dPolylineVertex
10
748708.372143917
20
8930256.87248784
30
181.269195404053
70
32
0
VERTEX
5
3BF
100
AcDbEntity
8
Real Hole
62
1
420
16711680
100
AcDbVertex
100
AcDb3dPolylineVertex
10
748708.516680174
20
8930256.97673064
30
180.802031364441
70
32
0
SEQEND
5
3C0
100
AcDbEntity
8
Real Hole
0
POINT
5
3C2
330
1A
100
AcDbEntity
67
0
8
Hole
62
244
420
659967
6
ByLayer
370
-1
48
1.0
60
0
100
AcDbPoint
10
748705.029998474
20
8930255.46000153
30
190.600000228882
39
0.0
210
0.0
220
0.0
230
1.0
50
360.0
0
LINE
5
3C3
330
1A
100
AcDbEntity
67
0
8
Theoretical Hole
62
244
420
659967
6
ByLayer
370
-1
48
1.0
60
0
100
AcDbLine
10
748705.029998474
20
8930255.46000153
30
190.600000228882
11
748707.261283569
21
8930257.75688797
31
180.013720598221
39
0.0
210
0.0
220
0.0
230
1.0
0
TEXT
5
3C4
330
1A
100
AcDbEntity
67
0
8
Number
62
244
420
659967
6
ByLayer
370
-1
48
1.0
60
0
100
AcDbText
1
55
10
748705.029998474
20
8930255.76600152
30
190.600000228882
40
0.3
41
1.0
50
0.0
51
0.0
7
Standard
11
748705.029998474
21
8930255.76600152
31
190.600000228882
210
0.0
220
0.0
230
1.0
72
0
100
AcDbText
73
0
0
TEXT
5
3C5
330
1A
100
AcDbEntity
67
0
8
label
62
1
420
16711680
6
ByLayer
370
-1
48
1.0
60
0
100
AcDbText
1

10
748705.029998474
20
8930256.16600152
30
190.600000228882
40
0.3
41
1.0
50
0.0
51
0.0
7
Standard
11
748705.029998474
21
8930256.16600152
31
190.600000228882
210
0.0
220
0.0
230
1.0
72
0
100
AcDbText
73
0
0
TEXT
5
3C6
330
1A
100
AcDbEntity
67
0
8
Length
62
244
420
659967
6
ByLayer
370
-1
48
1.0
60
0
100
AcDbText
1
11.06
10
748705.029998474
20
8930254.75600153
30
190.600000228882
40
0.3
41
1.0
50
0.0
51
0.0
7
Standard
11
748705.029998474
21
8930254.75600153
31
190.600000228882
210
0.0
220
0.0
230
1.0
72
0
100
AcDbText
73
0
0
POLYLINE
5
3D3
330
1A
100
AcDbEntity
67
0
8
Real Hole
62
1
420
16711680
6
ByLayer
370
-1
48
1.0
60
0
100
AcDb3dPolyline
10
0.0
20
0.0
30
0.0
70
8
75
0
210
0.0
220
0.0
230
1.0
0
VERTEX
5
3C7
100
AcDbEntity
8
Real Hole
62
1
420
16711680
100
AcDbVertex
100
AcDb3dPolylineVertex
10
748705.029998474
20
8930255.46000153
30
190.600000228882
70
32
0
VERTEX
5
3C8
100
AcDbEntity
8
Real Hole
62
1
420
16711680
100
AcDbVertex
100
AcDb3dPolylineVertex
10
748705.25597965
20
8930255.6079358
30
189.63716694355
70
32
0
VERTEX
5
3C9
100
AcDbEntity
8
Real Hole
62
1
420
16711680
100
AcDbVertex
100
AcDb3dPolylineVertex
10
748705.459639423
20
8930255.77677738
30
188.672793951035
70
32
0
VERTEX
5
3CA
100
AcDbEntity
8
Real Hole
62
1
420
16711680
100
AcDbVertex
100
AcDb3dPolylineVertex
10
748705.701905184
20
8930255.91681874
30
187.712744083405
70
32
0
VERTEX
5
3CB
100
AcDbEntity
8
Real Hole
62
1
420
16711680
100
AcDbVertex
100
AcDb3dPolylineVertex
10
748705.983750753
20
8930256.06185436
30
186.76430973053
70
32
0
VERTEX
5
3CC
100
AcDbEntity
8
Real Hole
62
1
420
16711680
100
AcDbVertex
100
AcDb3dPolylineVertex
10
748706.247551971
20
8930256.2495361
30
185.818168010712
70
32
0
VERTEX
5
3CD
100
AcDbEntity
8
Real Hole
62
1
420
16711680
100
AcDbVertex
100
AcDb3dPolylineVertex
10
748706.493888669
20
8930256.4526726
30
184.870510902405
70
32
0
VERTEX
5
3CE
100
AcDbEntity
8
Real Hole
62
1
420
16711680
100
AcDbVertex
100
AcDb3dPolylineVertex
10
748706.742386036
20
8930256.65368646
30
183.922965373993
70
32
0
VERTEX
5
3CF
100
AcDbEntity
8
Real Hole
62
1
420
16711680
100
AcDbVertex
100
AcDb3dPolylineVertex
10
748706.982550674
20
8930256.82448882
30
182.967377986908
70
32
0
VERTEX
5
3D0
100
AcDbEntity
8
Real Hole
62
1
420
16711680
100
AcDbVertex
100
AcDb3dPolylineVertex
10
748707.226056747
20
8930256.98960286
30
182.011636581421
70
32
0
VERTEX
5
3D1
100
AcDbEntity
8
Real Hole
62
1
420
16711680
100
AcDbVertex
100
AcDb3dPolylineVertex
10
748707.508216553
20
8930257.15660459
30
181.066916313171
70
32
0
SEQEND
5
3D2
100
AcDbEntity
8
Real Hole
0
POINT
5
3D4
330
1A
100
AcDbEntity
67
0
8
Hole
62
244
420
659967
6
ByLayer
370
-1
48
1.0
60
0
100
AcDbPoint
10
748704.159999542
20
8930256.30000168
30
190.629999961853
39
0.0
210
0.0
220
0.0
230
1.0
50
360.0
0
LINE
5
3D5
330
1A
100
AcDbEntity
67
0
8
Theoretical Hole
62
244
420
659967
6
ByLayer
370
-1
48
1.0
60
0
100
AcDbLine
10
748704.159999542
20
8930256.30000168
30
190.629999961853
11
748706.18472641
21
8930258.60875946
31
180.004853811264
39
0.0
210
0.0
220
0.0
230
1.0
0
TEXT
5
3D6
330
1A
100
AcDbEntity
67
0
8
Number
62
244
420
659967
6
ByLayer
370
-1
48
1.0
60
0
100
AcDbText
1
56
10
748704.159999542
20
8930256.60600167
30
190.629999961853
40
0.3
41
1.0
50
0.0
51
0.0
7
Standard
11
748704.159999542
21
8930256.60600167
31
190.629999961853
210
0.0
220
0.0
230
1.0
72
0
100
AcDbText
73
0
0
TEXT
5
3D7
330
1A
100
AcDbEntity
67
0
8
label
62
1
420
16711680
6
ByLayer
370
-1
48
1.0
60
0
100
AcDbText
1

10
748704.159999542
20
8930257.00600167
30
190.629999961853
40
0.3
41
1.0
50
0.0
51
0.0
7
Standard
11
748704.159999542
21
8930257.00600167
31
190.629999961853
210
0.0
220
0.0
230
1.0
72
0
100
AcDbText
73
0
0
TEXT
5
3D8
330
1A
100
AcDbEntity
67
0
8
Length
62
244
420
659967
6
ByLayer
370
-1
48
1.0
60
0
100
AcDbText
1
11.06
10
748704.159999542
20
8930255.59600168
30
190.629999961853
40
0.3
41
1.0
50
0.0
51
0.0
7
Standard
11
748704.159999542
21
8930255.59600168
31
190.629999961853
210
0.0
220
0.0
230
1.0
72
0
100
AcDbText
73
0
0
POLYLINE
5
3E6
330
1A
100
AcDbEntity
67
0
8
Real Hole
62
1
420
16711680
6
ByLayer
370
-1
48
1.0
60
0
100
AcDb3dPolyline
10
0.0
20
0.0
30
0.0
70
8
75
0
210
0.0
220
0.0
230
1.0
0
VERTEX
5
3D9
100
AcDbEntity
8
Real Hole
62
1
420
16711680
100
AcDbVertex
100
AcDb3dPolylineVertex
10
748704.159999542
20
8930256.30000168
30
190.629999961853
70
32
0
VERTEX
5
3DA
100
AcDbEntity
8
Real Hole
62
1
420
16711680
100
AcDbVertex
100
AcDb3dPolylineVertex
10
748704.338281371
20
8930256.49476678
30
189.665488626957
70
32
0
VERTEX
5
3DB
100
AcDbEntity
8
Real Hole
62
1
420
16711680
100
AcDbVertex
100
AcDb3dPolylineVertex
10
748704.50776317
20
8930256.68181032
30
188.697867479324
70
32
0
VERTEX
5
3DC
100
AcDbEntity
8
Real Hole
62
1
420
16711680
100
AcDbVertex
100
AcDb3dPolylineVertex
10
748704.74156379
20
8930256.87952709
30
187.745898332596
70
32
0
VERTEX
5
3DD
100
AcDbEntity
8
Real Hole
62
1
420
16711680
100
AcDbVertex
100
AcDb3dPolylineVertex
10
748704.973969035
20
8930257.06611877
30
186.791345443726
70
32
0
VERTEX
5
3DE
100
AcDbEntity
8
Real Hole
62
1
420
16711680
100
AcDbVertex
100
AcDb3dPolylineVertex
10
748705.154767804
20
8930257.28319722
30
185.832080688477
70
32
0
VERTEX
5
3DF
100
AcDbEntity
8
Real Hole
62
1
420
16711680
100
AcDbVertex
100
AcDb3dPolylineVertex
10
748705.38431447
20
8930257.48908526
30
184.880808677673
70
32
0
VERTEX
5
3E0
100
AcDbEntity
8
Real Hole
62
1
420
16711680
100
AcDbVertex
100
AcDb3dPolylineVertex
10
748705.628367596
20
8930257.6954723
30
183.933263149261
70
32
0
VERTEX
5
3E1
100
AcDbEntity
8
Real Hole
62
1
420
16711680
100
AcDbVertex
100
AcDb3dPolylineVertex
10
748705.855428271
20
8930257.86995417
30
182.975140419006
70
32
0
VERTEX
5
3E2
100
AcDbEntity
8
Real Hole
62
1
420
16711680
100
AcDbVertex
100
AcDb3dPolylineVertex
10
748706.078054242
20
8930258.04004139
30
182.015188064575
70
32
0
VERTEX
5
3E3
100
AcDbEntity
8
Real Hole
62
1
420
16711680
100
AcDbVertex
100
AcDb3dPolylineVertex
10
748706.312122278
20
8930258.25205797
30
181.066366996765
70
32
0
VERTEX
5
3E4
100
AcDbEntity
8
Real Hole
62
1
420
16711680
100
AcDbVertex
100
AcDb3dPolylineVertex
10
748706.454026632
20
8930258.37567478
30
180.496645774841
70
32
0
SEQEND
5
3E5
100
AcDbEntity
8
Real Hole
0
POINT
5
3E7
330
1A
100
AcDbEntity
67
0
8
Hole
62
244
420
659967
6
ByLayer
370
-1
48
1.0
60
0
100
AcDbPoint
10
748703.260001831
20
8930257.08999878
30
191.079999771118
39
0.0
210
0.0
220
0.0
230
1.0
50
360.0
0
LINE
5
3E8
330
1A
100
AcDbEntity
67
0
8
Theoretical Hole
62
244
420
659967
6
ByLayer
370
-1
48
1.0
60
0
100
AcDbLine
10
748703.260001831
20
8930257.08999878
30
191.079999771118
11
748705.137092285
21
8930259.35901123
31
180.004816856384
39
0.0
210
0.0
220
0.0
230
1.0
0
TEXT
5
3E9
330
1A
100
AcDbEntity
67
0
8
Number
62
244
420
659967
6
ByLayer
370
-1
48
1.0
60
0
100
AcDbText
1
57
10
748703.260001831
20
8930257.39599877
30
191.079999771118
40
0.3
41
1.0
50
0.0
51
0.0
7
Standard
11
748703.260001831
21
8930257.39599877
31
191.079999771118
210
0.0
220
0.0
230
1.0
72
0
100
AcDbText
73
0
0
TEXT
5
3EA
330
1A
100
AcDbEntity
67
0
8
label
62
1
420
16711680
6
ByLayer
370
-1
48
1.0
60
0
100
AcDbText
1

10
748703.260001831
20
8930257.79599877
30
191.079999771118
40
0.3
41
1.0
50
0.0
51
0.0
7
Standard
11
748703.260001831
21
8930257.79599877
31
191.079999771118
210
0.0
220
0.0
230
1.0
72
0
100
AcDbText
73
0
0
TEXT
5
3EB
330
1A
100
AcDbEntity
67
0
8
Length
62
244
420
659967
6
ByLayer
370
-1
48
1.0
60
0
100
AcDbText
1
11.46
10
748703.260001831
20
8930256.38599878
30
191.079999771118
40
0.3
41
1.0
50
0.0
51
0.0
7
Standard
11
748703.260001831
21
8930256.38599878
31
191.079999771118
210
0.0
220
0.0
230
1.0
72
0
100
AcDbText
73
0
0
POLYLINE
5
3F9
330
1A
100
AcDbEntity
67
0
8
Real Hole
62
1
420
16711680
6
ByLayer
370
-1
48
1.0
60
0
100
AcDb3dPolyline
10
0.0
20
0.0
30
0.0
70
8
75
0
210
0.0
220
0.0
230
1.0
0
VERTEX
5
3EC
100
AcDbEntity
8
Real Hole
62
1
420
16711680
100
AcDbVertex
100
AcDb3dPolylineVertex
10
748703.260001831
20
8930257.08999878
30
191.079999771118
70
32
0
VERTEX
5
3ED
100
AcDbEntity
8
Real Hole
62
1
420
16711680
100
AcDbVertex
100
AcDb3dPolylineVertex
10
748703.430560045
20
8930257.33115442
30
190.124618258476
70
32
0
VERTEX
5
3EE
100
AcDbEntity
8
Real Hole
62
1
420
16711680
100
AcDbVertex
100
AcDb3dPolylineVertex
10
748703.606366955
20
8930257.54864567
30
189.164519515038
70
32
0
VERTEX
5
3EF
100
AcDbEntity
8
Real Hole
62
1
420
16711680
100
AcDbVertex
100
AcDb3dPolylineVertex
10
748703.801213853
20
8930257.7356931
30
188.201686229706
70
32
0
VERTEX
5
3F0
100
AcDbEntity
8
Real Hole
62
1
420
16711680
100
AcDbVertex
100
AcDb3dPolylineVertex
10
748704.044347816
20
8930257.96537244
30
187.259278144836
70
32
0
VERTEX
5
3F1
100
AcDbEntity
8
Real Hole
62
1
420
16711680
100
AcDbVertex
100
AcDb3dPolylineVertex
10
748704.283711248
20
8930258.17991489
30
186.312347736359
70
32
0
VERTEX
5
3F2
100
AcDbEntity
8
Real Hole
62
1
420
16711680
100
AcDbVertex
100
AcDb3dPolylineVertex
10
748704.52013164
20
8930258.40061205
30
185.366093006134
70
32
0
VERTEX
5
3F3
100
AcDbEntity
8
Real Hole
62
1
420
16711680
100
AcDbVertex
100
AcDb3dPolylineVertex
10
748704.7467243
20
8930258.6232062
30
184.417880382538
70
32
0
VERTEX
5
3F4
100
AcDbEntity
8
Real Hole
62
1
420
16711680
100
AcDbVertex
100
AcDb3dPolylineVertex
10
748704.95422142
20
8930258.87322646
30
183.472134437561
70
32
0
VERTEX
5
3F5
100
AcDbEntity
8
Real Hole
62
1
420
16711680
100
AcDbVertex
100
AcDb3dPolylineVertex
10
748705.183931284
20
8930259.12861401
30
182.532980766296
70
32
0
VERTEX
5
3F6
100
AcDbEntity
8
Real Hole
62
1
420
16711680
100
AcDbVertex
100
AcDb3dPolylineVertex
10
748705.438162022
20
8930259.34720975
30
181.590864028931
70
32
0
VERTEX
5
3F7
100
AcDbEntity
8
Real Hole
62
1
420
16711680
100
AcDbVertex
100
AcDb3dPolylineVertex
10
748705.625196152
20
8930259.49593001
30
180.93291267395
70
32
0
SEQEND
5
3F8
100
AcDbEntity
8
Real Hole
0
VIEWPORT
5
3FE
330
3FA
100
AcDbEntity
67
1
8
0
62
256
6
ByLayer
370
-1
48
1.0
60
0
100
AcDbViewport
10
0.0
20
0.0
30
0.0
40
297.0
41
210.0
68
1
69
1
12
50.0
22
100.0
13
0.0
23
0.0
14
10.0
24
10.0
15
10.0
25
10.0
16
0.0
26
0.0
36
1.0
17
0.0
27
0.0
37
0.0
42
50.0
43
0.0
44
0.0
45
250.0
50
0.0
51
0.0
72
1000
90
819232
110
0.0
120
0.0
130
0.0
111
1.0
121
0.0
131
0.0
112
0.0
122
1.0
132
0.0
0
ENDSEC
0
SECTION
2
OBJECTS
0
DICTIONARY
5
403
330
0
100
AcDbDictionary
280
0
281
1
3
ACAD_GROUP
350
404
3
ACAD_LAYOUT
350
405
3
ACAD_MLINESTYLE
350
409
0
DICTIONARY
5
404
330
403
100
AcDbDictionary
280
0
281
1
0
DICTIONARY
5
405
330
403
100
AcDbDictionary
280
0
281
1
3
Model
350
1E
3
Layout1
350
3FF
0
DICTIONARY
5
409
330
403
100
AcDbDictionary
280
0
281
1
3
Standard
350
19
0
LAYOUT
5
1E
330
405
100
AcDbPlotSettings
1

2
none_device
4
ISO_A4_(210.00_x_297.00_MM)
6

40
7.5
41
20.0
42
7.5
43
20.0
44
210.0
45
297.0
46
0.0
47
0.0
48
0.0
49
0.0
140
0.0
141
0.0
142
1.0
143
1.0
70
11952
72
1
73
1
74
5
7

75
16
147
1.0
148
0.0
149
0.0
100
AcDbLayout
1
Model
70
1
71
0
10
-20.0
20
-7.5
11
277.0
21
202.5
12
0.0
22
0.0
32
0.0
14
25.7
24
19.5
34
0.0
15
231.3
25
175.5
35
0.0
146
0.0
13
0.0
23
0.0
33
0.0
16
1.0
26
0.0
36
0.0
17
0.0
27
1.0
37
0.0
76
0
330
1A
0
LAYOUT
5
3FF
330
405
100
AcDbPlotSettings
1

2
none_device
4
ISO_A4_(210.00_x_297.00_MM)
6

40
7.5
41
20.0
42
7.5
43
20.0
44
210.0
45
297.0
46
0.0
47
0.0
48
0.0
49
0.0
140
0.0
141
0.0
142
1.0
143
1.0
70
688
72
1
73
1
74
5
7

75
16
147
1.0
148
0.0
149
0.0
100
AcDbLayout
1
Layout1
70
1
71
1
10
-20.0
20
-7.5
11
277.0
21
202.5
12
0.0
22
0.0
32
0.0
14
25.7
24
19.5
34
0.0
15
231.3
25
175.5
35
0.0
146
0.0
13
0.0
23
0.0
33
0.0
16
1.0
26
0.0
36
0.0
17
0.0
27
1.0
37
0.0
76
0
330
3FA
0
MLINESTYLE
5
19
330
409
100
AcDbMlineStyle
2
Standard
70
0
3

62
256
51
90.0
52
90.0
71
2
49
-0.5
62
256
6
ByLayer
49
0.5
62
256
6
ByLayer
0
ENDSEC
0
EOF
