999
Dxf file generated by netDxf https://netdxf.codeplex.com, Copyright(C) 2015 Daniel Carvajal, Licensed under LGPL
0
SECTION
2
HEADER
9
$ACADVER
1
AC1015
9
$DWGCODEPAGE
3
ANSI_1252
9
$HANDSEED
5
1AB
9
$ANGBASE
50
0.0
9
$ANGDIR
70
0
9
$ATTMODE
70
1
9
$AUNITS
70
0
9
$AUPREC
70
0
9
$CECOLOR
62
256
9
$CELTSCALE
40
1.0
9
$CELTYPE
6
ByLayer
9
$CELWEIGHT
370
-1
9
$CLAYER
8
0
9
$CMLJUST
70
0
9
$CMLSCALE
40
20.0
9
$CMLSTYLE
2
Standard
9
$DIMSTYLE
2
Standard
9
$TEXTSIZE
40
2.5
9
$TEXTSTYLE
7
Standard
9
$LUNITS
70
2
9
$LUPREC
70
4
9
$EXTNAMES
290
1
9
$INSBASE
10
0.0
20
0.0
30
0.0
9
$INSUNITS
70
0
9
$LTSCALE
40
1.0
9
$LWDISPLAY
290
0
9
$PDMODE
70
0
9
$PDSIZE
40
0.0
9
$PLINEGEN
70
0
9
$PSLTSCALE
70
1
9
$TDCREATE
40
2461225.43971174
9
$TDUCREATE
40
2461225.56471174
9
$TDUPDATE
40
2461225.43971174
9
$TDUUPDATE
40
2461225.56471174
9
$TDINDWG
40
0.0
9
$DIMADEC
70
0
9
$DIMAUNIT
70
0
9
$DIMASZ
40
0.18
9
$DIMAZIN
70
0
9
$DIMBLK
1

9
$DIMBLK1
1

9
$DIMBLK2
1

9
$DIMLDRBLK
1

9
$DIMCEN
40
0.09
9
$DIMCLRD
70
0
9
$DIMCLRE
70
0
9
$DIMCLRT
70
0
9
$DIMDEC
70
2
9
$DIMDLE
40
0.0
9
$DIMDLI
40
0.38
9
$DIMDSEP
70
46
9
$DIMEXE
40
0.18
9
$DIMEXO
40
0.0625
9
$DIMGAP
40
0.09
9
$DIMJUST
70
0
9
$DIMLFAC
40
1.0
9
$DIMLUNIT
70
2
9
$DIMLWD
70
-2
9
$DIMLWE
70
-2
9
$DIMPOST
1
<>
9
$DIMRND
40
0.0
9
$DIMSAH
70
0
9
$DIMSCALE
40
1.0
9
$DIMSE1
70
0
9
$DIMSE2
70
0
9
$DIMTAD
70
1
9
$DIMTIH
70
0
9
$DIMTOH
70
0
9
$DIMTXT
40
0.18
9
$DIMZIN
70
0
9
$DIMFRAC
70
0
9
$DIMLTYPE
6
ByBlock
9
$DIMLTEX1
6
ByBlock
9
$DIMLTEX2
6
ByBlock
0
ENDSEC
0
SECTION
2
CLASSES
0
CLASS
1
RASTERVARIABLES
2
AcDbRasterVariables
3
ISM
90
0
280
0
281
0
0
ENDSEC
0
SECTION
2
TABLES
0
TABLE
2
APPID
5
4
330
0
100
AcDbSymbolTable
70
4
0
APPID
5
17
330
4
100
AcDbSymbolTableRecord
100
AcDbRegAppTableRecord
2
ACAD
70
0
0
APPID
5
1A0
330
4
100
AcDbSymbolTableRecord
100
AcDbRegAppTableRecord
2
AcCmTransparency
70
0
0
APPID
5
1A1
330
4
100
AcDbSymbolTableRecord
100
AcDbRegAppTableRecord
2
GradientColor1ACI
70
0
0
APPID
5
1A2
330
4
100
AcDbSymbolTableRecord
100
AcDbRegAppTableRecord
2
GradientColor2ACI
70
0
0
ENDTAB
0
TABLE
2
VPORT
5
1
330
0
100
AcDbSymbolTable
70
1
0
VPORT
5
2
330
1
100
AcDbSymbolTableRecord
100
AcDbViewportTableRecord
2
*Active
70
0
10
0.0
20
0.0
11
1.0
21
1.0
12
0.0
22
0.0
13
0.0
23
0.0
14
0.5
24
0.5
15
10.0
25
10.0
16
0.0
26
0.0
36
1.0
17
0.0
27
0.0
37
0.0
40
10.0
41
1.0
75
0
76
1
0
ENDTAB
0
TABLE
2
LTYPE
5
6
330
0
100
AcDbSymbolTable
70
3
0
LTYPE
5
13
330
6
100
AcDbSymbolTableRecord
100
AcDbLinetypeTableRecord
70
0
2
Continuous
3
Solid line
72
65
73
0
40
0.0
0
LTYPE
5
14
330
6
100
AcDbSymbolTableRecord
100
AcDbLinetypeTableRecord
70
0
2
ByLayer
3

72
65
73
0
40
0.0
0
LTYPE
5
15
330
6
100
AcDbSymbolTableRecord
100
AcDbLinetypeTableRecord
70
0
2
ByBlock
3

72
65
73
0
40
0.0
0
ENDTAB
0
TABLE
2
LAYER
5
5
330
0
100
AcDbSymbolTable
70
7
0
LAYER
5
12
330
5
100
AcDbSymbolTableRecord
100
AcDbLayerTableRecord
2
0
70
0
62
7
6
Continuous
290
1
370
-3
390
0
0
LAYER
5
21
330
5
100
AcDbSymbolTableRecord
100
AcDbLayerTableRecord
2
Hole
70
0
62
7
6
Continuous
290
1
370
-3
390
0
0
LAYER
5
23
330
5
100
AcDbSymbolTableRecord
100
AcDbLayerTableRecord
2
Theoretical Hole
70
0
62
7
6
Continuous
290
1
370
-3
390
0
0
LAYER
5
25
330
5
100
AcDbSymbolTableRecord
100
AcDbLayerTableRecord
2
Number
70
0
62
7
6
Continuous
290
1
370
-3
390
0
0
LAYER
5
27
330
5
100
AcDbSymbolTableRecord
100
AcDbLayerTableRecord
2
label
70
0
62
7
6
Continuous
290
1
370
-3
390
0
0
LAYER
5
29
330
5
100
AcDbSymbolTableRecord
100
AcDbLayerTableRecord
2
Length
70
0
62
7
6
Continuous
290
1
370
-3
390
0
0
LAYER
5
EC
330
5
100
AcDbSymbolTableRecord
100
AcDbLayerTableRecord
2
Real Hole
70
0
62
7
6
Continuous
290
1
370
-3
390
0
0
ENDTAB
0
TABLE
2
STYLE
5
7
330
0
100
AcDbSymbolTable
70
1
0
STYLE
5
16
330
7
100
AcDbSymbolTableRecord
100
AcDbTextStyleTableRecord
2
Standard
3
simplex.shx
70
0
71
0
40
0.0
41
1.0
42
0.0
50
0.0
0
ENDTAB
0
TABLE
2
DIMSTYLE
5
8
330
0
100
AcDbSymbolTable
70
1
100
AcDbDimStyleTable
0
DIMSTYLE
105
18
330
8
100
AcDbSymbolTableRecord
100
AcDbDimStyleTableRecord
2
Standard
70
0
3
<>
40
1.0
41
0.18
42
0.0625
43
0.38
44
0.18
45
0.0
46
0.0
73
0
74
0
75
0
76
0
77
1
78
0
79
0
140
0.18
141
0.09
144
1.0
147
0.09
173
0
176
0
177
0
178
0
179
0
271
2
275
0
276
0
277
2
278
46
280
0
340
16
345
15
346
15
347
15
371
-2
372
-2
0
ENDTAB
0
TABLE
2
VIEW
5
3
330
0
100
AcDbSymbolTable
70
0
0
ENDTAB
0
TABLE
2
UCS
5
A
330
0
100
AcDbSymbolTable
70
0
0
ENDTAB
0
TABLE
2
BLOCK_RECORD
5
B
330
0
100
AcDbSymbolTable
70
2
0
BLOCK_RECORD
5
1A
330
B
100
AcDbSymbolTableRecord
100
AcDbBlockTableRecord
2
*Model_Space
340
1E
0
BLOCK_RECORD
5
19A
330
B
100
AcDbSymbolTableRecord
100
AcDbBlockTableRecord
2
*Paper_Space
340
19F
0
ENDTAB
0
ENDSEC
0
SECTION
2
BLOCKS
0
BLOCK
5
1C
330
1A
100
AcDbEntity
8
0
100
AcDbBlockBegin
2
*Model_Space
70
0
10
0.0
20
0.0
30
0.0
3
*Model_Space
0
ENDBLK
5
1B
330
1A
100
AcDbEntity
8
0
100
AcDbBlockEnd
0
BLOCK
5
19C
330
19A
100
AcDbEntity
8
0
100
AcDbBlockBegin
2
*Paper_Space
70
0
10
0.0
20
0.0
30
0.0
3
*Paper_Space
0
ENDBLK
5
19B
330
19A
100
AcDbEntity
8
0
100
AcDbBlockEnd
0
ENDSEC
0
SECTION
2
ENTITIES
0
POINT
5
20
330
1A
100
AcDbEntity
67
0
8
Hole
62
244
420
659967
6
ByLayer
370
-1
48
1.0
60
0
100
AcDbPoint
10
748778.03
20
8930606.51000122
30
210.97000005722
39
0.0
210
0.0
220
0.0
230
1.0
50
360.0
0
LINE
5
22
330
1A
100
AcDbEntity
67
0
8
Theoretical Hole
62
244
420
659967
6
ByLayer
370
-1
48
1.0
60
0
100
AcDbLine
10
748778.03
20
8930606.51000122
30
210.97000005722
11
748776.349864273
21
8930604.42555908
31
200.012328414917
39
0.0
210
0.0
220
0.0
230
1.0
0
TEXT
5
24
330
1A
100
AcDbEntity
67
0
8
Number
62
244
420
659967
6
ByLayer
370
-1
48
1.0
60
0
100
AcDbText
1
1
10
748778.03
20
8930606.89100123
30
210.97000005722
40
0.3
41
1.0
50
0.0
51
0.0
7
Standard
11
748778.03
21
8930606.89100123
31
210.97000005722
210
0.0
220
0.0
230
1.0
72
0
100
AcDbText
73
0
0
TEXT
5
26
330
1A
100
AcDbEntity
67
0
8
label
62
1
420
16711680
6
ByLayer
370
-1
48
1.0
60
0
100
AcDbText
1

10
748778.03
20
8930607.29100123
30
210.97000005722
40
0.3
41
1.0
50
0.0
51
0.0
7
Standard
11
748778.03
21
8930607.29100123
31
210.97000005722
210
0.0
220
0.0
230
1.0
72
0
100
AcDbText
73
0
0
TEXT
5
28
330
1A
100
AcDbEntity
67
0
8
Length
62
244
420
659967
6
ByLayer
370
-1
48
1.0
60
0
100
AcDbText
1
11.28
10
748778.03
20
8930605.75600121
30
210.97000005722
40
0.3
41
1.0
50
0.0
51
0.0
7
Standard
11
748778.03
21
8930605.75600121
31
210.97000005722
210
0.0
220
0.0
230
1.0
72
0
100
AcDbText
73
0
0
POINT
5
2A
330
1A
100
AcDbEntity
67
0
8
Hole
62
244
420
659967
6
ByLayer
370
-1
48
1.0
60
0
100
AcDbPoint
10
748779.199998169
20
8930605.56999878
30
210.78
39
0.0
210
0.0
220
0.0
230
1.0
50
360.0
0
LINE
5
2B
330
1A
100
AcDbEntity
67
0
8
Theoretical Hole
62
244
420
659967
6
ByLayer
370
-1
48
1.0
60
0
100
AcDbLine
10
748779.199998169
20
8930605.56999878
30
210.78
11
748777.530143051
21
8930603.49829773
31
200.003649978638
39
0.0
210
0.0
220
0.0
230
1.0
0
TEXT
5
2C
330
1A
100
AcDbEntity
67
0
8
Number
62
244
420
659967
6
ByLayer
370
-1
48
1.0
60
0
100
AcDbText
1
2
10
748779.199998169
20
8930605.95099879
30
210.78
40
0.3
41
1.0
50
0.0
51
0.0
7
Standard
11
748779.199998169
21
8930605.95099879
31
210.78
210
0.0
220
0.0
230
1.0
72
0
100
AcDbText
73
0
0
TEXT
5
2D
330
1A
100
AcDbEntity
67
0
8
label
62
1
420
16711680
6
ByLayer
370
-1
48
1.0
60
0
100
AcDbText
1

10
748779.199998169
20
8930606.35099879
30
210.78
40
0.3
41
1.0
50
0.0
51
0.0
7
Standard
11
748779.199998169
21
8930606.35099879
31
210.78
210
0.0
220
0.0
230
1.0
72
0
100
AcDbText
73
0
0
TEXT
5
2E
330
1A
100
AcDbEntity
67
0
8
Length
62
244
420
659967
6
ByLayer
370
-1
48
1.0
60
0
100
AcDbText
1
11.10
10
748779.199998169
20
8930604.81599877
30
210.78
40
0.3
41
1.0
50
0.0
51
0.0
7
Standard
11
748779.199998169
21
8930604.81599877
31
210.78
210
0.0
220
0.0
230
1.0
72
0
100
AcDbText
73
0
0
POINT
5
2F
330
1A
100
AcDbEntity
67
0
8
Hole
62
244
420
659967
6
ByLayer
370
-1
48
1.0
60
0
100
AcDbPoint
10
748780.360001831
20
8930604.62000183
30
210.600000052452
39
0.0
210
0.0
220
0.0
230
1.0
50
360.0
0
LINE
5
30
330
1A
100
AcDbEntity
67
0
8
Theoretical Hole
62
244
420
659967
6
ByLayer
370
-1
48
1.0
60
0
100
AcDbLine
10
748780.360001831
20
8930604.62000183
30
210.600000052452
11
748778.705617218
21
8930602.56749634
31
200.002990036011
39
0.0
210
0.0
220
0.0
230
1.0
0
TEXT
5
31
330
1A
100
AcDbEntity
67
0
8
Number
62
244
420
659967
6
ByLayer
370
-1
48
1.0
60
0
100
AcDbText
1
3
10
748780.360001831
20
8930605.00100184
30
210.600000052452
40
0.3
41
1.0
50
0.0
51
0.0
7
Standard
11
748780.360001831
21
8930605.00100184
31
210.600000052452
210
0.0
220
0.0
230
1.0
72
0
100
AcDbText
73
0
0
TEXT
5
32
330
1A
100
AcDbEntity
67
0
8
label
62
1
420
16711680
6
ByLayer
370
-1
48
1.0
60
0
100
AcDbText
1

10
748780.360001831
20
8930605.40100184
30
210.600000052452
40
0.3
41
1.0
50
0.0
51
0.0
7
Standard
11
748780.360001831
21
8930605.40100184
31
210.600000052452
210
0.0
220
0.0
230
1.0
72
0
100
AcDbText
73
0
0
TEXT
5
33
330
1A
100
AcDbEntity
67
0
8
Length
62
244
420
659967
6
ByLayer
370
-1
48
1.0
60
0
100
AcDbText
1
10.92
10
748780.360001831
20
8930603.86600182
30
210.600000052452
40
0.3
41
1.0
50
0.0
51
0.0
7
Standard
11
748780.360001831
21
8930603.86600182
31
210.600000052452
210
0.0
220
0.0
230
1.0
72
0
100
AcDbText
73
0
0
POINT
5
34
330
1A
100
AcDbEntity
67
0
8
Hole
62
244
420
659967
6
ByLayer
370
-1
48
1.0
60
0
100
AcDbPoint
10
748781.53
20
8930603.6899939
30
210.55999997139
39
0.0
210
0.0
220
0.0
230
1.0
50
360.0
0
LINE
5
35
330
1A
100
AcDbEntity
67
0
8
Theoretical Hole
62
244
420
659967
6
ByLayer
370
-1
48
1.0
60
0
100
AcDbLine
10
748781.53
20
8930603.6899939
30
210.55999997139
11
748779.883988647
21
8930601.64787964
31
200.000889091492
39
0.0
210
0.0
220
0.0
230
1.0
0
TEXT
5
36
330
1A
100
AcDbEntity
67
0
8
Number
62
244
420
659967
6
ByLayer
370
-1
48
1.0
60
0
100
AcDbText
1
4
10
748781.53
20
8930604.07099391
30
210.55999997139
40
0.3
41
1.0
50
0.0
51
0.0
7
Standard
11
748781.53
21
8930604.07099391
31
210.55999997139
210
0.0
220
0.0
230
1.0
72
0
100
AcDbText
73
0
0
TEXT
5
37
330
1A
100
AcDbEntity
67
0
8
label
62
1
420
16711680
6
ByLayer
370
-1
48
1.0
60
0
100
AcDbText
1

10
748781.53
20
8930604.47099391
30
210.55999997139
40
0.3
41
1.0
50
0.0
51
0.0
7
Standard
11
748781.53
21
8930604.47099391
31
210.55999997139
210
0.0
220
0.0
230
1.0
72
0
100
AcDbText
73
0
0
TEXT
5
38
330
1A
100
AcDbEntity
67
0
8
Length
62
244
420
659967
6
ByLayer
370
-1
48
1.0
60
0
100
AcDbText
1
10.88
10
748781.53
20
8930602.93599389
30
210.55999997139
40
0.3
41
1.0
50
0.0
51
0.0
7
Standard
11
748781.53
21
8930602.93599389
31
210.55999997139
210
0.0
220
0.0
230
1.0
72
0
100
AcDbText
73
0
0
POINT
5
39
330
1A
100
AcDbEntity
67
0
8
Hole
62
244
420
659967
6
ByLayer
370
-1
48
1.0
60
0
100
AcDbPoint
10
748782.699998169
20
8930602.75000671
30
210.450000016689
39
0.0
210
0.0
220
0.0
230
1.0
50
360.0
0
LINE
5
3A
330
1A
100
AcDbEntity
67
0
8
Theoretical Hole
62
244
420
659967
6
ByLayer
370
-1
48
1.0
60
0
100
AcDbLine
10
748782.699998169
20
8930602.75000671
30
210.450000016689
11
748781.070355682
21
8930600.71004394
31
200.001279144287
39
0.0
210
0.0
220
0.0
230
1.0
0
TEXT
5
3B
330
1A
100
AcDbEntity
67
0
8
Number
62
244
420
659967
6
ByLayer
370
-1
48
1.0
60
0
100
AcDbText
1
5
10
748782.699998169
20
8930603.13100673
30
210.450000016689
40
0.3
41
1.0
50
0.0
51
0.0
7
Standard
11
748782.699998169
21
8930603.13100673
31
210.450000016689
210
0.0
220
0.0
230
1.0
72
0
100
AcDbText
73
0
0
TEXT
5
3C
330
1A
100
AcDbEntity
67
0
8
label
62
1
420
16711680
6
ByLayer
370
-1
48
1.0
60
0
100
AcDbText
1

10
748782.699998169
20
8930603.53100673
30
210.450000016689
40
0.3
41
1.0
50
0.0
51
0.0
7
Standard
11
748782.699998169
21
8930603.53100673
31
210.450000016689
210
0.0
220
0.0
230
1.0
72
0
100
AcDbText
73
0
0
TEXT
5
3D
330
1A
100
AcDbEntity
67
0
8
Length
62
244
420
659967
6
ByLayer
370
-1
48
1.0
60
0
100
AcDbText
1
10.77
10
748782.699998169
20
8930601.9960067
30
210.450000016689
40
0.3
41
1.0
50
0.0
51
0.0
7
Standard
11
748782.699998169
21
8930601.9960067
31
210.450000016689
210
0.0
220
0.0
230
1.0
72
0
100
AcDbText
73
0
0
POINT
5
3E
330
1A
100
AcDbEntity
67
0
8
Hole
62
244
420
659967
6
ByLayer
370
-1
48
1.0
60
0
100
AcDbPoint
10
748783.879998474
20
8930601.81999878
30
210.380000023842
39
0.0
210
0.0
220
0.0
230
1.0
50
360.0
0
LINE
5
3F
330
1A
100
AcDbEntity
67
0
8
Theoretical Hole
62
244
420
659967
6
ByLayer
370
-1
48
1.0
60
0
100
AcDbLine
10
748783.879998474
20
8930601.81999878
30
210.380000023842
11
748782.248509674
21
8930599.77773193
31
200.004192619324
39
0.0
210
0.0
220
0.0
230
1.0
0
TEXT
5
40
330
1A
100
AcDbEntity
67
0
8
Number
62
244
420
659967
6
ByLayer
370
-1
48
1.0
60
0
100
AcDbText
1
6
10
748783.879998474
20
8930602.20099879
30
210.380000023842
40
0.3
41
1.0
50
0.0
51
0.0
7
Standard
11
748783.879998474
21
8930602.20099879
31
210.380000023842
210
0.0
220
0.0
230
1.0
72
0
100
AcDbText
73
0
0
TEXT
5
41
330
1A
100
AcDbEntity
67
0
8
label
62
1
420
16711680
6
ByLayer
370
-1
48
1.0
60
0
100
AcDbText
1

10
748783.879998474
20
8930602.60099879
30
210.380000023842
40
0.3
41
1.0
50
0.0
51
0.0
7
Standard
11
748783.879998474
21
8930602.60099879
31
210.380000023842
210
0.0
220
0.0
230
1.0
72
0
100
AcDbText
73
0
0
TEXT
5
42
330
1A
100
AcDbEntity
67
0
8
Length
62
244
420
659967
6
ByLayer
370
-1
48
1.0
60
0
100
AcDbText
1
10.70
10
748783.879998474
20
8930601.06599877
30
210.380000023842
40
0.3
41
1.0
50
0.0
51
0.0
7
Standard
11
748783.879998474
21
8930601.06599877
31
210.380000023842
210
0.0
220
0.0
230
1.0
72
0
100
AcDbText
73
0
0
POINT
5
43
330
1A
100
AcDbEntity
67
0
8
Hole
62
244
420
659967
6
ByLayer
370
-1
48
1.0
60
0
100
AcDbPoint
10
748785.039998322
20
8930600.87000183
30
210.219999997616
39
0.0
210
0.0
220
0.0
230
1.0
50
360.0
0
LINE
5
44
330
1A
100
AcDbEntity
67
0
8
Theoretical Hole
62
244
420
659967
6
ByLayer
370
-1
48
1.0
60
0
100
AcDbLine
10
748785.039998322
20
8930600.87000183
30
210.219999997616
11
748783.419549255
21
8930598.84155945
31
200.004761009216
39
0.0
210
0.0
220
0.0
230
1.0
0
TEXT
5
45
330
1A
100
AcDbEntity
67
0
8
Number
62
244
420
659967
6
ByLayer
370
-1
48
1.0
60
0
100
AcDbText
1
7
10
748785.039998322
20
8930601.25100184
30
210.219999997616
40
0.3
41
1.0
50
0.0
51
0.0
7
Standard
11
748785.039998322
21
8930601.25100184
31
210.219999997616
210
0.0
220
0.0
230
1.0
72
0
100
AcDbText
73
0
0
TEXT
5
46
330
1A
100
AcDbEntity
67
0
8
label
62
1
420
16711680
6
ByLayer
370
-1
48
1.0
60
0
100
AcDbText
1

10
748785.039998322
20
8930601.65100184
30
210.219999997616
40
0.3
41
1.0
50
0.0
51
0.0
7
Standard
11
748785.039998322
21
8930601.65100184
31
210.219999997616
210
0.0
220
0.0
230
1.0
72
0
100
AcDbText
73
0
0
TEXT
5
47
330
1A
100
AcDbEntity
67
0
8
Length
62
244
420
659967
6
ByLayer
370
-1
48
1.0
60
0
100
AcDbText
1
10.54
10
748785.039998322
20
8930600.11600182
30
210.219999997616
40
0.3
41
1.0
50
0.0
51
0.0
7
Standard
11
748785.039998322
21
8930600.11600182
31
210.219999997616
210
0.0
220
0.0
230
1.0
72
0
100
AcDbText
73
0
0
POINT
5
48
330
1A
100
AcDbEntity
67
0
8
Hole
62
244
420
659967
6
ByLayer
370
-1
48
1.0
60
0
100
AcDbPoint
10
748786.219998627
20
8930599.9399939
30
210.239999978542
39
0.0
210
0.0
220
0.0
230
1.0
50
360.0
0
LINE
5
49
330
1A
100
AcDbEntity
67
0
8
Theoretical Hole
62
244
420
659967
6
ByLayer
370
-1
48
1.0
60
0
100
AcDbLine
10
748786.219998627
20
8930599.9399939
30
210.239999978542
11
748784.594937592
21
8930597.90576843
31
199.995682983398
39
0.0
210
0.0
220
0.0
230
1.0
0
TEXT
5
4A
330
1A
100
AcDbEntity
67
0
8
Number
62
244
420
659967
6
ByLayer
370
-1
48
1.0
60
0
100
AcDbText
1
8
10
748786.219998627
20
8930600.32099391
30
210.239999978542
40
0.3
41
1.0
50
0.0
51
0.0
7
Standard
11
748786.219998627
21
8930600.32099391
31
210.239999978542
210
0.0
220
0.0
230
1.0
72
0
100
AcDbText
73
0
0
TEXT
5
4B
330
1A
100
AcDbEntity
67
0
8
label
62
1
420
16711680
6
ByLayer
370
-1
48
1.0
60
0
100
AcDbText
1

10
748786.219998627
20
8930600.72099391
30
210.239999978542
40
0.3
41
1.0
50
0.0
51
0.0
7
Standard
11
748786.219998627
21
8930600.72099391
31
210.239999978542
210
0.0
220
0.0
230
1.0
72
0
100
AcDbText
73
0
0
TEXT
5
4C
330
1A
100
AcDbEntity
67
0
8
Length
62
244
420
659967
6
ByLayer
370
-1
48
1.0
60
0
100
AcDbText
1
10.57
10
748786.219998627
20
8930599.18599389
30
210.239999978542
40
0.3
41
1.0
50
0.0
51
0.0
7
Standard
11
748786.219998627
21
8930599.18599389
31
210.239999978542
210
0.0
220
0.0
230
1.0
72
0
100
AcDbText
73
0
0
POINT
5
4D
330
1A
100
AcDbEntity
67
0
8
Hole
62
244
420
659967
6
ByLayer
370
-1
48
1.0
60
0
100
AcDbPoint
10
748787.399998932
20
8930599.01000122
30
210.429999976158
39
0.0
210
0.0
220
0.0
230
1.0
50
360.0
0
LINE
5
4E
330
1A
100
AcDbEntity
67
0
8
Theoretical Hole
62
244
420
659967
6
ByLayer
370
-1
48
1.0
60
0
100
AcDbLine
10
748787.399998932
20
8930599.01000122
30
210.429999976158
11
748785.771111755
21
8930596.9709845
31
200.001593856812
39
0.0
210
0.0
220
0.0
230
1.0
0
TEXT
5
4F
330
1A
100
AcDbEntity
67
0
8
Number
62
244
420
659967
6
ByLayer
370
-1
48
1.0
60
0
100
AcDbText
1
9
10
748787.399998932
20
8930599.39100123
30
210.429999976158
40
0.3
41
1.0
50
0.0
51
0.0
7
Standard
11
748787.399998932
21
8930599.39100123
31
210.429999976158
210
0.0
220
0.0
230
1.0
72
0
100
AcDbText
73
0
0
TEXT
5
50
330
1A
100
AcDbEntity
67
0
8
label
62
1
420
16711680
6
ByLayer
370
-1
48
1.0
60
0
100
AcDbText
1

10
748787.399998932
20
8930599.79100123
30
210.429999976158
40
0.3
41
1.0
50
0.0
51
0.0
7
Standard
11
748787.399998932
21
8930599.79100123
31
210.429999976158
210
0.0
220
0.0
230
1.0
72
0
100
AcDbText
73
0
0
TEXT
5
51
330
1A
100
AcDbEntity
67
0
8
Length
62
244
420
659967
6
ByLayer
370
-1
48
1.0
60
0
100
AcDbText
1
10.75
10
748787.399998932
20
8930598.25600121
30
210.429999976158
40
0.3
41
1.0
50
0.0
51
0.0
7
Standard
11
748787.399998932
21
8930598.25600121
31
210.429999976158
210
0.0
220
0.0
230
1.0
72
0
100
AcDbText
73
0
0
POINT
5
52
330
1A
100
AcDbEntity
67
0
8
Hole
62
244
420
659967
6
ByLayer
370
-1
48
1.0
60
0
100
AcDbPoint
10
748788.559998779
20
8930598.06999878
30
210.919999985695
39
0.0
210
0.0
220
0.0
230
1.0
50
360.0
0
LINE
5
53
330
1A
100
AcDbEntity
67
0
8
Theoretical Hole
62
244
420
659967
6
ByLayer
370
-1
48
1.0
60
0
100
AcDbLine
10
748788.559998779
20
8930598.06999878
30
210.919999985695
11
748786.938260345
21
8930596.03993896
31
200.005001335144
39
0.0
210
0.0
220
0.0
230
1.0
0
TEXT
5
54
330
1A
100
AcDbEntity
67
0
8
Number
62
244
420
659967
6
ByLayer
370
-1
48
1.0
60
0
100
AcDbText
1
10
10
748788.559998779
20
8930598.45099879
30
210.919999985695
40
0.3
41
1.0
50
0.0
51
0.0
7
Standard
11
748788.559998779
21
8930598.45099879
31
210.919999985695
210
0.0
220
0.0
230
1.0
72
0
100
AcDbText
73
0
0
TEXT
5
55
330
1A
100
AcDbEntity
67
0
8
label
62
1
420
16711680
6
ByLayer
370
-1
48
1.0
60
0
100
AcDbText
1

10
748788.559998779
20
8930598.85099879
30
210.919999985695
40
0.3
41
1.0
50
0.0
51
0.0
7
Standard
11
748788.559998779
21
8930598.85099879
31
210.919999985695
210
0.0
220
0.0
230
1.0
72
0
100
AcDbText
73
0
0
TEXT
5
56
330
1A
100
AcDbEntity
67
0
8
Length
62
244
420
659967
6
ByLayer
370
-1
48
1.0
60
0
100
AcDbText
1
11.22
10
748788.559998779
20
8930597.31599877
30
210.919999985695
40
0.3
41
1.0
50
0.0
51
0.0
7
Standard
11
748788.559998779
21
8930597.31599877
31
210.919999985695
210
0.0
220
0.0
230
1.0
72
0
100
AcDbText
73
0
0
POINT
5
57
330
1A
100
AcDbEntity
67
0
8
Hole
62
244
420
659967
6
ByLayer
370
-1
48
1.0
60
0
100
AcDbPoint
10
748789.730000763
20
8930597.12999634
30
211.30999997139
39
0.0
210
0.0
220
0.0
230
1.0
50
360.0
0
LINE
5
58
330
1A
100
AcDbEntity
67
0
8
Theoretical Hole
62
244
420
659967
6
ByLayer
370
-1
48
1.0
60
0
100
AcDbLine
10
748789.730000763
20
8930597.12999634
30
211.30999997139
11
748788.109772949
21
8930595.10182861
31
199.993928222656
39
0.0
210
0.0
220
0.0
230
1.0
0
TEXT
5
59
330
1A
100
AcDbEntity
67
0
8
Number
62
244
420
659967
6
ByLayer
370
-1
48
1.0
60
0
100
AcDbText
1
11
10
748789.730000763
20
8930597.51099635
30
211.30999997139
40
0.3
41
1.0
50
0.0
51
0.0
7
Standard
11
748789.730000763
21
8930597.51099635
31
211.30999997139
210
0.0
220
0.0
230
1.0
72
0
100
AcDbText
73
0
0
TEXT
5
5A
330
1A
100
AcDbEntity
67
0
8
label
62
1
420
16711680
6
ByLayer
370
-1
48
1.0
60
0
100
AcDbText
1

10
748789.730000763
20
8930597.91099635
30
211.30999997139
40
0.3
41
1.0
50
0.0
51
0.0
7
Standard
11
748789.730000763
21
8930597.91099635
31
211.30999997139
210
0.0
220
0.0
230
1.0
72
0
100
AcDbText
73
0
0
TEXT
5
5B
330
1A
100
AcDbEntity
67
0
8
Length
62
244
420
659967
6
ByLayer
370
-1
48
1.0
60
0
100
AcDbText
1
11.61
10
748789.730000763
20
8930596.37599633
30
211.30999997139
40
0.3
41
1.0
50
0.0
51
0.0
7
Standard
11
748789.730000763
21
8930596.37599633
31
211.30999997139
210
0.0
220
0.0
230
1.0
72
0
100
AcDbText
73
0
0
POINT
5
5C
330
1A
100
AcDbEntity
67
0
8
Hole
62
244
420
659967
6
ByLayer
370
-1
48
1.0
60
0
100
AcDbPoint
10
748790.910001068
20
8930596.1899939
30
211.33999994278
39
0.0
210
0.0
220
0.0
230
1.0
50
360.0
0
LINE
5
5D
330
1A
100
AcDbEntity
67
0
8
Theoretical Hole
62
244
420
659967
6
ByLayer
370
-1
48
1.0
60
0
100
AcDbLine
10
748790.910001068
20
8930596.1899939
30
211.33999994278
11
748789.290688782
21
8930594.16297058
31
200.003074913025
39
0.0
210
0.0
220
0.0
230
1.0
0
TEXT
5
5E
330
1A
100
AcDbEntity
67
0
8
Number
62
244
420
659967
6
ByLayer
370
-1
48
1.0
60
0
100
AcDbText
1
12
10
748790.910001068
20
8930596.57099391
30
211.33999994278
40
0.3
41
1.0
50
0.0
51
0.0
7
Standard
11
748790.910001068
21
8930596.57099391
31
211.33999994278
210
0.0
220
0.0
230
1.0
72
0
100
AcDbText
73
0
0
TEXT
5
5F
330
1A
100
AcDbEntity
67
0
8
label
62
1
420
16711680
6
ByLayer
370
-1
48
1.0
60
0
100
AcDbText
1

10
748790.910001068
20
8930596.97099391
30
211.33999994278
40
0.3
41
1.0
50
0.0
51
0.0
7
Standard
11
748790.910001068
21
8930596.97099391
31
211.33999994278
210
0.0
220
0.0
230
1.0
72
0
100
AcDbText
73
0
0
TEXT
5
60
330
1A
100
AcDbEntity
67
0
8
Length
62
244
420
659967
6
ByLayer
370
-1
48
1.0
60
0
100
AcDbText
1
11.63
10
748790.910001068
20
8930595.43599389
30
211.33999994278
40
0.3
41
1.0
50
0.0
51
0.0
7
Standard
11
748790.910001068
21
8930595.43599389
31
211.33999994278
210
0.0
220
0.0
230
1.0
72
0
100
AcDbText
73
0
0
POINT
5
61
330
1A
100
AcDbEntity
67
0
8
Hole
62
244
420
659967
6
ByLayer
370
-1
48
1.0
60
0
100
AcDbPoint
10
748792.079999237
20
8930595.26000122
30
211.370000033379
39
0.0
210
0.0
220
0.0
230
1.0
50
360.0
0
LINE
5
62
330
1A
100
AcDbEntity
67
0
8
Theoretical Hole
62
244
420
659967
6
ByLayer
370
-1
48
1.0
60
0
100
AcDbLine
10
748792.079999237
20
8930595.26000122
30
211.370000033379
11
748790.460225372
21
8930593.23239807
31
200.002471237183
39
0.0
210
0.0
220
0.0
230
1.0
0
TEXT
5
63
330
1A
100
AcDbEntity
67
0
8
Number
62
244
420
659967
6
ByLayer
370
-1
48
1.0
60
0
100
AcDbText
1
13
10
748792.079999237
20
8930595.64100123
30
211.370000033379
40
0.3
41
1.0
50
0.0
51
0.0
7
Standard
11
748792.079999237
21
8930595.64100123
31
211.370000033379
210
0.0
220
0.0
230
1.0
72
0
100
AcDbText
73
0
0
TEXT
5
64
330
1A
100
AcDbEntity
67
0
8
label
62
1
420
16711680
6
ByLayer
370
-1
48
1.0
60
0
100
AcDbText
1

10
748792.079999237
20
8930596.04100123
30
211.370000033379
40
0.3
41
1.0
50
0.0
51
0.0
7
Standard
11
748792.079999237
21
8930596.04100123
31
211.370000033379
210
0.0
220
0.0
230
1.0
72
0
100
AcDbText
73
0
0
TEXT
5
65
330
1A
100
AcDbEntity
67
0
8
Length
62
244
420
659967
6
ByLayer
370
-1
48
1.0
60
0
100
AcDbText
1
11.66
10
748792.079999237
20
8930594.50600121
30
211.370000033379
40
0.3
41
1.0
50
0.0
51
0.0
7
Standard
11
748792.079999237
21
8930594.50600121
31
211.370000033379
210
0.0
220
0.0
230
1.0
72
0
100
AcDbText
73
0
0
POINT
5
66
330
1A
100
AcDbEntity
67
0
8
Hole
62
244
420
659967
6
ByLayer
370
-1
48
1.0
60
0
100
AcDbPoint
10
748793.250001221
20
8930594.31999878
30
211.390000014305
39
0.0
210
0.0
220
0.0
230
1.0
50
360.0
0
LINE
5
67
330
1A
100
AcDbEntity
67
0
8
Theoretical Hole
62
244
420
659967
6
ByLayer
370
-1
48
1.0
60
0
100
AcDbLine
10
748793.250001221
20
8930594.31999878
30
211.390000014305
11
748791.567628174
21
8930592.34601501
31
200.001612930298
39
0.0
210
0.0
220
0.0
230
1.0
0
TEXT
5
68
330
1A
100
AcDbEntity
67
0
8
Number
62
244
420
659967
6
ByLayer
370
-1
48
1.0
60
0
100
AcDbText
1
14
10
748793.250001221
20
8930594.70099879
30
211.390000014305
40
0.3
41
1.0
50
0.0
51
0.0
7
Standard
11
748793.250001221
21
8930594.70099879
31
211.390000014305
210
0.0
220
0.0
230
1.0
72
0
100
AcDbText
73
0
0
TEXT
5
69
330
1A
100
AcDbEntity
67
0
8
label
62
1
420
16711680
6
ByLayer
370
-1
48
1.0
60
0
100
AcDbText
1

10
748793.250001221
20
8930595.10099879
30
211.390000014305
40
0.3
41
1.0
50
0.0
51
0.0
7
Standard
11
748793.250001221
21
8930595.10099879
31
211.390000014305
210
0.0
220
0.0
230
1.0
72
0
100
AcDbText
73
0
0
TEXT
5
6A
330
1A
100
AcDbEntity
67
0
8
Length
62
244
420
659967
6
ByLayer
370
-1
48
1.0
60
0
100
AcDbText
1
11.68
10
748793.250001221
20
8930593.56599877
30
211.390000014305
40
0.3
41
1.0
50
0.0
51
0.0
7
Standard
11
748793.250001221
21
8930593.56599877
31
211.390000014305
210
0.0
220
0.0
230
1.0
72
0
100
AcDbText
73
0
0
POINT
5
6B
330
1A
100
AcDbEntity
67
0
8
Hole
62
244
420
659967
6
ByLayer
370
-1
48
1.0
60
0
100
AcDbPoint
10
748794.39000061
20
8930593.34000305
30
211.449999957085
39
0.0
210
0.0
220
0.0
230
1.0
50
360.0
0
LINE
5
6C
330
1A
100
AcDbEntity
67
0
8
Theoretical Hole
62
244
420
659967
6
ByLayer
370
-1
48
1.0
60
0
100
AcDbLine
10
748794.39000061
20
8930593.34000305
30
211.449999957085
11
748792.700352936
21
8930591.37837891
31
199.999027519226
39
0.0
210
0.0
220
0.0
230
1.0
0
TEXT
5
6D
330
1A
100
AcDbEntity
67
0
8
Number
62
244
420
659967
6
ByLayer
370
-1
48
1.0
60
0
100
AcDbText
1
15
10
748794.39000061
20
8930593.72100306
30
211.449999957085
40
0.3
41
1.0
50
0.0
51
0.0
7
Standard
11
748794.39000061
21
8930593.72100306
31
211.449999957085
210
0.0
220
0.0
230
1.0
72
0
100
AcDbText
73
0
0
TEXT
5
6E
330
1A
100
AcDbEntity
67
0
8
label
62
1
420
16711680
6
ByLayer
370
-1
48
1.0
60
0
100
AcDbText
1

10
748794.39000061
20
8930594.12100306
30
211.449999957085
40
0.3
41
1.0
50
0.0
51
0.0
7
Standard
11
748794.39000061
21
8930594.12100306
31
211.449999957085
210
0.0
220
0.0
230
1.0
72
0
100
AcDbText
73
0
0
TEXT
5
6F
330
1A
100
AcDbEntity
67
0
8
Length
62
244
420
659967
6
ByLayer
370
-1
48
1.0
60
0
100
AcDbText
1
11.74
10
748794.39000061
20
8930592.58600304
30
211.449999957085
40
0.3
41
1.0
50
0.0
51
0.0
7
Standard
11
748794.39000061
21
8930592.58600304
31
211.449999957085
210
0.0
220
0.0
230
1.0
72
0
100
AcDbText
73
0
0
POINT
5
70
330
1A
100
AcDbEntity
67
0
8
Hole
62
244
420
659967
6
ByLayer
370
-1
48
1.0
60
0
100
AcDbPoint
10
748795.53
20
8930592.37000183
30
211.47000005722
39
0.0
210
0.0
220
0.0
230
1.0
50
360.0
0
LINE
5
71
330
1A
100
AcDbEntity
67
0
8
Theoretical Hole
62
244
420
659967
6
ByLayer
370
-1
48
1.0
60
0
100
AcDbLine
10
748795.53
20
8930592.37000183
30
211.47000005722
11
748793.83878067
21
8930590.40654663
31
199.999066619873
39
0.0
210
0.0
220
0.0
230
1.0
0
TEXT
5
72
330
1A
100
AcDbEntity
67
0
8
Number
62
244
420
659967
6
ByLayer
370
-1
48
1.0
60
0
100
AcDbText
1
16
10
748795.53
20
8930592.75100184
30
211.47000005722
40
0.3
41
1.0
50
0.0
51
0.0
7
Standard
11
748795.53
21
8930592.75100184
31
211.47000005722
210
0.0
220
0.0
230
1.0
72
0
100
AcDbText
73
0
0
TEXT
5
73
330
1A
100
AcDbEntity
67
0
8
label
62
1
420
16711680
6
ByLayer
370
-1
48
1.0
60
0
100
AcDbText
1

10
748795.53
20
8930593.15100184
30
211.47000005722
40
0.3
41
1.0
50
0.0
51
0.0
7
Standard
11
748795.53
21
8930593.15100184
31
211.47000005722
210
0.0
220
0.0
230
1.0
72
0
100
AcDbText
73
0
0
TEXT
5
74
330
1A
100
AcDbEntity
67
0
8
Length
62
244
420
659967
6
ByLayer
370
-1
48
1.0
60
0
100
AcDbText
1
11.76
10
748795.53
20
8930591.61600182
30
211.47000005722
40
0.3
41
1.0
50
0.0
51
0.0
7
Standard
11
748795.53
21
8930591.61600182
31
211.47000005722
210
0.0
220
0.0
230
1.0
72
0
100
AcDbText
73
0
0
POINT
5
75
330
1A
100
AcDbEntity
67
0
8
Hole
62
244
420
659967
6
ByLayer
370
-1
48
1.0
60
0
100
AcDbPoint
10
748796.660001068
20
8930591.3900061
30
211.480000047684
39
0.0
210
0.0
220
0.0
230
1.0
50
360.0
0
LINE
5
76
330
1A
100
AcDbEntity
67
0
8
Theoretical Hole
62
244
420
659967
6
ByLayer
370
-1
48
1.0
60
0
100
AcDbLine
10
748796.660001068
20
8930591.3900061
30
211.480000047684
11
748794.975316315
21
8930589.43414978
31
200.006812362671
39
0.0
210
0.0
220
0.0
230
1.0
0
TEXT
5
77
330
1A
100
AcDbEntity
67
0
8
Number
62
244
420
659967
6
ByLayer
370
-1
48
1.0
60
0
100
AcDbText
1
17
10
748796.660001068
20
8930591.77100611
30
211.480000047684
40
0.3
41
1.0
50
0.0
51
0.0
7
Standard
11
748796.660001068
21
8930591.77100611
31
211.480000047684
210
0.0
220
0.0
230
1.0
72
0
100
AcDbText
73
0
0
TEXT
5
78
330
1A
100
AcDbEntity
67
0
8
label
62
1
420
16711680
6
ByLayer
370
-1
48
1.0
60
0
100
AcDbText
1

10
748796.660001068
20
8930592.17100612
30
211.480000047684
40
0.3
41
1.0
50
0.0
51
0.0
7
Standard
11
748796.660001068
21
8930592.17100612
31
211.480000047684
210
0.0
220
0.0
230
1.0
72
0
100
AcDbText
73
0
0
TEXT
5
79
330
1A
100
AcDbEntity
67
0
8
Length
62
244
420
659967
6
ByLayer
370
-1
48
1.0
60
0
100
AcDbText
1
11.76
10
748796.660001068
20
8930590.63600609
30
211.480000047684
40
0.3
41
1.0
50
0.0
51
0.0
7
Standard
11
748796.660001068
21
8930590.63600609
31
211.480000047684
210
0.0
220
0.0
230
1.0
72
0
100
AcDbText
73
0
0
POINT
5
7A
330
1A
100
AcDbEntity
67
0
8
Hole
62
244
420
659967
6
ByLayer
370
-1
48
1.0
60
0
100
AcDbPoint
10
748797.789998322
20
8930590.40000061
30
211.33999994278
39
0.0
210
0.0
220
0.0
230
1.0
50
360.0
0
LINE
5
7B
330
1A
100
AcDbEntity
67
0
8
Theoretical Hole
62
244
420
659967
6
ByLayer
370
-1
48
1.0
60
0
100
AcDbLine
10
748797.789998322
20
8930590.40000061
30
211.33999994278
11
748796.114892273
21
8930588.45525268
31
199.996768264771
39
0.0
210
0.0
220
0.0
230
1.0
0
TEXT
5
7C
330
1A
100
AcDbEntity
67
0
8
Number
62
244
420
659967
6
ByLayer
370
-1
48
1.0
60
0
100
AcDbText
1
18
10
748797.789998322
20
8930590.78100062
30
211.33999994278
40
0.3
41
1.0
50
0.0
51
0.0
7
Standard
11
748797.789998322
21
8930590.78100062
31
211.33999994278
210
0.0
220
0.0
230
1.0
72
0
100
AcDbText
73
0
0
TEXT
5
7D
330
1A
100
AcDbEntity
67
0
8
label
62
1
420
16711680
6
ByLayer
370
-1
48
1.0
60
0
100
AcDbText
1

10
748797.789998322
20
8930591.18100062
30
211.33999994278
40
0.3
41
1.0
50
0.0
51
0.0
7
Standard
11
748797.789998322
21
8930591.18100062
31
211.33999994278
210
0.0
220
0.0
230
1.0
72
0
100
AcDbText
73
0
0
TEXT
5
7E
330
1A
100
AcDbEntity
67
0
8
Length
62
244
420
659967
6
ByLayer
370
-1
48
1.0
60
0
100
AcDbText
1
11.63
10
748797.789998322
20
8930589.6460006
30
211.33999994278
40
0.3
41
1.0
50
0.0
51
0.0
7
Standard
11
748797.789998322
21
8930589.6460006
31
211.33999994278
210
0.0
220
0.0
230
1.0
72
0
100
AcDbText
73
0
0
POINT
5
7F
330
1A
100
AcDbEntity
67
0
8
Hole
62
244
420
659967
6
ByLayer
370
-1
48
1.0
60
0
100
AcDbPoint
10
748798.91999939
20
8930589.40999512
30
210.919999985695
39
0.0
210
0.0
220
0.0
230
1.0
50
360.0
0
LINE
5
80
330
1A
100
AcDbEntity
67
0
8
Theoretical Hole
62
244
420
659967
6
ByLayer
370
-1
48
1.0
60
0
100
AcDbLine
10
748798.91999939
20
8930589.40999512
30
210.919999985695
11
748797.250638275
21
8930587.47191528
31
200.005732803345
39
0.0
210
0.0
220
0.0
230
1.0
0
TEXT
5
81
330
1A
100
AcDbEntity
67
0
8
Number
62
244
420
659967
6
ByLayer
370
-1
48
1.0
60
0
100
AcDbText
1
19
10
748798.91999939
20
8930589.79099513
30
210.919999985695
40
0.3
41
1.0
50
0.0
51
0.0
7
Standard
11
748798.91999939
21
8930589.79099513
31
210.919999985695
210
0.0
220
0.0
230
1.0
72
0
100
AcDbText
73
0
0
TEXT
5
82
330
1A
100
AcDbEntity
67
0
8
label
62
1
420
16711680
6
ByLayer
370
-1
48
1.0
60
0
100
AcDbText
1

10
748798.91999939
20
8930590.19099513
30
210.919999985695
40
0.3
41
1.0
50
0.0
51
0.0
7
Standard
11
748798.91999939
21
8930590.19099513
31
210.919999985695
210
0.0
220
0.0
230
1.0
72
0
100
AcDbText
73
0
0
TEXT
5
83
330
1A
100
AcDbEntity
67
0
8
Length
62
244
420
659967
6
ByLayer
370
-1
48
1.0
60
0
100
AcDbText
1
11.21
10
748798.91999939
20
8930588.65599511
30
210.919999985695
40
0.3
41
1.0
50
0.0
51
0.0
7
Standard
11
748798.91999939
21
8930588.65599511
31
210.919999985695
210
0.0
220
0.0
230
1.0
72
0
100
AcDbText
73
0
0
POINT
5
84
330
1A
100
AcDbEntity
67
0
8
Hole
62
244
420
659967
6
ByLayer
370
-1
48
1.0
60
0
100
AcDbPoint
10
748800.070000916
20
8930588.4399939
30
210.659999995232
39
0.0
210
0.0
220
0.0
230
1.0
50
360.0
0
LINE
5
85
330
1A
100
AcDbEntity
67
0
8
Theoretical Hole
62
244
420
659967
6
ByLayer
370
-1
48
1.0
60
0
100
AcDbLine
10
748800.070000916
20
8930588.4399939
30
210.659999995232
11
748798.39536026
21
8930586.49579529
31
200.00461605072
39
0.0
210
0.0
220
0.0
230
1.0
0
TEXT
5
86
330
1A
100
AcDbEntity
67
0
8
Number
62
244
420
659967
6
ByLayer
370
-1
48
1.0
60
0
100
AcDbText
1
20
10
748800.070000916
20
8930588.82099391
30
210.659999995232
40
0.3
41
1.0
50
0.0
51
0.0
7
Standard
11
748800.070000916
21
8930588.82099391
31
210.659999995232
210
0.0
220
0.0
230
1.0
72
0
100
AcDbText
73
0
0
TEXT
5
87
330
1A
100
AcDbEntity
67
0
8
label
62
1
420
16711680
6
ByLayer
370
-1
48
1.0
60
0
100
AcDbText
1

10
748800.070000916
20
8930589.22099391
30
210.659999995232
40
0.3
41
1.0
50
0.0
51
0.0
7
Standard
11
748800.070000916
21
8930589.22099391
31
210.659999995232
210
0.0
220
0.0
230
1.0
72
0
100
AcDbText
73
0
0
TEXT
5
88
330
1A
100
AcDbEntity
67
0
8
Length
62
244
420
659967
6
ByLayer
370
-1
48
1.0
60
0
100
AcDbText
1
10.96
10
748800.070000916
20
8930587.68599389
30
210.659999995232
40
0.3
41
1.0
50
0.0
51
0.0
7
Standard
11
748800.070000916
21
8930587.68599389
31
210.659999995232
210
0.0
220
0.0
230
1.0
72
0
100
AcDbText
73
0
0
POINT
5
89
330
1A
100
AcDbEntity
67
0
8
Hole
62
244
420
659967
6
ByLayer
370
-1
48
1.0
60
0
100
AcDbPoint
10
748801.210000305
20
8930587.46999267
30
210.55999997139
39
0.0
210
0.0
220
0.0
230
1.0
50
360.0
0
LINE
5
8A
330
1A
100
AcDbEntity
67
0
8
Theoretical Hole
62
244
420
659967
6
ByLayer
370
-1
48
1.0
60
0
100
AcDbLine
10
748801.210000305
20
8930587.46999267
30
210.55999997139
11
748799.530198364
21
8930585.51979736
31
200.009425430298
39
0.0
210
0.0
220
0.0
230
1.0
0
TEXT
5
8B
330
1A
100
AcDbEntity
67
0
8
Number
62
244
420
659967
6
ByLayer
370
-1
48
1.0
60
0
100
AcDbText
1
21
10
748801.210000305
20
8930587.85099269
30
210.55999997139
40
0.3
41
1.0
50
0.0
51
0.0
7
Standard
11
748801.210000305
21
8930587.85099269
31
210.55999997139
210
0.0
220
0.0
230
1.0
72
0
100
AcDbText
73
0
0
TEXT
5
8C
330
1A
100
AcDbEntity
67
0
8
label
62
1
420
16711680
6
ByLayer
370
-1
48
1.0
60
0
100
AcDbText
1

10
748801.210000305
20
8930588.25099269
30
210.55999997139
40
0.3
41
1.0
50
0.0
51
0.0
7
Standard
11
748801.210000305
21
8930588.25099269
31
210.55999997139
210
0.0
220
0.0
230
1.0
72
0
100
AcDbText
73
0
0
TEXT
5
8D
330
1A
100
AcDbEntity
67
0
8
Length
62
244
420
659967
6
ByLayer
370
-1
48
1.0
60
0
100
AcDbText
1
10.86
10
748801.210000305
20
8930586.71599267
30
210.55999997139
40
0.3
41
1.0
50
0.0
51
0.0
7
Standard
11
748801.210000305
21
8930586.71599267
31
210.55999997139
210
0.0
220
0.0
230
1.0
72
0
100
AcDbText
73
0
0
POINT
5
8E
330
1A
100
AcDbEntity
67
0
8
Hole
62
244
420
659967
6
ByLayer
370
-1
48
1.0
60
0
100
AcDbPoint
10
748802.340001373
20
8930586.48999695
30
210.330000011921
39
0.0
210
0.0
220
0.0
230
1.0
50
360.0
0
LINE
5
8F
330
1A
100
AcDbEntity
67
0
8
Theoretical Hole
62
244
420
659967
6
ByLayer
370
-1
48
1.0
60
0
100
AcDbLine
10
748802.340001373
20
8930586.48999695
30
210.330000011921
11
748800.667161255
21
8930584.54788879
31
200.003362922668
39
0.0
210
0.0
220
0.0
230
1.0
0
TEXT
5
90
330
1A
100
AcDbEntity
67
0
8
Number
62
244
420
659967
6
ByLayer
370
-1
48
1.0
60
0
100
AcDbText
1
22
10
748802.340001373
20
8930586.87099696
30
210.330000011921
40
0.3
41
1.0
50
0.0
51
0.0
7
Standard
11
748802.340001373
21
8930586.87099696
31
210.330000011921
210
0.0
220
0.0
230
1.0
72
0
100
AcDbText
73
0
0
TEXT
5
91
330
1A
100
AcDbEntity
67
0
8
label
62
1
420
16711680
6
ByLayer
370
-1
48
1.0
60
0
100
AcDbText
1

10
748802.340001373
20
8930587.27099696
30
210.330000011921
40
0.3
41
1.0
50
0.0
51
0.0
7
Standard
11
748802.340001373
21
8930587.27099696
31
210.330000011921
210
0.0
220
0.0
230
1.0
72
0
100
AcDbText
73
0
0
TEXT
5
92
330
1A
100
AcDbEntity
67
0
8
Length
62
244
420
659967
6
ByLayer
370
-1
48
1.0
60
0
100
AcDbText
1
10.64
10
748802.340001373
20
8930585.73599694
30
210.330000011921
40
0.3
41
1.0
50
0.0
51
0.0
7
Standard
11
748802.340001373
21
8930585.73599694
31
210.330000011921
210
0.0
220
0.0
230
1.0
72
0
100
AcDbText
73
0
0
POINT
5
93
330
1A
100
AcDbEntity
67
0
8
Hole
62
244
420
659967
6
ByLayer
370
-1
48
1.0
60
0
100
AcDbPoint
10
748803.480000763
20
8930585.51000122
30
210.169999985695
39
0.0
210
0.0
220
0.0
230
1.0
50
360.0
0
LINE
5
94
330
1A
100
AcDbEntity
67
0
8
Theoretical Hole
62
244
420
659967
6
ByLayer
370
-1
48
1.0
60
0
100
AcDbLine
10
748803.480000763
20
8930585.51000122
30
210.169999985695
11
748801.808720856
21
8930583.5696936
31
199.997381477356
39
0.0
210
0.0
220
0.0
230
1.0
0
TEXT
5
95
330
1A
100
AcDbEntity
67
0
8
Number
62
244
420
659967
6
ByLayer
370
-1
48
1.0
60
0
100
AcDbText
1
23
10
748803.480000763
20
8930585.89100123
30
210.169999985695
40
0.3
41
1.0
50
0.0
51
0.0
7
Standard
11
748803.480000763
21
8930585.89100123
31
210.169999985695
210
0.0
220
0.0
230
1.0
72
0
100
AcDbText
73
0
0
TEXT
5
96
330
1A
100
AcDbEntity
67
0
8
label
62
1
420
16711680
6
ByLayer
370
-1
48
1.0
60
0
100
AcDbText
1

10
748803.480000763
20
8930586.29100123
30
210.169999985695
40
0.3
41
1.0
50
0.0
51
0.0
7
Standard
11
748803.480000763
21
8930586.29100123
31
210.169999985695
210
0.0
220
0.0
230
1.0
72
0
100
AcDbText
73
0
0
TEXT
5
97
330
1A
100
AcDbEntity
67
0
8
Length
62
244
420
659967
6
ByLayer
370
-1
48
1.0
60
0
100
AcDbText
1
10.49
10
748803.480000763
20
8930584.75600121
30
210.169999985695
40
0.3
41
1.0
50
0.0
51
0.0
7
Standard
11
748803.480000763
21
8930584.75600121
31
210.169999985695
210
0.0
220
0.0
230
1.0
72
0
100
AcDbText
73
0
0
POINT
5
98
330
1A
100
AcDbEntity
67
0
8
Hole
62
244
420
659967
6
ByLayer
370
-1
48
1.0
60
0
100
AcDbPoint
10
748804.610001831
20
8930584.53000549
30
210.109999983311
39
0.0
210
0.0
220
0.0
230
1.0
50
360.0
0
LINE
5
99
330
1A
100
AcDbEntity
67
0
8
Theoretical Hole
62
244
420
659967
6
ByLayer
370
-1
48
1.0
60
0
100
AcDbLine
10
748804.610001831
20
8930584.53000549
30
210.109999983311
11
748802.940667419
21
8930582.59196381
31
200.008826522827
39
0.0
210
0.0
220
0.0
230
1.0
0
TEXT
5
9A
330
1A
100
AcDbEntity
67
0
8
Number
62
244
420
659967
6
ByLayer
370
-1
48
1.0
60
0
100
AcDbText
1
24
10
748804.610001831
20
8930584.9110055
30
210.109999983311
40
0.3
41
1.0
50
0.0
51
0.0
7
Standard
11
748804.610001831
21
8930584.9110055
31
210.109999983311
210
0.0
220
0.0
230
1.0
72
0
100
AcDbText
73
0
0
TEXT
5
9B
330
1A
100
AcDbEntity
67
0
8
label
62
1
420
16711680
6
ByLayer
370
-1
48
1.0
60
0
100
AcDbText
1

10
748804.610001831
20
8930585.3110055
30
210.109999983311
40
0.3
41
1.0
50
0.0
51
0.0
7
Standard
11
748804.610001831
21
8930585.3110055
31
210.109999983311
210
0.0
220
0.0
230
1.0
72
0
100
AcDbText
73
0
0
TEXT
5
9C
330
1A
100
AcDbEntity
67
0
8
Length
62
244
420
659967
6
ByLayer
370
-1
48
1.0
60
0
100
AcDbText
1
10.42
10
748804.610001831
20
8930583.77600548
30
210.109999983311
40
0.3
41
1.0
50
0.0
51
0.0
7
Standard
11
748804.610001831
21
8930583.77600548
31
210.109999983311
210
0.0
220
0.0
230
1.0
72
0
100
AcDbText
73
0
0
POINT
5
9D
330
1A
100
AcDbEntity
67
0
8
Hole
62
244
420
659967
6
ByLayer
370
-1
48
1.0
60
0
100
AcDbPoint
10
748805.750001221
20
8930583.54999451
30
210.009999989271
39
0.0
210
0.0
220
0.0
230
1.0
50
360.0
0
LINE
5
9E
330
1A
100
AcDbEntity
67
0
8
Theoretical Hole
62
244
420
659967
6
ByLayer
370
-1
48
1.0
60
0
100
AcDbLine
10
748805.750001221
20
8930583.54999451
30
210.009999989271
11
748804.082539825
21
8930581.6141272
31
200.000957756042
39
0.0
210
0.0
220
0.0
230
1.0
0
TEXT
5
9F
330
1A
100
AcDbEntity
67
0
8
Number
62
244
420
659967
6
ByLayer
370
-1
48
1.0
60
0
100
AcDbText
1
25
10
748805.750001221
20
8930583.93099452
30
210.009999989271
40
0.3
41
1.0
50
0.0
51
0.0
7
Standard
11
748805.750001221
21
8930583.93099452
31
210.009999989271
210
0.0
220
0.0
230
1.0
72
0
100
AcDbText
73
0
0
TEXT
5
A0
330
1A
100
AcDbEntity
67
0
8
label
62
1
420
16711680
6
ByLayer
370
-1
48
1.0
60
0
100
AcDbText
1

10
748805.750001221
20
8930584.33099452
30
210.009999989271
40
0.3
41
1.0
50
0.0
51
0.0
7
Standard
11
748805.750001221
21
8930584.33099452
31
210.009999989271
210
0.0
220
0.0
230
1.0
72
0
100
AcDbText
73
0
0
TEXT
5
A1
330
1A
100
AcDbEntity
67
0
8
Length
62
244
420
659967
6
ByLayer
370
-1
48
1.0
60
0
100
AcDbText
1
10.33
10
748805.750001221
20
8930582.7959945
30
210.009999989271
40
0.3
41
1.0
50
0.0
51
0.0
7
Standard
11
748805.750001221
21
8930582.7959945
31
210.009999989271
210
0.0
220
0.0
230
1.0
72
0
100
AcDbText
73
0
0
POINT
5
A2
330
1A
100
AcDbEntity
67
0
8
Hole
62
244
420
659967
6
ByLayer
370
-1
48
1.0
60
0
100
AcDbPoint
10
748806.870000153
20
8930582.55999664
30
209.949999986887
39
0.0
210
0.0
220
0.0
230
1.0
50
360.0
0
LINE
5
A3
330
1A
100
AcDbEntity
67
0
8
Theoretical Hole
62
244
420
659967
6
ByLayer
370
-1
48
1.0
60
0
100
AcDbLine
10
748806.870000153
20
8930582.55999664
30
209.949999986887
11
748805.211091309
21
8930580.6340628
31
199.999537734985
39
0.0
210
0.0
220
0.0
230
1.0
0
TEXT
5
A4
330
1A
100
AcDbEntity
67
0
8
Number
62
244
420
659967
6
ByLayer
370
-1
48
1.0
60
0
100
AcDbText
1
26
10
748806.870000153
20
8930582.94099665
30
209.949999986887
40
0.3
41
1.0
50
0.0
51
0.0
7
Standard
11
748806.870000153
21
8930582.94099665
31
209.949999986887
210
0.0
220
0.0
230
1.0
72
0
100
AcDbText
73
0
0
TEXT
5
A5
330
1A
100
AcDbEntity
67
0
8
label
62
1
420
16711680
6
ByLayer
370
-1
48
1.0
60
0
100
AcDbText
1

10
748806.870000153
20
8930583.34099665
30
209.949999986887
40
0.3
41
1.0
50
0.0
51
0.0
7
Standard
11
748806.870000153
21
8930583.34099665
31
209.949999986887
210
0.0
220
0.0
230
1.0
72
0
100
AcDbText
73
0
0
TEXT
5
A6
330
1A
100
AcDbEntity
67
0
8
Length
62
244
420
659967
6
ByLayer
370
-1
48
1.0
60
0
100
AcDbText
1
10.27
10
748806.870000153
20
8930581.80599663
30
209.949999986887
40
0.3
41
1.0
50
0.0
51
0.0
7
Standard
11
748806.870000153
21
8930581.80599663
31
209.949999986887
210
0.0
220
0.0
230
1.0
72
0
100
AcDbText
73
0
0
POINT
5
A7
330
1A
100
AcDbEntity
67
0
8
Hole
62
244
420
659967
6
ByLayer
370
-1
48
1.0
60
0
100
AcDbPoint
10
748808.020001678
20
8930581.59000305
30
209.919999985695
39
0.0
210
0.0
220
0.0
230
1.0
50
360.0
0
LINE
5
A8
330
1A
100
AcDbEntity
67
0
8
Theoretical Hole
62
244
420
659967
6
ByLayer
370
-1
48
1.0
60
0
100
AcDbLine
10
748808.020001678
20
8930581.59000305
30
209.919999985695
11
748806.346230774
21
8930579.64681152
31
199.996038703918
39
0.0
210
0.0
220
0.0
230
1.0
0
TEXT
5
A9
330
1A
100
AcDbEntity
67
0
8
Number
62
244
420
659967
6
ByLayer
370
-1
48
1.0
60
0
100
AcDbText
1
27
10
748808.020001678
20
8930581.97100306
30
209.919999985695
40
0.3
41
1.0
50
0.0
51
0.0
7
Standard
11
748808.020001678
21
8930581.97100306
31
209.919999985695
210
0.0
220
0.0
230
1.0
72
0
100
AcDbText
73
0
0
TEXT
5
AA
330
1A
100
AcDbEntity
67
0
8
label
62
1
420
16711680
6
ByLayer
370
-1
48
1.0
60
0
100
AcDbText
1

10
748808.020001678
20
8930582.37100306
30
209.919999985695
40
0.3
41
1.0
50
0.0
51
0.0
7
Standard
11
748808.020001678
21
8930582.37100306
31
209.919999985695
210
0.0
220
0.0
230
1.0
72
0
100
AcDbText
73
0
0
TEXT
5
AB
330
1A
100
AcDbEntity
67
0
8
Length
62
244
420
659967
6
ByLayer
370
-1
48
1.0
60
0
100
AcDbText
1
10.25
10
748808.020001678
20
8930580.83600304
30
209.919999985695
40
0.3
41
1.0
50
0.0
51
0.0
7
Standard
11
748808.020001678
21
8930580.83600304
31
209.919999985695
210
0.0
220
0.0
230
1.0
72
0
100
AcDbText
73
0
0
POINT
5
AC
330
1A
100
AcDbEntity
67
0
8
Hole
62
244
420
659967
6
ByLayer
370
-1
48
1.0
60
0
100
AcDbPoint
10
748809.160001068
20
8930580.60999969
30
209.870000003576
39
0.0
210
0.0
220
0.0
230
1.0
50
360.0
0
LINE
5
AD
330
1A
100
AcDbEntity
67
0
8
Theoretical Hole
62
244
420
659967
6
ByLayer
370
-1
48
1.0
60
0
100
AcDbLine
10
748809.160001068
20
8930580.60999969
30
209.870000003576
11
748807.483147888
21
8930578.66322998
31
199.998918800354
39
0.0
210
0.0
220
0.0
230
1.0
0
TEXT
5
AE
330
1A
100
AcDbEntity
67
0
8
Number
62
244
420
659967
6
ByLayer
370
-1
48
1.0
60
0
100
AcDbText
1
28
10
748809.160001068
20
8930580.99099971
30
209.870000003576
40
0.3
41
1.0
50
0.0
51
0.0
7
Standard
11
748809.160001068
21
8930580.99099971
31
209.870000003576
210
0.0
220
0.0
230
1.0
72
0
100
AcDbText
73
0
0
TEXT
5
AF
330
1A
100
AcDbEntity
67
0
8
label
62
1
420
16711680
6
ByLayer
370
-1
48
1.0
60
0
100
AcDbText
1

10
748809.160001068
20
8930581.39099971
30
209.870000003576
40
0.3
41
1.0
50
0.0
51
0.0
7
Standard
11
748809.160001068
21
8930581.39099971
31
209.870000003576
210
0.0
220
0.0
230
1.0
72
0
100
AcDbText
73
0
0
TEXT
5
B0
330
1A
100
AcDbEntity
67
0
8
Length
62
244
420
659967
6
ByLayer
370
-1
48
1.0
60
0
100
AcDbText
1
10.20
10
748809.160001068
20
8930579.85599969
30
209.870000003576
40
0.3
41
1.0
50
0.0
51
0.0
7
Standard
11
748809.160001068
21
8930579.85599969
31
209.870000003576
210
0.0
220
0.0
230
1.0
72
0
100
AcDbText
73
0
0
POINT
5
B1
330
1A
100
AcDbEntity
67
0
8
Hole
62
244
420
659967
6
ByLayer
370
-1
48
1.0
60
0
100
AcDbPoint
10
748810.300000458
20
8930579.63999847
30
209.949999986887
39
0.0
210
0.0
220
0.0
230
1.0
50
360.0
0
LINE
5
B2
330
1A
100
AcDbEntity
67
0
8
Theoretical Hole
62
244
420
659967
6
ByLayer
370
-1
48
1.0
60
0
100
AcDbLine
10
748810.300000458
20
8930579.63999847
30
209.949999986887
11
748808.617932587
21
8930577.68717102
31
199.998341827393
39
0.0
210
0.0
220
0.0
230
1.0
0
TEXT
5
B3
330
1A
100
AcDbEntity
67
0
8
Number
62
244
420
659967
6
ByLayer
370
-1
48
1.0
60
0
100
AcDbText
1
29
10
748810.300000458
20
8930580.02099849
30
209.949999986887
40
0.3
41
1.0
50
0.0
51
0.0
7
Standard
11
748810.300000458
21
8930580.02099849
31
209.949999986887
210
0.0
220
0.0
230
1.0
72
0
100
AcDbText
73
0
0
TEXT
5
B4
330
1A
100
AcDbEntity
67
0
8
label
62
1
420
16711680
6
ByLayer
370
-1
48
1.0
60
0
100
AcDbText
1

10
748810.300000458
20
8930580.42099849
30
209.949999986887
40
0.3
41
1.0
50
0.0
51
0.0
7
Standard
11
748810.300000458
21
8930580.42099849
31
209.949999986887
210
0.0
220
0.0
230
1.0
72
0
100
AcDbText
73
0
0
TEXT
5
B5
330
1A
100
AcDbEntity
67
0
8
Length
62
244
420
659967
6
ByLayer
370
-1
48
1.0
60
0
100
AcDbText
1
10.28
10
748810.300000458
20
8930578.88599847
30
209.949999986887
40
0.3
41
1.0
50
0.0
51
0.0
7
Standard
11
748810.300000458
21
8930578.88599847
31
209.949999986887
210
0.0
220
0.0
230
1.0
72
0
100
AcDbText
73
0
0
POINT
5
B6
330
1A
100
AcDbEntity
67
0
8
Hole
62
244
420
659967
6
ByLayer
370
-1
48
1.0
60
0
100
AcDbPoint
10
748811.440003662
20
8930578.66000275
30
210.080000011921
39
0.0
210
0.0
220
0.0
230
1.0
50
360.0
0
LINE
5
B7
330
1A
100
AcDbEntity
67
0
8
Theoretical Hole
62
244
420
659967
6
ByLayer
370
-1
48
1.0
60
0
100
AcDbLine
10
748811.440003662
20
8930578.66000275
30
210.080000011921
11
748809.754357605
21
8930576.7030249
31
200.005833892822
39
0.0
210
0.0
220
0.0
230
1.0
0
TEXT
5
B8
330
1A
100
AcDbEntity
67
0
8
Number
62
244
420
659967
6
ByLayer
370
-1
48
1.0
60
0
100
AcDbText
1
30
10
748811.440003662
20
8930579.04100276
30
210.080000011921
40
0.3
41
1.0
50
0.0
51
0.0
7
Standard
11
748811.440003662
21
8930579.04100276
31
210.080000011921
210
0.0
220
0.0
230
1.0
72
0
100
AcDbText
73
0
0
TEXT
5
B9
330
1A
100
AcDbEntity
67
0
8
label
62
1
420
16711680
6
ByLayer
370
-1
48
1.0
60
0
100
AcDbText
1

10
748811.440003662
20
8930579.44100276
30
210.080000011921
40
0.3
41
1.0
50
0.0
51
0.0
7
Standard
11
748811.440003662
21
8930579.44100276
31
210.080000011921
210
0.0
220
0.0
230
1.0
72
0
100
AcDbText
73
0
0
TEXT
5
BA
330
1A
100
AcDbEntity
67
0
8
Length
62
244
420
659967
6
ByLayer
370
-1
48
1.0
60
0
100
AcDbText
1
10.40
10
748811.440003662
20
8930577.90600274
30
210.080000011921
40
0.3
41
1.0
50
0.0
51
0.0
7
Standard
11
748811.440003662
21
8930577.90600274
31
210.080000011921
210
0.0
220
0.0
230
1.0
72
0
100
AcDbText
73
0
0
POINT
5
BB
330
1A
100
AcDbEntity
67
0
8
Hole
62
244
420
659967
6
ByLayer
370
-1
48
1.0
60
0
100
AcDbPoint
10
748812.580003052
20
8930577.69000153
30
209.999999998808
39
0.0
210
0.0
220
0.0
230
1.0
50
360.0
0
LINE
5
BC
330
1A
100
AcDbEntity
67
0
8
Theoretical Hole
62
244
420
659967
6
ByLayer
370
-1
48
1.0
60
0
100
AcDbLine
10
748812.580003052
20
8930577.69000153
30
209.999999998808
11
748810.89089325
21
8930575.72899536
31
199.999487190247
39
0.0
210
0.0
220
0.0
230
1.0
0
TEXT
5
BD
330
1A
100
AcDbEntity
67
0
8
Number
62
244
420
659967
6
ByLayer
370
-1
48
1.0
60
0
100
AcDbText
1
31
10
748812.580003052
20
8930578.07100154
30
209.999999998808
40
0.3
41
1.0
50
0.0
51
0.0
7
Standard
11
748812.580003052
21
8930578.07100154
31
209.999999998808
210
0.0
220
0.0
230
1.0
72
0
100
AcDbText
73
0
0
TEXT
5
BE
330
1A
100
AcDbEntity
67
0
8
label
62
1
420
16711680
6
ByLayer
370
-1
48
1.0
60
0
100
AcDbText
1

10
748812.580003052
20
8930578.47100154
30
209.999999998808
40
0.3
41
1.0
50
0.0
51
0.0
7
Standard
11
748812.580003052
21
8930578.47100154
31
209.999999998808
210
0.0
220
0.0
230
1.0
72
0
100
AcDbText
73
0
0
TEXT
5
BF
330
1A
100
AcDbEntity
67
0
8
Length
62
244
420
659967
6
ByLayer
370
-1
48
1.0
60
0
100
AcDbText
1
10.33
10
748812.580003052
20
8930576.93600152
30
209.999999998808
40
0.3
41
1.0
50
0.0
51
0.0
7
Standard
11
748812.580003052
21
8930576.93600152
31
209.999999998808
210
0.0
220
0.0
230
1.0
72
0
100
AcDbText
73
0
0
POINT
5
C0
330
1A
100
AcDbEntity
67
0
8
Hole
62
244
420
659967
6
ByLayer
370
-1
48
1.0
60
0
100
AcDbPoint
10
748813.769997864
20
8930576.77000336
30
210.409999995232
39
0.0
210
0.0
220
0.0
230
1.0
50
360.0
0
LINE
5
C1
330
1A
100
AcDbEntity
67
0
8
Theoretical Hole
62
244
420
659967
6
ByLayer
370
-1
48
1.0
60
0
100
AcDbLine
10
748813.769997864
20
8930576.77000336
30
210.409999995232
11
748812.026871948
21
8930574.74629883
31
200.007416038513
39
0.0
210
0.0
220
0.0
230
1.0
0
TEXT
5
C2
330
1A
100
AcDbEntity
67
0
8
Number
62
244
420
659967
6
ByLayer
370
-1
48
1.0
60
0
100
AcDbText
1
32
10
748813.769997864
20
8930577.15100337
30
210.409999995232
40
0.3
41
1.0
50
0.0
51
0.0
7
Standard
11
748813.769997864
21
8930577.15100337
31
210.409999995232
210
0.0
220
0.0
230
1.0
72
0
100
AcDbText
73
0
0
TEXT
5
C3
330
1A
100
AcDbEntity
67
0
8
label
62
1
420
16711680
6
ByLayer
370
-1
48
1.0
60
0
100
AcDbText
1

10
748813.769997864
20
8930577.55100337
30
210.409999995232
40
0.3
41
1.0
50
0.0
51
0.0
7
Standard
11
748813.769997864
21
8930577.55100337
31
210.409999995232
210
0.0
220
0.0
230
1.0
72
0
100
AcDbText
73
0
0
TEXT
5
C4
330
1A
100
AcDbEntity
67
0
8
Length
62
244
420
659967
6
ByLayer
370
-1
48
1.0
60
0
100
AcDbText
1
10.74
10
748813.769997864
20
8930576.01600335
30
210.409999995232
40
0.3
41
1.0
50
0.0
51
0.0
7
Standard
11
748813.769997864
21
8930576.01600335
31
210.409999995232
210
0.0
220
0.0
230
1.0
72
0
100
AcDbText
73
0
0
POINT
5
C5
330
1A
100
AcDbEntity
67
0
8
Hole
62
244
420
659967
6
ByLayer
370
-1
48
1.0
60
0
100
AcDbPoint
10
748814.900002747
20
8930575.77999786
30
210.419999985695
39
0.0
210
0.0
220
0.0
230
1.0
50
360.0
0
LINE
5
C6
330
1A
100
AcDbEntity
67
0
8
Theoretical Hole
62
244
420
659967
6
ByLayer
370
-1
48
1.0
60
0
100
AcDbLine
10
748814.900002747
20
8930575.77999786
30
210.419999985695
11
748813.158379822
21
8930573.75803284
31
199.996178894043
39
0.0
210
0.0
220
0.0
230
1.0
0
TEXT
5
C7
330
1A
100
AcDbEntity
67
0
8
Number
62
244
420
659967
6
ByLayer
370
-1
48
1.0
60
0
100
AcDbText
1
33
10
748814.900002747
20
8930576.16099788
30
210.419999985695
40
0.3
41
1.0
50
0.0
51
0.0
7
Standard
11
748814.900002747
21
8930576.16099788
31
210.419999985695
210
0.0
220
0.0
230
1.0
72
0
100
AcDbText
73
0
0
TEXT
5
C8
330
1A
100
AcDbEntity
67
0
8
label
62
1
420
16711680
6
ByLayer
370
-1
48
1.0
60
0
100
AcDbText
1

10
748814.900002747
20
8930576.56099788
30
210.419999985695
40
0.3
41
1.0
50
0.0
51
0.0
7
Standard
11
748814.900002747
21
8930576.56099788
31
210.419999985695
210
0.0
220
0.0
230
1.0
72
0
100
AcDbText
73
0
0
TEXT
5
C9
330
1A
100
AcDbEntity
67
0
8
Length
62
244
420
659967
6
ByLayer
370
-1
48
1.0
60
0
100
AcDbText
1
10.76
10
748814.900002747
20
8930575.02599785
30
210.419999985695
40
0.3
41
1.0
50
0.0
51
0.0
7
Standard
11
748814.900002747
21
8930575.02599785
31
210.419999985695
210
0.0
220
0.0
230
1.0
72
0
100
AcDbText
73
0
0
POINT
5
CA
330
1A
100
AcDbEntity
67
0
8
Hole
62
244
420
659967
6
ByLayer
370
-1
48
1.0
60
0
100
AcDbPoint
10
748815.979996948
20
8930574.73999695
30
210.210000007153
39
0.0
210
0.0
220
0.0
230
1.0
50
360.0
0
LINE
5
CB
330
1A
100
AcDbEntity
67
0
8
Theoretical Hole
62
244
420
659967
6
ByLayer
370
-1
48
1.0
60
0
100
AcDbLine
10
748815.979996948
20
8930574.73999695
30
210.210000007153
11
748814.293038635
21
8930572.78149322
31
200.002191810608
39
0.0
210
0.0
220
0.0
230
1.0
0
TEXT
5
CC
330
1A
100
AcDbEntity
67
0
8
Number
62
244
420
659967
6
ByLayer
370
-1
48
1.0
60
0
100
AcDbText
1
34
10
748815.979996948
20
8930575.12099696
30
210.210000007153
40
0.3
41
1.0
50
0.0
51
0.0
7
Standard
11
748815.979996948
21
8930575.12099696
31
210.210000007153
210
0.0
220
0.0
230
1.0
72
0
100
AcDbText
73
0
0
TEXT
5
CD
330
1A
100
AcDbEntity
67
0
8
label
62
1
420
16711680
6
ByLayer
370
-1
48
1.0
60
0
100
AcDbText
1

10
748815.979996948
20
8930575.52099696
30
210.210000007153
40
0.3
41
1.0
50
0.0
51
0.0
7
Standard
11
748815.979996948
21
8930575.52099696
31
210.210000007153
210
0.0
220
0.0
230
1.0
72
0
100
AcDbText
73
0
0
TEXT
5
CE
330
1A
100
AcDbEntity
67
0
8
Length
62
244
420
659967
6
ByLayer
370
-1
48
1.0
60
0
100
AcDbText
1
10.53
10
748815.979996948
20
8930573.98599694
30
210.210000007153
40
0.3
41
1.0
50
0.0
51
0.0
7
Standard
11
748815.979996948
21
8930573.98599694
31
210.210000007153
210
0.0
220
0.0
230
1.0
72
0
100
AcDbText
73
0
0
POINT
5
CF
330
1A
100
AcDbEntity
67
0
8
Hole
62
244
420
659967
6
ByLayer
370
-1
48
1.0
60
0
100
AcDbPoint
10
748817.119996338
20
8930573.77000336
30
210.450000016689
39
0.0
210
0.0
220
0.0
230
1.0
50
360.0
0
LINE
5
D0
330
1A
100
AcDbEntity
67
0
8
Theoretical Hole
62
244
420
659967
6
ByLayer
370
-1
48
1.0
60
0
100
AcDbLine
10
748817.119996338
20
8930573.77000336
30
210.450000016689
11
748815.39856842
21
8930571.82633118
31
199.997644691467
39
0.0
210
0.0
220
0.0
230
1.0
0
TEXT
5
D1
330
1A
100
AcDbEntity
67
0
8
Number
62
244
420
659967
6
ByLayer
370
-1
48
1.0
60
0
100
AcDbText
1
35
10
748817.119996338
20
8930574.15100337
30
210.450000016689
40
0.3
41
1.0
50
0.0
51
0.0
7
Standard
11
748817.119996338
21
8930574.15100337
31
210.450000016689
210
0.0
220
0.0
230
1.0
72
0
100
AcDbText
73
0
0
TEXT
5
D2
330
1A
100
AcDbEntity
67
0
8
label
62
1
420
16711680
6
ByLayer
370
-1
48
1.0
60
0
100
AcDbText
1

10
748817.119996338
20
8930574.55100337
30
210.450000016689
40
0.3
41
1.0
50
0.0
51
0.0
7
Standard
11
748817.119996338
21
8930574.55100337
31
210.450000016689
210
0.0
220
0.0
230
1.0
72
0
100
AcDbText
73
0
0
TEXT
5
D3
330
1A
100
AcDbEntity
67
0
8
Length
62
244
420
659967
6
ByLayer
370
-1
48
1.0
60
0
100
AcDbText
1
10.77
10
748817.119996338
20
8930573.01600335
30
210.450000016689
40
0.3
41
1.0
50
0.0
51
0.0
7
Standard
11
748817.119996338
21
8930573.01600335
31
210.450000016689
210
0.0
220
0.0
230
1.0
72
0
100
AcDbText
73
0
0
POINT
5
D4
330
1A
100
AcDbEntity
67
0
8
Hole
62
244
420
659967
6
ByLayer
370
-1
48
1.0
60
0
100
AcDbPoint
10
748818.250001221
20
8930572.77999786
30
210.620000033379
39
0.0
210
0.0
220
0.0
230
1.0
50
360.0
0
LINE
5
D5
330
1A
100
AcDbEntity
67
0
8
Theoretical Hole
62
244
420
659967
6
ByLayer
370
-1
48
1.0
60
0
100
AcDbLine
10
748818.250001221
20
8930572.77999786
30
210.620000033379
11
748816.390137939
21
8930570.9291983
31
200.009609489441
39
0.0
210
0.0
220
0.0
230
1.0
0
TEXT
5
D6
330
1A
100
AcDbEntity
67
0
8
Number
62
244
420
659967
6
ByLayer
370
-1
48
1.0
60
0
100
AcDbText
1
36
10
748818.250001221
20
8930573.16099788
30
210.620000033379
40
0.3
41
1.0
50
0.0
51
0.0
7
Standard
11
748818.250001221
21
8930573.16099788
31
210.620000033379
210
0.0
220
0.0
230
1.0
72
0
100
AcDbText
73
0
0
TEXT
5
D7
330
1A
100
AcDbEntity
67
0
8
label
62
1
420
16711680
6
ByLayer
370
-1
48
1.0
60
0
100
AcDbText
1

10
748818.250001221
20
8930573.56099788
30
210.620000033379
40
0.3
41
1.0
50
0.0
51
0.0
7
Standard
11
748818.250001221
21
8930573.56099788
31
210.620000033379
210
0.0
220
0.0
230
1.0
72
0
100
AcDbText
73
0
0
TEXT
5
D8
330
1A
100
AcDbEntity
67
0
8
Length
62
244
420
659967
6
ByLayer
370
-1
48
1.0
60
0
100
AcDbText
1
10.93
10
748818.250001221
20
8930572.02599785
30
210.620000033379
40
0.3
41
1.0
50
0.0
51
0.0
7
Standard
11
748818.250001221
21
8930572.02599785
31
210.620000033379
210
0.0
220
0.0
230
1.0
72
0
100
AcDbText
73
0
0
POINT
5
D9
330
1A
100
AcDbEntity
67
0
8
Hole
62
244
420
659967
6
ByLayer
370
-1
48
1.0
60
0
100
AcDbPoint
10
748819.299996643
20
8930571.70999817
30
210.640000014305
39
0.0
210
0.0
220
0.0
230
1.0
50
360.0
0
LINE
5
DA
330
1A
100
AcDbEntity
67
0
8
Theoretical Hole
62
244
420
659967
6
ByLayer
370
-1
48
1.0
60
0
100
AcDbLine
10
748819.299996643
20
8930571.70999817
30
210.640000014305
11
748817.336243897
21
8930569.98662476
31
200.026868133545
39
0.0
210
0.0
220
0.0
230
1.0
0
TEXT
5
DB
330
1A
100
AcDbEntity
67
0
8
Number
62
244
420
659967
6
ByLayer
370
-1
48
1.0
60
0
100
AcDbText
1
37
10
748819.299996643
20
8930572.09099818
30
210.640000014305
40
0.3
41
1.0
50
0.0
51
0.0
7
Standard
11
748819.299996643
21
8930572.09099818
31
210.640000014305
210
0.0
220
0.0
230
1.0
72
0
100
AcDbText
73
0
0
TEXT
5
DC
330
1A
100
AcDbEntity
67
0
8
label
62
1
420
16711680
6
ByLayer
370
-1
48
1.0
60
0
100
AcDbText
1

10
748819.299996643
20
8930572.49099818
30
210.640000014305
40
0.3
41
1.0
50
0.0
51
0.0
7
Standard
11
748819.299996643
21
8930572.49099818
31
210.640000014305
210
0.0
220
0.0
230
1.0
72
0
100
AcDbText
73
0
0
TEXT
5
DD
330
1A
100
AcDbEntity
67
0
8
Length
62
244
420
659967
6
ByLayer
370
-1
48
1.0
60
0
100
AcDbText
1
10.93
10
748819.299996643
20
8930570.95599816
30
210.640000014305
40
0.3
41
1.0
50
0.0
51
0.0
7
Standard
11
748819.299996643
21
8930570.95599816
31
210.640000014305
210
0.0
220
0.0
230
1.0
72
0
100
AcDbText
73
0
0
POLYLINE
5
EB
330
1A
100
AcDbEntity
67
0
8
Real Hole
62
1
420
16711680
6
ByLayer
370
-1
48
1.0
60
0
100
AcDb3dPolyline
10
0.0
20
0.0
30
0.0
70
8
75
0
210
0.0
220
0.0
230
1.0
0
VERTEX
5
DE
100
AcDbEntity
8
Real Hole
62
1
420
16711680
100
AcDbVertex
100
AcDb3dPolylineVertex
10
748819.299996643
20
8930571.70999817
30
210.640000014305
70
32
0
VERTEX
5
DF
100
AcDbEntity
8
Real Hole
62
1
420
16711680
100
AcDbVertex
100
AcDb3dPolylineVertex
10
748819.208376727
20
8930571.44541571
30
209.679999022484
70
32
0
VERTEX
5
E0
100
AcDbEntity
8
Real Hole
62
1
420
16711680
100
AcDbVertex
100
AcDb3dPolylineVertex
10
748819.078712969
20
8930571.18132261
30
208.724257378578
70
32
0
VERTEX
5
E1
100
AcDbEntity
8
Real Hole
62
1
420
16711680
100
AcDbVertex
100
AcDb3dPolylineVertex
10
748818.949384301
20
8930570.89084563
30
207.776155381203
70
32
0
VERTEX
5
E2
100
AcDbEntity
8
Real Hole
62
1
420
16711680
100
AcDbVertex
100
AcDb3dPolylineVertex
10
748818.82131949
20
8930570.60361222
30
206.826894431114
70
32
0
VERTEX
5
E3
100
AcDbEntity
8
Real Hole
62
1
420
16711680
100
AcDbVertex
100
AcDb3dPolylineVertex
10
748818.71794018
20
8930570.32034925
30
205.873440413475
70
32
0
VERTEX
5
E4
100
AcDbEntity
8
Real Hole
62
1
420
16711680
100
AcDbVertex
100
AcDb3dPolylineVertex
10
748818.59511277
20
8930570.04550795
30
204.919828562737
70
32
0
VERTEX
5
E5
100
AcDbEntity
8
Real Hole
62
1
420
16711680
100
AcDbVertex
100
AcDb3dPolylineVertex
10
748818.482425361
20
8930569.78334693
30
203.961406378746
70
32
0
VERTEX
5
E6
100
AcDbEntity
8
Real Hole
62
1
420
16711680
100
AcDbVertex
100
AcDb3dPolylineVertex
10
748818.385529189
20
8930569.5240486
30
203.000481753349
70
32
0
VERTEX
5
E7
100
AcDbEntity
8
Real Hole
62
1
420
16711680
100
AcDbVertex
100
AcDb3dPolylineVertex
10
748818.273819356
20
8930569.29057864
30
202.034556059837
70
32
0
VERTEX
5
E8
100
AcDbEntity
8
Real Hole
62
1
420
16711680
100
AcDbVertex
100
AcDb3dPolylineVertex
10
748818.152326016
20
8930569.04148058
30
201.073728232384
70
32
0
VERTEX
5
E9
100
AcDbEntity
8
Real Hole
62
1
420
16711680
100
AcDbVertex
100
AcDb3dPolylineVertex
10
748818.140792756
20
8930569.01624278
30
200.977655081749
70
32
0
SEQEND
5
EA
100
AcDbEntity
8
Real Hole
0
POINT
5
ED
330
1A
100
AcDbEntity
67
0
8
Hole
62
244
420
659967
6
ByLayer
370
-1
48
1.0
60
0
100
AcDbPoint
10
748820.290002136
20
8930570.58000091
30
210.72000005722
39
0.0
210
0.0
220
0.0
230
1.0
50
360.0
0
LINE
5
EE
330
1A
100
AcDbEntity
67
0
8
Theoretical Hole
62
244
420
659967
6
ByLayer
370
-1
48
1.0
60
0
100
AcDbLine
10
748820.290002136
20
8930570.58000091
30
210.72000005722
11
748818.22418335
21
8930568.98047546
31
200.034781723022
39
0.0
210
0.0
220
0.0
230
1.0
0
TEXT
5
EF
330
1A
100
AcDbEntity
67
0
8
Number
62
244
420
659967
6
ByLayer
370
-1
48
1.0
60
0
100
AcDbText
1
38
10
748820.290002136
20
8930570.96100093
30
210.72000005722
40
0.3
41
1.0
50
0.0
51
0.0
7
Standard
11
748820.290002136
21
8930570.96100093
31
210.72000005722
210
0.0
220
0.0
230
1.0
72
0
100
AcDbText
73
0
0
TEXT
5
F0
330
1A
100
AcDbEntity
67
0
8
label
62
1
420
16711680
6
ByLayer
370
-1
48
1.0
60
0
100
AcDbText
1

10
748820.290002136
20
8930571.36100093
30
210.72000005722
40
0.3
41
1.0
50
0.0
51
0.0
7
Standard
11
748820.290002136
21
8930571.36100093
31
210.72000005722
210
0.0
220
0.0
230
1.0
72
0
100
AcDbText
73
0
0
TEXT
5
F1
330
1A
100
AcDbEntity
67
0
8
Length
62
244
420
659967
6
ByLayer
370
-1
48
1.0
60
0
100
AcDbText
1
11.00
10
748820.290002136
20
8930569.82600091
30
210.72000005722
40
0.3
41
1.0
50
0.0
51
0.0
7
Standard
11
748820.290002136
21
8930569.82600091
31
210.72000005722
210
0.0
220
0.0
230
1.0
72
0
100
AcDbText
73
0
0
POLYLINE
5
FF
330
1A
100
AcDbEntity
67
0
8
Real Hole
62
1
420
16711680
6
ByLayer
370
-1
48
1.0
60
0
100
AcDb3dPolyline
10
0.0
20
0.0
30
0.0
70
8
75
0
210
0.0
220
0.0
230
1.0
0
VERTEX
5
F2
100
AcDbEntity
8
Real Hole
62
1
420
16711680
100
AcDbVertex
100
AcDb3dPolylineVertex
10
748820.290002136
20
8930570.58000091
30
210.72000005722
70
32
0
VERTEX
5
F3
100
AcDbEntity
8
Real Hole
62
1
420
16711680
100
AcDbVertex
100
AcDb3dPolylineVertex
10
748820.162636935
20
8930570.36718913
30
209.75124350071
70
32
0
VERTEX
5
F4
100
AcDbEntity
8
Real Hole
62
1
420
16711680
100
AcDbVertex
100
AcDb3dPolylineVertex
10
748820.037680863
20
8930570.1511944
30
208.78287771225
70
32
0
VERTEX
5
F5
100
AcDbEntity
8
Real Hole
62
1
420
16711680
100
AcDbVertex
100
AcDb3dPolylineVertex
10
748819.929575353
20
8930569.87291393
30
207.828480987549
70
32
0
VERTEX
5
F6
100
AcDbEntity
8
Real Hole
62
1
420
16711680
100
AcDbVertex
100
AcDb3dPolylineVertex
10
748819.823699712
20
8930569.60522971
30
206.870809106827
70
32
0
VERTEX
5
F7
100
AcDbEntity
8
Real Hole
62
1
420
16711680
100
AcDbVertex
100
AcDb3dPolylineVertex
10
748819.707111328
20
8930569.37472395
30
205.904747753143
70
32
0
VERTEX
5
F8
100
AcDbEntity
8
Real Hole
62
1
420
16711680
100
AcDbVertex
100
AcDb3dPolylineVertex
10
748819.615649133
20
8930569.1403772
30
204.936906604767
70
32
0
VERTEX
5
F9
100
AcDbEntity
8
Real Hole
62
1
420
16711680
100
AcDbVertex
100
AcDb3dPolylineVertex
10
748819.514462738
20
8930568.89776997
30
203.972073822021
70
32
0
VERTEX
5
FA
100
AcDbEntity
8
Real Hole
62
1
420
16711680
100
AcDbVertex
100
AcDb3dPolylineVertex
10
748819.41931495
20
8930568.66380111
30
203.004496364594
70
32
0
VERTEX
5
FB
100
AcDbEntity
8
Real Hole
62
1
420
16711680
100
AcDbVertex
100
AcDb3dPolylineVertex
10
748819.324556081
20
8930568.43241028
30
202.036261348724
70
32
0
VERTEX
5
FC
100
AcDbEntity
8
Real Hole
62
1
420
16711680
100
AcDbVertex
100
AcDb3dPolylineVertex
10
748819.223485379
20
8930568.196708
30
201.069705753326
70
32
0
VERTEX
5
FD
100
AcDbEntity
8
Real Hole
62
1
420
16711680
100
AcDbVertex
100
AcDb3dPolylineVertex
10
748819.202252774
20
8930568.15262917
30
200.875782756805
70
32
0
SEQEND
5
FE
100
AcDbEntity
8
Real Hole
0
POINT
5
100
330
1A
100
AcDbEntity
67
0
8
Hole
62
244
420
659967
6
ByLayer
370
-1
48
1.0
60
0
100
AcDbPoint
10
748821.210000305
20
8930569.40000061
30
210.78
39
0.0
210
0.0
220
0.0
230
1.0
50
360.0
0
LINE
5
101
330
1A
100
AcDbEntity
67
0
8
Theoretical Hole
62
244
420
659967
6
ByLayer
370
-1
48
1.0
60
0
100
AcDbLine
10
748821.210000305
20
8930569.40000061
30
210.78
11
748819.06011322
21
8930567.8985434
31
200.014778404236
39
0.0
210
0.0
220
0.0
230
1.0
0
TEXT
5
102
330
1A
100
AcDbEntity
67
0
8
Number
62
244
420
659967
6
ByLayer
370
-1
48
1.0
60
0
100
AcDbText
1
39
10
748821.210000305
20
8930569.78100062
30
210.78
40
0.3
41
1.0
50
0.0
51
0.0
7
Standard
11
748821.210000305
21
8930569.78100062
31
210.78
210
0.0
220
0.0
230
1.0
72
0
100
AcDbText
73
0
0
TEXT
5
103
330
1A
100
AcDbEntity
67
0
8
label
62
1
420
16711680
6
ByLayer
370
-1
48
1.0
60
0
100
AcDbText
1

10
748821.210000305
20
8930570.18100062
30
210.78
40
0.3
41
1.0
50
0.0
51
0.0
7
Standard
11
748821.210000305
21
8930570.18100062
31
210.78
210
0.0
220
0.0
230
1.0
72
0
100
AcDbText
73
0
0
TEXT
5
104
330
1A
100
AcDbEntity
67
0
8
Length
62
244
420
659967
6
ByLayer
370
-1
48
1.0
60
0
100
AcDbText
1
11.08
10
748821.210000305
20
8930568.6460006
30
210.78
40
0.3
41
1.0
50
0.0
51
0.0
7
Standard
11
748821.210000305
21
8930568.6460006
31
210.78
210
0.0
220
0.0
230
1.0
72
0
100
AcDbText
73
0
0
POINT
5
105
330
1A
100
AcDbEntity
67
0
8
Hole
62
244
420
659967
6
ByLayer
370
-1
48
1.0
60
0
100
AcDbPoint
10
748822.080003052
20
8930568.17999939
30
210.669999985695
39
0.0
210
0.0
220
0.0
230
1.0
50
360.0
0
LINE
5
106
330
1A
100
AcDbEntity
67
0
8
Theoretical Hole
62
244
420
659967
6
ByLayer
370
-1
48
1.0
60
0
100
AcDbLine
10
748822.080003052
20
8930568.17999939
30
210.669999985695
11
748819.850465088
21
8930566.75907806
31
200.002747802734
39
0.0
210
0.0
220
0.0
230
1.0
0
TEXT
5
107
330
1A
100
AcDbEntity
67
0
8
Number
62
244
420
659967
6
ByLayer
370
-1
48
1.0
60
0
100
AcDbText
1
40
10
748822.080003052
20
8930568.5609994
30
210.669999985695
40
0.3
41
1.0
50
0.0
51
0.0
7
Standard
11
748822.080003052
21
8930568.5609994
31
210.669999985695
210
0.0
220
0.0
230
1.0
72
0
100
AcDbText
73
0
0
TEXT
5
108
330
1A
100
AcDbEntity
67
0
8
label
62
1
420
16711680
6
ByLayer
370
-1
48
1.0
60
0
100
AcDbText
1

10
748822.080003052
20
8930568.9609994
30
210.669999985695
40
0.3
41
1.0
50
0.0
51
0.0
7
Standard
11
748822.080003052
21
8930568.9609994
31
210.669999985695
210
0.0
220
0.0
230
1.0
72
0
100
AcDbText
73
0
0
TEXT
5
109
330
1A
100
AcDbEntity
67
0
8
Length
62
244
420
659967
6
ByLayer
370
-1
48
1.0
60
0
100
AcDbText
1
10.99
10
748822.080003052
20
8930567.42599938
30
210.669999985695
40
0.3
41
1.0
50
0.0
51
0.0
7
Standard
11
748822.080003052
21
8930567.42599938
31
210.669999985695
210
0.0
220
0.0
230
1.0
72
0
100
AcDbText
73
0
0
POLYLINE
5
117
330
1A
100
AcDbEntity
67
0
8
Real Hole
62
1
420
16711680
6
ByLayer
370
-1
48
1.0
60
0
100
AcDb3dPolyline
10
0.0
20
0.0
30
0.0
70
8
75
0
210
0.0
220
0.0
230
1.0
0
VERTEX
5
10A
100
AcDbEntity
8
Real Hole
62
1
420
16711680
100
AcDbVertex
100
AcDb3dPolylineVertex
10
748822.080003052
20
8930568.17999939
30
210.669999985695
70
32
0
VERTEX
5
10B
100
AcDbEntity
8
Real Hole
62
1
420
16711680
100
AcDbVertex
100
AcDb3dPolylineVertex
10
748821.922450392
20
8930567.97000635
30
209.705075054169
70
32
0
VERTEX
5
10C
100
AcDbEntity
8
Real Hole
62
1
420
16711680
100
AcDbVertex
100
AcDb3dPolylineVertex
10
748821.756227939
20
8930567.73375881
30
208.747705130577
70
32
0
VERTEX
5
10D
100
AcDbEntity
8
Real Hole
62
1
420
16711680
100
AcDbVertex
100
AcDb3dPolylineVertex
10
748821.573844044
20
8930567.4980369
30
207.793152241707
70
32
0
VERTEX
5
10E
100
AcDbEntity
8
Real Hole
62
1
420
16711680
100
AcDbVertex
100
AcDb3dPolylineVertex
10
748821.424848704
20
8930567.25801275
30
206.833887486458
70
32
0
VERTEX
5
10F
100
AcDbEntity
8
Real Hole
62
1
420
16711680
100
AcDbVertex
100
AcDb3dPolylineVertex
10
748821.262724786
20
8930567.04387967
30
205.870631127357
70
32
0
VERTEX
5
110
100
AcDbEntity
8
Real Hole
62
1
420
16711680
100
AcDbVertex
100
AcDb3dPolylineVertex
10
748821.086846797
20
8930566.81325714
30
204.913614659309
70
32
0
VERTEX
5
111
100
AcDbEntity
8
Real Hole
62
1
420
16711680
100
AcDbVertex
100
AcDb3dPolylineVertex
10
748820.935261397
20
8930566.57189039
30
203.955092816353
70
32
0
VERTEX
5
112
100
AcDbEntity
8
Real Hole
62
1
420
16711680
100
AcDbVertex
100
AcDb3dPolylineVertex
10
748820.759210019
20
8930566.34816901
30
202.996471791267
70
32
0
VERTEX
5
113
100
AcDbEntity
8
Real Hole
62
1
420
16711680
100
AcDbVertex
100
AcDb3dPolylineVertex
10
748820.579011588
20
8930566.12777428
30
202.037850289345
70
32
0
VERTEX
5
114
100
AcDbEntity
8
Real Hole
62
1
420
16711680
100
AcDbVertex
100
AcDb3dPolylineVertex
10
748820.388362079
20
8930565.8843675
30
201.086848168373
70
32
0
VERTEX
5
115
100
AcDbEntity
8
Real Hole
62
1
420
16711680
100
AcDbVertex
100
AcDb3dPolylineVertex
10
748820.335586696
20
8930565.8101602
30
200.801001458168
70
32
0
SEQEND
5
116
100
AcDbEntity
8
Real Hole
0
POINT
5
118
330
1A
100
AcDbEntity
67
0
8
Hole
62
244
420
659967
6
ByLayer
370
-1
48
1.0
60
0
100
AcDbPoint
10
748822.869996338
20
8930566.90000061
30
210.450000016689
39
0.0
210
0.0
220
0.0
230
1.0
50
360.0
0
LINE
5
119
330
1A
100
AcDbEntity
67
0
8
Theoretical Hole
62
244
420
659967
6
ByLayer
370
-1
48
1.0
60
0
100
AcDbLine
10
748822.869996338
20
8930566.90000061
30
210.450000016689
11
748820.65084198
21
8930565.54170135
31
199.999005584717
39
0.0
210
0.0
220
0.0
230
1.0
0
TEXT
5
11A
330
1A
100
AcDbEntity
67
0
8
Number
62
244
420
659967
6
ByLayer
370
-1
48
1.0
60
0
100
AcDbText
1
41
10
748822.869996338
20
8930567.28100062
30
210.450000016689
40
0.3
41
1.0
50
0.0
51
0.0
7
Standard
11
748822.869996338
21
8930567.28100062
31
210.450000016689
210
0.0
220
0.0
230
1.0
72
0
100
AcDbText
73
0
0
TEXT
5
11B
330
1A
100
AcDbEntity
67
0
8
label
62
1
420
16711680
6
ByLayer
370
-1
48
1.0
60
0
100
AcDbText
1

10
748822.869996338
20
8930567.68100062
30
210.450000016689
40
0.3
41
1.0
50
0.0
51
0.0
7
Standard
11
748822.869996338
21
8930567.68100062
31
210.450000016689
210
0.0
220
0.0
230
1.0
72
0
100
AcDbText
73
0
0
TEXT
5
11C
330
1A
100
AcDbEntity
67
0
8
Length
62
244
420
659967
6
ByLayer
370
-1
48
1.0
60
0
100
AcDbText
1
10.77
10
748822.869996338
20
8930566.1460006
30
210.450000016689
40
0.3
41
1.0
50
0.0
51
0.0
7
Standard
11
748822.869996338
21
8930566.1460006
31
210.450000016689
210
0.0
220
0.0
230
1.0
72
0
100
AcDbText
73
0
0
POINT
5
11D
330
1A
100
AcDbEntity
67
0
8
Hole
62
244
420
659967
6
ByLayer
370
-1
48
1.0
60
0
100
AcDbPoint
10
748823.659997253
20
8930565.62000183
30
210.569999961853
39
0.0
210
0.0
220
0.0
230
1.0
50
360.0
0
LINE
5
11E
330
1A
100
AcDbEntity
67
0
8
Theoretical Hole
62
244
420
659967
6
ByLayer
370
-1
48
1.0
60
0
100
AcDbLine
10
748823.659997253
20
8930565.62000183
30
210.569999961853
11
748821.485474854
21
8930564.22719482
31
200.000896720886
39
0.0
210
0.0
220
0.0
230
1.0
0
TEXT
5
11F
330
1A
100
AcDbEntity
67
0
8
Number
62
244
420
659967
6
ByLayer
370
-1
48
1.0
60
0
100
AcDbText
1
42
10
748823.659997253
20
8930566.00100184
30
210.569999961853
40
0.3
41
1.0
50
0.0
51
0.0
7
Standard
11
748823.659997253
21
8930566.00100184
31
210.569999961853
210
0.0
220
0.0
230
1.0
72
0
100
AcDbText
73
0
0
TEXT
5
120
330
1A
100
AcDbEntity
67
0
8
label
62
1
420
16711680
6
ByLayer
370
-1
48
1.0
60
0
100
AcDbText
1

10
748823.659997253
20
8930566.40100184
30
210.569999961853
40
0.3
41
1.0
50
0.0
51
0.0
7
Standard
11
748823.659997253
21
8930566.40100184
31
210.569999961853
210
0.0
220
0.0
230
1.0
72
0
100
AcDbText
73
0
0
TEXT
5
121
330
1A
100
AcDbEntity
67
0
8
Length
62
244
420
659967
6
ByLayer
370
-1
48
1.0
60
0
100
AcDbText
1
10.88
10
748823.659997253
20
8930564.86600182
30
210.569999961853
40
0.3
41
1.0
50
0.0
51
0.0
7
Standard
11
748823.659997253
21
8930564.86600182
31
210.569999961853
210
0.0
220
0.0
230
1.0
72
0
100
AcDbText
73
0
0
POINT
5
122
330
1A
100
AcDbEntity
67
0
8
Hole
62
244
420
659967
6
ByLayer
370
-1
48
1.0
60
0
100
AcDbPoint
10
748824.470002441
20
8930564.35999969
30
210.620000033379
39
0.0
210
0.0
220
0.0
230
1.0
50
360.0
0
LINE
5
123
330
1A
100
AcDbEntity
67
0
8
Theoretical Hole
62
244
420
659967
6
ByLayer
370
-1
48
1.0
60
0
100
AcDbLine
10
748824.470002441
20
8930564.35999969
30
210.620000033379
11
748822.293290405
21
8930562.96578888
31
200.000065116882
39
0.0
210
0.0
220
0.0
230
1.0
0
TEXT
5
124
330
1A
100
AcDbEntity
67
0
8
Number
62
244
420
659967
6
ByLayer
370
-1
48
1.0
60
0
100
AcDbText
1
43
10
748824.470002441
20
8930564.74099971
30
210.620000033379
40
0.3
41
1.0
50
0.0
51
0.0
7
Standard
11
748824.470002441
21
8930564.74099971
31
210.620000033379
210
0.0
220
0.0
230
1.0
72
0
100
AcDbText
73
0
0
TEXT
5
125
330
1A
100
AcDbEntity
67
0
8
label
62
1
420
16711680
6
ByLayer
370
-1
48
1.0
60
0
100
AcDbText
1

10
748824.470002441
20
8930565.14099971
30
210.620000033379
40
0.3
41
1.0
50
0.0
51
0.0
7
Standard
11
748824.470002441
21
8930565.14099971
31
210.620000033379
210
0.0
220
0.0
230
1.0
72
0
100
AcDbText
73
0
0
TEXT
5
126
330
1A
100
AcDbEntity
67
0
8
Length
62
244
420
659967
6
ByLayer
370
-1
48
1.0
60
0
100
AcDbText
1
10.93
10
748824.470002441
20
8930563.60599969
30
210.620000033379
40
0.3
41
1.0
50
0.0
51
0.0
7
Standard
11
748824.470002441
21
8930563.60599969
31
210.620000033379
210
0.0
220
0.0
230
1.0
72
0
100
AcDbText
73
0
0
POINT
5
127
330
1A
100
AcDbEntity
67
0
8
Hole
62
244
420
659967
6
ByLayer
370
-1
48
1.0
60
0
100
AcDbPoint
10
748825.290002136
20
8930563.09999756
30
210.689999966621
39
0.0
210
0.0
220
0.0
230
1.0
50
360.0
0
LINE
5
128
330
1A
100
AcDbEntity
67
0
8
Theoretical Hole
62
244
420
659967
6
ByLayer
370
-1
48
1.0
60
0
100
AcDbLine
10
748825.290002136
20
8930563.09999756
30
210.689999966621
11
748823.110345154
21
8930561.70390228
31
199.998879699707
39
0.0
210
0.0
220
0.0
230
1.0
0
TEXT
5
129
330
1A
100
AcDbEntity
67
0
8
Number
62
244
420
659967
6
ByLayer
370
-1
48
1.0
60
0
100
AcDbText
1
44
10
748825.290002136
20
8930563.48099757
30
210.689999966621
40
0.3
41
1.0
50
0.0
51
0.0
7
Standard
11
748825.290002136
21
8930563.48099757
31
210.689999966621
210
0.0
220
0.0
230
1.0
72
0
100
AcDbText
73
0
0
TEXT
5
12A
330
1A
100
AcDbEntity
67
0
8
label
62
1
420
16711680
6
ByLayer
370
-1
48
1.0
60
0
100
AcDbText
1

10
748825.290002136
20
8930563.88099757
30
210.689999966621
40
0.3
41
1.0
50
0.0
51
0.0
7
Standard
11
748825.290002136
21
8930563.88099757
31
210.689999966621
210
0.0
220
0.0
230
1.0
72
0
100
AcDbText
73
0
0
TEXT
5
12B
330
1A
100
AcDbEntity
67
0
8
Length
62
244
420
659967
6
ByLayer
370
-1
48
1.0
60
0
100
AcDbText
1
11.00
10
748825.290002136
20
8930562.34599755
30
210.689999966621
40
0.3
41
1.0
50
0.0
51
0.0
7
Standard
11
748825.290002136
21
8930562.34599755
31
210.689999966621
210
0.0
220
0.0
230
1.0
72
0
100
AcDbText
73
0
0
POINT
5
12C
330
1A
100
AcDbEntity
67
0
8
Hole
62
244
420
659967
6
ByLayer
370
-1
48
1.0
60
0
100
AcDbPoint
10
748826.099999695
20
8930561.84000305
30
210.870000033379
39
0.0
210
0.0
220
0.0
230
1.0
50
360.0
0
LINE
5
12D
330
1A
100
AcDbEntity
67
0
8
Theoretical Hole
62
244
420
659967
6
ByLayer
370
-1
48
1.0
60
0
100
AcDbLine
10
748826.099999695
20
8930561.84000305
30
210.870000033379
11
748823.919831543
21
8930560.44357971
31
199.993912963867
39
0.0
210
0.0
220
0.0
230
1.0
0
TEXT
5
12E
330
1A
100
AcDbEntity
67
0
8
Number
62
244
420
659967
6
ByLayer
370
-1
48
1.0
60
0
100
AcDbText
1
45
10
748826.099999695
20
8930562.22100306
30
210.870000033379
40
0.3
41
1.0
50
0.0
51
0.0
7
Standard
11
748826.099999695
21
8930562.22100306
31
210.870000033379
210
0.0
220
0.0
230
1.0
72
0
100
AcDbText
73
0
0
TEXT
5
12F
330
1A
100
AcDbEntity
67
0
8
label
62
1
420
16711680
6
ByLayer
370
-1
48
1.0
60
0
100
AcDbText
1

10
748826.099999695
20
8930562.62100306
30
210.870000033379
40
0.3
41
1.0
50
0.0
51
0.0
7
Standard
11
748826.099999695
21
8930562.62100306
31
210.870000033379
210
0.0
220
0.0
230
1.0
72
0
100
AcDbText
73
0
0
TEXT
5
130
330
1A
100
AcDbEntity
67
0
8
Length
62
244
420
659967
6
ByLayer
370
-1
48
1.0
60
0
100
AcDbText
1
11.18
10
748826.099999695
20
8930561.08600304
30
210.870000033379
40
0.3
41
1.0
50
0.0
51
0.0
7
Standard
11
748826.099999695
21
8930561.08600304
31
210.870000033379
210
0.0
220
0.0
230
1.0
72
0
100
AcDbText
73
0
0
POINT
5
131
330
1A
100
AcDbEntity
67
0
8
Hole
62
244
420
659967
6
ByLayer
370
-1
48
1.0
60
0
100
AcDbPoint
10
748826.909997253
20
8930560.58000091
30
211.00000002861
39
0.0
210
0.0
220
0.0
230
1.0
50
360.0
0
LINE
5
132
330
1A
100
AcDbEntity
67
0
8
Theoretical Hole
62
244
420
659967
6
ByLayer
370
-1
48
1.0
60
0
100
AcDbLine
10
748826.909997253
20
8930560.58000091
30
211.00000002861
11
748824.73552063
21
8930559.18722443
31
199.999009399414
39
0.0
210
0.0
220
0.0
230
1.0
0
TEXT
5
133
330
1A
100
AcDbEntity
67
0
8
Number
62
244
420
659967
6
ByLayer
370
-1
48
1.0
60
0
100
AcDbText
1
46
10
748826.909997253
20
8930560.96100093
30
211.00000002861
40
0.3
41
1.0
50
0.0
51
0.0
7
Standard
11
748826.909997253
21
8930560.96100093
31
211.00000002861
210
0.0
220
0.0
230
1.0
72
0
100
AcDbText
73
0
0
TEXT
5
134
330
1A
100
AcDbEntity
67
0
8
label
62
1
420
16711680
6
ByLayer
370
-1
48
1.0
60
0
100
AcDbText
1

10
748826.909997253
20
8930561.36100093
30
211.00000002861
40
0.3
41
1.0
50
0.0
51
0.0
7
Standard
11
748826.909997253
21
8930561.36100093
31
211.00000002861
210
0.0
220
0.0
230
1.0
72
0
100
AcDbText
73
0
0
TEXT
5
135
330
1A
100
AcDbEntity
67
0
8
Length
62
244
420
659967
6
ByLayer
370
-1
48
1.0
60
0
100
AcDbText
1
11.30
10
748826.909997253
20
8930559.82600091
30
211.00000002861
40
0.3
41
1.0
50
0.0
51
0.0
7
Standard
11
748826.909997253
21
8930559.82600091
31
211.00000002861
210
0.0
220
0.0
230
1.0
72
0
100
AcDbText
73
0
0
POINT
5
136
330
1A
100
AcDbEntity
67
0
8
Hole
62
244
420
659967
6
ByLayer
370
-1
48
1.0
60
0
100
AcDbPoint
10
748827.720002441
20
8930559.31999878
30
211.020000009537
39
0.0
210
0.0
220
0.0
230
1.0
50
360.0
0
LINE
5
137
330
1A
100
AcDbEntity
67
0
8
Theoretical Hole
62
244
420
659967
6
ByLayer
370
-1
48
1.0
60
0
100
AcDbLine
10
748827.720002441
20
8930559.31999878
30
211.020000009537
11
748825.54815033
21
8930557.92890839
31
199.997734336853
39
0.0
210
0.0
220
0.0
230
1.0
0
TEXT
5
138
330
1A
100
AcDbEntity
67
0
8
Number
62
244
420
659967
6
ByLayer
370
-1
48
1.0
60
0
100
AcDbText
1
47
10
748827.720002441
20
8930559.70099879
30
211.020000009537
40
0.3
41
1.0
50
0.0
51
0.0
7
Standard
11
748827.720002441
21
8930559.70099879
31
211.020000009537
210
0.0
220
0.0
230
1.0
72
0
100
AcDbText
73
0
0
TEXT
5
139
330
1A
100
AcDbEntity
67
0
8
label
62
1
420
16711680
6
ByLayer
370
-1
48
1.0
60
0
100
AcDbText
1

10
748827.720002441
20
8930560.10099879
30
211.020000009537
40
0.3
41
1.0
50
0.0
51
0.0
7
Standard
11
748827.720002441
21
8930560.10099879
31
211.020000009537
210
0.0
220
0.0
230
1.0
72
0
100
AcDbText
73
0
0
TEXT
5
13A
330
1A
100
AcDbEntity
67
0
8
Length
62
244
420
659967
6
ByLayer
370
-1
48
1.0
60
0
100
AcDbText
1
11.32
10
748827.720002441
20
8930558.56599877
30
211.020000009537
40
0.3
41
1.0
50
0.0
51
0.0
7
Standard
11
748827.720002441
21
8930558.56599877
31
211.020000009537
210
0.0
220
0.0
230
1.0
72
0
100
AcDbText
73
0
0
POINT
5
13B
330
1A
100
AcDbEntity
67
0
8
Hole
62
244
420
659967
6
ByLayer
370
-1
48
1.0
60
0
100
AcDbPoint
10
748828.519997864
20
8930558.05000214
30
210.959999947548
39
0.0
210
0.0
220
0.0
230
1.0
50
360.0
0
LINE
5
13C
330
1A
100
AcDbEntity
67
0
8
Theoretical Hole
62
244
420
659967
6
ByLayer
370
-1
48
1.0
60
0
100
AcDbLine
10
748828.519997864
20
8930558.05000214
30
210.959999947548
11
748826.359658508
21
8930556.66628174
31
199.996155052185
39
0.0
210
0.0
220
0.0
230
1.0
0
TEXT
5
13D
330
1A
100
AcDbEntity
67
0
8
Number
62
244
420
659967
6
ByLayer
370
-1
48
1.0
60
0
100
AcDbText
1
48
10
748828.519997864
20
8930558.43100215
30
210.959999947548
40
0.3
41
1.0
50
0.0
51
0.0
7
Standard
11
748828.519997864
21
8930558.43100215
31
210.959999947548
210
0.0
220
0.0
230
1.0
72
0
100
AcDbText
73
0
0
TEXT
5
13E
330
1A
100
AcDbEntity
67
0
8
label
62
1
420
16711680
6
ByLayer
370
-1
48
1.0
60
0
100
AcDbText
1

10
748828.519997864
20
8930558.83100215
30
210.959999947548
40
0.3
41
1.0
50
0.0
51
0.0
7
Standard
11
748828.519997864
21
8930558.83100215
31
210.959999947548
210
0.0
220
0.0
230
1.0
72
0
100
AcDbText
73
0
0
TEXT
5
13F
330
1A
100
AcDbEntity
67
0
8
Length
62
244
420
659967
6
ByLayer
370
-1
48
1.0
60
0
100
AcDbText
1
11.26
10
748828.519997864
20
8930557.29600213
30
210.959999947548
40
0.3
41
1.0
50
0.0
51
0.0
7
Standard
11
748828.519997864
21
8930557.29600213
31
210.959999947548
210
0.0
220
0.0
230
1.0
72
0
100
AcDbText
73
0
0
POINT
5
140
330
1A
100
AcDbEntity
67
0
8
Hole
62
244
420
659967
6
ByLayer
370
-1
48
1.0
60
0
100
AcDbPoint
10
748829.339997559
20
8930556.79
30
210.870000033379
39
0.0
210
0.0
220
0.0
230
1.0
50
360.0
0
LINE
5
141
330
1A
100
AcDbEntity
67
0
8
Theoretical Hole
62
244
420
659967
6
ByLayer
370
-1
48
1.0
60
0
100
AcDbLine
10
748829.339997559
20
8930556.79
30
210.870000033379
11
748827.169762878
21
8930555.39993957
31
200.001388816833
39
0.0
210
0.0
220
0.0
230
1.0
0
TEXT
5
142
330
1A
100
AcDbEntity
67
0
8
Number
62
244
420
659967
6
ByLayer
370
-1
48
1.0
60
0
100
AcDbText
1
49
10
748829.339997559
20
8930557.17100001
30
210.870000033379
40
0.3
41
1.0
50
0.0
51
0.0
7
Standard
11
748829.339997559
21
8930557.17100001
31
210.870000033379
210
0.0
220
0.0
230
1.0
72
0
100
AcDbText
73
0
0
TEXT
5
143
330
1A
100
AcDbEntity
67
0
8
label
62
1
420
16711680
6
ByLayer
370
-1
48
1.0
60
0
100
AcDbText
1

10
748829.339997559
20
8930557.57100001
30
210.870000033379
40
0.3
41
1.0
50
0.0
51
0.0
7
Standard
11
748829.339997559
21
8930557.57100001
31
210.870000033379
210
0.0
220
0.0
230
1.0
72
0
100
AcDbText
73
0
0
TEXT
5
144
330
1A
100
AcDbEntity
67
0
8
Length
62
244
420
659967
6
ByLayer
370
-1
48
1.0
60
0
100
AcDbText
1
11.17
10
748829.339997559
20
8930556.03599999
30
210.870000033379
40
0.3
41
1.0
50
0.0
51
0.0
7
Standard
11
748829.339997559
21
8930556.03599999
31
210.870000033379
210
0.0
220
0.0
230
1.0
72
0
100
AcDbText
73
0
0
POINT
5
145
330
1A
100
AcDbEntity
67
0
8
Hole
62
244
420
659967
6
ByLayer
370
-1
48
1.0
60
0
100
AcDbPoint
10
748830.150002747
20
8930555.52999786
30
210.78
39
0.0
210
0.0
220
0.0
230
1.0
50
360.0
0
LINE
5
146
330
1A
100
AcDbEntity
67
0
8
Theoretical Hole
62
244
420
659967
6
ByLayer
370
-1
48
1.0
60
0
100
AcDbLine
10
748830.150002747
20
8930555.52999786
30
210.78
11
748827.984582214
21
8930554.14301971
31
200.002541809082
39
0.0
210
0.0
220
0.0
230
1.0
0
TEXT
5
147
330
1A
100
AcDbEntity
67
0
8
Number
62
244
420
659967
6
ByLayer
370
-1
48
1.0
60
0
100
AcDbText
1
50
10
748830.150002747
20
8930555.91099788
30
210.78
40
0.3
41
1.0
50
0.0
51
0.0
7
Standard
11
748830.150002747
21
8930555.91099788
31
210.78
210
0.0
220
0.0
230
1.0
72
0
100
AcDbText
73
0
0
TEXT
5
148
330
1A
100
AcDbEntity
67
0
8
label
62
1
420
16711680
6
ByLayer
370
-1
48
1.0
60
0
100
AcDbText
1

10
748830.150002747
20
8930556.31099788
30
210.78
40
0.3
41
1.0
50
0.0
51
0.0
7
Standard
11
748830.150002747
21
8930556.31099788
31
210.78
210
0.0
220
0.0
230
1.0
72
0
100
AcDbText
73
0
0
TEXT
5
149
330
1A
100
AcDbEntity
67
0
8
Length
62
244
420
659967
6
ByLayer
370
-1
48
1.0
60
0
100
AcDbText
1
11.08
10
748830.150002747
20
8930554.77599785
30
210.78
40
0.3
41
1.0
50
0.0
51
0.0
7
Standard
11
748830.150002747
21
8930554.77599785
31
210.78
210
0.0
220
0.0
230
1.0
72
0
100
AcDbText
73
0
0
POINT
5
14A
330
1A
100
AcDbEntity
67
0
8
Hole
62
244
420
659967
6
ByLayer
370
-1
48
1.0
60
0
100
AcDbPoint
10
748830.949998169
20
8930554.26000122
30
210.699999957085
39
0.0
210
0.0
220
0.0
230
1.0
50
360.0
0
LINE
5
14B
330
1A
100
AcDbEntity
67
0
8
Theoretical Hole
62
244
420
659967
6
ByLayer
370
-1
48
1.0
60
0
100
AcDbLine
10
748830.949998169
20
8930554.26000122
30
210.699999957085
11
748828.7954953
21
8930552.88001923
31
200.00169303894
39
0.0
210
0.0
220
0.0
230
1.0
0
TEXT
5
14C
330
1A
100
AcDbEntity
67
0
8
Number
62
244
420
659967
6
ByLayer
370
-1
48
1.0
60
0
100
AcDbText
1
51
10
748830.949998169
20
8930554.64100123
30
210.699999957085
40
0.3
41
1.0
50
0.0
51
0.0
7
Standard
11
748830.949998169
21
8930554.64100123
31
210.699999957085
210
0.0
220
0.0
230
1.0
72
0
100
AcDbText
73
0
0
TEXT
5
14D
330
1A
100
AcDbEntity
67
0
8
label
62
1
420
16711680
6
ByLayer
370
-1
48
1.0
60
0
100
AcDbText
1

10
748830.949998169
20
8930555.04100123
30
210.699999957085
40
0.3
41
1.0
50
0.0
51
0.0
7
Standard
11
748830.949998169
21
8930555.04100123
31
210.699999957085
210
0.0
220
0.0
230
1.0
72
0
100
AcDbText
73
0
0
TEXT
5
14E
330
1A
100
AcDbEntity
67
0
8
Length
62
244
420
659967
6
ByLayer
370
-1
48
1.0
60
0
100
AcDbText
1
11.00
10
748830.949998169
20
8930553.50600121
30
210.699999957085
40
0.3
41
1.0
50
0.0
51
0.0
7
Standard
11
748830.949998169
21
8930553.50600121
31
210.699999957085
210
0.0
220
0.0
230
1.0
72
0
100
AcDbText
73
0
0
POINT
5
14F
330
1A
100
AcDbEntity
67
0
8
Hole
62
244
420
659967
6
ByLayer
370
-1
48
1.0
60
0
100
AcDbPoint
10
748831.760003357
20
8930552.99999908
30
210.730000047684
39
0.0
210
0.0
220
0.0
230
1.0
50
360.0
0
LINE
5
150
330
1A
100
AcDbEntity
67
0
8
Theoretical Hole
62
244
420
659967
6
ByLayer
370
-1
48
1.0
60
0
100
AcDbLine
10
748831.760003357
20
8930552.99999908
30
210.730000047684
11
748829.609086304
21
8930551.62231354
31
199.999836235046
39
0.0
210
0.0
220
0.0
230
1.0
0
TEXT
5
151
330
1A
100
AcDbEntity
67
0
8
Number
62
244
420
659967
6
ByLayer
370
-1
48
1.0
60
0
100
AcDbText
1
52
10
748831.760003357
20
8930553.3809991
30
210.730000047684
40
0.3
41
1.0
50
0.0
51
0.0
7
Standard
11
748831.760003357
21
8930553.3809991
31
210.730000047684
210
0.0
220
0.0
230
1.0
72
0
100
AcDbText
73
0
0
TEXT
5
152
330
1A
100
AcDbEntity
67
0
8
label
62
1
420
16711680
6
ByLayer
370
-1
48
1.0
60
0
100
AcDbText
1

10
748831.760003357
20
8930553.7809991
30
210.730000047684
40
0.3
41
1.0
50
0.0
51
0.0
7
Standard
11
748831.760003357
21
8930553.7809991
31
210.730000047684
210
0.0
220
0.0
230
1.0
72
0
100
AcDbText
73
0
0
TEXT
5
153
330
1A
100
AcDbEntity
67
0
8
Length
62
244
420
659967
6
ByLayer
370
-1
48
1.0
60
0
100
AcDbText
1
11.03
10
748831.760003357
20
8930552.24599908
30
210.730000047684
40
0.3
41
1.0
50
0.0
51
0.0
7
Standard
11
748831.760003357
21
8930552.24599908
31
210.730000047684
210
0.0
220
0.0
230
1.0
72
0
100
AcDbText
73
0
0
POINT
5
154
330
1A
100
AcDbEntity
67
0
8
Hole
62
244
420
659967
6
ByLayer
370
-1
48
1.0
60
0
100
AcDbPoint
10
748832.570000916
20
8930551.73999695
30
210.83999994278
39
0.0
210
0.0
220
0.0
230
1.0
50
360.0
0
LINE
5
155
330
1A
100
AcDbEntity
67
0
8
Theoretical Hole
62
244
420
659967
6
ByLayer
370
-1
48
1.0
60
0
100
AcDbLine
10
748832.570000916
20
8930551.73999695
30
210.83999994278
11
748830.416749268
21
8930550.36081604
31
199.997447280884
39
0.0
210
0.0
220
0.0
230
1.0
0
TEXT
5
156
330
1A
100
AcDbEntity
67
0
8
Number
62
244
420
659967
6
ByLayer
370
-1
48
1.0
60
0
100
AcDbText
1
53
10
748832.570000916
20
8930552.12099696
30
210.83999994278
40
0.3
41
1.0
50
0.0
51
0.0
7
Standard
11
748832.570000916
21
8930552.12099696
31
210.83999994278
210
0.0
220
0.0
230
1.0
72
0
100
AcDbText
73
0
0
TEXT
5
157
330
1A
100
AcDbEntity
67
0
8
label
62
1
420
16711680
6
ByLayer
370
-1
48
1.0
60
0
100
AcDbText
1

10
748832.570000916
20
8930552.52099696
30
210.83999994278
40
0.3
41
1.0
50
0.0
51
0.0
7
Standard
11
748832.570000916
21
8930552.52099696
31
210.83999994278
210
0.0
220
0.0
230
1.0
72
0
100
AcDbText
73
0
0
TEXT
5
158
330
1A
100
AcDbEntity
67
0
8
Length
62
244
420
659967
6
ByLayer
370
-1
48
1.0
60
0
100
AcDbText
1
11.14
10
748832.570000916
20
8930550.98599694
30
210.83999994278
40
0.3
41
1.0
50
0.0
51
0.0
7
Standard
11
748832.570000916
21
8930550.98599694
31
210.83999994278
210
0.0
220
0.0
230
1.0
72
0
100
AcDbText
73
0
0
POINT
5
159
330
1A
100
AcDbEntity
67
0
8
Hole
62
244
420
659967
6
ByLayer
370
-1
48
1.0
60
0
100
AcDbPoint
10
748833.379998474
20
8930550.4700003
30
210.880000023842
39
0.0
210
0.0
220
0.0
230
1.0
50
360.0
0
LINE
5
15A
330
1A
100
AcDbEntity
67
0
8
Theoretical Hole
62
244
420
659967
6
ByLayer
370
-1
48
1.0
60
0
100
AcDbLine
10
748833.379998474
20
8930550.4700003
30
210.880000023842
11
748831.228608398
21
8930549.09200958
31
199.99583366394
39
0.0
210
0.0
220
0.0
230
1.0
0
TEXT
5
15B
330
1A
100
AcDbEntity
67
0
8
Number
62
244
420
659967
6
ByLayer
370
-1
48
1.0
60
0
100
AcDbText
1
54
10
748833.379998474
20
8930550.85100032
30
210.880000023842
40
0.3
41
1.0
50
0.0
51
0.0
7
Standard
11
748833.379998474
21
8930550.85100032
31
210.880000023842
210
0.0
220
0.0
230
1.0
72
0
100
AcDbText
73
0
0
TEXT
5
15C
330
1A
100
AcDbEntity
67
0
8
label
62
1
420
16711680
6
ByLayer
370
-1
48
1.0
60
0
100
AcDbText
1

10
748833.379998474
20
8930551.25100032
30
210.880000023842
40
0.3
41
1.0
50
0.0
51
0.0
7
Standard
11
748833.379998474
21
8930551.25100032
31
210.880000023842
210
0.0
220
0.0
230
1.0
72
0
100
AcDbText
73
0
0
TEXT
5
15D
330
1A
100
AcDbEntity
67
0
8
Length
62
244
420
659967
6
ByLayer
370
-1
48
1.0
60
0
100
AcDbText
1
11.18
10
748833.379998474
20
8930549.7160003
30
210.880000023842
40
0.3
41
1.0
50
0.0
51
0.0
7
Standard
11
748833.379998474
21
8930549.7160003
31
210.880000023842
210
0.0
220
0.0
230
1.0
72
0
100
AcDbText
73
0
0
POINT
5
15E
330
1A
100
AcDbEntity
67
0
8
Hole
62
244
420
659967
6
ByLayer
370
-1
48
1.0
60
0
100
AcDbPoint
10
748834.190003662
20
8930549.20999817
30
211.010000019073
39
0.0
210
0.0
220
0.0
230
1.0
50
360.0
0
LINE
5
15F
330
1A
100
AcDbEntity
67
0
8
Theoretical Hole
62
244
420
659967
6
ByLayer
370
-1
48
1.0
60
0
100
AcDbLine
10
748834.190003662
20
8930549.20999817
30
211.010000019073
11
748832.034928589
21
8930547.82964996
31
200.003625183105
39
0.0
210
0.0
220
0.0
230
1.0
0
TEXT
5
160
330
1A
100
AcDbEntity
67
0
8
Number
62
244
420
659967
6
ByLayer
370
-1
48
1.0
60
0
100
AcDbText
1
55
10
748834.190003662
20
8930549.59099818
30
211.010000019073
40
0.3
41
1.0
50
0.0
51
0.0
7
Standard
11
748834.190003662
21
8930549.59099818
31
211.010000019073
210
0.0
220
0.0
230
1.0
72
0
100
AcDbText
73
0
0
TEXT
5
161
330
1A
100
AcDbEntity
67
0
8
label
62
1
420
16711680
6
ByLayer
370
-1
48
1.0
60
0
100
AcDbText
1

10
748834.190003662
20
8930549.99099818
30
211.010000019073
40
0.3
41
1.0
50
0.0
51
0.0
7
Standard
11
748834.190003662
21
8930549.99099818
31
211.010000019073
210
0.0
220
0.0
230
1.0
72
0
100
AcDbText
73
0
0
TEXT
5
162
330
1A
100
AcDbEntity
67
0
8
Length
62
244
420
659967
6
ByLayer
370
-1
48
1.0
60
0
100
AcDbText
1
11.30
10
748834.190003662
20
8930548.45599816
30
211.010000019073
40
0.3
41
1.0
50
0.0
51
0.0
7
Standard
11
748834.190003662
21
8930548.45599816
31
211.010000019073
210
0.0
220
0.0
230
1.0
72
0
100
AcDbText
73
0
0
POINT
5
163
330
1A
100
AcDbEntity
67
0
8
Hole
62
244
420
659967
6
ByLayer
370
-1
48
1.0
60
0
100
AcDbPoint
10
748835.000001221
20
8930547.95000366
30
211.159999995232
39
0.0
210
0.0
220
0.0
230
1.0
50
360.0
0
LINE
5
164
330
1A
100
AcDbEntity
67
0
8
Theoretical Hole
62
244
420
659967
6
ByLayer
370
-1
48
1.0
60
0
100
AcDbLine
10
748835.000001221
20
8930547.95000366
30
211.159999995232
11
748832.839028626
21
8930546.56587891
31
199.991027145386
39
0.0
210
0.0
220
0.0
230
1.0
0
TEXT
5
165
330
1A
100
AcDbEntity
67
0
8
Number
62
244
420
659967
6
ByLayer
370
-1
48
1.0
60
0
100
AcDbText
1
56
10
748835.000001221
20
8930548.33100367
30
211.159999995232
40
0.3
41
1.0
50
0.0
51
0.0
7
Standard
11
748835.000001221
21
8930548.33100367
31
211.159999995232
210
0.0
220
0.0
230
1.0
72
0
100
AcDbText
73
0
0
TEXT
5
166
330
1A
100
AcDbEntity
67
0
8
label
62
1
420
16711680
6
ByLayer
370
-1
48
1.0
60
0
100
AcDbText
1

10
748835.000001221
20
8930548.73100367
30
211.159999995232
40
0.3
41
1.0
50
0.0
51
0.0
7
Standard
11
748835.000001221
21
8930548.73100367
31
211.159999995232
210
0.0
220
0.0
230
1.0
72
0
100
AcDbText
73
0
0
TEXT
5
167
330
1A
100
AcDbEntity
67
0
8
Length
62
244
420
659967
6
ByLayer
370
-1
48
1.0
60
0
100
AcDbText
1
11.46
10
748835.000001221
20
8930547.19600365
30
211.159999995232
40
0.3
41
1.0
50
0.0
51
0.0
7
Standard
11
748835.000001221
21
8930547.19600365
31
211.159999995232
210
0.0
220
0.0
230
1.0
72
0
100
AcDbText
73
0
0
POINT
5
168
330
1A
100
AcDbEntity
67
0
8
Hole
62
244
420
659967
6
ByLayer
370
-1
48
1.0
60
0
100
AcDbPoint
10
748835.799996643
20
8930546.67999939
30
211.209999947548
39
0.0
210
0.0
220
0.0
230
1.0
50
360.0
0
LINE
5
169
330
1A
100
AcDbEntity
67
0
8
Theoretical Hole
62
244
420
659967
6
ByLayer
370
-1
48
1.0
60
0
100
AcDbLine
10
748835.799996643
20
8930546.67999939
30
211.209999947548
11
748833.649606018
21
8930545.30264954
31
199.997119216919
39
0.0
210
0.0
220
0.0
230
1.0
0
TEXT
5
16A
330
1A
100
AcDbEntity
67
0
8
Number
62
244
420
659967
6
ByLayer
370
-1
48
1.0
60
0
100
AcDbText
1
57
10
748835.799996643
20
8930547.0609994
30
211.209999947548
40
0.3
41
1.0
50
0.0
51
0.0
7
Standard
11
748835.799996643
21
8930547.0609994
31
211.209999947548
210
0.0
220
0.0
230
1.0
72
0
100
AcDbText
73
0
0
TEXT
5
16B
330
1A
100
AcDbEntity
67
0
8
label
62
1
420
16711680
6
ByLayer
370
-1
48
1.0
60
0
100
AcDbText
1

10
748835.799996643
20
8930547.4609994
30
211.209999947548
40
0.3
41
1.0
50
0.0
51
0.0
7
Standard
11
748835.799996643
21
8930547.4609994
31
211.209999947548
210
0.0
220
0.0
230
1.0
72
0
100
AcDbText
73
0
0
TEXT
5
16C
330
1A
100
AcDbEntity
67
0
8
Length
62
244
420
659967
6
ByLayer
370
-1
48
1.0
60
0
100
AcDbText
1
11.50
10
748835.799996643
20
8930545.92599938
30
211.209999947548
40
0.3
41
1.0
50
0.0
51
0.0
7
Standard
11
748835.799996643
21
8930545.92599938
31
211.209999947548
210
0.0
220
0.0
230
1.0
72
0
100
AcDbText
73
0
0
POINT
5
16D
330
1A
100
AcDbEntity
67
0
8
Hole
62
244
420
659967
6
ByLayer
370
-1
48
1.0
60
0
100
AcDbPoint
10
748836.610001831
20
8930545.41999725
30
211.459999947548
39
0.0
210
0.0
220
0.0
230
1.0
50
360.0
0
LINE
5
16E
330
1A
100
AcDbEntity
67
0
8
Theoretical Hole
62
244
420
659967
6
ByLayer
370
-1
48
1.0
60
0
100
AcDbLine
10
748836.610001831
20
8930545.41999725
30
211.459999947548
11
748834.45666626
21
8930544.04076294
31
199.991639404297
39
0.0
210
0.0
220
0.0
230
1.0
0
TEXT
5
16F
330
1A
100
AcDbEntity
67
0
8
Number
62
244
420
659967
6
ByLayer
370
-1
48
1.0
60
0
100
AcDbText
1
58
10
748836.610001831
20
8930545.80099726
30
211.459999947548
40
0.3
41
1.0
50
0.0
51
0.0
7
Standard
11
748836.610001831
21
8930545.80099726
31
211.459999947548
210
0.0
220
0.0
230
1.0
72
0
100
AcDbText
73
0
0
TEXT
5
170
330
1A
100
AcDbEntity
67
0
8
label
62
1
420
16711680
6
ByLayer
370
-1
48
1.0
60
0
100
AcDbText
1

10
748836.610001831
20
8930546.20099727
30
211.459999947548
40
0.3
41
1.0
50
0.0
51
0.0
7
Standard
11
748836.610001831
21
8930546.20099727
31
211.459999947548
210
0.0
220
0.0
230
1.0
72
0
100
AcDbText
73
0
0
TEXT
5
171
330
1A
100
AcDbEntity
67
0
8
Length
62
244
420
659967
6
ByLayer
370
-1
48
1.0
60
0
100
AcDbText
1
11.75
10
748836.610001831
20
8930544.66599724
30
211.459999947548
40
0.3
41
1.0
50
0.0
51
0.0
7
Standard
11
748836.610001831
21
8930544.66599724
31
211.459999947548
210
0.0
220
0.0
230
1.0
72
0
100
AcDbText
73
0
0
POINT
5
172
330
1A
100
AcDbEntity
67
0
8
Hole
62
244
420
659967
6
ByLayer
370
-1
48
1.0
60
0
100
AcDbPoint
10
748837.41999939
20
8930544.16000275
30
211.72000005722
39
0.0
210
0.0
220
0.0
230
1.0
50
360.0
0
LINE
5
173
330
1A
100
AcDbEntity
67
0
8
Theoretical Hole
62
244
420
659967
6
ByLayer
370
-1
48
1.0
60
0
100
AcDbLine
10
748837.41999939
20
8930544.16000275
30
211.72000005722
11
748835.260453491
21
8930542.77679352
31
199.997242240906
39
0.0
210
0.0
220
0.0
230
1.0
0
TEXT
5
174
330
1A
100
AcDbEntity
67
0
8
Number
62
244
420
659967
6
ByLayer
370
-1
48
1.0
60
0
100
AcDbText
1
59
10
748837.41999939
20
8930544.54100276
30
211.72000005722
40
0.3
41
1.0
50
0.0
51
0.0
7
Standard
11
748837.41999939
21
8930544.54100276
31
211.72000005722
210
0.0
220
0.0
230
1.0
72
0
100
AcDbText
73
0
0
TEXT
5
175
330
1A
100
AcDbEntity
67
0
8
label
62
1
420
16711680
6
ByLayer
370
-1
48
1.0
60
0
100
AcDbText
1

10
748837.41999939
20
8930544.94100276
30
211.72000005722
40
0.3
41
1.0
50
0.0
51
0.0
7
Standard
11
748837.41999939
21
8930544.94100276
31
211.72000005722
210
0.0
220
0.0
230
1.0
72
0
100
AcDbText
73
0
0
TEXT
5
176
330
1A
100
AcDbEntity
67
0
8
Length
62
244
420
659967
6
ByLayer
370
-1
48
1.0
60
0
100
AcDbText
1
12.00
10
748837.41999939
20
8930543.40600274
30
211.72000005722
40
0.3
41
1.0
50
0.0
51
0.0
7
Standard
11
748837.41999939
21
8930543.40600274
31
211.72000005722
210
0.0
220
0.0
230
1.0
72
0
100
AcDbText
73
0
0
POINT
5
177
330
1A
100
AcDbEntity
67
0
8
Hole
62
244
420
659967
6
ByLayer
370
-1
48
1.0
60
0
100
AcDbPoint
10
748838.210000305
20
8930542.87999634
30
211.940000085831
39
0.0
210
0.0
220
0.0
230
1.0
50
360.0
0
LINE
5
178
330
1A
100
AcDbEntity
67
0
8
Theoretical Hole
62
244
420
659967
6
ByLayer
370
-1
48
1.0
60
0
100
AcDbLine
10
748838.210000305
20
8930542.87999634
30
211.940000085831
11
748836.06704071
21
8930541.50740723
31
199.998150138855
39
0.0
210
0.0
220
0.0
230
1.0
0
TEXT
5
179
330
1A
100
AcDbEntity
67
0
8
Number
62
244
420
659967
6
ByLayer
370
-1
48
1.0
60
0
100
AcDbText
1
60
10
748838.210000305
20
8930543.26099635
30
211.940000085831
40
0.3
41
1.0
50
0.0
51
0.0
7
Standard
11
748838.210000305
21
8930543.26099635
31
211.940000085831
210
0.0
220
0.0
230
1.0
72
0
100
AcDbText
73
0
0
TEXT
5
17A
330
1A
100
AcDbEntity
67
0
8
label
62
1
420
16711680
6
ByLayer
370
-1
48
1.0
60
0
100
AcDbText
1

10
748838.210000305
20
8930543.66099635
30
211.940000085831
40
0.3
41
1.0
50
0.0
51
0.0
7
Standard
11
748838.210000305
21
8930543.66099635
31
211.940000085831
210
0.0
220
0.0
230
1.0
72
0
100
AcDbText
73
0
0
TEXT
5
17B
330
1A
100
AcDbEntity
67
0
8
Length
62
244
420
659967
6
ByLayer
370
-1
48
1.0
60
0
100
AcDbText
1
12.21
10
748838.210000305
20
8930542.12599633
30
211.940000085831
40
0.3
41
1.0
50
0.0
51
0.0
7
Standard
11
748838.210000305
21
8930542.12599633
31
211.940000085831
210
0.0
220
0.0
230
1.0
72
0
100
AcDbText
73
0
0
POINT
5
17C
330
1A
100
AcDbEntity
67
0
8
Hole
62
244
420
659967
6
ByLayer
370
-1
48
1.0
60
0
100
AcDbPoint
10
748839.03
20
8930541.62999634
30
211.950000076294
39
0.0
210
0.0
220
0.0
230
1.0
50
360.0
0
LINE
5
17D
330
1A
100
AcDbEntity
67
0
8
Theoretical Hole
62
244
420
659967
6
ByLayer
370
-1
48
1.0
60
0
100
AcDbLine
10
748839.03
20
8930541.62999634
30
211.950000076294
11
748836.874741821
21
8930540.24953369
31
200.001040725708
39
0.0
210
0.0
220
0.0
230
1.0
0
TEXT
5
17E
330
1A
100
AcDbEntity
67
0
8
Number
62
244
420
659967
6
ByLayer
370
-1
48
1.0
60
0
100
AcDbText
1
61
10
748839.03
20
8930542.01099635
30
211.950000076294
40
0.3
41
1.0
50
0.0
51
0.0
7
Standard
11
748839.03
21
8930542.01099635
31
211.950000076294
210
0.0
220
0.0
230
1.0
72
0
100
AcDbText
73
0
0
TEXT
5
17F
330
1A
100
AcDbEntity
67
0
8
label
62
1
420
16711680
6
ByLayer
370
-1
48
1.0
60
0
100
AcDbText
1

10
748839.03
20
8930542.41099635
30
211.950000076294
40
0.3
41
1.0
50
0.0
51
0.0
7
Standard
11
748839.03
21
8930542.41099635
31
211.950000076294
210
0.0
220
0.0
230
1.0
72
0
100
AcDbText
73
0
0
TEXT
5
180
330
1A
100
AcDbEntity
67
0
8
Length
62
244
420
659967
6
ByLayer
370
-1
48
1.0
60
0
100
AcDbText
1
12.22
10
748839.03
20
8930540.87599633
30
211.950000076294
40
0.3
41
1.0
50
0.0
51
0.0
7
Standard
11
748839.03
21
8930540.87599633
31
211.950000076294
210
0.0
220
0.0
230
1.0
72
0
100
AcDbText
73
0
0
POINT
5
181
330
1A
100
AcDbEntity
67
0
8
Hole
62
244
420
659967
6
ByLayer
370
-1
48
1.0
60
0
100
AcDbPoint
10
748839.839997559
20
8930540.35999969
30
211.960000066757
39
0.0
210
0.0
220
0.0
230
1.0
50
360.0
0
LINE
5
182
330
1A
100
AcDbEntity
67
0
8
Theoretical Hole
62
244
420
659967
6
ByLayer
370
-1
48
1.0
60
0
100
AcDbLine
10
748839.839997559
20
8930540.35999969
30
211.960000066757
11
748837.680978088
21
8930538.97765259
31
199.991486816406
39
0.0
210
0.0
220
0.0
230
1.0
0
TEXT
5
183
330
1A
100
AcDbEntity
67
0
8
Number
62
244
420
659967
6
ByLayer
370
-1
48
1.0
60
0
100
AcDbText
1
62
10
748839.839997559
20
8930540.74099971
30
211.960000066757
40
0.3
41
1.0
50
0.0
51
0.0
7
Standard
11
748839.839997559
21
8930540.74099971
31
211.960000066757
210
0.0
220
0.0
230
1.0
72
0
100
AcDbText
73
0
0
TEXT
5
184
330
1A
100
AcDbEntity
67
0
8
label
62
1
420
16711680
6
ByLayer
370
-1
48
1.0
60
0
100
AcDbText
1

10
748839.839997559
20
8930541.14099971
30
211.960000066757
40
0.3
41
1.0
50
0.0
51
0.0
7
Standard
11
748839.839997559
21
8930541.14099971
31
211.960000066757
210
0.0
220
0.0
230
1.0
72
0
100
AcDbText
73
0
0
TEXT
5
185
330
1A
100
AcDbEntity
67
0
8
Length
62
244
420
659967
6
ByLayer
370
-1
48
1.0
60
0
100
AcDbText
1
12.24
10
748839.839997559
20
8930539.60599969
30
211.960000066757
40
0.3
41
1.0
50
0.0
51
0.0
7
Standard
11
748839.839997559
21
8930539.60599969
31
211.960000066757
210
0.0
220
0.0
230
1.0
72
0
100
AcDbText
73
0
0
POINT
5
186
330
1A
100
AcDbEntity
67
0
8
Hole
62
244
420
659967
6
ByLayer
370
-1
48
1.0
60
0
100
AcDbPoint
10
748840.650002747
20
8930539.09999756
30
211.980000047684
39
0.0
210
0.0
220
0.0
230
1.0
50
360.0
0
LINE
5
187
330
1A
100
AcDbEntity
67
0
8
Theoretical Hole
62
244
420
659967
6
ByLayer
370
-1
48
1.0
60
0
100
AcDbLine
10
748840.650002747
20
8930539.09999756
30
211.980000047684
11
748838.488976746
21
8930537.71690277
31
200.001708297729
39
0.0
210
0.0
220
0.0
230
1.0
0
TEXT
5
188
330
1A
100
AcDbEntity
67
0
8
Number
62
244
420
659967
6
ByLayer
370
-1
48
1.0
60
0
100
AcDbText
1
63
10
748840.650002747
20
8930539.48099757
30
211.980000047684
40
0.3
41
1.0
50
0.0
51
0.0
7
Standard
11
748840.650002747
21
8930539.48099757
31
211.980000047684
210
0.0
220
0.0
230
1.0
72
0
100
AcDbText
73
0
0
TEXT
5
189
330
1A
100
AcDbEntity
67
0
8
label
62
1
420
16711680
6
ByLayer
370
-1
48
1.0
60
0
100
AcDbText
1

10
748840.650002747
20
8930539.88099757
30
211.980000047684
40
0.3
41
1.0
50
0.0
51
0.0
7
Standard
11
748840.650002747
21
8930539.88099757
31
211.980000047684
210
0.0
220
0.0
230
1.0
72
0
100
AcDbText
73
0
0
TEXT
5
18A
330
1A
100
AcDbEntity
67
0
8
Length
62
244
420
659967
6
ByLayer
370
-1
48
1.0
60
0
100
AcDbText
1
12.25
10
748840.650002747
20
8930538.34599755
30
211.980000047684
40
0.3
41
1.0
50
0.0
51
0.0
7
Standard
11
748840.650002747
21
8930538.34599755
31
211.980000047684
210
0.0
220
0.0
230
1.0
72
0
100
AcDbText
73
0
0
POINT
5
18B
330
1A
100
AcDbEntity
67
0
8
Hole
62
244
420
659967
6
ByLayer
370
-1
48
1.0
60
0
100
AcDbPoint
10
748841.460000305
20
8930537.84000305
30
211.990000038147
39
0.0
210
0.0
220
0.0
230
1.0
50
360.0
0
LINE
5
18C
330
1A
100
AcDbEntity
67
0
8
Theoretical Hole
62
244
420
659967
6
ByLayer
370
-1
48
1.0
60
0
100
AcDbLine
10
748841.460000305
20
8930537.84000305
30
211.990000038147
11
748839.296967773
21
8930536.45615295
31
200.001929550171
39
0.0
210
0.0
220
0.0
230
1.0
0
TEXT
5
18D
330
1A
100
AcDbEntity
67
0
8
Number
62
244
420
659967
6
ByLayer
370
-1
48
1.0
60
0
100
AcDbText
1
64
10
748841.460000305
20
8930538.22100306
30
211.990000038147
40
0.3
41
1.0
50
0.0
51
0.0
7
Standard
11
748841.460000305
21
8930538.22100306
31
211.990000038147
210
0.0
220
0.0
230
1.0
72
0
100
AcDbText
73
0
0
TEXT
5
18E
330
1A
100
AcDbEntity
67
0
8
label
62
1
420
16711680
6
ByLayer
370
-1
48
1.0
60
0
100
AcDbText
1

10
748841.460000305
20
8930538.62100306
30
211.990000038147
40
0.3
41
1.0
50
0.0
51
0.0
7
Standard
11
748841.460000305
21
8930538.62100306
31
211.990000038147
210
0.0
220
0.0
230
1.0
72
0
100
AcDbText
73
0
0
TEXT
5
18F
330
1A
100
AcDbEntity
67
0
8
Length
62
244
420
659967
6
ByLayer
370
-1
48
1.0
60
0
100
AcDbText
1
12.26
10
748841.460000305
20
8930537.08600304
30
211.990000038147
40
0.3
41
1.0
50
0.0
51
0.0
7
Standard
11
748841.460000305
21
8930537.08600304
31
211.990000038147
210
0.0
220
0.0
230
1.0
72
0
100
AcDbText
73
0
0
POINT
5
190
330
1A
100
AcDbEntity
67
0
8
Hole
62
244
420
659967
6
ByLayer
370
-1
48
1.0
60
0
100
AcDbPoint
10
748842.269997864
20
8930536.56999878
30
212.00000002861
39
0.0
210
0.0
220
0.0
230
1.0
50
360.0
0
LINE
5
191
330
1A
100
AcDbEntity
67
0
8
Theoretical Hole
62
244
420
659967
6
ByLayer
370
-1
48
1.0
60
0
100
AcDbLine
10
748842.269997864
20
8930536.56999878
30
212.00000002861
11
748840.103432922
21
8930535.18389038
31
200.002598075867
39
0.0
210
0.0
220
0.0
230
1.0
0
TEXT
5
192
330
1A
100
AcDbEntity
67
0
8
Number
62
244
420
659967
6
ByLayer
370
-1
48
1.0
60
0
100
AcDbText
1
65
10
748842.269997864
20
8930536.95099879
30
212.00000002861
40
0.3
41
1.0
50
0.0
51
0.0
7
Standard
11
748842.269997864
21
8930536.95099879
31
212.00000002861
210
0.0
220
0.0
230
1.0
72
0
100
AcDbText
73
0
0
TEXT
5
193
330
1A
100
AcDbEntity
67
0
8
label
62
1
420
16711680
6
ByLayer
370
-1
48
1.0
60
0
100
AcDbText
1

10
748842.269997864
20
8930537.35099879
30
212.00000002861
40
0.3
41
1.0
50
0.0
51
0.0
7
Standard
11
748842.269997864
21
8930537.35099879
31
212.00000002861
210
0.0
220
0.0
230
1.0
72
0
100
AcDbText
73
0
0
TEXT
5
194
330
1A
100
AcDbEntity
67
0
8
Length
62
244
420
659967
6
ByLayer
370
-1
48
1.0
60
0
100
AcDbText
1
12.27
10
748842.269997864
20
8930535.81599877
30
212.00000002861
40
0.3
41
1.0
50
0.0
51
0.0
7
Standard
11
748842.269997864
21
8930535.81599877
31
212.00000002861
210
0.0
220
0.0
230
1.0
72
0
100
AcDbText
73
0
0
POINT
5
195
330
1A
100
AcDbEntity
67
0
8
Hole
62
244
420
659967
6
ByLayer
370
-1
48
1.0
60
0
100
AcDbPoint
10
748843.080003052
20
8930535.30999664
30
212.010000019073
39
0.0
210
0.0
220
0.0
230
1.0
50
360.0
0
LINE
5
196
330
1A
100
AcDbEntity
67
0
8
Theoretical Hole
62
244
420
659967
6
ByLayer
370
-1
48
1.0
60
0
100
AcDbLine
10
748843.080003052
20
8930535.30999664
30
212.010000019073
11
748840.91343811
21
8930533.92388824
31
200.002373008728
39
0.0
210
0.0
220
0.0
230
1.0
0
TEXT
5
197
330
1A
100
AcDbEntity
67
0
8
Number
62
244
420
659967
6
ByLayer
370
-1
48
1.0
60
0
100
AcDbText
1
66
10
748843.080003052
20
8930535.69099665
30
212.010000019073
40
0.3
41
1.0
50
0.0
51
0.0
7
Standard
11
748843.080003052
21
8930535.69099665
31
212.010000019073
210
0.0
220
0.0
230
1.0
72
0
100
AcDbText
73
0
0
TEXT
5
198
330
1A
100
AcDbEntity
67
0
8
label
62
1
420
16711680
6
ByLayer
370
-1
48
1.0
60
0
100
AcDbText
1

10
748843.080003052
20
8930536.09099665
30
212.010000019073
40
0.3
41
1.0
50
0.0
51
0.0
7
Standard
11
748843.080003052
21
8930536.09099665
31
212.010000019073
210
0.0
220
0.0
230
1.0
72
0
100
AcDbText
73
0
0
TEXT
5
199
330
1A
100
AcDbEntity
67
0
8
Length
62
244
420
659967
6
ByLayer
370
-1
48
1.0
60
0
100
AcDbText
1
12.28
10
748843.080003052
20
8930534.55599663
30
212.010000019073
40
0.3
41
1.0
50
0.0
51
0.0
7
Standard
11
748843.080003052
21
8930534.55599663
31
212.010000019073
210
0.0
220
0.0
230
1.0
72
0
100
AcDbText
73
0
0
VIEWPORT
5
19E
330
19A
100
AcDbEntity
67
1
8
0
62
256
6
ByLayer
370
-1
48
1.0
60
0
100
AcDbViewport
10
0.0
20
0.0
30
0.0
40
297.0
41
210.0
68
1
69
1
12
50.0
22
100.0
13
0.0
23
0.0
14
10.0
24
10.0
15
10.0
25
10.0
16
0.0
26
0.0
36
1.0
17
0.0
27
0.0
37
0.0
42
50.0
43
0.0
44
0.0
45
250.0
50
0.0
51
0.0
72
1000
90
819232
110
0.0
120
0.0
130
0.0
111
1.0
121
0.0
131
0.0
112
0.0
122
1.0
132
0.0
0
ENDSEC
0
SECTION
2
OBJECTS
0
DICTIONARY
5
1A3
330
0
100
AcDbDictionary
280
0
281
1
3
ACAD_GROUP
350
1A4
3
ACAD_LAYOUT
350
1A5
3
ACAD_MLINESTYLE
350
1A9
0
DICTIONARY
5
1A4
330
1A3
100
AcDbDictionary
280
0
281
1
0
DICTIONARY
5
1A5
330
1A3
100
AcDbDictionary
280
0
281
1
3
Model
350
1E
3
Layout1
350
19F
0
DICTIONARY
5
1A9
330
1A3
100
AcDbDictionary
280
0
281
1
3
Standard
350
19
0
LAYOUT
5
1E
330
1A5
100
AcDbPlotSettings
1

2
none_device
4
ISO_A4_(210.00_x_297.00_MM)
6

40
7.5
41
20.0
42
7.5
43
20.0
44
210.0
45
297.0
46
0.0
47
0.0
48
0.0
49
0.0
140
0.0
141
0.0
142
1.0
143
1.0
70
11952
72
1
73
1
74
5
7

75
16
147
1.0
148
0.0
149
0.0
100
AcDbLayout
1
Model
70
1
71
0
10
-20.0
20
-7.5
11
277.0
21
202.5
12
0.0
22
0.0
32
0.0
14
25.7
24
19.5
34
0.0
15
231.3
25
175.5
35
0.0
146
0.0
13
0.0
23
0.0
33
0.0
16
1.0
26
0.0
36
0.0
17
0.0
27
1.0
37
0.0
76
0
330
1A
0
LAYOUT
5
19F
330
1A5
100
AcDbPlotSettings
1

2
none_device
4
ISO_A4_(210.00_x_297.00_MM)
6

40
7.5
41
20.0
42
7.5
43
20.0
44
210.0
45
297.0
46
0.0
47
0.0
48
0.0
49
0.0
140
0.0
141
0.0
142
1.0
143
1.0
70
688
72
1
73
1
74
5
7

75
16
147
1.0
148
0.0
149
0.0
100
AcDbLayout
1
Layout1
70
1
71
1
10
-20.0
20
-7.5
11
277.0
21
202.5
12
0.0
22
0.0
32
0.0
14
25.7
24
19.5
34
0.0
15
231.3
25
175.5
35
0.0
146
0.0
13
0.0
23
0.0
33
0.0
16
1.0
26
0.0
36
0.0
17
0.0
27
1.0
37
0.0
76
0
330
19A
0
MLINESTYLE
5
19
330
1A9
100
AcDbMlineStyle
2
Standard
70
0
3

62
256
51
90.0
52
90.0
71
2
49
-0.5
62
256
6
ByLayer
49
0.5
62
256
6
ByLayer
0
ENDSEC
0
EOF
