999
Dxf file generated by netDxf https://netdxf.codeplex.com, Copyright(C) 2015 Daniel Carvajal, Licensed under LGPL
0
SECTION
2
HEADER
9
$ACADVER
1
AC1015
9
$DWGCODEPAGE
3
ANSI_1252
9
$HANDSEED
5
269
9
$ANGBASE
50
0.0
9
$ANGDIR
70
0
9
$ATTMODE
70
1
9
$AUNITS
70
0
9
$AUPREC
70
0
9
$CECOLOR
62
256
9
$CELTSCALE
40
1.0
9
$CELTYPE
6
ByLayer
9
$CELWEIGHT
370
-1
9
$CLAYER
8
0
9
$CMLJUST
70
0
9
$CMLSCALE
40
20.0
9
$CMLSTYLE
2
Standard
9
$DIMSTYLE
2
Standard
9
$TEXTSIZE
40
2.5
9
$TEXTSTYLE
7
Standard
9
$LUNITS
70
2
9
$LUPREC
70
4
9
$EXTNAMES
290
1
9
$INSBASE
10
0.0
20
0.0
30
0.0
9
$INSUNITS
70
0
9
$LTSCALE
40
1.0
9
$LWDISPLAY
290
0
9
$PDMODE
70
0
9
$PDSIZE
40
0.0
9
$PLINEGEN
70
0
9
$PSLTSCALE
70
1
9
$TDCREATE
40
2461287.29754015
9
$TDUCREATE
40
2461287.42254015
9
$TDUPDATE
40
2461287.29754015
9
$TDUUPDATE
40
2461287.42254015
9
$TDINDWG
40
0.0
9
$DIMADEC
70
0
9
$DIMAUNIT
70
0
9
$DIMASZ
40
0.18
9
$DIMAZIN
70
0
9
$DIMBLK
1

9
$DIMBLK1
1

9
$DIMBLK2
1

9
$DIMLDRBLK
1

9
$DIMCEN
40
0.09
9
$DIMCLRD
70
0
9
$DIMCLRE
70
0
9
$DIMCLRT
70
0
9
$DIMDEC
70
2
9
$DIMDLE
40
0.0
9
$DIMDLI
40
0.38
9
$DIMDSEP
70
46
9
$DIMEXE
40
0.18
9
$DIMEXO
40
0.0625
9
$DIMGAP
40
0.09
9
$DIMJUST
70
0
9
$DIMLFAC
40
1.0
9
$DIMLUNIT
70
2
9
$DIMLWD
70
-2
9
$DIMLWE
70
-2
9
$DIMPOST
1
<>
9
$DIMRND
40
0.0
9
$DIMSAH
70
0
9
$DIMSCALE
40
1.0
9
$DIMSE1
70
0
9
$DIMSE2
70
0
9
$DIMTAD
70
1
9
$DIMTIH
70
0
9
$DIMTOH
70
0
9
$DIMTXT
40
0.18
9
$DIMZIN
70
0
9
$DIMFRAC
70
0
9
$DIMLTYPE
6
ByBlock
9
$DIMLTEX1
6
ByBlock
9
$DIMLTEX2
6
ByBlock
0
ENDSEC
0
SECTION
2
CLASSES
0
CLASS
1
RASTERVARIABLES
2
AcDbRasterVariables
3
ISM
90
0
280
0
281
0
0
ENDSEC
0
SECTION
2
TABLES
0
TABLE
2
APPID
5
4
330
0
100
AcDbSymbolTable
70
4
0
APPID
5
17
330
4
100
AcDbSymbolTableRecord
100
AcDbRegAppTableRecord
2
ACAD
70
0
0
APPID
5
25E
330
4
100
AcDbSymbolTableRecord
100
AcDbRegAppTableRecord
2
AcCmTransparency
70
0
0
APPID
5
25F
330
4
100
AcDbSymbolTableRecord
100
AcDbRegAppTableRecord
2
GradientColor1ACI
70
0
0
APPID
5
260
330
4
100
AcDbSymbolTableRecord
100
AcDbRegAppTableRecord
2
GradientColor2ACI
70
0
0
ENDTAB
0
TABLE
2
VPORT
5
1
330
0
100
AcDbSymbolTable
70
1
0
VPORT
5
2
330
1
100
AcDbSymbolTableRecord
100
AcDbViewportTableRecord
2
*Active
70
0
10
0.0
20
0.0
11
1.0
21
1.0
12
0.0
22
0.0
13
0.0
23
0.0
14
0.5
24
0.5
15
10.0
25
10.0
16
0.0
26
0.0
36
1.0
17
0.0
27
0.0
37
0.0
40
10.0
41
1.0
75
0
76
1
0
ENDTAB
0
TABLE
2
LTYPE
5
6
330
0
100
AcDbSymbolTable
70
3
0
LTYPE
5
13
330
6
100
AcDbSymbolTableRecord
100
AcDbLinetypeTableRecord
70
0
2
Continuous
3
Solid line
72
65
73
0
40
0.0
0
LTYPE
5
14
330
6
100
AcDbSymbolTableRecord
100
AcDbLinetypeTableRecord
70
0
2
ByLayer
3

72
65
73
0
40
0.0
0
LTYPE
5
15
330
6
100
AcDbSymbolTableRecord
100
AcDbLinetypeTableRecord
70
0
2
ByBlock
3

72
65
73
0
40
0.0
0
ENDTAB
0
TABLE
2
LAYER
5
5
330
0
100
AcDbSymbolTable
70
7
0
LAYER
5
12
330
5
100
AcDbSymbolTableRecord
100
AcDbLayerTableRecord
2
0
70
0
62
7
6
Continuous
290
1
370
-3
390
0
0
LAYER
5
21
330
5
100
AcDbSymbolTableRecord
100
AcDbLayerTableRecord
2
Hole
70
0
62
7
6
Continuous
290
1
370
-3
390
0
0
LAYER
5
23
330
5
100
AcDbSymbolTableRecord
100
AcDbLayerTableRecord
2
Theoretical Hole
70
0
62
7
6
Continuous
290
1
370
-3
390
0
0
LAYER
5
25
330
5
100
AcDbSymbolTableRecord
100
AcDbLayerTableRecord
2
Number
70
0
62
7
6
Continuous
290
1
370
-3
390
0
0
LAYER
5
27
330
5
100
AcDbSymbolTableRecord
100
AcDbLayerTableRecord
2
label
70
0
62
7
6
Continuous
290
1
370
-3
390
0
0
LAYER
5
29
330
5
100
AcDbSymbolTableRecord
100
AcDbLayerTableRecord
2
Length
70
0
62
7
6
Continuous
290
1
370
-3
390
0
0
LAYER
5
38
330
5
100
AcDbSymbolTableRecord
100
AcDbLayerTableRecord
2
Real Hole
70
0
62
7
6
Continuous
290
1
370
-3
390
0
0
ENDTAB
0
TABLE
2
STYLE
5
7
330
0
100
AcDbSymbolTable
70
1
0
STYLE
5
16
330
7
100
AcDbSymbolTableRecord
100
AcDbTextStyleTableRecord
2
Standard
3
simplex.shx
70
0
71
0
40
0.0
41
1.0
42
0.0
50
0.0
0
ENDTAB
0
TABLE
2
DIMSTYLE
5
8
330
0
100
AcDbSymbolTable
70
1
100
AcDbDimStyleTable
0
DIMSTYLE
105
18
330
8
100
AcDbSymbolTableRecord
100
AcDbDimStyleTableRecord
2
Standard
70
0
3
<>
40
1.0
41
0.18
42
0.0625
43
0.38
44
0.18
45
0.0
46
0.0
73
0
74
0
75
0
76
0
77
1
78
0
79
0
140
0.18
141
0.09
144
1.0
147
0.09
173
0
176
0
177
0
178
0
179
0
271
2
275
0
276
0
277
2
278
46
280
0
340
16
345
15
346
15
347
15
371
-2
372
-2
0
ENDTAB
0
TABLE
2
VIEW
5
3
330
0
100
AcDbSymbolTable
70
0
0
ENDTAB
0
TABLE
2
UCS
5
A
330
0
100
AcDbSymbolTable
70
0
0
ENDTAB
0
TABLE
2
BLOCK_RECORD
5
B
330
0
100
AcDbSymbolTable
70
2
0
BLOCK_RECORD
5
1A
330
B
100
AcDbSymbolTableRecord
100
AcDbBlockTableRecord
2
*Model_Space
340
1E
0
BLOCK_RECORD
5
258
330
B
100
AcDbSymbolTableRecord
100
AcDbBlockTableRecord
2
*Paper_Space
340
25D
0
ENDTAB
0
ENDSEC
0
SECTION
2
BLOCKS
0
BLOCK
5
1C
330
1A
100
AcDbEntity
8
0
100
AcDbBlockBegin
2
*Model_Space
70
0
10
0.0
20
0.0
30
0.0
3
*Model_Space
0
ENDBLK
5
1B
330
1A
100
AcDbEntity
8
0
100
AcDbBlockEnd
0
BLOCK
5
25A
330
258
100
AcDbEntity
8
0
100
AcDbBlockBegin
2
*Paper_Space
70
0
10
0.0
20
0.0
30
0.0
3
*Paper_Space
0
ENDBLK
5
259
330
258
100
AcDbEntity
8
0
100
AcDbBlockEnd
0
ENDSEC
0
SECTION
2
ENTITIES
0
POINT
5
20
330
1A
100
AcDbEntity
67
0
8
Hole
62
244
420
659967
6
ByLayer
370
-1
48
1.0
60
0
100
AcDbPoint
10
748571.673
20
8930347.10299969
30
190.252000006199
39
0.0
210
0.0
220
0.0
230
1.0
50
360.0
0
LINE
5
22
330
1A
100
AcDbEntity
67
0
8
Theoretical Hole
62
244
420
659967
6
ByLayer
370
-1
48
1.0
60
0
100
AcDbLine
10
748571.673
20
8930347.10299969
30
190.252000006199
11
748569.808231376
21
8930345.18005085
31
180.099419685364
39
0.0
210
0.0
220
0.0
230
1.0
0
TEXT
5
24
330
1A
100
AcDbEntity
67
0
8
Number
62
244
420
659967
6
ByLayer
370
-1
48
1.0
60
0
100
AcDbText
1
1
10
748571.673
20
8930347.4839997
30
190.252000006199
40
0.3
41
1.0
50
0.0
51
0.0
7
Standard
11
748571.673
21
8930347.4839997
31
190.252000006199
210
0.0
220
0.0
230
1.0
72
0
100
AcDbText
73
0
0
TEXT
5
26
330
1A
100
AcDbEntity
67
0
8
label
62
1
420
16711680
6
ByLayer
370
-1
48
1.0
60
0
100
AcDbText
1

10
748571.673
20
8930347.8839997
30
190.252000006199
40
0.3
41
1.0
50
0.0
51
0.0
7
Standard
11
748571.673
21
8930347.8839997
31
190.252000006199
210
0.0
220
0.0
230
1.0
72
0
100
AcDbText
73
0
0
TEXT
5
28
330
1A
100
AcDbEntity
67
0
8
Length
62
244
420
659967
6
ByLayer
370
-1
48
1.0
60
0
100
AcDbText
1
10.50
10
748571.673
20
8930346.34899968
30
190.252000006199
40
0.3
41
1.0
50
0.0
51
0.0
7
Standard
11
748571.673
21
8930346.34899968
31
190.252000006199
210
0.0
220
0.0
230
1.0
72
0
100
AcDbText
73
0
0
POLYLINE
5
37
330
1A
100
AcDbEntity
67
0
8
Real Hole
62
1
420
16711680
6
ByLayer
370
-1
48
1.0
60
0
100
AcDb3dPolyline
10
0.0
20
0.0
30
0.0
70
8
75
0
210
0.0
220
0.0
230
1.0
0
VERTEX
5
2A
100
AcDbEntity
8
Real Hole
62
1
420
16711680
100
AcDbVertex
100
AcDb3dPolylineVertex
10
748571.673
20
8930347.10299969
30
190.252000006199
70
32
0
VERTEX
5
2B
100
AcDbEntity
8
Real Hole
62
1
420
16711680
100
AcDbVertex
100
AcDb3dPolylineVertex
10
748571.495795749
20
8930346.89121604
30
189.290882798195
70
32
0
VERTEX
5
2C
100
AcDbEntity
8
Real Hole
62
1
420
16711680
100
AcDbVertex
100
AcDb3dPolylineVertex
10
748571.308072589
20
8930346.70125163
30
188.327205689907
70
32
0
VERTEX
5
2D
100
AcDbEntity
8
Real Hole
62
1
420
16711680
100
AcDbVertex
100
AcDb3dPolylineVertex
10
748571.124966584
20
8930346.48326629
30
187.368584545612
70
32
0
VERTEX
5
2E
100
AcDbEntity
8
Real Hole
62
1
420
16711680
100
AcDbVertex
100
AcDb3dPolylineVertex
10
748570.945736192
20
8930346.23891646
30
186.415605219364
70
32
0
VERTEX
5
2F
100
AcDbEntity
8
Real Hole
62
1
420
16711680
100
AcDbVertex
100
AcDb3dPolylineVertex
10
748570.789207898
20
8930345.99852753
30
185.457632215977
70
32
0
VERTEX
5
30
100
AcDbEntity
8
Real Hole
62
1
420
16711680
100
AcDbVertex
100
AcDb3dPolylineVertex
10
748570.652835153
20
8930345.76811755
30
184.494141729832
70
32
0
VERTEX
5
31
100
AcDbEntity
8
Real Hole
62
1
420
16711680
100
AcDbVertex
100
AcDb3dPolylineVertex
10
748570.481031321
20
8930345.54638958
30
183.534287603855
70
32
0
VERTEX
5
32
100
AcDbEntity
8
Real Hole
62
1
420
16711680
100
AcDbVertex
100
AcDb3dPolylineVertex
10
748570.293443106
20
8930345.29645479
30
182.584370287418
70
32
0
VERTEX
5
33
100
AcDbEntity
8
Real Hole
62
1
420
16711680
100
AcDbVertex
100
AcDb3dPolylineVertex
10
748570.13778188
20
8930345.03626084
30
181.631444128513
70
32
0
VERTEX
5
34
100
AcDbEntity
8
Real Hole
62
1
420
16711680
100
AcDbVertex
100
AcDb3dPolylineVertex
10
748569.991032742
20
8930344.75399756
30
180.683397444248
70
32
0
VERTEX
5
35
100
AcDbEntity
8
Real Hole
62
1
420
16711680
100
AcDbVertex
100
AcDb3dPolylineVertex
10
748569.931769631
20
8930344.64221048
30
180.303935202122
70
32
0
SEQEND
5
36
100
AcDbEntity
8
Real Hole
0
POINT
5
39
330
1A
100
AcDbEntity
67
0
8
Hole
62
244
420
659967
6
ByLayer
370
-1
48
1.0
60
0
100
AcDbPoint
10
748572.944999955
20
8930346.01799965
30
190.252999993324
39
0.0
210
0.0
220
0.0
230
1.0
50
360.0
0
LINE
5
3A
330
1A
100
AcDbEntity
67
0
8
Theoretical Hole
62
244
420
659967
6
ByLayer
370
-1
48
1.0
60
0
100
AcDbLine
10
748572.944999955
20
8930346.01799965
30
190.252999993324
11
748571.083564542
21
8930344.09848785
31
180.068138214111
39
0.0
210
0.0
220
0.0
230
1.0
0
TEXT
5
3B
330
1A
100
AcDbEntity
67
0
8
Number
62
244
420
659967
6
ByLayer
370
-1
48
1.0
60
0
100
AcDbText
1
2
10
748572.944999955
20
8930346.39899966
30
190.252999993324
40
0.3
41
1.0
50
0.0
51
0.0
7
Standard
11
748572.944999955
21
8930346.39899966
31
190.252999993324
210
0.0
220
0.0
230
1.0
72
0
100
AcDbText
73
0
0
TEXT
5
3C
330
1A
100
AcDbEntity
67
0
8
label
62
1
420
16711680
6
ByLayer
370
-1
48
1.0
60
0
100
AcDbText
1

10
748572.944999955
20
8930346.79899966
30
190.252999993324
40
0.3
41
1.0
50
0.0
51
0.0
7
Standard
11
748572.944999955
21
8930346.79899966
31
190.252999993324
210
0.0
220
0.0
230
1.0
72
0
100
AcDbText
73
0
0
TEXT
5
3D
330
1A
100
AcDbEntity
67
0
8
Length
62
244
420
659967
6
ByLayer
370
-1
48
1.0
60
0
100
AcDbText
1
10.53
10
748572.944999955
20
8930345.26399964
30
190.252999993324
40
0.3
41
1.0
50
0.0
51
0.0
7
Standard
11
748572.944999955
21
8930345.26399964
31
190.252999993324
210
0.0
220
0.0
230
1.0
72
0
100
AcDbText
73
0
0
POLYLINE
5
4B
330
1A
100
AcDbEntity
67
0
8
Real Hole
62
1
420
16711680
6
ByLayer
370
-1
48
1.0
60
0
100
AcDb3dPolyline
10
0.0
20
0.0
30
0.0
70
8
75
0
210
0.0
220
0.0
230
1.0
0
VERTEX
5
3E
100
AcDbEntity
8
Real Hole
62
1
420
16711680
100
AcDbVertex
100
AcDb3dPolylineVertex
10
748572.944999955
20
8930346.01799965
30
190.252999993324
70
32
0
VERTEX
5
3F
100
AcDbEntity
8
Real Hole
62
1
420
16711680
100
AcDbVertex
100
AcDb3dPolylineVertex
10
748572.811735026
20
8930345.74158964
30
189.301244767666
70
32
0
VERTEX
5
40
100
AcDbEntity
8
Real Hole
62
1
420
16711680
100
AcDbVertex
100
AcDb3dPolylineVertex
10
748572.672428213
20
8930345.48112893
30
188.345863314629
70
32
0
VERTEX
5
41
100
AcDbEntity
8
Real Hole
62
1
420
16711680
100
AcDbVertex
100
AcDb3dPolylineVertex
10
748572.520893864
20
8930345.23815185
30
187.387740345955
70
32
0
VERTEX
5
42
100
AcDbEntity
8
Real Hole
62
1
420
16711680
100
AcDbVertex
100
AcDb3dPolylineVertex
10
748572.365508697
20
8930344.97085142
30
186.436737748146
70
32
0
VERTEX
5
43
100
AcDbEntity
8
Real Hole
62
1
420
16711680
100
AcDbVertex
100
AcDb3dPolylineVertex
10
748572.246230267
20
8930344.68668282
30
185.485411854744
70
32
0
VERTEX
5
44
100
AcDbEntity
8
Real Hole
62
1
420
16711680
100
AcDbVertex
100
AcDb3dPolylineVertex
10
748572.142485939
20
8930344.40905845
30
184.530340405464
70
32
0
VERTEX
5
45
100
AcDbEntity
8
Real Hole
62
1
420
16711680
100
AcDbVertex
100
AcDb3dPolylineVertex
10
748572.014969371
20
8930344.15172708
30
183.57246753788
70
32
0
VERTEX
5
46
100
AcDbEntity
8
Real Hole
62
1
420
16711680
100
AcDbVertex
100
AcDb3dPolylineVertex
10
748571.875799201
20
8930343.87026119
30
182.62304231739
70
32
0
VERTEX
5
47
100
AcDbEntity
8
Real Hole
62
1
420
16711680
100
AcDbVertex
100
AcDb3dPolylineVertex
10
748571.759932659
20
8930343.57184863
30
181.675664635658
70
32
0
VERTEX
5
48
100
AcDbEntity
8
Real Hole
62
1
420
16711680
100
AcDbVertex
100
AcDb3dPolylineVertex
10
748571.64581301
20
8930343.27205706
30
180.728509636879
70
32
0
VERTEX
5
49
100
AcDbEntity
8
Real Hole
62
1
420
16711680
100
AcDbVertex
100
AcDb3dPolylineVertex
10
748571.610224269
20
8930343.17792392
30
180.445893021584
70
32
0
SEQEND
5
4A
100
AcDbEntity
8
Real Hole
0
POINT
5
4C
330
1A
100
AcDbEntity
67
0
8
Hole
62
244
420
659967
6
ByLayer
370
-1
48
1.0
60
0
100
AcDbPoint
10
748573.817999981
20
8930345.08199978
30
190.300000014067
39
0.0
210
0.0
220
0.0
230
1.0
50
360.0
0
LINE
5
4D
330
1A
100
AcDbEntity
67
0
8
Theoretical Hole
62
244
420
659967
6
ByLayer
370
-1
48
1.0
60
0
100
AcDbLine
10
748573.817999981
20
8930345.08199978
30
190.300000014067
11
748571.964876018
21
8930343.17105865
31
180.029347511291
39
0.0
210
0.0
220
0.0
230
1.0
0
TEXT
5
4E
330
1A
100
AcDbEntity
67
0
8
Number
62
244
420
659967
6
ByLayer
370
-1
48
1.0
60
0
100
AcDbText
1
3
10
748573.817999981
20
8930345.46299979
30
190.300000014067
40
0.3
41
1.0
50
0.0
51
0.0
7
Standard
11
748573.817999981
21
8930345.46299979
31
190.300000014067
210
0.0
220
0.0
230
1.0
72
0
100
AcDbText
73
0
0
TEXT
5
4F
330
1A
100
AcDbEntity
67
0
8
label
62
1
420
16711680
6
ByLayer
370
-1
48
1.0
60
0
100
AcDbText
1

10
748573.817999981
20
8930345.86299979
30
190.300000014067
40
0.3
41
1.0
50
0.0
51
0.0
7
Standard
11
748573.817999981
21
8930345.86299979
31
190.300000014067
210
0.0
220
0.0
230
1.0
72
0
100
AcDbText
73
0
0
TEXT
5
50
330
1A
100
AcDbEntity
67
0
8
Length
62
244
420
659967
6
ByLayer
370
-1
48
1.0
60
0
100
AcDbText
1
10.61
10
748573.817999981
20
8930344.32799977
30
190.300000014067
40
0.3
41
1.0
50
0.0
51
0.0
7
Standard
11
748573.817999981
21
8930344.32799977
31
190.300000014067
210
0.0
220
0.0
230
1.0
72
0
100
AcDbText
73
0
0
POLYLINE
5
5E
330
1A
100
AcDbEntity
67
0
8
Real Hole
62
1
420
16711680
6
ByLayer
370
-1
48
1.0
60
0
100
AcDb3dPolyline
10
0.0
20
0.0
30
0.0
70
8
75
0
210
0.0
220
0.0
230
1.0
0
VERTEX
5
51
100
AcDbEntity
8
Real Hole
62
1
420
16711680
100
AcDbVertex
100
AcDb3dPolylineVertex
10
748573.817999981
20
8930345.08199978
30
190.300000014067
70
32
0
VERTEX
5
52
100
AcDbEntity
8
Real Hole
62
1
420
16711680
100
AcDbVertex
100
AcDb3dPolylineVertex
10
748573.634673945
20
8930344.87280932
30
189.339463236094
70
32
0
VERTEX
5
53
100
AcDbEntity
8
Real Hole
62
1
420
16711680
100
AcDbVertex
100
AcDb3dPolylineVertex
10
748573.466166935
20
8930344.66560927
30
188.375786127806
70
32
0
VERTEX
5
54
100
AcDbEntity
8
Real Hole
62
1
420
16711680
100
AcDbVertex
100
AcDb3dPolylineVertex
10
748573.327036999
20
8930344.4370504
30
187.412249150038
70
32
0
VERTEX
5
55
100
AcDbEntity
8
Real Hole
62
1
420
16711680
100
AcDbVertex
100
AcDb3dPolylineVertex
10
748573.208593569
20
8930344.21569067
30
186.444276394606
70
32
0
VERTEX
5
56
100
AcDbEntity
8
Real Hole
62
1
420
16711680
100
AcDbVertex
100
AcDb3dPolylineVertex
10
748573.062561236
20
8930343.99047661
30
185.480973067045
70
32
0
VERTEX
5
57
100
AcDbEntity
8
Real Hole
62
1
420
16711680
100
AcDbVertex
100
AcDb3dPolylineVertex
10
748572.898993633
20
8930343.76116323
30
184.521462263823
70
32
0
VERTEX
5
58
100
AcDbEntity
8
Real Hole
62
1
420
16711680
100
AcDbVertex
100
AcDb3dPolylineVertex
10
748572.759424589
20
8930343.51765895
30
183.561657252073
70
32
0
VERTEX
5
59
100
AcDbEntity
8
Real Hole
62
1
420
16711680
100
AcDbVertex
100
AcDb3dPolylineVertex
10
748572.584728144
20
8930343.26760972
30
182.609314265013
70
32
0
VERTEX
5
5A
100
AcDbEntity
8
Real Hole
62
1
420
16711680
100
AcDbVertex
100
AcDb3dPolylineVertex
10
748572.424846671
20
8930343.01489782
30
181.6550739429
70
32
0
VERTEX
5
5B
100
AcDbEntity
8
Real Hole
62
1
420
16711680
100
AcDbVertex
100
AcDb3dPolylineVertex
10
748572.304115675
20
8930342.75228882
30
180.697754683256
70
32
0
VERTEX
5
5C
100
AcDbEntity
8
Real Hole
62
1
420
16711680
100
AcDbVertex
100
AcDb3dPolylineVertex
10
748572.242766879
20
8930342.62672806
30
180.217680754423
70
32
0
SEQEND
5
5D
100
AcDbEntity
8
Real Hole
0
POINT
5
5F
330
1A
100
AcDbEntity
67
0
8
Hole
62
244
420
659967
6
ByLayer
370
-1
48
1.0
60
0
100
AcDbPoint
10
748574.850000046
20
8930344.0010004
30
190.499999972343
39
0.0
210
0.0
220
0.0
230
1.0
50
360.0
0
LINE
5
60
330
1A
100
AcDbEntity
67
0
8
Theoretical Hole
62
244
420
659967
6
ByLayer
370
-1
48
1.0
60
0
100
AcDbLine
10
748574.850000046
20
8930344.0010004
30
190.499999972343
11
748573.099128507
21
8930342.03931427
31
180.169374557495
39
0.0
210
0.0
220
0.0
230
1.0
0
TEXT
5
61
330
1A
100
AcDbEntity
67
0
8
Number
62
244
420
659967
6
ByLayer
370
-1
48
1.0
60
0
100
AcDbText
1
4
10
748574.850000046
20
8930344.38200042
30
190.499999972343
40
0.3
41
1.0
50
0.0
51
0.0
7
Standard
11
748574.850000046
21
8930344.38200042
31
190.499999972343
210
0.0
220
0.0
230
1.0
72
0
100
AcDbText
73
0
0
TEXT
5
62
330
1A
100
AcDbEntity
67
0
8
label
62
1
420
16711680
6
ByLayer
370
-1
48
1.0
60
0
100
AcDbText
1

10
748574.850000046
20
8930344.78200042
30
190.499999972343
40
0.3
41
1.0
50
0.0
51
0.0
7
Standard
11
748574.850000046
21
8930344.78200042
31
190.499999972343
210
0.0
220
0.0
230
1.0
72
0
100
AcDbText
73
0
0
TEXT
5
63
330
1A
100
AcDbEntity
67
0
8
Length
62
244
420
659967
6
ByLayer
370
-1
48
1.0
60
0
100
AcDbText
1
10.66
10
748574.850000046
20
8930343.2470004
30
190.499999972343
40
0.3
41
1.0
50
0.0
51
0.0
7
Standard
11
748574.850000046
21
8930343.2470004
31
190.499999972343
210
0.0
220
0.0
230
1.0
72
0
100
AcDbText
73
0
0
POLYLINE
5
71
330
1A
100
AcDbEntity
67
0
8
Real Hole
62
1
420
16711680
6
ByLayer
370
-1
48
1.0
60
0
100
AcDb3dPolyline
10
0.0
20
0.0
30
0.0
70
8
75
0
210
0.0
220
0.0
230
1.0
0
VERTEX
5
64
100
AcDbEntity
8
Real Hole
62
1
420
16711680
100
AcDbVertex
100
AcDb3dPolylineVertex
10
748574.850000046
20
8930344.0010004
30
190.499999972343
70
32
0
VERTEX
5
65
100
AcDbEntity
8
Real Hole
62
1
420
16711680
100
AcDbVertex
100
AcDb3dPolylineVertex
10
748574.654613293
20
8930343.80161738
30
189.539755018711
70
32
0
VERTEX
5
66
100
AcDbEntity
8
Real Hole
62
1
420
16711680
100
AcDbVertex
100
AcDb3dPolylineVertex
10
748574.466715298
20
8930343.60409811
30
188.577632041931
70
32
0
VERTEX
5
67
100
AcDbEntity
8
Real Hole
62
1
420
16711680
100
AcDbVertex
100
AcDb3dPolylineVertex
10
748574.305828534
20
8930343.38714767
30
187.614798756599
70
32
0
VERTEX
5
68
100
AcDbEntity
8
Real Hole
62
1
420
16711680
100
AcDbVertex
100
AcDb3dPolylineVertex
10
748574.147890768
20
8930343.16928554
30
186.651683064461
70
32
0
VERTEX
5
69
100
AcDbEntity
8
Real Hole
62
1
420
16711680
100
AcDbVertex
100
AcDb3dPolylineVertex
10
748573.958327613
20
8930342.95532465
30
185.693410368919
70
32
0
VERTEX
5
6A
100
AcDbEntity
8
Real Hole
62
1
420
16711680
100
AcDbVertex
100
AcDb3dPolylineVertex
10
748573.768364928
20
8930342.71539319
30
184.741387816429
70
32
0
VERTEX
5
6B
100
AcDbEntity
8
Real Hole
62
1
420
16711680
100
AcDbVertex
100
AcDb3dPolylineVertex
10
748573.618018887
20
8930342.48396909
30
183.780222388268
70
32
0
VERTEX
5
6C
100
AcDbEntity
8
Real Hole
62
1
420
16711680
100
AcDbVertex
100
AcDb3dPolylineVertex
10
748573.452002428
20
8930342.25870728
30
182.820172759056
70
32
0
VERTEX
5
6D
100
AcDbEntity
8
Real Hole
62
1
420
16711680
100
AcDbVertex
100
AcDb3dPolylineVertex
10
748573.274119161
20
8930342.02688551
30
181.863817187309
70
32
0
VERTEX
5
6E
100
AcDbEntity
8
Real Hole
62
1
420
16711680
100
AcDbVertex
100
AcDb3dPolylineVertex
10
748573.087812922
20
8930341.78557229
30
180.911420794487
70
32
0
VERTEX
5
6F
100
AcDbEntity
8
Real Hole
62
1
420
16711680
100
AcDbVertex
100
AcDb3dPolylineVertex
10
748572.94312372
20
8930341.59405065
30
180.148280116081
70
32
0
SEQEND
5
70
100
AcDbEntity
8
Real Hole
0
POINT
5
72
330
1A
100
AcDbEntity
67
0
8
Hole
62
244
420
659967
6
ByLayer
370
-1
48
1.0
60
0
100
AcDbPoint
10
748575.863999985
20
8930342.94799995
30
190.414999993801
39
0.0
210
0.0
220
0.0
230
1.0
50
360.0
0
LINE
5
73
330
1A
100
AcDbEntity
67
0
8
Theoretical Hole
62
244
420
659967
6
ByLayer
370
-1
48
1.0
60
0
100
AcDbLine
10
748575.863999985
20
8930342.94799995
30
190.414999993801
11
748574.181383512
21
8930340.91551113
31
180.138332458496
39
0.0
210
0.0
220
0.0
230
1.0
0
TEXT
5
74
330
1A
100
AcDbEntity
67
0
8
Number
62
244
420
659967
6
ByLayer
370
-1
48
1.0
60
0
100
AcDbText
1
5
10
748575.863999985
20
8930343.32899997
30
190.414999993801
40
0.3
41
1.0
50
0.0
51
0.0
7
Standard
11
748575.863999985
21
8930343.32899997
31
190.414999993801
210
0.0
220
0.0
230
1.0
72
0
100
AcDbText
73
0
0
TEXT
5
75
330
1A
100
AcDbEntity
67
0
8
label
62
1
420
16711680
6
ByLayer
370
-1
48
1.0
60
0
100
AcDbText
1

10
748575.863999985
20
8930343.72899997
30
190.414999993801
40
0.3
41
1.0
50
0.0
51
0.0
7
Standard
11
748575.863999985
21
8930343.72899997
31
190.414999993801
210
0.0
220
0.0
230
1.0
72
0
100
AcDbText
73
0
0
TEXT
5
76
330
1A
100
AcDbEntity
67
0
8
Length
62
244
420
659967
6
ByLayer
370
-1
48
1.0
60
0
100
AcDbText
1
10.61
10
748575.863999985
20
8930342.19399995
30
190.414999993801
40
0.3
41
1.0
50
0.0
51
0.0
7
Standard
11
748575.863999985
21
8930342.19399995
31
190.414999993801
210
0.0
220
0.0
230
1.0
72
0
100
AcDbText
73
0
0
POLYLINE
5
84
330
1A
100
AcDbEntity
67
0
8
Real Hole
62
1
420
16711680
6
ByLayer
370
-1
48
1.0
60
0
100
AcDb3dPolyline
10
0.0
20
0.0
30
0.0
70
8
75
0
210
0.0
220
0.0
230
1.0
0
VERTEX
5
77
100
AcDbEntity
8
Real Hole
62
1
420
16711680
100
AcDbVertex
100
AcDb3dPolylineVertex
10
748575.863999985
20
8930342.94799995
30
190.414999993801
70
32
0
VERTEX
5
78
100
AcDbEntity
8
Real Hole
62
1
420
16711680
100
AcDbVertex
100
AcDb3dPolylineVertex
10
748575.741551086
20
8930342.72979862
30
189.446808668137
70
32
0
VERTEX
5
79
100
AcDbEntity
8
Real Hole
62
1
420
16711680
100
AcDbVertex
100
AcDb3dPolylineVertex
10
748575.634678788
20
8930342.52149007
30
188.474602015972
70
32
0
VERTEX
5
7A
100
AcDbEntity
8
Real Hole
62
1
420
16711680
100
AcDbVertex
100
AcDb3dPolylineVertex
10
748575.531129829
20
8930342.27075851
30
187.512099298
70
32
0
VERTEX
5
7B
100
AcDbEntity
8
Real Hole
62
1
420
16711680
100
AcDbVertex
100
AcDb3dPolylineVertex
10
748575.414961271
20
8930342.03570944
30
186.547082932949
70
32
0
VERTEX
5
7C
100
AcDbEntity
8
Real Hole
62
1
420
16711680
100
AcDbVertex
100
AcDb3dPolylineVertex
10
748575.27330067
20
8930341.82233155
30
185.580438169003
70
32
0
VERTEX
5
7D
100
AcDbEntity
8
Real Hole
62
1
420
16711680
100
AcDbVertex
100
AcDb3dPolylineVertex
10
748575.10162606
20
8930341.59860086
30
184.621025594234
70
32
0
VERTEX
5
7E
100
AcDbEntity
8
Real Hole
62
1
420
16711680
100
AcDbVertex
100
AcDb3dPolylineVertex
10
748574.960244022
20
8930341.34881067
30
183.663102658749
70
32
0
VERTEX
5
7F
100
AcDbEntity
8
Real Hole
62
1
420
16711680
100
AcDbVertex
100
AcDb3dPolylineVertex
10
748574.809576414
20
8930341.10983229
30
182.703838380337
70
32
0
VERTEX
5
80
100
AcDbEntity
8
Real Hole
62
1
420
16711680
100
AcDbVertex
100
AcDb3dPolylineVertex
10
748574.667291782
20
8930340.87199736
30
181.743010552883
70
32
0
VERTEX
5
81
100
AcDbEntity
8
Real Hole
62
1
420
16711680
100
AcDbVertex
100
AcDb3dPolylineVertex
10
748574.514587424
20
8930340.62561488
30
180.785944016933
70
32
0
VERTEX
5
82
100
AcDbEntity
8
Real Hole
62
1
420
16711680
100
AcDbVertex
100
AcDb3dPolylineVertex
10
748574.409200929
20
8930340.44461513
30
180.118012460232
70
32
0
SEQEND
5
83
100
AcDbEntity
8
Real Hole
0
POINT
5
85
330
1A
100
AcDbEntity
67
0
8
Hole
62
244
420
659967
6
ByLayer
370
-1
48
1.0
60
0
100
AcDbPoint
10
748577.263000153
20
8930341.91800022
30
190.250000002146
39
0.0
210
0.0
220
0.0
230
1.0
50
360.0
0
LINE
5
86
330
1A
100
AcDbEntity
67
0
8
Theoretical Hole
62
244
420
659967
6
ByLayer
370
-1
48
1.0
60
0
100
AcDbLine
10
748577.263000153
20
8930341.91800022
30
190.250000002146
11
748575.554852865
21
8930339.85467148
31
180.097419830322
39
0.0
210
0.0
220
0.0
230
1.0
0
TEXT
5
87
330
1A
100
AcDbEntity
67
0
8
Number
62
244
420
659967
6
ByLayer
370
-1
48
1.0
60
0
100
AcDbText
1
6
10
748577.263000153
20
8930342.29900023
30
190.250000002146
40
0.3
41
1.0
50
0.0
51
0.0
7
Standard
11
748577.263000153
21
8930342.29900023
31
190.250000002146
210
0.0
220
0.0
230
1.0
72
0
100
AcDbText
73
0
0
TEXT
5
88
330
1A
100
AcDbEntity
67
0
8
label
62
1
420
16711680
6
ByLayer
370
-1
48
1.0
60
0
100
AcDbText
1

10
748577.263000153
20
8930342.69900023
30
190.250000002146
40
0.3
41
1.0
50
0.0
51
0.0
7
Standard
11
748577.263000153
21
8930342.69900023
31
190.250000002146
210
0.0
220
0.0
230
1.0
72
0
100
AcDbText
73
0
0
TEXT
5
89
330
1A
100
AcDbEntity
67
0
8
Length
62
244
420
659967
6
ByLayer
370
-1
48
1.0
60
0
100
AcDbText
1
10.50
10
748577.263000153
20
8930341.16400021
30
190.250000002146
40
0.3
41
1.0
50
0.0
51
0.0
7
Standard
11
748577.263000153
21
8930341.16400021
31
190.250000002146
210
0.0
220
0.0
230
1.0
72
0
100
AcDbText
73
0
0
POLYLINE
5
97
330
1A
100
AcDbEntity
67
0
8
Real Hole
62
1
420
16711680
6
ByLayer
370
-1
48
1.0
60
0
100
AcDb3dPolyline
10
0.0
20
0.0
30
0.0
70
8
75
0
210
0.0
220
0.0
230
1.0
0
VERTEX
5
8A
100
AcDbEntity
8
Real Hole
62
1
420
16711680
100
AcDbVertex
100
AcDb3dPolylineVertex
10
748577.263000153
20
8930341.91800022
30
190.250000002146
70
32
0
VERTEX
5
8B
100
AcDbEntity
8
Real Hole
62
1
420
16711680
100
AcDbVertex
100
AcDb3dPolylineVertex
10
748577.083069451
20
8930341.72246405
30
189.285950960875
70
32
0
VERTEX
5
8C
100
AcDbEntity
8
Real Hole
62
1
420
16711680
100
AcDbVertex
100
AcDb3dPolylineVertex
10
748576.915729604
20
8930341.53576413
30
188.317890765429
70
32
0
VERTEX
5
8D
100
AcDbEntity
8
Real Hole
62
1
420
16711680
100
AcDbVertex
100
AcDb3dPolylineVertex
10
748576.768835775
20
8930341.32967442
30
187.35044598794
70
32
0
VERTEX
5
8E
100
AcDbEntity
8
Real Hole
62
1
420
16711680
100
AcDbVertex
100
AcDb3dPolylineVertex
10
748576.63061323
20
8930341.15263033
30
186.375997545481
70
32
0
VERTEX
5
8F
100
AcDbEntity
8
Real Hole
62
1
420
16711680
100
AcDbVertex
100
AcDb3dPolylineVertex
10
748576.461006425
20
8930340.95579189
30
185.410343172312
70
32
0
VERTEX
5
90
100
AcDbEntity
8
Real Hole
62
1
420
16711680
100
AcDbVertex
100
AcDb3dPolylineVertex
10
748576.285843215
20
8930340.76342511
30
184.44477987504
70
32
0
VERTEX
5
91
100
AcDbEntity
8
Real Hole
62
1
420
16711680
100
AcDbVertex
100
AcDb3dPolylineVertex
10
748576.131189487
20
8930340.56224024
30
183.477511884928
70
32
0
VERTEX
5
92
100
AcDbEntity
8
Real Hole
62
1
420
16711680
100
AcDbVertex
100
AcDb3dPolylineVertex
10
748575.998911045
20
8930340.34390855
30
182.510643961191
70
32
0
VERTEX
5
93
100
AcDbEntity
8
Real Hole
62
1
420
16711680
100
AcDbVertex
100
AcDb3dPolylineVertex
10
748575.854171417
20
8930340.1196605
30
181.546920778513
70
32
0
VERTEX
5
94
100
AcDbEntity
8
Real Hole
62
1
420
16711680
100
AcDbVertex
100
AcDb3dPolylineVertex
10
748575.708584331
20
8930339.8943584
30
180.583570482492
70
32
0
VERTEX
5
95
100
AcDbEntity
8
Real Hole
62
1
420
16711680
100
AcDbVertex
100
AcDb3dPolylineVertex
10
748575.692559264
20
8930339.87257481
30
180.487296106577
70
32
0
SEQEND
5
96
100
AcDbEntity
8
Real Hole
0
POINT
5
98
330
1A
100
AcDbEntity
67
0
8
Hole
62
244
420
659967
6
ByLayer
370
-1
48
1.0
60
0
100
AcDbPoint
10
748578.259999893
20
8930341.1789999
30
190.215999992847
39
0.0
210
0.0
220
0.0
230
1.0
50
360.0
0
LINE
5
99
330
1A
100
AcDbEntity
67
0
8
Theoretical Hole
62
244
420
659967
6
ByLayer
370
-1
48
1.0
60
0
100
AcDbLine
10
748578.259999893
20
8930341.1789999
30
190.215999992847
11
748576.542450092
21
8930339.10431385
31
180.150112243652
39
0.0
210
0.0
220
0.0
230
1.0
0
TEXT
5
9A
330
1A
100
AcDbEntity
67
0
8
Number
62
244
420
659967
6
ByLayer
370
-1
48
1.0
60
0
100
AcDbText
1
7
10
748578.259999893
20
8930341.55999991
30
190.215999992847
40
0.3
41
1.0
50
0.0
51
0.0
7
Standard
11
748578.259999893
21
8930341.55999991
31
190.215999992847
210
0.0
220
0.0
230
1.0
72
0
100
AcDbText
73
0
0
TEXT
5
9B
330
1A
100
AcDbEntity
67
0
8
label
62
1
420
16711680
6
ByLayer
370
-1
48
1.0
60
0
100
AcDbText
1

10
748578.259999893
20
8930341.95999991
30
190.215999992847
40
0.3
41
1.0
50
0.0
51
0.0
7
Standard
11
748578.259999893
21
8930341.95999991
31
190.215999992847
210
0.0
220
0.0
230
1.0
72
0
100
AcDbText
73
0
0
TEXT
5
9C
330
1A
100
AcDbEntity
67
0
8
Length
62
244
420
659967
6
ByLayer
370
-1
48
1.0
60
0
100
AcDbText
1
10.42
10
748578.259999893
20
8930340.42499989
30
190.215999992847
40
0.3
41
1.0
50
0.0
51
0.0
7
Standard
11
748578.259999893
21
8930340.42499989
31
190.215999992847
210
0.0
220
0.0
230
1.0
72
0
100
AcDbText
73
0
0
POLYLINE
5
AA
330
1A
100
AcDbEntity
67
0
8
Real Hole
62
1
420
16711680
6
ByLayer
370
-1
48
1.0
60
0
100
AcDb3dPolyline
10
0.0
20
0.0
30
0.0
70
8
75
0
210
0.0
220
0.0
230
1.0
0
VERTEX
5
9D
100
AcDbEntity
8
Real Hole
62
1
420
16711680
100
AcDbVertex
100
AcDb3dPolylineVertex
10
748578.259999893
20
8930341.1789999
30
190.215999992847
70
32
0
VERTEX
5
9E
100
AcDbEntity
8
Real Hole
62
1
420
16711680
100
AcDbVertex
100
AcDb3dPolylineVertex
10
748578.154680341
20
8930340.90232617
30
189.26082489109
70
32
0
VERTEX
5
9F
100
AcDbEntity
8
Real Hole
62
1
420
16711680
100
AcDbVertex
100
AcDb3dPolylineVertex
10
748578.050908841
20
8930340.64208895
30
188.300872834682
70
32
0
VERTEX
5
A0
100
AcDbEntity
8
Real Hole
62
1
420
16711680
100
AcDbVertex
100
AcDb3dPolylineVertex
10
748577.961103819
20
8930340.38664693
30
187.338228376865
70
32
0
VERTEX
5
A1
100
AcDbEntity
8
Real Hole
62
1
420
16711680
100
AcDbVertex
100
AcDb3dPolylineVertex
10
748577.858097009
20
8930340.11802471
30
186.380506189823
70
32
0
VERTEX
5
A2
100
AcDbEntity
8
Real Hole
62
1
420
16711680
100
AcDbVertex
100
AcDb3dPolylineVertex
10
748577.749047957
20
8930339.86505854
30
185.419196518421
70
32
0
VERTEX
5
A3
100
AcDbEntity
8
Real Hole
62
1
420
16711680
100
AcDbVertex
100
AcDb3dPolylineVertex
10
748577.608308814
20
8930339.59331346
30
184.467173965931
70
32
0
VERTEX
5
A4
100
AcDbEntity
8
Real Hole
62
1
420
16711680
100
AcDbVertex
100
AcDb3dPolylineVertex
10
748577.48174908
20
8930339.3260572
30
183.511895569324
70
32
0
VERTEX
5
A5
100
AcDbEntity
8
Real Hole
62
1
420
16711680
100
AcDbVertex
100
AcDb3dPolylineVertex
10
748577.361081682
20
8930339.05207896
30
182.557759674549
70
32
0
VERTEX
5
A6
100
AcDbEntity
8
Real Hole
62
1
420
16711680
100
AcDbVertex
100
AcDb3dPolylineVertex
10
748577.240028165
20
8930338.75823593
30
181.609602364063
70
32
0
VERTEX
5
A7
100
AcDbEntity
8
Real Hole
62
1
420
16711680
100
AcDbVertex
100
AcDb3dPolylineVertex
10
748577.120414398
20
8930338.45348716
30
180.664710434437
70
32
0
VERTEX
5
A8
100
AcDbEntity
8
Real Hole
62
1
420
16711680
100
AcDbVertex
100
AcDb3dPolylineVertex
10
748577.064954184
20
8930338.29825163
30
180.192665489674
70
32
0
SEQEND
5
A9
100
AcDbEntity
8
Real Hole
0
POINT
5
AB
330
1A
100
AcDbEntity
67
0
8
Hole
62
244
420
659967
6
ByLayer
370
-1
48
1.0
60
0
100
AcDbPoint
10
748579.497999809
20
8930340.13500023
30
190.084999995589
39
0.0
210
0.0
220
0.0
230
1.0
50
360.0
0
LINE
5
AC
330
1A
100
AcDbEntity
67
0
8
Theoretical Hole
62
244
420
659967
6
ByLayer
370
-1
48
1.0
60
0
100
AcDbLine
10
748579.497999809
20
8930340.13500023
30
190.084999995589
11
748577.820630691
21
8930338.02852297
31
180.091418357849
39
0.0
210
0.0
220
0.0
230
1.0
0
TEXT
5
AD
330
1A
100
AcDbEntity
67
0
8
Number
62
244
420
659967
6
ByLayer
370
-1
48
1.0
60
0
100
AcDbText
1
8
10
748579.497999809
20
8930340.51600024
30
190.084999995589
40
0.3
41
1.0
50
0.0
51
0.0
7
Standard
11
748579.497999809
21
8930340.51600024
31
190.084999995589
210
0.0
220
0.0
230
1.0
72
0
100
AcDbText
73
0
0
TEXT
5
AE
330
1A
100
AcDbEntity
67
0
8
label
62
1
420
16711680
6
ByLayer
370
-1
48
1.0
60
0
100
AcDbText
1

10
748579.497999809
20
8930340.91600024
30
190.084999995589
40
0.3
41
1.0
50
0.0
51
0.0
7
Standard
11
748579.497999809
21
8930340.91600024
31
190.084999995589
210
0.0
220
0.0
230
1.0
72
0
100
AcDbText
73
0
0
TEXT
5
AF
330
1A
100
AcDbEntity
67
0
8
Length
62
244
420
659967
6
ByLayer
370
-1
48
1.0
60
0
100
AcDbText
1
10.35
10
748579.497999809
20
8930339.38100022
30
190.084999995589
40
0.3
41
1.0
50
0.0
51
0.0
7
Standard
11
748579.497999809
21
8930339.38100022
31
190.084999995589
210
0.0
220
0.0
230
1.0
72
0
100
AcDbText
73
0
0
POLYLINE
5
BD
330
1A
100
AcDbEntity
67
0
8
Real Hole
62
1
420
16711680
6
ByLayer
370
-1
48
1.0
60
0
100
AcDb3dPolyline
10
0.0
20
0.0
30
0.0
70
8
75
0
210
0.0
220
0.0
230
1.0
0
VERTEX
5
B0
100
AcDbEntity
8
Real Hole
62
1
420
16711680
100
AcDbVertex
100
AcDb3dPolylineVertex
10
748579.497999809
20
8930340.13500023
30
190.084999995589
70
32
0
VERTEX
5
B1
100
AcDbEntity
8
Real Hole
62
1
420
16711680
100
AcDbVertex
100
AcDb3dPolylineVertex
10
748579.405955418
20
8930339.87216276
30
189.124560373187
70
32
0
VERTEX
5
B2
100
AcDbEntity
8
Real Hole
62
1
420
16711680
100
AcDbVertex
100
AcDb3dPolylineVertex
10
748579.323260657
20
8930339.61945647
30
188.160557704329
70
32
0
VERTEX
5
B3
100
AcDbEntity
8
Real Hole
62
1
420
16711680
100
AcDbVertex
100
AcDb3dPolylineVertex
10
748579.208747349
20
8930339.36560142
30
187.200118022323
70
32
0
VERTEX
5
B4
100
AcDbEntity
8
Real Hole
62
1
420
16711680
100
AcDbVertex
100
AcDb3dPolylineVertex
10
748579.107939623
20
8930339.12960327
30
186.233607488036
70
32
0
VERTEX
5
B5
100
AcDbEntity
8
Real Hole
62
1
420
16711680
100
AcDbVertex
100
AcDb3dPolylineVertex
10
748578.963852427
20
8930338.8671844
30
185.279471831679
70
32
0
VERTEX
5
B6
100
AcDbEntity
8
Real Hole
62
1
420
16711680
100
AcDbVertex
100
AcDb3dPolylineVertex
10
748578.808206163
20
8930338.60814548
30
184.326228099227
70
32
0
VERTEX
5
B7
100
AcDbEntity
8
Real Hole
62
1
420
16711680
100
AcDbVertex
100
AcDb3dPolylineVertex
10
748578.662262819
20
8930338.35403419
30
183.37012763536
70
32
0
VERTEX
5
B8
100
AcDbEntity
8
Real Hole
62
1
420
16711680
100
AcDbVertex
100
AcDb3dPolylineVertex
10
748578.509098731
20
8930338.07519937
30
182.422081427932
70
32
0
VERTEX
5
B9
100
AcDbEntity
8
Real Hole
62
1
420
16711680
100
AcDbVertex
100
AcDb3dPolylineVertex
10
748578.366539977
20
8930337.7883935
30
181.47475905931
70
32
0
VERTEX
5
BA
100
AcDbEntity
8
Real Hole
62
1
420
16711680
100
AcDbVertex
100
AcDb3dPolylineVertex
10
748578.239363335
20
8930337.49408293
30
180.52754874742
70
32
0
VERTEX
5
BB
100
AcDbEntity
8
Real Hole
62
1
420
16711680
100
AcDbVertex
100
AcDb3dPolylineVertex
10
748578.202364467
20
8930337.40278292
30
180.244184451461
70
32
0
SEQEND
5
BC
100
AcDbEntity
8
Real Hole
0
POINT
5
BE
330
1A
100
AcDbEntity
67
0
8
Hole
62
244
420
659967
6
ByLayer
370
-1
48
1.0
60
0
100
AcDbPoint
10
748580.86299958
20
8930339.19399977
30
190.089000003695
39
0.0
210
0.0
220
0.0
230
1.0
50
360.0
0
LINE
5
BF
330
1A
100
AcDbEntity
67
0
8
Theoretical Hole
62
244
420
659967
6
ByLayer
370
-1
48
1.0
60
0
100
AcDbLine
10
748580.86299958
20
8930339.19399977
30
190.089000003695
11
748579.234939239
21
8930337.02089095
31
180.142989250183
39
0.0
210
0.0
220
0.0
230
1.0
0
TEXT
5
C0
330
1A
100
AcDbEntity
67
0
8
Number
62
244
420
659967
6
ByLayer
370
-1
48
1.0
60
0
100
AcDbText
1
9
10
748580.86299958
20
8930339.57499978
30
190.089000003695
40
0.3
41
1.0
50
0.0
51
0.0
7
Standard
11
748580.86299958
21
8930339.57499978
31
190.089000003695
210
0.0
220
0.0
230
1.0
72
0
100
AcDbText
73
0
0
TEXT
5
C1
330
1A
100
AcDbEntity
67
0
8
label
62
1
420
16711680
6
ByLayer
370
-1
48
1.0
60
0
100
AcDbText
1

10
748580.86299958
20
8930339.97499978
30
190.089000003695
40
0.3
41
1.0
50
0.0
51
0.0
7
Standard
11
748580.86299958
21
8930339.97499978
31
190.089000003695
210
0.0
220
0.0
230
1.0
72
0
100
AcDbText
73
0
0
TEXT
5
C2
330
1A
100
AcDbEntity
67
0
8
Length
62
244
420
659967
6
ByLayer
370
-1
48
1.0
60
0
100
AcDbText
1
10.31
10
748580.86299958
20
8930338.43999976
30
190.089000003695
40
0.3
41
1.0
50
0.0
51
0.0
7
Standard
11
748580.86299958
21
8930338.43999976
31
190.089000003695
210
0.0
220
0.0
230
1.0
72
0
100
AcDbText
73
0
0
POLYLINE
5
D0
330
1A
100
AcDbEntity
67
0
8
Real Hole
62
1
420
16711680
6
ByLayer
370
-1
48
1.0
60
0
100
AcDb3dPolyline
10
0.0
20
0.0
30
0.0
70
8
75
0
210
0.0
220
0.0
230
1.0
0
VERTEX
5
C3
100
AcDbEntity
8
Real Hole
62
1
420
16711680
100
AcDbVertex
100
AcDb3dPolylineVertex
10
748580.86299958
20
8930339.19399977
30
190.089000003695
70
32
0
VERTEX
5
C4
100
AcDbEntity
8
Real Hole
62
1
420
16711680
100
AcDbVertex
100
AcDb3dPolylineVertex
10
748580.697840996
20
8930338.94831054
30
189.133824901938
70
32
0
VERTEX
5
C5
100
AcDbEntity
8
Real Hole
62
1
420
16711680
100
AcDbVertex
100
AcDb3dPolylineVertex
10
748580.536865137
20
8930338.68726099
30
188.182016151309
70
32
0
VERTEX
5
C6
100
AcDbEntity
8
Real Hole
62
1
420
16711680
100
AcDbVertex
100
AcDb3dPolylineVertex
10
748580.383906208
20
8930338.45333701
30
187.22186877048
70
32
0
VERTEX
5
C7
100
AcDbEntity
8
Real Hole
62
1
420
16711680
100
AcDbVertex
100
AcDb3dPolylineVertex
10
748580.243365787
20
8930338.22920948
30
186.257495658755
70
32
0
VERTEX
5
C8
100
AcDbEntity
8
Real Hole
62
1
420
16711680
100
AcDbVertex
100
AcDb3dPolylineVertex
10
748580.0766327
20
8930337.98478794
30
185.302268760562
70
32
0
VERTEX
5
C9
100
AcDbEntity
8
Real Hole
62
1
420
16711680
100
AcDbVertex
100
AcDb3dPolylineVertex
10
748579.917936526
20
8930337.72662914
30
184.349289672732
70
32
0
VERTEX
5
CA
100
AcDbEntity
8
Real Hole
62
1
420
16711680
100
AcDbVertex
100
AcDb3dPolylineVertex
10
748579.770840548
20
8930337.48211002
30
183.390867488742
70
32
0
VERTEX
5
CB
100
AcDbEntity
8
Real Hole
62
1
420
16711680
100
AcDbVertex
100
AcDb3dPolylineVertex
10
748579.615673206
20
8930337.23097122
30
182.435434120059
70
32
0
VERTEX
5
CC
100
AcDbEntity
8
Real Hole
62
1
420
16711680
100
AcDbVertex
100
AcDb3dPolylineVertex
10
748579.469139002
20
8930336.999892
30
181.473597782016
70
32
0
VERTEX
5
CD
100
AcDbEntity
8
Real Hole
62
1
420
16711680
100
AcDbVertex
100
AcDb3dPolylineVertex
10
748579.327435396
20
8930336.74530077
30
180.516987102389
70
32
0
VERTEX
5
CE
100
AcDbEntity
8
Real Hole
62
1
420
16711680
100
AcDbVertex
100
AcDb3dPolylineVertex
10
748579.297885201
20
8930336.69272923
30
180.326296108127
70
32
0
SEQEND
5
CF
100
AcDbEntity
8
Real Hole
0
POINT
5
D1
330
1A
100
AcDbEntity
67
0
8
Hole
62
244
420
659967
6
ByLayer
370
-1
48
1.0
60
0
100
AcDbPoint
10
748581.93399968
20
8930338.27899981
30
190.078999998331
39
0.0
210
0.0
220
0.0
230
1.0
50
360.0
0
LINE
5
D2
330
1A
100
AcDbEntity
67
0
8
Theoretical Hole
62
244
420
659967
6
ByLayer
370
-1
48
1.0
60
0
100
AcDbLine
10
748581.93399968
20
8930338.27899981
30
190.078999998331
11
748580.367012642
21
8930336.04360271
31
180.16809854126
39
0.0
210
0.0
220
0.0
230
1.0
0
TEXT
5
D3
330
1A
100
AcDbEntity
67
0
8
Number
62
244
420
659967
6
ByLayer
370
-1
48
1.0
60
0
100
AcDbText
1
10
10
748581.93399968
20
8930338.65999982
30
190.078999998331
40
0.3
41
1.0
50
0.0
51
0.0
7
Standard
11
748581.93399968
21
8930338.65999982
31
190.078999998331
210
0.0
220
0.0
230
1.0
72
0
100
AcDbText
73
0
0
TEXT
5
D4
330
1A
100
AcDbEntity
67
0
8
label
62
1
420
16711680
6
ByLayer
370
-1
48
1.0
60
0
100
AcDbText
1

10
748581.93399968
20
8930339.05999982
30
190.078999998331
40
0.3
41
1.0
50
0.0
51
0.0
7
Standard
11
748581.93399968
21
8930339.05999982
31
190.078999998331
210
0.0
220
0.0
230
1.0
72
0
100
AcDbText
73
0
0
TEXT
5
D5
330
1A
100
AcDbEntity
67
0
8
Length
62
244
420
659967
6
ByLayer
370
-1
48
1.0
60
0
100
AcDbText
1
10.28
10
748581.93399968
20
8930337.5249998
30
190.078999998331
40
0.3
41
1.0
50
0.0
51
0.0
7
Standard
11
748581.93399968
21
8930337.5249998
31
190.078999998331
210
0.0
220
0.0
230
1.0
72
0
100
AcDbText
73
0
0
POLYLINE
5
E3
330
1A
100
AcDbEntity
67
0
8
Real Hole
62
1
420
16711680
6
ByLayer
370
-1
48
1.0
60
0
100
AcDb3dPolyline
10
0.0
20
0.0
30
0.0
70
8
75
0
210
0.0
220
0.0
230
1.0
0
VERTEX
5
D6
100
AcDbEntity
8
Real Hole
62
1
420
16711680
100
AcDbVertex
100
AcDb3dPolylineVertex
10
748581.93399968
20
8930338.27899981
30
190.078999998331
70
32
0
VERTEX
5
D7
100
AcDbEntity
8
Real Hole
62
1
420
16711680
100
AcDbVertex
100
AcDb3dPolylineVertex
10
748581.786391444
20
8930338.0568316
30
189.115229727983
70
32
0
VERTEX
5
D8
100
AcDbEntity
8
Real Hole
62
1
420
16711680
100
AcDbVertex
100
AcDb3dPolylineVertex
10
748581.63233637
20
8930337.82644606
30
188.154402258158
70
32
0
VERTEX
5
D9
100
AcDbEntity
8
Real Hole
62
1
420
16711680
100
AcDbVertex
100
AcDb3dPolylineVertex
10
748581.493008963
20
8930337.58492917
30
187.194059850931
70
32
0
VERTEX
5
DA
100
AcDbEntity
8
Real Hole
62
1
420
16711680
100
AcDbVertex
100
AcDb3dPolylineVertex
10
748581.343334279
20
8930337.34296298
30
186.235388996363
70
32
0
VERTEX
5
DB
100
AcDbEntity
8
Real Hole
62
1
420
16711680
100
AcDbVertex
100
AcDb3dPolylineVertex
10
748581.184771262
20
8930337.09454763
30
185.279801370859
70
32
0
VERTEX
5
DC
100
AcDbEntity
8
Real Hole
62
1
420
16711680
100
AcDbVertex
100
AcDb3dPolylineVertex
10
748581.052173517
20
8930336.83397293
30
184.323496820688
70
32
0
VERTEX
5
DD
100
AcDbEntity
8
Real Hole
62
1
420
16711680
100
AcDbVertex
100
AcDb3dPolylineVertex
10
748580.925944589
20
8930336.57619357
30
183.365573885202
70
32
0
VERTEX
5
DE
100
AcDbEntity
8
Real Hole
62
1
420
16711680
100
AcDbVertex
100
AcDb3dPolylineVertex
10
748580.809120081
20
8930336.33528221
30
182.402083399057
70
32
0
VERTEX
5
DF
100
AcDbEntity
8
Real Hole
62
1
420
16711680
100
AcDbVertex
100
AcDb3dPolylineVertex
10
748580.689212702
20
8930336.07708168
30
181.443461897135
70
32
0
VERTEX
5
E0
100
AcDbEntity
8
Real Hole
62
1
420
16711680
100
AcDbVertex
100
AcDb3dPolylineVertex
10
748580.568270467
20
8930335.81365061
30
180.486395361185
70
32
0
VERTEX
5
E1
100
AcDbEntity
8
Real Hole
62
1
420
16711680
100
AcDbVertex
100
AcDb3dPolylineVertex
10
748580.544888637
20
8930335.76030922
30
180.295063497782
70
32
0
SEQEND
5
E2
100
AcDbEntity
8
Real Hole
0
POINT
5
E4
330
1A
100
AcDbEntity
67
0
8
Hole
62
244
420
659967
6
ByLayer
370
-1
48
1.0
60
0
100
AcDbPoint
10
748583.089999817
20
8930337.52800012
30
190.032000007391
39
0.0
210
0.0
220
0.0
230
1.0
50
360.0
0
LINE
5
E5
330
1A
100
AcDbEntity
67
0
8
Theoretical Hole
62
244
420
659967
6
ByLayer
370
-1
48
1.0
60
0
100
AcDbLine
10
748583.089999817
20
8930337.52800012
30
190.032000007391
11
748581.643669746
21
8930335.2259239
31
180.107652755737
39
0.0
210
0.0
220
0.0
230
1.0
0
TEXT
5
E6
330
1A
100
AcDbEntity
67
0
8
Number
62
244
420
659967
6
ByLayer
370
-1
48
1.0
60
0
100
AcDbText
1
11
10
748583.089999817
20
8930337.90900013
30
190.032000007391
40
0.3
41
1.0
50
0.0
51
0.0
7
Standard
11
748583.089999817
21
8930337.90900013
31
190.032000007391
210
0.0
220
0.0
230
1.0
72
0
100
AcDbText
73
0
0
TEXT
5
E7
330
1A
100
AcDbEntity
67
0
8
label
62
1
420
16711680
6
ByLayer
370
-1
48
1.0
60
0
100
AcDbText
1

10
748583.089999817
20
8930338.30900013
30
190.032000007391
40
0.3
41
1.0
50
0.0
51
0.0
7
Standard
11
748583.089999817
21
8930338.30900013
31
190.032000007391
210
0.0
220
0.0
230
1.0
72
0
100
AcDbText
73
0
0
TEXT
5
E8
330
1A
100
AcDbEntity
67
0
8
Length
62
244
420
659967
6
ByLayer
370
-1
48
1.0
60
0
100
AcDbText
1
10.29
10
748583.089999817
20
8930336.77400011
30
190.032000007391
40
0.3
41
1.0
50
0.0
51
0.0
7
Standard
11
748583.089999817
21
8930336.77400011
31
190.032000007391
210
0.0
220
0.0
230
1.0
72
0
100
AcDbText
73
0
0
POLYLINE
5
F6
330
1A
100
AcDbEntity
67
0
8
Real Hole
62
1
420
16711680
6
ByLayer
370
-1
48
1.0
60
0
100
AcDb3dPolyline
10
0.0
20
0.0
30
0.0
70
8
75
0
210
0.0
220
0.0
230
1.0
0
VERTEX
5
E9
100
AcDbEntity
8
Real Hole
62
1
420
16711680
100
AcDbVertex
100
AcDb3dPolylineVertex
10
748583.089999817
20
8930337.52800012
30
190.032000007391
70
32
0
VERTEX
5
EA
100
AcDbEntity
8
Real Hole
62
1
420
16711680
100
AcDbVertex
100
AcDb3dPolylineVertex
10
748582.962783195
20
8930337.31509946
30
189.06324345088
70
32
0
VERTEX
5
EB
100
AcDbEntity
8
Real Hole
62
1
420
16711680
100
AcDbVertex
100
AcDb3dPolylineVertex
10
748582.812060557
20
8930337.09912401
30
188.098547997236
70
32
0
VERTEX
5
EC
100
AcDbEntity
8
Real Hole
62
1
420
16711680
100
AcDbVertex
100
AcDb3dPolylineVertex
10
748582.681001476
20
8930336.87457347
30
187.132939042807
70
32
0
VERTEX
5
ED
100
AcDbEntity
8
Real Hole
62
1
420
16711680
100
AcDbVertex
100
AcDb3dPolylineVertex
10
748582.515146158
20
8930336.65295076
30
186.172014894247
70
32
0
VERTEX
5
EE
100
AcDbEntity
8
Real Hole
62
1
420
16711680
100
AcDbVertex
100
AcDb3dPolylineVertex
10
748582.34425982
20
8930336.43796301
30
185.210464896917
70
32
0
VERTEX
5
EF
100
AcDbEntity
8
Real Hole
62
1
420
16711680
100
AcDbVertex
100
AcDb3dPolylineVertex
10
748582.168481431
20
8930336.20621562
30
184.253702106237
70
32
0
VERTEX
5
F0
100
AcDbEntity
8
Real Hole
62
1
420
16711680
100
AcDbVertex
100
AcDb3dPolylineVertex
10
748581.991185687
20
8930335.97373426
30
183.297397556067
70
32
0
VERTEX
5
F1
100
AcDbEntity
8
Real Hole
62
1
420
16711680
100
AcDbVertex
100
AcDb3dPolylineVertex
10
748581.821887873
20
8930335.75579107
30
182.336232127905
70
32
0
VERTEX
5
F2
100
AcDbEntity
8
Real Hole
62
1
420
16711680
100
AcDbVertex
100
AcDb3dPolylineVertex
10
748581.642949722
20
8930335.53243971
30
181.378058852911
70
32
0
VERTEX
5
F3
100
AcDbEntity
8
Real Hole
62
1
420
16711680
100
AcDbVertex
100
AcDb3dPolylineVertex
10
748581.478715322
20
8930335.32162333
30
180.414429130316
70
32
0
VERTEX
5
F4
100
AcDbEntity
8
Real Hole
62
1
420
16711680
100
AcDbVertex
100
AcDb3dPolylineVertex
10
748581.431879781
20
8930335.25513101
30
180.125664176702
70
32
0
SEQEND
5
F5
100
AcDbEntity
8
Real Hole
0
POINT
5
F7
330
1A
100
AcDbEntity
67
0
8
Hole
62
244
420
659967
6
ByLayer
370
-1
48
1.0
60
0
100
AcDbPoint
10
748584.186999939
20
8930336.71099997
30
190.129999997377
39
0.0
210
0.0
220
0.0
230
1.0
50
360.0
0
LINE
5
F8
330
1A
100
AcDbEntity
67
0
8
Theoretical Hole
62
244
420
659967
6
ByLayer
370
-1
48
1.0
60
0
100
AcDbLine
10
748584.186999939
20
8930336.71099997
30
190.129999997377
11
748582.819811485
21
8930334.3628791
31
180.10157975769
39
0.0
210
0.0
220
0.0
230
1.0
0
TEXT
5
F9
330
1A
100
AcDbEntity
67
0
8
Number
62
244
420
659967
6
ByLayer
370
-1
48
1.0
60
0
100
AcDbText
1
12
10
748584.186999939
20
8930337.09199998
30
190.129999997377
40
0.3
41
1.0
50
0.0
51
0.0
7
Standard
11
748584.186999939
21
8930337.09199998
31
190.129999997377
210
0.0
220
0.0
230
1.0
72
0
100
AcDbText
73
0
0
TEXT
5
FA
330
1A
100
AcDbEntity
67
0
8
label
62
1
420
16711680
6
ByLayer
370
-1
48
1.0
60
0
100
AcDbText
1

10
748584.186999939
20
8930337.49199998
30
190.129999997377
40
0.3
41
1.0
50
0.0
51
0.0
7
Standard
11
748584.186999939
21
8930337.49199998
31
190.129999997377
210
0.0
220
0.0
230
1.0
72
0
100
AcDbText
73
0
0
TEXT
5
FB
330
1A
100
AcDbEntity
67
0
8
Length
62
244
420
659967
6
ByLayer
370
-1
48
1.0
60
0
100
AcDbText
1
10.39
10
748584.186999939
20
8930335.95699996
30
190.129999997377
40
0.3
41
1.0
50
0.0
51
0.0
7
Standard
11
748584.186999939
21
8930335.95699996
31
190.129999997377
210
0.0
220
0.0
230
1.0
72
0
100
AcDbText
73
0
0
POLYLINE
5
109
330
1A
100
AcDbEntity
67
0
8
Real Hole
62
1
420
16711680
6
ByLayer
370
-1
48
1.0
60
0
100
AcDb3dPolyline
10
0.0
20
0.0
30
0.0
70
8
75
0
210
0.0
220
0.0
230
1.0
0
VERTEX
5
FC
100
AcDbEntity
8
Real Hole
62
1
420
16711680
100
AcDbVertex
100
AcDb3dPolylineVertex
10
748584.186999939
20
8930336.71099997
30
190.129999997377
70
32
0
VERTEX
5
FD
100
AcDbEntity
8
Real Hole
62
1
420
16711680
100
AcDbVertex
100
AcDb3dPolylineVertex
10
748584.093766801
20
8930336.49199435
30
189.158740939856
70
32
0
VERTEX
5
FE
100
AcDbEntity
8
Real Hole
62
1
420
16711680
100
AcDbVertex
100
AcDb3dPolylineVertex
10
748584.000290848
20
8930336.26886109
30
188.188445212603
70
32
0
VERTEX
5
FF
100
AcDbEntity
8
Real Hole
62
1
420
16711680
100
AcDbVertex
100
AcDb3dPolylineVertex
10
748583.909225158
20
8930336.06801474
30
187.213064315081
70
32
0
VERTEX
5
100
100
AcDbEntity
8
Real Hole
62
1
420
16711680
100
AcDbVertex
100
AcDb3dPolylineVertex
10
748583.806186042
20
8930335.85081923
30
186.24238980031
70
32
0
VERTEX
5
101
100
AcDbEntity
8
Real Hole
62
1
420
16711680
100
AcDbVertex
100
AcDb3dPolylineVertex
10
748583.666689656
20
8930335.62921715
30
185.277282120943
70
32
0
VERTEX
5
102
100
AcDbEntity
8
Real Hole
62
1
420
16711680
100
AcDbVertex
100
AcDb3dPolylineVertex
10
748583.51780691
20
8930335.43574929
30
184.307537438631
70
32
0
VERTEX
5
103
100
AcDbEntity
8
Real Hole
62
1
420
16711680
100
AcDbVertex
100
AcDb3dPolylineVertex
10
748583.361101351
20
8930335.24395132
30
183.338694455385
70
32
0
VERTEX
5
104
100
AcDbEntity
8
Real Hole
62
1
420
16711680
100
AcDbVertex
100
AcDb3dPolylineVertex
10
748583.190231822
20
8930335.05000138
30
182.37267863965
70
32
0
VERTEX
5
105
100
AcDbEntity
8
Real Hole
62
1
420
16711680
100
AcDbVertex
100
AcDb3dPolylineVertex
10
748583.008120439
20
8930334.8448844
30
181.411032559633
70
32
0
VERTEX
5
106
100
AcDbEntity
8
Real Hole
62
1
420
16711680
100
AcDbVertex
100
AcDb3dPolylineVertex
10
748582.848032377
20
8930334.6374557
30
180.445970418215
70
32
0
VERTEX
5
107
100
AcDbEntity
8
Real Hole
62
1
420
16711680
100
AcDbVertex
100
AcDb3dPolylineVertex
10
748582.833356045
20
8930334.61702394
30
180.349186780214
70
32
0
SEQEND
5
108
100
AcDbEntity
8
Real Hole
0
POINT
5
10A
330
1A
100
AcDbEntity
67
0
8
Hole
62
244
420
659967
6
ByLayer
370
-1
48
1.0
60
0
100
AcDbPoint
10
748585.839000366
20
8930335.92700005
30
190.287999989748
39
0.0
210
0.0
220
0.0
230
1.0
50
360.0
0
LINE
5
10B
330
1A
100
AcDbEntity
67
0
8
Theoretical Hole
62
244
420
659967
6
ByLayer
370
-1
48
1.0
60
0
100
AcDbLine
10
748585.839000366
20
8930335.92700005
30
190.287999989748
11
748584.572728775
21
8930333.55049451
31
180.139169784546
39
0.0
210
0.0
220
0.0
230
1.0
0
TEXT
5
10C
330
1A
100
AcDbEntity
67
0
8
Number
62
244
420
659967
6
ByLayer
370
-1
48
1.0
60
0
100
AcDbText
1
13
10
748585.839000366
20
8930336.30800006
30
190.287999989748
40
0.3
41
1.0
50
0.0
51
0.0
7
Standard
11
748585.839000366
21
8930336.30800006
31
190.287999989748
210
0.0
220
0.0
230
1.0
72
0
100
AcDbText
73
0
0
TEXT
5
10D
330
1A
100
AcDbEntity
67
0
8
label
62
1
420
16711680
6
ByLayer
370
-1
48
1.0
60
0
100
AcDbText
1

10
748585.839000366
20
8930336.70800006
30
190.287999989748
40
0.3
41
1.0
50
0.0
51
0.0
7
Standard
11
748585.839000366
21
8930336.70800006
31
190.287999989748
210
0.0
220
0.0
230
1.0
72
0
100
AcDbText
73
0
0
TEXT
5
10E
330
1A
100
AcDbEntity
67
0
8
Length
62
244
420
659967
6
ByLayer
370
-1
48
1.0
60
0
100
AcDbText
1
10.50
10
748585.839000366
20
8930335.17300004
30
190.287999989748
40
0.3
41
1.0
50
0.0
51
0.0
7
Standard
11
748585.839000366
21
8930335.17300004
31
190.287999989748
210
0.0
220
0.0
230
1.0
72
0
100
AcDbText
73
0
0
POLYLINE
5
11C
330
1A
100
AcDbEntity
67
0
8
Real Hole
62
1
420
16711680
6
ByLayer
370
-1
48
1.0
60
0
100
AcDb3dPolyline
10
0.0
20
0.0
30
0.0
70
8
75
0
210
0.0
220
0.0
230
1.0
0
VERTEX
5
10F
100
AcDbEntity
8
Real Hole
62
1
420
16711680
100
AcDbVertex
100
AcDb3dPolylineVertex
10
748585.839000366
20
8930335.92700005
30
190.287999989748
70
32
0
VERTEX
5
110
100
AcDbEntity
8
Real Hole
62
1
420
16711680
100
AcDbVertex
100
AcDb3dPolylineVertex
10
748585.768302992
20
8930335.68381663
30
189.32059949851
70
32
0
VERTEX
5
111
100
AcDbEntity
8
Real Hole
62
1
420
16711680
100
AcDbVertex
100
AcDb3dPolylineVertex
10
748585.692211903
20
8930335.43555382
30
188.354899885416
70
32
0
VERTEX
5
112
100
AcDbEntity
8
Real Hole
62
1
420
16711680
100
AcDbVertex
100
AcDb3dPolylineVertex
10
748585.580351047
20
8930335.20721745
30
187.38776505208
70
32
0
VERTEX
5
113
100
AcDbEntity
8
Real Hole
62
1
420
16711680
100
AcDbVertex
100
AcDb3dPolylineVertex
10
748585.470663897
20
8930334.98817736
30
186.418234231234
70
32
0
VERTEX
5
114
100
AcDbEntity
8
Real Hole
62
1
420
16711680
100
AcDbVertex
100
AcDb3dPolylineVertex
10
748585.332576118
20
8930334.78912461
30
185.448023202181
70
32
0
VERTEX
5
115
100
AcDbEntity
8
Real Hole
62
1
420
16711680
100
AcDbVertex
100
AcDb3dPolylineVertex
10
748585.177089653
20
8930334.58158362
30
184.482232930422
70
32
0
VERTEX
5
116
100
AcDbEntity
8
Real Hole
62
1
420
16711680
100
AcDbVertex
100
AcDb3dPolylineVertex
10
748585.021705232
20
8930334.36024809
30
183.519493939638
70
32
0
VERTEX
5
117
100
AcDbEntity
8
Real Hole
62
1
420
16711680
100
AcDbVertex
100
AcDb3dPolylineVertex
10
748584.897378943
20
8930334.13806546
30
182.552448155642
70
32
0
VERTEX
5
118
100
AcDbEntity
8
Real Hole
62
1
420
16711680
100
AcDbVertex
100
AcDb3dPolylineVertex
10
748584.774236582
20
8930333.9043076
30
181.587983014345
70
32
0
VERTEX
5
119
100
AcDbEntity
8
Real Hole
62
1
420
16711680
100
AcDbVertex
100
AcDb3dPolylineVertex
10
748584.659457825
20
8930333.67874956
30
180.62053764081
70
32
0
VERTEX
5
11A
100
AcDbEntity
8
Real Hole
62
1
420
16711680
100
AcDbVertex
100
AcDb3dPolylineVertex
10
748584.636426948
20
8930333.63261724
30
180.427298428774
70
32
0
SEQEND
5
11B
100
AcDbEntity
8
Real Hole
0
POINT
5
11D
330
1A
100
AcDbEntity
67
0
8
Hole
62
244
420
659967
6
ByLayer
370
-1
48
1.0
60
0
100
AcDbPoint
10
748586.890000008
20
8930335.21099997
30
190.409999998569
39
0.0
210
0.0
220
0.0
230
1.0
50
360.0
0
LINE
5
11E
330
1A
100
AcDbEntity
67
0
8
Theoretical Hole
62
244
420
659967
6
ByLayer
370
-1
48
1.0
60
0
100
AcDbLine
10
748586.890000008
20
8930335.21099997
30
190.409999998569
11
748585.800689362
21
8930332.8085131
31
180.143478485107
39
0.0
210
0.0
220
0.0
230
1.0
0
TEXT
5
11F
330
1A
100
AcDbEntity
67
0
8
Number
62
244
420
659967
6
ByLayer
370
-1
48
1.0
60
0
100
AcDbText
1
14
10
748586.890000008
20
8930335.59199998
30
190.409999998569
40
0.3
41
1.0
50
0.0
51
0.0
7
Standard
11
748586.890000008
21
8930335.59199998
31
190.409999998569
210
0.0
220
0.0
230
1.0
72
0
100
AcDbText
73
0
0
TEXT
5
120
330
1A
100
AcDbEntity
67
0
8
label
62
1
420
16711680
6
ByLayer
370
-1
48
1.0
60
0
100
AcDbText
1

10
748586.890000008
20
8930335.99199998
30
190.409999998569
40
0.3
41
1.0
50
0.0
51
0.0
7
Standard
11
748586.890000008
21
8930335.99199998
31
190.409999998569
210
0.0
220
0.0
230
1.0
72
0
100
AcDbText
73
0
0
TEXT
5
121
330
1A
100
AcDbEntity
67
0
8
Length
62
244
420
659967
6
ByLayer
370
-1
48
1.0
60
0
100
AcDbText
1
10.60
10
748586.890000008
20
8930334.45699996
30
190.409999998569
40
0.3
41
1.0
50
0.0
51
0.0
7
Standard
11
748586.890000008
21
8930334.45699996
31
190.409999998569
210
0.0
220
0.0
230
1.0
72
0
100
AcDbText
73
0
0
POLYLINE
5
12F
330
1A
100
AcDbEntity
67
0
8
Real Hole
62
1
420
16711680
6
ByLayer
370
-1
48
1.0
60
0
100
AcDb3dPolyline
10
0.0
20
0.0
30
0.0
70
8
75
0
210
0.0
220
0.0
230
1.0
0
VERTEX
5
122
100
AcDbEntity
8
Real Hole
62
1
420
16711680
100
AcDbVertex
100
AcDb3dPolylineVertex
10
748586.890000008
20
8930335.21099997
30
190.409999998569
70
32
0
VERTEX
5
123
100
AcDbEntity
8
Real Hole
62
1
420
16711680
100
AcDbVertex
100
AcDb3dPolylineVertex
10
748586.809028379
20
8930334.9598574
30
189.445442589283
70
32
0
VERTEX
5
124
100
AcDbEntity
8
Real Hole
62
1
420
16711680
100
AcDbVertex
100
AcDb3dPolylineVertex
10
748586.722310982
20
8930334.72263443
30
188.477865489483
70
32
0
VERTEX
5
125
100
AcDbEntity
8
Real Hole
62
1
420
16711680
100
AcDbVertex
100
AcDb3dPolylineVertex
10
748586.672833718
20
8930334.48946196
30
187.50668969965
70
32
0
VERTEX
5
126
100
AcDbEntity
8
Real Hole
62
1
420
16711680
100
AcDbVertex
100
AcDb3dPolylineVertex
10
748586.616011641
20
8930334.26654017
30
186.533510836124
70
32
0
VERTEX
5
127
100
AcDbEntity
8
Real Hole
62
1
420
16711680
100
AcDbVertex
100
AcDb3dPolylineVertex
10
748586.505127005
20
8930334.03249073
30
185.567629965305
70
32
0
VERTEX
5
128
100
AcDbEntity
8
Real Hole
62
1
420
16711680
100
AcDbVertex
100
AcDb3dPolylineVertex
10
748586.387326799
20
8930333.7993871
30
184.602339418888
70
32
0
VERTEX
5
129
100
AcDbEntity
8
Real Hole
62
1
420
16711680
100
AcDbVertex
100
AcDb3dPolylineVertex
10
748586.258257292
20
8930333.56519187
30
183.638755949497
70
32
0
VERTEX
5
12A
100
AcDbEntity
8
Real Hole
62
1
420
16711680
100
AcDbVertex
100
AcDb3dPolylineVertex
10
748586.150550626
20
8930333.35597694
30
182.666835936069
70
32
0
VERTEX
5
12B
100
AcDbEntity
8
Real Hole
62
1
420
16711680
100
AcDbVertex
100
AcDb3dPolylineVertex
10
748586.024213694
20
8930333.12796521
30
181.701408537388
70
32
0
VERTEX
5
12C
100
AcDbEntity
8
Real Hole
62
1
420
16711680
100
AcDbVertex
100
AcDb3dPolylineVertex
10
748585.899695299
20
8930332.89417434
30
180.737128408909
70
32
0
VERTEX
5
12D
100
AcDbEntity
8
Real Hole
62
1
420
16711680
100
AcDbVertex
100
AcDb3dPolylineVertex
10
748585.821871064
20
8930332.76237035
30
180.156980665684
70
32
0
SEQEND
5
12E
100
AcDbEntity
8
Real Hole
0
POINT
5
130
330
1A
100
AcDbEntity
67
0
8
Hole
62
244
420
659967
6
ByLayer
370
-1
48
1.0
60
0
100
AcDbPoint
10
748588.398999832
20
8930334.57599998
30
190.519000025749
39
0.0
210
0.0
220
0.0
230
1.0
50
360.0
0
LINE
5
131
330
1A
100
AcDbEntity
67
0
8
Theoretical Hole
62
244
420
659967
6
ByLayer
370
-1
48
1.0
60
0
100
AcDbLine
10
748588.398999832
20
8930334.57599998
30
190.519000025749
11
748587.560209892
21
8930332.13859737
31
180.165043922424
39
0.0
210
0.0
220
0.0
230
1.0
0
TEXT
5
132
330
1A
100
AcDbEntity
67
0
8
Number
62
244
420
659967
6
ByLayer
370
-1
48
1.0
60
0
100
AcDbText
1
15
10
748588.398999832
20
8930334.95699999
30
190.519000025749
40
0.3
41
1.0
50
0.0
51
0.0
7
Standard
11
748588.398999832
21
8930334.95699999
31
190.519000025749
210
0.0
220
0.0
230
1.0
72
0
100
AcDbText
73
0
0
TEXT
5
133
330
1A
100
AcDbEntity
67
0
8
label
62
1
420
16711680
6
ByLayer
370
-1
48
1.0
60
0
100
AcDbText
1

10
748588.398999832
20
8930335.35699999
30
190.519000025749
40
0.3
41
1.0
50
0.0
51
0.0
7
Standard
11
748588.398999832
21
8930335.35699999
31
190.519000025749
210
0.0
220
0.0
230
1.0
72
0
100
AcDbText
73
0
0
TEXT
5
134
330
1A
100
AcDbEntity
67
0
8
Length
62
244
420
659967
6
ByLayer
370
-1
48
1.0
60
0
100
AcDbText
1
10.67
10
748588.398999832
20
8930333.82199997
30
190.519000025749
40
0.3
41
1.0
50
0.0
51
0.0
7
Standard
11
748588.398999832
21
8930333.82199997
31
190.519000025749
210
0.0
220
0.0
230
1.0
72
0
100
AcDbText
73
0
0
POLYLINE
5
142
330
1A
100
AcDbEntity
67
0
8
Real Hole
62
1
420
16711680
6
ByLayer
370
-1
48
1.0
60
0
100
AcDb3dPolyline
10
0.0
20
0.0
30
0.0
70
8
75
0
210
0.0
220
0.0
230
1.0
0
VERTEX
5
135
100
AcDbEntity
8
Real Hole
62
1
420
16711680
100
AcDbVertex
100
AcDb3dPolylineVertex
10
748588.398999832
20
8930334.57599998
30
190.519000025749
70
32
0
VERTEX
5
136
100
AcDbEntity
8
Real Hole
62
1
420
16711680
100
AcDbVertex
100
AcDb3dPolylineVertex
10
748588.333200208
20
8930334.34936857
30
189.547244580746
70
32
0
VERTEX
5
137
100
AcDbEntity
8
Real Hole
62
1
420
16711680
100
AcDbVertex
100
AcDb3dPolylineVertex
10
748588.268144615
20
8930334.1340299
30
188.572874518394
70
32
0
VERTEX
5
138
100
AcDbEntity
8
Real Hole
62
1
420
16711680
100
AcDbVertex
100
AcDb3dPolylineVertex
10
748588.214829452
20
8930333.91548818
30
187.598504515648
70
32
0
VERTEX
5
139
100
AcDbEntity
8
Real Hole
62
1
420
16711680
100
AcDbVertex
100
AcDb3dPolylineVertex
10
748588.137179575
20
8930333.70999372
30
186.622931452751
70
32
0
VERTEX
5
13A
100
AcDbEntity
8
Real Hole
62
1
420
16711680
100
AcDbVertex
100
AcDb3dPolylineVertex
10
748588.018403254
20
8930333.4826988
30
185.65637633419
70
32
0
VERTEX
5
13B
100
AcDbEntity
8
Real Hole
62
1
420
16711680
100
AcDbVertex
100
AcDb3dPolylineVertex
10
748587.968330167
20
8930333.23789454
30
184.688097449303
70
32
0
VERTEX
5
13C
100
AcDbEntity
8
Real Hole
62
1
420
16711680
100
AcDbVertex
100
AcDb3dPolylineVertex
10
748587.936787329
20
8930333.01654029
30
183.713414164543
70
32
0
VERTEX
5
13D
100
AcDbEntity
8
Real Hole
62
1
420
16711680
100
AcDbVertex
100
AcDb3dPolylineVertex
10
748587.85898485
20
8930332.7746489
30
182.746235342979
70
32
0
VERTEX
5
13E
100
AcDbEntity
8
Real Hole
62
1
420
16711680
100
AcDbVertex
100
AcDb3dPolylineVertex
10
748587.747604332
20
8930332.54739332
30
181.778790446281
70
32
0
VERTEX
5
13F
100
AcDbEntity
8
Real Hole
62
1
420
16711680
100
AcDbVertex
100
AcDb3dPolylineVertex
10
748587.651070617
20
8930332.3253808
30
180.808537455559
70
32
0
VERTEX
5
140
100
AcDbEntity
8
Real Hole
62
1
420
16711680
100
AcDbVertex
100
AcDb3dPolylineVertex
10
748587.58376988
20
8930332.18745494
30
180.228496523857
70
32
0
SEQEND
5
141
100
AcDbEntity
8
Real Hole
0
POINT
5
143
330
1A
100
AcDbEntity
67
0
8
Hole
62
244
420
659967
6
ByLayer
370
-1
48
1.0
60
0
100
AcDbPoint
10
748589.881000183
20
8930334.278
30
190.567000003815
39
0.0
210
0.0
220
0.0
230
1.0
50
360.0
0
LINE
5
144
330
1A
100
AcDbEntity
67
0
8
Theoretical Hole
62
244
420
659967
6
ByLayer
370
-1
48
1.0
60
0
100
AcDbLine
10
748589.881000183
20
8930334.278
30
190.567000003815
11
748589.294709824
21
8930331.78030396
31
180.168830963135
39
0.0
210
0.0
220
0.0
230
1.0
0
TEXT
5
145
330
1A
100
AcDbEntity
67
0
8
Number
62
244
420
659967
6
ByLayer
370
-1
48
1.0
60
0
100
AcDbText
1
16
10
748589.881000183
20
8930334.65900001
30
190.567000003815
40
0.3
41
1.0
50
0.0
51
0.0
7
Standard
11
748589.881000183
21
8930334.65900001
31
190.567000003815
210
0.0
220
0.0
230
1.0
72
0
100
AcDbText
73
0
0
TEXT
5
146
330
1A
100
AcDbEntity
67
0
8
label
62
1
420
16711680
6
ByLayer
370
-1
48
1.0
60
0
100
AcDbText
1

10
748589.881000183
20
8930335.05900001
30
190.567000003815
40
0.3
41
1.0
50
0.0
51
0.0
7
Standard
11
748589.881000183
21
8930335.05900001
31
190.567000003815
210
0.0
220
0.0
230
1.0
72
0
100
AcDbText
73
0
0
TEXT
5
147
330
1A
100
AcDbEntity
67
0
8
Length
62
244
420
659967
6
ByLayer
370
-1
48
1.0
60
0
100
AcDbText
1
10.71
10
748589.881000183
20
8930333.52399999
30
190.567000003815
40
0.3
41
1.0
50
0.0
51
0.0
7
Standard
11
748589.881000183
21
8930333.52399999
31
190.567000003815
210
0.0
220
0.0
230
1.0
72
0
100
AcDbText
73
0
0
POLYLINE
5
155
330
1A
100
AcDbEntity
67
0
8
Real Hole
62
1
420
16711680
6
ByLayer
370
-1
48
1.0
60
0
100
AcDb3dPolyline
10
0.0
20
0.0
30
0.0
70
8
75
0
210
0.0
220
0.0
230
1.0
0
VERTEX
5
148
100
AcDbEntity
8
Real Hole
62
1
420
16711680
100
AcDbVertex
100
AcDb3dPolylineVertex
10
748589.881000183
20
8930334.278
30
190.567000003815
70
32
0
VERTEX
5
149
100
AcDbEntity
8
Real Hole
62
1
420
16711680
100
AcDbVertex
100
AcDb3dPolylineVertex
10
748589.893588867
20
8930334.02776748
30
189.598896058559
70
32
0
VERTEX
5
14A
100
AcDbEntity
8
Real Hole
62
1
420
16711680
100
AcDbVertex
100
AcDb3dPolylineVertex
10
748589.966557584
20
8930333.78684357
30
188.631098958015
70
32
0
VERTEX
5
14B
100
AcDbEntity
8
Real Hole
62
1
420
16711680
100
AcDbVertex
100
AcDb3dPolylineVertex
10
748590.043186359
20
8930333.54157108
30
187.664677949905
70
32
0
VERTEX
5
14C
100
AcDbEntity
8
Real Hole
62
1
420
16711680
100
AcDbVertex
100
AcDb3dPolylineVertex
10
748590.073549725
20
8930333.29849106
30
186.695147129059
70
32
0
VERTEX
5
14D
100
AcDbEntity
8
Real Hole
62
1
420
16711680
100
AcDbVertex
100
AcDb3dPolylineVertex
10
748590.124775596
20
8930333.06136179
30
185.725020500183
70
32
0
VERTEX
5
14E
100
AcDbEntity
8
Real Hole
62
1
420
16711680
100
AcDbVertex
100
AcDb3dPolylineVertex
10
748590.152166269
20
8930332.79029405
30
184.762849899292
70
32
0
VERTEX
5
14F
100
AcDbEntity
8
Real Hole
62
1
420
16711680
100
AcDbVertex
100
AcDb3dPolylineVertex
10
748590.173501633
20
8930332.53134084
30
183.79719600296
70
32
0
VERTEX
5
150
100
AcDbEntity
8
Real Hole
62
1
420
16711680
100
AcDbVertex
100
AcDb3dPolylineVertex
10
748590.199145518
20
8930332.26550496
30
182.833518596649
70
32
0
VERTEX
5
151
100
AcDbEntity
8
Real Hole
62
1
420
16711680
100
AcDbVertex
100
AcDb3dPolylineVertex
10
748590.252292357
20
8930332.01927483
30
181.86576518631
70
32
0
VERTEX
5
152
100
AcDbEntity
8
Real Hole
62
1
420
16711680
100
AcDbVertex
100
AcDb3dPolylineVertex
10
748590.309458456
20
8930331.79101264
30
180.893845172882
70
32
0
VERTEX
5
153
100
AcDbEntity
8
Real Hole
62
1
420
16711680
100
AcDbVertex
100
AcDb3dPolylineVertex
10
748590.339207463
20
8930331.67928612
30
180.407396884918
70
32
0
SEQEND
5
154
100
AcDbEntity
8
Real Hole
0
POINT
5
156
330
1A
100
AcDbEntity
67
0
8
Hole
62
244
420
659967
6
ByLayer
370
-1
48
1.0
60
0
100
AcDbPoint
10
748591.186999939
20
8930333.709
30
190.53800001955
39
0.0
210
0.0
220
0.0
230
1.0
50
360.0
0
LINE
5
157
330
1A
100
AcDbEntity
67
0
8
Theoretical Hole
62
244
420
659967
6
ByLayer
370
-1
48
1.0
60
0
100
AcDbLine
10
748591.186999939
20
8930333.709
30
190.53800001955
11
748590.915908478
21
8930331.13406181
31
180.145681472778
39
0.0
210
0.0
220
0.0
230
1.0
0
TEXT
5
158
330
1A
100
AcDbEntity
67
0
8
Number
62
244
420
659967
6
ByLayer
370
-1
48
1.0
60
0
100
AcDbText
1
17
10
748591.186999939
20
8930334.09000001
30
190.53800001955
40
0.3
41
1.0
50
0.0
51
0.0
7
Standard
11
748591.186999939
21
8930334.09000001
31
190.53800001955
210
0.0
220
0.0
230
1.0
72
0
100
AcDbText
73
0
0
TEXT
5
159
330
1A
100
AcDbEntity
67
0
8
label
62
1
420
16711680
6
ByLayer
370
-1
48
1.0
60
0
100
AcDbText
1

10
748591.186999939
20
8930334.49000001
30
190.53800001955
40
0.3
41
1.0
50
0.0
51
0.0
7
Standard
11
748591.186999939
21
8930334.49000001
31
190.53800001955
210
0.0
220
0.0
230
1.0
72
0
100
AcDbText
73
0
0
TEXT
5
15A
330
1A
100
AcDbEntity
67
0
8
Length
62
244
420
659967
6
ByLayer
370
-1
48
1.0
60
0
100
AcDbText
1
10.71
10
748591.186999939
20
8930332.95499999
30
190.53800001955
40
0.3
41
1.0
50
0.0
51
0.0
7
Standard
11
748591.186999939
21
8930332.95499999
31
190.53800001955
210
0.0
220
0.0
230
1.0
72
0
100
AcDbText
73
0
0
POLYLINE
5
168
330
1A
100
AcDbEntity
67
0
8
Real Hole
62
1
420
16711680
6
ByLayer
370
-1
48
1.0
60
0
100
AcDb3dPolyline
10
0.0
20
0.0
30
0.0
70
8
75
0
210
0.0
220
0.0
230
1.0
0
VERTEX
5
15B
100
AcDbEntity
8
Real Hole
62
1
420
16711680
100
AcDbVertex
100
AcDb3dPolylineVertex
10
748591.186999939
20
8930333.709
30
190.53800001955
70
32
0
VERTEX
5
15C
100
AcDbEntity
8
Real Hole
62
1
420
16711680
100
AcDbVertex
100
AcDb3dPolylineVertex
10
748591.205287801
20
8930333.45996653
30
189.569677802086
70
32
0
VERTEX
5
15D
100
AcDbEntity
8
Real Hole
62
1
420
16711680
100
AcDbVertex
100
AcDb3dPolylineVertex
10
748591.219131309
20
8930333.22557212
30
188.597634824276
70
32
0
VERTEX
5
15E
100
AcDbEntity
8
Real Hole
62
1
420
16711680
100
AcDbVertex
100
AcDb3dPolylineVertex
10
748591.25796654
20
8930332.9828443
30
187.628317984104
70
32
0
VERTEX
5
15F
100
AcDbEntity
8
Real Hole
62
1
420
16711680
100
AcDbVertex
100
AcDb3dPolylineVertex
10
748591.269856289
20
8930332.74732358
30
186.6565214715
70
32
0
VERTEX
5
160
100
AcDbEntity
8
Real Hole
62
1
420
16711680
100
AcDbVertex
100
AcDb3dPolylineVertex
10
748591.261122696
20
8930332.48679698
30
185.691094311237
70
32
0
VERTEX
5
161
100
AcDbEntity
8
Real Hole
62
1
420
16711680
100
AcDbVertex
100
AcDb3dPolylineVertex
10
748591.241901014
20
8930332.23410667
30
184.723738106251
70
32
0
VERTEX
5
162
100
AcDbEntity
8
Real Hole
62
1
420
16711680
100
AcDbVertex
100
AcDb3dPolylineVertex
10
748591.259861275
20
8930331.98894871
30
183.75442114687
70
32
0
VERTEX
5
163
100
AcDbEntity
8
Real Hole
62
1
420
16711680
100
AcDbVertex
100
AcDb3dPolylineVertex
10
748591.263810493
20
8930331.75078703
30
182.783203514576
70
32
0
VERTEX
5
164
100
AcDbEntity
8
Real Hole
62
1
420
16711680
100
AcDbVertex
100
AcDb3dPolylineVertex
10
748591.247242517
20
8930331.50586999
30
181.813801678181
70
32
0
VERTEX
5
165
100
AcDbEntity
8
Real Hole
62
1
420
16711680
100
AcDbVertex
100
AcDb3dPolylineVertex
10
748591.237185828
20
8930331.24876536
30
180.847470196247
70
32
0
VERTEX
5
166
100
AcDbEntity
8
Real Hole
62
1
420
16711680
100
AcDbVertex
100
AcDb3dPolylineVertex
10
748591.226930063
20
8930331.09229315
30
180.26832285738
70
32
0
SEQEND
5
167
100
AcDbEntity
8
Real Hole
0
POINT
5
169
330
1A
100
AcDbEntity
67
0
8
Hole
62
244
420
659967
6
ByLayer
370
-1
48
1.0
60
0
100
AcDbPoint
10
748592.736999176
20
8930333.625
30
190.533000024319
39
0.0
210
0.0
220
0.0
230
1.0
50
360.0
0
LINE
5
16A
330
1A
100
AcDbEntity
67
0
8
Theoretical Hole
62
244
420
659967
6
ByLayer
370
-1
48
1.0
60
0
100
AcDbLine
10
748592.736999176
20
8930333.625
30
190.533000024319
11
748592.867608688
21
8930331.01973248
31
180.12490663147
39
0.0
210
0.0
220
0.0
230
1.0
0
TEXT
5
16B
330
1A
100
AcDbEntity
67
0
8
Number
62
244
420
659967
6
ByLayer
370
-1
48
1.0
60
0
100
AcDbText
1
18
10
748592.736999176
20
8930334.00600001
30
190.533000024319
40
0.3
41
1.0
50
0.0
51
0.0
7
Standard
11
748592.736999176
21
8930334.00600001
31
190.533000024319
210
0.0
220
0.0
230
1.0
72
0
100
AcDbText
73
0
0
TEXT
5
16C
330
1A
100
AcDbEntity
67
0
8
label
62
1
420
16711680
6
ByLayer
370
-1
48
1.0
60
0
100
AcDbText
1

10
748592.736999176
20
8930334.40600001
30
190.533000024319
40
0.3
41
1.0
50
0.0
51
0.0
7
Standard
11
748592.736999176
21
8930334.40600001
31
190.533000024319
210
0.0
220
0.0
230
1.0
72
0
100
AcDbText
73
0
0
TEXT
5
16D
330
1A
100
AcDbEntity
67
0
8
Length
62
244
420
659967
6
ByLayer
370
-1
48
1.0
60
0
100
AcDbText
1
10.73
10
748592.736999176
20
8930332.87099999
30
190.533000024319
40
0.3
41
1.0
50
0.0
51
0.0
7
Standard
11
748592.736999176
21
8930332.87099999
31
190.533000024319
210
0.0
220
0.0
230
1.0
72
0
100
AcDbText
73
0
0
POLYLINE
5
17B
330
1A
100
AcDbEntity
67
0
8
Real Hole
62
1
420
16711680
6
ByLayer
370
-1
48
1.0
60
0
100
AcDb3dPolyline
10
0.0
20
0.0
30
0.0
70
8
75
0
210
0.0
220
0.0
230
1.0
0
VERTEX
5
16E
100
AcDbEntity
8
Real Hole
62
1
420
16711680
100
AcDbVertex
100
AcDb3dPolylineVertex
10
748592.736999176
20
8930333.625
30
190.533000024319
70
32
0
VERTEX
5
16F
100
AcDbEntity
8
Real Hole
62
1
420
16711680
100
AcDbVertex
100
AcDb3dPolylineVertex
10
748592.911168508
20
8930333.46651809
30
189.561121138096
70
32
0
VERTEX
5
170
100
AcDbEntity
8
Real Hole
62
1
420
16711680
100
AcDbVertex
100
AcDb3dPolylineVertex
10
748593.080616734
20
8930333.31676105
30
188.587026628017
70
32
0
VERTEX
5
171
100
AcDbEntity
8
Real Hole
62
1
420
16711680
100
AcDbVertex
100
AcDb3dPolylineVertex
10
748593.244896851
20
8930333.14569053
30
187.615560325146
70
32
0
VERTEX
5
172
100
AcDbEntity
8
Real Hole
62
1
420
16711680
100
AcDbVertex
100
AcDb3dPolylineVertex
10
748593.395015917
20
8930332.92521113
30
186.651789935589
70
32
0
VERTEX
5
173
100
AcDbEntity
8
Real Hole
62
1
420
16711680
100
AcDbVertex
100
AcDb3dPolylineVertex
10
748593.537617467
20
8930332.69404894
30
185.689382108212
70
32
0
VERTEX
5
174
100
AcDbEntity
8
Real Hole
62
1
420
16711680
100
AcDbVertex
100
AcDb3dPolylineVertex
10
748593.668630503
20
8930332.49878657
30
184.717421086788
70
32
0
VERTEX
5
175
100
AcDbEntity
8
Real Hole
62
1
420
16711680
100
AcDbVertex
100
AcDb3dPolylineVertex
10
748593.820953153
20
8930332.3189832
30
183.745583566189
70
32
0
VERTEX
5
176
100
AcDbEntity
8
Real Hole
62
1
420
16711680
100
AcDbVertex
100
AcDb3dPolylineVertex
10
748593.98188927
20
8930332.16896057
30
182.770087274075
70
32
0
VERTEX
5
177
100
AcDbEntity
8
Real Hole
62
1
420
16711680
100
AcDbVertex
100
AcDb3dPolylineVertex
10
748594.153563879
20
8930332.00433016
30
181.798787148952
70
32
0
VERTEX
5
178
100
AcDbEntity
8
Real Hole
62
1
420
16711680
100
AcDbVertex
100
AcDb3dPolylineVertex
10
748594.316005967
20
8930331.86598349
30
180.821815522671
70
32
0
VERTEX
5
179
100
AcDbEntity
8
Real Hole
62
1
420
16711680
100
AcDbVertex
100
AcDb3dPolylineVertex
10
748594.361632965
20
8930331.81956923
30
180.528961213589
70
32
0
SEQEND
5
17A
100
AcDbEntity
8
Real Hole
0
POINT
5
17C
330
1A
100
AcDbEntity
67
0
8
Hole
62
244
420
659967
6
ByLayer
370
-1
48
1.0
60
0
100
AcDbPoint
10
748594.270999573
20
8930333.708
30
190.580000015259
39
0.0
210
0.0
220
0.0
230
1.0
50
360.0
0
LINE
5
17D
330
1A
100
AcDbEntity
67
0
8
Theoretical Hole
62
244
420
659967
6
ByLayer
370
-1
48
1.0
60
0
100
AcDbLine
10
748594.270999573
20
8930333.708
30
190.580000015259
11
748594.878007553
21
8930331.20466447
31
180.194681259155
39
0.0
210
0.0
220
0.0
230
1.0
0
TEXT
5
17E
330
1A
100
AcDbEntity
67
0
8
Number
62
244
420
659967
6
ByLayer
370
-1
48
1.0
60
0
100
AcDbText
1
19
10
748594.270999573
20
8930334.08900001
30
190.580000015259
40
0.3
41
1.0
50
0.0
51
0.0
7
Standard
11
748594.270999573
21
8930334.08900001
31
190.580000015259
210
0.0
220
0.0
230
1.0
72
0
100
AcDbText
73
0
0
TEXT
5
17F
330
1A
100
AcDbEntity
67
0
8
label
62
1
420
16711680
6
ByLayer
370
-1
48
1.0
60
0
100
AcDbText
1

10
748594.270999573
20
8930334.48900001
30
190.580000015259
40
0.3
41
1.0
50
0.0
51
0.0
7
Standard
11
748594.270999573
21
8930334.48900001
31
190.580000015259
210
0.0
220
0.0
230
1.0
72
0
100
AcDbText
73
0
0
TEXT
5
180
330
1A
100
AcDbEntity
67
0
8
Length
62
244
420
659967
6
ByLayer
370
-1
48
1.0
60
0
100
AcDbText
1
10.70
10
748594.270999573
20
8930332.95399999
30
190.580000015259
40
0.3
41
1.0
50
0.0
51
0.0
7
Standard
11
748594.270999573
21
8930332.95399999
31
190.580000015259
210
0.0
220
0.0
230
1.0
72
0
100
AcDbText
73
0
0
POLYLINE
5
18E
330
1A
100
AcDbEntity
67
0
8
Real Hole
62
1
420
16711680
6
ByLayer
370
-1
48
1.0
60
0
100
AcDb3dPolyline
10
0.0
20
0.0
30
0.0
70
8
75
0
210
0.0
220
0.0
230
1.0
0
VERTEX
5
181
100
AcDbEntity
8
Real Hole
62
1
420
16711680
100
AcDbVertex
100
AcDb3dPolylineVertex
10
748594.270999573
20
8930333.708
30
190.580000015259
70
32
0
VERTEX
5
182
100
AcDbEntity
8
Real Hole
62
1
420
16711680
100
AcDbVertex
100
AcDb3dPolylineVertex
10
748594.436578102
20
8930333.53278317
30
189.609493525982
70
32
0
VERTEX
5
183
100
AcDbEntity
8
Real Hole
62
1
420
16711680
100
AcDbVertex
100
AcDb3dPolylineVertex
10
748594.593747191
20
8930333.36293709
30
188.636636825562
70
32
0
VERTEX
5
184
100
AcDbEntity
8
Real Hole
62
1
420
16711680
100
AcDbVertex
100
AcDb3dPolylineVertex
10
748594.754943214
20
8930333.1544491
30
187.671987386703
70
32
0
VERTEX
5
185
100
AcDbEntity
8
Real Hole
62
1
420
16711680
100
AcDbVertex
100
AcDb3dPolylineVertex
10
748594.901404283
20
8930332.93942284
30
186.706423851013
70
32
0
VERTEX
5
186
100
AcDbEntity
8
Real Hole
62
1
420
16711680
100
AcDbVertex
100
AcDb3dPolylineVertex
10
748595.040810726
20
8930332.71796339
30
185.74127015686
70
32
0
VERTEX
5
187
100
AcDbEntity
8
Real Hole
62
1
420
16711680
100
AcDbVertex
100
AcDb3dPolylineVertex
10
748595.213524781
20
8930332.51227682
30
184.77801379776
70
32
0
VERTEX
5
188
100
AcDbEntity
8
Real Hole
62
1
420
16711680
100
AcDbVertex
100
AcDb3dPolylineVertex
10
748595.373870037
20
8930332.31975608
30
183.809909912109
70
32
0
VERTEX
5
189
100
AcDbEntity
8
Real Hole
62
1
420
16711680
100
AcDbVertex
100
AcDb3dPolylineVertex
10
748595.516306661
20
8930332.09822851
30
182.845214458466
70
32
0
VERTEX
5
18A
100
AcDbEntity
8
Real Hole
62
1
420
16711680
100
AcDbVertex
100
AcDb3dPolylineVertex
10
748595.641409061
20
8930331.869345
30
181.879832359314
70
32
0
VERTEX
5
18B
100
AcDbEntity
8
Real Hole
62
1
420
16711680
100
AcDbVertex
100
AcDb3dPolylineVertex
10
748595.765862487
20
8930331.63399559
30
180.915923210144
70
32
0
VERTEX
5
18C
100
AcDbEntity
8
Real Hole
62
1
420
16711680
100
AcDbVertex
100
AcDb3dPolylineVertex
10
748595.858705066
20
8930331.46848422
30
180.242138000488
70
32
0
SEQEND
5
18D
100
AcDbEntity
8
Real Hole
0
POINT
5
18F
330
1A
100
AcDbEntity
67
0
8
Hole
62
244
420
659967
6
ByLayer
370
-1
48
1.0
60
0
100
AcDbPoint
10
748595.797000549
20
8930334.116
30
190.470000000954
39
0.0
210
0.0
220
0.0
230
1.0
50
360.0
0
LINE
5
190
330
1A
100
AcDbEntity
67
0
8
Theoretical Hole
62
244
420
659967
6
ByLayer
370
-1
48
1.0
60
0
100
AcDbLine
10
748595.797000549
20
8930334.116
30
190.470000000954
11
748596.881265305
21
8930331.86507595
31
180.158365341187
39
0.0
210
0.0
220
0.0
230
1.0
0
TEXT
5
191
330
1A
100
AcDbEntity
67
0
8
Number
62
244
420
659967
6
ByLayer
370
-1
48
1.0
60
0
100
AcDbText
1
20
10
748595.797000549
20
8930334.49700001
30
190.470000000954
40
0.3
41
1.0
50
0.0
51
0.0
7
Standard
11
748595.797000549
21
8930334.49700001
31
190.470000000954
210
0.0
220
0.0
230
1.0
72
0
100
AcDbText
73
0
0
TEXT
5
192
330
1A
100
AcDbEntity
67
0
8
label
62
1
420
16711680
6
ByLayer
370
-1
48
1.0
60
0
100
AcDbText
1

10
748595.797000549
20
8930334.89700001
30
190.470000000954
40
0.3
41
1.0
50
0.0
51
0.0
7
Standard
11
748595.797000549
21
8930334.89700001
31
190.470000000954
210
0.0
220
0.0
230
1.0
72
0
100
AcDbText
73
0
0
TEXT
5
193
330
1A
100
AcDbEntity
67
0
8
Length
62
244
420
659967
6
ByLayer
370
-1
48
1.0
60
0
100
AcDbText
1
10.61
10
748595.797000549
20
8930333.36199999
30
190.470000000954
40
0.3
41
1.0
50
0.0
51
0.0
7
Standard
11
748595.797000549
21
8930333.36199999
31
190.470000000954
210
0.0
220
0.0
230
1.0
72
0
100
AcDbText
73
0
0
POLYLINE
5
1A1
330
1A
100
AcDbEntity
67
0
8
Real Hole
62
1
420
16711680
6
ByLayer
370
-1
48
1.0
60
0
100
AcDb3dPolyline
10
0.0
20
0.0
30
0.0
70
8
75
0
210
0.0
220
0.0
230
1.0
0
VERTEX
5
194
100
AcDbEntity
8
Real Hole
62
1
420
16711680
100
AcDbVertex
100
AcDb3dPolylineVertex
10
748595.797000549
20
8930334.116
30
190.470000000954
70
32
0
VERTEX
5
195
100
AcDbEntity
8
Real Hole
62
1
420
16711680
100
AcDbVertex
100
AcDb3dPolylineVertex
10
748595.998378001
20
8930334.03950387
30
189.493477853298
70
32
0
VERTEX
5
196
100
AcDbEntity
8
Real Hole
62
1
420
16711680
100
AcDbVertex
100
AcDb3dPolylineVertex
10
748596.19427102
20
8930333.97086473
30
188.515257807732
70
32
0
VERTEX
5
197
100
AcDbEntity
8
Real Hole
62
1
420
16711680
100
AcDbVertex
100
AcDb3dPolylineVertex
10
748596.40350189
20
8930333.87240817
30
187.542360754967
70
32
0
VERTEX
5
198
100
AcDbEntity
8
Real Hole
62
1
420
16711680
100
AcDbVertex
100
AcDb3dPolylineVertex
10
748596.59236475
20
8930333.76986405
30
186.565725775719
70
32
0
VERTEX
5
199
100
AcDbEntity
8
Real Hole
62
1
420
16711680
100
AcDbVertex
100
AcDb3dPolylineVertex
10
748596.795570813
20
8930333.64689508
30
185.594342442512
70
32
0
VERTEX
5
19A
100
AcDbEntity
8
Real Hole
62
1
420
16711680
100
AcDbVertex
100
AcDb3dPolylineVertex
10
748597.001452229
20
8930333.55211306
30
184.620366307259
70
32
0
VERTEX
5
19B
100
AcDbEntity
8
Real Hole
62
1
420
16711680
100
AcDbVertex
100
AcDb3dPolylineVertex
10
748597.196652911
20
8930333.48356348
30
183.642001362801
70
32
0
VERTEX
5
19C
100
AcDbEntity
8
Real Hole
62
1
420
16711680
100
AcDbVertex
100
AcDb3dPolylineVertex
10
748597.373134158
20
8930333.41957366
30
182.659779759407
70
32
0
VERTEX
5
19D
100
AcDbEntity
8
Real Hole
62
1
420
16711680
100
AcDbVertex
100
AcDb3dPolylineVertex
10
748597.565683744
20
8930333.33628988
30
181.682033272743
70
32
0
VERTEX
5
19E
100
AcDbEntity
8
Real Hole
62
1
420
16711680
100
AcDbVertex
100
AcDb3dPolylineVertex
10
748597.728866718
20
8930333.27253622
30
180.697499009132
70
32
0
VERTEX
5
19F
100
AcDbEntity
8
Real Hole
62
1
420
16711680
100
AcDbVertex
100
AcDb3dPolylineVertex
10
748597.847422026
20
8930333.22811598
30
180.009043427467
70
32
0
SEQEND
5
1A0
100
AcDbEntity
8
Real Hole
0
POINT
5
1A2
330
1A
100
AcDbEntity
67
0
8
Hole
62
244
420
659967
6
ByLayer
370
-1
48
1.0
60
0
100
AcDbPoint
10
748597.093000076
20
8930334.74300003
30
190.294000001907
39
0.0
210
0.0
220
0.0
230
1.0
50
360.0
0
LINE
5
1A3
330
1A
100
AcDbEntity
67
0
8
Theoretical Hole
62
244
420
659967
6
ByLayer
370
-1
48
1.0
60
0
100
AcDbLine
10
748597.093000076
20
8930334.74300003
30
190.294000001907
11
748598.601781509
21
8930332.80278933
31
180.126858802795
39
0.0
210
0.0
220
0.0
230
1.0
0
TEXT
5
1A4
330
1A
100
AcDbEntity
67
0
8
Number
62
244
420
659967
6
ByLayer
370
-1
48
1.0
60
0
100
AcDbText
1
21
10
748597.093000076
20
8930335.12400004
30
190.294000001907
40
0.3
41
1.0
50
0.0
51
0.0
7
Standard
11
748597.093000076
21
8930335.12400004
31
190.294000001907
210
0.0
220
0.0
230
1.0
72
0
100
AcDbText
73
0
0
TEXT
5
1A5
330
1A
100
AcDbEntity
67
0
8
label
62
1
420
16711680
6
ByLayer
370
-1
48
1.0
60
0
100
AcDbText
1

10
748597.093000076
20
8930335.52400004
30
190.294000001907
40
0.3
41
1.0
50
0.0
51
0.0
7
Standard
11
748597.093000076
21
8930335.52400004
31
190.294000001907
210
0.0
220
0.0
230
1.0
72
0
100
AcDbText
73
0
0
TEXT
5
1A6
330
1A
100
AcDbEntity
67
0
8
Length
62
244
420
659967
6
ByLayer
370
-1
48
1.0
60
0
100
AcDbText
1
10.46
10
748597.093000076
20
8930333.98900002
30
190.294000001907
40
0.3
41
1.0
50
0.0
51
0.0
7
Standard
11
748597.093000076
21
8930333.98900002
31
190.294000001907
210
0.0
220
0.0
230
1.0
72
0
100
AcDbText
73
0
0
POLYLINE
5
1B3
330
1A
100
AcDbEntity
67
0
8
Real Hole
62
1
420
16711680
6
ByLayer
370
-1
48
1.0
60
0
100
AcDb3dPolyline
10
0.0
20
0.0
30
0.0
70
8
75
0
210
0.0
220
0.0
230
1.0
0
VERTEX
5
1A7
100
AcDbEntity
8
Real Hole
62
1
420
16711680
100
AcDbVertex
100
AcDb3dPolylineVertex
10
748597.093000076
20
8930334.74300003
30
190.294000001907
70
32
0
VERTEX
5
1A8
100
AcDbEntity
8
Real Hole
62
1
420
16711680
100
AcDbVertex
100
AcDb3dPolylineVertex
10
748597.326942913
20
8930334.59947114
30
189.332402261257
70
32
0
VERTEX
5
1A9
100
AcDbEntity
8
Real Hole
62
1
420
16711680
100
AcDbVertex
100
AcDb3dPolylineVertex
10
748597.577510975
20
8930334.46646601
30
188.373483510971
70
32
0
VERTEX
5
1AA
100
AcDbEntity
8
Real Hole
62
1
420
16711680
100
AcDbVertex
100
AcDb3dPolylineVertex
10
748597.811350189
20
8930334.35013276
30
187.408192964554
70
32
0
VERTEX
5
1AB
100
AcDbEntity
8
Real Hole
62
1
420
16711680
100
AcDbVertex
100
AcDb3dPolylineVertex
10
748598.046605251
20
8930334.25637069
30
186.440792413712
70
32
0
VERTEX
5
1AC
100
AcDbEntity
8
Real Hole
62
1
420
16711680
100
AcDbVertex
100
AcDb3dPolylineVertex
10
748598.261627219
20
8930334.18799651
30
185.466579767227
70
32
0
VERTEX
5
1AD
100
AcDbEntity
8
Real Hole
62
1
420
16711680
100
AcDbVertex
100
AcDb3dPolylineVertex
10
748598.474416397
20
8930334.08953887
30
184.494454713821
70
32
0
VERTEX
5
1AE
100
AcDbEntity
8
Real Hole
62
1
420
16711680
100
AcDbVertex
100
AcDb3dPolylineVertex
10
748598.71517279
20
8930333.96897703
30
183.531386228561
70
32
0
VERTEX
5
1AF
100
AcDbEntity
8
Real Hole
62
1
420
16711680
100
AcDbVertex
100
AcDb3dPolylineVertex
10
748598.945598863
20
8930333.8790912
30
182.562456460953
70
32
0
VERTEX
5
1B0
100
AcDbEntity
8
Real Hole
62
1
420
16711680
100
AcDbVertex
100
AcDb3dPolylineVertex
10
748599.163357161
20
8930333.79979074
30
181.589681001663
70
32
0
VERTEX
5
1B1
100
AcDbEntity
8
Real Hole
62
1
420
16711680
100
AcDbVertex
100
AcDb3dPolylineVertex
10
748599.397927187
20
8930333.7008009
30
180.622635217667
70
32
0
SEQEND
5
1B2
100
AcDbEntity
8
Real Hole
0
POINT
5
1B4
330
1A
100
AcDbEntity
67
0
8
Hole
62
244
420
659967
6
ByLayer
370
-1
48
1.0
60
0
100
AcDbPoint
10
748598.40800061
20
8930335.7650001
30
190.127999993324
39
0.0
210
0.0
220
0.0
230
1.0
50
360.0
0
LINE
5
1B5
330
1A
100
AcDbEntity
67
0
8
Theoretical Hole
62
244
420
659967
6
ByLayer
370
-1
48
1.0
60
0
100
AcDbLine
10
748598.40800061
20
8930335.7650001
30
190.127999993324
11
748600.168246887
21
8930333.96120831
31
180.079245658874
39
0.0
210
0.0
220
0.0
230
1.0
0
TEXT
5
1B6
330
1A
100
AcDbEntity
67
0
8
Number
62
244
420
659967
6
ByLayer
370
-1
48
1.0
60
0
100
AcDbText
1
22
10
748598.40800061
20
8930336.14600012
30
190.127999993324
40
0.3
41
1.0
50
0.0
51
0.0
7
Standard
11
748598.40800061
21
8930336.14600012
31
190.127999993324
210
0.0
220
0.0
230
1.0
72
0
100
AcDbText
73
0
0
TEXT
5
1B7
330
1A
100
AcDbEntity
67
0
8
label
62
1
420
16711680
6
ByLayer
370
-1
48
1.0
60
0
100
AcDbText
1

10
748598.40800061
20
8930336.54600012
30
190.127999993324
40
0.3
41
1.0
50
0.0
51
0.0
7
Standard
11
748598.40800061
21
8930336.54600012
31
190.127999993324
210
0.0
220
0.0
230
1.0
72
0
100
AcDbText
73
0
0
TEXT
5
1B8
330
1A
100
AcDbEntity
67
0
8
Length
62
244
420
659967
6
ByLayer
370
-1
48
1.0
60
0
100
AcDbText
1
10.36
10
748598.40800061
20
8930335.0110001
30
190.127999993324
40
0.3
41
1.0
50
0.0
51
0.0
7
Standard
11
748598.40800061
21
8930335.0110001
31
190.127999993324
210
0.0
220
0.0
230
1.0
72
0
100
AcDbText
73
0
0
POLYLINE
5
1C6
330
1A
100
AcDbEntity
67
0
8
Real Hole
62
1
420
16711680
6
ByLayer
370
-1
48
1.0
60
0
100
AcDb3dPolyline
10
0.0
20
0.0
30
0.0
70
8
75
0
210
0.0
220
0.0
230
1.0
0
VERTEX
5
1B9
100
AcDbEntity
8
Real Hole
62
1
420
16711680
100
AcDbVertex
100
AcDb3dPolylineVertex
10
748598.40800061
20
8930335.7650001
30
190.127999993324
70
32
0
VERTEX
5
1BA
100
AcDbEntity
8
Real Hole
62
1
420
16711680
100
AcDbVertex
100
AcDb3dPolylineVertex
10
748598.63924361
20
8930335.67077281
30
189.15967777586
70
32
0
VERTEX
5
1BB
100
AcDbEntity
8
Real Hole
62
1
420
16711680
100
AcDbVertex
100
AcDb3dPolylineVertex
10
748598.863935403
20
8930335.59120527
30
188.188501926422
70
32
0
VERTEX
5
1BC
100
AcDbEntity
8
Real Hole
62
1
420
16711680
100
AcDbVertex
100
AcDb3dPolylineVertex
10
748599.08721771
20
8930335.52726446
30
187.215847464561
70
32
0
VERTEX
5
1BD
100
AcDbEntity
8
Real Hole
62
1
420
16711680
100
AcDbVertex
100
AcDb3dPolylineVertex
10
748599.305366717
20
8930335.44133329
30
186.243722649574
70
32
0
VERTEX
5
1BE
100
AcDbEntity
8
Real Hole
62
1
420
16711680
100
AcDbVertex
100
AcDb3dPolylineVertex
10
748599.533412598
20
8930335.3218095
30
185.277436467171
70
32
0
VERTEX
5
1BF
100
AcDbEntity
8
Real Hole
62
1
420
16711680
100
AcDbVertex
100
AcDb3dPolylineVertex
10
748599.753213666
20
8930335.21024984
30
184.308291169167
70
32
0
VERTEX
5
1C0
100
AcDbEntity
8
Real Hole
62
1
420
16711680
100
AcDbVertex
100
AcDb3dPolylineVertex
10
748599.983230494
20
8930335.09531701
30
183.341915341377
70
32
0
VERTEX
5
1C1
100
AcDbEntity
8
Real Hole
62
1
420
16711680
100
AcDbVertex
100
AcDb3dPolylineVertex
10
748600.197917245
20
8930334.97981668
30
182.372085782051
70
32
0
VERTEX
5
1C2
100
AcDbEntity
8
Real Hole
62
1
420
16711680
100
AcDbVertex
100
AcDb3dPolylineVertex
10
748600.446219585
20
8930334.85860419
30
181.411017151833
70
32
0
VERTEX
5
1C3
100
AcDbEntity
8
Real Hole
62
1
420
16711680
100
AcDbVertex
100
AcDb3dPolylineVertex
10
748600.664727114
20
8930334.75438118
30
180.440763207436
70
32
0
VERTEX
5
1C4
100
AcDbEntity
8
Real Hole
62
1
420
16711680
100
AcDbVertex
100
AcDb3dPolylineVertex
10
748600.728882931
20
8930334.72233856
30
180.149460526466
70
32
0
SEQEND
5
1C5
100
AcDbEntity
8
Real Hole
0
POINT
5
1C7
330
1A
100
AcDbEntity
67
0
8
Hole
62
244
420
659967
6
ByLayer
370
-1
48
1.0
60
0
100
AcDbPoint
10
748599.368999145
20
8930336.76200008
30
190.019000003397
39
0.0
210
0.0
220
0.0
230
1.0
50
360.0
0
LINE
5
1C8
330
1A
100
AcDbEntity
67
0
8
Theoretical Hole
62
244
420
659967
6
ByLayer
370
-1
48
1.0
60
0
100
AcDbLine
10
748599.368999145
20
8930336.76200008
30
190.019000003397
11
748601.309512756
21
8930335.10640109
31
180.091467948914
39
0.0
210
0.0
220
0.0
230
1.0
0
TEXT
5
1C9
330
1A
100
AcDbEntity
67
0
8
Number
62
244
420
659967
6
ByLayer
370
-1
48
1.0
60
0
100
AcDbText
1
23
10
748599.368999145
20
8930337.1430001
30
190.019000003397
40
0.3
41
1.0
50
0.0
51
0.0
7
Standard
11
748599.368999145
21
8930337.1430001
31
190.019000003397
210
0.0
220
0.0
230
1.0
72
0
100
AcDbText
73
0
0
TEXT
5
1CA
330
1A
100
AcDbEntity
67
0
8
label
62
1
420
16711680
6
ByLayer
370
-1
48
1.0
60
0
100
AcDbText
1

10
748599.368999145
20
8930337.5430001
30
190.019000003397
40
0.3
41
1.0
50
0.0
51
0.0
7
Standard
11
748599.368999145
21
8930337.5430001
31
190.019000003397
210
0.0
220
0.0
230
1.0
72
0
100
AcDbText
73
0
0
TEXT
5
1CB
330
1A
100
AcDbEntity
67
0
8
Length
62
244
420
659967
6
ByLayer
370
-1
48
1.0
60
0
100
AcDbText
1
10.25
10
748599.368999145
20
8930336.00800008
30
190.019000003397
40
0.3
41
1.0
50
0.0
51
0.0
7
Standard
11
748599.368999145
21
8930336.00800008
31
190.019000003397
210
0.0
220
0.0
230
1.0
72
0
100
AcDbText
73
0
0
POLYLINE
5
1D8
330
1A
100
AcDbEntity
67
0
8
Real Hole
62
1
420
16711680
6
ByLayer
370
-1
48
1.0
60
0
100
AcDb3dPolyline
10
0.0
20
0.0
30
0.0
70
8
75
0
210
0.0
220
0.0
230
1.0
0
VERTEX
5
1CC
100
AcDbEntity
8
Real Hole
62
1
420
16711680
100
AcDbVertex
100
AcDb3dPolylineVertex
10
748599.368999145
20
8930336.76200008
30
190.019000003397
70
32
0
VERTEX
5
1CD
100
AcDbEntity
8
Real Hole
62
1
420
16711680
100
AcDbVertex
100
AcDb3dPolylineVertex
10
748599.610759876
20
8930336.69185364
30
189.051202902853
70
32
0
VERTEX
5
1CE
100
AcDbEntity
8
Real Hole
62
1
420
16711680
100
AcDbVertex
100
AcDb3dPolylineVertex
10
748599.84028577
20
8930336.61434194
30
188.080991694987
70
32
0
VERTEX
5
1CF
100
AcDbEntity
8
Real Hole
62
1
420
16711680
100
AcDbVertex
100
AcDb3dPolylineVertex
10
748600.059545718
20
8930336.50358579
30
187.11163205868
70
32
0
VERTEX
5
1D0
100
AcDbEntity
8
Real Hole
62
1
420
16711680
100
AcDbVertex
100
AcDb3dPolylineVertex
10
748600.266916893
20
8930336.38265055
30
186.14087362057
70
32
0
VERTEX
5
1D1
100
AcDbEntity
8
Real Hole
62
1
420
16711680
100
AcDbVertex
100
AcDb3dPolylineVertex
10
748600.473054669
20
8930336.25313985
30
185.170958945811
70
32
0
VERTEX
5
1D2
100
AcDbEntity
8
Real Hole
62
1
420
16711680
100
AcDbVertex
100
AcDb3dPolylineVertex
10
748600.687269233
20
8930336.15252072
30
184.199368903697
70
32
0
VERTEX
5
1D3
100
AcDbEntity
8
Real Hole
62
1
420
16711680
100
AcDbVertex
100
AcDb3dPolylineVertex
10
748600.896104238
20
8930336.07122535
30
183.224802444041
70
32
0
VERTEX
5
1D4
100
AcDbEntity
8
Real Hole
62
1
420
16711680
100
AcDbVertex
100
AcDb3dPolylineVertex
10
748601.089460872
20
8930335.98469222
30
182.247497508585
70
32
0
VERTEX
5
1D5
100
AcDbEntity
8
Real Hole
62
1
420
16711680
100
AcDbVertex
100
AcDb3dPolylineVertex
10
748601.288250707
20
8930335.87441051
30
181.273679683268
70
32
0
VERTEX
5
1D6
100
AcDbEntity
8
Real Hole
62
1
420
16711680
100
AcDbVertex
100
AcDb3dPolylineVertex
10
748601.475441359
20
8930335.76919216
30
180.297007510722
70
32
0
SEQEND
5
1D7
100
AcDbEntity
8
Real Hole
0
POINT
5
1D9
330
1A
100
AcDbEntity
67
0
8
Hole
62
244
420
659967
6
ByLayer
370
-1
48
1.0
60
0
100
AcDbPoint
10
748600.332999847
20
8930337.79799986
30
189.97100000298
39
0.0
210
0.0
220
0.0
230
1.0
50
360.0
0
LINE
5
1DA
330
1A
100
AcDbEntity
67
0
8
Theoretical Hole
62
244
420
659967
6
ByLayer
370
-1
48
1.0
60
0
100
AcDbLine
10
748600.332999847
20
8930337.79799986
30
189.97100000298
11
748602.415609024
21
8930336.36291289
31
180.120508285522
39
0.0
210
0.0
220
0.0
230
1.0
0
TEXT
5
1DB
330
1A
100
AcDbEntity
67
0
8
Number
62
244
420
659967
6
ByLayer
370
-1
48
1.0
60
0
100
AcDbText
1
24
10
748600.332999847
20
8930338.17899987
30
189.97100000298
40
0.3
41
1.0
50
0.0
51
0.0
7
Standard
11
748600.332999847
21
8930338.17899987
31
189.97100000298
210
0.0
220
0.0
230
1.0
72
0
100
AcDbText
73
0
0
TEXT
5
1DC
330
1A
100
AcDbEntity
67
0
8
label
62
1
420
16711680
6
ByLayer
370
-1
48
1.0
60
0
100
AcDbText
1

10
748600.332999847
20
8930338.57899987
30
189.97100000298
40
0.3
41
1.0
50
0.0
51
0.0
7
Standard
11
748600.332999847
21
8930338.57899987
31
189.97100000298
210
0.0
220
0.0
230
1.0
72
0
100
AcDbText
73
0
0
TEXT
5
1DD
330
1A
100
AcDbEntity
67
0
8
Length
62
244
420
659967
6
ByLayer
370
-1
48
1.0
60
0
100
AcDbText
1
10.17
10
748600.332999847
20
8930337.04399985
30
189.97100000298
40
0.3
41
1.0
50
0.0
51
0.0
7
Standard
11
748600.332999847
21
8930337.04399985
31
189.97100000298
210
0.0
220
0.0
230
1.0
72
0
100
AcDbText
73
0
0
POLYLINE
5
1EB
330
1A
100
AcDbEntity
67
0
8
Real Hole
62
1
420
16711680
6
ByLayer
370
-1
48
1.0
60
0
100
AcDb3dPolyline
10
0.0
20
0.0
30
0.0
70
8
75
0
210
0.0
220
0.0
230
1.0
0
VERTEX
5
1DE
100
AcDbEntity
8
Real Hole
62
1
420
16711680
100
AcDbVertex
100
AcDb3dPolylineVertex
10
748600.332999847
20
8930337.79799986
30
189.97100000298
70
32
0
VERTEX
5
1DF
100
AcDbEntity
8
Real Hole
62
1
420
16711680
100
AcDbVertex
100
AcDb3dPolylineVertex
10
748600.570839427
20
8930337.77581053
30
188.999949025273
70
32
0
VERTEX
5
1E0
100
AcDbEntity
8
Real Hole
62
1
420
16711680
100
AcDbVertex
100
AcDb3dPolylineVertex
10
748600.816262267
20
8930337.71684447
30
188.032327937245
70
32
0
VERTEX
5
1E1
100
AcDbEntity
8
Real Hole
62
1
420
16711680
100
AcDbVertex
100
AcDb3dPolylineVertex
10
748601.045412503
20
8930337.66115308
30
187.060531424642
70
32
0
VERTEX
5
1E2
100
AcDbEntity
8
Real Hole
62
1
420
16711680
100
AcDbVertex
100
AcDb3dPolylineVertex
10
748601.282982312
20
8930337.57842253
30
186.092690276265
70
32
0
VERTEX
5
1E3
100
AcDbEntity
8
Real Hole
62
1
420
16711680
100
AcDbVertex
100
AcDb3dPolylineVertex
10
748601.495461605
20
8930337.46743539
30
185.121848391652
70
32
0
VERTEX
5
1E4
100
AcDbEntity
8
Real Hole
62
1
420
16711680
100
AcDbVertex
100
AcDb3dPolylineVertex
10
748601.711400292
20
8930337.36178827
30
184.151173400044
70
32
0
VERTEX
5
1E5
100
AcDbEntity
8
Real Hole
62
1
420
16711680
100
AcDbVertex
100
AcDb3dPolylineVertex
10
748601.934895776
20
8930337.26962453
30
183.180835532308
70
32
0
VERTEX
5
1E6
100
AcDbEntity
8
Real Hole
62
1
420
16711680
100
AcDbVertex
100
AcDb3dPolylineVertex
10
748602.145801447
20
8930337.19336098
30
182.206308650136
70
32
0
VERTEX
5
1E7
100
AcDbEntity
8
Real Hole
62
1
420
16711680
100
AcDbVertex
100
AcDb3dPolylineVertex
10
748602.341377161
20
8930337.12433422
30
181.22805242455
70
32
0
VERTEX
5
1E8
100
AcDbEntity
8
Real Hole
62
1
420
16711680
100
AcDbVertex
100
AcDb3dPolylineVertex
10
748602.558416031
20
8930337.06784034
30
180.253526019216
70
32
0
VERTEX
5
1E9
100
AcDbEntity
8
Real Hole
62
1
420
16711680
100
AcDbVertex
100
AcDb3dPolylineVertex
10
748602.597756527
20
8930337.05678231
30
180.057745265126
70
32
0
SEQEND
5
1EA
100
AcDbEntity
8
Real Hole
0
POINT
5
1EC
330
1A
100
AcDbEntity
67
0
8
Hole
62
244
420
659967
6
ByLayer
370
-1
48
1.0
60
0
100
AcDbPoint
10
748601.16100087
20
8930339.16099977
30
189.933000000477
39
0.0
210
0.0
220
0.0
230
1.0
50
360.0
0
LINE
5
1ED
330
1A
100
AcDbEntity
67
0
8
Theoretical Hole
62
244
420
659967
6
ByLayer
370
-1
48
1.0
60
0
100
AcDbLine
10
748601.16100087
20
8930339.16099977
30
189.933000000477
11
748603.34314122
21
8930337.93794107
31
180.147684188843
39
0.0
210
0.0
220
0.0
230
1.0
0
TEXT
5
1EE
330
1A
100
AcDbEntity
67
0
8
Number
62
244
420
659967
6
ByLayer
370
-1
48
1.0
60
0
100
AcDbText
1
25
10
748601.16100087
20
8930339.54199979
30
189.933000000477
40
0.3
41
1.0
50
0.0
51
0.0
7
Standard
11
748601.16100087
21
8930339.54199979
31
189.933000000477
210
0.0
220
0.0
230
1.0
72
0
100
AcDbText
73
0
0
TEXT
5
1EF
330
1A
100
AcDbEntity
67
0
8
label
62
1
420
16711680
6
ByLayer
370
-1
48
1.0
60
0
100
AcDbText
1

10
748601.16100087
20
8930339.94199979
30
189.933000000477
40
0.3
41
1.0
50
0.0
51
0.0
7
Standard
11
748601.16100087
21
8930339.94199979
31
189.933000000477
210
0.0
220
0.0
230
1.0
72
0
100
AcDbText
73
0
0
TEXT
5
1F0
330
1A
100
AcDbEntity
67
0
8
Length
62
244
420
659967
6
ByLayer
370
-1
48
1.0
60
0
100
AcDbText
1
10.10
10
748601.16100087
20
8930338.40699977
30
189.933000000477
40
0.3
41
1.0
50
0.0
51
0.0
7
Standard
11
748601.16100087
21
8930338.40699977
31
189.933000000477
210
0.0
220
0.0
230
1.0
72
0
100
AcDbText
73
0
0
POLYLINE
5
1FD
330
1A
100
AcDbEntity
67
0
8
Real Hole
62
1
420
16711680
6
ByLayer
370
-1
48
1.0
60
0
100
AcDb3dPolyline
10
0.0
20
0.0
30
0.0
70
8
75
0
210
0.0
220
0.0
230
1.0
0
VERTEX
5
1F1
100
AcDbEntity
8
Real Hole
62
1
420
16711680
100
AcDbVertex
100
AcDb3dPolylineVertex
10
748601.16100087
20
8930339.16099977
30
189.933000000477
70
32
0
VERTEX
5
1F2
100
AcDbEntity
8
Real Hole
62
1
420
16711680
100
AcDbVertex
100
AcDb3dPolylineVertex
10
748601.421162359
20
8930339.1446774
30
188.967572840214
70
32
0
VERTEX
5
1F3
100
AcDbEntity
8
Real Hole
62
1
420
16711680
100
AcDbVertex
100
AcDb3dPolylineVertex
10
748601.691398941
20
8930339.10284256
30
188.005688222408
70
32
0
VERTEX
5
1F4
100
AcDbEntity
8
Real Hole
62
1
420
16711680
100
AcDbVertex
100
AcDb3dPolylineVertex
10
748601.968044839
20
8930339.08131296
30
187.044957550526
70
32
0
VERTEX
5
1F5
100
AcDbEntity
8
Real Hole
62
1
420
16711680
100
AcDbVertex
100
AcDb3dPolylineVertex
10
748602.243837736
20
8930339.07871356
30
186.083743961811
70
32
0
VERTEX
5
1F6
100
AcDbEntity
8
Real Hole
62
1
420
16711680
100
AcDbVertex
100
AcDb3dPolylineVertex
10
748602.501076839
20
8930339.10031455
30
185.117637547016
70
32
0
VERTEX
5
1F7
100
AcDbEntity
8
Real Hole
62
1
420
16711680
100
AcDbVertex
100
AcDb3dPolylineVertex
10
748602.749425791
20
8930339.10152822
30
184.148967655659
70
32
0
VERTEX
5
1F8
100
AcDbEntity
8
Real Hole
62
1
420
16711680
100
AcDbVertex
100
AcDb3dPolylineVertex
10
748603.046921871
20
8930339.08093396
30
183.194466980457
70
32
0
VERTEX
5
1F9
100
AcDbEntity
8
Real Hole
62
1
420
16711680
100
AcDbVertex
100
AcDb3dPolylineVertex
10
748603.33483567
20
8930339.07279117
30
182.236844929218
70
32
0
VERTEX
5
1FA
100
AcDbEntity
8
Real Hole
62
1
420
16711680
100
AcDbVertex
100
AcDb3dPolylineVertex
10
748603.595366857
20
8930339.08858904
30
181.271508606434
70
32
0
VERTEX
5
1FB
100
AcDbEntity
8
Real Hole
62
1
420
16711680
100
AcDbVertex
100
AcDb3dPolylineVertex
10
748603.841783188
20
8930339.10288374
30
180.30245056963
70
32
0
SEQEND
5
1FC
100
AcDbEntity
8
Real Hole
0
POINT
5
1FE
330
1A
100
AcDbEntity
67
0
8
Hole
62
244
420
659967
6
ByLayer
370
-1
48
1.0
60
0
100
AcDbPoint
10
748602.05999913
20
8930340.37799978
30
189.93199999845
39
0.0
210
0.0
220
0.0
230
1.0
50
360.0
0
LINE
5
1FF
330
1A
100
AcDbEntity
67
0
8
Theoretical Hole
62
244
420
659967
6
ByLayer
370
-1
48
1.0
60
0
100
AcDbLine
10
748602.05999913
20
8930340.37799978
30
189.93199999845
11
748604.324496887
21
8930339.34409809
31
180.122948738098
39
0.0
210
0.0
220
0.0
230
1.0
0
TEXT
5
200
330
1A
100
AcDbEntity
67
0
8
Number
62
244
420
659967
6
ByLayer
370
-1
48
1.0
60
0
100
AcDbText
1
26
10
748602.05999913
20
8930340.75899979
30
189.93199999845
40
0.3
41
1.0
50
0.0
51
0.0
7
Standard
11
748602.05999913
21
8930340.75899979
31
189.93199999845
210
0.0
220
0.0
230
1.0
72
0
100
AcDbText
73
0
0
TEXT
5
201
330
1A
100
AcDbEntity
67
0
8
label
62
1
420
16711680
6
ByLayer
370
-1
48
1.0
60
0
100
AcDbText
1

10
748602.05999913
20
8930341.1589998
30
189.93199999845
40
0.3
41
1.0
50
0.0
51
0.0
7
Standard
11
748602.05999913
21
8930341.1589998
31
189.93199999845
210
0.0
220
0.0
230
1.0
72
0
100
AcDbText
73
0
0
TEXT
5
202
330
1A
100
AcDbEntity
67
0
8
Length
62
244
420
659967
6
ByLayer
370
-1
48
1.0
60
0
100
AcDbText
1
10.12
10
748602.05999913
20
8930339.62399977
30
189.93199999845
40
0.3
41
1.0
50
0.0
51
0.0
7
Standard
11
748602.05999913
21
8930339.62399977
31
189.93199999845
210
0.0
220
0.0
230
1.0
72
0
100
AcDbText
73
0
0
POLYLINE
5
20F
330
1A
100
AcDbEntity
67
0
8
Real Hole
62
1
420
16711680
6
ByLayer
370
-1
48
1.0
60
0
100
AcDb3dPolyline
10
0.0
20
0.0
30
0.0
70
8
75
0
210
0.0
220
0.0
230
1.0
0
VERTEX
5
203
100
AcDbEntity
8
Real Hole
62
1
420
16711680
100
AcDbVertex
100
AcDb3dPolylineVertex
10
748602.05999913
20
8930340.37799978
30
189.93199999845
70
32
0
VERTEX
5
204
100
AcDbEntity
8
Real Hole
62
1
420
16711680
100
AcDbVertex
100
AcDb3dPolylineVertex
10
748602.30822844
20
8930340.35807135
30
188.963503735423
70
32
0
VERTEX
5
205
100
AcDbEntity
8
Real Hole
62
1
420
16711680
100
AcDbVertex
100
AcDb3dPolylineVertex
10
748602.575398825
20
8930340.28438002
30
188.002676205993
70
32
0
VERTEX
5
206
100
AcDbEntity
8
Real Hole
62
1
420
16711680
100
AcDbVertex
100
AcDb3dPolylineVertex
10
748602.818649612
20
8930340.26587635
30
187.032889204383
70
32
0
VERTEX
5
207
100
AcDbEntity
8
Real Hole
62
1
420
16711680
100
AcDbVertex
100
AcDb3dPolylineVertex
10
748603.068333409
20
8930340.26269501
30
186.064566927314
70
32
0
VERTEX
5
208
100
AcDbEntity
8
Real Hole
62
1
420
16711680
100
AcDbVertex
100
AcDb3dPolylineVertex
10
748603.317828081
20
8930340.26718052
30
185.096201258063
70
32
0
VERTEX
5
209
100
AcDbEntity
8
Real Hole
62
1
420
16711680
100
AcDbVertex
100
AcDb3dPolylineVertex
10
748603.570617698
20
8930340.23546995
30
184.129199819922
70
32
0
VERTEX
5
20A
100
AcDbEntity
8
Real Hole
62
1
420
16711680
100
AcDbVertex
100
AcDb3dPolylineVertex
10
748603.843216799
20
8930340.22542648
30
183.167124586463
70
32
0
VERTEX
5
20B
100
AcDbEntity
8
Real Hole
62
1
420
16711680
100
AcDbVertex
100
AcDb3dPolylineVertex
10
748604.101177357
20
8930340.22826305
30
182.200973348975
70
32
0
VERTEX
5
20C
100
AcDbEntity
8
Real Hole
62
1
420
16711680
100
AcDbVertex
100
AcDb3dPolylineVertex
10
748604.322774075
20
8930340.22091195
30
181.225862341285
70
32
0
VERTEX
5
20D
100
AcDbEntity
8
Real Hole
62
1
420
16711680
100
AcDbVertex
100
AcDb3dPolylineVertex
10
748604.498209856
20
8930340.20228714
30
180.445557432532
70
32
0
SEQEND
5
20E
100
AcDbEntity
8
Real Hole
0
POINT
5
210
330
1A
100
AcDbEntity
67
0
8
Hole
62
244
420
659967
6
ByLayer
370
-1
48
1.0
60
0
100
AcDbPoint
10
748602.53700032
20
8930342.00599957
30
189.93199999845
39
0.0
210
0.0
220
0.0
230
1.0
50
360.0
0
LINE
5
211
330
1A
100
AcDbEntity
67
0
8
Theoretical Hole
62
244
420
659967
6
ByLayer
370
-1
48
1.0
60
0
100
AcDbLine
10
748602.53700032
20
8930342.00599957
30
189.93199999845
11
748604.871829651
21
8930341.11254644
31
180.074049087524
39
0.0
210
0.0
220
0.0
230
1.0
0
TEXT
5
212
330
1A
100
AcDbEntity
67
0
8
Number
62
244
420
659967
6
ByLayer
370
-1
48
1.0
60
0
100
AcDbText
1
27
10
748602.53700032
20
8930342.38699958
30
189.93199999845
40
0.3
41
1.0
50
0.0
51
0.0
7
Standard
11
748602.53700032
21
8930342.38699958
31
189.93199999845
210
0.0
220
0.0
230
1.0
72
0
100
AcDbText
73
0
0
TEXT
5
213
330
1A
100
AcDbEntity
67
0
8
label
62
1
420
16711680
6
ByLayer
370
-1
48
1.0
60
0
100
AcDbText
1

10
748602.53700032
20
8930342.78699958
30
189.93199999845
40
0.3
41
1.0
50
0.0
51
0.0
7
Standard
11
748602.53700032
21
8930342.78699958
31
189.93199999845
210
0.0
220
0.0
230
1.0
72
0
100
AcDbText
73
0
0
TEXT
5
214
330
1A
100
AcDbEntity
67
0
8
Length
62
244
420
659967
6
ByLayer
370
-1
48
1.0
60
0
100
AcDbText
1
10.17
10
748602.53700032
20
8930341.25199956
30
189.93199999845
40
0.3
41
1.0
50
0.0
51
0.0
7
Standard
11
748602.53700032
21
8930341.25199956
31
189.93199999845
210
0.0
220
0.0
230
1.0
72
0
100
AcDbText
73
0
0
POLYLINE
5
221
330
1A
100
AcDbEntity
67
0
8
Real Hole
62
1
420
16711680
6
ByLayer
370
-1
48
1.0
60
0
100
AcDb3dPolyline
10
0.0
20
0.0
30
0.0
70
8
75
0
210
0.0
220
0.0
230
1.0
0
VERTEX
5
215
100
AcDbEntity
8
Real Hole
62
1
420
16711680
100
AcDbVertex
100
AcDb3dPolylineVertex
10
748602.53700032
20
8930342.00599957
30
189.93199999845
70
32
0
VERTEX
5
216
100
AcDbEntity
8
Real Hole
62
1
420
16711680
100
AcDbVertex
100
AcDb3dPolylineVertex
10
748602.784462697
20
8930342.01066468
30
188.963113742232
70
32
0
VERTEX
5
217
100
AcDbEntity
8
Real Hole
62
1
420
16711680
100
AcDbVertex
100
AcDb3dPolylineVertex
10
748603.016834013
20
8930342.02915677
30
187.990662413001
70
32
0
VERTEX
5
218
100
AcDbEntity
8
Real Hole
62
1
420
16711680
100
AcDbVertex
100
AcDb3dPolylineVertex
10
748603.247079871
20
8930342.04650944
30
187.017684536338
70
32
0
VERTEX
5
219
100
AcDbEntity
8
Real Hole
62
1
420
16711680
100
AcDbVertex
100
AcDb3dPolylineVertex
10
748603.478824816
20
8930342.06829338
30
186.04515202558
70
32
0
VERTEX
5
21A
100
AcDbEntity
8
Real Hole
62
1
420
16711680
100
AcDbVertex
100
AcDb3dPolylineVertex
10
748603.715762756
20
8930342.04226073
30
185.073975878119
70
32
0
VERTEX
5
21B
100
AcDbEntity
8
Real Hole
62
1
420
16711680
100
AcDbVertex
100
AcDb3dPolylineVertex
10
748603.961719296
20
8930342.04595275
30
184.10470231092
70
32
0
VERTEX
5
21C
100
AcDbEntity
8
Real Hole
62
1
420
16711680
100
AcDbVertex
100
AcDb3dPolylineVertex
10
748604.174642823
20
8930342.06791872
30
183.127880411506
70
32
0
VERTEX
5
21D
100
AcDbEntity
8
Real Hole
62
1
420
16711680
100
AcDbVertex
100
AcDb3dPolylineVertex
10
748604.405992411
20
8930342.06270906
30
182.155023413062
70
32
0
VERTEX
5
21E
100
AcDbEntity
8
Real Hole
62
1
420
16711680
100
AcDbVertex
100
AcDb3dPolylineVertex
10
748604.653040073
20
8930342.0549884
30
181.186051206946
70
32
0
VERTEX
5
21F
100
AcDbEntity
8
Real Hole
62
1
420
16711680
100
AcDbVertex
100
AcDb3dPolylineVertex
10
748604.830659054
20
8930342.05700351
30
180.508963423133
70
32
0
SEQEND
5
220
100
AcDbEntity
8
Real Hole
0
POINT
5
222
330
1A
100
AcDbEntity
67
0
8
Hole
62
244
420
659967
6
ByLayer
370
-1
48
1.0
60
0
100
AcDbPoint
10
748602.929999969
20
8930343.00599957
30
189.896
39
0.0
210
0.0
220
0.0
230
1.0
50
360.0
0
LINE
5
223
330
1A
100
AcDbEntity
67
0
8
Theoretical Hole
62
244
420
659967
6
ByLayer
370
-1
48
1.0
60
0
100
AcDbLine
10
748602.929999969
20
8930343.00599957
30
189.896
11
748605.339862488
21
8930342.24247265
31
180.107146354675
39
0.0
210
0.0
220
0.0
230
1.0
0
TEXT
5
224
330
1A
100
AcDbEntity
67
0
8
Number
62
244
420
659967
6
ByLayer
370
-1
48
1.0
60
0
100
AcDbText
1
28
10
748602.929999969
20
8930343.38699958
30
189.896
40
0.3
41
1.0
50
0.0
51
0.0
7
Standard
11
748602.929999969
21
8930343.38699958
31
189.896
210
0.0
220
0.0
230
1.0
72
0
100
AcDbText
73
0
0
TEXT
5
225
330
1A
100
AcDbEntity
67
0
8
label
62
1
420
16711680
6
ByLayer
370
-1
48
1.0
60
0
100
AcDbText
1

10
748602.929999969
20
8930343.78699958
30
189.896
40
0.3
41
1.0
50
0.0
51
0.0
7
Standard
11
748602.929999969
21
8930343.78699958
31
189.896
210
0.0
220
0.0
230
1.0
72
0
100
AcDbText
73
0
0
TEXT
5
226
330
1A
100
AcDbEntity
67
0
8
Length
62
244
420
659967
6
ByLayer
370
-1
48
1.0
60
0
100
AcDbText
1
10.11
10
748602.929999969
20
8930342.25199956
30
189.896
40
0.3
41
1.0
50
0.0
51
0.0
7
Standard
11
748602.929999969
21
8930342.25199956
31
189.896
210
0.0
220
0.0
230
1.0
72
0
100
AcDbText
73
0
0
POLYLINE
5
233
330
1A
100
AcDbEntity
67
0
8
Real Hole
62
1
420
16711680
6
ByLayer
370
-1
48
1.0
60
0
100
AcDb3dPolyline
10
0.0
20
0.0
30
0.0
70
8
75
0
210
0.0
220
0.0
230
1.0
0
VERTEX
5
227
100
AcDbEntity
8
Real Hole
62
1
420
16711680
100
AcDbVertex
100
AcDb3dPolylineVertex
10
748602.929999969
20
8930343.00599957
30
189.896
70
32
0
VERTEX
5
228
100
AcDbEntity
8
Real Hole
62
1
420
16711680
100
AcDbVertex
100
AcDb3dPolylineVertex
10
748603.19270756
20
8930342.97346385
30
188.931673201084
70
32
0
VERTEX
5
229
100
AcDbEntity
8
Real Hole
62
1
420
16711680
100
AcDbVertex
100
AcDb3dPolylineVertex
10
748603.463825248
20
8930342.95455298
30
187.969312759399
70
32
0
VERTEX
5
22A
100
AcDbEntity
8
Real Hole
62
1
420
16711680
100
AcDbVertex
100
AcDb3dPolylineVertex
10
748603.706631504
20
8930342.90832304
30
187.000340076447
70
32
0
VERTEX
5
22B
100
AcDbEntity
8
Real Hole
62
1
420
16711680
100
AcDbVertex
100
AcDb3dPolylineVertex
10
748603.946146987
20
8930342.82762413
30
186.032807203293
70
32
0
VERTEX
5
22C
100
AcDbEntity
8
Real Hole
62
1
420
16711680
100
AcDbVertex
100
AcDb3dPolylineVertex
10
748604.196259759
20
8930342.79766718
30
185.065054031372
70
32
0
VERTEX
5
22D
100
AcDbEntity
8
Real Hole
62
1
420
16711680
100
AcDbVertex
100
AcDb3dPolylineVertex
10
748604.442327164
20
8930342.76049685
30
184.096514316559
70
32
0
VERTEX
5
22E
100
AcDbEntity
8
Real Hole
62
1
420
16711680
100
AcDbVertex
100
AcDb3dPolylineVertex
10
748604.694971345
20
8930342.72898361
30
183.129468532562
70
32
0
VERTEX
5
22F
100
AcDbEntity
8
Real Hole
62
1
420
16711680
100
AcDbVertex
100
AcDb3dPolylineVertex
10
748604.935809038
20
8930342.75672172
30
182.159299465179
70
32
0
VERTEX
5
230
100
AcDbEntity
8
Real Hole
62
1
420
16711680
100
AcDbVertex
100
AcDb3dPolylineVertex
10
748605.169323585
20
8930342.83458278
30
181.190068336487
70
32
0
VERTEX
5
231
100
AcDbEntity
8
Real Hole
62
1
420
16711680
100
AcDbVertex
100
AcDb3dPolylineVertex
10
748605.287996672
20
8930342.84356834
30
180.704439254761
70
32
0
SEQEND
5
232
100
AcDbEntity
8
Real Hole
0
POINT
5
234
330
1A
100
AcDbEntity
67
0
8
Hole
62
244
420
659967
6
ByLayer
370
-1
48
1.0
60
0
100
AcDbPoint
10
748603.507999084
20
8930344.40699959
30
189.916999999717
39
0.0
210
0.0
220
0.0
230
1.0
50
360.0
0
LINE
5
235
330
1A
100
AcDbEntity
67
0
8
Theoretical Hole
62
244
420
659967
6
ByLayer
370
-1
48
1.0
60
0
100
AcDbLine
10
748603.507999084
20
8930344.40699959
30
189.916999999717
11
748605.998115204
21
8930343.7033062
31
180.102385612488
39
0.0
210
0.0
220
0.0
230
1.0
0
TEXT
5
236
330
1A
100
AcDbEntity
67
0
8
Number
62
244
420
659967
6
ByLayer
370
-1
48
1.0
60
0
100
AcDbText
1
29
10
748603.507999084
20
8930344.7879996
30
189.916999999717
40
0.3
41
1.0
50
0.0
51
0.0
7
Standard
11
748603.507999084
21
8930344.7879996
31
189.916999999717
210
0.0
220
0.0
230
1.0
72
0
100
AcDbText
73
0
0
TEXT
5
237
330
1A
100
AcDbEntity
67
0
8
label
62
1
420
16711680
6
ByLayer
370
-1
48
1.0
60
0
100
AcDbText
1

10
748603.507999084
20
8930345.1879996
30
189.916999999717
40
0.3
41
1.0
50
0.0
51
0.0
7
Standard
11
748603.507999084
21
8930345.1879996
31
189.916999999717
210
0.0
220
0.0
230
1.0
72
0
100
AcDbText
73
0
0
TEXT
5
238
330
1A
100
AcDbEntity
67
0
8
Length
62
244
420
659967
6
ByLayer
370
-1
48
1.0
60
0
100
AcDbText
1
10.15
10
748603.507999084
20
8930343.65299958
30
189.916999999717
40
0.3
41
1.0
50
0.0
51
0.0
7
Standard
11
748603.507999084
21
8930343.65299958
31
189.916999999717
210
0.0
220
0.0
230
1.0
72
0
100
AcDbText
73
0
0
POLYLINE
5
245
330
1A
100
AcDbEntity
67
0
8
Real Hole
62
1
420
16711680
6
ByLayer
370
-1
48
1.0
60
0
100
AcDb3dPolyline
10
0.0
20
0.0
30
0.0
70
8
75
0
210
0.0
220
0.0
230
1.0
0
VERTEX
5
239
100
AcDbEntity
8
Real Hole
62
1
420
16711680
100
AcDbVertex
100
AcDb3dPolylineVertex
10
748603.507999084
20
8930344.40699959
30
189.916999999717
70
32
0
VERTEX
5
23A
100
AcDbEntity
8
Real Hole
62
1
420
16711680
100
AcDbVertex
100
AcDb3dPolylineVertex
10
748603.800127886
20
8930344.46436593
30
188.962343041137
70
32
0
VERTEX
5
23B
100
AcDbEntity
8
Real Hole
62
1
420
16711680
100
AcDbVertex
100
AcDb3dPolylineVertex
10
748604.069795154
20
8930344.54913303
30
188.003127757743
70
32
0
VERTEX
5
23C
100
AcDbEntity
8
Real Hole
62
1
420
16711680
100
AcDbVertex
100
AcDb3dPolylineVertex
10
748604.351024173
20
8930344.65838403
30
187.049726192191
70
32
0
VERTEX
5
23D
100
AcDbEntity
8
Real Hole
62
1
420
16711680
100
AcDbVertex
100
AcDb3dPolylineVertex
10
748604.640417717
20
8930344.72461084
30
186.094809714988
70
32
0
VERTEX
5
23E
100
AcDbEntity
8
Real Hole
62
1
420
16711680
100
AcDbVertex
100
AcDb3dPolylineVertex
10
748604.936200045
20
8930344.80441901
30
185.142893974021
70
32
0
VERTEX
5
23F
100
AcDbEntity
8
Real Hole
62
1
420
16711680
100
AcDbVertex
100
AcDb3dPolylineVertex
10
748605.220127724
20
8930344.88524437
30
184.187461082175
70
32
0
VERTEX
5
240
100
AcDbEntity
8
Real Hole
62
1
420
16711680
100
AcDbVertex
100
AcDb3dPolylineVertex
10
748605.473805926
20
8930344.99089235
30
183.22595900698
70
32
0
VERTEX
5
241
100
AcDbEntity
8
Real Hole
62
1
420
16711680
100
AcDbVertex
100
AcDb3dPolylineVertex
10
748605.766872309
20
8930345.06532174
30
182.272768680289
70
32
0
VERTEX
5
242
100
AcDbEntity
8
Real Hole
62
1
420
16711680
100
AcDbVertex
100
AcDb3dPolylineVertex
10
748606.062313459
20
8930345.11264378
30
181.318579856589
70
32
0
VERTEX
5
243
100
AcDbEntity
8
Real Hole
62
1
420
16711680
100
AcDbVertex
100
AcDb3dPolylineVertex
10
748606.309634111
20
8930345.24029559
30
180.358092490867
70
32
0
SEQEND
5
244
100
AcDbEntity
8
Real Hole
0
POINT
5
246
330
1A
100
AcDbEntity
67
0
8
Hole
62
244
420
659967
6
ByLayer
370
-1
48
1.0
60
0
100
AcDbPoint
10
748603.896999023
20
8930346.17000008
30
190.036000000596
39
0.0
210
0.0
220
0.0
230
1.0
50
360.0
0
LINE
5
247
330
1A
100
AcDbEntity
67
0
8
Theoretical Hole
62
244
420
659967
6
ByLayer
370
-1
48
1.0
60
0
100
AcDbLine
10
748603.896999023
20
8930346.17000008
30
190.036000000596
11
748606.437186859
21
8930345.42045403
31
180.082326980591
39
0.0
210
0.0
220
0.0
230
1.0
0
TEXT
5
248
330
1A
100
AcDbEntity
67
0
8
Number
62
244
420
659967
6
ByLayer
370
-1
48
1.0
60
0
100
AcDbText
1
30
10
748603.896999023
20
8930346.55100009
30
190.036000000596
40
0.3
41
1.0
50
0.0
51
0.0
7
Standard
11
748603.896999023
21
8930346.55100009
31
190.036000000596
210
0.0
220
0.0
230
1.0
72
0
100
AcDbText
73
0
0
TEXT
5
249
330
1A
100
AcDbEntity
67
0
8
label
62
1
420
16711680
6
ByLayer
370
-1
48
1.0
60
0
100
AcDbText
1

10
748603.896999023
20
8930346.95100009
30
190.036000000596
40
0.3
41
1.0
50
0.0
51
0.0
7
Standard
11
748603.896999023
21
8930346.95100009
31
190.036000000596
210
0.0
220
0.0
230
1.0
72
0
100
AcDbText
73
0
0
TEXT
5
24A
330
1A
100
AcDbEntity
67
0
8
Length
62
244
420
659967
6
ByLayer
370
-1
48
1.0
60
0
100
AcDbText
1
10.30
10
748603.896999023
20
8930345.41600007
30
190.036000000596
40
0.3
41
1.0
50
0.0
51
0.0
7
Standard
11
748603.896999023
21
8930345.41600007
31
190.036000000596
210
0.0
220
0.0
230
1.0
72
0
100
AcDbText
73
0
0
POLYLINE
5
257
330
1A
100
AcDbEntity
67
0
8
Real Hole
62
1
420
16711680
6
ByLayer
370
-1
48
1.0
60
0
100
AcDb3dPolyline
10
0.0
20
0.0
30
0.0
70
8
75
0
210
0.0
220
0.0
230
1.0
0
VERTEX
5
24B
100
AcDbEntity
8
Real Hole
62
1
420
16711680
100
AcDbVertex
100
AcDb3dPolylineVertex
10
748603.896999023
20
8930346.17000008
30
190.036000000596
70
32
0
VERTEX
5
24C
100
AcDbEntity
8
Real Hole
62
1
420
16711680
100
AcDbVertex
100
AcDb3dPolylineVertex
10
748604.139980398
20
8930346.33290768
30
189.079746293187
70
32
0
VERTEX
5
24D
100
AcDbEntity
8
Real Hole
62
1
420
16711680
100
AcDbVertex
100
AcDb3dPolylineVertex
10
748604.390714459
20
8930346.49648392
30
188.125610458016
70
32
0
VERTEX
5
24E
100
AcDbEntity
8
Real Hole
62
1
420
16711680
100
AcDbVertex
100
AcDb3dPolylineVertex
10
748604.618982754
20
8930346.6674369
30
187.167138325334
70
32
0
VERTEX
5
24F
100
AcDbEntity
8
Real Hole
62
1
420
16711680
100
AcDbVertex
100
AcDb3dPolylineVertex
10
748604.879084609
20
8930346.83764273
30
186.216676937699
70
32
0
VERTEX
5
250
100
AcDbEntity
8
Real Hole
62
1
420
16711680
100
AcDbVertex
100
AcDb3dPolylineVertex
10
748605.145009182
20
8930346.9787398
30
185.263065086961
70
32
0
VERTEX
5
251
100
AcDbEntity
8
Real Hole
62
1
420
16711680
100
AcDbVertex
100
AcDb3dPolylineVertex
10
748605.404516004
20
8930347.12258679
30
184.308096634507
70
32
0
VERTEX
5
252
100
AcDbEntity
8
Real Hole
62
1
420
16711680
100
AcDbVertex
100
AcDb3dPolylineVertex
10
748605.685412429
20
8930347.25018442
30
183.356878506303
70
32
0
VERTEX
5
253
100
AcDbEntity
8
Real Hole
62
1
420
16711680
100
AcDbVertex
100
AcDb3dPolylineVertex
10
748605.96233835
20
8930347.37925828
30
182.404695736527
70
32
0
VERTEX
5
254
100
AcDbEntity
8
Real Hole
62
1
420
16711680
100
AcDbVertex
100
AcDb3dPolylineVertex
10
748606.229815863
20
8930347.50844669
30
181.449831711411
70
32
0
VERTEX
5
255
100
AcDbEntity
8
Real Hole
62
1
420
16711680
100
AcDbVertex
100
AcDb3dPolylineVertex
10
748606.487142466
20
8930347.65243864
30
180.494294869065
70
32
0
SEQEND
5
256
100
AcDbEntity
8
Real Hole
0
VIEWPORT
5
25C
330
258
100
AcDbEntity
67
1
8
0
62
256
6
ByLayer
370
-1
48
1.0
60
0
100
AcDbViewport
10
0.0
20
0.0
30
0.0
40
297.0
41
210.0
68
1
69
1
12
50.0
22
100.0
13
0.0
23
0.0
14
10.0
24
10.0
15
10.0
25
10.0
16
0.0
26
0.0
36
1.0
17
0.0
27
0.0
37
0.0
42
50.0
43
0.0
44
0.0
45
250.0
50
0.0
51
0.0
72
1000
90
819232
110
0.0
120
0.0
130
0.0
111
1.0
121
0.0
131
0.0
112
0.0
122
1.0
132
0.0
0
ENDSEC
0
SECTION
2
OBJECTS
0
DICTIONARY
5
261
330
0
100
AcDbDictionary
280
0
281
1
3
ACAD_GROUP
350
262
3
ACAD_LAYOUT
350
263
3
ACAD_MLINESTYLE
350
267
0
DICTIONARY
5
262
330
261
100
AcDbDictionary
280
0
281
1
0
DICTIONARY
5
263
330
261
100
AcDbDictionary
280
0
281
1
3
Model
350
1E
3
Layout1
350
25D
0
DICTIONARY
5
267
330
261
100
AcDbDictionary
280
0
281
1
3
Standard
350
19
0
LAYOUT
5
1E
330
263
100
AcDbPlotSettings
1

2
none_device
4
ISO_A4_(210.00_x_297.00_MM)
6

40
7.5
41
20.0
42
7.5
43
20.0
44
210.0
45
297.0
46
0.0
47
0.0
48
0.0
49
0.0
140
0.0
141
0.0
142
1.0
143
1.0
70
11952
72
1
73
1
74
5
7

75
16
147
1.0
148
0.0
149
0.0
100
AcDbLayout
1
Model
70
1
71
0
10
-20.0
20
-7.5
11
277.0
21
202.5
12
0.0
22
0.0
32
0.0
14
25.7
24
19.5
34
0.0
15
231.3
25
175.5
35
0.0
146
0.0
13
0.0
23
0.0
33
0.0
16
1.0
26
0.0
36
0.0
17
0.0
27
1.0
37
0.0
76
0
330
1A
0
LAYOUT
5
25D
330
263
100
AcDbPlotSettings
1

2
none_device
4
ISO_A4_(210.00_x_297.00_MM)
6

40
7.5
41
20.0
42
7.5
43
20.0
44
210.0
45
297.0
46
0.0
47
0.0
48
0.0
49
0.0
140
0.0
141
0.0
142
1.0
143
1.0
70
688
72
1
73
1
74
5
7

75
16
147
1.0
148
0.0
149
0.0
100
AcDbLayout
1
Layout1
70
1
71
1
10
-20.0
20
-7.5
11
277.0
21
202.5
12
0.0
22
0.0
32
0.0
14
25.7
24
19.5
34
0.0
15
231.3
25
175.5
35
0.0
146
0.0
13
0.0
23
0.0
33
0.0
16
1.0
26
0.0
36
0.0
17
0.0
27
1.0
37
0.0
76
0
330
258
0
MLINESTYLE
5
19
330
267
100
AcDbMlineStyle
2
Standard
70
0
3

62
256
51
90.0
52
90.0
71
2
49
-0.5
62
256
6
ByLayer
49
0.5
62
256
6
ByLayer
0
ENDSEC
0
EOF
